<?xml version="1.0" encoding="UTF-8"?>
<svg id="_圖層_2" data-name="圖層_2" xmlns="http://www.w3.org/2000/svg" version="1.1" viewBox="0 0 154 154">
  <!-- Generator: Adobe Illustrator 30.1.0, SVG Export Plug-In . SVG Version: 2.1.1 Build 136)  -->
  <defs>
    <style>
      .st0, .st1 {
        fill: #ffb703;
      }

      .st2 {
        fill: #fd7e14;
      }

      .st3 {
        fill: #6c757d;
      }

      .st4 {
        fill: #f8f9fa;
      }

      .st4, .st1 {
        stroke: #003e6e;
        stroke-linecap: round;
        stroke-linejoin: round;
        stroke-width: 5px;
      }
    </style>
  </defs>
  <g>
    <path class="st4" d="M81.3,35.8h.5c6.4,1.3,9.8,7.8,8.7,14.1l-3,16.9c-.8,4.6,2.3,9,7,9.8s1.2.1,1.8.1c1.9,0,3.7-.5,5.6-1,2.6-.6,5.2-1.3,7.8-.8,5.6,1,10.1,5.6,9.3,11.1,0,.6-.2,1.2-.3,1.8-4.3,24.5-28.1,40.8-53.2,36.6-25-4.3-41.8-27.6-37.5-52.1s28.1-40.8,53.2-36.6Z"/>
    <ellipse class="st3" cx="52.7" cy="97" rx="7.1" ry="7.3" transform="translate(-46.2 146.1) rotate(-87.8)"/>
    <path class="st0" d="M45.5,67.5c-4.3-.7-8.5,2.1-9.2,6.3s2.1,8.3,6.5,9c4.3.7,8.5-2.1,9.2-6.3s-2.1-8.3-6.5-9Z"/>
    <path class="st2" d="M67,56.5c.8-4.6-2.3-9-7-9.8s-9.2,2.3-10,6.9c-.8,4.6,2.3,9,7,9.8s9.2-2.3,10-6.9Z"/>
  </g>
  <g>
    <path class="st4" d="M107.9,35.9l-22.2,27.3c-2.9,3.6-4,8.3-3,12.7,8.5-.9,16.7,3.3,20.9,10.6,4.3-1.7,7.5-5.3,8.8-9.7l9.8-33.6c.4-1.5.4-3.2,0-4.7-1.4-4.2-6-6.6-10.3-5.2s-2.9,1.4-3.9,2.6Z"/>
    <path class="st1" d="M99.2,92.4c-2.5-7.8-10.9-12-18.8-9.6s-12.2,10.7-9.7,18.5.3,1,.5,1.4c.9,2.1.2,5-2.1,5.7l-.6.2c-2.3.7-3.5,3.1-2.8,5.3s3.1,3.4,5.4,2.7l18.4-5.7c7.9-2.5,12.2-10.7,9.7-18.5Z"/>
  </g>
</svg>