<?xml version="1.0" encoding="UTF-8"?>
<svg xmlns="http://www.w3.org/2000/svg" version="1.1" viewBox="0 0 1130 363">
  <defs>
    <style>
      .cls-1 {
        fill: #9c938b;
      }

      .cls-2, .cls-3, .cls-4 {
        isolation: isolate;
      }

      .cls-2, .cls-4 {
        mix-blend-mode: multiply;
        opacity: .5;
      }

      .cls-5 {
        fill: #ffbe87;
      }

      .cls-6 {
        fill: #1f8c69;
      }

      .cls-7 {
        fill: #c9c1b8;
      }

      .cls-8 {
        fill: #3d2213;
      }

      .cls-8, .cls-9, .cls-10, .cls-11, .cls-12, .cls-13, .cls-14, .cls-15, .cls-16, .cls-17, .cls-18, .cls-19, .cls-20, .cls-21 {
        fill-rule: evenodd;
      }

      .cls-22 {
        fill: #8f877f;
      }

      .cls-9, .cls-23 {
        fill: #a39d96;
      }

      .cls-10, .cls-24 {
        fill: #c26b42;
      }

      .cls-11 {
        fill: #8a857f;
      }

      .cls-12, .cls-25 {
        fill: #873b24;
      }

      .cls-26, .cls-14 {
        fill: #fff;
      }

      .cls-27 {
        fill: #874b2b;
      }

      .cls-13, .cls-28 {
        fill: #ded5cb;
      }

      .cls-15, .cls-29 {
        fill: #5c3420;
      }

      .cls-16 {
        fill: #e0cb15;
      }

      .cls-30 {
        fill: #d9d0c6;
      }

      .cls-31 {
        fill: #fcf0f0;
        stroke: #fd6a65;
      }

      .cls-31, .cls-32, .cls-33 {
        stroke-linejoin: round;
        stroke-width: 2px;
      }

      .cls-31, .cls-33 {
        stroke-linecap: round;
      }

      .cls-34 {
        fill: #fca358;
      }

      .cls-17, .cls-35 {
        fill: #ded5ca;
      }

      .cls-4, .cls-36 {
        fill: #24a37b;
      }

      .cls-37 {
        fill: #c2bab2;
      }

      .cls-38 {
        fill: #21946f;
      }

      .cls-39 {
        fill: #155e47;
      }

      .cls-40 {
        fill: #e69b5c;
      }

      .cls-32, .cls-33 {
        fill: none;
        stroke: #484848;
      }

      .cls-18 {
        fill: #ba5de5;
      }

      .cls-41, .cls-42 {
        fill: #484848;
      }

      .cls-19 {
        fill: #3cc583;
      }

      .cls-43 {
        fill: #1d8262;
      }

      .cls-44 {
        fill: #ffac66;
      }

      .cls-45 {
        fill: #d6573e;
      }

      .cls-20 {
        fill: #4a2a1a;
      }

      .cls-46 {
        fill: #c97d3c;
      }

      .cls-47 {
        fill: #fd6a65;
      }

      .cls-33 {
        stroke-dasharray: 5 7;
      }

      .cls-42 {
        opacity: 0;
      }

      .cls-21 {
        fill: #4e88e7;
      }
    </style>
  </defs>
  <!-- Generator: Adobe Illustrator 28.7.9, SVG Export Plug-In . SVG Version: 1.2.0 Build 218)  -->
  <g>
    <g id="_x31_6_x5F_自然科學">
      <g id="g-root-cu_qn5p18mjjo5c-stroke">
        <g id="cu_qn5p18mjjo5c-stroke">
          <path class="cls-32" d="M460,203h-3.2c-11.5,0-20.8,9.3-20.8,20.8v6.4c0,11.5-9.3,20.8-20.8,20.8h-.2s-3,0-3,0"/>
        </g>
      </g>
      <g id="g-root-cu_qn5p18mjjo5c-stroke-2" data-name="g-root-cu_qn5p18mjjo5c-stroke">
        <g id="cu_qn5p18mjjo5c-stroke-2" data-name="cu_qn5p18mjjo5c-stroke">
          <path class="cls-32" d="M412,77h3s.2,0,.2,0c11.5,0,20.8,9.3,20.8,20.8v.2s0,42.2,0,42.2c0,11.5,9.3,20.8,20.8,20.8h.2s3,0,3,0"/>
        </g>
      </g>
      <g id="g-root-cu_qn5p18mjjo5c-stroke-3" data-name="g-root-cu_qn5p18mjjo5c-stroke">
        <g id="cu_qn5p18mjjo5c-stroke-3" data-name="cu_qn5p18mjjo5c-stroke">
          <path class="cls-32" d="M688,77h-3.2c-11.5,0-20.8,9.3-20.8,20.8v42.4c0,11.5-9.3,20.8-20.8,20.8h-.2s-3,0-3,0"/>
        </g>
      </g>
      <g id="g-root-cu_qn5p18mjjo5c-stroke-4" data-name="g-root-cu_qn5p18mjjo5c-stroke">
        <g id="cu_qn5p18mjjo5c-stroke-4" data-name="cu_qn5p18mjjo5c-stroke">
          <path class="cls-32" d="M640,203h3s.2,0,.2,0c11.5,0,20.8,9.3,20.8,20.8v.2s0,6.2,0,6.2c0,11.5,9.3,20.8,20.8,20.8h.2s3,0,3,0"/>
        </g>
      </g>
      <g id="g-root-cu_hs55vgmjjlse-stroke">
        <g id="cu_hs55vgmjjlse-stroke">
          <path class="cls-33" d="M718,278v12c0,6.6,5.4,12,12,12h6"/>
        </g>
      </g>
      <g id="g-root-cu_v5domjjo5q-stroke">
        <g id="cu_v5domjjo5q-stroke">
          <path class="cls-33" d="M382,276v12c0,6.6-5.4,12-12,12h-6"/>
        </g>
      </g>
      <g>
        <g id="g-root-cu_dcbnr0mjjmkp-stroke">
          <g id="cu_dcbnr0mjjmkp-stroke">
            <path class="cls-33" d="M382,104v24h-18"/>
          </g>
        </g>
        <g id="g-root-cu_8wi5mkmjjnd0-stroke">
          <g id="cu_8wi5mkmjjnd0-stroke">
            <path class="cls-33" d="M382,104v48c0,6.6-5.4,12-12,12h-6"/>
          </g>
        </g>
      </g>
      <g>
        <g id="g-root-cu_4goni4mjjo5d-stroke">
          <g id="cu_4goni4mjjo5d-stroke">
            <path class="cls-33" d="M718,104v24h18"/>
          </g>
        </g>
        <g id="g-root-cu_1um5p8cmjjor0-stroke">
          <g id="cu_1um5p8cmjjor0-stroke">
            <path class="cls-33" d="M718,104v48c0,6.6,5.4,12,12,12h6"/>
          </g>
        </g>
      </g>
      <g id="c134">
        <g id="tx__1lvihocmj2tce-fill">
          <g class="cls-3">
            <g class="cls-3">
              <path class="cls-41" d="M753.3,153.3h1.4c0,.9,0,1.9,0,2.9,0,1.1-.1,2.2-.3,3.3s-.4,2.3-.8,3.4c-.4,1.1-.9,2.3-1.5,3.3-.6,1.1-1.5,2.1-2.5,3-1,.9-2.3,1.7-3.7,2.3-.1-.2-.3-.4-.4-.6-.2-.2-.4-.4-.6-.5,1.4-.6,2.7-1.3,3.6-2.2,1-.9,1.8-1.8,2.4-2.8s1.1-2.1,1.4-3.1c.3-1.1.6-2.2.7-3.2.2-1.1.2-2.1.3-3.1,0-1,0-1.9,0-2.7ZM745.2,158.6h17.6v1.3h-17.6v-1.3ZM751,167.3l1.1-.8c.5.4,1,.8,1.5,1.3.5.5,1,.9,1.5,1.4.5.5.8.9,1.1,1.2l-1.1.9c-.3-.4-.6-.8-1.1-1.3-.4-.5-.9-.9-1.4-1.4-.5-.5-1-.9-1.5-1.3ZM755.1,159.2c.5,1.7,1.1,3.3,1.8,4.8s1.7,2.8,2.8,3.8,2.3,2,3.8,2.5c-.1,0-.2.2-.4.4-.1.1-.2.3-.4.4s-.2.3-.3.4c-1.5-.7-2.7-1.6-3.8-2.8-1.1-1.2-2-2.6-2.8-4.1-.8-1.6-1.4-3.3-1.9-5.1l1.3-.3Z"/>
              <path class="cls-41" d="M765.5,169.8h17.1v1.3h-17.1v-1.3ZM765.6,155.6h16.8v3.9h-1.4v-2.7h-14.1v3.2h-1.3v-4.4ZM771.5,156.5h1.4c0,.9-.2,1.8-.4,2.5-.2.7-.5,1.3-1,1.8-.4.5-1.1.9-1.9,1.3-.8.3-1.8.6-3.1.8,0-.1,0-.2-.1-.4,0-.1-.1-.3-.2-.4,0-.1-.2-.2-.3-.3,1.1-.2,2.1-.4,2.8-.7.7-.3,1.3-.6,1.6-1s.7-.9.8-1.5c.2-.6.3-1.3.3-2.1ZM767.2,164.1h13.5v1.3h-13.5v-1.3ZM772.4,153.5l1.4-.4c.3.4.6.9.8,1.5.3.5.5,1,.6,1.4l-1.4.5c-.1-.4-.3-.9-.6-1.4-.3-.6-.5-1.1-.8-1.5ZM773.4,164.7h1.4v5.7h-1.4v-5.7ZM775.5,156.5h1.3v3.7c0,.3,0,.5.1.6s.3.2.5.2h3.5c.2,0,.5,0,.8,0,.3,0,.6,0,.7,0,0,.2,0,.4,0,.6,0,.2,0,.4,0,.6-.2,0-.4,0-.7,0-.3,0-.6,0-.9,0h-3.6c-.5,0-.9,0-1.2-.2-.3-.1-.5-.3-.6-.6-.1-.3-.2-.7-.2-1.2v-3.7Z"/>
              <path class="cls-41" d="M788.4,159.3l.8.4c-.2.7-.4,1.4-.7,2.2-.3.8-.6,1.5-1,2.2-.4.7-.7,1.4-1.1,2.1-.4.6-.8,1.2-1.2,1.6,0-.2-.2-.4-.3-.6-.1-.2-.3-.4-.4-.6.4-.4.7-.9,1.1-1.5.4-.6.7-1.2,1.1-1.8.3-.7.7-1.3.9-2,.3-.7.5-1.3.7-2ZM784.9,158.9h7.8v1.3h-7.8v-1.3ZM791.5,153.5l.8,1.1c-.6.2-1.3.5-2.1.7s-1.6.4-2.4.5c-.8.2-1.6.3-2.4.4,0-.1,0-.3-.2-.5s-.2-.4-.2-.5c.7-.1,1.5-.3,2.3-.4s1.5-.3,2.3-.5c.7-.2,1.3-.4,1.8-.6ZM788.3,154.9h1.3v16.7h-1.3v-16.7ZM789.6,160.4c.1.1.3.4.6.7.3.3.6.7.9,1.1.3.4.6.8.9,1.1.3.3.5.6.6.8l-.8,1c-.1-.2-.3-.6-.5-.9s-.5-.8-.8-1.2c-.3-.4-.5-.8-.8-1.2-.3-.4-.5-.6-.6-.8l.6-.6ZM792.5,166.3l10.6-1.7.2,1.2-10.6,1.7-.2-1.3ZM793.3,160.6l.8-.8c.4.3.9.5,1.4.9.5.3.9.7,1.3,1s.7.7,1,.9l-.9.9c-.3-.3-.6-.6-1-1s-.8-.7-1.3-1-.9-.7-1.3-.9ZM794.1,155.4l.9-.8c.4.2.8.5,1.2.8s.8.6,1.2,1c.4.3.7.6.9.9l-.9.9c-.2-.3-.5-.6-.9-.9-.4-.3-.7-.7-1.2-1-.4-.3-.8-.6-1.2-.9ZM799.3,153.2h1.3v18.3h-1.3v-18.3Z"/>
              <path class="cls-41" d="M805.1,166.4h17.9v1.2h-17.9v-1.2ZM805.5,160.4h17v3.6h-1.3v-2.5h-14.4v2.5h-1.3v-3.6ZM810.6,153.4l.6.8c-.6.2-1.2.4-2,.6s-1.4.3-2,.3l-.5-.8c.4,0,.8-.2,1.3-.3s.9-.2,1.4-.4.8-.2,1.2-.3ZM806.8,154.4l1.3.4.4,6.2h-1.3l-.4-6.6ZM807.5,156.1h3.6v1h-3.6v-1ZM807.6,158.2h3.6v1h-3.6v-1ZM808.8,162.9h9.6v1h-9.6v-1ZM813.5,165.5h1.3v4.6c0,.4,0,.6-.2.8,0,.2-.3.3-.6.4-.3,0-.7.1-1.2.2-.5,0-1.2,0-2,0,0-.2,0-.3-.2-.6,0-.2-.2-.4-.3-.6.4,0,.8,0,1.2,0,.4,0,.7,0,1,0s.5,0,.5,0c.2,0,.3,0,.3,0s0-.1,0-.3v-4.5ZM815.1,156.8l1,.3c-.5.6-1.1,1.2-1.8,1.8-.7.6-1.4,1.1-2.2,1.5,0,0-.2-.2-.4-.4-.2-.2-.3-.3-.4-.4.7-.3,1.4-.7,2.1-1.2.7-.5,1.2-1,1.7-1.6ZM815,153.4l1,.3c-.5.6-1,1.2-1.7,1.8-.7.6-1.4,1-2,1.4,0,0-.2-.2-.4-.4-.2-.1-.3-.3-.4-.3.7-.3,1.3-.8,2-1.2.7-.5,1.2-1,1.6-1.5ZM811.7,157.7l.7-.6c.5.2.9.5,1.4.7.5.3,1,.6,1.4.9.4.3.8.6,1.1.8l-.7.7c-.3-.3-.6-.6-1-.9-.4-.3-.9-.6-1.4-.9-.5-.3-1-.6-1.4-.8ZM811.8,154.3l.7-.6c.5.2.9.4,1.4.7s.9.5,1.4.8c.4.3.8.5,1,.8l-.7.7c-.3-.2-.6-.5-1-.8-.4-.3-.9-.6-1.3-.8-.5-.3-.9-.5-1.4-.7ZM818,162.9h.6c0,0,.8.6.8.6-.5.4-1,.7-1.6,1-.6.3-1.2.6-1.8.9s-1.2.5-1.8.8c0-.1-.2-.2-.3-.4-.1-.1-.3-.2-.4-.3.5-.2,1.1-.4,1.6-.7s1.1-.5,1.6-.8.9-.6,1.2-.8v-.3ZM816.8,158.2h3.6v1h-3.6v-1ZM816.8,154h3.9v1h-3.9v-1ZM816.9,156.1h3.6v1h-3.6v-1ZM820.1,154h1.3c0,.8,0,1.6-.1,2.4s-.1,1.7-.2,2.5-.1,1.5-.2,2.1h-1.3c0-.6.2-1.3.2-2.1,0-.8.1-1.6.2-2.5,0-.9,0-1.6.1-2.4Z"/>
              <path class="cls-41" d="M825.1,166.4h17.9v1.2h-17.9v-1.2ZM825.5,160.4h17v3.6h-1.3v-2.5h-14.4v2.5h-1.3v-3.6ZM830.6,153.4l.6.8c-.6.2-1.2.4-2,.6s-1.4.3-2,.3l-.5-.8c.4,0,.8-.2,1.3-.3s.9-.2,1.4-.4.8-.2,1.2-.3ZM826.8,154.4l1.3.4.4,6.2h-1.3l-.4-6.6ZM827.5,156.1h3.6v1h-3.6v-1ZM827.6,158.2h3.6v1h-3.6v-1ZM828.8,162.9h9.6v1h-9.6v-1ZM833.5,165.5h1.3v4.6c0,.4,0,.6-.2.8,0,.2-.3.3-.6.4-.3,0-.7.1-1.2.2-.5,0-1.2,0-2,0,0-.2,0-.3-.2-.6,0-.2-.2-.4-.3-.6.4,0,.8,0,1.2,0,.4,0,.7,0,1,0s.5,0,.5,0c.2,0,.3,0,.3,0s0-.1,0-.3v-4.5ZM835.1,156.8l1,.3c-.5.6-1.1,1.2-1.8,1.8-.7.6-1.4,1.1-2.2,1.5,0,0-.2-.2-.4-.4-.2-.2-.3-.3-.4-.4.7-.3,1.4-.7,2.1-1.2.7-.5,1.2-1,1.7-1.6ZM835,153.4l1,.3c-.5.6-1,1.2-1.7,1.8-.7.6-1.4,1-2,1.4,0,0-.2-.2-.4-.4-.2-.1-.3-.3-.4-.3.7-.3,1.3-.8,2-1.2.7-.5,1.2-1,1.6-1.5ZM831.7,157.7l.7-.6c.5.2.9.5,1.4.7.5.3,1,.6,1.4.9.4.3.8.6,1.1.8l-.7.7c-.3-.3-.6-.6-1-.9-.4-.3-.9-.6-1.4-.9-.5-.3-1-.6-1.4-.8ZM831.8,154.3l.7-.6c.5.2.9.4,1.4.7s.9.5,1.4.8c.4.3.8.5,1,.8l-.7.7c-.3-.2-.6-.5-1-.8-.4-.3-.9-.6-1.3-.8-.5-.3-.9-.5-1.4-.7ZM838,162.9h.6c0,0,.8.6.8.6-.5.4-1,.7-1.6,1-.6.3-1.2.6-1.8.9s-1.2.5-1.8.8c0-.1-.2-.2-.3-.4-.1-.1-.3-.2-.4-.3.5-.2,1.1-.4,1.6-.7s1.1-.5,1.6-.8.9-.6,1.2-.8v-.3ZM836.8,158.2h3.6v1h-3.6v-1ZM836.8,154h3.9v1h-3.9v-1ZM836.9,156.1h3.6v1h-3.6v-1ZM840.1,154h1.3c0,.8,0,1.6-.1,2.4s-.1,1.7-.2,2.5-.1,1.5-.2,2.1h-1.3c0-.6.2-1.3.2-2.1,0-.8.1-1.6.2-2.5,0-.9,0-1.6.1-2.4Z"/>
              <path class="cls-41" d="M849.9,166l1.3.5c-.4.5-.8,1-1.3,1.6s-1,1-1.6,1.5c-.5.5-1.1.9-1.6,1.2,0,0-.2-.2-.3-.3-.1-.1-.3-.2-.4-.3s-.3-.2-.4-.3c.8-.5,1.6-1.1,2.4-1.8.8-.7,1.4-1.4,2-2.1ZM858.3,153.3l1,1.1c-.8.4-1.7.7-2.8,1.1-1,.3-2.1.7-3.3,1-1.2.3-2.3.6-3.5.8-1.2.3-2.4.5-3.5.7,0-.2,0-.4-.2-.6,0-.2-.2-.4-.2-.5,1.1-.2,2.3-.5,3.4-.7,1.2-.3,2.3-.5,3.4-.8s2.2-.6,3.1-.9c1-.3,1.8-.7,2.5-1ZM846.6,165.7c0-.1,0-.2,0-.4,0-.2-.1-.3-.2-.5,0-.2-.1-.3-.2-.4.3,0,.7-.1,1.1-.3.5-.2,1-.4,1.6-.7.3-.1.8-.4,1.5-.7.7-.3,1.4-.7,2.3-1.2.8-.5,1.7-1,2.6-1.6.9-.6,1.8-1.2,2.6-1.8l1,.9c-1.9,1.3-3.8,2.5-5.7,3.5-1.9,1-3.8,1.9-5.7,2.6h0c-.2.1-.4.2-.5.2-.1,0-.2.1-.4.2s-.1.1-.1.2ZM846.6,165.7v-1s.9-.5.9-.5l13.1-.9c0,.2,0,.4,0,.6v.6c-2,.1-3.8.3-5.2.4s-2.7.2-3.7.3c-1,0-1.8.1-2.4.2-.6,0-1.1.1-1.4.2-.3,0-.6,0-.8.1-.2,0-.3,0-.5.1ZM847.7,161.5c0,0,0-.2,0-.4,0-.2,0-.3-.2-.5,0-.2,0-.3-.1-.4.2,0,.5,0,.7-.2.3-.1.6-.2.9-.4.2-.1.6-.3,1.1-.7.5-.3,1.1-.7,1.8-1.2.6-.4,1.2-.9,1.8-1.4l1.2.8c-1,.8-2,1.5-3.1,2.1-1.1.6-2.1,1.2-3.1,1.6h0c-.2.1-.3.2-.5.2-.1,0-.2.1-.3.2,0,0-.1.1-.1.2ZM847.7,161.5v-1s.8-.4.8-.4l7.5-.4c0,.2,0,.3,0,.6,0,.2,0,.4,0,.5-1.4,0-2.5.2-3.4.2-.9,0-1.7.1-2.3.2s-1,0-1.4.1c-.3,0-.6,0-.7,0-.2,0-.3,0-.4.1ZM853.5,164.1h1.4v5.7c0,.4,0,.7-.2.9-.1.2-.3.4-.6.5s-.7.2-1.2.2-1.1,0-1.9,0c0-.2-.1-.4-.2-.7-.1-.3-.2-.5-.3-.7.4,0,.8,0,1.2,0,.4,0,.7,0,.9,0s.4,0,.5,0c.2,0,.3,0,.3,0,0,0,0-.1,0-.2v-5.7ZM856.8,166.5l1-.7c.5.4,1.1.9,1.7,1.3.6.5,1.1,1,1.7,1.4.5.5,1,.9,1.3,1.3l-1.1.8c-.3-.4-.7-.8-1.2-1.3-.5-.5-1.1-1-1.6-1.5s-1.1-1-1.7-1.4ZM857.4,161.2l1.1-.5c.5.5,1,.9,1.5,1.5.5.5,1,1.1,1.5,1.6.5.5.8,1,1.1,1.4l-1.1.7c-.3-.4-.6-.9-1.1-1.4s-.9-1.1-1.5-1.6c-.5-.5-1-1.1-1.5-1.5Z"/>
            </g>
          </g>
        </g>
        <rect class="cls-42" x="744" y="153" width="119" height="19"/>
      </g>
      <g id="c133">
        <g id="tx__1ur5hx8mj2sjp-fill">
          <g class="cls-3">
            <g class="cls-3">
              <path class="cls-41" d="M753.3,117.3h1.4c0,.8,0,1.8,0,2.8s-.1,2.1-.3,3.3c-.2,1.1-.4,2.3-.8,3.4-.4,1.2-.9,2.3-1.5,3.4-.7,1.1-1.5,2.1-2.5,3s-2.2,1.7-3.7,2.4c-.1-.2-.3-.4-.5-.6-.2-.2-.4-.4-.6-.5,1.4-.6,2.6-1.4,3.6-2.2,1-.9,1.8-1.8,2.4-2.8.6-1,1.1-2.1,1.4-3.2.3-1.1.6-2.2.7-3.3.1-1.1.2-2.1.2-3.1,0-1,0-1.8,0-2.6ZM745.3,123h17.6v1.4h-17.6v-1.4ZM754.9,123.6c.4,1.6,1,3.1,1.8,4.6.8,1.4,1.7,2.6,2.7,3.7s2.3,1.9,3.7,2.5c-.1,0-.2.2-.4.4-.1.2-.2.3-.4.5-.1.2-.2.3-.3.4-1.4-.7-2.7-1.6-3.8-2.7-1.1-1.1-2-2.5-2.8-4-.8-1.5-1.4-3.1-1.9-4.9l1.3-.3Z"/>
              <path class="cls-41" d="M769.4,117.2l1.3.4c-.4.9-.8,1.7-1.3,2.5-.5.8-1.1,1.5-1.6,2.2-.6.7-1.2,1.3-1.8,1.8,0,0-.2-.2-.3-.3-.1-.1-.2-.3-.4-.4-.1-.1-.2-.2-.4-.3.9-.7,1.8-1.6,2.6-2.6.8-1,1.4-2.1,1.9-3.3ZM769.4,130.9l1,.4c-.3.5-.7,1.1-1.2,1.6s-1,1-1.5,1.5c-.5.4-1,.8-1.5,1.1,0-.1-.2-.3-.4-.5-.2-.2-.3-.4-.5-.5.5-.2,1-.5,1.5-.9.5-.4,1-.8,1.4-1.3s.8-.9,1.1-1.4ZM765.6,129.1h12.1v1.1h-12.1v-1.1ZM766.9,124h12v1.1h-12v-1.1ZM767,126.2l1-.4c.3.4.7.8,1,1.3.3.5.5.9.7,1.3l-1.1.5c-.1-.4-.3-.8-.6-1.3-.3-.5-.6-.9-1-1.3ZM768.8,119.1h13.6v1.1h-13.6v-1.1ZM768.9,121.5h12v1.1h-12v-1.1ZM771.1,125.5h1.3v10h-1.3v-10ZM773.3,131.7l.8-.7c.5.3.9.7,1.4,1.1s.9.8,1.4,1.2.8.7,1,1l-.8.8c-.3-.3-.6-.7-1-1.1-.4-.4-.9-.8-1.3-1.2-.5-.4-.9-.8-1.4-1.1ZM775.4,125.8l1.2.5c-.4.5-.7.9-1.1,1.4-.4.5-.8.9-1.1,1.3l-.9-.4c.2-.3.4-.5.7-.9.2-.3.5-.7.7-1s.4-.6.5-.9ZM778.5,124h1.3c0,1.6,0,3,0,4.3,0,1.3.1,2.3.2,3.2.1.9.3,1.6.6,2,.2.5.6.7,1,.7s.4-.3.4-.8.1-1.3.2-2.1c.1.1.3.3.5.4s.3.3.5.3c0,.9-.1,1.6-.2,2.1-.1.5-.3.9-.5,1.1-.2.2-.5.3-.9.3-.7,0-1.3-.3-1.7-.8-.4-.5-.7-1.3-.9-2.3-.2-1-.3-2.2-.4-3.6,0-1.4,0-3.1,0-4.9Z"/>
              <path class="cls-41" d="M788.4,123.3l.8.4c-.2.7-.4,1.4-.7,2.2-.3.8-.6,1.5-1,2.2-.4.7-.7,1.4-1.1,2.1-.4.6-.8,1.2-1.2,1.6,0-.2-.2-.4-.3-.6-.1-.2-.3-.4-.4-.6.4-.4.7-.9,1.1-1.5.4-.6.7-1.2,1.1-1.8.3-.7.7-1.3.9-2,.3-.7.5-1.3.7-2ZM784.9,122.9h7.8v1.3h-7.8v-1.3ZM791.5,117.5l.8,1.1c-.6.2-1.3.5-2.1.7s-1.6.4-2.4.5c-.8.2-1.6.3-2.4.4,0-.1,0-.3-.2-.5s-.2-.4-.2-.5c.7-.1,1.5-.3,2.3-.4s1.5-.3,2.3-.5c.7-.2,1.3-.4,1.8-.6ZM788.3,118.9h1.3v16.7h-1.3v-16.7ZM789.6,124.4c.1.1.3.4.6.7.3.3.6.7.9,1.1.3.4.6.8.9,1.1.3.3.5.6.6.8l-.8,1c-.1-.2-.3-.6-.5-.9s-.5-.8-.8-1.2c-.3-.4-.5-.8-.8-1.2-.3-.4-.5-.6-.6-.8l.6-.6ZM792.5,130.3l10.6-1.7.2,1.2-10.6,1.7-.2-1.3ZM793.3,124.6l.8-.8c.4.3.9.5,1.4.9.5.3.9.7,1.3,1s.7.7,1,.9l-.9.9c-.3-.3-.6-.6-1-1s-.8-.7-1.3-1-.9-.7-1.3-.9ZM794.1,119.4l.9-.8c.4.2.8.5,1.2.8s.8.6,1.2,1c.4.3.7.6.9.9l-.9.9c-.2-.3-.5-.6-.9-.9-.4-.3-.7-.7-1.2-1-.4-.3-.8-.6-1.2-.9ZM799.3,117.2h1.3v18.3h-1.3v-18.3Z"/>
              <path class="cls-41" d="M805.1,130.4h17.9v1.2h-17.9v-1.2ZM805.5,124.4h17v3.6h-1.3v-2.5h-14.4v2.5h-1.3v-3.6ZM810.6,117.4l.6.8c-.6.2-1.2.4-2,.6s-1.4.3-2,.3l-.5-.8c.4,0,.8-.2,1.3-.3s.9-.2,1.4-.4.8-.2,1.2-.3ZM806.8,118.4l1.3.4.4,6.2h-1.3l-.4-6.6ZM807.5,120.1h3.6v1h-3.6v-1ZM807.6,122.2h3.6v1h-3.6v-1ZM808.8,126.9h9.6v1h-9.6v-1ZM813.5,129.5h1.3v4.6c0,.4,0,.6-.2.8,0,.2-.3.3-.6.4-.3,0-.7.1-1.2.2-.5,0-1.2,0-2,0,0-.2,0-.3-.2-.6,0-.2-.2-.4-.3-.6.4,0,.8,0,1.2,0,.4,0,.7,0,1,0s.5,0,.5,0c.2,0,.3,0,.3,0s0-.1,0-.3v-4.5ZM815.1,120.8l1,.3c-.5.6-1.1,1.2-1.8,1.8-.7.6-1.4,1.1-2.2,1.5,0,0-.2-.2-.4-.4-.2-.2-.3-.3-.4-.4.7-.3,1.4-.7,2.1-1.2.7-.5,1.2-1,1.7-1.6ZM815,117.4l1,.3c-.5.6-1,1.2-1.7,1.8-.7.6-1.4,1-2,1.4,0,0-.2-.2-.4-.4-.2-.1-.3-.3-.4-.3.7-.3,1.3-.8,2-1.2.7-.5,1.2-1,1.6-1.5ZM811.7,121.7l.7-.6c.5.2.9.5,1.4.7.5.3,1,.6,1.4.9.4.3.8.6,1.1.8l-.7.7c-.3-.3-.6-.6-1-.9-.4-.3-.9-.6-1.4-.9-.5-.3-1-.6-1.4-.8ZM811.8,118.3l.7-.6c.5.2.9.4,1.4.7s.9.5,1.4.8c.4.3.8.5,1,.8l-.7.7c-.3-.2-.6-.5-1-.8-.4-.3-.9-.6-1.3-.8-.5-.3-.9-.5-1.4-.7ZM818,126.9h.6c0,0,.8.6.8.6-.5.4-1,.7-1.6,1-.6.3-1.2.6-1.8.9s-1.2.5-1.8.8c0-.1-.2-.2-.3-.4-.1-.1-.3-.2-.4-.3.5-.2,1.1-.4,1.6-.7s1.1-.5,1.6-.8.9-.6,1.2-.8v-.3ZM816.8,122.2h3.6v1h-3.6v-1ZM816.8,118h3.9v1h-3.9v-1ZM816.9,120.1h3.6v1h-3.6v-1ZM820.1,118h1.3c0,.8,0,1.6-.1,2.4s-.1,1.7-.2,2.5-.1,1.5-.2,2.1h-1.3c0-.6.2-1.3.2-2.1,0-.8.1-1.6.2-2.5,0-.9,0-1.6.1-2.4Z"/>
              <path class="cls-41" d="M825.1,130.4h17.9v1.2h-17.9v-1.2ZM825.5,124.4h17v3.6h-1.3v-2.5h-14.4v2.5h-1.3v-3.6ZM830.6,117.4l.6.8c-.6.2-1.2.4-2,.6s-1.4.3-2,.3l-.5-.8c.4,0,.8-.2,1.3-.3s.9-.2,1.4-.4.8-.2,1.2-.3ZM826.8,118.4l1.3.4.4,6.2h-1.3l-.4-6.6ZM827.5,120.1h3.6v1h-3.6v-1ZM827.6,122.2h3.6v1h-3.6v-1ZM828.8,126.9h9.6v1h-9.6v-1ZM833.5,129.5h1.3v4.6c0,.4,0,.6-.2.8,0,.2-.3.3-.6.4-.3,0-.7.1-1.2.2-.5,0-1.2,0-2,0,0-.2,0-.3-.2-.6,0-.2-.2-.4-.3-.6.4,0,.8,0,1.2,0,.4,0,.7,0,1,0s.5,0,.5,0c.2,0,.3,0,.3,0s0-.1,0-.3v-4.5ZM835.1,120.8l1,.3c-.5.6-1.1,1.2-1.8,1.8-.7.6-1.4,1.1-2.2,1.5,0,0-.2-.2-.4-.4-.2-.2-.3-.3-.4-.4.7-.3,1.4-.7,2.1-1.2.7-.5,1.2-1,1.7-1.6ZM835,117.4l1,.3c-.5.6-1,1.2-1.7,1.8-.7.6-1.4,1-2,1.4,0,0-.2-.2-.4-.4-.2-.1-.3-.3-.4-.3.7-.3,1.3-.8,2-1.2.7-.5,1.2-1,1.6-1.5ZM831.7,121.7l.7-.6c.5.2.9.5,1.4.7.5.3,1,.6,1.4.9.4.3.8.6,1.1.8l-.7.7c-.3-.3-.6-.6-1-.9-.4-.3-.9-.6-1.4-.9-.5-.3-1-.6-1.4-.8ZM831.8,118.3l.7-.6c.5.2.9.4,1.4.7s.9.5,1.4.8c.4.3.8.5,1,.8l-.7.7c-.3-.2-.6-.5-1-.8-.4-.3-.9-.6-1.3-.8-.5-.3-.9-.5-1.4-.7ZM838,126.9h.6c0,0,.8.6.8.6-.5.4-1,.7-1.6,1-.6.3-1.2.6-1.8.9s-1.2.5-1.8.8c0-.1-.2-.2-.3-.4-.1-.1-.3-.2-.4-.3.5-.2,1.1-.4,1.6-.7s1.1-.5,1.6-.8.9-.6,1.2-.8v-.3ZM836.8,122.2h3.6v1h-3.6v-1ZM836.8,118h3.9v1h-3.9v-1ZM836.9,120.1h3.6v1h-3.6v-1ZM840.1,118h1.3c0,.8,0,1.6-.1,2.4s-.1,1.7-.2,2.5-.1,1.5-.2,2.1h-1.3c0-.6.2-1.3.2-2.1,0-.8.1-1.6.2-2.5,0-.9,0-1.6.1-2.4Z"/>
              <path class="cls-41" d="M849.9,130l1.3.5c-.4.5-.8,1-1.3,1.6s-1,1-1.6,1.5c-.5.5-1.1.9-1.6,1.2,0,0-.2-.2-.3-.3-.1-.1-.3-.2-.4-.3s-.3-.2-.4-.3c.8-.5,1.6-1.1,2.4-1.8.8-.7,1.4-1.4,2-2.1ZM858.3,117.3l1,1.1c-.8.4-1.7.7-2.8,1.1-1,.3-2.1.7-3.3,1-1.2.3-2.3.6-3.5.8-1.2.3-2.4.5-3.5.7,0-.2,0-.4-.2-.6,0-.2-.2-.4-.2-.5,1.1-.2,2.3-.5,3.4-.7,1.2-.3,2.3-.5,3.4-.8s2.2-.6,3.1-.9c1-.3,1.8-.7,2.5-1ZM846.6,129.7c0-.1,0-.2,0-.4,0-.2-.1-.3-.2-.5,0-.2-.1-.3-.2-.4.3,0,.7-.1,1.1-.3.5-.2,1-.4,1.6-.7.3-.1.8-.4,1.5-.7.7-.3,1.4-.7,2.3-1.2.8-.5,1.7-1,2.6-1.6.9-.6,1.8-1.2,2.6-1.8l1,.9c-1.9,1.3-3.8,2.5-5.7,3.5-1.9,1-3.8,1.9-5.7,2.6h0c-.2.1-.4.2-.5.2-.1,0-.2.1-.4.2s-.1.1-.1.2ZM846.6,129.7v-1s.9-.5.9-.5l13.1-.9c0,.2,0,.4,0,.6v.6c-2,.1-3.8.3-5.2.4s-2.7.2-3.7.3c-1,0-1.8.1-2.4.2-.6,0-1.1.1-1.4.2-.3,0-.6,0-.8.1-.2,0-.3,0-.5.1ZM847.7,125.5c0,0,0-.2,0-.4,0-.2,0-.3-.2-.5,0-.2,0-.3-.1-.4.2,0,.5,0,.7-.2.3-.1.6-.2.9-.4.2-.1.6-.3,1.1-.7.5-.3,1.1-.7,1.8-1.2.6-.4,1.2-.9,1.8-1.4l1.2.8c-1,.8-2,1.5-3.1,2.1-1.1.6-2.1,1.2-3.1,1.6h0c-.2.1-.3.2-.5.2-.1,0-.2.1-.3.2,0,0-.1.1-.1.2ZM847.7,125.5v-1s.8-.4.8-.4l7.5-.4c0,.2,0,.3,0,.6,0,.2,0,.4,0,.5-1.4,0-2.5.2-3.4.2-.9,0-1.7.1-2.3.2s-1,0-1.4.1c-.3,0-.6,0-.7,0-.2,0-.3,0-.4.1ZM853.5,128.1h1.4v5.7c0,.4,0,.7-.2.9-.1.2-.3.4-.6.5s-.7.2-1.2.2-1.1,0-1.9,0c0-.2-.1-.4-.2-.7-.1-.3-.2-.5-.3-.7.4,0,.8,0,1.2,0,.4,0,.7,0,.9,0s.4,0,.5,0c.2,0,.3,0,.3,0,0,0,0-.1,0-.2v-5.7ZM856.8,130.5l1-.7c.5.4,1.1.9,1.7,1.3.6.5,1.1,1,1.7,1.4.5.5,1,.9,1.3,1.3l-1.1.8c-.3-.4-.7-.8-1.2-1.3-.5-.5-1.1-1-1.6-1.5s-1.1-1-1.7-1.4ZM857.4,125.2l1.1-.5c.5.5,1,.9,1.5,1.5.5.5,1,1.1,1.5,1.6.5.5.8,1,1.1,1.4l-1.1.7c-.3-.4-.6-.9-1.1-1.4s-.9-1.1-1.5-1.6c-.5-.5-1-1.1-1.5-1.5Z"/>
            </g>
          </g>
        </g>
        <rect class="cls-42" x="745" y="117" width="118" height="19"/>
      </g>
      <g id="c132">
        <g id="tx__5uy2kmj2ryk-fill">
          <g class="cls-3">
            <g class="cls-3">
              <path class="cls-41" d="M278,292.4l1.2.2c0,.9-.2,1.8-.4,2.6s-.3,1.7-.5,2.5c-.2.8-.4,1.5-.7,2,0,0-.2-.1-.3-.2-.1,0-.3-.2-.4-.2s-.2-.1-.3-.2c.3-.6.5-1.2.7-2s.3-1.5.5-2.3c.1-.8.2-1.6.3-2.4ZM276.7,302.4c.6-.2,1.3-.4,2.2-.6.8-.2,1.7-.5,2.6-.8.9-.3,1.8-.6,2.7-.8l.2,1.2c-1.3.4-2.5.8-3.8,1.2-1.3.4-2.4.8-3.4,1.1l-.4-1.3ZM278.1,295.4h5.8v1.3h-6l.2-1.3ZM280.5,291.3h1.3v18.3h-1.3v-18.3ZM286.7,291.2l1.2.2c-.3,1.1-.6,2.2-.9,3.2-.4,1-.8,2-1.3,2.8-.5.9-1,1.6-1.6,2.3,0,0-.1-.2-.3-.2-.1-.1-.3-.2-.4-.3-.1,0-.2-.2-.3-.2.6-.6,1.1-1.3,1.5-2.1.5-.8.9-1.7,1.2-2.6.3-1,.6-1.9.8-3ZM288.6,295l1,.5c-.3,1.2-.7,2.4-1.2,3.6-.5,1.2-1.1,2.3-1.8,3.4-.7,1-1.4,1.9-2.1,2.6-.1-.1-.3-.3-.5-.4s-.4-.3-.6-.4c.6-.5,1.1-1,1.7-1.7s1-1.4,1.5-2.3.8-1.7,1.2-2.6c.3-.9.6-1.8.8-2.7ZM291.5,295.1l1.1.5c-.3,1.3-.6,2.7-1,4-.4,1.3-.9,2.6-1.4,3.8-.6,1.2-1.2,2.3-1.9,3.3s-1.5,1.8-2.3,2.5c-.1-.1-.3-.3-.5-.5-.2-.2-.4-.3-.6-.4.9-.6,1.7-1.4,2.4-2.4.7-1,1.4-2,1.9-3.2.6-1.2,1-2.4,1.4-3.8.4-1.3.7-2.6,1-4ZM286.5,294.6h7.7v1.3h-8.3l.6-1.3ZM293.7,294.6h1.3v.5c0,.1,0,.2,0,.3-.1,2.3-.2,4.2-.4,5.8s-.2,2.9-.4,3.9c-.1,1-.3,1.8-.4,2.3-.2.6-.3,1-.5,1.2-.2.3-.4.5-.6.5-.2.1-.5.2-.8.2-.3,0-.6,0-1,0s-.8,0-1.3,0c0-.2,0-.4-.1-.7,0-.2-.1-.5-.3-.6.5,0,.9,0,1.3,0,.4,0,.7,0,.9,0s.3,0,.4,0c.1,0,.2-.1.3-.2.2-.2.3-.5.5-1.1.1-.5.3-1.3.4-2.3.1-1,.2-2.3.4-3.8.1-1.5.2-3.4.3-5.6v-.3Z"/>
              <path class="cls-41" d="M296.7,306.1c.5-.2,1.1-.3,1.8-.5.7-.2,1.4-.4,2.2-.7.8-.3,1.5-.5,2.3-.8l.2,1.3c-1.1.4-2.2.7-3.2,1.1s-2.1.7-2.9,1l-.3-1.4ZM297,292.6h6.2v1.3h-6.2v-1.3ZM297.2,298.4h5.7v1.3h-5.7v-1.3ZM299.5,293.1h1.3v12.4l-1.3.3v-12.7ZM302.3,307.7h13v1.2h-13v-1.2ZM303.9,303.5h10.8v1.2h-10.8v-1.2ZM304.1,292.2h10.2v8.9h-10.2v-8.9ZM305.4,293.4v2.7h7.7v-2.7h-7.7ZM305.4,297.2v2.7h7.7v-2.7h-7.7ZM308.6,292.8h1.2v7.7h.1v7.7h-1.4v-7.7h0v-7.7Z"/>
              <path class="cls-41" d="M317.1,304.4h17.9v1.2h-17.9v-1.2ZM317.5,298.4h17v3.6h-1.3v-2.5h-14.4v2.5h-1.3v-3.6ZM322.6,291.4l.6.8c-.6.2-1.2.4-2,.6s-1.4.3-2,.3l-.5-.8c.4,0,.8-.2,1.3-.3s.9-.2,1.4-.4.8-.2,1.2-.3ZM318.8,292.4l1.3.4.4,6.2h-1.3l-.4-6.6ZM319.5,294.1h3.6v1h-3.6v-1ZM319.6,296.2h3.6v1h-3.6v-1ZM320.8,300.9h9.6v1h-9.6v-1ZM325.5,303.5h1.3v4.6c0,.4,0,.6-.2.8,0,.2-.3.3-.6.4-.3,0-.7.1-1.2.2-.5,0-1.2,0-2,0,0-.2,0-.3-.2-.6,0-.2-.2-.4-.3-.6.4,0,.8,0,1.2,0,.4,0,.7,0,1,0s.5,0,.5,0c.2,0,.3,0,.3,0s0-.1,0-.3v-4.5ZM327.1,294.8l1,.3c-.5.6-1.1,1.2-1.8,1.8-.7.6-1.4,1.1-2.2,1.5,0,0-.2-.2-.4-.4-.2-.2-.3-.3-.4-.4.7-.3,1.4-.7,2.1-1.2.7-.5,1.2-1,1.7-1.6ZM327,291.4l1,.3c-.5.6-1,1.2-1.7,1.8-.7.6-1.4,1-2,1.4,0,0-.2-.2-.4-.4-.2-.1-.3-.3-.4-.3.7-.3,1.3-.8,2-1.2.7-.5,1.2-1,1.6-1.5ZM323.7,295.7l.7-.6c.5.2.9.5,1.4.7.5.3,1,.6,1.4.9.4.3.8.6,1.1.8l-.7.7c-.3-.3-.6-.6-1-.9-.4-.3-.9-.6-1.4-.9-.5-.3-1-.6-1.4-.8ZM323.8,292.3l.7-.6c.5.2.9.4,1.4.7s.9.5,1.4.8c.4.3.8.5,1,.8l-.7.7c-.3-.2-.6-.5-1-.8-.4-.3-.9-.6-1.3-.8-.5-.3-.9-.5-1.4-.7ZM330,300.9h.6c0,0,.8.6.8.6-.5.4-1,.7-1.6,1-.6.3-1.2.6-1.8.9s-1.2.5-1.8.8c0-.1-.2-.2-.3-.4-.1-.1-.3-.2-.4-.3.5-.2,1.1-.4,1.6-.7s1.1-.5,1.6-.8.9-.6,1.2-.8v-.3ZM328.8,296.2h3.6v1h-3.6v-1ZM328.8,292h3.9v1h-3.9v-1ZM328.9,294.1h3.6v1h-3.6v-1ZM332.1,292h1.3c0,.8,0,1.6-.1,2.4s-.1,1.7-.2,2.5-.1,1.5-.2,2.1h-1.3c0-.6.2-1.3.2-2.1,0-.8.1-1.6.2-2.5,0-.9,0-1.6.1-2.4Z"/>
              <path class="cls-41" d="M341.9,304l1.3.5c-.4.5-.8,1-1.3,1.6s-1,1-1.6,1.5c-.5.5-1.1.9-1.6,1.2,0,0-.2-.2-.3-.3-.1-.1-.3-.2-.4-.3s-.3-.2-.4-.3c.8-.5,1.6-1.1,2.4-1.8.8-.7,1.4-1.4,2-2.1ZM350.3,291.3l1,1.1c-.8.4-1.7.7-2.8,1.1-1,.3-2.1.7-3.3,1-1.2.3-2.3.6-3.5.8-1.2.3-2.4.5-3.5.7,0-.2,0-.4-.2-.6,0-.2-.2-.4-.2-.5,1.1-.2,2.3-.5,3.4-.7,1.2-.3,2.3-.5,3.4-.8s2.2-.6,3.1-.9c1-.3,1.8-.7,2.5-1ZM338.6,303.7c0-.1,0-.2,0-.4,0-.2-.1-.3-.2-.5,0-.2-.1-.3-.2-.4.3,0,.7-.1,1.1-.3.5-.2,1-.4,1.6-.7.3-.1.8-.4,1.5-.7.7-.3,1.4-.7,2.3-1.2.8-.5,1.7-1,2.6-1.6.9-.6,1.8-1.2,2.6-1.8l1,.9c-1.9,1.3-3.8,2.5-5.7,3.5-1.9,1-3.8,1.9-5.7,2.6h0c-.2.1-.4.2-.5.2-.1,0-.2.1-.4.2s-.1.1-.1.2ZM338.6,303.7v-1s.9-.5.9-.5l13.1-.9c0,.2,0,.4,0,.6v.6c-2,.1-3.8.3-5.2.4s-2.7.2-3.7.3c-1,0-1.8.1-2.4.2-.6,0-1.1.1-1.4.2-.3,0-.6,0-.8.1-.2,0-.3,0-.5.1ZM339.7,299.5c0,0,0-.2,0-.4,0-.2,0-.3-.2-.5,0-.2,0-.3-.1-.4.2,0,.5,0,.7-.2.3-.1.6-.2.9-.4.2-.1.6-.3,1.1-.7.5-.3,1.1-.7,1.8-1.2.6-.4,1.2-.9,1.8-1.4l1.2.8c-1,.8-2,1.5-3.1,2.1-1.1.6-2.1,1.2-3.1,1.6h0c-.2.1-.3.2-.5.2-.1,0-.2.1-.3.2,0,0-.1.1-.1.2ZM339.7,299.5v-1s.8-.4.8-.4l7.5-.4c0,.2,0,.3,0,.6,0,.2,0,.4,0,.5-1.4,0-2.5.2-3.4.2-.9,0-1.7.1-2.3.2s-1,0-1.4.1c-.3,0-.6,0-.7,0-.2,0-.3,0-.4.1ZM345.5,302.1h1.4v5.7c0,.4,0,.7-.2.9-.1.2-.3.4-.6.5s-.7.2-1.2.2-1.1,0-1.9,0c0-.2-.1-.4-.2-.7-.1-.3-.2-.5-.3-.7.4,0,.8,0,1.2,0,.4,0,.7,0,.9,0s.4,0,.5,0c.2,0,.3,0,.3,0,0,0,0-.1,0-.2v-5.7ZM348.8,304.5l1-.7c.5.4,1.1.9,1.7,1.3.6.5,1.1,1,1.7,1.4.5.5,1,.9,1.3,1.3l-1.1.8c-.3-.4-.7-.8-1.2-1.3-.5-.5-1.1-1-1.6-1.5s-1.1-1-1.7-1.4ZM349.4,299.2l1.1-.5c.5.5,1,.9,1.5,1.5.5.5,1,1.1,1.5,1.6.5.5.8,1,1.1,1.4l-1.1.7c-.3-.4-.6-.9-1.1-1.4s-.9-1.1-1.5-1.6c-.5-.5-1-1.1-1.5-1.5Z"/>
            </g>
          </g>
        </g>
        <rect class="cls-42" x="276" y="291" width="79" height="19"/>
      </g>
      <g id="c131">
        <g id="tx__91hybgmj2r5v-fill">
          <g class="cls-3">
            <g class="cls-3">
              <path class="cls-41" d="M236.9,160.3l.7-.9c.4.2.8.4,1.2.6s.8.5,1.2.7c.4.2.7.5.9.7l-.8,1c-.2-.2-.5-.4-.9-.7-.4-.3-.8-.5-1.2-.7-.4-.2-.8-.5-1.2-.6ZM237.5,170.5c.3-.5.6-1.2.9-1.9.3-.7.7-1.5,1-2.3.3-.8.6-1.6.9-2.3l1,.7c-.2.7-.5,1.4-.8,2.2s-.6,1.5-.9,2.3c-.3.7-.6,1.4-.9,2.1l-1.2-.8ZM237.9,154.4l.8-.9c.4.2.8.4,1.3.6.4.2.9.5,1.3.7.4.2.7.5,1,.7l-.8,1c-.3-.2-.6-.5-1-.7s-.8-.5-1.2-.8c-.4-.2-.9-.5-1.3-.7ZM244.9,153.2l1.3.3c-.3.8-.6,1.7-1,2.5-.4.8-.8,1.6-1.2,2.3-.4.7-.9,1.3-1.3,1.9,0,0-.2-.1-.3-.2-.1,0-.3-.2-.4-.3s-.3-.2-.4-.2c.5-.5.9-1.1,1.4-1.8.4-.7.8-1.4,1.2-2.1s.6-1.5.9-2.3ZM241.7,163h13.5v1.2h-13.5v-1.2ZM244.2,158.8h1.3c0,.8-.2,1.6-.3,2.5s-.2,1.8-.3,2.7c-.1.9-.2,1.7-.4,2.5-.1.8-.2,1.5-.3,2.1h-1.3c.1-.6.3-1.3.4-2.1.1-.8.3-1.7.4-2.6.1-.9.2-1.8.4-2.7.1-.9.2-1.7.3-2.5ZM243.5,167.5h11.1v1.2h-11.1v-1.2ZM244.4,155.5h10.4v1.2h-10.4v-1.2ZM244.8,158.8h8.1v1.2h-8.1v-1.2ZM246.6,164.8l.8-.5c.5.4.9.8,1.4,1.2s.8.9,1.1,1.2l-.8.6c-.3-.4-.6-.8-1.1-1.3-.5-.5-.9-.9-1.4-1.3ZM247.1,160.6l.8-.5c.4.3.9.7,1.3,1.1.4.4.8.8,1,1.2l-.8.6c-.2-.3-.5-.7-1-1.2-.4-.4-.9-.8-1.3-1.2ZM252.5,158.8h1.3c0,.2,0,.3,0,.4v.3c0,1.9-.2,3.6-.2,4.9,0,1.3-.2,2.4-.3,3.3s-.2,1.5-.3,2c-.1.5-.3.8-.5,1-.2.2-.4.4-.6.5-.2,0-.5.1-.8.2-.3,0-.7,0-1.1,0-.5,0-.9,0-1.4,0,0-.2,0-.4-.1-.6,0-.2-.1-.4-.2-.6.5,0,1,0,1.5,0,.4,0,.8,0,.9,0s.3,0,.4,0c.1,0,.2-.1.3-.2.1-.2.3-.5.4-.9s.2-1.1.3-2c.1-.8.2-1.9.3-3.2,0-1.3.2-2.9.2-4.8v-.3Z"/>
              <path class="cls-41" d="M256.9,160l.8-1c.4.2.9.4,1.4.7.5.3.9.5,1.4.8s.8.5,1,.7l-.8,1.1c-.3-.2-.6-.5-1-.8-.4-.3-.9-.5-1.3-.8s-.9-.5-1.4-.7ZM257.3,170.3c.3-.5.7-1.2,1.1-1.9.4-.7.8-1.5,1.2-2.3s.8-1.6,1.1-2.3l1.1.8c-.3.7-.6,1.4-1,2.2-.4.8-.7,1.5-1.1,2.2-.4.7-.8,1.4-1.1,2l-1.2-.8ZM257.8,154.6l.8-.9c.4.2.9.5,1.3.8s.9.6,1.3.9.8.6,1,.8l-.8,1.1c-.3-.3-.6-.5-1-.8-.4-.3-.8-.6-1.3-.9-.5-.3-.9-.6-1.3-.8ZM262.4,165.6h12.8v1.3h-12.8v-1.3ZM263,157h11.7v1.3h-11.7v-1.3ZM263.6,161.3h10.5v1.3h-10.5v-1.3ZM264.4,153.7l1.2-.5c.4.5.8,1.1,1.1,1.7s.6,1.1.8,1.6l-1.2.6c-.1-.3-.3-.7-.4-1-.2-.4-.4-.8-.7-1.2-.2-.4-.5-.8-.8-1.1ZM268,157.7h1.4v13.8h-1.4v-13.8ZM272,153.2l1.3.5c-.2.4-.5.9-.7,1.4-.3.5-.5,1-.8,1.4-.3.4-.5.8-.8,1.2l-1.1-.4c.2-.4.5-.8.8-1.2s.5-.9.7-1.4c.2-.5.4-.9.6-1.3Z"/>
              <path class="cls-41" d="M280.4,159.3l.8.4c-.2.7-.4,1.4-.7,2.2-.3.8-.6,1.5-1,2.2-.4.7-.7,1.4-1.1,2.1-.4.6-.8,1.2-1.2,1.6,0-.2-.2-.4-.3-.6-.1-.2-.3-.4-.4-.6.4-.4.7-.9,1.1-1.5.4-.6.7-1.2,1.1-1.8.3-.7.7-1.3.9-2,.3-.7.5-1.3.7-2ZM276.9,158.9h7.8v1.3h-7.8v-1.3ZM283.5,153.5l.8,1.1c-.6.2-1.3.5-2.1.7s-1.6.4-2.4.5c-.8.2-1.6.3-2.4.4,0-.1,0-.3-.2-.5s-.2-.4-.2-.5c.7-.1,1.5-.3,2.3-.4s1.5-.3,2.3-.5c.7-.2,1.3-.4,1.8-.6ZM280.3,154.9h1.3v16.7h-1.3v-16.7ZM281.6,160.4c.1.1.3.4.6.7.3.3.6.7.9,1.1.3.4.6.8.9,1.1.3.3.5.6.6.8l-.8,1c-.1-.2-.3-.6-.5-.9s-.5-.8-.8-1.2c-.3-.4-.5-.8-.8-1.2-.3-.4-.5-.6-.6-.8l.6-.6ZM284.5,166.3l10.6-1.7.2,1.2-10.6,1.7-.2-1.3ZM285.3,160.6l.8-.8c.4.3.9.5,1.4.9.5.3.9.7,1.3,1s.7.7,1,.9l-.9.9c-.3-.3-.6-.6-1-1s-.8-.7-1.3-1-.9-.7-1.3-.9ZM286.1,155.4l.9-.8c.4.2.8.5,1.2.8s.8.6,1.2,1c.4.3.7.6.9.9l-.9.9c-.2-.3-.5-.6-.9-.9-.4-.3-.7-.7-1.2-1-.4-.3-.8-.6-1.2-.9ZM291.3,153.2h1.3v18.3h-1.3v-18.3Z"/>
              <path class="cls-41" d="M297.1,166.4h17.9v1.2h-17.9v-1.2ZM297.5,160.4h17v3.6h-1.3v-2.5h-14.4v2.5h-1.3v-3.6ZM302.6,153.4l.6.8c-.6.2-1.2.4-2,.6s-1.4.3-2,.3l-.5-.8c.4,0,.8-.2,1.3-.3s.9-.2,1.4-.4.8-.2,1.2-.3ZM298.8,154.4l1.3.4.4,6.2h-1.3l-.4-6.6ZM299.5,156.1h3.6v1h-3.6v-1ZM299.6,158.2h3.6v1h-3.6v-1ZM300.8,162.9h9.6v1h-9.6v-1ZM305.5,165.5h1.3v4.6c0,.4,0,.6-.2.8,0,.2-.3.3-.6.4-.3,0-.7.1-1.2.2-.5,0-1.2,0-2,0,0-.2,0-.3-.2-.6,0-.2-.2-.4-.3-.6.4,0,.8,0,1.2,0,.4,0,.7,0,1,0s.5,0,.5,0c.2,0,.3,0,.3,0s0-.1,0-.3v-4.5ZM307.1,156.8l1,.3c-.5.6-1.1,1.2-1.8,1.8-.7.6-1.4,1.1-2.2,1.5,0,0-.2-.2-.4-.4-.2-.2-.3-.3-.4-.4.7-.3,1.4-.7,2.1-1.2.7-.5,1.2-1,1.7-1.6ZM307,153.4l1,.3c-.5.6-1,1.2-1.7,1.8-.7.6-1.4,1-2,1.4,0,0-.2-.2-.4-.4-.2-.1-.3-.3-.4-.3.7-.3,1.3-.8,2-1.2.7-.5,1.2-1,1.6-1.5ZM303.7,157.7l.7-.6c.5.2.9.5,1.4.7.5.3,1,.6,1.4.9.4.3.8.6,1.1.8l-.7.7c-.3-.3-.6-.6-1-.9-.4-.3-.9-.6-1.4-.9-.5-.3-1-.6-1.4-.8ZM303.8,154.3l.7-.6c.5.2.9.4,1.4.7s.9.5,1.4.8c.4.3.8.5,1,.8l-.7.7c-.3-.2-.6-.5-1-.8-.4-.3-.9-.6-1.3-.8-.5-.3-.9-.5-1.4-.7ZM310,162.9h.6c0,0,.8.6.8.6-.5.4-1,.7-1.6,1-.6.3-1.2.6-1.8.9s-1.2.5-1.8.8c0-.1-.2-.2-.3-.4-.1-.1-.3-.2-.4-.3.5-.2,1.1-.4,1.6-.7s1.1-.5,1.6-.8.9-.6,1.2-.8v-.3ZM308.8,158.2h3.6v1h-3.6v-1ZM308.8,154h3.9v1h-3.9v-1ZM308.9,156.1h3.6v1h-3.6v-1ZM312.1,154h1.3c0,.8,0,1.6-.1,2.4s-.1,1.7-.2,2.5-.1,1.5-.2,2.1h-1.3c0-.6.2-1.3.2-2.1,0-.8.1-1.6.2-2.5,0-.9,0-1.6.1-2.4Z"/>
              <path class="cls-41" d="M317.1,166.4h17.9v1.2h-17.9v-1.2ZM317.5,160.4h17v3.6h-1.3v-2.5h-14.4v2.5h-1.3v-3.6ZM322.6,153.4l.6.8c-.6.2-1.2.4-2,.6s-1.4.3-2,.3l-.5-.8c.4,0,.8-.2,1.3-.3s.9-.2,1.4-.4.8-.2,1.2-.3ZM318.8,154.4l1.3.4.4,6.2h-1.3l-.4-6.6ZM319.5,156.1h3.6v1h-3.6v-1ZM319.6,158.2h3.6v1h-3.6v-1ZM320.8,162.9h9.6v1h-9.6v-1ZM325.5,165.5h1.3v4.6c0,.4,0,.6-.2.8,0,.2-.3.3-.6.4-.3,0-.7.1-1.2.2-.5,0-1.2,0-2,0,0-.2,0-.3-.2-.6,0-.2-.2-.4-.3-.6.4,0,.8,0,1.2,0,.4,0,.7,0,1,0s.5,0,.5,0c.2,0,.3,0,.3,0s0-.1,0-.3v-4.5ZM327.1,156.8l1,.3c-.5.6-1.1,1.2-1.8,1.8-.7.6-1.4,1.1-2.2,1.5,0,0-.2-.2-.4-.4-.2-.2-.3-.3-.4-.4.7-.3,1.4-.7,2.1-1.2.7-.5,1.2-1,1.7-1.6ZM327,153.4l1,.3c-.5.6-1,1.2-1.7,1.8-.7.6-1.4,1-2,1.4,0,0-.2-.2-.4-.4-.2-.1-.3-.3-.4-.3.7-.3,1.3-.8,2-1.2.7-.5,1.2-1,1.6-1.5ZM323.7,157.7l.7-.6c.5.2.9.5,1.4.7.5.3,1,.6,1.4.9.4.3.8.6,1.1.8l-.7.7c-.3-.3-.6-.6-1-.9-.4-.3-.9-.6-1.4-.9-.5-.3-1-.6-1.4-.8ZM323.8,154.3l.7-.6c.5.2.9.4,1.4.7s.9.5,1.4.8c.4.3.8.5,1,.8l-.7.7c-.3-.2-.6-.5-1-.8-.4-.3-.9-.6-1.3-.8-.5-.3-.9-.5-1.4-.7ZM330,162.9h.6c0,0,.8.6.8.6-.5.4-1,.7-1.6,1-.6.3-1.2.6-1.8.9s-1.2.5-1.8.8c0-.1-.2-.2-.3-.4-.1-.1-.3-.2-.4-.3.5-.2,1.1-.4,1.6-.7s1.1-.5,1.6-.8.9-.6,1.2-.8v-.3ZM328.8,158.2h3.6v1h-3.6v-1ZM328.8,154h3.9v1h-3.9v-1ZM328.9,156.1h3.6v1h-3.6v-1ZM332.1,154h1.3c0,.8,0,1.6-.1,2.4s-.1,1.7-.2,2.5-.1,1.5-.2,2.1h-1.3c0-.6.2-1.3.2-2.1,0-.8.1-1.6.2-2.5,0-.9,0-1.6.1-2.4Z"/>
              <path class="cls-41" d="M341.9,166l1.3.5c-.4.5-.8,1-1.3,1.6s-1,1-1.6,1.5c-.5.5-1.1.9-1.6,1.2,0,0-.2-.2-.3-.3-.1-.1-.3-.2-.4-.3s-.3-.2-.4-.3c.8-.5,1.6-1.1,2.4-1.8.8-.7,1.4-1.4,2-2.1ZM350.3,153.3l1,1.1c-.8.4-1.7.7-2.8,1.1-1,.3-2.1.7-3.3,1-1.2.3-2.3.6-3.5.8-1.2.3-2.4.5-3.5.7,0-.2,0-.4-.2-.6,0-.2-.2-.4-.2-.5,1.1-.2,2.3-.5,3.4-.7,1.2-.3,2.3-.5,3.4-.8s2.2-.6,3.1-.9c1-.3,1.8-.7,2.5-1ZM338.6,165.7c0-.1,0-.2,0-.4,0-.2-.1-.3-.2-.5,0-.2-.1-.3-.2-.4.3,0,.7-.1,1.1-.3.5-.2,1-.4,1.6-.7.3-.1.8-.4,1.5-.7.7-.3,1.4-.7,2.3-1.2.8-.5,1.7-1,2.6-1.6.9-.6,1.8-1.2,2.6-1.8l1,.9c-1.9,1.3-3.8,2.5-5.7,3.5-1.9,1-3.8,1.9-5.7,2.6h0c-.2.1-.4.2-.5.2-.1,0-.2.1-.4.2s-.1.1-.1.2ZM338.6,165.7v-1s.9-.5.9-.5l13.1-.9c0,.2,0,.4,0,.6v.6c-2,.1-3.8.3-5.2.4s-2.7.2-3.7.3c-1,0-1.8.1-2.4.2-.6,0-1.1.1-1.4.2-.3,0-.6,0-.8.1-.2,0-.3,0-.5.1ZM339.7,161.5c0,0,0-.2,0-.4,0-.2,0-.3-.2-.5,0-.2,0-.3-.1-.4.2,0,.5,0,.7-.2.3-.1.6-.2.9-.4.2-.1.6-.3,1.1-.7.5-.3,1.1-.7,1.8-1.2.6-.4,1.2-.9,1.8-1.4l1.2.8c-1,.8-2,1.5-3.1,2.1-1.1.6-2.1,1.2-3.1,1.6h0c-.2.1-.3.2-.5.2-.1,0-.2.1-.3.2,0,0-.1.1-.1.2ZM339.7,161.5v-1s.8-.4.8-.4l7.5-.4c0,.2,0,.3,0,.6,0,.2,0,.4,0,.5-1.4,0-2.5.2-3.4.2-.9,0-1.7.1-2.3.2s-1,0-1.4.1c-.3,0-.6,0-.7,0-.2,0-.3,0-.4.1ZM345.5,164.1h1.4v5.7c0,.4,0,.7-.2.9-.1.2-.3.4-.6.5s-.7.2-1.2.2-1.1,0-1.9,0c0-.2-.1-.4-.2-.7-.1-.3-.2-.5-.3-.7.4,0,.8,0,1.2,0,.4,0,.7,0,.9,0s.4,0,.5,0c.2,0,.3,0,.3,0,0,0,0-.1,0-.2v-5.7ZM348.8,166.5l1-.7c.5.4,1.1.9,1.7,1.3.6.5,1.1,1,1.7,1.4.5.5,1,.9,1.3,1.3l-1.1.8c-.3-.4-.7-.8-1.2-1.3-.5-.5-1.1-1-1.6-1.5s-1.1-1-1.7-1.4ZM349.4,161.2l1.1-.5c.5.5,1,.9,1.5,1.5.5.5,1,1.1,1.5,1.6.5.5.8,1,1.1,1.4l-1.1.7c-.3-.4-.6-.9-1.1-1.4s-.9-1.1-1.5-1.6c-.5-.5-1-1.1-1.5-1.5Z"/>
            </g>
          </g>
        </g>
        <rect class="cls-42" x="236" y="153" width="119" height="19"/>
      </g>
      <g id="c130">
        <g id="tx__dgozcsmj2tje-fill">
          <g class="cls-3">
            <g class="cls-3">
              <path class="cls-41" d="M236.7,130.8c.5-.2,1.1-.4,1.8-.7s1.4-.6,2.2-.9c.8-.3,1.6-.7,2.3-1l.3,1.2c-1.1.5-2.1,1-3.2,1.4-1.1.5-2,.9-2.9,1.3l-.5-1.3ZM237.1,122.1h5.9v1.3h-5.9v-1.3ZM239.5,117.5h1.3v12.9h-1.3v-12.9ZM242.4,125.5l10.8-4.6.5,1.2-10.8,4.6-.5-1.2ZM244.6,119.1h1.3v13.5c0,.3,0,.6.1.8s.2.3.5.4c.2,0,.6.1,1,.1h5c.4,0,.7,0,.9-.2.2-.2.3-.4.4-.9,0-.4.2-1,.2-1.8.2.1.4.2.6.3.2,0,.4.2.6.2,0,.9-.2,1.6-.3,2.2-.2.5-.4.9-.8,1.1-.4.2-.9.3-1.6.3h-5c-.7,0-1.3,0-1.7-.2s-.7-.4-.9-.8c-.2-.4-.3-.9-.3-1.6v-13.4ZM248.8,117.2h1.3v13.9h-1.3v-13.9ZM252.9,121.4h-.2l.6-.5,1,.3v.3c-.1.9-.2,2-.3,3s-.2,2.1-.4,3.1-.3,1.9-.5,2.6l-1.1-.3c.1-.5.2-1.1.3-1.8,0-.7.2-1.4.2-2.2,0-.8.1-1.5.2-2.3s0-1.5.1-2.2Z"/>
              <path class="cls-41" d="M256.7,132.1c.5-.1,1.2-.3,1.9-.5s1.5-.4,2.2-.7c.8-.2,1.6-.5,2.4-.8l.2,1.2c-1.1.4-2.2.7-3.4,1.1s-2.1.7-3,1l-.3-1.3ZM257,118.6h6.1v1.3h-6.1v-1.3ZM257.1,124.4h5.6v1.3h-5.6v-1.3ZM259.4,119.2h1.3v12.4l-1.3.3v-12.7ZM262.8,132.4c.5-.4,1.1-.9,1.7-1.5s1.3-1.2,2.1-1.9c.7-.7,1.5-1.3,2.2-2l.5,1c-.9,1-1.9,1.9-2.9,2.9-1,1-1.9,1.8-2.7,2.6l-.9-1.1ZM263.5,120.8h11.6v1.2h-11.6v-1.2ZM263.9,123.8l1-.5c.3.4.6.8.9,1.2.3.4.6.9.8,1.3.2.4.4.8.5,1.2l-1.1.5c-.1-.3-.3-.7-.5-1.2-.2-.4-.5-.9-.8-1.4s-.6-.9-.9-1.3ZM268.5,117.2h1.3v16.6c0,.4,0,.8-.2,1-.1.2-.3.4-.6.5-.3.1-.6.2-1.1.2-.5,0-1.1,0-1.9,0,0-.1,0-.3-.1-.4,0-.2-.1-.3-.2-.5s-.1-.3-.2-.4c.6,0,1.2,0,1.6,0s.8,0,.9,0c.2,0,.3,0,.3-.1,0,0,.1-.2.1-.4v-16.6ZM269.8,122.3c.2,1.3.4,2.6.7,3.6.3,1.1.7,2,1.1,2.9.4.9,1,1.6,1.6,2.3s1.4,1.3,2.3,2c-.1.1-.3.3-.5.5-.2.2-.3.4-.4.6-.9-.7-1.7-1.4-2.4-2.2s-1.2-1.6-1.7-2.5c-.5-.9-.8-2-1.1-3.1-.3-1.1-.6-2.4-.8-3.9l1.1-.2ZM273.7,123.2l1.2.6c-.4.5-.8,1-1.2,1.6-.4.6-.8,1.1-1.3,1.6s-.8,1-1.2,1.4l-.9-.6c.4-.4.8-.9,1.2-1.4s.8-1.1,1.2-1.7c.4-.6.7-1.1,1-1.5ZM270.8,118.2l.8-.7c.4.3.9.6,1.3,1,.5.4.8.8,1,1.1l-.8.8c-.2-.3-.6-.7-1-1.2-.4-.4-.9-.8-1.3-1.1Z"/>
              <path class="cls-41" d="M280.4,123.3l.8.4c-.2.7-.4,1.4-.7,2.2-.3.8-.6,1.5-1,2.2-.4.7-.7,1.4-1.1,2.1-.4.6-.8,1.2-1.2,1.6,0-.2-.2-.4-.3-.6-.1-.2-.3-.4-.4-.6.4-.4.7-.9,1.1-1.5.4-.6.7-1.2,1.1-1.8.3-.7.7-1.3.9-2,.3-.7.5-1.3.7-2ZM276.9,122.9h7.8v1.3h-7.8v-1.3ZM283.5,117.5l.8,1.1c-.6.2-1.3.5-2.1.7s-1.6.4-2.4.5c-.8.2-1.6.3-2.4.4,0-.1,0-.3-.2-.5s-.2-.4-.2-.5c.7-.1,1.5-.3,2.3-.4s1.5-.3,2.3-.5c.7-.2,1.3-.4,1.8-.6ZM280.3,118.9h1.3v16.7h-1.3v-16.7ZM281.6,124.4c.1.1.3.4.6.7.3.3.6.7.9,1.1.3.4.6.8.9,1.1.3.3.5.6.6.8l-.8,1c-.1-.2-.3-.6-.5-.9s-.5-.8-.8-1.2c-.3-.4-.5-.8-.8-1.2-.3-.4-.5-.6-.6-.8l.6-.6ZM284.5,130.3l10.6-1.7.2,1.2-10.6,1.7-.2-1.3ZM285.3,124.6l.8-.8c.4.3.9.5,1.4.9.5.3.9.7,1.3,1s.7.7,1,.9l-.9.9c-.3-.3-.6-.6-1-1s-.8-.7-1.3-1-.9-.7-1.3-.9ZM286.1,119.4l.9-.8c.4.2.8.5,1.2.8s.8.6,1.2,1c.4.3.7.6.9.9l-.9.9c-.2-.3-.5-.6-.9-.9-.4-.3-.7-.7-1.2-1-.4-.3-.8-.6-1.2-.9ZM291.3,117.2h1.3v18.3h-1.3v-18.3Z"/>
              <path class="cls-41" d="M297.1,130.4h17.9v1.2h-17.9v-1.2ZM297.5,124.4h17v3.6h-1.3v-2.5h-14.4v2.5h-1.3v-3.6ZM302.6,117.4l.6.8c-.6.2-1.2.4-2,.6s-1.4.3-2,.3l-.5-.8c.4,0,.8-.2,1.3-.3s.9-.2,1.4-.4.8-.2,1.2-.3ZM298.8,118.4l1.3.4.4,6.2h-1.3l-.4-6.6ZM299.5,120.1h3.6v1h-3.6v-1ZM299.6,122.2h3.6v1h-3.6v-1ZM300.8,126.9h9.6v1h-9.6v-1ZM305.5,129.5h1.3v4.6c0,.4,0,.6-.2.8,0,.2-.3.3-.6.4-.3,0-.7.1-1.2.2-.5,0-1.2,0-2,0,0-.2,0-.3-.2-.6,0-.2-.2-.4-.3-.6.4,0,.8,0,1.2,0,.4,0,.7,0,1,0s.5,0,.5,0c.2,0,.3,0,.3,0s0-.1,0-.3v-4.5ZM307.1,120.8l1,.3c-.5.6-1.1,1.2-1.8,1.8-.7.6-1.4,1.1-2.2,1.5,0,0-.2-.2-.4-.4-.2-.2-.3-.3-.4-.4.7-.3,1.4-.7,2.1-1.2.7-.5,1.2-1,1.7-1.6ZM307,117.4l1,.3c-.5.6-1,1.2-1.7,1.8-.7.6-1.4,1-2,1.4,0,0-.2-.2-.4-.4-.2-.1-.3-.3-.4-.3.7-.3,1.3-.8,2-1.2.7-.5,1.2-1,1.6-1.5ZM303.7,121.7l.7-.6c.5.2.9.5,1.4.7.5.3,1,.6,1.4.9.4.3.8.6,1.1.8l-.7.7c-.3-.3-.6-.6-1-.9-.4-.3-.9-.6-1.4-.9-.5-.3-1-.6-1.4-.8ZM303.8,118.3l.7-.6c.5.2.9.4,1.4.7s.9.5,1.4.8c.4.3.8.5,1,.8l-.7.7c-.3-.2-.6-.5-1-.8-.4-.3-.9-.6-1.3-.8-.5-.3-.9-.5-1.4-.7ZM310,126.9h.6c0,0,.8.6.8.6-.5.4-1,.7-1.6,1-.6.3-1.2.6-1.8.9s-1.2.5-1.8.8c0-.1-.2-.2-.3-.4-.1-.1-.3-.2-.4-.3.5-.2,1.1-.4,1.6-.7s1.1-.5,1.6-.8.9-.6,1.2-.8v-.3ZM308.8,122.2h3.6v1h-3.6v-1ZM308.8,118h3.9v1h-3.9v-1ZM308.9,120.1h3.6v1h-3.6v-1ZM312.1,118h1.3c0,.8,0,1.6-.1,2.4s-.1,1.7-.2,2.5-.1,1.5-.2,2.1h-1.3c0-.6.2-1.3.2-2.1,0-.8.1-1.6.2-2.5,0-.9,0-1.6.1-2.4Z"/>
              <path class="cls-41" d="M317.1,130.4h17.9v1.2h-17.9v-1.2ZM317.5,124.4h17v3.6h-1.3v-2.5h-14.4v2.5h-1.3v-3.6ZM322.6,117.4l.6.8c-.6.2-1.2.4-2,.6s-1.4.3-2,.3l-.5-.8c.4,0,.8-.2,1.3-.3s.9-.2,1.4-.4.8-.2,1.2-.3ZM318.8,118.4l1.3.4.4,6.2h-1.3l-.4-6.6ZM319.5,120.1h3.6v1h-3.6v-1ZM319.6,122.2h3.6v1h-3.6v-1ZM320.8,126.9h9.6v1h-9.6v-1ZM325.5,129.5h1.3v4.6c0,.4,0,.6-.2.8,0,.2-.3.3-.6.4-.3,0-.7.1-1.2.2-.5,0-1.2,0-2,0,0-.2,0-.3-.2-.6,0-.2-.2-.4-.3-.6.4,0,.8,0,1.2,0,.4,0,.7,0,1,0s.5,0,.5,0c.2,0,.3,0,.3,0s0-.1,0-.3v-4.5ZM327.1,120.8l1,.3c-.5.6-1.1,1.2-1.8,1.8-.7.6-1.4,1.1-2.2,1.5,0,0-.2-.2-.4-.4-.2-.2-.3-.3-.4-.4.7-.3,1.4-.7,2.1-1.2.7-.5,1.2-1,1.7-1.6ZM327,117.4l1,.3c-.5.6-1,1.2-1.7,1.8-.7.6-1.4,1-2,1.4,0,0-.2-.2-.4-.4-.2-.1-.3-.3-.4-.3.7-.3,1.3-.8,2-1.2.7-.5,1.2-1,1.6-1.5ZM323.7,121.7l.7-.6c.5.2.9.5,1.4.7.5.3,1,.6,1.4.9.4.3.8.6,1.1.8l-.7.7c-.3-.3-.6-.6-1-.9-.4-.3-.9-.6-1.4-.9-.5-.3-1-.6-1.4-.8ZM323.8,118.3l.7-.6c.5.2.9.4,1.4.7s.9.5,1.4.8c.4.3.8.5,1,.8l-.7.7c-.3-.2-.6-.5-1-.8-.4-.3-.9-.6-1.3-.8-.5-.3-.9-.5-1.4-.7ZM330,126.9h.6c0,0,.8.6.8.6-.5.4-1,.7-1.6,1-.6.3-1.2.6-1.8.9s-1.2.5-1.8.8c0-.1-.2-.2-.3-.4-.1-.1-.3-.2-.4-.3.5-.2,1.1-.4,1.6-.7s1.1-.5,1.6-.8.9-.6,1.2-.8v-.3ZM328.8,122.2h3.6v1h-3.6v-1ZM328.8,118h3.9v1h-3.9v-1ZM328.9,120.1h3.6v1h-3.6v-1ZM332.1,118h1.3c0,.8,0,1.6-.1,2.4s-.1,1.7-.2,2.5-.1,1.5-.2,2.1h-1.3c0-.6.2-1.3.2-2.1,0-.8.1-1.6.2-2.5,0-.9,0-1.6.1-2.4Z"/>
              <path class="cls-41" d="M341.9,130l1.3.5c-.4.5-.8,1-1.3,1.6s-1,1-1.6,1.5c-.5.5-1.1.9-1.6,1.2,0,0-.2-.2-.3-.3-.1-.1-.3-.2-.4-.3s-.3-.2-.4-.3c.8-.5,1.6-1.1,2.4-1.8.8-.7,1.4-1.4,2-2.1ZM350.3,117.3l1,1.1c-.8.4-1.7.7-2.8,1.1-1,.3-2.1.7-3.3,1-1.2.3-2.3.6-3.5.8-1.2.3-2.4.5-3.5.7,0-.2,0-.4-.2-.6,0-.2-.2-.4-.2-.5,1.1-.2,2.3-.5,3.4-.7,1.2-.3,2.3-.5,3.4-.8s2.2-.6,3.1-.9c1-.3,1.8-.7,2.5-1ZM338.6,129.7c0-.1,0-.2,0-.4,0-.2-.1-.3-.2-.5,0-.2-.1-.3-.2-.4.3,0,.7-.1,1.1-.3.5-.2,1-.4,1.6-.7.3-.1.8-.4,1.5-.7.7-.3,1.4-.7,2.3-1.2.8-.5,1.7-1,2.6-1.6.9-.6,1.8-1.2,2.6-1.8l1,.9c-1.9,1.3-3.8,2.5-5.7,3.5-1.9,1-3.8,1.9-5.7,2.6h0c-.2.1-.4.2-.5.2-.1,0-.2.1-.4.2s-.1.1-.1.2ZM338.6,129.7v-1s.9-.5.9-.5l13.1-.9c0,.2,0,.4,0,.6v.6c-2,.1-3.8.3-5.2.4s-2.7.2-3.7.3c-1,0-1.8.1-2.4.2-.6,0-1.1.1-1.4.2-.3,0-.6,0-.8.1-.2,0-.3,0-.5.1ZM339.7,125.5c0,0,0-.2,0-.4,0-.2,0-.3-.2-.5,0-.2,0-.3-.1-.4.2,0,.5,0,.7-.2.3-.1.6-.2.9-.4.2-.1.6-.3,1.1-.7.5-.3,1.1-.7,1.8-1.2.6-.4,1.2-.9,1.8-1.4l1.2.8c-1,.8-2,1.5-3.1,2.1-1.1.6-2.1,1.2-3.1,1.6h0c-.2.1-.3.2-.5.2-.1,0-.2.1-.3.2,0,0-.1.1-.1.2ZM339.7,125.5v-1s.8-.4.8-.4l7.5-.4c0,.2,0,.3,0,.6,0,.2,0,.4,0,.5-1.4,0-2.5.2-3.4.2-.9,0-1.7.1-2.3.2s-1,0-1.4.1c-.3,0-.6,0-.7,0-.2,0-.3,0-.4.1ZM345.5,128.1h1.4v5.7c0,.4,0,.7-.2.9-.1.2-.3.4-.6.5s-.7.2-1.2.2-1.1,0-1.9,0c0-.2-.1-.4-.2-.7-.1-.3-.2-.5-.3-.7.4,0,.8,0,1.2,0,.4,0,.7,0,.9,0s.4,0,.5,0c.2,0,.3,0,.3,0,0,0,0-.1,0-.2v-5.7ZM348.8,130.5l1-.7c.5.4,1.1.9,1.7,1.3.6.5,1.1,1,1.7,1.4.5.5,1,.9,1.3,1.3l-1.1.8c-.3-.4-.7-.8-1.2-1.3-.5-.5-1.1-1-1.6-1.5s-1.1-1-1.7-1.4ZM349.4,125.2l1.1-.5c.5.5,1,.9,1.5,1.5.5.5,1,1.1,1.5,1.6.5.5.8,1,1.1,1.4l-1.1.7c-.3-.4-.6-.9-1.1-1.4s-.9-1.1-1.5-1.6c-.5-.5-1-1.1-1.5-1.5Z"/>
            </g>
          </g>
        </g>
        <rect class="cls-42" x="236" y="117" width="119" height="19"/>
      </g>
      <g id="c129">
        <g id="tx__mcbzlomj2sqp-fill">
          <g class="cls-3">
            <g class="cls-3">
              <path class="cls-41" d="M750.3,291.3l1.3.4c-.5,1.1-1.1,2.2-1.7,3.3-.7,1.1-1.4,2.1-2.1,3.1-.8,1-1.5,1.8-2.3,2.5,0,0-.1-.2-.2-.4,0-.2-.2-.3-.3-.5s-.2-.3-.3-.4c.7-.6,1.5-1.4,2.2-2.2.7-.9,1.4-1.8,2-2.8.6-1,1.1-2,1.6-3ZM748.2,296.1l1.3-1.3h0v14.7h-1.3v-13.5ZM753.8,291.5h1.3v14.8c0,.3,0,.6.1.8,0,.2.2.3.4.4s.5.1.8.1h3.8c.4,0,.7-.1.9-.4.2-.2.3-.7.4-1.3,0-.6.1-1.5.2-2.7.2.1.4.3.6.4s.4.2.6.2c0,1.2-.2,2.2-.3,2.9-.2.7-.4,1.2-.8,1.6-.4.3-.9.5-1.6.5h-3.9c-.6,0-1.1,0-1.5-.2-.4-.1-.6-.4-.8-.8-.1-.4-.2-.9-.2-1.6v-14.7ZM754.6,297.1h7.7v1.3h-7.7v-1.3Z"/>
              <path class="cls-41" d="M765.1,304.4h17.9v1.2h-17.9v-1.2ZM765.5,298.4h17v3.6h-1.3v-2.5h-14.4v2.5h-1.3v-3.6ZM770.6,291.4l.6.8c-.6.2-1.2.4-2,.6s-1.4.3-2,.3l-.5-.8c.4,0,.8-.2,1.3-.3s.9-.2,1.4-.4.8-.2,1.2-.3ZM766.8,292.4l1.3.4.4,6.2h-1.3l-.4-6.6ZM767.5,294.1h3.6v1h-3.6v-1ZM767.6,296.2h3.6v1h-3.6v-1ZM768.8,300.9h9.6v1h-9.6v-1ZM773.5,303.5h1.3v4.6c0,.4,0,.6-.2.8,0,.2-.3.3-.6.4-.3,0-.7.1-1.2.2-.5,0-1.2,0-2,0,0-.2,0-.3-.2-.6,0-.2-.2-.4-.3-.6.4,0,.8,0,1.2,0,.4,0,.7,0,1,0s.5,0,.5,0c.2,0,.3,0,.3,0s0-.1,0-.3v-4.5ZM775.1,294.8l1,.3c-.5.6-1.1,1.2-1.8,1.8-.7.6-1.4,1.1-2.2,1.5,0,0-.2-.2-.4-.4-.2-.2-.3-.3-.4-.4.7-.3,1.4-.7,2.1-1.2.7-.5,1.2-1,1.7-1.6ZM775,291.4l1,.3c-.5.6-1,1.2-1.7,1.8-.7.6-1.4,1-2,1.4,0,0-.2-.2-.4-.4-.2-.1-.3-.3-.4-.3.7-.3,1.3-.8,2-1.2.7-.5,1.2-1,1.6-1.5ZM771.7,295.7l.7-.6c.5.2.9.5,1.4.7.5.3,1,.6,1.4.9.4.3.8.6,1.1.8l-.7.7c-.3-.3-.6-.6-1-.9-.4-.3-.9-.6-1.4-.9-.5-.3-1-.6-1.4-.8ZM771.8,292.3l.7-.6c.5.2.9.4,1.4.7s.9.5,1.4.8c.4.3.8.5,1,.8l-.7.7c-.3-.2-.6-.5-1-.8-.4-.3-.9-.6-1.3-.8-.5-.3-.9-.5-1.4-.7ZM778,300.9h.6c0,0,.8.6.8.6-.5.4-1,.7-1.6,1-.6.3-1.2.6-1.8.9s-1.2.5-1.8.8c0-.1-.2-.2-.3-.4-.1-.1-.3-.2-.4-.3.5-.2,1.1-.4,1.6-.7s1.1-.5,1.6-.8.9-.6,1.2-.8v-.3ZM776.8,296.2h3.6v1h-3.6v-1ZM776.8,292h3.9v1h-3.9v-1ZM776.9,294.1h3.6v1h-3.6v-1ZM780.1,292h1.3c0,.8,0,1.6-.1,2.4s-.1,1.7-.2,2.5-.1,1.5-.2,2.1h-1.3c0-.6.2-1.3.2-2.1,0-.8.1-1.6.2-2.5,0-.9,0-1.6.1-2.4Z"/>
              <path class="cls-41" d="M785.1,304.4h17.9v1.2h-17.9v-1.2ZM785.5,298.4h17v3.6h-1.3v-2.5h-14.4v2.5h-1.3v-3.6ZM790.6,291.4l.6.8c-.6.2-1.2.4-2,.6s-1.4.3-2,.3l-.5-.8c.4,0,.8-.2,1.3-.3s.9-.2,1.4-.4.8-.2,1.2-.3ZM786.8,292.4l1.3.4.4,6.2h-1.3l-.4-6.6ZM787.5,294.1h3.6v1h-3.6v-1ZM787.6,296.2h3.6v1h-3.6v-1ZM788.8,300.9h9.6v1h-9.6v-1ZM793.5,303.5h1.3v4.6c0,.4,0,.6-.2.8,0,.2-.3.3-.6.4-.3,0-.7.1-1.2.2-.5,0-1.2,0-2,0,0-.2,0-.3-.2-.6,0-.2-.2-.4-.3-.6.4,0,.8,0,1.2,0,.4,0,.7,0,1,0s.5,0,.5,0c.2,0,.3,0,.3,0s0-.1,0-.3v-4.5ZM795.1,294.8l1,.3c-.5.6-1.1,1.2-1.8,1.8-.7.6-1.4,1.1-2.2,1.5,0,0-.2-.2-.4-.4-.2-.2-.3-.3-.4-.4.7-.3,1.4-.7,2.1-1.2.7-.5,1.2-1,1.7-1.6ZM795,291.4l1,.3c-.5.6-1,1.2-1.7,1.8-.7.6-1.4,1-2,1.4,0,0-.2-.2-.4-.4-.2-.1-.3-.3-.4-.3.7-.3,1.3-.8,2-1.2.7-.5,1.2-1,1.6-1.5ZM791.7,295.7l.7-.6c.5.2.9.5,1.4.7.5.3,1,.6,1.4.9.4.3.8.6,1.1.8l-.7.7c-.3-.3-.6-.6-1-.9-.4-.3-.9-.6-1.4-.9-.5-.3-1-.6-1.4-.8ZM791.8,292.3l.7-.6c.5.2.9.4,1.4.7s.9.5,1.4.8c.4.3.8.5,1,.8l-.7.7c-.3-.2-.6-.5-1-.8-.4-.3-.9-.6-1.3-.8-.5-.3-.9-.5-1.4-.7ZM798,300.9h.6c0,0,.8.6.8.6-.5.4-1,.7-1.6,1-.6.3-1.2.6-1.8.9s-1.2.5-1.8.8c0-.1-.2-.2-.3-.4-.1-.1-.3-.2-.4-.3.5-.2,1.1-.4,1.6-.7s1.1-.5,1.6-.8.9-.6,1.2-.8v-.3ZM796.8,296.2h3.6v1h-3.6v-1ZM796.8,292h3.9v1h-3.9v-1ZM796.9,294.1h3.6v1h-3.6v-1ZM800.1,292h1.3c0,.8,0,1.6-.1,2.4s-.1,1.7-.2,2.5-.1,1.5-.2,2.1h-1.3c0-.6.2-1.3.2-2.1,0-.8.1-1.6.2-2.5,0-.9,0-1.6.1-2.4Z"/>
              <path class="cls-41" d="M809.9,304l1.3.5c-.4.5-.8,1-1.3,1.6s-1,1-1.6,1.5c-.5.5-1.1.9-1.6,1.2,0,0-.2-.2-.3-.3-.1-.1-.3-.2-.4-.3s-.3-.2-.4-.3c.8-.5,1.6-1.1,2.4-1.8.8-.7,1.4-1.4,2-2.1ZM818.3,291.3l1,1.1c-.8.4-1.7.7-2.8,1.1-1,.3-2.1.7-3.3,1-1.2.3-2.3.6-3.5.8-1.2.3-2.4.5-3.5.7,0-.2,0-.4-.2-.6,0-.2-.2-.4-.2-.5,1.1-.2,2.3-.5,3.4-.7,1.2-.3,2.3-.5,3.4-.8s2.2-.6,3.1-.9c1-.3,1.8-.7,2.5-1ZM806.6,303.7c0-.1,0-.2,0-.4,0-.2-.1-.3-.2-.5,0-.2-.1-.3-.2-.4.3,0,.7-.1,1.1-.3.5-.2,1-.4,1.6-.7.3-.1.8-.4,1.5-.7.7-.3,1.4-.7,2.3-1.2.8-.5,1.7-1,2.6-1.6.9-.6,1.8-1.2,2.6-1.8l1,.9c-1.9,1.3-3.8,2.5-5.7,3.5-1.9,1-3.8,1.9-5.7,2.6h0c-.2.1-.4.2-.5.2-.1,0-.2.1-.4.2s-.1.1-.1.2ZM806.6,303.7v-1s.9-.5.9-.5l13.1-.9c0,.2,0,.4,0,.6v.6c-2,.1-3.8.3-5.2.4s-2.7.2-3.7.3c-1,0-1.8.1-2.4.2-.6,0-1.1.1-1.4.2-.3,0-.6,0-.8.1-.2,0-.3,0-.5.1ZM807.7,299.5c0,0,0-.2,0-.4,0-.2,0-.3-.2-.5,0-.2,0-.3-.1-.4.2,0,.5,0,.7-.2.3-.1.6-.2.9-.4.2-.1.6-.3,1.1-.7.5-.3,1.1-.7,1.8-1.2.6-.4,1.2-.9,1.8-1.4l1.2.8c-1,.8-2,1.5-3.1,2.1-1.1.6-2.1,1.2-3.1,1.6h0c-.2.1-.3.2-.5.2-.1,0-.2.1-.3.2,0,0-.1.1-.1.2ZM807.7,299.5v-1s.8-.4.8-.4l7.5-.4c0,.2,0,.3,0,.6,0,.2,0,.4,0,.5-1.4,0-2.5.2-3.4.2-.9,0-1.7.1-2.3.2s-1,0-1.4.1c-.3,0-.6,0-.7,0-.2,0-.3,0-.4.1ZM813.5,302.1h1.4v5.7c0,.4,0,.7-.2.9-.1.2-.3.4-.6.5s-.7.2-1.2.2-1.1,0-1.9,0c0-.2-.1-.4-.2-.7-.1-.3-.2-.5-.3-.7.4,0,.8,0,1.2,0,.4,0,.7,0,.9,0s.4,0,.5,0c.2,0,.3,0,.3,0,0,0,0-.1,0-.2v-5.7ZM816.8,304.5l1-.7c.5.4,1.1.9,1.7,1.3.6.5,1.1,1,1.7,1.4.5.5,1,.9,1.3,1.3l-1.1.8c-.3-.4-.7-.8-1.2-1.3-.5-.5-1.1-1-1.6-1.5s-1.1-1-1.7-1.4ZM817.4,299.2l1.1-.5c.5.5,1,.9,1.5,1.5.5.5,1,1.1,1.5,1.6.5.5.8,1,1.1,1.4l-1.1.7c-.3-.4-.6-.9-1.1-1.4s-.9-1.1-1.5-1.6c-.5-.5-1-1.1-1.5-1.5Z"/>
            </g>
          </g>
        </g>
        <rect class="cls-42" x="744" y="291" width="79" height="19"/>
      </g>
      <g id="b51">
        <g id="g-root-ro_qs5hq4mj2ryg-fill">
          <g id="ro_qs5hq4mj2ryg-fill">
            <path class="cls-21" d="M699.9,50h167.1s11.9,0,11.9,12v30s0,12-11.9,12h-167.1s-11.9,0-11.9-12v-30s0-12,11.9-12"/>
          </g>
        </g>
        <g id="g-root-tx__142zj0cmj2tja-fill">
          <g id="tx__142zj0cmj2tja-fill">
            <g class="cls-3">
              <g class="cls-3">
                <path class="cls-26" d="M753,68.1h2.1c0,.9,0,2,0,3,0,1.1-.2,2.2-.3,3.3-.2,1.1-.4,2.3-.8,3.4-.4,1.1-.9,2.3-1.5,3.3-.6,1.1-1.5,2.1-2.5,3s-2.2,1.7-3.7,2.4c-.2-.3-.4-.5-.6-.8-.3-.3-.5-.5-.8-.8,1.4-.6,2.6-1.4,3.5-2.2,1-.8,1.7-1.7,2.3-2.7.6-1,1-2,1.4-3.1.3-1.1.5-2.1.7-3.2.1-1.1.2-2.1.2-3.1,0-1,0-1.9,0-2.8ZM745.2,73.7h17.7v2h-17.7v-2ZM755.2,74.5c.4,1.6,1,3,1.7,4.4.7,1.4,1.6,2.5,2.7,3.6,1.1,1,2.3,1.8,3.7,2.4-.2.1-.3.3-.5.5s-.3.4-.5.7c-.2.2-.3.4-.4.6-1.5-.7-2.8-1.6-3.9-2.8-1.1-1.1-2-2.5-2.8-4s-1.4-3.2-1.9-5l1.9-.5Z"/>
                <path class="cls-26" d="M769.2,68.1l1.9.5c-.4.9-.8,1.7-1.4,2.6-.5.8-1.1,1.6-1.7,2.3-.6.7-1.3,1.3-1.9,1.9,0-.1-.2-.3-.4-.5-.2-.2-.3-.4-.5-.6-.2-.2-.3-.3-.5-.5.9-.7,1.8-1.5,2.6-2.5.8-1,1.4-2.1,1.9-3.2ZM769,82l1.4.5c-.3.5-.7,1-1.1,1.5-.5.5-.9,1-1.4,1.4s-1,.8-1.6,1.1c-.1-.2-.3-.5-.6-.7-.2-.3-.4-.5-.6-.6.5-.2,1-.5,1.5-.8.5-.3,1-.7,1.4-1.1.4-.4.8-.8,1.1-1.2ZM765.6,80.1h12v1.5h-12v-1.5ZM766.8,77.5l1.4-.6c.3.4.6.8.9,1.2.3.5.5.9.6,1.2l-1.5.6c-.1-.3-.3-.8-.6-1.2-.3-.5-.5-.9-.8-1.3ZM766.9,74.9h11.8v1.5h-11.8v-1.5ZM768.9,69.9h13.6v1.5h-13.6v-1.5ZM769,72.4h11.9v1.4h-11.9v-1.4ZM770.8,76.8h1.8v9.8h-1.8v-9.8ZM773.1,83l1.1-1c.4.3.9.6,1.3,1,.5.4.9.7,1.3,1.1.4.4.8.7,1,1l-1.2,1.2c-.3-.3-.6-.6-1-1s-.9-.8-1.3-1.2c-.5-.4-.9-.7-1.3-1.1ZM775.1,77l1.7.5c-.3.5-.7.9-1.1,1.4s-.7.9-1,1.2l-1.2-.5c.2-.2.4-.5.6-.8.2-.3.4-.6.6-.9.2-.3.3-.6.5-.9ZM778.1,74.9h1.9c0,1.5,0,2.8,0,4,0,1.2.1,2.3.2,3.1.1.9.3,1.5.5,2s.5.7.9.7.3-.3.4-.8c0-.5.1-1.2.1-2.1.2.2.4.4.6.6.2.2.4.4.6.5,0,.9-.1,1.6-.2,2.1-.1.5-.3.9-.6,1.1-.2.2-.6.4-1.1.4-.8,0-1.4-.3-1.8-.8-.4-.6-.8-1.4-1-2.4-.2-1-.3-2.3-.4-3.7,0-1.4,0-3,0-4.8Z"/>
                <path class="cls-26" d="M788.1,74.4l1.1.5c-.2.7-.4,1.4-.7,2.2-.3.8-.6,1.5-.9,2.3-.3.7-.7,1.4-1,2.1-.4.7-.8,1.2-1.1,1.7,0-.3-.2-.6-.4-.9-.2-.3-.4-.6-.5-.8.4-.4.7-.9,1.1-1.4.3-.6.7-1.1,1-1.8.3-.6.6-1.3.9-1.9.3-.7.5-1.3.6-1.9ZM784.8,73.7h7.9v1.8h-7.9v-1.8ZM791.4,68.3l1.1,1.5c-.6.2-1.4.5-2.1.7-.8.2-1.6.4-2.4.5-.8.1-1.6.3-2.4.4,0-.2,0-.4-.2-.7-.1-.3-.2-.5-.3-.7.8-.1,1.5-.3,2.3-.4.8-.2,1.5-.4,2.2-.6s1.3-.4,1.8-.7ZM788,69.9h1.8v16.8h-1.8v-16.8ZM789.8,75.7c.1.1.3.3.6.6.3.3.6.6.9,1,.3.4.6.7.8,1,.2.3.4.5.5.7l-1.1,1.5c-.1-.3-.3-.6-.5-.9-.2-.4-.4-.8-.7-1.2-.3-.4-.5-.8-.7-1.1s-.4-.6-.6-.8l.9-.8ZM792.4,81.1l10.7-1.8.3,1.8-10.7,1.8-.3-1.8ZM793.1,75.7l1.2-1.1c.4.3.8.6,1.3.9s.9.7,1.2,1,.7.7.9.9l-1.3,1.2c-.2-.3-.5-.6-.9-1-.4-.4-.8-.7-1.2-1.1-.4-.4-.9-.7-1.3-1ZM793.9,70.5l1.2-1.1c.4.3.8.5,1.2.9.4.3.8.7,1.2,1,.4.3.6.6.9.9l-1.3,1.2c-.2-.3-.5-.6-.8-1s-.7-.7-1.1-1-.8-.7-1.2-.9ZM799,68.1h1.9v18.6h-1.9v-18.6Z"/>
                <path class="cls-26" d="M805,81.3h18v1.5h-18v-1.5ZM805.4,75.3h17.3v3.9h-1.9v-2.5h-13.6v2.5h-1.8v-3.9ZM810.5,68.3l.8,1.1c-.6.2-1.3.4-2,.6-.8.2-1.5.3-2,.4l-.7-1.1c.4,0,.8-.2,1.3-.3.5-.1,1-.2,1.4-.4s.9-.3,1.2-.4ZM806.6,69.3l1.8.5.4,6.2h-1.8l-.4-6.7ZM807.5,71h3.7v1.2h-3.7v-1.2ZM807.6,73.1h3.7v1.2h-3.7v-1.2ZM808.8,77.8h9.2v1.4h-9.2v-1.4ZM813.3,80.6h1.9v4.2c0,.5,0,.8-.2,1-.1.2-.4.4-.7.6-.4.1-.8.2-1.4.2-.5,0-1.2,0-2,0,0-.2-.1-.5-.2-.8-.1-.3-.2-.6-.4-.8.4,0,.8,0,1.1,0,.4,0,.7,0,.9,0h.5c.2,0,.3,0,.3,0,0,0,0-.1,0-.3v-4.2ZM814.9,71.6l1.3.4c-.5.7-1.1,1.3-1.8,1.8s-1.4,1.1-2.2,1.5c0-.1-.2-.3-.5-.5-.2-.2-.4-.4-.5-.5.7-.3,1.4-.7,2.1-1.2.7-.5,1.2-1,1.6-1.5ZM814.9,68.3l1.3.4c-.4.6-1,1.2-1.7,1.7s-1.4,1-2,1.4c-.1-.1-.3-.3-.5-.5s-.4-.3-.6-.4c.7-.3,1.4-.7,2-1.2.6-.4,1.1-.9,1.5-1.4ZM811.7,72.6l.9-.8c.5.2.9.5,1.4.7.5.3.9.6,1.4.9.4.3.8.6,1.1.8l-1,.9c-.3-.3-.6-.5-1-.8s-.9-.6-1.3-.9c-.5-.3-.9-.6-1.4-.8ZM811.8,69.3l.9-.8c.4.2.9.4,1.3.7.5.3.9.5,1.3.8s.8.5,1,.8l-.9.9c-.3-.2-.6-.5-1-.8-.4-.3-.8-.6-1.3-.8-.5-.3-.9-.5-1.3-.7ZM817.5,77.8h.9c0,0,1.1.9,1.1.9-.5.4-1,.7-1.6,1.1-.6.3-1.2.7-1.8,1-.6.3-1.2.6-1.8.8-.1-.2-.2-.3-.4-.5-.2-.2-.3-.3-.5-.5.5-.2,1-.4,1.6-.7s1-.6,1.5-.9.8-.6,1.1-.8v-.3ZM816.7,68.8h3.8v1.2h-3.8v-1.2ZM816.8,73.1h3.5v1.2h-3.5v-1.2ZM816.9,71h3.5v1.2h-3.5v-1.2ZM819.8,68.8h1.8c0,.8,0,1.6-.1,2.5,0,.9-.1,1.7-.2,2.6,0,.8-.1,1.5-.2,2.1h-1.8c0-.6.2-1.4.2-2.2,0-.8.1-1.7.2-2.6,0-.9,0-1.7.1-2.5Z"/>
                <path class="cls-26" d="M825,81.3h18v1.5h-18v-1.5ZM825.4,75.3h17.3v3.9h-1.9v-2.5h-13.6v2.5h-1.8v-3.9ZM830.5,68.3l.8,1.1c-.6.2-1.3.4-2,.6-.8.2-1.5.3-2,.4l-.7-1.1c.4,0,.8-.2,1.3-.3.5-.1,1-.2,1.4-.4s.9-.3,1.2-.4ZM826.6,69.3l1.8.5.4,6.2h-1.8l-.4-6.7ZM827.5,71h3.7v1.2h-3.7v-1.2ZM827.6,73.1h3.7v1.2h-3.7v-1.2ZM828.8,77.8h9.2v1.4h-9.2v-1.4ZM833.3,80.6h1.9v4.2c0,.5,0,.8-.2,1-.1.2-.4.4-.7.6-.4.1-.8.2-1.4.2-.5,0-1.2,0-2,0,0-.2-.1-.5-.2-.8-.1-.3-.2-.6-.4-.8.4,0,.8,0,1.1,0,.4,0,.7,0,.9,0h.5c.2,0,.3,0,.3,0,0,0,0-.1,0-.3v-4.2ZM834.9,71.6l1.3.4c-.5.7-1.1,1.3-1.8,1.8s-1.4,1.1-2.2,1.5c0-.1-.2-.3-.5-.5-.2-.2-.4-.4-.5-.5.7-.3,1.4-.7,2.1-1.2.7-.5,1.2-1,1.6-1.5ZM834.9,68.3l1.3.4c-.4.6-1,1.2-1.7,1.7s-1.4,1-2,1.4c-.1-.1-.3-.3-.5-.5s-.4-.3-.6-.4c.7-.3,1.4-.7,2-1.2.6-.4,1.1-.9,1.5-1.4ZM831.7,72.6l.9-.8c.5.2.9.5,1.4.7.5.3.9.6,1.4.9.4.3.8.6,1.1.8l-1,.9c-.3-.3-.6-.5-1-.8s-.9-.6-1.3-.9c-.5-.3-.9-.6-1.4-.8ZM831.8,69.3l.9-.8c.4.2.9.4,1.3.7.5.3.9.5,1.3.8s.8.5,1,.8l-.9.9c-.3-.2-.6-.5-1-.8-.4-.3-.8-.6-1.3-.8-.5-.3-.9-.5-1.3-.7ZM837.5,77.8h.9c0,0,1.1.9,1.1.9-.5.4-1,.7-1.6,1.1-.6.3-1.2.7-1.8,1-.6.3-1.2.6-1.8.8-.1-.2-.2-.3-.4-.5-.2-.2-.3-.3-.5-.5.5-.2,1-.4,1.6-.7s1-.6,1.5-.9.8-.6,1.1-.8v-.3ZM836.7,68.8h3.8v1.2h-3.8v-1.2ZM836.8,73.1h3.5v1.2h-3.5v-1.2ZM836.9,71h3.5v1.2h-3.5v-1.2ZM839.8,68.8h1.8c0,.8,0,1.6-.1,2.5,0,.9-.1,1.7-.2,2.6,0,.8-.1,1.5-.2,2.1h-1.8c0-.6.2-1.4.2-2.2,0-.8.1-1.7.2-2.6,0-.9,0-1.7.1-2.5Z"/>
                <path class="cls-26" d="M847,74.5l1.2.4c-.3.7-.6,1.3-1.1,2s-.9,1.2-1.4,1.6c-.1-.2-.3-.4-.5-.7-.2-.2-.4-.4-.6-.6.3-.2.6-.4,1-.7.3-.3.6-.6.9-1,.3-.4.5-.7.7-1ZM848.4,78.1h1.6v2.1c0,.5,0,1.1-.1,1.7s-.3,1.2-.6,1.7c-.3.6-.7,1.1-1.3,1.6-.6.5-1.4,1-2.4,1.4,0-.1-.2-.3-.3-.5-.1-.2-.2-.3-.4-.5-.1-.2-.3-.3-.4-.4.9-.3,1.5-.7,2-1.1s.9-.8,1.1-1.3c.3-.4.4-.9.5-1.3s.1-.9.1-1.3v-2ZM844.9,72.5h8.7v1.5h-8.7v-1.5ZM844.9,79.8h8.8v1.6h-8.8v-1.6ZM845.3,69.3l1.3-.5c.2.4.5.8.7,1.2.2.4.4.8.4,1.2l-1.4.6c0-.3-.2-.7-.4-1.2s-.4-.9-.7-1.3ZM848.5,68.2h1.7v9.4h-1.7v-9.4ZM848.5,83.1l1-1.2c.4.2.9.5,1.3.8.5.3.9.6,1.4.9.4.3.8.6,1.1.8l-1,1.3c-.3-.2-.6-.5-1-.8-.4-.3-.9-.6-1.4-1-.5-.3-.9-.6-1.3-.9ZM851.2,74.6c.1,0,.3.2.6.4.3.2.5.4.8.6.3.2.5.4.8.6s.4.3.5.4l-1,1.2c-.1-.2-.3-.4-.5-.6-.2-.2-.5-.5-.7-.7s-.5-.5-.7-.7c-.2-.2-.4-.4-.6-.5l1-.7ZM850.7,78.5l1.1-.7c.3.2.5.5.8.8.3.3.5.6.6.8l-1.1.8c-.1-.2-.3-.5-.6-.8-.3-.3-.5-.6-.8-.8ZM851.8,68.9l1.6.4c-.2.5-.5.9-.7,1.4s-.5.8-.7,1.2l-1.2-.4c.2-.4.4-.8.6-1.3.2-.5.4-.9.5-1.3ZM856.5,83.1l1.6,1c-.3.3-.7.7-1.1,1s-.9.7-1.3,1-.9.5-1.4.8c-.1-.2-.3-.4-.6-.6-.2-.2-.5-.4-.7-.6.4-.2.9-.4,1.3-.7.4-.3.8-.6,1.2-.9s.7-.6.9-.9ZM853.8,69h9.4v1.6h-9.4v-1.6ZM854.5,72.3h8v10.5h-8v-10.5ZM856.2,73.7v1.6h4.5v-1.6h-4.5ZM856.2,76.7v1.6h4.5v-1.6h-4.5ZM856.2,79.7v1.7h4.5v-1.7h-4.5ZM857.4,69.9l2.1.3c-.2.6-.4,1.2-.6,1.8s-.4,1.1-.6,1.5l-1.6-.3c0-.3.2-.6.3-1,0-.4.2-.8.3-1.1,0-.4.1-.7.2-1ZM858.8,84l1.4-.9c.4.2.8.5,1.2.8s.8.6,1.2.9.7.6,1,.8l-1.5,1c-.2-.2-.5-.5-.9-.8-.4-.3-.8-.6-1.2-1-.4-.3-.8-.6-1.2-.9Z"/>
              </g>
            </g>
          </g>
        </g>
        <g id="_圖層_1">
          <g id="_圖層_1-2">
            <g id="_圖層_1-2-2" data-name="_圖層_1-2">
              <g class="cls-3">
                <g id="_圖層_1-2-2">
                  <g>
                    <g>
                      <circle class="cls-43" cx="718.4" cy="75.2" r="12.7"/>
                      <path class="cls-36" d="M728.8,67.9c4.5,6.6,2,15-4.1,18.3-2.8-.6,4.2-6,.6-5.5-3.2.4-5.7-1.5-6.6-4.8-.9-3.3,1.8-2.8,2.8-5.9,1-3,6.8-2.2,7.3-2.1h0Z"/>
                      <path class="cls-36" d="M711.5,64.6c-4.6,3-5.4,7.4-5.4,7.4,0,0,3.4.9,4.4-.9,1-1.8,1.9-.8,3.7-2,1.8-1.2,3.2-.8,3-2.8-.2-2-5.8-1.7-5.8-1.7h0Z"/>
                      <path class="cls-36" d="M706,77.6c.9,4.4,2.9,6.6,4.6,7.7,1.7,1.1,4,.4,4.6-1.5.2-.5.2-1,0-1.3-1-1.3-2.1-.1-3.6-3-1.5-2.9-5.5-2-5.5-2h0Z"/>
                      <g class="cls-2">
                        <path class="cls-36" d="M729.4,81.7c3.5-6,1.5-13.8-4.6-17.3,4.5,8.7.6,21-12.7,21.9,6,3.5,13.8,1.5,17.3-4.6h0Z"/>
                      </g>
                    </g>
                    <g>
                      <path class="cls-26" d="M715.8,63.2c-.7-2-2.7-3.4-4.8-3.4s-4.3,1.5-4.9,3.7h0c0,.1-.1,0-.1,0-.2,0-.3,0-.5,0h0c-1.1,0-2.1.9-2.1,2h0c0,0,0,.1,0,.1-1.3.5-2.2,1.8-2.2,3.2s1.6,3.5,3.5,3.5h11.4c.8,0,1.6-.2,2.3-.6,1.4-.8,2.3-2.3,2.3-3.9,0-2.5-2-4.6-4.6-4.6"/>
                      <path class="cls-28" d="M705.5,71.6s-2.3.2-3.1-1.5c-.4-.9-.3-2,.4-2.8.3-.4.8-.8,1.6-.9,0,0-.5-1.1.5-1.7,0,0,.6-.4,1.8,0,0,0,.4-3.3,4.1-4,0,0-4,1.4-3,5,0,0-1.2-.6-1.8.4,0,0-.5.8,0,1.3,0,0-1.1-.2-1.8.8-.3.4-.4.9-.3,1.4,0,.7.4,1.7,1.6,2h0s0,0,0,0h0Z"/>
                      <path class="cls-28" d="M706.2,72.4h-1.8c-.9,0-1.8-.4-2.5-1.2-.6-.7-1-1.6-1-2.3,0-1.4.9-2.7,2.2-3.3h0c0-1.2,1-2.1,2.1-2.1h0s0,0,0,0c.2,0,.4,0,.5,0h0s0,0,0,0c.6-2.1,2.7-3.7,5-3.7s3.9,1.2,4.7,3.1h0c-.8-1.8-2.6-3-4.7-3s-4.3,1.6-4.9,3.7v.2c0,0-.2,0-.2,0-.2,0-.3,0-.5,0h0s0,0,0,0c-1.1,0-2,.9-2.1,2h0c0,.1-.1.1-.1.1-1.3.5-2.2,1.8-2.2,3.2s.4,1.6,1,2.2c.7.8,1.6,1.2,2.4,1.2h1.8c0,0,0,0,0,0h0Z"/>
                    </g>
                    <g>
                      <path class="cls-26" d="M732.9,73.9c0-1.5-1.2-2.7-2.7-2.7s-2.7,1.2-2.7,2.7v14.4h5.4v-14.4h0Z"/>
                      <path class="cls-34" d="M727.5,88.2v.4c0,1.5,1.2,2.7,2.7,2.7s2.7-1.2,2.7-2.7v-.4h-5.4,0Z"/>
                      <path class="cls-7" d="M730.2,91.4s0,0,0,0,0,0,0,0c1.5,0,2.7-1.2,2.7-2.7v-.4s0,0,0,0,0,0,0,0v.4c0,1.5-1.2,2.7-2.7,2.7h0Z"/>
                      <g>
                        <path class="cls-45" d="M728.9,85.9h-1.5s0,0,0,0,0,0,0,0h1.5s0,0,0,0,0,0,0,0Z"/>
                        <path class="cls-45" d="M728.9,83.3h-1.5s0,0,0,0,0,0,0,0h1.5s0,0,0,0,0,0,0,0Z"/>
                        <path class="cls-45" d="M728.9,80.6h-1.5s0,0,0,0,0,0,0,0h1.5s0,0,0,0,0,0,0,0Z"/>
                        <path class="cls-45" d="M728.9,77.9h-1.5s0,0,0,0,0,0,0,0h1.5s0,0,0,0,0,0,0,0Z"/>
                        <path class="cls-45" d="M728.9,75.3h-1.5s0,0,0,0,0,0,0,0h1.5s0,0,0,0,0,0,0,0Z"/>
                      </g>
                      <path class="cls-34" d="M730.2,88.5c-.1,0-.2-.1-.2-.2v-15.2c0-.1.1-.2.2-.2s.2.1.2.2v15.2c0,.1-.1.2-.2.2Z"/>
                      <path class="cls-26" d="M730.2,89.8c-.1,0-.2-.1-.2-.2s.1-.2.2-.2.2.1.2.2-.1.2-.2.2ZM730.2,89.5s0,0,0,0,0,0,0,0,0,0,0,0,0,0,0,0Z"/>
                      <path class="cls-7" d="M732.9,88.3s0,0,0,0v-14.4c0-1.5-1.2-2.7-2.7-2.7s0,0,0,0,0,0,0,0c1.5,0,2.7,1.2,2.7,2.7v14.4s0,0,0,0h0Z"/>
                    </g>
                  </g>
                </g>
              </g>
            </g>
          </g>
        </g>
      </g>
      <g id="b50">
        <g id="g-root-ro_zispa4mjjmkp-fill">
          <g id="ro_zispa4mjjmkp-fill">
            <path class="cls-16" d="M273.6,222h125.8s12.6,0,12.6,12v30s0,12-12.6,12h-125.8s-12.6,0-12.6-12v-30s0-12,12.6-12"/>
          </g>
        </g>
        <g id="g-root-tx__1d3mby4mji9l3-fill">
          <g id="tx__1d3mby4mji9l3-fill">
            <g class="cls-3">
              <g class="cls-3">
                <path class="cls-26" d="M277.8,241.3l1.6.3c0,.9-.2,1.8-.3,2.7-.1.9-.3,1.7-.5,2.5-.2.8-.4,1.5-.7,2.1-.1,0-.2-.2-.4-.3-.2-.1-.3-.2-.5-.3s-.3-.2-.4-.3c.2-.5.4-1.2.6-1.9s.3-1.5.4-2.3c.1-.8.2-1.6.3-2.4ZM276.6,251.1c.6-.2,1.4-.4,2.2-.6.8-.2,1.7-.5,2.6-.7.9-.3,1.8-.5,2.8-.8l.2,1.7c-1.3.4-2.5.8-3.8,1.2-1.3.4-2.5.8-3.5,1.1l-.5-1.8ZM278.1,244.1h5.9v1.8h-6.2l.3-1.8ZM280.3,240.1h1.8v18.6h-1.8v-18.6ZM286.5,240.1l1.7.3c-.2,1.1-.5,2.2-.9,3.2-.4,1-.8,2-1.3,2.9-.5.9-1,1.7-1.5,2.3-.1,0-.2-.2-.4-.3-.2-.1-.4-.3-.5-.4-.2-.1-.4-.2-.5-.3.6-.6,1.1-1.3,1.5-2.1.4-.8.8-1.7,1.1-2.6.3-.9.6-1.9.8-2.9ZM288.5,243.9l1.4.7c-.3,1.2-.7,2.3-1.1,3.5-.5,1.2-1.1,2.3-1.7,3.4s-1.3,1.9-2.1,2.6c-.2-.2-.4-.4-.7-.6-.3-.2-.5-.4-.8-.5.6-.5,1.1-1,1.7-1.7.5-.7,1-1.4,1.4-2.2.4-.8.8-1.7,1.1-2.6s.6-1.8.8-2.6ZM291.3,244.1l1.5.7c-.2,1.3-.6,2.7-1,4s-.9,2.6-1.4,3.8-1.2,2.3-1.8,3.3c-.7,1-1.5,1.8-2.3,2.5-.2-.2-.4-.4-.7-.6-.3-.2-.6-.4-.8-.5.9-.6,1.7-1.4,2.4-2.4.7-.9,1.3-2,1.9-3.1s1-2.4,1.4-3.7c.4-1.3.7-2.6,1-3.9ZM286.7,243.4h7.4v1.8h-8.3l.8-1.8ZM293.3,243.4h1.8v.6c0,.1,0,.3,0,.4-.1,2.3-.2,4.2-.3,5.8s-.2,2.9-.4,3.9c-.1,1-.3,1.8-.4,2.4-.2.6-.3,1-.5,1.2-.2.3-.4.5-.7.6s-.5.2-.8.3c-.3,0-.6,0-1,0-.4,0-.8,0-1.3,0,0-.3,0-.6-.2-1s-.2-.7-.4-.9c.4,0,.8,0,1.2,0s.6,0,.8,0,.3,0,.4,0c.1,0,.2-.1.3-.3.1-.2.3-.5.4-1.1.1-.5.3-1.3.4-2.2s.2-2.2.3-3.7c.1-1.5.2-3.3.3-5.5v-.4Z"/>
                <path class="cls-26" d="M296.6,254.8c.6-.1,1.2-.3,1.9-.5s1.5-.4,2.2-.7c.8-.3,1.6-.5,2.4-.8l.3,1.8c-1.1.4-2.2.7-3.3,1.1-1.1.4-2.1.7-3,1l-.5-1.9ZM296.8,241.4h6.4v1.8h-6.4v-1.8ZM297,247.2h5.9v1.7h-5.9v-1.7ZM299.2,242.1h1.8v12.3l-1.8.3v-12.7ZM302.5,256.3h12.9v1.7h-12.9v-1.7ZM303.9,252.2h10.8v1.7h-10.8v-1.7ZM304.1,241h10.4v9.1h-10.4v-9.1ZM305.8,242.6v2.2h6.8v-2.2h-6.8ZM305.8,246.3v2.2h6.8v-2.2h-6.8ZM308.5,241.7h1.6v7.6h.1v7.7h-1.9v-7.7h.2v-7.6Z"/>
                <path class="cls-26" d="M317,253.3h18v1.5h-18v-1.5ZM317.4,247.3h17.3v3.9h-1.9v-2.5h-13.6v2.5h-1.8v-3.9ZM322.5,240.3l.8,1.1c-.6.2-1.3.4-2,.6-.8.2-1.5.3-2,.4l-.7-1.1c.4,0,.8-.2,1.3-.3.5-.1,1-.2,1.4-.4s.9-.3,1.2-.4ZM318.6,241.3l1.8.5.4,6.2h-1.8l-.4-6.7ZM319.5,243h3.7v1.2h-3.7v-1.2ZM319.6,245.1h3.7v1.2h-3.7v-1.2ZM320.8,249.8h9.2v1.4h-9.2v-1.4ZM325.3,252.6h1.9v4.2c0,.5,0,.8-.2,1-.1.2-.4.4-.7.6-.4.1-.8.2-1.4.2-.5,0-1.2,0-2,0,0-.2-.1-.5-.2-.8-.1-.3-.2-.6-.4-.8.4,0,.8,0,1.1,0,.4,0,.7,0,.9,0h.5c.2,0,.3,0,.3,0,0,0,0-.1,0-.3v-4.2ZM326.9,243.6l1.3.4c-.5.7-1.1,1.3-1.8,1.8s-1.4,1.1-2.2,1.5c0-.1-.2-.3-.5-.5-.2-.2-.4-.4-.5-.5.7-.3,1.4-.7,2.1-1.2.7-.5,1.2-1,1.6-1.5ZM326.9,240.3l1.3.4c-.4.6-1,1.2-1.7,1.7s-1.4,1-2,1.4c-.1-.1-.3-.3-.5-.5s-.4-.3-.6-.4c.7-.3,1.4-.7,2-1.2.6-.4,1.1-.9,1.5-1.4ZM323.7,244.6l.9-.8c.5.2.9.5,1.4.7.5.3.9.6,1.4.9.4.3.8.6,1.1.8l-1,.9c-.3-.3-.6-.5-1-.8s-.9-.6-1.3-.9c-.5-.3-.9-.6-1.4-.8ZM323.8,241.3l.9-.8c.4.2.9.4,1.3.7.5.3.9.5,1.3.8s.8.5,1,.8l-.9.9c-.3-.2-.6-.5-1-.8-.4-.3-.8-.6-1.3-.8-.5-.3-.9-.5-1.3-.7ZM329.5,249.8h.9c0,0,1.1.9,1.1.9-.5.4-1,.7-1.6,1.1-.6.3-1.2.7-1.8,1-.6.3-1.2.6-1.8.8-.1-.2-.2-.3-.4-.5-.2-.2-.3-.3-.5-.5.5-.2,1-.4,1.6-.7s1-.6,1.5-.9.8-.6,1.1-.8v-.3ZM328.7,240.8h3.8v1.2h-3.8v-1.2ZM328.8,245.1h3.5v1.2h-3.5v-1.2ZM328.9,243h3.5v1.2h-3.5v-1.2ZM331.8,240.8h1.8c0,.8,0,1.6-.1,2.5,0,.9-.1,1.7-.2,2.6,0,.8-.1,1.5-.2,2.1h-1.8c0-.6.2-1.4.2-2.2,0-.8.1-1.7.2-2.6,0-.9,0-1.7.1-2.5Z"/>
                <path class="cls-26" d="M339,246.5l1.2.4c-.3.7-.6,1.3-1.1,2s-.9,1.2-1.4,1.6c-.1-.2-.3-.4-.5-.7-.2-.2-.4-.4-.6-.6.3-.2.6-.4,1-.7.3-.3.6-.6.9-1,.3-.4.5-.7.7-1ZM340.4,250.1h1.6v2.1c0,.5,0,1.1-.1,1.7s-.3,1.2-.6,1.7c-.3.6-.7,1.1-1.3,1.6-.6.5-1.4,1-2.4,1.4,0-.1-.2-.3-.3-.5-.1-.2-.2-.3-.4-.5-.1-.2-.3-.3-.4-.4.9-.3,1.5-.7,2-1.1s.9-.8,1.1-1.3c.3-.4.4-.9.5-1.3s.1-.9.1-1.3v-2ZM336.9,244.5h8.7v1.5h-8.7v-1.5ZM336.9,251.8h8.8v1.6h-8.8v-1.6ZM337.3,241.3l1.3-.5c.2.4.5.8.7,1.2.2.4.4.8.4,1.2l-1.4.6c0-.3-.2-.7-.4-1.2s-.4-.9-.7-1.3ZM340.5,240.2h1.7v9.4h-1.7v-9.4ZM340.5,255.1l1-1.2c.4.2.9.5,1.3.8.5.3.9.6,1.4.9.4.3.8.6,1.1.8l-1,1.3c-.3-.2-.6-.5-1-.8-.4-.3-.9-.6-1.4-1-.5-.3-.9-.6-1.3-.9ZM343.2,246.6c.1,0,.3.2.6.4.3.2.5.4.8.6.3.2.5.4.8.6s.4.3.5.4l-1,1.2c-.1-.2-.3-.4-.5-.6-.2-.2-.5-.5-.7-.7s-.5-.5-.7-.7c-.2-.2-.4-.4-.6-.5l1-.7ZM342.7,250.5l1.1-.7c.3.2.5.5.8.8.3.3.5.6.6.8l-1.1.8c-.1-.2-.3-.5-.6-.8-.3-.3-.5-.6-.8-.8ZM343.8,240.9l1.6.4c-.2.5-.5.9-.7,1.4s-.5.8-.7,1.2l-1.2-.4c.2-.4.4-.8.6-1.3.2-.5.4-.9.5-1.3ZM348.5,255.1l1.6,1c-.3.3-.7.7-1.1,1s-.9.7-1.3,1-.9.5-1.4.8c-.1-.2-.3-.4-.6-.6-.2-.2-.5-.4-.7-.6.4-.2.9-.4,1.3-.7.4-.3.8-.6,1.2-.9s.7-.6.9-.9ZM345.8,241h9.4v1.6h-9.4v-1.6ZM346.5,244.3h8v10.5h-8v-10.5ZM348.2,245.7v1.6h4.5v-1.6h-4.5ZM348.2,248.7v1.6h4.5v-1.6h-4.5ZM348.2,251.7v1.7h4.5v-1.7h-4.5ZM349.4,241.9l2.1.3c-.2.6-.4,1.2-.6,1.8s-.4,1.1-.6,1.5l-1.6-.3c0-.3.2-.6.3-1,0-.4.2-.8.3-1.1,0-.4.1-.7.2-1ZM350.8,256l1.4-.9c.4.2.8.5,1.2.8s.8.6,1.2.9.7.6,1,.8l-1.5,1c-.2-.2-.5-.5-.9-.8-.4-.3-.8-.6-1.2-1-.4-.3-.8-.6-1.2-.9Z"/>
              </g>
            </g>
          </g>
        </g>
        <g id="_圖層_1-2" data-name="_圖層_1">
          <g id="_圖層_1-2-3" data-name="_圖層_1-2">
            <g id="_圖層_1-2-4" data-name="_圖層_1-2">
              <g>
                <g>
                  <circle class="cls-36" cx="381.1" cy="247.6" r="11.5"/>
                  <circle class="cls-26" cx="381.1" cy="247.6" r="3.3"/>
                </g>
                <g>
                  <path class="cls-43" d="M381,263.6c-2,0-3.9-1.7-5.3-4.8-1.4-3-2.1-7-2.1-11.2s.8-8.2,2.1-11.2c1.4-3.1,3.3-4.8,5.3-4.8s3.9,1.7,5.3,4.8c1.4,3,2.1,7,2.1,11.2s-.8,8.2-2.1,11.2c-1.4,3.1-3.3,4.8-5.3,4.8h0ZM381,232.1c-1.8,0-3.5,1.6-4.9,4.5-1.3,2.9-2.1,6.9-2.1,11s.7,8.1,2.1,11c1.3,2.9,3,4.5,4.9,4.5s3.5-1.6,4.9-4.5c1.3-2.9,2.1-6.9,2.1-11s-.7-8.1-2.1-11c-1.3-2.9-3-4.5-4.9-4.5h0Z"/>
                  <path class="cls-43" d="M372.6,257.9c-2.6,0-4.5-.8-5.4-2.3-1-1.8-.5-4.2,1.5-7,1.9-2.7,5-5.3,8.7-7.5v.2c.1,0,0-.2,0-.2,3.7-2.1,7.5-3.5,10.8-3.8,3.4-.3,5.8.5,6.8,2.2,1,1.8.5,4.2-1.5,7-1.9,2.7-5,5.3-8.7,7.5-3.7,2.1-7.5,3.5-10.8,3.8-.5,0-1,0-1.4,0h0ZM389.6,237.8c-.4,0-.9,0-1.4,0-3.2.3-7,1.6-10.6,3.7s-6.6,4.7-8.5,7.3c-1.8,2.6-2.4,4.9-1.4,6.4.9,1.6,3.1,2.3,6.3,2,3.2-.3,7-1.6,10.6-3.7,3.6-2.1,6.6-4.7,8.5-7.3,1.8-2.6,2.4-4.9,1.4-6.4-.8-1.3-2.5-2-4.9-2Z"/>
                  <path class="cls-43" d="M389.5,257.9c-.5,0-.9,0-1.4,0-3.3-.3-7.1-1.7-10.8-3.8-3.7-2.1-6.8-4.8-8.7-7.5-2-2.7-2.5-5.2-1.5-7s3.4-2.5,6.8-2.2c3.3.3,7.1,1.7,10.8,3.8,3.7,2.1,6.8,4.8,8.7,7.5,2,2.7,2.5,5.2,1.5,7-.9,1.5-2.7,2.3-5.4,2.3h0ZM372.5,237.8c-2.4,0-4.2.7-4.9,2-.9,1.6-.4,3.9,1.4,6.4,1.9,2.6,4.9,5.2,8.5,7.3,3.6,2.1,7.4,3.4,10.6,3.7,3.2.3,5.4-.4,6.3-2,.9-1.6.4-3.9-1.4-6.4-1.9-2.6-4.9-5.2-8.5-7.3-3.6-2.1-7.4-3.4-10.6-3.7-.5,0-.9,0-1.4,0h0Z"/>
                  <circle class="cls-44" cx="376.3" cy="259.4" r="2.3"/>
                  <path class="cls-26" d="M376.3,260.3c-.5,0-.9-.4-.9-.9s.4-.9.9-.9.9.4.9.9-.4.9-.9.9Z"/>
                  <circle class="cls-25" cx="371.1" cy="237.7" r="2.3"/>
                  <path class="cls-26" d="M371.1,238.6c-.5,0-.9-.4-.9-.9s.4-.9.9-.9.9.4.9.9-.4.9-.9.9h0Z"/>
                  <circle class="cls-45" cx="394.5" cy="243.8" r="2.3"/>
                  <path class="cls-26" d="M394.5,244.7c-.5,0-.9-.4-.9-.9s.4-.9.9-.9.9.4.9.9-.4.9-.9.9Z"/>
                </g>
              </g>
            </g>
          </g>
        </g>
      </g>
      <g id="b49">
        <g id="g-root-ro_8zbi4mj8g7b-fill">
          <g id="ro_8zbi4mj8g7b-fill">
            <path class="cls-18" d="M232.9,50h167.1s11.9,0,11.9,12v30s0,12-11.9,12h-167.1s-11.9,0-11.9-12v-30s0-12,11.9-12"/>
          </g>
        </g>
        <g id="g-root-tx__dkftvgmj8emd-fill">
          <g id="tx__dkftvgmj8emd-fill">
            <g class="cls-3">
              <g class="cls-3">
                <path class="cls-26" d="M236.6,81.5c.5-.2,1.2-.4,1.9-.7.7-.3,1.5-.6,2.2-.9s1.6-.7,2.4-1l.4,1.7c-1.1.5-2.1,1-3.2,1.5-1.1.5-2.1.9-2.9,1.3l-.8-1.9ZM237,72.9h6.1v1.8h-6.1v-1.8ZM239.3,68.4h1.8v13.1h-1.8v-13.1ZM242.4,76.3l10.6-4.5.7,1.6-10.6,4.6-.7-1.7ZM244.5,70h1.8v13.2c0,.4,0,.7,0,.9s.2.3.4.4c.2,0,.5,0,1,0h4.4c.4,0,.7,0,.8-.2.2-.1.3-.4.4-.8,0-.4.2-.9.2-1.7.2.1.5.3.8.4.3.1.6.2.9.3,0,.9-.2,1.7-.4,2.2-.2.5-.5.9-.9,1.2-.4.2-1,.3-1.7.3h-4.7c-.8,0-1.5,0-1.9-.3-.5-.2-.8-.5-1-.9-.2-.4-.3-1.1-.3-1.9v-13.2ZM248.6,68.1h1.8v14h-1.8v-14ZM252.5,72.3h-.2l.7-.5,1.4.5v.3c-.1.9-.2,1.9-.3,3,0,1.1-.2,2.1-.3,3.1-.1,1-.3,1.9-.4,2.7l-1.5-.4c0-.5.2-1.2.2-1.8,0-.7.1-1.4.2-2.2,0-.8.1-1.6.1-2.3,0-.8,0-1.5.1-2.2Z"/>
                <path class="cls-26" d="M256.6,82.9c.6-.1,1.2-.3,1.9-.5.7-.2,1.5-.4,2.3-.7.8-.2,1.6-.5,2.4-.7l.3,1.7c-1.1.4-2.2.7-3.4,1.1-1.1.4-2.2.7-3.1,1l-.4-1.8ZM256.8,69.4h6.3v1.8h-6.3v-1.8ZM257,75.2h5.8v1.7h-5.8v-1.7ZM259.1,70.1h1.8v12.3l-1.8.3v-12.7ZM262.7,83c.5-.4,1-.8,1.7-1.4.7-.5,1.3-1.1,2.1-1.7.7-.6,1.5-1.2,2.2-1.9l.7,1.4c-.9.9-1.8,1.9-2.8,2.8s-1.8,1.7-2.6,2.5l-1.1-1.7ZM263.5,71.5h11.7v1.7h-11.7v-1.7ZM263.7,75l1.5-.7c.3.4.6.8.8,1.2.3.4.5.9.8,1.3s.4.8.5,1.1l-1.6.7c0-.3-.2-.7-.5-1.1-.2-.4-.5-.9-.7-1.3s-.5-.9-.8-1.2ZM268.3,68.1h1.8v16.3c0,.5,0,.9-.2,1.2-.1.3-.3.5-.7.7-.3.1-.7.2-1.2.3-.5,0-1.1,0-1.9,0,0-.2,0-.4-.2-.6,0-.2-.2-.4-.2-.7,0-.2-.2-.4-.3-.6.5,0,1,0,1.5,0h.9c.1,0,.3,0,.3-.1,0,0,.1-.2.1-.3v-16.3ZM270.1,73.6c.2,1.3.4,2.4.7,3.4.3,1,.6,1.9,1.1,2.7.4.8.9,1.5,1.6,2.2s1.3,1.3,2.2,1.8c-.2.2-.4.4-.7.7s-.4.5-.5.8c-.9-.7-1.7-1.4-2.3-2.1s-1.2-1.6-1.7-2.5c-.5-.9-.8-1.9-1.2-3-.3-1.1-.6-2.4-.8-3.8l1.6-.3ZM273.4,74.2l1.6.9c-.4.5-.8,1-1.2,1.5-.4.5-.8,1-1.2,1.5-.4.5-.8.9-1.1,1.3l-1.3-.8c.3-.4.7-.8,1.1-1.3.4-.5.8-1,1.2-1.6s.7-1,1-1.5ZM270.9,69.3l1.1-1c.4.3.9.6,1.3,1,.5.4.8.7,1.1,1l-1.1,1.1c-.2-.3-.6-.7-1-1.1s-.9-.8-1.3-1.1Z"/>
                <path class="cls-26" d="M280.1,74.4l1.1.5c-.2.7-.4,1.4-.7,2.2-.3.8-.6,1.5-.9,2.3-.3.7-.7,1.4-1,2.1-.4.7-.8,1.2-1.1,1.7,0-.3-.2-.6-.4-.9-.2-.3-.4-.6-.5-.8.4-.4.7-.9,1.1-1.4.3-.6.7-1.1,1-1.8.3-.6.6-1.3.9-1.9.3-.7.5-1.3.6-1.9ZM276.8,73.7h7.9v1.8h-7.9v-1.8ZM283.4,68.3l1.1,1.5c-.6.2-1.4.5-2.1.7-.8.2-1.6.4-2.4.5-.8.1-1.6.3-2.4.4,0-.2,0-.4-.2-.7-.1-.3-.2-.5-.3-.7.8-.1,1.5-.3,2.3-.4.8-.2,1.5-.4,2.2-.6s1.3-.4,1.8-.7ZM280,69.9h1.8v16.8h-1.8v-16.8ZM281.8,75.7c.1.1.3.3.6.6.3.3.6.6.9,1,.3.4.6.7.8,1,.2.3.4.5.5.7l-1.1,1.5c-.1-.3-.3-.6-.5-.9-.2-.4-.4-.8-.7-1.2-.3-.4-.5-.8-.7-1.1s-.4-.6-.6-.8l.9-.8ZM284.4,81.1l10.7-1.8.3,1.8-10.7,1.8-.3-1.8ZM285.1,75.7l1.2-1.1c.4.3.8.6,1.3.9s.9.7,1.2,1,.7.7.9.9l-1.3,1.2c-.2-.3-.5-.6-.9-1-.4-.4-.8-.7-1.2-1.1-.4-.4-.9-.7-1.3-1ZM285.9,70.5l1.2-1.1c.4.3.8.5,1.2.9.4.3.8.7,1.2,1,.4.3.6.6.9.9l-1.3,1.2c-.2-.3-.5-.6-.8-1s-.7-.7-1.1-1-.8-.7-1.2-.9ZM291,68.1h1.9v18.6h-1.9v-18.6Z"/>
                <path class="cls-26" d="M297,81.3h18v1.5h-18v-1.5ZM297.4,75.3h17.3v3.9h-1.9v-2.5h-13.6v2.5h-1.8v-3.9ZM302.5,68.3l.8,1.1c-.6.2-1.3.4-2,.6-.8.2-1.5.3-2,.4l-.7-1.1c.4,0,.8-.2,1.3-.3.5-.1,1-.2,1.4-.4s.9-.3,1.2-.4ZM298.6,69.3l1.8.5.4,6.2h-1.8l-.4-6.7ZM299.5,71h3.7v1.2h-3.7v-1.2ZM299.6,73.1h3.7v1.2h-3.7v-1.2ZM300.8,77.8h9.2v1.4h-9.2v-1.4ZM305.3,80.6h1.9v4.2c0,.5,0,.8-.2,1-.1.2-.4.4-.7.6-.4.1-.8.2-1.4.2-.5,0-1.2,0-2,0,0-.2-.1-.5-.2-.8-.1-.3-.2-.6-.4-.8.4,0,.8,0,1.1,0,.4,0,.7,0,.9,0h.5c.2,0,.3,0,.3,0,0,0,0-.1,0-.3v-4.2ZM306.9,71.6l1.3.4c-.5.7-1.1,1.3-1.8,1.8s-1.4,1.1-2.2,1.5c0-.1-.2-.3-.5-.5-.2-.2-.4-.4-.5-.5.7-.3,1.4-.7,2.1-1.2.7-.5,1.2-1,1.6-1.5ZM306.9,68.3l1.3.4c-.4.6-1,1.2-1.7,1.7s-1.4,1-2,1.4c-.1-.1-.3-.3-.5-.5s-.4-.3-.6-.4c.7-.3,1.4-.7,2-1.2.6-.4,1.1-.9,1.5-1.4ZM303.7,72.6l.9-.8c.5.2.9.5,1.4.7.5.3.9.6,1.4.9.4.3.8.6,1.1.8l-1,.9c-.3-.3-.6-.5-1-.8s-.9-.6-1.3-.9c-.5-.3-.9-.6-1.4-.8ZM303.8,69.3l.9-.8c.4.2.9.4,1.3.7.5.3.9.5,1.3.8s.8.5,1,.8l-.9.9c-.3-.2-.6-.5-1-.8-.4-.3-.8-.6-1.3-.8-.5-.3-.9-.5-1.3-.7ZM309.5,77.8h.9c0,0,1.1.9,1.1.9-.5.4-1,.7-1.6,1.1-.6.3-1.2.7-1.8,1-.6.3-1.2.6-1.8.8-.1-.2-.2-.3-.4-.5-.2-.2-.3-.3-.5-.5.5-.2,1-.4,1.6-.7s1-.6,1.5-.9.8-.6,1.1-.8v-.3ZM308.7,68.8h3.8v1.2h-3.8v-1.2ZM308.8,73.1h3.5v1.2h-3.5v-1.2ZM308.9,71h3.5v1.2h-3.5v-1.2ZM311.8,68.8h1.8c0,.8,0,1.6-.1,2.5,0,.9-.1,1.7-.2,2.6,0,.8-.1,1.5-.2,2.1h-1.8c0-.6.2-1.4.2-2.2,0-.8.1-1.7.2-2.6,0-.9,0-1.7.1-2.5Z"/>
                <path class="cls-26" d="M317,81.3h18v1.5h-18v-1.5ZM317.4,75.3h17.3v3.9h-1.9v-2.5h-13.6v2.5h-1.8v-3.9ZM322.5,68.3l.8,1.1c-.6.2-1.3.4-2,.6-.8.2-1.5.3-2,.4l-.7-1.1c.4,0,.8-.2,1.3-.3.5-.1,1-.2,1.4-.4s.9-.3,1.2-.4ZM318.6,69.3l1.8.5.4,6.2h-1.8l-.4-6.7ZM319.5,71h3.7v1.2h-3.7v-1.2ZM319.6,73.1h3.7v1.2h-3.7v-1.2ZM320.8,77.8h9.2v1.4h-9.2v-1.4ZM325.3,80.6h1.9v4.2c0,.5,0,.8-.2,1-.1.2-.4.4-.7.6-.4.1-.8.2-1.4.2-.5,0-1.2,0-2,0,0-.2-.1-.5-.2-.8-.1-.3-.2-.6-.4-.8.4,0,.8,0,1.1,0,.4,0,.7,0,.9,0h.5c.2,0,.3,0,.3,0,0,0,0-.1,0-.3v-4.2ZM326.9,71.6l1.3.4c-.5.7-1.1,1.3-1.8,1.8s-1.4,1.1-2.2,1.5c0-.1-.2-.3-.5-.5-.2-.2-.4-.4-.5-.5.7-.3,1.4-.7,2.1-1.2.7-.5,1.2-1,1.6-1.5ZM326.9,68.3l1.3.4c-.4.6-1,1.2-1.7,1.7s-1.4,1-2,1.4c-.1-.1-.3-.3-.5-.5s-.4-.3-.6-.4c.7-.3,1.4-.7,2-1.2.6-.4,1.1-.9,1.5-1.4ZM323.7,72.6l.9-.8c.5.2.9.5,1.4.7.5.3.9.6,1.4.9.4.3.8.6,1.1.8l-1,.9c-.3-.3-.6-.5-1-.8s-.9-.6-1.3-.9c-.5-.3-.9-.6-1.4-.8ZM323.8,69.3l.9-.8c.4.2.9.4,1.3.7.5.3.9.5,1.3.8s.8.5,1,.8l-.9.9c-.3-.2-.6-.5-1-.8-.4-.3-.8-.6-1.3-.8-.5-.3-.9-.5-1.3-.7ZM329.5,77.8h.9c0,0,1.1.9,1.1.9-.5.4-1,.7-1.6,1.1-.6.3-1.2.7-1.8,1-.6.3-1.2.6-1.8.8-.1-.2-.2-.3-.4-.5-.2-.2-.3-.3-.5-.5.5-.2,1-.4,1.6-.7s1-.6,1.5-.9.8-.6,1.1-.8v-.3ZM328.7,68.8h3.8v1.2h-3.8v-1.2ZM328.8,73.1h3.5v1.2h-3.5v-1.2ZM328.9,71h3.5v1.2h-3.5v-1.2ZM331.8,68.8h1.8c0,.8,0,1.6-.1,2.5,0,.9-.1,1.7-.2,2.6,0,.8-.1,1.5-.2,2.1h-1.8c0-.6.2-1.4.2-2.2,0-.8.1-1.7.2-2.6,0-.9,0-1.7.1-2.5Z"/>
                <path class="cls-26" d="M339,74.5l1.2.4c-.3.7-.6,1.3-1.1,2s-.9,1.2-1.4,1.6c-.1-.2-.3-.4-.5-.7-.2-.2-.4-.4-.6-.6.3-.2.6-.4,1-.7.3-.3.6-.6.9-1,.3-.4.5-.7.7-1ZM340.4,78.1h1.6v2.1c0,.5,0,1.1-.1,1.7s-.3,1.2-.6,1.7c-.3.6-.7,1.1-1.3,1.6-.6.5-1.4,1-2.4,1.4,0-.1-.2-.3-.3-.5-.1-.2-.2-.3-.4-.5-.1-.2-.3-.3-.4-.4.9-.3,1.5-.7,2-1.1s.9-.8,1.1-1.3c.3-.4.4-.9.5-1.3s.1-.9.1-1.3v-2ZM336.9,72.5h8.7v1.5h-8.7v-1.5ZM336.9,79.8h8.8v1.6h-8.8v-1.6ZM337.3,69.3l1.3-.5c.2.4.5.8.7,1.2.2.4.4.8.4,1.2l-1.4.6c0-.3-.2-.7-.4-1.2s-.4-.9-.7-1.3ZM340.5,68.2h1.7v9.4h-1.7v-9.4ZM340.5,83.1l1-1.2c.4.2.9.5,1.3.8.5.3.9.6,1.4.9.4.3.8.6,1.1.8l-1,1.3c-.3-.2-.6-.5-1-.8-.4-.3-.9-.6-1.4-1-.5-.3-.9-.6-1.3-.9ZM343.2,74.6c.1,0,.3.2.6.4.3.2.5.4.8.6.3.2.5.4.8.6s.4.3.5.4l-1,1.2c-.1-.2-.3-.4-.5-.6-.2-.2-.5-.5-.7-.7s-.5-.5-.7-.7c-.2-.2-.4-.4-.6-.5l1-.7ZM342.7,78.5l1.1-.7c.3.2.5.5.8.8.3.3.5.6.6.8l-1.1.8c-.1-.2-.3-.5-.6-.8-.3-.3-.5-.6-.8-.8ZM343.8,68.9l1.6.4c-.2.5-.5.9-.7,1.4s-.5.8-.7,1.2l-1.2-.4c.2-.4.4-.8.6-1.3.2-.5.4-.9.5-1.3ZM348.5,83.1l1.6,1c-.3.3-.7.7-1.1,1s-.9.7-1.3,1-.9.5-1.4.8c-.1-.2-.3-.4-.6-.6-.2-.2-.5-.4-.7-.6.4-.2.9-.4,1.3-.7.4-.3.8-.6,1.2-.9s.7-.6.9-.9ZM345.8,69h9.4v1.6h-9.4v-1.6ZM346.5,72.3h8v10.5h-8v-10.5ZM348.2,73.7v1.6h4.5v-1.6h-4.5ZM348.2,76.7v1.6h4.5v-1.6h-4.5ZM348.2,79.7v1.7h4.5v-1.7h-4.5ZM349.4,69.9l2.1.3c-.2.6-.4,1.2-.6,1.8s-.4,1.1-.6,1.5l-1.6-.3c0-.3.2-.6.3-1,0-.4.2-.8.3-1.1,0-.4.1-.7.2-1ZM350.8,84l1.4-.9c.4.2.8.5,1.2.8s.8.6,1.2.9.7.6,1,.8l-1.5,1c-.2-.2-.5-.5-.9-.8-.4-.3-.8-.6-1.2-1-.4-.3-.8-.6-1.2-.9Z"/>
              </g>
            </g>
          </g>
        </g>
        <g id="_圖層_1-3" data-name="_圖層_1">
          <g id="_圖層_1-2-5" data-name="_圖層_1-2">
            <g class="cls-3">
              <g id="_圖層_1-2-6" data-name="_圖層_1-2">
                <g>
                  <path class="cls-29" d="M378.2,91.2h0c1.6,0,2.8-1.3,2.8-2.8v-.9h1.8v.9c0,1.6,1.3,2.8,2.8,2.8h0c.4,0,.8.3.8.7.1.5-.3,1-.8,1h-7.6c-.5,0-.9-.5-.8-1,0-.4.4-.7.8-.7h0,0Z"/>
                  <polygon class="cls-29" points="374.8 62.6 390.1 85.9 391 85.2 375.8 61.9 374.8 62.6"/>
                  <g>
                    <circle class="cls-43" cx="383" cy="73.9" r="11.9"/>
                    <path class="cls-36" d="M373.3,67c.5,0,5.9-.9,6.9,2,1,3,3.5,2.5,2.6,5.6-.9,3.1-3.2,4.9-6.2,4.5-3.4-.5,3.1,4.6.5,5.2-5.7-3.1-8.1-11-3.8-17.2h0Z"/>
                    <path class="cls-36" d="M389.5,63.9s-5.2-.3-5.4,1.6c-.2,1.9,1.1,1.6,2.8,2.7s2.5.2,3.5,1.9c1,1.7,4.1.8,4.1.8,0,0-.7-4.1-5-6.9h0Z"/>
                    <path class="cls-36" d="M394.7,76s-3.8-.8-5.2,1.9c-1.4,2.7-2.5,1.6-3.4,2.8-.3.3-.2.8,0,1.2.6,1.8,2.8,2.5,4.4,1.4,1.6-1.1,3.4-3.2,4.3-7.3h0Z"/>
                    <path class="cls-4" d="M372.8,79.9c3.3,5.7,10.6,7.6,16.3,4.3-12.6-.8-16.2-12.4-12-20.5-5.7,3.3-7.6,10.6-4.3,16.3h0Z"/>
                  </g>
                  <path class="cls-29" d="M383.1,87.8c-3.8,0-7.3-1.5-10-4.1-2.7-2.7-4.1-6.2-4.1-10s.8-5.4,2.3-7.7c1.4-2.2,3.5-4,5.9-5.1.2,0,.4,0,.5.2s0,.4-.2.5c-4.7,2.2-7.7,7-7.7,12.2,0,7.4,6,13.4,13.4,13.4,6.2,0,8.6-3.3,9.6-4,.1-.1.3-.1.5,0,.1.1.1.3,0,.5-1.3,1.3-2.8,2.4-4.5,3.1-1.8.8-3.6,1.1-5.6,1.1h0s0,0,0,0Z"/>
                </g>
              </g>
            </g>
          </g>
        </g>
      </g>
      <g id="b48">
        <g id="g-root-ro_1hgxukcmje0ay-fill">
          <g id="ro_1hgxukcmje0ay-fill">
            <path class="cls-19" d="M700.6,224h125.8s12.6,0,12.6,12v30s0,12-12.6,12h-125.8s-12.6,0-12.6-12v-30s0-12,12.6-12"/>
          </g>
        </g>
        <g id="g-root-tx__1urrvukmje1vs-fill">
          <g id="tx__1urrvukmje1vs-fill">
            <g class="cls-3">
              <g class="cls-3">
                <path class="cls-26" d="M750,242.2l1.8.6c-.5,1.1-1.1,2.3-1.7,3.4s-1.4,2.2-2.1,3.1c-.8,1-1.5,1.8-2.3,2.6,0-.1-.1-.3-.3-.6s-.3-.5-.4-.7c-.1-.2-.3-.4-.4-.6.7-.6,1.4-1.4,2.1-2.2.7-.8,1.3-1.7,1.9-2.7.6-1,1.1-1.9,1.5-2.9ZM747.9,247.3l1.8-1.8h0v15.1h-1.8v-13.4ZM753.6,242.5h1.8v14.6c0,.4,0,.7,0,.8,0,.2.2.3.4.4s.4.1.8.1h3.3c.4,0,.7-.1.8-.4s.3-.7.4-1.3c0-.6.1-1.5.2-2.6.2.2.5.3.8.5.3.2.6.3.9.3,0,1.3-.2,2.3-.4,3s-.5,1.3-.9,1.6c-.4.3-1,.5-1.8.5h-3.6c-.7,0-1.3,0-1.7-.3-.4-.2-.7-.5-.9-1s-.2-1.1-.2-1.9v-14.5ZM754.7,247.8h7.8v1.8h-7.8v-1.8Z"/>
                <path class="cls-26" d="M765,255.3h18v1.5h-18v-1.5ZM765.4,249.3h17.3v3.9h-1.9v-2.5h-13.6v2.5h-1.8v-3.9ZM770.5,242.3l.8,1.1c-.6.2-1.3.4-2,.6-.8.2-1.5.3-2,.4l-.7-1.1c.4,0,.8-.2,1.3-.3.5-.1,1-.2,1.4-.4s.9-.3,1.2-.4ZM766.6,243.3l1.8.5.4,6.2h-1.8l-.4-6.7ZM767.5,245h3.7v1.2h-3.7v-1.2ZM767.6,247.1h3.7v1.2h-3.7v-1.2ZM768.8,251.8h9.2v1.4h-9.2v-1.4ZM773.3,254.6h1.9v4.2c0,.5,0,.8-.2,1-.1.2-.4.4-.7.6-.4.1-.8.2-1.4.2-.5,0-1.2,0-2,0,0-.2-.1-.5-.2-.8-.1-.3-.2-.6-.4-.8.4,0,.8,0,1.1,0,.4,0,.7,0,.9,0h.5c.2,0,.3,0,.3,0,0,0,0-.1,0-.3v-4.2ZM774.9,245.6l1.3.4c-.5.7-1.1,1.3-1.8,1.8s-1.4,1.1-2.2,1.5c0-.1-.2-.3-.5-.5-.2-.2-.4-.4-.5-.5.7-.3,1.4-.7,2.1-1.2.7-.5,1.2-1,1.6-1.5ZM774.9,242.3l1.3.4c-.4.6-1,1.2-1.7,1.7s-1.4,1-2,1.4c-.1-.1-.3-.3-.5-.5s-.4-.3-.6-.4c.7-.3,1.4-.7,2-1.2.6-.4,1.1-.9,1.5-1.4ZM771.7,246.6l.9-.8c.5.2.9.5,1.4.7.5.3.9.6,1.4.9.4.3.8.6,1.1.8l-1,.9c-.3-.3-.6-.5-1-.8s-.9-.6-1.3-.9c-.5-.3-.9-.6-1.4-.8ZM771.8,243.3l.9-.8c.4.2.9.4,1.3.7.5.3.9.5,1.3.8s.8.5,1,.8l-.9.9c-.3-.2-.6-.5-1-.8-.4-.3-.8-.6-1.3-.8-.5-.3-.9-.5-1.3-.7ZM777.5,251.8h.9c0,0,1.1.9,1.1.9-.5.4-1,.7-1.6,1.1-.6.3-1.2.7-1.8,1-.6.3-1.2.6-1.8.8-.1-.2-.2-.3-.4-.5-.2-.2-.3-.3-.5-.5.5-.2,1-.4,1.6-.7s1-.6,1.5-.9.8-.6,1.1-.8v-.3ZM776.7,242.8h3.8v1.2h-3.8v-1.2ZM776.8,247.1h3.5v1.2h-3.5v-1.2ZM776.9,245h3.5v1.2h-3.5v-1.2ZM779.8,242.8h1.8c0,.8,0,1.6-.1,2.5,0,.9-.1,1.7-.2,2.6,0,.8-.1,1.5-.2,2.1h-1.8c0-.6.2-1.4.2-2.2,0-.8.1-1.7.2-2.6,0-.9,0-1.7.1-2.5Z"/>
                <path class="cls-26" d="M785,255.3h18v1.5h-18v-1.5ZM785.4,249.3h17.3v3.9h-1.9v-2.5h-13.6v2.5h-1.8v-3.9ZM790.5,242.3l.8,1.1c-.6.2-1.3.4-2,.6-.8.2-1.5.3-2,.4l-.7-1.1c.4,0,.8-.2,1.3-.3.5-.1,1-.2,1.4-.4s.9-.3,1.2-.4ZM786.6,243.3l1.8.5.4,6.2h-1.8l-.4-6.7ZM787.5,245h3.7v1.2h-3.7v-1.2ZM787.6,247.1h3.7v1.2h-3.7v-1.2ZM788.8,251.8h9.2v1.4h-9.2v-1.4ZM793.3,254.6h1.9v4.2c0,.5,0,.8-.2,1-.1.2-.4.4-.7.6-.4.1-.8.2-1.4.2-.5,0-1.2,0-2,0,0-.2-.1-.5-.2-.8-.1-.3-.2-.6-.4-.8.4,0,.8,0,1.1,0,.4,0,.7,0,.9,0h.5c.2,0,.3,0,.3,0,0,0,0-.1,0-.3v-4.2ZM794.9,245.6l1.3.4c-.5.7-1.1,1.3-1.8,1.8s-1.4,1.1-2.2,1.5c0-.1-.2-.3-.5-.5-.2-.2-.4-.4-.5-.5.7-.3,1.4-.7,2.1-1.2.7-.5,1.2-1,1.6-1.5ZM794.9,242.3l1.3.4c-.4.6-1,1.2-1.7,1.7s-1.4,1-2,1.4c-.1-.1-.3-.3-.5-.5s-.4-.3-.6-.4c.7-.3,1.4-.7,2-1.2.6-.4,1.1-.9,1.5-1.4ZM791.7,246.6l.9-.8c.5.2.9.5,1.4.7.5.3.9.6,1.4.9.4.3.8.6,1.1.8l-1,.9c-.3-.3-.6-.5-1-.8s-.9-.6-1.3-.9c-.5-.3-.9-.6-1.4-.8ZM791.8,243.3l.9-.8c.4.2.9.4,1.3.7.5.3.9.5,1.3.8s.8.5,1,.8l-.9.9c-.3-.2-.6-.5-1-.8-.4-.3-.8-.6-1.3-.8-.5-.3-.9-.5-1.3-.7ZM797.5,251.8h.9c0,0,1.1.9,1.1.9-.5.4-1,.7-1.6,1.1-.6.3-1.2.7-1.8,1-.6.3-1.2.6-1.8.8-.1-.2-.2-.3-.4-.5-.2-.2-.3-.3-.5-.5.5-.2,1-.4,1.6-.7s1-.6,1.5-.9.8-.6,1.1-.8v-.3ZM796.7,242.8h3.8v1.2h-3.8v-1.2ZM796.8,247.1h3.5v1.2h-3.5v-1.2ZM796.9,245h3.5v1.2h-3.5v-1.2ZM799.8,242.8h1.8c0,.8,0,1.6-.1,2.5,0,.9-.1,1.7-.2,2.6,0,.8-.1,1.5-.2,2.1h-1.8c0-.6.2-1.4.2-2.2,0-.8.1-1.7.2-2.6,0-.9,0-1.7.1-2.5Z"/>
                <path class="cls-26" d="M807,248.5l1.2.4c-.3.7-.6,1.3-1.1,2s-.9,1.2-1.4,1.6c-.1-.2-.3-.4-.5-.7-.2-.2-.4-.4-.6-.6.3-.2.6-.4,1-.7.3-.3.6-.6.9-1,.3-.4.5-.7.7-1ZM808.4,252.1h1.6v2.1c0,.5,0,1.1-.1,1.7s-.3,1.2-.6,1.7c-.3.6-.7,1.1-1.3,1.6-.6.5-1.4,1-2.4,1.4,0-.1-.2-.3-.3-.5-.1-.2-.2-.3-.4-.5-.1-.2-.3-.3-.4-.4.9-.3,1.5-.7,2-1.1s.9-.8,1.1-1.3c.3-.4.4-.9.5-1.3s.1-.9.1-1.3v-2ZM804.9,246.5h8.7v1.5h-8.7v-1.5ZM804.9,253.8h8.8v1.6h-8.8v-1.6ZM805.3,243.3l1.3-.5c.2.4.5.8.7,1.2.2.4.4.8.4,1.2l-1.4.6c0-.3-.2-.7-.4-1.2s-.4-.9-.7-1.3ZM808.5,242.2h1.7v9.4h-1.7v-9.4ZM808.5,257.1l1-1.2c.4.2.9.5,1.3.8.5.3.9.6,1.4.9.4.3.8.6,1.1.8l-1,1.3c-.3-.2-.6-.5-1-.8-.4-.3-.9-.6-1.4-1-.5-.3-.9-.6-1.3-.9ZM811.2,248.6c.1,0,.3.2.6.4.3.2.5.4.8.6.3.2.5.4.8.6s.4.3.5.4l-1,1.2c-.1-.2-.3-.4-.5-.6-.2-.2-.5-.5-.7-.7s-.5-.5-.7-.7c-.2-.2-.4-.4-.6-.5l1-.7ZM810.7,252.5l1.1-.7c.3.2.5.5.8.8.3.3.5.6.6.8l-1.1.8c-.1-.2-.3-.5-.6-.8-.3-.3-.5-.6-.8-.8ZM811.8,242.9l1.6.4c-.2.5-.5.9-.7,1.4s-.5.8-.7,1.2l-1.2-.4c.2-.4.4-.8.6-1.3.2-.5.4-.9.5-1.3ZM816.5,257.1l1.6,1c-.3.3-.7.7-1.1,1s-.9.7-1.3,1-.9.5-1.4.8c-.1-.2-.3-.4-.6-.6-.2-.2-.5-.4-.7-.6.4-.2.9-.4,1.3-.7.4-.3.8-.6,1.2-.9s.7-.6.9-.9ZM813.8,243h9.4v1.6h-9.4v-1.6ZM814.5,246.3h8v10.5h-8v-10.5ZM816.2,247.7v1.6h4.5v-1.6h-4.5ZM816.2,250.7v1.6h4.5v-1.6h-4.5ZM816.2,253.7v1.7h4.5v-1.7h-4.5ZM817.4,243.9l2.1.3c-.2.6-.4,1.2-.6,1.8s-.4,1.1-.6,1.5l-1.6-.3c0-.3.2-.6.3-1,0-.4.2-.8.3-1.1,0-.4.1-.7.2-1ZM818.8,258l1.4-.9c.4.2.8.5,1.2.8s.8.6,1.2.9.7.6,1,.8l-1.5,1c-.2-.2-.5-.5-.9-.8-.4-.3-.8-.6-1.2-1-.4-.3-.8-.6-1.2-.9Z"/>
              </g>
            </g>
          </g>
        </g>
        <g id="_圖層_1-4" data-name="_圖層_1">
          <g id="_圖層_1-2-7" data-name="_圖層_1-2">
            <g id="_圖層_1-2-8" data-name="_圖層_1-2">
              <g>
                <g>
                  <g>
                    <polygon class="cls-30" points="700.6 263.6 706.8 251.9 713.4 251.9 719.7 263.6 700.6 263.6"/>
                    <path class="cls-30" d="M718.6,265.4h-16.9c-1,0-1.6-1.1-1-1.9,1.5-2,5.1-3.5,9.4-3.5s8,1.5,9.5,3.5c.6.8,0,1.9-1,1.9h0s0,0,0,0h0Z"/>
                    <rect class="cls-30" x="706.8" y="245" width="6.6" height="8.1"/>
                    <path class="cls-34" d="M715.3,263.6c1,0,1.6-1.1,1.2-2l-3.9-7.8h-4.8l-3.9,7.8c-.5.9.2,2,1.2,2h10.2,0Z"/>
                    <path class="cls-5" d="M705.2,262.6h0c-.3-.1-.4-.5-.3-.8l2.3-5c.1-.3.5-.4.8-.3h0c.3.1.4.5.3.8l-2.3,5c-.1.3-.5.4-.8.3Z"/>
                  </g>
                  <circle class="cls-26" cx="711" cy="242.7" r="1.1"/>
                  <circle class="cls-26" cx="707.3" cy="240.6" r="1.5"/>
                  <circle class="cls-26" cx="711" cy="237.9" r="1.5"/>
                  <path class="cls-30" d="M713.8,246h-7.2c-.5,0-.8-.4-.8-.8h0c0-.5.4-.8.8-.8h7.2c.5,0,.8.4.8.8h0c0,.5-.4.8-.8.8Z"/>
                </g>
                <g>
                  <path class="cls-28" d="M729.7,249.1h-1v-6.8c0-2.2-1.8-3.9-3.9-3.9s-3.9,1.8-3.9,3.9v1h-1v-1c0-1.3.5-2.6,1.4-3.5s2.2-1.4,3.5-1.4,2.6.5,3.5,1.4c.9.9,1.4,2.2,1.4,3.5v6.8h0Z"/>
                  <g>
                    <g>
                      <g>
                        <path class="cls-26" d="M717,243.5h6.8c.6,0,1.1.5,1.1,1.1h0c0,.6-.5,1.1-1.1,1.1h-6.8c-.6,0-1.1-.5-1.1-1.1h0c0-.6.5-1.1,1.1-1.1h0Z"/>
                        <path class="cls-26" d="M717.3,245.7v17.7c0,1.7,1.3,3,3,3h.2c1.7,0,3.1-1.4,3.1-3.1v-17.6s-6.2,0-6.2,0h0Z"/>
                      </g>
                      <path class="cls-36" d="M718.4,254.6v7.9c0,1.2.8,2.2,1.9,2.2h.1c1,0,1.9-1,1.9-2.3v-7.8s-3.9,0-3.9,0h0Z"/>
                    </g>
                    <path class="cls-22" d="M719.4,252.2h-2.1s0,0,0,0,0,0,0,0h2.1s0,0,0,0,0,0,0,0Z"/>
                    <path class="cls-22" d="M718.8,250.6h-1.5s0,0,0,0,0,0,0,0h1.5s0,0,0,0,0,0,0,0Z"/>
                    <path class="cls-22" d="M719.4,249h-2.1s0,0,0,0,0,0,0,0h2.1s0,0,0,0,0,0,0,0Z"/>
                    <path class="cls-22" d="M719.4,245.8h-2.1s0,0,0,0,0,0,0,0h2.1s0,0,0,0,0,0,0,0Z"/>
                    <path class="cls-22" d="M718.8,247.4h-1.5s0,0,0,0,0,0,0,0h1.5s0,0,0,0,0,0,0,0Z"/>
                  </g>
                  <g>
                    <g>
                      <g>
                        <path class="cls-36" d="M726.8,249.2h4.9c.4,0,.8.4.8.8h0c0,.4-.4.8-.8.8h-4.9c-.4,0-.8-.4-.8-.8h0c0-.4.4-.8.8-.8Z"/>
                        <path class="cls-36" d="M727,250.8v12.7c0,1.2.9,2.2,2.2,2.2h.1c1.2,0,2.2-1,2.2-2.2v-12.6s-4.5,0-4.5,0h0Z"/>
                      </g>
                      <path class="cls-26" d="M727.8,258.3v4.5c0,.9.6,1.6,1.3,1.6h0c.7,0,1.4-.7,1.4-1.6v-4.5s-2.8,0-2.8,0h0Z"/>
                    </g>
                    <path class="cls-26" d="M728.6,250.8h-1.6s0,0,0,0,0,0,0,0h1.6s0,0,0,0,0,0,0,0Z"/>
                  </g>
                </g>
              </g>
            </g>
          </g>
        </g>
      </g>
      <g id="a16">
        <g id="g-root-ro_de6zukmjcnig-stroke">
          <g id="ro_de6zukmjcnig-stroke">
            <path class="cls-31" d="M483.9,107h132s24,0,24,28.6v92.9s0,28.6-24,28.6h-132s-24,0-24-28.6v-92.9s0-28.6,24-28.6"/>
          </g>
        </g>
        <g>
          <g id="g-root-tx__1hby1vgmjclxi-fill">
            <g id="tx__1hby1vgmjclxi-fill">
              <g class="cls-3">
                <g class="cls-3">
                  <path class="cls-47" d="M493,206.8h14.1v15.8h-2v-14h-10.2v14.1h-1.9v-15.9ZM494.2,211.2h11.3v1.8h-11.3v-1.8ZM494.2,215.5h11.3v1.8h-11.3v-1.8ZM494.2,219.8h11.3v1.8h-11.3v-1.8ZM498.7,204.1l2.3.3c-.2.6-.5,1.2-.7,1.8s-.5,1.1-.7,1.6l-1.7-.3c.1-.3.2-.7.4-1.1.1-.4.2-.8.3-1.2.1-.4.2-.8.2-1.1Z"/>
                  <path class="cls-47" d="M513.1,218.1l1.8.5c-.3.7-.8,1.4-1.2,2.2s-.9,1.4-1.3,2l-1.8-.7c.3-.3.6-.7.9-1.1.3-.4.6-.9.9-1.4s.5-.9.8-1.4ZM514.7,203.9l1.8.5c-.4.9-.8,1.8-1.3,2.7-.5.9-1.1,1.8-1.7,2.6s-1.3,1.5-2.1,2.1c0-.2-.1-.3-.2-.5s-.2-.4-.3-.6-.2-.4-.3-.5c.6-.5,1.2-1.1,1.7-1.8s1-1.4,1.4-2.2c.4-.8.7-1.5,1-2.2ZM518.6,205.9h.7c0,0,1.2.4,1.2.4-.4,2-1,3.7-1.8,5.2-.8,1.5-1.7,2.7-2.8,3.7s-2.3,1.8-3.6,2.4c0-.1-.2-.3-.4-.5-.2-.2-.3-.4-.5-.5-.2-.2-.3-.3-.5-.4,1.3-.5,2.4-1.2,3.5-2.1s1.9-2,2.6-3.3c.7-1.3,1.2-2.8,1.6-4.5v-.4ZM511,212.4c.5-.1,1.2-.3,1.9-.5.7-.2,1.5-.4,2.2-.6l.2,1.2c-.7.2-1.3.5-2,.7-.7.2-1.3.4-1.9.6l-.4-1.5ZM513.6,208.7l.9-1c.4.3.8.5,1.3.9.5.3.9.7,1.3,1,.4.3.7.6,1,.9l-.9,1.2c-.2-.3-.6-.6-1-.9-.4-.3-.8-.7-1.3-1s-.9-.6-1.3-.9ZM515.2,205.9h4v1.5h-5l1-1.5ZM516.6,218.8l1.7-.2c.1.6.2,1.2.3,1.9,0,.7.1,1.3.2,1.8l-1.9.3c0-.3,0-.7,0-1.1,0-.4,0-.9-.1-1.3,0-.5-.1-.9-.2-1.3ZM523,204.4h1.8v2.4c0,.8,0,1.7-.2,2.6-.1.9-.4,1.9-.7,2.9-.4,1-.9,2-1.6,2.9s-1.7,1.8-2.9,2.6c-.2-.2-.4-.4-.6-.6-.3-.2-.5-.4-.8-.6,1.1-.8,2.1-1.6,2.7-2.5.7-.9,1.2-1.7,1.5-2.6.3-.9.6-1.7.7-2.5.1-.8.2-1.6.2-2.2v-2.4ZM520,208.2h9v1.8h-9v-1.8ZM520.7,218.7l1.7-.3c.2.4.4.8.5,1.3.2.5.3.9.4,1.3.1.4.2.8.3,1.1l-1.9.4c0-.5-.2-1.1-.4-1.8-.2-.7-.4-1.4-.7-2ZM523.4,210.1l1.6-.7c.4.6.8,1.2,1.2,1.8.4.6.8,1.3,1.2,1.9s.7,1.3,1,1.9c.3.6.6,1.1.8,1.6l-1.7.8c-.2-.5-.4-1-.7-1.6-.3-.6-.6-1.2-1-1.9-.4-.7-.8-1.3-1.2-2s-.8-1.3-1.2-1.9ZM524.8,218.6l1.7-.7c.3.4.7.8,1,1.3.3.5.6,1,.9,1.4.3.5.5.9.7,1.2l-1.8.8c-.2-.4-.4-.8-.7-1.2-.3-.5-.6-1-.9-1.5-.3-.5-.7-1-1-1.4ZM525.2,205.2l1.4-.8c.4.4.8.8,1.2,1.3.4.5.7.9.9,1.3l-1.5.9c-.2-.4-.4-.8-.8-1.3-.4-.5-.8-1-1.1-1.4Z"/>
                  <path class="cls-47" d="M534,210.4l1.1.5c-.2.7-.4,1.4-.7,2.2-.3.8-.6,1.5-.9,2.3-.3.7-.7,1.4-1,2.1-.4.7-.8,1.2-1.1,1.7,0-.3-.2-.6-.4-.9-.2-.3-.4-.6-.5-.8.4-.4.7-.9,1.1-1.4.3-.6.7-1.1,1-1.8.3-.6.6-1.3.9-1.9.3-.7.5-1.3.6-1.9ZM530.6,209.7h7.9v1.8h-7.9v-1.8ZM537.2,204.3l1.1,1.5c-.6.2-1.4.5-2.1.7-.8.2-1.6.4-2.4.5-.8.1-1.6.3-2.4.4,0-.2,0-.4-.2-.7-.1-.3-.2-.5-.3-.7.8-.1,1.5-.3,2.3-.4.8-.2,1.5-.4,2.2-.6s1.3-.4,1.8-.7ZM533.9,205.9h1.8v16.8h-1.8v-16.8ZM535.6,211.7c.1.1.3.3.6.6.3.3.6.6.9,1,.3.4.6.7.8,1,.2.3.4.5.5.7l-1.1,1.5c-.1-.3-.3-.6-.5-.9-.2-.4-.4-.8-.7-1.2-.3-.4-.5-.8-.7-1.1s-.4-.6-.6-.8l.9-.8ZM538.2,217.1l10.7-1.8.3,1.8-10.7,1.8-.3-1.8ZM539,211.7l1.2-1.1c.4.3.8.6,1.3.9s.9.7,1.2,1,.7.7.9.9l-1.3,1.2c-.2-.3-.5-.6-.9-1-.4-.4-.8-.7-1.2-1.1-.4-.4-.9-.7-1.3-1ZM539.7,206.5l1.2-1.1c.4.3.8.5,1.2.9.4.3.8.7,1.2,1,.4.3.6.6.9.9l-1.3,1.2c-.2-.3-.5-.6-.8-1s-.7-.7-1.1-1-.8-.7-1.2-.9ZM544.9,204.1h1.9v18.6h-1.9v-18.6Z"/>
                  <path class="cls-47" d="M550.9,217.3h18v1.5h-18v-1.5ZM551.3,211.3h17.3v3.9h-1.9v-2.5h-13.6v2.5h-1.8v-3.9ZM556.4,204.3l.8,1.1c-.6.2-1.3.4-2,.6-.8.2-1.5.3-2,.4l-.7-1.1c.4,0,.8-.2,1.3-.3.5-.1,1-.2,1.4-.4s.9-.3,1.2-.4ZM552.4,205.3l1.8.5.4,6.2h-1.8l-.4-6.7ZM553.4,207h3.7v1.2h-3.7v-1.2ZM553.5,209.1h3.7v1.2h-3.7v-1.2ZM554.7,213.8h9.2v1.4h-9.2v-1.4ZM559.1,216.6h1.9v4.2c0,.5,0,.8-.2,1-.1.2-.4.4-.7.6-.4.1-.8.2-1.4.2-.5,0-1.2,0-2,0,0-.2-.1-.5-.2-.8-.1-.3-.2-.6-.4-.8.4,0,.8,0,1.1,0,.4,0,.7,0,.9,0h.5c.2,0,.3,0,.3,0,0,0,0-.1,0-.3v-4.2ZM560.8,207.6l1.3.4c-.5.7-1.1,1.3-1.8,1.8s-1.4,1.1-2.2,1.5c0-.1-.2-.3-.5-.5-.2-.2-.4-.4-.5-.5.7-.3,1.4-.7,2.1-1.2.7-.5,1.2-1,1.6-1.5ZM560.7,204.3l1.3.4c-.4.6-1,1.2-1.7,1.7s-1.4,1-2,1.4c-.1-.1-.3-.3-.5-.5s-.4-.3-.6-.4c.7-.3,1.4-.7,2-1.2.6-.4,1.1-.9,1.5-1.4ZM557.5,208.6l.9-.8c.5.2.9.5,1.4.7.5.3.9.6,1.4.9.4.3.8.6,1.1.8l-1,.9c-.3-.3-.6-.5-1-.8s-.9-.6-1.3-.9c-.5-.3-.9-.6-1.4-.8ZM557.6,205.3l.9-.8c.4.2.9.4,1.3.7.5.3.9.5,1.3.8s.8.5,1,.8l-.9.9c-.3-.2-.6-.5-1-.8-.4-.3-.8-.6-1.3-.8-.5-.3-.9-.5-1.3-.7ZM563.3,213.8h.9c0,0,1.1.9,1.1.9-.5.4-1,.7-1.6,1.1-.6.3-1.2.7-1.8,1-.6.3-1.2.6-1.8.8-.1-.2-.2-.3-.4-.5-.2-.2-.3-.3-.5-.5.5-.2,1-.4,1.6-.7s1-.6,1.5-.9.8-.6,1.1-.8v-.3ZM562.6,204.8h3.8v1.2h-3.8v-1.2ZM562.6,209.1h3.5v1.2h-3.5v-1.2ZM562.7,207h3.5v1.2h-3.5v-1.2ZM565.6,204.8h1.8c0,.8,0,1.6-.1,2.5,0,.9-.1,1.7-.2,2.6,0,.8-.1,1.5-.2,2.1h-1.8c0-.6.2-1.4.2-2.2,0-.8.1-1.7.2-2.6,0-.9,0-1.7.1-2.5Z"/>
                  <path class="cls-47" d="M570.9,217.3h18v1.5h-18v-1.5ZM571.3,211.3h17.3v3.9h-1.9v-2.5h-13.6v2.5h-1.8v-3.9ZM576.4,204.3l.8,1.1c-.6.2-1.3.4-2,.6-.8.2-1.5.3-2,.4l-.7-1.1c.4,0,.8-.2,1.3-.3.5-.1,1-.2,1.4-.4s.9-.3,1.2-.4ZM572.4,205.3l1.8.5.4,6.2h-1.8l-.4-6.7ZM573.4,207h3.7v1.2h-3.7v-1.2ZM573.5,209.1h3.7v1.2h-3.7v-1.2ZM574.7,213.8h9.2v1.4h-9.2v-1.4ZM579.1,216.6h1.9v4.2c0,.5,0,.8-.2,1-.1.2-.4.4-.7.6-.4.1-.8.2-1.4.2-.5,0-1.2,0-2,0,0-.2-.1-.5-.2-.8-.1-.3-.2-.6-.4-.8.4,0,.8,0,1.1,0,.4,0,.7,0,.9,0h.5c.2,0,.3,0,.3,0,0,0,0-.1,0-.3v-4.2ZM580.8,207.6l1.3.4c-.5.7-1.1,1.3-1.8,1.8s-1.4,1.1-2.2,1.5c0-.1-.2-.3-.5-.5-.2-.2-.4-.4-.5-.5.7-.3,1.4-.7,2.1-1.2.7-.5,1.2-1,1.6-1.5ZM580.7,204.3l1.3.4c-.4.6-1,1.2-1.7,1.7s-1.4,1-2,1.4c-.1-.1-.3-.3-.5-.5s-.4-.3-.6-.4c.7-.3,1.4-.7,2-1.2.6-.4,1.1-.9,1.5-1.4ZM577.5,208.6l.9-.8c.5.2.9.5,1.4.7.5.3.9.6,1.4.9.4.3.8.6,1.1.8l-1,.9c-.3-.3-.6-.5-1-.8s-.9-.6-1.3-.9c-.5-.3-.9-.6-1.4-.8ZM577.6,205.3l.9-.8c.4.2.9.4,1.3.7.5.3.9.5,1.3.8s.8.5,1,.8l-.9.9c-.3-.2-.6-.5-1-.8-.4-.3-.8-.6-1.3-.8-.5-.3-.9-.5-1.3-.7ZM583.3,213.8h.9c0,0,1.1.9,1.1.9-.5.4-1,.7-1.6,1.1-.6.3-1.2.7-1.8,1-.6.3-1.2.6-1.8.8-.1-.2-.2-.3-.4-.5-.2-.2-.3-.3-.5-.5.5-.2,1-.4,1.6-.7s1-.6,1.5-.9.8-.6,1.1-.8v-.3ZM582.6,204.8h3.8v1.2h-3.8v-1.2ZM582.6,209.1h3.5v1.2h-3.5v-1.2ZM582.7,207h3.5v1.2h-3.5v-1.2ZM585.6,204.8h1.8c0,.8,0,1.6-.1,2.5,0,.9-.1,1.7-.2,2.6,0,.8-.1,1.5-.2,2.1h-1.8c0-.6.2-1.4.2-2.2,0-.8.1-1.7.2-2.6,0-.9,0-1.7.1-2.5Z"/>
                  <path class="cls-47" d="M591.6,205h1.9v17.7h-1.9v-17.7ZM592.5,208h5.3v1.4h-5.3v-1.4ZM592.7,205h6.3v7.5h-6.3v-1.5h4.5v-4.4h-4.5v-1.6ZM607.3,205v1.6h-4.9v4.4h4.9v1.6h-6.7v-7.6h6.7ZM601.7,208h5.4v1.4h-5.4v-1.4ZM606.3,205h1.9v15.3c0,.6,0,1-.2,1.4-.1.3-.4.5-.8.7s-.9.3-1.5.3c-.6,0-1.4,0-2.4,0,0-.2,0-.4-.1-.6,0-.2-.2-.5-.2-.7,0-.2-.2-.5-.3-.6.4,0,.9,0,1.3,0s.8,0,1.2,0h.7c.2,0,.3,0,.4-.1s.1-.2.1-.4v-15.2Z"/>
                </g>
              </g>
            </g>
          </g>
          <g id="_圖層_1-5" data-name="_圖層_1">
            <g id="_圖層_1-2-9" data-name="_圖層_1-2">
              <path class="cls-6" d="M564.5,193.6h-28.8c-1.7,0-3-1.3-3-3v-48.2c0-1.4,1.2-2.6,2.6-2.6h29.2c1.2,0,2.1,1,2.1,2.1v49.5c0,1.2-1,2.1-2.1,2.1h0Z"/>
              <path class="cls-26" d="M562.6,193.6h-8.2v-53.8h8.6c.7,0,1.3.6,1.3,1.3v50.9c0,.9-.7,1.6-1.6,1.6h0Z"/>
              <path class="cls-6" d="M555.8,193.6h-20.4c-1.4,0-2.6-1.1-2.6-2.6v-49c0-1.2,1-2.2,2.2-2.2h20.7c1,0,1.8.8,1.8,1.8v50.1c0,1-.8,1.8-1.8,1.8h0Z"/>
              <path class="cls-7" d="M562.3,191.3s0,0,0,0v-49.1s0,0,0,0,0,0,0,0v49.1s0,0,0,0Z"/>
              <path class="cls-36" d="M526.1,139.9h.2l.8.7v52.8l-.6.3c-1.5,0-2.8-1.4-2.8-3.1v-48.1c0-1.5,1.1-2.6,2.4-2.6h0,0Z"/>
              <path class="cls-43" d="M526.1,139.9h.2l.8.7v11.6h-3.4v-9.6c0-1.5,1.1-2.6,2.4-2.6h0,0Z"/>
              <path class="cls-36" d="M527.1,140.5l1.1-.7h25.5c1.1,0,2,1,2,2.2v49.4c0,1.2-.9,2.2-2,2.2h-25.7l-.9-.3v-52.8h0s0,0,0,0Z"/>
              <rect class="cls-45" x="562.4" y="151.6" width="6.1" height="2"/>
              <rect class="cls-44" x="559.9" y="146.9" width="6.1" height="2"/>
              <polygon class="cls-13" points="567.3 186 559.6 185.3 559.7 162.9 569.1 163.6 567.3 186"/>
              <path class="cls-14" d="M565.6,168l-6.4-.5c-.2,0-.3-.2-.3-.3h0c0-.2.2-.3.3-.3l6.4.5c.2,0,.3.2.3.3h0c0,.2-.2.3-.3.3Z"/>
              <path class="cls-14" d="M565.4,170.1l-6.4-.5c-.2,0-.3-.2-.3-.3h0c0-.2.2-.3.3-.3l6.4.5c.2,0,.3.2.3.3h0c0,.2-.2.3-.3.3Z"/>
              <path class="cls-7" d="M560,191.4s0,0,0,0v-49.1s0,0,0,0,0,0,0,0v49.1s0,0,0,0Z"/>
              <path class="cls-39" d="M526.7,191.6c0,0-.1,0-.1-.1v-51c0,0,0-.1.1-.1s.1,0,.1.1v51c0,0,0,.1-.1.1Z"/>
              <g>
                <g>
                  <polygon class="cls-30" points="505.1 193 512.3 179.3 520.1 179.3 527.4 193 505.1 193"/>
                  <path class="cls-30" d="M526.1,195.1h-19.8c-1.2,0-1.8-1.3-1.1-2.3,1.7-2.4,6-4,11-4s9.4,1.7,11.1,4.1c.6.9,0,2.2-1.2,2.2h0Z"/>
                  <rect class="cls-30" x="512.3" y="171.3" width="7.8" height="9.5"/>
                  <path class="cls-34" d="M522.2,193c1.2,0,1.9-1.2,1.4-2.3l-4.6-9.1h-5.6l-4.6,9.1c-.5,1,.2,2.3,1.4,2.3h11.9Z"/>
                  <path class="cls-5" d="M510.5,191.9h0c-.3-.2-.5-.6-.3-.9l2.7-5.8c.2-.3.6-.5.9-.3h0c.3.2.5.6.3.9l-2.7,5.8c-.2.3-.6.5-.9.3Z"/>
                </g>
                <circle class="cls-26" cx="517.2" cy="167.1" r="1.3"/>
                <circle class="cls-26" cx="512.9" cy="164.1" r="1.7"/>
                <circle class="cls-26" cx="517.2" cy="161" r="1.7"/>
                <path class="cls-30" d="M520.4,172.4h-8.4c-.5,0-1-.4-1-1h0c0-.5.4-1,1-1h8.4c.5,0,1,.4,1,1h0c0,.5-.4,1-1,1Z"/>
              </g>
              <circle class="cls-43" cx="541.4" cy="166.6" r="11"/>
              <path class="cls-26" d="M541.3,171.9s0,0,0,0l-4.9-2.8s0,0,0-.1v-5.7c0,0,0-.1,0-.1l4.9-2.8s.1,0,.1,0l4.9,2.8s0,0,0,.1v5.7c0,0,0,.1,0,.1l-4.9,2.8s0,0,0,0ZM536.5,168.8l4.8,2.8,4.8-2.8v-5.5l-4.8-2.8-4.8,2.8v5.5ZM546.2,168.9h0,0Z"/>
              <path class="cls-26" d="M541.3,174.3c0,0-.1,0-.1-.1v-2.4c0,0,0-.1.1-.1s.1,0,.1.1v2.4c0,0,0,.1-.1.1Z"/>
              <path class="cls-26" d="M536.4,163.5s0,0,0,0l-1.9-1.4c0,0,0-.1,0-.2,0,0,.1,0,.2,0l1.9,1.4c0,0,0,.1,0,.2,0,0,0,0-.1,0Z"/>
              <circle class="cls-26" cx="541.3" cy="174.7" r=".9"/>
              <circle class="cls-26" cx="533.9" cy="161.6" r=".9"/>
              <path class="cls-26" d="M546.2,163.5s0,0-.1,0c0,0,0-.2,0-.2l2-1.4c0,0,.2,0,.2,0,0,0,0,.2,0,.2l-2,1.4s0,0,0,0Z"/>
              <circle class="cls-26" cx="548.6" cy="161.6" r=".9"/>
              <path class="cls-26" d="M548.3,170.3s0,0,0,0l-2-1.3c0,0,0-.1,0-.2,0,0,.1,0,.2,0l2,1.3c0,0,0,.1,0,.2,0,0,0,0-.1,0Z"/>
              <path class="cls-26" d="M548.5,169.7c-.5.2-.7.7-.5,1.1s.7.7,1.1.5.7-.7.5-1.1-.7-.7-1.1-.5Z"/>
              <g>
                <g>
                  <path class="cls-26" d="M530.9,196.3h-.1c-1.4,0-2.5-1.1-2.5-2.5v-13.4c0-1.4,1.2-2.5,2.5-2.5h.1c1.4,0,2.5,1.1,2.5,2.5v13.4c0,1.4-1.2,2.5-2.5,2.5h0Z"/>
                  <path class="cls-6" d="M530.9,195h0c-.8,0-1.5-.8-1.5-1.8v-9.8c0-1,.7-1.8,1.6-1.8h0c.8,0,1.5.8,1.5,1.8v9.8c0,1-.7,1.8-1.6,1.8h0Z"/>
                </g>
                <path class="cls-26" d="M528.1,177.7h5.5c.5,0,.9.4.9.9h0c0,.5-.4.9-.9.9h-5.5c-.5,0-.9-.4-.9-.9h0c0-.5.4-.9.9-.9Z"/>
              </g>
              <path class="cls-43" d="M549.5,187.1h-5.3c-.3,0-.5-.2-.5-.5h0c0-.3.2-.5.5-.5h5.3c.3,0,.5.2.5.5h0c0,.3-.2.5-.5.5Z"/>
              <g>
                <path class="cls-27" d="M576.4,163.3c-1.9-.9-2.7-1.3-4.6-2.2l-.5.9c3.5,2.4,3.2,3.2,5,3.4,1.4-1.3.6-1.8.2-2.1h0Z"/>
                <path class="cls-17" d="M582.8,156.5s-1.3.4-2.5.9c-.7.3-1.5.8-2,1.5-1.3,1.8-3.3,4.7-3.4,5.3,0,.6,2.8.2,2.8.2l4.3-3.2.8-4.6h0Z"/>
                <path class="cls-24" d="M571.9,162.9l-1.4-.9c-.2-.1-.3-.3-.4-.5l-.2-.8c0-.3.2-.6.5-.6h0l1.1.8c.2.2.4.5.5.8v.5c.1,0,0,.7,0,.7h0Z"/>
                <path class="cls-35" d="M577.7,164.4s-1.8,1.7-2.6,1.3c-1.2-.7-3.5-2.8-3.5-2.8l1.4-1.7,3.2,1.9,1.5,1.3h0Z"/>
                <g>
                  <path class="cls-10" d="M590.5,164.9c1-.2,2,.2,2.4,1.5l.8,6.3-1.2-.4-1.3-4.6-.7-2.8h0Z"/>
                  <path class="cls-24" d="M592.5,172.4l.5,1c0,.2.3.4.5.5l.8.4c.3.1.6,0,.6-.4h0l-.7-1.3c-.2-.3-.4-.5-.7-.6l-.5-.2-.4.6h0s0,0,0,0h0Z"/>
                  <path class="cls-17" d="M586.2,157c1.5.3,6.4,7.5,6.5,8.2.1.8,1.1,5.3,1.1,5.3l-2.3.3s-1.3-3.7-1.6-4-3.9-6.2-3.9-6.2v-3.4h0Z"/>
                </g>
                <path class="cls-10" d="M582.5,195s1.8-8.3.4-11.6l1.6-11.2-5.3.4,1.7,22.5h1.5Z"/>
                <path class="cls-20" d="M580.9,194.6l-.8.8c-.2.2-1.4.6-1.4.6h0c-.1.2,0,.4.3.4h3.3c0,0,.8-.2.2-1.7-.6.3-1.5.5-1.6,0h0Z"/>
                <path class="cls-9" d="M579.3,174.1l1,19.2h3.8s-.2-1.7-.2-2.2.6-5.5-.5-7.8l.7-9.4-5,.2h0s0,0,0,0Z"/>
                <path class="cls-11" d="M583.5,183.3l.7-9.4h-1.8c0,0-.5,7-.5,7,0,1.3,0,2.6.2,3.8.5,2.5.1,6,0,6.4,0,.5.2,2.2.2,2.2h1.8s-.2-1.7-.2-2.2.6-5.5-.5-7.8h0Z"/>
                <path class="cls-9" d="M586.8,166.6l-7.2.5c-1.2.4-.3,7.1-.3,7.1l4.4.3c2.2,0,4.8,1.7,5.1-2,.3-4.2-1.9-5.9-1.9-5.9h0Z"/>
                <path class="cls-24" d="M589.3,192.3h0c0,1-.1,1.4,0,2.3-.4,0-.6.7-1,.7-.1,0,0-.5,0-.6l-.9-2.4h2.1s0,0,0,0h0Z"/>
                <path class="cls-23" d="M582.6,169.8c1.3,7.9,2.5,15.8,4.1,23.7,1.2-.2,3.3-.1,3.3-.1,0,0-.3-1.4-.3-1.6-.3-4.8.1-5.5-.6-9.2-.5-5.4-.3-9.1-1.1-13.4-1.9.2-3.5.5-5.4.7h0s0,0,0,0h0Z"/>
                <path class="cls-8" d="M588,194.5s-.3.9-.3,1.5,0,.2.2.3.2.1.3.1c.2,0,.5,0,.7,0,0,0,.2,0,.3,0h.1c.2-.4.1-.6,0-.9-.1-.4-.2-.8-.2-.8-.6-.4-1.1-.1-1.1-.1h0,0Z"/>
                <path class="cls-35" d="M578.6,166.9c0-1.1.1-5.6,0-6.7,0-1.8.6-1.3.8-2,.3-.7,1.8,1.2,2.2.5.3-.5.7-1.5,1.2-1.7l1.1-.6s2.1.3,3,1.2c.6.6.5,1.3.9,2.9.7,3,1.1,7,1.2,8.7,0,.4-.3.8-.7.9l-5.3.6c-1.2.2-4.5-.7-4.7-1.9l.2-1.8h0Z"/>
                <path class="cls-10" d="M584.4,156.4s-.9,2.1-1.6,2.1-.2-1.8-.2-1.8l1.2-.5h.6q0,.1,0,.1Z"/>
                <polygon class="cls-24" points="582.5 155.4 582.7 157.2 584.4 156.5 583.6 154.5 582.5 155.4"/>
                <polygon class="cls-12" points="582.5 155.8 582.6 156.5 583.2 155.4 582.5 155.8"/>
                <path class="cls-24" d="M582.5,152.9s-.9.7-.9,2.1c0,1.4,1.6.9,2,.8s1.7-2.4.4-2.7-1.5-.2-1.5-.2h0Z"/>
                <path class="cls-15" d="M583.9,155.6c.8,0,1.3-.9,1.1-1.7,0-.3-.1-.5-.2-.6-.5-.7-1.3-1.2-2.3-.7,0,0,0,1.5,1.3,2.9h.1,0Z"/>
                <path class="cls-10" d="M583.4,154.9c-.2.2-.4.2-.6,0-.2-.1-.2-.4,0-.6.2-.2.4-.2.6,0s.2.4,0,.6Z"/>
                <path class="cls-29" d="M582.7,154.7h0c.1,0,.3,0,.3-.2l.2-.7c0-.1,0-.3-.2-.3h0c-.1,0-.3,0-.3.2l-.2.7c0,.1,0,.3.2.3Z"/>
                <path class="cls-10" d="M581.8,154s-.2.2-.5.4c-.1,0,0,.4.2.4.2,0,.5-.5.5-.5l-.2-.3h0Z"/>
                <path class="cls-1" d="M588.5,164.3s0,0,0,0l-2.4-3.2s0,0,0,0c0,0,0,0,0,0l2.4,3.2s0,0,0,0c0,0,0,0,0,0Z"/>
                <path class="cls-1" d="M578.8,163.1s0,0,0,0c0,0,0,0,0,0,0-.3,0-.5,0-.7,0-.6,0-1,.2-1.7,0,0,0,0,0,0,0,0,0,0,0,0-.1.7-.2,1.1-.2,1.7,0,.2,0,.5,0,.7,0,0,0,0,0,0Z"/>
                <path class="cls-14" d="M581.7,154.9h.3c0,.1-.1.5-.4.3,0,0,0-.3,0-.3h0Z"/>
                <g>
                  <path class="cls-46" d="M573.5,161.4l-.9,2.1-2.9-4.1.8-2.4c0,0,.2-.1.2,0l2.8,4.4h0Z"/>
                  <path class="cls-37" d="M571.4,156.7l1.3,2-1.6.6s-1.1,0-1.1,0,1.4-2.6,1.4-2.6h0Z"/>
                  <path class="cls-26" d="M575.3,158.5l-.4-.6c-1.1,0-2.3.3-3.5.9-1.2.5-1.4.6-1.4.6h.4c0,0,4.8-1,4.8-1h0Z"/>
                  <path class="cls-26" d="M571.3,157.7c.1-.4.2-.8.1-1l-.8.3-.9,2.5h.3s.1,0,.1,0c.5-.4.9-1,1-1.7h0Z"/>
                  <path class="cls-46" d="M570,159.4h-.2c0,0-.1.1,0,.2l3.1,4.6c0,0,.1.1.2.1h.3c.2.1.3,0,.2-.2l-3-4.5c-.1-.2-.3-.3-.5-.2h0Z"/>
                  <path class="cls-40" d="M577.3,163.2l-3.7,1-3.2-4.8,4.4-1c.3,0,.6,0,.8.3l2.1,3.5c.2.4,0,.9-.4,1h0Z"/>
                </g>
              </g>
              <path class="cls-43" d="M553.7,139.9h-25.5l-1.1.7v11.6h28.6v-10c0-1.2-.9-2.2-2-2.2h0Z"/>
              <path class="cls-38" d="M552.9,144.8h-23.2c-.3,0-.5-.2-.5-.5h0c0-.3.2-.5.5-.5h23.2c.3,0,.5.2.5.5h0c0,.3-.2.5-.5.5Z"/>
              <path class="cls-38" d="M538.6,148.2h-8.5c-.3,0-.5-.2-.5-.5h0c0-.3.2-.5.5-.5h8.5c.3,0,.5.2.5.5h0c0,.3-.2.5-.5.5Z"/>
              <path class="cls-22" d="M520,172.5h-3.9s0,0,0,0,0,0,0,0h3.9s0,0,0,0,0,0,0,0Z"/>
              <path class="cls-22" d="M533.4,179.5h-2.4s0,0,0,0,0,0,0,0h2.4s0,0,0,0,0,0,0,0Z"/>
              <path class="cls-22" d="M526.1,195.2h-19.4c0-.1,0-.2,0-.2,0,0,0,0,0,0h19.4c0,.1,0,.2,0,.2,0,0,0,0,0,0Z"/>
            </g>
          </g>
        </g>
      </g>
    </g>
  </g>
</svg>