<?xml version="1.0" encoding="UTF-8"?>
<svg xmlns="http://www.w3.org/2000/svg" version="1.1" viewBox="0 0 1130 410">
  <defs>
    <style>
      .cls-1 {
        fill: #fcf0f0;
        stroke: #fd6a65;
      }

      .cls-1, .cls-2, .cls-3, .cls-4 {
        stroke-linejoin: round;
      }

      .cls-1, .cls-2, .cls-4 {
        stroke-linecap: round;
      }

      .cls-1, .cls-3, .cls-4 {
        stroke-width: 2px;
      }

      .cls-5, .cls-6 {
        fill: #b9c3f0;
      }

      .cls-7 {
        fill: #a36027;
      }

      .cls-8 {
        fill: #27427a;
      }

      .cls-9 {
        fill: #a0a8e0;
      }

      .cls-9, .cls-10, .cls-11, .cls-12, .cls-13, .cls-14, .cls-15, .cls-16, .cls-17, .cls-18, .cls-19, .cls-6, .cls-20, .cls-21, .cls-22 {
        fill-rule: evenodd;
      }

      .cls-10 {
        fill: #873b24;
      }

      .cls-23, .cls-12 {
        fill: #fff;
      }

      .cls-2 {
        stroke: #27427a;
        stroke-width: 2.2px;
      }

      .cls-2, .cls-3, .cls-4 {
        fill: none;
      }

      .cls-11 {
        fill: #a9b5eb;
      }

      .cls-13 {
        fill: #5c3420;
      }

      .cls-14 {
        fill: #e0cb15;
      }

      .cls-24 {
        fill: #646bad;
      }

      .cls-25 {
        fill: #2d4973;
      }

      .cls-26, .cls-17 {
        fill: #d3d7f5;
      }

      .cls-27 {
        fill: #707fdb;
      }

      .cls-28 {
        isolation: isolate;
      }

      .cls-29 {
        fill: #7781cc;
      }

      .cls-30 {
        fill: #e3e8f9;
      }

      .cls-31 {
        fill: #f9a066;
      }

      .cls-32 {
        fill: #c9cfed;
      }

      .cls-33 {
        fill: #717bc2;
      }

      .cls-15, .cls-34 {
        fill: #c95836;
      }

      .cls-16, .cls-35 {
        fill: #663a24;
      }

      .cls-36 {
        fill: #f2f4fc;
      }

      .cls-3, .cls-4 {
        stroke: #484848;
      }

      .cls-18 {
        fill: #ba5de5;
      }

      .cls-37, .cls-38 {
        fill: #484848;
      }

      .cls-19 {
        fill: #3cc583;
      }

      .cls-20 {
        fill: #633c1d;
      }

      .cls-21, .cls-39 {
        fill: #4a2a1a;
      }

      .cls-40 {
        fill: #dec7b8;
      }

      .cls-22 {
        fill: #172d59;
      }

      .cls-41 {
        fill: #5267eb;
      }

      .cls-42 {
        fill: #fd6a65;
      }

      .cls-4 {
        stroke-dasharray: 5 7;
      }

      .cls-38 {
        opacity: 0;
      }

      .cls-43 {
        fill: #7988e8;
      }
    </style>
  </defs>
  <!-- Generator: Adobe Illustrator 28.7.9, SVG Export Plug-In . SVG Version: 1.2.0 Build 218)  -->
  <g>
    <g id="_x32_0_x5F_建築及都市規劃">
      <g id="cn_qnsfh714kp1c5-stroke">
        <path class="cls-3" d="M565,238.1v36"/>
      </g>
      <g id="cu_18ego4tnwzci6-stroke">
        <path class="cls-4" d="M499,328v12c0,6.6,5.4,12,12,12h6"/>
      </g>
      <g id="g-root-cu_1haqbtcq5bl6s-stroke">
        <g id="cu_1haqbtcq5bl6s-stroke">
          <path class="cls-3" d="M486,125h-3.1c-11.5,0-20.9-9.4-20.9-20.9h0v-3.2c0-11.5-9.4-20.9-20.9-20.9h-3.1"/>
        </g>
      </g>
      <g id="g-root-cu_1haqbtcq5bl6s-stroke-2" data-name="g-root-cu_1haqbtcq5bl6s-stroke">
        <g id="cu_1haqbtcq5bl6s-stroke-2" data-name="cu_1haqbtcq5bl6s-stroke">
          <path class="cls-3" d="M643,125h3s0,0,0,0c11.5,0,20.9-9.4,20.9-20.9h0c0-.1,0-3.2,0-3.2,0-11.5,9.4-20.9,20.9-20.9h3.1"/>
        </g>
      </g>
      <g id="g-root-cu_1haqbtcq5bl6v-stroke">
        <g id="cu_1haqbtcq5bl6v-stroke">
          <path class="cls-4" d="M720,105v13.6c0,5.7,7,10.4,15.6,10.4h2.4"/>
        </g>
      </g>
      <g id="g-root-cu_1haqbtcq5bl6v-stroke-2" data-name="g-root-cu_1haqbtcq5bl6v-stroke">
        <g id="cu_1haqbtcq5bl6v-stroke-2" data-name="cu_1haqbtcq5bl6v-stroke">
          <path class="cls-4" d="M408,105v3s0,10.6,0,10.6c0,5.7-7,10.4-15.6,10.4h-2.4"/>
        </g>
      </g>
      <g id="c168">
        <g class="cls-28">
          <g class="cls-28">
            <path class="cls-37" d="M535.3,341.9l1.2.4c-1.1,2.5-2.5,4.6-4.3,6.5-1.7,1.9-3.7,3.4-5.9,4.6,0,0-.1-.2-.2-.3-.1-.1-.2-.3-.3-.4-.1-.1-.2-.2-.3-.3,2.2-1.1,4.1-2.5,5.8-4.3,1.7-1.8,3-3.8,4-6.2ZM525.9,347.4h10.4v1.2h-10.4v-1.2ZM526.8,343.7h7v1.2h-7v-1.2ZM529.3,350.6h5.2v1.1h-5.2v7.8h-1.2v-8.1l.7-.8h.5ZM528.8,353.8h5.8v1.1h-5.8v-1.1ZM528.9,357.2h5.7v1.2h-5.7v-1.2ZM530,341.5h1.2v6.7h-1.2v-6.7ZM534,350.6h1.3v8.6h-1.3v-8.6ZM537.1,342.4h6v1.3h-4.7v15.9h-1.3v-17.2ZM542.8,342.4h.5c0,0,1,.6,1,.6-.4.9-.9,2-1.4,3-.5,1.1-1,2.1-1.6,3,.7.6,1.3,1.2,1.7,1.8.4.6.7,1.1.8,1.6s.2,1,.2,1.5c0,.6,0,1.1-.2,1.6-.2.4-.4.8-.8,1-.3.2-.8.4-1.3.4-.3,0-.6,0-.9,0s-.7,0-1,0c0-.2,0-.4-.1-.7,0-.3-.2-.5-.3-.7.3,0,.7,0,1,0,.3,0,.6,0,.8,0,.2,0,.4,0,.5,0,.2,0,.3,0,.4-.2.3-.1.4-.4.5-.7,0-.3.1-.6.1-1,0-.7-.2-1.4-.6-2.1-.4-.8-1.2-1.6-2.3-2.5.3-.5.6-1.1.8-1.7.3-.6.5-1.1.8-1.7.3-.6.5-1.1.7-1.6.2-.5.4-1,.6-1.4v-.4Z"/>
            <path class="cls-37" d="M546,344.2h18v1.3h-18v-1.3ZM548.1,348.3h13.2v1.3h-11.9v7.4h-1.3v-8.7ZM554.2,341.3h1.4v18.4h-1.4v-18.4ZM560.7,348.3h1.4v6.9c0,.4,0,.7-.2.9-.1.2-.3.4-.6.5-.3.1-.7.2-1.3.2-.5,0-1.2,0-2,0,0-.2,0-.4-.2-.7,0-.2-.2-.5-.3-.6.4,0,.8,0,1.2,0,.4,0,.7,0,1,0,.3,0,.5,0,.6,0,.2,0,.3,0,.4,0s0-.1,0-.3v-6.9Z"/>
            <path class="cls-37" d="M569.3,341.5h1.3v6.9c0,.9,0,1.8-.1,2.8,0,1-.2,2-.5,3-.2,1-.6,1.9-1.1,2.8-.5.9-1.2,1.7-2.1,2.4,0,0-.2-.2-.2-.3-.1-.1-.2-.2-.3-.4-.1-.1-.2-.2-.3-.3.8-.6,1.5-1.4,2-2.2.5-.8.8-1.7,1-2.6s.3-1.8.4-2.7c0-.9,0-1.8,0-2.5v-6.9ZM565.9,349.3h7.9v1.3h-7.9v-1.3ZM566.3,344.7h7.1v1.2h-7.1v-1.2ZM570.2,351.7c.1.1.3.3.6.6.2.3.5.6.8.9.3.3.6.7.9,1,.3.3.6.6.8.9.2.3.4.5.5.6l-.9,1c-.2-.3-.4-.6-.7-1-.3-.4-.6-.8-1-1.2-.4-.4-.7-.8-1-1.2-.3-.4-.6-.7-.8-.9l.8-.7ZM576.3,352.8h1.3c0,.8-.2,1.5-.4,2.2-.2.7-.5,1.3-.8,1.9-.4.6-.8,1.1-1.4,1.5s-1.3.8-2.2,1.1c0-.2-.2-.3-.3-.5-.2-.2-.3-.3-.4-.5,1.1-.4,1.9-.8,2.5-1.4.6-.5,1-1.2,1.3-1.9.3-.7.4-1.6.5-2.5ZM574.6,342.1h8.5v11.1h-8.5v-11.1ZM575.8,343.3v2.1h6v-2.1h-6ZM575.8,346.5v2.1h6v-2.1h-6ZM575.8,349.8v2.2h6v-2.2h-6ZM579.4,352.6h1.3v5c0,.2,0,.4,0,.4,0,0,.2,0,.4,0h1.4c.2,0,.3,0,.4-.2,0-.1.1-.4.2-.8s0-1,0-1.8c0,0,.2.1.3.2s.3.1.4.2c.1,0,.3,0,.4.1,0,.9-.1,1.6-.2,2.1-.1.5-.3.8-.5,1-.2.2-.5.3-.9.3h-1.7c-.4,0-.8,0-1-.1-.2-.1-.4-.3-.5-.5,0-.3-.1-.6-.1-1v-5Z"/>
            <path class="cls-37" d="M585.8,358c.9,0,2,0,3.3-.1,1.2,0,2.6-.1,4-.2,1.4,0,2.9-.1,4.3-.2v1.1c-1.4,0-2.8.1-4.2.2-1.4,0-2.7.2-4,.2-1.2,0-2.3.1-3.3.2v-1.1ZM585.9,344.6h11.6v1h-11.6v-1ZM586,350.4h11.3v1h-11.3v-1ZM586.9,348.5h9.5v.9h-9.5v-.9ZM587.2,342.6h9v4.9h-9.1v-.9h7.9v-3.2h-7.8v-.9ZM587.2,352.3h8.9v4.4h-8.9v-4.4ZM588.3,353.1v1h6.6v-1h-6.6ZM588.3,354.8v1h6.6v-1h-6.6ZM590.9,341.3h1.2v9.7h-1.2v-9.7ZM591.1,352.6h1.2v3.8h-1.2v-3.8ZM598.2,343.7h1.3v11h-1.3v-11ZM602,341.7h1.3v16.2c0,.4,0,.8-.2,1-.1.2-.3.4-.6.5-.3.1-.7.2-1.1.2-.5,0-1.1,0-1.9,0,0-.2,0-.4-.2-.6,0-.2-.2-.5-.3-.7.6,0,1.1,0,1.6,0s.8,0,.9,0c.2,0,.3,0,.4-.1,0,0,.1-.2.1-.3v-16.2Z"/>
            <path class="cls-37" d="M606.1,354.5h17.9v1.2h-17.9v-1.2ZM606.5,348.5h17v3.6h-1.3v-2.5h-14.4v2.5h-1.3v-3.6ZM611.6,341.5l.6.8c-.6.2-1.2.4-2,.6-.7.1-1.4.3-2,.3l-.5-.8c.4,0,.8-.2,1.3-.3s.9-.2,1.4-.4.8-.2,1.2-.3ZM607.8,342.4l1.3.4.4,6.2h-1.3l-.4-6.6ZM608.5,344.2h3.6v1h-3.6v-1ZM608.6,346.3h3.6v1h-3.6v-1ZM609.8,351h9.6v1h-9.6v-1ZM614.5,353.6h1.3v4.6c0,.4,0,.6-.1.8-.1.2-.3.3-.6.4-.3,0-.7.1-1.2.2-.5,0-1.2,0-2,0,0-.2,0-.3-.2-.6,0-.2-.2-.4-.3-.6.4,0,.8,0,1.2,0s.7,0,1,0,.5,0,.6,0c.2,0,.3,0,.3,0,0,0,0-.1,0-.3v-4.5ZM616.1,344.9l1,.3c-.5.6-1.1,1.2-1.8,1.8-.7.6-1.4,1.1-2.2,1.5,0,0-.2-.2-.4-.4-.2-.2-.3-.3-.4-.4.7-.3,1.4-.7,2.1-1.2.7-.5,1.2-1,1.6-1.6ZM616,341.5l1,.3c-.5.6-1,1.2-1.7,1.8-.7.6-1.4,1-2,1.4,0,0-.2-.2-.4-.4-.2-.1-.3-.3-.4-.3.7-.3,1.3-.8,2-1.2.7-.5,1.2-1,1.6-1.5ZM612.7,345.7l.7-.6c.5.2.9.5,1.4.7s1,.6,1.4.9c.4.3.8.6,1.1.8l-.7.7c-.3-.3-.6-.6-1-.9-.4-.3-.9-.6-1.4-.9s-1-.6-1.4-.8ZM612.8,342.4l.7-.6c.5.2.9.4,1.4.7.5.3.9.5,1.4.8.4.3.8.5,1,.8l-.7.7c-.3-.2-.6-.5-1-.8-.4-.3-.9-.6-1.3-.8-.5-.3-.9-.5-1.4-.7ZM619,351h.6c0,0,.8.6.8.6-.5.4-1,.7-1.6,1-.6.3-1.2.6-1.8.9s-1.2.5-1.8.8c0-.1-.2-.2-.3-.4-.1-.1-.3-.2-.4-.3.5-.2,1.1-.4,1.6-.7.6-.3,1.1-.5,1.6-.8s.9-.6,1.2-.8v-.3ZM617.8,346.3h3.6v1h-3.6v-1ZM617.8,342.1h3.9v1h-3.9v-1ZM617.9,344.2h3.6v1h-3.6v-1ZM621.1,342.1h1.3c0,.8,0,1.6-.1,2.4s-.1,1.7-.2,2.5c0,.8-.1,1.5-.2,2.1h-1.3c0-.6.2-1.3.2-2.1s.1-1.6.2-2.5c0-.9,0-1.6.1-2.4Z"/>
            <path class="cls-37" d="M630.9,354l1.3.5c-.4.5-.8,1-1.3,1.6s-1,1-1.6,1.5-1.1.9-1.6,1.2c0,0-.2-.2-.3-.3-.1-.1-.3-.2-.4-.3-.1-.1-.3-.2-.4-.3.8-.5,1.6-1.1,2.4-1.8.8-.7,1.4-1.4,1.9-2.1ZM639.3,341.3l1,1.1c-.8.4-1.7.7-2.8,1.1-1,.3-2.1.7-3.3,1-1.2.3-2.3.6-3.5.8-1.2.3-2.4.5-3.5.7,0-.2,0-.4-.2-.6,0-.2-.2-.4-.2-.5,1.1-.2,2.3-.5,3.4-.7,1.2-.3,2.3-.5,3.4-.8s2.2-.6,3.1-.9c1-.3,1.8-.7,2.5-1ZM627.6,353.7c0-.1,0-.2,0-.4,0-.2-.1-.3-.2-.5,0-.2-.1-.3-.1-.4.3,0,.7-.1,1.1-.3.5-.2,1-.4,1.6-.7.3-.1.8-.4,1.5-.7.7-.3,1.4-.7,2.3-1.2s1.7-1,2.6-1.6c.9-.6,1.8-1.2,2.6-1.8l1,.9c-1.9,1.3-3.8,2.5-5.7,3.5-1.9,1-3.8,1.9-5.7,2.6h0c-.2.1-.4.2-.5.2-.1,0-.2.1-.4.2s-.1.1-.1.2ZM627.6,353.7v-1s.9-.5.9-.5l13.1-.9c0,.2,0,.4,0,.6v.6c-2,.1-3.8.3-5.2.4s-2.7.2-3.7.3-1.8.1-2.4.2-1.1.1-1.5.2-.6,0-.8.1c-.2,0-.3,0-.5.1ZM628.7,349.5c0,0,0-.2,0-.4,0-.2,0-.3-.1-.5s-.1-.3-.1-.4c.2,0,.5,0,.7-.2.3-.1.6-.2.9-.4.2-.1.6-.3,1.1-.7s1.1-.7,1.8-1.2c.6-.4,1.2-.9,1.8-1.4l1.2.8c-1,.8-2,1.5-3.1,2.1-1.1.6-2.1,1.2-3.1,1.6h0c-.2.1-.3.2-.5.2-.1,0-.2.1-.3.2,0,0-.1.1-.1.2ZM628.7,349.5v-1s.8-.4.8-.4l7.5-.4c0,.2,0,.3,0,.6,0,.2,0,.4,0,.5-1.4,0-2.5.2-3.4.2-.9,0-1.7.1-2.3.2s-1,0-1.4.1c-.3,0-.6,0-.7,0-.2,0-.3,0-.4.1ZM634.5,352.2h1.4v5.7c0,.4,0,.7-.2.9-.1.2-.3.4-.6.5-.3.1-.7.2-1.2.2s-1.1,0-1.9,0c0-.2-.1-.4-.2-.7-.1-.3-.2-.5-.3-.7.4,0,.8,0,1.2,0,.4,0,.7,0,.9,0,.3,0,.4,0,.5,0,.2,0,.3,0,.3,0,0,0,0-.1,0-.2v-5.7ZM637.8,354.6l1-.7c.5.4,1.1.9,1.7,1.3.6.5,1.1,1,1.7,1.4.5.5,1,.9,1.3,1.3l-1.1.8c-.3-.4-.7-.8-1.2-1.3-.5-.5-1.1-1-1.6-1.5s-1.1-1-1.7-1.4ZM638.4,349.3l1.1-.5c.5.5,1,.9,1.5,1.5.5.5,1,1.1,1.5,1.6.5.5.8,1,1.1,1.4l-1.1.7c-.3-.4-.6-.9-1.1-1.4s-.9-1.1-1.5-1.6c-.5-.5-1-1.1-1.5-1.5Z"/>
          </g>
        </g>
        <rect class="cls-38" x="525" y="341" width="119" height="19"/>
      </g>
      <g id="c167">
        <g class="cls-28">
          <g class="cls-28">
            <path class="cls-37" d="M752.9,132.8l1.2.5c-.4.4-1,.7-1.6,1.1-.6.4-1.2.7-1.8,1-.6.3-1.2.6-1.8.8,0,0-.2-.2-.3-.3-.1-.1-.2-.2-.4-.4-.1-.1-.2-.2-.3-.3.6-.2,1.2-.4,1.8-.7.6-.3,1.2-.6,1.7-.9.5-.3,1-.6,1.4-.9ZM748.1,125.9h17.7v1.1h-17.7v-1.1ZM750.4,119h13.1v5.5h-13.1v-5.5ZM750.9,128.1h12.3v4.1h-12.3v-4.1ZM751.7,120v1.3h10.5v-1.3h-10.5ZM751.7,122.2v1.4h10.5v-1.4h-10.5ZM752.2,129.2v2h9.7v-2h-9.7ZM756.3,131.6h1.3v3.7c0,.3,0,.6-.2.8,0,.2-.3.3-.6.4-.3,0-.6.1-1.1.2-.5,0-1.1,0-1.8,0,0-.2,0-.3-.2-.5,0-.2-.2-.4-.3-.5.4,0,.7,0,1,0,.3,0,.6,0,.8,0,.2,0,.4,0,.5,0,.1,0,.2,0,.3,0,0,0,0-.1,0-.2v-3.6ZM755.7,124.9l1.2-.4c.2.3.4.6.6.9s.3.6.4.9l-1.2.5c0-.3-.2-.5-.4-.9-.2-.3-.4-.6-.6-.9ZM759.5,133.7l.8-.8c.6.2,1.3.4,1.9.8.7.3,1.3.6,1.9.9.6.3,1.1.6,1.5.9l-.9.9c-.4-.3-.9-.6-1.5-.9s-1.2-.6-1.9-1c-.7-.3-1.3-.6-1.9-.8Z"/>
            <path class="cls-37" d="M770.4,125.9l1,.3c-.2.6-.5,1.2-.8,1.8-.3.6-.7,1.2-1.1,1.7-.4.5-.8,1-1.1,1.4,0,0,0-.2-.2-.3,0-.1-.2-.2-.3-.3,0-.1-.2-.2-.2-.3.5-.5,1.1-1.2,1.5-1.9.5-.8.9-1.5,1.2-2.4ZM767.8,119.6h3.5v1.1h-3.5v-1.1ZM768.6,122.3h3.6v3.5h-3.6v-3.5ZM769.5,123.1v1.8h1.8v-1.8h-1.8ZM770.5,127.5h6.6v1h-6.6v8.1h-1.1v-8l1-1.1h.1ZM770.2,134.5h7v1h-7v-1ZM770.3,129.8h6.4v1h-6.4v-1ZM770.3,132.1h6.5v1h-6.5v-1ZM770.7,118.3h1.1v3.6h-1.1v-3.6ZM772.7,126.4l.9-.4c.2.3.4.6.5.9.2.3.3.6.4.8l-.9.5c0-.3-.2-.5-.4-.9-.2-.3-.3-.6-.5-.9ZM773.2,128.1h1.1v6.6h-1.1v-6.6ZM773.3,122.3h3.7v3.5h-3.7v-3.5ZM773.8,118.3h1.1v3.6h-1.1v-3.6ZM774.2,123.1v1.8h1.9v-1.8h-1.9ZM774.3,119.6h3.3v1.1h-3.3v-1.1ZM779.9,129.6h1.2c0,1.1-.2,2-.5,2.9s-.6,1.7-1.1,2.4-1.2,1.3-2.1,1.7c0-.2-.2-.3-.4-.5-.2-.2-.3-.4-.4-.5.8-.4,1.4-.9,1.9-1.5.4-.6.8-1.3,1-2s.3-1.6.4-2.5ZM778,119.1h7.4v11.1h-7.4v-11.1ZM779.2,120.3v2.1h5v-2.1h-5ZM779.2,123.5v2.1h5v-2.1h-5ZM779.2,126.7v2.2h5v-2.2h-5ZM782.4,129.6h1.1v5.2c0,.2,0,.3,0,.4,0,0,.1,0,.3,0h.8c.1,0,.2,0,.3-.2s.1-.4.1-.8c0-.4,0-1,0-1.8.1.1.3.2.5.3.2,0,.4.2.6.2,0,.9,0,1.6-.2,2.1,0,.5-.2.8-.4,1-.2.2-.4.3-.8.3h-1.1c-.4,0-.6,0-.8-.1-.2-.1-.3-.3-.4-.5,0-.2-.1-.6-.1-1v-5.2Z"/>
            <path class="cls-37" d="M788,121.7h7.6v1.1h-7.6v-1.1ZM788.8,129.6h1.2v6.8h-1.2v-6.8ZM788.8,124.3h5.9v1.1h-5.9v-1.1ZM788.8,126.9h5.9v1.1h-5.9v-1.1ZM789.4,129.6h5.3v5.8h-5.3v-1.1h4.1v-3.5h-4.1v-1.1ZM790.2,118.8l1-.5c.3.4.6.8.9,1.3.3.5.5.9.7,1.2l-1.1.6c-.2-.4-.4-.8-.7-1.3-.3-.5-.6-1-.8-1.4ZM803.7,127.2h.5c0,0,.8.3.8.3-.4,1.3-.9,2.4-1.6,3.4s-1.4,1.9-2.3,2.6c-.9.7-1.8,1.4-2.8,1.9-1,.5-2,1-3.1,1.3,0-.1-.1-.3-.2-.4s-.2-.3-.2-.4c0-.1-.2-.3-.3-.4,1-.3,2-.6,2.9-1.1.9-.5,1.8-1,2.6-1.7.8-.7,1.5-1.4,2.1-2.3.6-.9,1.1-1.9,1.4-2.9v-.2ZM797.3,119h1.2v2.2c0,.6,0,1.2-.2,1.8-.2.6-.4,1.3-.9,1.9-.4.6-1,1.1-1.8,1.6,0,0-.1-.2-.2-.3-.1-.1-.2-.3-.3-.4-.1-.1-.2-.2-.3-.3.7-.4,1.3-.9,1.6-1.4s.6-1,.7-1.5c.1-.5.2-1,.2-1.5v-2.2ZM795.4,127.2h8.8v1.3h-8.8v-1.3ZM797.4,128.3c.5,1.2,1.2,2.2,2,3.2.8,1,1.8,1.8,3,2.4,1.2.7,2.4,1.2,3.9,1.5,0,0-.2.2-.3.4-.1.1-.2.3-.3.4,0,.2-.2.3-.2.4-2.2-.6-4-1.5-5.6-2.9-1.6-1.4-2.8-3-3.6-5l1.1-.4ZM797.6,119h5.2v1.2h-5.2v-1.2ZM802.1,119h1.3v4.7c0,.3,0,.5,0,.6s.1.2.2.2h1.3c.1,0,.3,0,.4,0,.2,0,.3,0,.4,0,0,.2,0,.4,0,.6s0,.4,0,.6c-.1,0-.2,0-.4,0-.2,0-.4,0-.5,0h-1.4c-.4,0-.7,0-.9-.2-.2-.1-.4-.3-.4-.6,0-.3-.1-.7-.1-1.2v-4.7Z"/>
            <path class="cls-37" d="M808.3,121.7h8.3v1.1h-8.3v-1.1ZM809.2,124.3h6.5v1.1h-6.5v-1.1ZM809.2,126.9h6.5v1.1h-6.5v-1.1ZM809.4,129.6h1.2v6.8h-1.2v-6.8ZM809.9,129.6h5.8v5.8h-5.8v-1.1h4.6v-3.5h-4.6v-1.1ZM810.7,118.8l1.1-.5c.3.4.6.8.9,1.3.3.5.5.9.7,1.2l-1.1.6c-.2-.4-.4-.8-.7-1.3-.3-.5-.6-1-.8-1.4ZM816.5,125.3h9.6v1.3h-9.6v-1.3ZM820.5,118.7h1.4v18h-1.4v-18Z"/>
            <path class="cls-37" d="M828.1,131.5h17.9v1.2h-17.9v-1.2ZM828.5,125.5h17v3.6h-1.3v-2.5h-14.4v2.5h-1.3v-3.6ZM833.6,118.5l.6.8c-.6.2-1.2.4-2,.6-.7.1-1.4.3-2,.3l-.5-.8c.4,0,.8-.2,1.3-.3s.9-.2,1.4-.4.8-.2,1.2-.3ZM829.8,119.4l1.3.4.4,6.2h-1.3l-.4-6.6ZM830.5,121.2h3.6v1h-3.6v-1ZM830.6,123.3h3.6v1h-3.6v-1ZM831.8,128h9.6v1h-9.6v-1ZM836.5,130.6h1.3v4.6c0,.4,0,.6-.1.8-.1.2-.3.3-.6.4-.3,0-.7.1-1.2.2-.5,0-1.2,0-2,0,0-.2,0-.3-.2-.6,0-.2-.2-.4-.3-.6.4,0,.8,0,1.2,0s.7,0,1,0,.5,0,.6,0c.2,0,.3,0,.3,0,0,0,0-.1,0-.3v-4.5ZM838.1,121.9l1,.3c-.5.6-1.1,1.2-1.8,1.8-.7.6-1.4,1.1-2.2,1.5,0,0-.2-.2-.4-.4-.2-.2-.3-.3-.4-.4.7-.3,1.4-.7,2.1-1.2.7-.5,1.2-1,1.6-1.6ZM838,118.5l1,.3c-.5.6-1,1.2-1.7,1.8-.7.6-1.4,1-2,1.4,0,0-.2-.2-.4-.4-.2-.1-.3-.3-.4-.3.7-.3,1.3-.8,2-1.2.7-.5,1.2-1,1.6-1.5ZM834.7,122.7l.7-.6c.5.2.9.5,1.4.7s1,.6,1.4.9c.4.3.8.6,1.1.8l-.7.7c-.3-.3-.6-.6-1-.9-.4-.3-.9-.6-1.4-.9s-1-.6-1.4-.8ZM834.8,119.4l.7-.6c.5.2.9.4,1.4.7.5.3.9.5,1.4.8.4.3.8.5,1,.8l-.7.7c-.3-.2-.6-.5-1-.8-.4-.3-.9-.6-1.3-.8-.5-.3-.9-.5-1.4-.7ZM841,128h.6c0,0,.8.6.8.6-.5.4-1,.7-1.6,1-.6.3-1.2.6-1.8.9s-1.2.5-1.8.8c0-.1-.2-.2-.3-.4-.1-.1-.3-.2-.4-.3.5-.2,1.1-.4,1.6-.7.6-.3,1.1-.5,1.6-.8s.9-.6,1.2-.8v-.3ZM839.8,123.3h3.6v1h-3.6v-1ZM839.8,119.1h3.9v1h-3.9v-1ZM839.9,121.2h3.6v1h-3.6v-1ZM843.1,119.1h1.3c0,.8,0,1.6-.1,2.4s-.1,1.7-.2,2.5c0,.8-.1,1.5-.2,2.1h-1.3c0-.6.2-1.3.2-2.1s.1-1.6.2-2.5c0-.9,0-1.6.1-2.4Z"/>
            <path class="cls-37" d="M852.9,131l1.3.5c-.4.5-.8,1-1.3,1.6s-1,1-1.6,1.5-1.1.9-1.6,1.2c0,0-.2-.2-.3-.3-.1-.1-.3-.2-.4-.3-.1-.1-.3-.2-.4-.3.8-.5,1.6-1.1,2.4-1.8.8-.7,1.4-1.4,1.9-2.1ZM861.3,118.3l1,1.1c-.8.4-1.7.7-2.8,1.1-1,.3-2.1.7-3.3,1-1.2.3-2.3.6-3.5.8-1.2.3-2.4.5-3.5.7,0-.2,0-.4-.2-.6,0-.2-.2-.4-.2-.5,1.1-.2,2.3-.5,3.4-.7,1.2-.3,2.3-.5,3.4-.8s2.2-.6,3.1-.9c1-.3,1.8-.7,2.5-1ZM849.6,130.7c0-.1,0-.2,0-.4,0-.2-.1-.3-.2-.5,0-.2-.1-.3-.1-.4.3,0,.7-.1,1.1-.3.5-.2,1-.4,1.6-.7.3-.1.8-.4,1.5-.7.7-.3,1.4-.7,2.3-1.2s1.7-1,2.6-1.6c.9-.6,1.8-1.2,2.6-1.8l1,.9c-1.9,1.3-3.8,2.5-5.7,3.5-1.9,1-3.8,1.9-5.7,2.6h0c-.2.1-.4.2-.5.2-.1,0-.2.1-.4.2s-.1.1-.1.2ZM849.6,130.7v-1s.9-.5.9-.5l13.1-.9c0,.2,0,.4,0,.6v.6c-2,.1-3.8.3-5.2.4s-2.7.2-3.7.3-1.8.1-2.4.2-1.1.1-1.5.2-.6,0-.8.1c-.2,0-.3,0-.5.1ZM850.7,126.5c0,0,0-.2,0-.4,0-.2,0-.3-.1-.5s-.1-.3-.1-.4c.2,0,.5,0,.7-.2.3-.1.6-.2.9-.4.2-.1.6-.3,1.1-.7s1.1-.7,1.8-1.2c.6-.4,1.2-.9,1.8-1.4l1.2.8c-1,.8-2,1.5-3.1,2.1-1.1.6-2.1,1.2-3.1,1.6h0c-.2.1-.3.2-.5.2-.1,0-.2.1-.3.2,0,0-.1.1-.1.2ZM850.7,126.5v-1s.8-.4.8-.4l7.5-.4c0,.2,0,.3,0,.6,0,.2,0,.4,0,.5-1.4,0-2.5.2-3.4.2-.9,0-1.7.1-2.3.2s-1,0-1.4.1c-.3,0-.6,0-.7,0-.2,0-.3,0-.4.1ZM856.5,129.2h1.4v5.7c0,.4,0,.7-.2.9-.1.2-.3.4-.6.5-.3.1-.7.2-1.2.2s-1.1,0-1.9,0c0-.2-.1-.4-.2-.7-.1-.3-.2-.5-.3-.7.4,0,.8,0,1.2,0,.4,0,.7,0,.9,0,.3,0,.4,0,.5,0,.2,0,.3,0,.3,0,0,0,0-.1,0-.2v-5.7ZM859.8,131.6l1-.7c.5.4,1.1.9,1.7,1.3.6.5,1.1,1,1.7,1.4.5.5,1,.9,1.3,1.3l-1.1.8c-.3-.4-.7-.8-1.2-1.3-.5-.5-1.1-1-1.6-1.5s-1.1-1-1.7-1.4ZM860.4,126.3l1.1-.5c.5.5,1,.9,1.5,1.5.5.5,1,1.1,1.5,1.6.5.5.8,1,1.1,1.4l-1.1.7c-.3-.4-.6-.9-1.1-1.4s-.9-1.1-1.5-1.6c-.5-.5-1-1.1-1.5-1.5Z"/>
          </g>
        </g>
        <rect class="cls-38" x="748" y="118" width="118" height="19"/>
      </g>
      <g id="c166">
        <g class="cls-28">
          <g class="cls-28">
            <path class="cls-37" d="M307.8,125.3h.5s.8.2.8.2c-.3,2.8-.9,5.1-1.7,7-.8,1.8-1.9,3.2-3.1,4.2,0,0-.2-.2-.3-.3s-.2-.2-.4-.3c-.1-.1-.2-.2-.4-.2,1.2-.9,2.2-2.2,3-3.9.8-1.7,1.3-3.8,1.6-6.3v-.3ZM303.8,119.6h4.6v1.2h-4.6v-1.2ZM304.4,127.1c0,0,0-.2-.1-.3,0-.1-.1-.3-.2-.4,0-.1-.1-.2-.2-.3.2,0,.4-.2.6-.4.2-.2.4-.5.6-.8.1-.2.4-.6.7-1.1.3-.5.7-1.1,1-1.8.4-.7.7-1.4,1-2.1h0c0,0,.5-.3.5-.3l.9.6c-.6,1.2-1.2,2.4-1.9,3.5-.7,1.1-1.3,2.1-1.9,2.9h0c-.2.1-.4.2-.5.2-.1,0-.3.2-.4.2,0,0-.1.2-.1.2ZM305.1,128.2c.4,1.4.9,2.6,1.6,3.4s1.4,1.6,2.3,2c.9.5,1.9.8,3,1,1.1.2,2.3.3,3.6.3h3.7c.5,0,1,0,1.4,0s.7,0,.9,0c0,0-.2.2-.2.4,0,.1-.1.3-.2.5,0,.2-.1.3-.1.4h-5.6c-1.4,0-2.8,0-4-.3-1.2-.2-2.3-.6-3.2-1.1s-1.8-1.3-2.5-2.3c-.7-1-1.3-2.3-1.8-3.8l1-.4ZM305.2,125.3h3.1v1.2h-3.3l.2-1.2ZM309.1,122.7h12.3v1.1h-12.3v-1.1ZM309.2,130.9h12v1.1h-12v-1.1ZM310.1,128.2h10.4v1h-10.4v-1ZM310.4,120h9.6v6.5h-9.7v-1.1h8.5v-4.3h-8.3v-1.1ZM314.2,118.3h1.3v15.8h-1.3v-15.8Z"/>
            <path class="cls-37" d="M326.5,118.1l1.2.4c-.4.8-.9,1.6-1.5,2.4-.6.8-1.2,1.4-1.8,2,0,0-.2-.2-.3-.3s-.2-.2-.4-.3c-.1-.1-.2-.2-.3-.3.6-.5,1.2-1.1,1.8-1.7.6-.7,1-1.4,1.3-2.1ZM323.6,130.7h17.8v1.1h-17.8v-1.1ZM329.1,132.3l1.1.5c-.4.5-1,1-1.6,1.4-.6.4-1.3.9-2,1.2-.7.4-1.4.6-2.1.9,0-.1-.1-.2-.2-.4-.1-.1-.2-.3-.3-.4-.1-.1-.2-.2-.3-.3.7-.2,1.4-.4,2.1-.7.7-.3,1.3-.6,2-1,.6-.4,1.1-.8,1.5-1.2ZM323.6,128.3c.9-.1,2-.3,3.3-.5,1.3-.2,2.6-.4,3.9-.6v1.1c-1.2.2-2.5.4-3.7.6-1.2.2-2.3.4-3.3.5l-.2-1.1ZM323.9,123.6h6.9v1h-6.9v-1ZM326,119.5h6.4v1.1h-6.4v-1.1ZM326.8,123.9h1.3v4.3h-1.3v-4.3ZM327.5,121.2l.9-.6c.3.3.6.6,1,1,.3.4.6.7.8.9l-.9.7c-.2-.3-.4-.6-.8-1-.3-.4-.7-.7-1-1ZM333.9,123.8h1.2v1.3c0,.5-.1,1.1-.3,1.6-.2.5-.6,1.1-1.1,1.6s-1.3.9-2.2,1.3c0,0-.1-.2-.2-.3-.1-.1-.2-.2-.3-.3-.1,0-.2-.2-.3-.2.9-.3,1.6-.7,2.1-1.1.5-.4.8-.8,1-1.3.2-.4.3-.9.3-1.3v-1.3ZM331.2,126.1l.5-.8c.6.2,1.2.5,1.8.8.6.3,1.3.6,1.8.8.6.3,1.1.5,1.5.7l-.5,1c-.4-.2-.9-.5-1.5-.8-.6-.3-1.2-.6-1.9-.9-.6-.3-1.3-.6-1.8-.8ZM331.5,123.5h6.3v1h-6.3v-1ZM334.5,118.2l1.2.3c-.3.8-.8,1.6-1.3,2.4-.5.8-1.1,1.4-1.7,1.9,0,0-.2-.2-.3-.3-.1,0-.3-.2-.4-.3-.1-.1-.2-.2-.3-.2.6-.5,1.1-1,1.6-1.7s.9-1.4,1.2-2.1ZM331.8,129.4h1.3v7.2h-1.3v-7.2ZM334.1,119.5h7.5v1.1h-7.5v-1.1ZM334.6,133l.8-.9c.6.3,1.3.5,2,.9s1.4.7,2,1c.6.4,1.1.7,1.6,1l-.9,1c-.4-.3-.9-.6-1.5-1-.6-.4-1.3-.7-2-1.1-.7-.4-1.4-.7-2-1ZM336.2,121.2l.9-.6c.3.3.6.5,1,.9.3.3.6.6.8.9l-1,.7c-.2-.3-.4-.6-.8-.9s-.6-.7-.9-1ZM337.3,123.5h1.3v4.3c0,.2,0,.3,0,.5s0,.2,0,.2c0,0,.2,0,.3,0h.6c0,0,.2,0,.2,0,0,0,.1,0,.2,0,0,0,.1,0,.1-.1s0-.2,0-.3c0-.1,0-.3,0-.6,0-.3,0-.6,0-1,.1.1.3.2.4.3s.3.2.5.2c0,.4,0,.7,0,1.1,0,.4,0,.6-.1.8-.1.3-.3.5-.5.6-.1,0-.3,0-.4.1-.2,0-.3,0-.5,0h-.9c-.2,0-.4,0-.6,0s-.4-.1-.5-.2c-.1-.1-.2-.3-.3-.5,0-.2,0-.6,0-1.1v-4.2Z"/>
            <path class="cls-37" d="M343.6,131.5h17.9v1.2h-17.9v-1.2ZM344,125.5h17v3.6h-1.3v-2.5h-14.4v2.5h-1.3v-3.6ZM349.1,118.5l.6.8c-.6.2-1.2.4-2,.6-.7.1-1.4.3-2,.3l-.5-.8c.4,0,.8-.2,1.3-.3s.9-.2,1.4-.4.8-.2,1.2-.3ZM345.2,119.4l1.3.4.4,6.2h-1.3l-.4-6.6ZM346,121.2h3.6v1h-3.6v-1ZM346.1,123.3h3.6v1h-3.6v-1ZM347.3,128h9.6v1h-9.6v-1ZM352,130.6h1.3v4.6c0,.4,0,.6-.1.8-.1.2-.3.3-.6.4-.3,0-.7.1-1.2.2-.5,0-1.2,0-2,0,0-.2,0-.3-.2-.6,0-.2-.2-.4-.3-.6.4,0,.8,0,1.2,0s.7,0,1,0,.5,0,.6,0c.2,0,.3,0,.3,0,0,0,0-.1,0-.3v-4.5ZM353.5,121.9l1,.3c-.5.6-1.1,1.2-1.8,1.8-.7.6-1.4,1.1-2.2,1.5,0,0-.2-.2-.4-.4-.2-.2-.3-.3-.4-.4.7-.3,1.4-.7,2.1-1.2.7-.5,1.2-1,1.6-1.6ZM353.5,118.5l1,.3c-.5.6-1,1.2-1.7,1.8-.7.6-1.4,1-2,1.4,0,0-.2-.2-.4-.4-.2-.1-.3-.3-.4-.3.7-.3,1.3-.8,2-1.2.7-.5,1.2-1,1.6-1.5ZM350.2,122.7l.7-.6c.5.2.9.5,1.4.7s1,.6,1.4.9c.4.3.8.6,1.1.8l-.7.7c-.3-.3-.6-.6-1-.9-.4-.3-.9-.6-1.4-.9s-1-.6-1.4-.8ZM350.3,119.4l.7-.6c.5.2.9.4,1.4.7.5.3.9.5,1.4.8.4.3.8.5,1,.8l-.7.7c-.3-.2-.6-.5-1-.8-.4-.3-.9-.6-1.3-.8-.5-.3-.9-.5-1.4-.7ZM356.5,128h.6c0,0,.8.6.8.6-.5.4-1,.7-1.6,1-.6.3-1.2.6-1.8.9s-1.2.5-1.8.8c0-.1-.2-.2-.3-.4-.1-.1-.3-.2-.4-.3.5-.2,1.1-.4,1.6-.7.6-.3,1.1-.5,1.6-.8s.9-.6,1.2-.8v-.3ZM355.3,123.3h3.6v1h-3.6v-1ZM355.3,119.1h3.9v1h-3.9v-1ZM355.4,121.2h3.6v1h-3.6v-1ZM358.6,119.1h1.3c0,.8,0,1.6-.1,2.4s-.1,1.7-.2,2.5c0,.8-.1,1.5-.2,2.1h-1.3c0-.6.2-1.3.2-2.1s.1-1.6.2-2.5c0-.9,0-1.6.1-2.4Z"/>
            <path class="cls-37" d="M368.4,131l1.3.5c-.4.5-.8,1-1.3,1.6s-1,1-1.6,1.5-1.1.9-1.6,1.2c0,0-.2-.2-.3-.3-.1-.1-.3-.2-.4-.3-.1-.1-.3-.2-.4-.3.8-.5,1.6-1.1,2.4-1.8.8-.7,1.4-1.4,1.9-2.1ZM376.8,118.3l1,1.1c-.8.4-1.7.7-2.8,1.1-1,.3-2.1.7-3.3,1-1.2.3-2.3.6-3.5.8-1.2.3-2.4.5-3.5.7,0-.2,0-.4-.2-.6,0-.2-.2-.4-.2-.5,1.1-.2,2.3-.5,3.4-.7,1.2-.3,2.3-.5,3.4-.8s2.2-.6,3.1-.9c1-.3,1.8-.7,2.5-1ZM365,130.7c0-.1,0-.2,0-.4,0-.2-.1-.3-.2-.5,0-.2-.1-.3-.1-.4.3,0,.7-.1,1.1-.3.5-.2,1-.4,1.6-.7.3-.1.8-.4,1.5-.7.7-.3,1.4-.7,2.3-1.2s1.7-1,2.6-1.6c.9-.6,1.8-1.2,2.6-1.8l1,.9c-1.9,1.3-3.8,2.5-5.7,3.5-1.9,1-3.8,1.9-5.7,2.6h0c-.2.1-.4.2-.5.2-.1,0-.2.1-.4.2s-.1.1-.1.2ZM365,130.7v-1s.9-.5.9-.5l13.1-.9c0,.2,0,.4,0,.6v.6c-2,.1-3.8.3-5.2.4s-2.7.2-3.7.3-1.8.1-2.4.2-1.1.1-1.5.2-.6,0-.8.1c-.2,0-.3,0-.5.1ZM366.2,126.5c0,0,0-.2,0-.4,0-.2,0-.3-.1-.5s-.1-.3-.1-.4c.2,0,.5,0,.7-.2.3-.1.6-.2.9-.4.2-.1.6-.3,1.1-.7s1.1-.7,1.8-1.2c.6-.4,1.2-.9,1.8-1.4l1.2.8c-1,.8-2,1.5-3.1,2.1-1.1.6-2.1,1.2-3.1,1.6h0c-.2.1-.3.2-.5.2-.1,0-.2.1-.3.2,0,0-.1.1-.1.2ZM366.2,126.5v-1s.8-.4.8-.4l7.5-.4c0,.2,0,.3,0,.6,0,.2,0,.4,0,.5-1.4,0-2.5.2-3.4.2-.9,0-1.7.1-2.3.2s-1,0-1.4.1c-.3,0-.6,0-.7,0-.2,0-.3,0-.4.1ZM372,129.2h1.4v5.7c0,.4,0,.7-.2.9-.1.2-.3.4-.6.5-.3.1-.7.2-1.2.2s-1.1,0-1.9,0c0-.2-.1-.4-.2-.7-.1-.3-.2-.5-.3-.7.4,0,.8,0,1.2,0,.4,0,.7,0,.9,0,.3,0,.4,0,.5,0,.2,0,.3,0,.3,0,0,0,0-.1,0-.2v-5.7ZM375.3,131.6l1-.7c.5.4,1.1.9,1.7,1.3.6.5,1.1,1,1.7,1.4.5.5,1,.9,1.3,1.3l-1.1.8c-.3-.4-.7-.8-1.2-1.3-.5-.5-1.1-1-1.6-1.5s-1.1-1-1.7-1.4ZM375.8,126.3l1.1-.5c.5.5,1,.9,1.5,1.5.5.5,1,1.1,1.5,1.6.5.5.8,1,1.1,1.4l-1.1.7c-.3-.4-.6-.9-1.1-1.4s-.9-1.1-1.5-1.6c-.5-.5-1-1.1-1.5-1.5Z"/>
          </g>
        </g>
        <rect class="cls-38" x="302" y="118" width="80" height="19"/>
      </g>
      <g id="a20">
        <g id="ro_1qd8ai5nxc1e2-stroke">
          <path class="cls-1" d="M511,88.1h108s24,0,24,24v102s0,24-24,24h-108s-24,0-24-24v-102s0-24,24-24"/>
        </g>
        <g>
          <g id="tx__4nkqwdnxc008-fill">
            <g class="cls-28">
              <g class="cls-28">
                <path class="cls-42" d="M520.1,192.1h.7s1.1.2,1.1.2c-.3,2.9-.8,5.3-1.7,7.2-.8,1.9-1.9,3.3-3.2,4.3,0-.1-.2-.3-.4-.4-.2-.2-.3-.3-.5-.5-.2-.2-.3-.3-.5-.3,1.2-.9,2.2-2.2,3-3.8.7-1.7,1.2-3.8,1.5-6.3v-.3ZM516.9,194.5c0-.1-.1-.3-.2-.5,0-.2-.2-.4-.3-.6-.1-.2-.2-.3-.3-.5.2,0,.4-.2.6-.4.2-.2.5-.5.7-.8.1-.2.4-.6.7-1.1.3-.5.6-1.2,1-1.9.3-.7.7-1.5.9-2.2h0c0,0,.7-.4.7-.4l1.2.8c-.6,1.3-1.2,2.5-1.8,3.7-.6,1.2-1.3,2.2-1.9,3h0c-.3.2-.5.3-.7.4-.2,0-.3.2-.5.3-.1.1-.2.2-.2.3ZM516.2,186.4h4.6v1.7h-4.6v-1.7ZM517.8,195.2c.4,1.4.9,2.5,1.6,3.3.6.8,1.4,1.5,2.3,1.9.9.4,1.8.8,2.9.9,1.1.2,2.2.2,3.4.2h2.3c.5,0,1.1,0,1.6,0s1,0,1.5,0,.8,0,1,0c0,.1-.2.3-.3.5,0,.2-.2.4-.3.6,0,.2-.1.4-.2.6h-5.7c-1.4,0-2.8-.1-4-.3-1.2-.2-2.3-.6-3.2-1.1-1-.5-1.8-1.3-2.5-2.3-.7-1-1.3-2.3-1.8-3.9l1.4-.5ZM517.8,192.1h3v1.7h-3.1v-1.7ZM521.6,189.5h12.3v1.5h-12.3v-1.5ZM521.7,197.7h12v1.5h-12v-1.5ZM522.6,195h10.5v1.4h-10.5v-1.4ZM522.8,186.8h9.8v7h-10v-1.5h8.3v-4h-8.1v-1.5ZM526.4,185.2h1.8v15.7h-1.8v-15.7Z"/>
                <path class="cls-42" d="M538.8,185l1.7.5c-.4.8-.9,1.6-1.5,2.4-.6.8-1.2,1.5-1.9,2,0-.1-.2-.2-.4-.4-.2-.2-.3-.3-.5-.5-.2-.2-.3-.3-.4-.4.6-.5,1.2-1,1.7-1.6.5-.6,1-1.3,1.3-2ZM541.3,199.4l1.6.6c-.4.5-.9,1-1.5,1.4s-1.3.9-2,1.2-1.4.6-2.1.8c0-.2-.2-.3-.4-.5-.1-.2-.3-.4-.5-.6s-.3-.3-.5-.5c.7-.2,1.4-.4,2-.6.7-.3,1.3-.5,1.9-.9.6-.3,1.1-.7,1.4-1ZM536,197.5h18v1.5h-18v-1.5ZM536.1,195c.9-.1,2-.2,3.3-.4,1.3-.2,2.6-.3,3.9-.5v1.5c-1.2.2-2.4.4-3.7.5-1.2.2-2.3.3-3.3.5l-.2-1.5ZM536.4,190.5h6.9v1.4h-6.9v-1.4ZM538.5,186.3h6.3v1.5h-6.3v-1.5ZM539,190.9h1.7v4.2h-1.7v-4.2ZM539.9,188.4l1.2-.9c.3.3.6.6,1,1,.3.4.6.7.8.9l-1.3,1c-.2-.3-.4-.6-.8-1-.3-.4-.6-.7-1-1ZM546.1,190.8h1.6v1.6c0,.5,0,1.1-.3,1.6-.2.5-.5,1-1,1.5-.5.5-1.2.9-2.1,1.3,0,0-.2-.2-.3-.4-.1-.2-.3-.3-.5-.4-.2-.1-.3-.2-.4-.3.8-.3,1.5-.7,1.9-1,.4-.4.7-.7.9-1.1.2-.4.2-.8.2-1.2v-1.5ZM543.7,193.3l.7-1.1c.5.2,1.1.5,1.7.7.6.3,1.2.6,1.8.8s1.1.5,1.4.7l-.7,1.3c-.4-.2-.8-.5-1.4-.8-.6-.3-1.2-.6-1.8-.9-.6-.3-1.2-.6-1.8-.8ZM544,190.4h6.1v1.3h-6.1v-1.3ZM544.1,196.3h1.8v7.4h-1.8v-7.4ZM546.9,185l1.7.4c-.3.9-.8,1.7-1.3,2.5-.6.8-1.1,1.4-1.7,2-.1-.1-.2-.2-.4-.4-.2-.1-.3-.3-.5-.4-.2-.1-.3-.3-.5-.4.6-.5,1.1-1,1.6-1.7s.9-1.4,1.1-2.1ZM546.7,186.3h7.5v1.5h-7.5v-1.5ZM547.1,200.4l1.3-1.2c.6.2,1.2.5,1.9.8.7.3,1.3.7,1.9,1,.6.3,1.1.6,1.5.9l-1.3,1.3c-.4-.3-.9-.6-1.5-1s-1.2-.7-1.9-1c-.7-.3-1.3-.6-1.9-.9ZM548.6,188.3l1.3-.9c.3.3.6.6.9.9.3.3.6.6.8.9l-1.4,1c-.2-.3-.4-.6-.7-.9-.3-.4-.6-.7-.9-1ZM549.5,190.4h1.8v4c0,.2,0,.3,0,.4,0,.1,0,.2,0,.2,0,0,.2,0,.3,0h.4c0,0,.1,0,.2,0,0,0,.1,0,.1,0,0,0,0,0,.1-.1,0,0,0-.2,0-.3,0-.1,0-.3,0-.6,0-.3,0-.6,0-.9.1.1.3.3.6.4.2.1.5.2.7.3,0,.4,0,.7,0,1.1,0,.4,0,.6-.1.8-.1.3-.3.6-.6.7-.1,0-.3.1-.5.1-.2,0-.4,0-.5,0h-1c-.2,0-.4,0-.7,0-.2,0-.4-.2-.6-.3-.2-.1-.3-.3-.3-.6s0-.7,0-1.2v-4Z"/>
                <path class="cls-42" d="M560.1,186.8h2v2.9c0,.8,0,1.6,0,2.5,0,.9-.2,1.8-.4,2.8-.2,1-.5,1.9-.8,2.9-.4,1-.9,1.9-1.5,2.9-.6.9-1.4,1.8-2.3,2.7,0-.2-.2-.4-.4-.6-.2-.2-.3-.4-.5-.6-.2-.2-.3-.3-.5-.5,1-.9,1.9-1.9,2.5-3s1.1-2.1,1.4-3.2c.3-1.1.5-2.1.6-3.2,0-1,.1-2,.1-2.8v-2.8ZM556.8,186.1h11v1.8h-11v-1.8ZM571.3,191.8h.8c0,0,1.4.5,1.4.5-.4,1.7-1,3.2-1.8,4.5s-1.7,2.4-2.7,3.3c-1,.9-2.2,1.7-3.4,2.3-1.3.6-2.6,1.2-4,1.5,0-.2-.2-.4-.3-.6s-.2-.4-.4-.6c-.1-.2-.3-.4-.4-.5,1.3-.3,2.5-.7,3.7-1.3,1.2-.6,2.2-1.3,3.2-2.1,1-.8,1.8-1.8,2.5-2.9.7-1.1,1.2-2.4,1.6-3.8v-.4ZM561.3,191.8h10.4v1.8h-10.8l.3-1.8ZM564,192.9c.8,2.3,2.1,4.2,3.8,5.8,1.7,1.6,3.9,2.7,6.6,3.3-.1.1-.3.3-.4.5-.2.2-.3.4-.5.6-.2.2-.3.4-.4.6-1.8-.5-3.4-1.3-4.8-2.2s-2.6-2.1-3.5-3.5-1.8-3-2.4-4.7l1.7-.4ZM567.3,186.1h2c-.1.7-.3,1.5-.5,2.3s-.3,1.6-.5,2.3c-.2.7-.3,1.4-.5,1.9h-2.1c.2-.6.4-1.2.6-2,.2-.8.4-1.5.6-2.3s.3-1.5.5-2.2Z"/>
                <path class="cls-42" d="M584.9,186l1.7.5c-1.1,2.6-2.5,4.8-4.2,6.8-1.7,1.9-3.7,3.5-5.9,4.7,0-.1-.1-.3-.3-.5-.1-.2-.3-.4-.4-.6-.1-.2-.3-.3-.4-.5,2.2-1.1,4.1-2.5,5.7-4.2,1.6-1.8,2.9-3.8,3.8-6.2ZM575.8,191.1h10.3v1.7h-10.3v-1.7ZM576.7,187.4h7v1.7h-7v-1.7ZM579.5,194.5h4.7v1.5h-4.7v7.6h-1.7v-8l1-1.1h.7ZM578.9,197.7h5.4v1.5h-5.4v-1.5ZM578.9,201h5.4v1.5h-5.4v-1.5ZM579.6,185.3h1.8v6.9h-1.8v-6.9ZM583.5,194.5h1.8v8.8h-1.8v-8.8ZM586.9,186.3h5.9v1.8h-4.1v15.7h-1.9v-17.4ZM592.4,186.3h.6c0,0,1.4.8,1.4.8-.4.9-.8,2-1.3,3s-.9,2.1-1.4,3c.7.6,1.1,1.2,1.5,1.8.3.6.6,1.1.7,1.6s.2,1,.2,1.5c0,.7,0,1.2-.2,1.7-.2.5-.4.8-.8,1.1-.4.2-.8.4-1.4.5-.2,0-.5,0-.9,0s-.6,0-1,0c0-.3,0-.6-.1-.9,0-.4-.2-.7-.4-.9.3,0,.6,0,.8,0,.3,0,.5,0,.7,0,.2,0,.3,0,.5,0s.3,0,.4-.2c.2-.1.4-.3.4-.6,0-.3.1-.6.1-.9,0-.6-.2-1.3-.5-2-.3-.7-1-1.5-1.9-2.3.2-.5.5-1.1.7-1.6s.5-1.2.7-1.8c.2-.6.4-1.1.6-1.7.2-.5.4-1,.5-1.4v-.6Z"/>
                <path class="cls-42" d="M595.9,188h18.2v1.8h-18.2v-1.8ZM597.8,192.4h13.2v1.8h-11.3v7.3h-1.9v-9.1ZM603.1,185.6l1.9-.6c.3.5.6,1,.9,1.5s.5,1.1.7,1.5l-2,.7c0-.3-.2-.6-.4-1-.2-.4-.3-.7-.5-1.1-.2-.4-.4-.7-.6-1.1ZM603.9,189.2h2v14.4h-2v-14.4ZM610.5,192.4h2v6.9c0,.5,0,.9-.2,1.2-.1.3-.4.5-.8.7-.4.1-.9.2-1.4.3s-1.3,0-2.1,0c0-.3-.1-.6-.2-1-.1-.4-.3-.7-.4-.9.4,0,.8,0,1.2,0,.4,0,.7,0,1,0,.3,0,.5,0,.6,0,.2,0,.3,0,.4,0,0,0,0-.1,0-.3v-6.9Z"/>
              </g>
              <g class="cls-28">
                <path class="cls-42" d="M529,209.4h1.8v7c0,.9,0,1.9-.1,2.9s-.2,2-.5,3c-.3,1-.6,1.9-1.1,2.8-.5.9-1.2,1.7-2.1,2.4,0-.1-.2-.3-.4-.5-.1-.2-.3-.3-.5-.5-.2-.2-.3-.3-.5-.4.8-.6,1.4-1.3,1.9-2.1.5-.8.8-1.6,1-2.5.2-.9.3-1.8.4-2.6s0-1.7,0-2.5v-7.1ZM525.8,217h7.9v1.7h-7.9v-1.7ZM526.2,212.4h7.2v1.7h-7.2v-1.7ZM530.4,219.5c.1.1.3.3.6.6.2.3.5.6.8.9.3.3.6.7.9,1,.3.3.6.6.8.9.2.3.4.5.5.6l-1.3,1.4c-.2-.3-.4-.6-.7-1-.3-.4-.6-.8-1-1.2-.3-.4-.7-.8-1-1.2-.3-.4-.6-.7-.8-.9l1.2-.9ZM536,220.9h1.8c0,.8-.2,1.5-.4,2.2s-.5,1.3-.8,1.9c-.3.6-.8,1.1-1.4,1.5-.6.5-1.3.8-2.2,1.2,0-.2-.2-.5-.5-.8-.2-.3-.4-.5-.6-.7,1.1-.3,1.9-.8,2.4-1.3.6-.5,1-1.1,1.2-1.8.2-.7.4-1.5.5-2.3ZM534.5,209.9h8.7v11.3h-8.7v-11.3ZM536.2,211.6v1.6h5.1v-1.6h-5.1ZM536.2,214.8v1.6h5.1v-1.6h-5.1ZM536.2,217.9v1.6h5.1v-1.6h-5.1ZM539.2,220.6h1.8v4.6c0,.3,0,.4,0,.5,0,0,.2.1.3.1h1c.1,0,.2,0,.3-.2,0-.1.1-.4.1-.7,0-.4,0-.9,0-1.7.1.1.3.2.5.3.2,0,.4.2.6.2.2,0,.4.1.5.2,0,.9-.1,1.7-.3,2.2-.1.5-.3.9-.6,1-.3.2-.6.3-1,.3h-1.5c-.5,0-.9,0-1.2-.2-.3-.1-.5-.4-.6-.7s-.1-.8-.1-1.3v-4.6Z"/>
                <path class="cls-42" d="M545.7,225.8c1,0,2.1,0,3.3-.1s2.6,0,4-.2c1.4,0,2.8-.1,4.2-.2v1.4c-1.4,0-2.8.1-4.1.2-1.4,0-2.7.1-3.9.2-1.2,0-2.3.1-3.3.1v-1.5ZM545.8,212.3h11.5v1.2h-11.5v-1.2ZM545.9,218.2h11.3v1.3h-11.3v-1.3ZM546.8,216.3h9.6v1.1h-9.6v-1.1ZM547,210.4h9.1v5.2h-9.2v-1.1h7.6v-3h-7.5v-1.1ZM547,220.2h9.2v4.5h-9.2v-4.5ZM548.5,221.2v.8h6.1v-.8h-6.1ZM548.5,222.9v.8h6.1v-.8h-6.1ZM550.6,209.2h1.7v9.9h-1.7v-9.9ZM550.7,220.6h1.6v3.8h-1.6v-3.8ZM557.9,211.6h1.7v11.2h-1.7v-11.2ZM561.7,209.6h1.8v15.9c0,.5,0,1-.2,1.2-.1.3-.4.5-.7.6-.3.2-.7.3-1.3.3-.5,0-1.2,0-2,0,0-.2-.1-.5-.2-.9-.1-.4-.2-.7-.4-.9.6,0,1.1,0,1.5,0h.9c.2,0,.3,0,.3,0,0,0,.1-.2.1-.3v-15.9Z"/>
                <path class="cls-42" d="M566,222.4h18v1.5h-18v-1.5ZM566.4,216.4h17.3v3.9h-1.9v-2.5h-13.6v2.5h-1.8v-3.9ZM571.5,209.3l.8,1.1c-.6.2-1.3.4-2,.6-.8.2-1.5.3-2,.4l-.7-1.1c.4,0,.8-.2,1.3-.3.5-.1,1-.2,1.4-.4s.9-.3,1.2-.4ZM567.6,210.4l1.8.5.4,6.2h-1.8l-.4-6.7ZM568.5,212h3.7v1.2h-3.7v-1.2ZM568.6,214.2h3.7v1.2h-3.7v-1.2ZM569.8,218.9h9.2v1.4h-9.2v-1.4ZM574.3,221.6h1.9v4.2c0,.5,0,.8-.2,1-.1.2-.4.4-.7.6-.4.1-.8.2-1.4.2-.5,0-1.2,0-2,0,0-.2-.1-.5-.2-.8-.1-.3-.2-.6-.4-.8.4,0,.8,0,1.1,0,.4,0,.7,0,.9,0h.5c.2,0,.3,0,.3,0,0,0,0-.1,0-.3v-4.2ZM575.9,212.7l1.3.4c-.5.7-1.1,1.3-1.8,1.8-.7.6-1.4,1.1-2.2,1.5,0-.1-.2-.3-.5-.5-.2-.2-.4-.4-.5-.5.7-.3,1.4-.7,2.1-1.2.7-.5,1.2-1,1.6-1.5ZM575.9,209.3l1.3.4c-.4.6-1,1.2-1.7,1.7s-1.4,1-2,1.4c-.1-.1-.3-.3-.5-.5s-.4-.3-.6-.4c.7-.3,1.4-.7,2-1.2.6-.4,1.1-.9,1.5-1.4ZM572.7,213.7l.9-.8c.5.2.9.5,1.4.7.5.3.9.6,1.4.9.4.3.8.6,1.1.8l-1,.9c-.3-.3-.6-.5-1-.8-.4-.3-.9-.6-1.4-.9-.5-.3-.9-.6-1.4-.8ZM572.8,210.3l.9-.8c.4.2.9.4,1.3.7.5.3.9.5,1.3.8s.8.5,1,.8l-.9.9c-.3-.2-.6-.5-1-.8s-.8-.6-1.3-.8c-.5-.3-.9-.5-1.4-.7ZM578.5,218.9h.9c0,0,1.1.9,1.1.9-.5.4-1,.7-1.6,1.1s-1.2.7-1.8,1c-.6.3-1.2.6-1.8.8-.1-.2-.2-.3-.4-.5s-.3-.3-.5-.5c.5-.2,1-.4,1.6-.7s1-.6,1.5-.9.8-.6,1.1-.8v-.3ZM577.7,209.9h3.8v1.2h-3.8v-1.2ZM577.8,214.2h3.5v1.2h-3.5v-1.2ZM577.9,212h3.5v1.2h-3.5v-1.2ZM580.8,209.9h1.8c0,.8,0,1.6-.1,2.5s-.1,1.7-.2,2.6c0,.8-.1,1.5-.2,2.1h-1.8c0-.6.2-1.4.2-2.2,0-.8.1-1.7.2-2.6,0-.9,0-1.7.1-2.5Z"/>
                <path class="cls-42" d="M586.7,210.1h1.9v17.7h-1.9v-17.7ZM587.6,213.1h5.3v1.4h-5.3v-1.4ZM587.8,210.1h6.3v7.5h-6.3v-1.5h4.5v-4.4h-4.5v-1.6ZM602.5,210.1v1.6h-4.9v4.4h4.9v1.6h-6.7v-7.6h6.7ZM596.9,213.1h5.4v1.4h-5.4v-1.4ZM601.5,210.1h1.9v15.3c0,.6,0,1-.2,1.4-.1.3-.4.5-.8.7s-.9.3-1.5.3c-.6,0-1.4,0-2.4,0,0-.2,0-.4-.1-.6,0-.2-.2-.5-.2-.7,0-.2-.2-.5-.3-.6.4,0,.9,0,1.3,0s.8,0,1.2,0h.7c.2,0,.3,0,.4-.1s.1-.2.1-.4v-15.2Z"/>
              </g>
            </g>
          </g>
          <g id="_圖層_1">
            <g id="_圖層_1-2">
              <g id="_圖層_1-2-2" data-name="_圖層_1-2">
                <g>
                  <rect class="cls-26" x="546.7" y="103.9" width="57" height="72.6"/>
                  <rect class="cls-30" x="550.5" y="153.7" width="49" height="18.6"/>
                  <path class="cls-34" d="M587.9,176v-.2c.7-3.3,1.7-6.6,1-9.9-.1-1-1-1.8-.6-2.8.1-.4.2-1.1.3-1.5-.3,0-.6,0-1,0-1.1,0-2.2,0-3.2.1.6,3.4,1.4,7.1,1.8,10.6.2,1.2.3,2.5.4,3.7,0,.7-.3,1.6-.4,2.3.7-.1,1.2-.7,1.7-1.1,0,0,.4-.1.5-.2,0-.2-.5-1-.5-1h0Z"/>
                  <path class="cls-34" d="M580,161.6c-1.1-.2-4.2-.6-4.3-.6-.6,2.3-.9,4.9-1.3,7.1-.6,3.3-1.4,6.7-2.5,9.9.7-.2,1.4.3,2,0,0-.3,0-1,0-1.3,0,0-.2-.5,0-.5,1.2-2.1,2.9-3.9,3.7-6.2.7-1.8,1.1-3.6.7-5.5.6-.9,1.1-2.1,1.7-3h0s0,0,0,0Z"/>
                  <path class="cls-39" d="M574.3,176.8l-.4-.5c-.3.6-1.4,1.2-1.8,1.1-.2.3-1.1,1.4-2.3,1.6,0,0,0,.5.6.5h1.6c.3,0,.7-.2.8-.5,0-.1.3-.6.3-.6,0,.3,0,.7.2,1h.5s.1-.4.2-.7l.4-.7c.2-.4.2-.9,0-1.2h0s0,0,0,0h0Z"/>
                  <path class="cls-39" d="M585.3,178.8c-.2,0-.4.2,0,.5h1.6c0,0,.3-.2.4-.2,0,0,0-.1.1-.2v.4h.6s.1-1.2.3-1.4c.4-.5.3-1,0-1.4,0-.1-.2-.3-.3-.4,0,.3-1.1.3-1.6,1.7-.2.4-.7,1-1.1,1.2h0s0,0,0,0Z"/>
                  <path class="cls-43" d="M589.5,155.5c0-8.2-1.1-10.1-1.1-10.1l-9.1.2c0,0,0,0,0,.3-.1,1-.3,2-.6,3-.9,2.9-2.9,9.3-3.9,12.9.2,0-1.2,3-.6,3.1,4.7,1,11.1.5,15.9,0-.4-2.3-.4-7-.5-9.3h0Z"/>
                  <path class="cls-27" d="M580.8,165.4c-2.8-.4.3-6.8,1.2-13.8l-4.2-.5c-1,3.2-4.3,13.7-3.8,13.7,2,.4,4.4.6,6.7.6h0Z"/>
                  <rect class="cls-30" x="550.5" y="108.4" width="35" height="18.6"/>
                  <rect class="cls-30" x="589.1" y="108.4" width="9.9" height="18.7"/>
                  <rect class="cls-30" x="550.5" y="130.9" width="49" height="18.6"/>
                  <path class="cls-34" d="M593,131.2l.9-.8c.2-.2.3-.4.3-.6v-.9c.2-.3-.1-.6-.4-.5h0l-1.1,1c-.2.2-.4.6-.4.9v.6c0,0,.7.3.7.3h0Z"/>
                  <g>
                    <path class="cls-41" d="M565,158.4l-.3-.2c-1-.8-1.1-2.3-.3-3.3l.8-.9,3.8,3.2-.8.9c-.8,1-2.3,1.1-3.3.3h0Z"/>
                    <rect class="cls-23" x="566" y="150.6" width="6.7" height="5" transform="translate(82.6 485.8) rotate(-49.4)"/>
                    <rect class="cls-31" x="562.9" y="136.5" width="37.1" height="5" transform="translate(97.6 490) rotate(-49.4)"/>
                    <path class="cls-12" d="M595.4,126.4l2-5.5c.2-.4-.3-.8-.7-.6l-5.1,2.8,3.8,3.2h0Z"/>
                    <path class="cls-22" d="M597,122.2l.6-1.7c0-.2-.2-.5-.4-.3l-1.6.9,1.4,1.1h0,0Z"/>
                    <path class="cls-7" d="M569.6,152.7s0,0,0,0c0,0,0-.1,0-.2l23.6-27.5s.1,0,.2,0c0,0,0,.1,0,.2l-23.6,27.5s0,0,0,0Z"/>
                  </g>
                  <path class="cls-34" d="M534.4,131.6l-.5-1.1c0-.2-.1-.5,0-.7l.2-.9c0-.3.5-.5.7-.3h0l.6,1.4c.1.3.1.7,0,1l-.2.6h-.8s0,0,0,0h0Z"/>
                  <path class="cls-9" d="M535.9,131.3l-1.9-.4-1.4,4.3-6.5.2s.4.7-.3,1c-.5.2,1.9,2,1.9,2l5.3,1.2s2.1.2,2.3-2.4c.2-1.8.5-5.9.5-5.9h0Z"/>
                  <path class="cls-43" d="M534.3,164.1v-52.4h58.6l-58.6,52.4h0ZM542.3,119.7v27l29.8-27h-29.8Z"/>
                  <g>
                    <path class="cls-8" d="M540.3,115.4c0,0-.1,0-.1-.1v-3.2c0,0,0-.1.1-.1s.1,0,.1.1v3.2c0,0,0,.1-.1.1Z"/>
                    <path class="cls-8" d="M547.5,115.4c0,0-.1,0-.1-.1v-3.2c0,0,0-.1.1-.1s.1,0,.1.1v3.2c0,0,0,.1-.1.1Z"/>
                    <path class="cls-8" d="M554.7,115.4c0,0-.1,0-.1-.1v-3.2c0,0,0-.1.1-.1s.1,0,.1.1v3.2c0,0,0,.1-.1.1Z"/>
                    <path class="cls-8" d="M561.8,115.4c0,0-.1,0-.1-.1v-3.2c0,0,0-.1.1-.1s.1,0,.1.1v3.2c0,0,0,.1-.1.1Z"/>
                    <path class="cls-8" d="M569,115.4c0,0-.1,0-.1-.1v-3.2c0,0,0-.1.1-.1s.1,0,.1.1v3.2c0,0,0,.1-.1.1Z"/>
                    <path class="cls-8" d="M576.2,115.4c0,0-.1,0-.1-.1v-3.2c0,0,0-.1.1-.1s.1,0,.1.1v3.2c0,0,0,.1-.1.1Z"/>
                    <path class="cls-8" d="M583.4,115.4c0,0-.1,0-.1-.1v-3.2c0,0,0-.1.1-.1s.1,0,.1.1v3.2c0,0,0,.1-.1.1Z"/>
                  </g>
                  <path class="cls-15" d="M529.3,132.2s.2.2.5.5c.2.1,0,.5-.3.5s-.5-.6-.5-.6l.3-.3h0Z"/>
                  <path class="cls-15" d="M528.8,133.4s-.3,1.1-.5,1.9c0,.2-.3.4-.5.5-.3,0-.6,0-.8-.2,0,0-.1-.1-.2-.2-.3-.2-.4-.6-.2-.9.3-.8.9-2.2.9-2.2l1.4,1.1h0Z"/>
                  <polygon class="cls-20" points="528.8 133.9 528.5 134.5 528 133.7 528.8 133.9"/>
                  <path class="cls-15" d="M527.1,132.3c0-.3,0-.6.4-.7.3,0,.7-.2,1.1-.3.3,0,.6,0,.7.4.2.3.3,1.1.4,1.7,0,.3,0,.7-.4.8-.3,0-1.5-.2-1.8-.8-.2-.4-.2-.5-.3-1h0s0,0,0,0Z"/>
                  <path class="cls-16" d="M527.1,133.9c-.2,0-1-1-.7-1.8,0-.2.1-.3.2-.5.5-.7,1.1-1,2.1-.3,0,0,0,.9-.2,1.4,0,.3-.2.6-.5.9-.2.2-.5.4-.8.4h0,0Z"/>
                  <path class="cls-15" d="M528,133.2c.2.2.4.3.6.1.2-.1.2-.4,0-.6s-.4-.3-.6-.1-.2.4,0,.6Z"/>
                  <path class="cls-35" d="M528.5,130.5c-.7-.5-1.1-.3-1.3,0,0,0,0,0-.2.1,0,0,0,0-.1,0-.2,0-.5,0-.7.2s-.2.5-.1.7c0,0-.2,0-.3.2s-.4.9.3,1.5c.2.1.3.3.5.2.2,0,.4-.2.5-.5s0-.5,0-.7-.1-.5,0-.7.2-.5.4-.5c.2,0,.3,0,.5,0,.2,0,.3,0,.5,0,.2-.1.1-.5.1-.6h0Z"/>
                  <path class="cls-35" d="M527,133c.2,0,.1-.9,0-1.1.2,0,.5-.2.5-.5.2.3.6,0,.7-.2,0,.1.1.2.3.3s.5,0,.6,0c.1,0,0-.6,0-.7s-.2-.3-.3-.3-.3,0-.5,0-.4.2-.6.2c-.2,0-.6.2-.8.3-.1,0-.6.5-.7.6-.2.3,0,.8,0,1s0,.3.2.3.4,0,.5,0c0,0,.2.2.1.2h0,0Z"/>
                  <path class="cls-35" d="M528.2,132.4c.2.6,0,.8.3,1.5.1.2.5.5.8.5.3,0,.5-.2.5-.4s0-.5-.2-.8c0-.1-.2,0-.5,0,0,0-.2,0-.2,0,0,0,0,0-.1-.2-.2-.4-.3-.8-.5-1.2,0,.2,0,.3,0,.5,0,0,0,0,0,0h0,0Z"/>
                  <path class="cls-15" d="M534.1,175.9s-.5-1.4-1.1-3.5c-1-3.5,2.4-.4,2.4-.4l.5,3.9h-1.8c0,0,0,0,0,0h0Z"/>
                  <path class="cls-21" d="M535.8,175.6l.8.8c.2.2,1.4.5,1.4.5h0c.1.3-.1.4-.3.5h-3.5c0,0-1,0-.3-1.7.6.3,1.7.4,1.9,0h0Z"/>
                  <path class="cls-17" d="M522.9,145.2l7-3.5c1.3.4,2,11,2,11l-5,.7c-2.5.2-5.6.7-5.8-1.7-.5-4.5,1.7-6.6,1.7-6.6h0,0Z"/>
                  <path class="cls-17" d="M531.6,150.6l2.4,12.9,2.4,10.2h-4.2s-3-8.3-2.9-10.8l-4.1-11,6.3-1.4h0Z"/>
                  <path class="cls-15" d="M523.2,175.8s-2.6-9-.9-12.6v-9.8c0,0,3.3.2,3.3.2l-.9,22.1h-1.5,0Z"/>
                  <path class="cls-21" d="M524.8,175.3l.3.6c.2.2.8.6.8.6.1,0,.6.6-.4.5h-2.6s-.8-.2.2-1.8c.6.3,1.3.5,1.6,0h0Z"/>
                  <path class="cls-17" d="M527.3,152.5l-.8,11.4-1.1,9.9h-3.3c0,0,0-1.4-.2-2s-1.2-5.9,0-8.4l-.9-9.3c-.4-1.6-.6-3.2-.5-4.6l6.5,3h0s0,0,0,0h0Z"/>
                  <path class="cls-34" d="M536.5,140.6c1.7-1.6,2.3-2.3,4-3.9l1.1.5c-2.9,3.8-2.7,5.3-4.6,6.1-2-.9-.9-2.3-.6-2.7h0s0,0,0,0Z"/>
                  <path class="cls-34" d="M540.5,137.2v-1.2c.1-.2.2-.5.4-.6l.7-.7c.2-.2.6-.2.8.2h0l-.2,1.5c0,.3-.2.6-.5.9l-.5.4-.7-.5h0Z"/>
                  <path class="cls-15" d="M530.4,135.2s7.1,5.7,6.6,6.7l-.2.4c-.3.6-1,.7-1.5.3l-3.6-3-.7-.6-.6-3.9h0Z"/>
                  <path class="cls-6" d="M530.4,135.2l-2.9-.6c-.6-.1-1.2-.1-1.8,0l-1,.5c-.8.3-1.6.7-2.2,1.5-.4.5-.6,1.2-.8,1.8-.3,2-1.4,8.7-1.8,11.1,4.2,2.2,10.9,2.7,12.6.9.2-2.9.8-7.6.5-10.1-.3-2.3-1.9-3.2-2.7-5h0s0,0,0,0Z"/>
                  <path class="cls-6" d="M541.2,138.2l-1.4-1.2-3.3,3.1-4.6-3.8s-.8-.9-1.5-1c-.5,0,.4,5.2.4,5.2l4,3.6s1.7,1.1,3.2-1c1-1.5,3.3-4.9,3.3-4.9h0Z"/>
                  <path class="cls-15" d="M579.6,133.8s.4,1.1.6,2.1c0,.3,0,.5-.2.7s-.4.3-.7.2c0,0-.2,0-.2,0-.3,0-.6-.4-.7-.7-.2-.9-.5-2.5-.5-2.5l1.6.3h0Z"/>
                  <polygon class="cls-10" points="579.9 134.4 580 135.1 579.2 134.7 579.9 134.4"/>
                  <path class="cls-15" d="M577.7,133.4c-.2-.3-.2-.7,0-.9.3-.2.6-.5.9-.8.3-.2.6-.2.9,0,.3.3.8,1,1.1,1.5.2.3.2.7,0,.9-.3.2-1.4.7-1.8.2-.4-.3-.7-.7-1-1.1h0,0Z"/>
                  <path class="cls-13" d="M578.4,134.9c-.6.2-1.2-.2-1.3-.8-.1-.5-.2-1-.1-1.3.2-.8.8-1.6,1.8-1.5.2,0,.4.2.4.3.1.5.3,1.4-.1,2.6,0,.3-.3.5-.6.5h-.2c0,0,0,0,0,0Z"/>
                  <path class="cls-15" d="M579,133.8c.2.2.5,0,.7,0s0-.5-.2-.6-.5,0-.7,0,0,.5.2.6Z"/>
                  <path class="cls-12" d="M577.6,136.1l2.8-1.1.8-.2h1.4c.9,0,2.3,0,3.7,2.7l.8,2.1c1.3,2.4,1.8,6.3,2.7,9-3.8,2.7-10.3,4.2-12.1,2.6-.5-4.7-1.9-7.3-1.9-9.8,0-2.3,1.4-3.4,1.9-5.3h0,0Z"/>
                  <path class="cls-34" d="M574,152.6l-.3,1.1c0,.2-.2.4-.4.5l-.8.5c-.3.2-.6,0-.7-.3h0l.5-1.4c0-.3.3-.6.7-.8l.5-.3.6.6h0s0,0,0,0Z"/>
                  <path class="cls-15" d="M579.7,132.3s.3.2.8.4c.2,0,0,.6-.2.6s-.8-.5-.8-.5l.2-.5h0Z"/>
                  <path class="cls-23" d="M580.6,139.4s8.4-.9,10.6-2.4c.2-.2,2.1-6.1,2.1-6.1h-1.5c0,0-2.9,3-2.9,3-5.1.7-6,0-7.6.8l-.6,4.7h0Z"/>
                  <path class="cls-29" d="M586.6,138.2s0,0,0,0l-.4-.9s0,0,0,0c0,0,0,0,0,0l.4.9s0,0,0,0c0,0,0,0,0,0Z"/>
                  <path class="cls-36" d="M580.5,133.3h-.3c0,0,.1.4.3.3v-.3h0Z"/>
                  <path class="cls-32" d="M525.4,173.8l1.1-9.9.5-7.1-.8-4h-1.5c0,8.8-1,18.8-1.2,21.1h1.9s0,0,0,0h0Z"/>
                  <path class="cls-33" d="M526.8,156.8s0,0,0,0l-.6-3.9-1.3-.2s0,0,0,0c0,0,0,0,0,0l1.4.2s0,0,0,0l.6,4s0,0,0,0c0,0,0,0,0,0Z"/>
                  <path class="cls-36" d="M576.4,146.6c0,0,.9,2.1.9,2.1l.3,3s.9,1,4.5,0l-4.6-9.2-1.1,4.1h0Z"/>
                  <path class="cls-23" d="M577.6,136.1s-2.5.8-2.4,5.3c0,1,.5,4,0,4.9-2.2,4.4-2.8,5.9-2.8,5.9l2.2,1.3,4.2-6.9-1.2-10.4h0Z"/>
                  <path class="cls-29" d="M577.6,148.5s0,0,0,0c0,0,0,0,0,0,0,0,0,0,0,0,1.2-1.4,1.3-2.1,1.2-2.5-.2-.6-.5-2.1-.7-3.3h0c0-.1,0-.2,0-.2,0,0,0,0,0,0h0c.3,1.3.6,2.9.7,3.5.1.6-.3,1.5-1.2,2.7,0,0,0,0,0,0,0,0,0,0,0,0Z"/>
                  <path class="cls-13" d="M574.7,140.5c0-.2-.2-.5-.5-.6-1.8-1,0-3.1.5-3.9.5-.8-.9-1.7.4-2.9,1.3-1.2,2.1-.6,2.2-.7,0,0,.5,1.5.5,1.5,0,0-.6.6,0,2.1s1.5,2.1,1.1,3.7c-.4,1.6-4.7,2.3-4.7,2.3.6-.3.6-1.2.6-1.5h0s0,0,0,0h0Z"/>
                  <path class="cls-40" d="M577,133.1s0,0,0,0v-.6s0,0,0,0,0,0,0,0v.6s0,0,0,0Z"/>
                  <path class="cls-11" d="M529.3,151.5c1.5,0,2.7-.5,3.2-1.1.2-2.2.6-5.3.6-7.8l-2-2.3c.4,5.1,0,9.1-1.8,11.3h0Z"/>
                  <path class="cls-33" d="M532.9,142.3s0,0,0,0l-1.9-2.3s0,0,0,0c0,0,0,0,0,0l1.9,2.3s0,0,0,0c0,0,0,0,0,0Z"/>
                  <path class="cls-8" d="M545.6,151.2s0,0,0,0c0,0,0-.1,0-.2l29.8-27s.1,0,.2,0c0,0,0,.1,0,.2l-29.8,27s0,0,0,0Z"/>
                  <path class="cls-25" d="M608,137.3c0,0-.1,0-.1-.1v-36.6c0,0,0-.1.1-.1s.1,0,.1.1v36.6c0,0,0,.1-.1.1Z"/>
                  <path class="cls-25" d="M606.3,98.6h-59.5c0,0-.1,0-.1-.1s0-.1.1-.1h59.5c0,0,.1,0,.1.1s0,.1-.1.1Z"/>
                  <rect class="cls-24" x="605.3" y="96.5" width="4.7" height="4.7"/>
                  <rect class="cls-8" x="606.7" y="97.9" width="1.9" height="1.9"/>
                  <rect class="cls-24" x="605.3" y="134.9" width="4.7" height="4.7"/>
                  <rect class="cls-8" x="606.7" y="136.3" width="1.9" height="1.9"/>
                  <rect class="cls-24" x="544.4" y="96.5" width="4.7" height="4.7"/>
                  <rect class="cls-8" x="545.8" y="97.9" width="1.9" height="1.9"/>
                </g>
              </g>
            </g>
          </g>
        </g>
      </g>
      <g id="b68">
        <g id="ro_4pg9bhnwxxc6-fill">
          <path class="cls-19" d="M299.6,50h125.8s12.6,0,12.6,12v30s0,12-12.6,12h-125.8s-12.6,0-12.6-12v-30s0-12,12.6-12"/>
        </g>
        <g id="tx__i0aalpnwxyx0-fill">
          <g class="cls-28">
            <g class="cls-28">
              <path class="cls-23" d="M307.6,74h.7s1.1.2,1.1.2c-.3,2.9-.8,5.3-1.7,7.2-.8,1.9-1.9,3.3-3.2,4.3,0-.1-.2-.3-.4-.4-.2-.2-.3-.3-.5-.5-.2-.2-.3-.3-.5-.3,1.2-.9,2.2-2.2,3-3.8.7-1.7,1.2-3.8,1.5-6.3v-.3ZM304.4,76.4c0-.1-.1-.3-.2-.5,0-.2-.2-.4-.3-.6-.1-.2-.2-.3-.3-.5.2,0,.4-.2.6-.4.2-.2.5-.5.7-.8.1-.2.4-.6.7-1.1.3-.5.6-1.2,1-1.9.3-.7.7-1.5.9-2.2h0c0,0,.7-.4.7-.4l1.2.8c-.6,1.3-1.2,2.5-1.8,3.7-.6,1.2-1.3,2.2-1.9,3h0c-.3.2-.5.3-.7.4-.2,0-.3.2-.5.3-.1.1-.2.2-.2.3ZM303.7,68.3h4.6v1.7h-4.6v-1.7ZM305.2,77.1c.4,1.4.9,2.5,1.6,3.3.6.8,1.4,1.5,2.3,1.9.9.4,1.8.8,2.9.9,1.1.2,2.2.2,3.4.2h2.3c.5,0,1.1,0,1.6,0s1,0,1.5,0,.8,0,1,0c0,.1-.2.3-.3.5,0,.2-.2.4-.3.6,0,.2-.1.4-.2.6h-5.7c-1.4,0-2.8-.1-4-.3-1.2-.2-2.3-.6-3.2-1.1-1-.5-1.8-1.3-2.5-2.3-.7-1-1.3-2.3-1.8-3.9l1.4-.5ZM305.2,74h3v1.7h-3.1v-1.7ZM309.1,71.4h12.3v1.5h-12.3v-1.5ZM309.2,79.7h12v1.5h-12v-1.5ZM310,77h10.5v1.4h-10.5v-1.4ZM310.3,68.7h9.8v7h-10v-1.5h8.3v-4h-8.1v-1.5ZM313.9,67.1h1.8v15.7h-1.8v-15.7Z"/>
              <path class="cls-23" d="M326.3,66.9l1.7.5c-.4.8-.9,1.6-1.5,2.4-.6.8-1.2,1.5-1.9,2,0-.1-.2-.2-.4-.4-.2-.2-.3-.3-.5-.5-.2-.2-.3-.3-.4-.4.6-.5,1.2-1,1.7-1.6.5-.6,1-1.3,1.3-2ZM328.8,81.3l1.6.6c-.4.5-.9,1-1.5,1.4s-1.3.9-2,1.2-1.4.6-2.1.8c0-.2-.2-.3-.4-.5-.1-.2-.3-.4-.5-.6s-.3-.3-.5-.5c.7-.2,1.4-.4,2-.6.7-.3,1.3-.5,1.9-.9.6-.3,1.1-.7,1.4-1ZM323.5,79.5h18v1.5h-18v-1.5ZM323.6,77c.9-.1,2-.2,3.3-.4,1.3-.2,2.6-.3,3.9-.5v1.5c-1.2.2-2.4.4-3.7.5-1.2.2-2.3.3-3.3.5l-.2-1.5ZM323.8,72.4h6.9v1.4h-6.9v-1.4ZM326,68.2h6.3v1.5h-6.3v-1.5ZM326.5,72.9h1.7v4.2h-1.7v-4.2ZM327.3,70.3l1.2-.9c.3.3.6.6,1,1,.3.4.6.7.8.9l-1.3,1c-.2-.3-.4-.6-.8-1-.3-.4-.6-.7-1-1ZM333.6,72.7h1.6v1.6c0,.5,0,1.1-.3,1.6-.2.5-.5,1-1,1.5-.5.5-1.2.9-2.1,1.3,0,0-.2-.2-.3-.4-.1-.2-.3-.3-.5-.4-.2-.1-.3-.2-.4-.3.8-.3,1.5-.7,1.9-1,.4-.4.7-.7.9-1.1.2-.4.2-.8.2-1.2v-1.5ZM331.1,75.3l.7-1.1c.5.2,1.1.5,1.7.7.6.3,1.2.6,1.8.8s1.1.5,1.4.7l-.7,1.3c-.4-.2-.8-.5-1.4-.8-.6-.3-1.2-.6-1.8-.9-.6-.3-1.2-.6-1.8-.8ZM331.5,72.3h6.1v1.3h-6.1v-1.3ZM331.6,78.3h1.8v7.4h-1.8v-7.4ZM334.4,67l1.7.4c-.3.9-.8,1.7-1.3,2.5-.6.8-1.1,1.4-1.7,2-.1-.1-.2-.2-.4-.4-.2-.1-.3-.3-.5-.4-.2-.1-.3-.3-.5-.4.6-.5,1.1-1,1.6-1.7s.9-1.4,1.1-2.1ZM334.1,68.3h7.5v1.5h-7.5v-1.5ZM334.6,82.3l1.3-1.2c.6.2,1.2.5,1.9.8.7.3,1.3.7,1.9,1,.6.3,1.1.6,1.5.9l-1.3,1.3c-.4-.3-.9-.6-1.5-1s-1.2-.7-1.9-1c-.7-.3-1.3-.6-1.9-.9ZM336.1,70.3l1.3-.9c.3.3.6.6.9.9.3.3.6.6.8.9l-1.4,1c-.2-.3-.4-.6-.7-.9-.3-.4-.6-.7-.9-1ZM337,72.3h1.8v4c0,.2,0,.3,0,.4,0,.1,0,.2,0,.2,0,0,.2,0,.3,0h.4c0,0,.1,0,.2,0,0,0,.1,0,.1,0,0,0,0,0,.1-.1,0,0,0-.2,0-.3,0-.1,0-.3,0-.6,0-.3,0-.6,0-.9.1.1.3.3.6.4.2.1.5.2.7.3,0,.4,0,.7,0,1.1,0,.4,0,.6-.1.8-.1.3-.3.6-.6.7-.1,0-.3.1-.5.1-.2,0-.4,0-.5,0h-1c-.2,0-.4,0-.7,0-.2,0-.4-.2-.6-.3-.2-.1-.3-.3-.3-.6s0-.7,0-1.2v-4Z"/>
              <path class="cls-23" d="M343.5,80.3h18v1.5h-18v-1.5ZM343.9,74.3h17.3v3.9h-1.9v-2.5h-13.6v2.5h-1.8v-3.9ZM349,67.3l.8,1.1c-.6.2-1.3.4-2,.6-.8.2-1.5.3-2,.4l-.7-1.1c.4,0,.8-.2,1.3-.3.5-.1,1-.2,1.4-.4s.9-.3,1.2-.4ZM345.1,68.3l1.8.5.4,6.2h-1.8l-.4-6.7ZM346,70h3.7v1.2h-3.7v-1.2ZM346.1,72.1h3.7v1.2h-3.7v-1.2ZM347.3,76.8h9.2v1.4h-9.2v-1.4ZM351.8,79.6h1.9v4.2c0,.5,0,.8-.2,1-.1.2-.4.4-.7.6-.4.1-.8.2-1.4.2-.5,0-1.2,0-2,0,0-.2-.1-.5-.2-.8-.1-.3-.2-.6-.4-.8.4,0,.8,0,1.1,0,.4,0,.7,0,.9,0h.5c.2,0,.3,0,.3,0,0,0,0-.1,0-.3v-4.2ZM353.4,70.6l1.3.4c-.5.7-1.1,1.3-1.8,1.8-.7.6-1.4,1.1-2.2,1.5,0-.1-.2-.3-.5-.5-.2-.2-.4-.4-.5-.5.7-.3,1.4-.7,2.1-1.2.7-.5,1.2-1,1.6-1.5ZM353.4,67.3l1.3.4c-.4.6-1,1.2-1.7,1.7s-1.4,1-2,1.4c-.1-.1-.3-.3-.5-.5s-.4-.3-.6-.4c.7-.3,1.4-.7,2-1.2.6-.4,1.1-.9,1.5-1.4ZM350.2,71.6l.9-.8c.5.2.9.5,1.4.7.5.3.9.6,1.4.9.4.3.8.6,1.1.8l-1,.9c-.3-.3-.6-.5-1-.8-.4-.3-.9-.6-1.4-.9-.5-.3-.9-.6-1.4-.8ZM350.2,68.3l.9-.8c.4.2.9.4,1.3.7.5.3.9.5,1.3.8s.8.5,1,.8l-.9.9c-.3-.2-.6-.5-1-.8s-.8-.6-1.3-.8c-.5-.3-.9-.5-1.4-.7ZM356,76.8h.9c0,0,1.1.9,1.1.9-.5.4-1,.7-1.6,1.1s-1.2.7-1.8,1c-.6.3-1.2.6-1.8.8-.1-.2-.2-.3-.4-.5s-.3-.3-.5-.5c.5-.2,1-.4,1.6-.7s1-.6,1.5-.9.8-.6,1.1-.8v-.3ZM355.2,67.8h3.8v1.2h-3.8v-1.2ZM355.2,72.1h3.5v1.2h-3.5v-1.2ZM355.3,70h3.5v1.2h-3.5v-1.2ZM358.3,67.8h1.8c0,.8,0,1.6-.1,2.5s-.1,1.7-.2,2.6c0,.8-.1,1.5-.2,2.1h-1.8c0-.6.2-1.4.2-2.2,0-.8.1-1.7.2-2.6,0-.9,0-1.7.1-2.5Z"/>
              <path class="cls-23" d="M365.5,73.5l1.2.4c-.3.7-.6,1.3-1.1,2s-.9,1.2-1.4,1.6c-.1-.2-.3-.4-.5-.7-.2-.2-.4-.4-.6-.6.3-.2.6-.4,1-.7.3-.3.6-.6.9-1,.3-.4.5-.7.7-1ZM366.9,77.1h1.6v2.1c0,.5,0,1.1-.1,1.7s-.3,1.2-.6,1.7-.7,1.1-1.3,1.6c-.6.5-1.4,1-2.4,1.4,0-.1-.2-.3-.3-.5-.1-.2-.2-.3-.4-.5s-.3-.3-.4-.4c.9-.3,1.5-.7,2-1.1s.9-.8,1.1-1.3c.3-.4.4-.9.5-1.3,0-.5.1-.9.1-1.3v-2ZM363.4,71.5h8.7v1.5h-8.7v-1.5ZM363.4,78.8h8.8v1.6h-8.8v-1.6ZM363.8,68.3l1.3-.5c.2.4.5.8.7,1.2.2.4.4.8.4,1.2l-1.4.6c0-.3-.2-.7-.4-1.2s-.4-.9-.7-1.3ZM367,67.2h1.7v9.4h-1.7v-9.4ZM367,82.1l1-1.2c.4.2.9.5,1.3.8.5.3.9.6,1.4.9.4.3.8.6,1.1.8l-1,1.3c-.3-.2-.6-.5-1-.8-.4-.3-.9-.6-1.4-1-.5-.3-.9-.6-1.3-.9ZM369.7,73.6c.1,0,.3.2.6.4.3.2.5.4.8.6.3.2.5.4.8.6.2.2.4.3.5.4l-1,1.2c-.1-.2-.3-.4-.5-.6-.2-.2-.5-.5-.7-.7-.3-.3-.5-.5-.7-.7-.2-.2-.4-.4-.6-.5l1-.7ZM369.2,77.5l1.1-.7c.3.2.5.5.8.8.3.3.5.6.6.8l-1.1.8c-.1-.2-.3-.5-.6-.8-.3-.3-.5-.6-.8-.8ZM370.3,67.9l1.6.4c-.2.5-.5.9-.7,1.4s-.5.8-.7,1.2l-1.2-.4c.2-.4.4-.8.6-1.3.2-.5.4-.9.5-1.3ZM375,82.1l1.6,1c-.3.3-.7.7-1.1,1-.4.3-.9.7-1.3,1s-.9.5-1.4.8c-.1-.2-.3-.4-.6-.6-.2-.2-.5-.4-.6-.6.4-.2.9-.4,1.3-.7.4-.3.8-.6,1.2-.9.4-.3.7-.6.9-.9ZM372.3,68h9.4v1.6h-9.4v-1.6ZM373,71.3h8v10.5h-8v-10.5ZM374.7,72.7v1.6h4.5v-1.6h-4.5ZM374.7,75.7v1.6h4.5v-1.6h-4.5ZM374.7,78.7v1.7h4.5v-1.7h-4.5ZM375.9,68.9l2.1.3c-.2.6-.4,1.2-.6,1.8-.2.6-.4,1.1-.6,1.5l-1.6-.3c0-.3.2-.6.3-1s.2-.8.3-1.1c0-.4.1-.7.2-1ZM377.3,83l1.4-.9c.4.2.8.5,1.2.8s.8.6,1.2.9c.4.3.7.6,1,.8l-1.5,1c-.2-.2-.5-.5-.9-.8-.4-.3-.8-.6-1.2-1-.4-.3-.8-.6-1.2-.9Z"/>
            </g>
          </g>
        </g>
        <g id="_圖層_1-2" data-name="_圖層_1">
          <g id="_圖層_1-2-3" data-name="_圖層_1-2">
            <g id="_圖層_1-2-4" data-name="_圖層_1-2">
              <g id="_圖層_1-2-2">
                <g>
                  <rect class="cls-26" x="402.8" y="70.3" width="8.1" height="10.9"/>
                  <path class="cls-8" d="M417.6,76.8s0,0,0,0v-6.5s0,0,0,0,0,0,0,0v6.5s0,0,0,0Z"/>
                  <polyline class="cls-26" points="411 67.3 411 64.3 406.9 60.2 402.8 64.3 402.8 67.3"/>
                  <rect class="cls-24" x="416.5" y="76.7" width="2.1" height="2.1"/>
                  <rect class="cls-8" x="417.2" y="77.3" width=".9" height=".9"/>
                  <polygon class="cls-31" points="412.2 86.6 412.2 81 401.4 81 401.4 86.6 396 86.6 396 92.2 406.8 92.2 406.8 92.2 417.6 92.2 417.6 86.6 412.2 86.6"/>
                  <g>
                    <path class="cls-7" d="M406.9,92.2s0,0,0,0v-5.5s0,0,0,0h5.3s0,0,0,0,0,0,0,0h-5.3v5.5s0,0,0,0Z"/>
                    <path class="cls-7" d="M406.9,86.7h-5.5s0,0,0,0,0,0,0,0h5.5s0,0,0,0,0,0,0,0h0Z"/>
                  </g>
                  <polygon class="cls-43" points="408.8 78.9 406.9 77 405 78.9 406.9 77.9 408.8 78.9"/>
                  <polygon class="cls-43" points="408.8 75.1 406.9 73.2 405 75.1 406.9 74.1 408.8 75.1"/>
                  <g>
                    <polygon class="cls-43" points="421.2 70.5 418 67.3 400.1 67.3 394.8 67.3 394.8 70.5 394.8 72.6 400.1 72.6 400.1 70.5 421.2 70.5"/>
                    <polygon class="cls-8" points="419.3 69.8 417.5 68.1 400.5 68.1 395.7 68.1 395.7 69.8 395.7 71.7 399.2 71.7 399.2 69.8 419.3 69.8"/>
                  </g>
                </g>
              </g>
            </g>
          </g>
        </g>
      </g>
      <g id="b69">
        <g id="ro_m7d2ctnxg8wf-fill">
          <path class="cls-18" d="M702.9,50h167.1s11.9,0,11.9,12v30s0,12-11.9,12h-167.1s-11.9,0-11.9-12v-30s0-12,11.9-12"/>
        </g>
        <g id="tx__zitkq5nxg7bh-fill">
          <g class="cls-28">
            <g class="cls-28">
              <path class="cls-23" d="M752.6,81.7l1.7.7c-.5.4-1,.8-1.6,1.1-.6.4-1.2.7-1.8,1-.6.3-1.2.6-1.8.8,0-.1-.2-.3-.4-.4s-.3-.3-.5-.5c-.2-.2-.3-.3-.5-.4.6-.2,1.2-.4,1.8-.6.6-.2,1.2-.5,1.7-.8.5-.3,1-.6,1.4-.9ZM748.1,74.7h17.7v1.5h-17.7v-1.5ZM750.3,67.8h13.4v5.8h-13.4v-5.8ZM750.8,77.1h12.6v4.2h-12.6v-4.2ZM752.1,69v1.1h9.7v-1.1h-9.7ZM752.1,71.3v1.1h9.7v-1.1h-9.7ZM752.6,78.4v1.6h8.9v-1.6h-8.9ZM756.1,80.6h1.9v3.4c0,.4,0,.8-.2,1-.1.2-.4.4-.7.5-.3.1-.8.2-1.2.2-.5,0-1.1,0-1.8,0,0-.2-.1-.5-.2-.8-.1-.3-.2-.5-.3-.7.3,0,.6,0,.9,0,.3,0,.6,0,.8,0h.5c.1,0,.2,0,.3,0,0,0,0-.1,0-.2v-3.3ZM755.5,73.9l1.7-.5c.2.3.4.5.6.9.2.3.4.6.4.9l-1.7.6c0-.3-.2-.6-.4-.9-.2-.4-.4-.7-.6-.9ZM759.3,82.8l1.2-1.1c.6.2,1.2.4,1.9.7.7.3,1.3.6,1.9.9s1.1.6,1.5.8l-1.3,1.2c-.4-.3-.9-.5-1.4-.8-.6-.3-1.2-.6-1.9-.9-.7-.3-1.3-.6-1.9-.8Z"/>
              <path class="cls-23" d="M770.2,74.8l1.3.4c-.2.6-.5,1.2-.9,1.9-.3.6-.7,1.2-1.1,1.8-.4.5-.7,1-1.1,1.5,0-.1-.1-.2-.2-.4-.1-.2-.2-.3-.3-.5s-.2-.3-.3-.4c.5-.5,1-1.2,1.5-1.9s.9-1.5,1.1-2.3ZM767.7,68.3h3.5v1.4h-3.5v-1.4ZM768.4,71.1h3.8v3.7h-3.8v-3.7ZM770.7,76.3h6.4v1.3h-6.4v8h-1.4v-7.8l1.2-1.5h.2ZM769.5,72.2v1.6h1.5v-1.6h-1.5ZM770.2,83.4h6.8v1.3h-6.8v-1.3ZM770.4,67.1h1.5v3.7h-1.5v-3.7ZM770.4,78.7h6.2v1.2h-6.2v-1.2ZM770.4,81h6.4v1.2h-6.4v-1.2ZM772.5,75.4l1.2-.5c.2.3.4.5.5.9.2.3.3.6.3.9l-1.2.6c0-.3-.2-.5-.3-.9-.1-.3-.3-.6-.5-.9ZM772.9,77.2h1.5v6.5h-1.5v-6.5ZM773.1,71.1h3.8v3.7h-3.8v-3.7ZM773.5,67.1h1.5v3.7h-1.5v-3.7ZM774.2,68.3h3.3v1.4h-3.3v-1.4ZM774.2,72.2v1.6h1.5v-1.6h-1.5ZM779.5,78.5h1.6c0,1.1-.2,2-.4,2.9-.2.9-.6,1.7-1.1,2.4-.5.7-1.2,1.3-2.1,1.8-.1-.2-.3-.5-.5-.8-.2-.3-.4-.5-.6-.6.8-.4,1.4-.9,1.8-1.5s.7-1.2.9-2c.2-.7.3-1.5.3-2.4ZM777.8,67.8h7.5v11.3h-7.5v-11.3ZM779.4,69.5v1.6h4.3v-1.6h-4.3ZM779.4,72.7v1.6h4.3v-1.6h-4.3ZM779.4,75.8v1.6h4.3v-1.6h-4.3ZM782.1,78.5h1.5v5c0,.2,0,.3,0,.4,0,0,.1,0,.2,0h.6c.1,0,.2,0,.3-.2,0-.1,0-.4.1-.7s0-1,0-1.8c.1.1.4.3.6.4.3.1.5.2.7.3,0,.9-.1,1.7-.2,2.2-.1.5-.3.9-.5,1.1-.2.2-.5.3-.9.3h-1c-.4,0-.7,0-1-.2-.2-.1-.4-.3-.5-.6,0-.3-.1-.7-.1-1.2v-5Z"/>
              <path class="cls-23" d="M787.9,70.5h7.7v1.5h-7.7v-1.5ZM788.7,73.2h6v1.5h-6v-1.5ZM788.7,75.9h6.1v1.5h-6.1v-1.5ZM788.7,78.6h1.6v6.9h-1.6v-6.9ZM789.5,78.6h5.2v6h-5.2v-1.6h3.6v-2.9h-3.6v-1.5ZM790,67.8l1.5-.7c.3.4.6.9.9,1.4.3.5.5.9.7,1.3l-1.5.8c-.2-.4-.4-.8-.6-1.3-.3-.5-.5-1-.8-1.4ZM803.5,75.9h.7c0,0,1.2.4,1.2.4-.4,1.3-.9,2.5-1.5,3.5-.6,1-1.4,1.9-2.2,2.7-.8.8-1.8,1.4-2.8,1.9-1,.5-2.1.9-3.2,1.3,0-.2-.1-.4-.2-.6s-.2-.4-.3-.6c-.1-.2-.2-.4-.4-.5,1-.2,2-.6,3-1,.9-.4,1.8-1,2.6-1.7.8-.7,1.5-1.4,2-2.3.6-.9,1-1.8,1.3-2.9v-.3ZM797.1,67.8h1.7v2.2c0,.6,0,1.3-.2,1.9s-.4,1.3-.9,1.9-1.1,1.2-1.9,1.6c0-.1-.2-.3-.4-.5-.2-.2-.3-.4-.5-.5-.2-.2-.3-.3-.4-.4.7-.4,1.3-.8,1.6-1.3.4-.5.6-.9.7-1.4.1-.5.2-1,.2-1.4v-2.2ZM795.3,75.9h8.8v1.8h-8.8v-1.8ZM797.7,77.5c.5,1.1,1.2,2,2,2.9.8.9,1.8,1.6,3,2.2,1.1.6,2.4,1,3.8,1.3-.1.1-.3.3-.4.5-.1.2-.3.4-.4.6-.1.2-.2.4-.3.6-2.2-.5-4-1.5-5.6-2.8-1.5-1.3-2.7-2.9-3.6-4.8l1.6-.6ZM797.5,67.8h5.2v1.8h-5.2v-1.8ZM801.8,67.8h1.7v4.5c0,.3,0,.5,0,.6,0,.1.1.2.2.2h1c.1,0,.3,0,.5,0,.2,0,.3,0,.4,0,0,.2,0,.5,0,.8s0,.6,0,.8c-.1,0-.3,0-.5.1-.2,0-.4,0-.6,0h-1.2c-.5,0-.9,0-1.2-.2-.3-.2-.4-.4-.5-.8s-.1-.8-.1-1.4v-4.5Z"/>
              <path class="cls-23" d="M808.2,70.5h8.4v1.5h-8.4v-1.5ZM809.1,73.2h6.6v1.5h-6.6v-1.5ZM809.1,75.9h6.6v1.5h-6.6v-1.5ZM809.2,78.6h1.6v6.9h-1.6v-6.9ZM810,78.6h5.7v6h-5.7v-1.6h4v-2.9h-4v-1.5ZM810.5,67.8l1.5-.7c.3.4.6.9.9,1.4.3.5.5.9.7,1.3l-1.5.8c-.1-.4-.4-.8-.6-1.3-.3-.5-.6-1-.8-1.4ZM816.5,73.9h9.7v1.9h-9.7v-1.9ZM820.3,67.5h2v18.2h-2v-18.2Z"/>
              <path class="cls-23" d="M828,80.3h18v1.5h-18v-1.5ZM828.4,74.3h17.3v3.9h-1.9v-2.5h-13.6v2.5h-1.8v-3.9ZM833.5,67.3l.8,1.1c-.6.2-1.3.4-2,.6-.8.2-1.5.3-2,.4l-.7-1.1c.4,0,.8-.2,1.3-.3.5-.1,1-.2,1.4-.4s.9-.3,1.2-.4ZM829.6,68.3l1.8.5.4,6.2h-1.8l-.4-6.7ZM830.5,70h3.7v1.2h-3.7v-1.2ZM830.6,72.1h3.7v1.2h-3.7v-1.2ZM831.8,76.8h9.2v1.4h-9.2v-1.4ZM836.3,79.6h1.9v4.2c0,.5,0,.8-.2,1-.1.2-.4.4-.7.6-.4.1-.8.2-1.4.2-.5,0-1.2,0-2,0,0-.2-.1-.5-.2-.8-.1-.3-.2-.6-.4-.8.4,0,.8,0,1.1,0,.4,0,.7,0,.9,0h.5c.2,0,.3,0,.3,0,0,0,0-.1,0-.3v-4.2ZM837.9,70.6l1.3.4c-.5.7-1.1,1.3-1.8,1.8-.7.6-1.4,1.1-2.2,1.5,0-.1-.2-.3-.5-.5-.2-.2-.4-.4-.5-.5.7-.3,1.4-.7,2.1-1.2.7-.5,1.2-1,1.6-1.5ZM837.9,67.3l1.3.4c-.4.6-1,1.2-1.7,1.7s-1.4,1-2,1.4c-.1-.1-.3-.3-.5-.5s-.4-.3-.6-.4c.7-.3,1.4-.7,2-1.2.6-.4,1.1-.9,1.5-1.4ZM834.7,71.6l.9-.8c.5.2.9.5,1.4.7.5.3.9.6,1.4.9.4.3.8.6,1.1.8l-1,.9c-.3-.3-.6-.5-1-.8-.4-.3-.9-.6-1.4-.9-.5-.3-.9-.6-1.4-.8ZM834.8,68.3l.9-.8c.4.2.9.4,1.3.7.5.3.9.5,1.3.8s.8.5,1,.8l-.9.9c-.3-.2-.6-.5-1-.8s-.8-.6-1.3-.8c-.5-.3-.9-.5-1.4-.7ZM840.5,76.8h.9c0,0,1.1.9,1.1.9-.5.4-1,.7-1.6,1.1s-1.2.7-1.8,1c-.6.3-1.2.6-1.8.8-.1-.2-.2-.3-.4-.5s-.3-.3-.5-.5c.5-.2,1-.4,1.6-.7s1-.6,1.5-.9.8-.6,1.1-.8v-.3ZM839.7,67.8h3.8v1.2h-3.8v-1.2ZM839.8,72.1h3.5v1.2h-3.5v-1.2ZM839.9,70h3.5v1.2h-3.5v-1.2ZM842.8,67.8h1.8c0,.8,0,1.6-.1,2.5s-.1,1.7-.2,2.6c0,.8-.1,1.5-.2,2.1h-1.8c0-.6.2-1.4.2-2.2,0-.8.1-1.7.2-2.6,0-.9,0-1.7.1-2.5Z"/>
              <path class="cls-23" d="M850,73.5l1.2.4c-.3.7-.6,1.3-1.1,2s-.9,1.2-1.4,1.6c-.1-.2-.3-.4-.5-.7-.2-.2-.4-.4-.6-.6.3-.2.6-.4,1-.7.3-.3.6-.6.9-1,.3-.4.5-.7.7-1ZM851.4,77.1h1.6v2.1c0,.5,0,1.1-.1,1.7s-.3,1.2-.6,1.7-.7,1.1-1.3,1.6c-.6.5-1.4,1-2.4,1.4,0-.1-.2-.3-.3-.5-.1-.2-.2-.3-.4-.5s-.3-.3-.4-.4c.9-.3,1.5-.7,2-1.1s.9-.8,1.1-1.3c.3-.4.4-.9.5-1.3,0-.5.1-.9.1-1.3v-2ZM847.9,71.5h8.7v1.5h-8.7v-1.5ZM847.9,78.8h8.8v1.6h-8.8v-1.6ZM848.3,68.3l1.3-.5c.2.4.5.8.7,1.2.2.4.4.8.4,1.2l-1.4.6c0-.3-.2-.7-.4-1.2s-.4-.9-.7-1.3ZM851.5,67.2h1.7v9.4h-1.7v-9.4ZM851.5,82.1l1-1.2c.4.2.9.5,1.3.8.5.3.9.6,1.4.9.4.3.8.6,1.1.8l-1,1.3c-.3-.2-.6-.5-1-.8-.4-.3-.9-.6-1.4-1-.5-.3-.9-.6-1.3-.9ZM854.2,73.6c.1,0,.3.2.6.4.3.2.5.4.8.6.3.2.5.4.8.6.2.2.4.3.5.4l-1,1.2c-.1-.2-.3-.4-.5-.6-.2-.2-.5-.5-.7-.7-.3-.3-.5-.5-.7-.7-.2-.2-.4-.4-.6-.5l1-.7ZM853.7,77.5l1.1-.7c.3.2.5.5.8.8.3.3.5.6.6.8l-1.1.8c-.1-.2-.3-.5-.6-.8-.3-.3-.5-.6-.8-.8ZM854.8,67.9l1.6.4c-.2.5-.5.9-.7,1.4s-.5.8-.7,1.2l-1.2-.4c.2-.4.4-.8.6-1.3.2-.5.4-.9.5-1.3ZM859.5,82.1l1.6,1c-.3.3-.7.7-1.1,1-.4.3-.9.7-1.3,1s-.9.5-1.4.8c-.1-.2-.3-.4-.6-.6-.2-.2-.5-.4-.6-.6.4-.2.9-.4,1.3-.7.4-.3.8-.6,1.2-.9.4-.3.7-.6.9-.9ZM856.8,68h9.4v1.6h-9.4v-1.6ZM857.5,71.3h8v10.5h-8v-10.5ZM859.2,72.7v1.6h4.5v-1.6h-4.5ZM859.2,75.7v1.6h4.5v-1.6h-4.5ZM859.2,78.7v1.7h4.5v-1.7h-4.5ZM860.4,68.9l2.1.3c-.2.6-.4,1.2-.6,1.8-.2.6-.4,1.1-.6,1.5l-1.6-.3c0-.3.2-.6.3-1s.2-.8.3-1.1c0-.4.1-.7.2-1ZM861.8,83l1.4-.9c.4.2.8.5,1.2.8s.8.6,1.2.9c.4.3.7.6,1,.8l-1.5,1c-.2-.2-.5-.5-.9-.8-.4-.3-.8-.6-1.2-1-.4-.3-.8-.6-1.2-.9Z"/>
            </g>
          </g>
        </g>
        <g id="_圖層_1-3" data-name="_圖層_1">
          <g id="_圖層_1-2-5" data-name="_圖層_1-2">
            <g id="_圖層_1-2-6" data-name="_圖層_1-2">
              <g>
                <g>
                  <path class="cls-26" d="M718.3,74.6c-.2.2-.4.3-.7.3-.4,0-1.1-.1-1.7-.6-.8-.8-1.1-1.3-1.1-1.3,0,0,2.1-.6,3.2.4.6.5.5.9.3,1.2Z"/>
                  <path class="cls-8" d="M717.9,62.7c0,0-.1,1.7.8,2.3s2.3,1.6,2.9,1c.7-.6-.4-2.4-1.2-2.5-.8-.1-2.3-.3-2.5-.8h0Z"/>
                  <path class="cls-43" d="M716.5,70.5c-.2.1-.5.1-.8,0-.4-.1-1-.5-1.3-1.2-.5-1-.6-1.6-.6-1.6,0,0,2.1.2,2.8,1.5.4.7.1,1.1-.1,1.2Z"/>
                  <path class="cls-8" d="M731.2,75.6c-.3,0-.5-.3-.6-.5-.2-.4-.4-1-.1-1.8.4-1.1.7-1.6.7-1.6,0,0,1.4,1.6,1,3-.2.8-.6.9-.9.8h0Z"/>
                  <path class="cls-26" d="M721.8,66.2c0,.3-.2.5-.4.6-.3.2-1,.5-1.7.3-1.1-.2-1.6-.5-1.6-.5,0,0,1.5-1.6,2.9-1.3.8.1.9.5.9.9h0Z"/>
                  <path class="cls-43" d="M721.9,70.2s0-1.7-1.1-2.1c-1.1-.4-1.8-1.7-1.8-1.7,0,0-.7,3.1.9,3.9,1.6.8,2.4.3,2.4.3l-.5-.4Z"/>
                  <path class="cls-43" d="M729.9,68.3c-.2-.1-.4-.3-.5-.6,0-.4-.2-1.1.2-1.8.5-1,.9-1.4.9-1.4,0,0,1.1,1.8.5,3.2-.3.7-.8.7-1.1.6h0Z"/>
                  <path class="cls-26" d="M730.4,68.3s2.5-.6,3,1.4c0,0-3.5.5-3.8-1.1-.1-.6.8-.3.8-.3h0Z"/>
                  <path class="cls-26" d="M730.2,71.8s1-.6,2.1-.1c1.1.4,1.5.8,1.5.8,0,0-1.7,1.3-3.1.8-1.4-.5-.4-1.4-.4-1.4h0Z"/>
                  <path class="cls-26" d="M731,71.4s.5-1,1.6-1.3,1.7-.3,1.7-.3c0,0-.6,2.1-2,2.5s-1.2-.9-1.2-.9h0Z"/>
                  <path class="cls-43" d="M732.6,74.3s1-.5,2.1,0c1,.5,1.5.9,1.5.9,0,0-1.8,1.2-3.1.6-1.3-.6-.4-1.4-.4-1.4h0Z"/>
                  <path class="cls-26" d="M718.1,79s-1.1.4-2-.2-1.3-1-1.3-1c0,0,1.9-.9,3.2-.2,1.3.7.2,1.5.2,1.5h0Z"/>
                  <path class="cls-26" d="M720.4,78.3s.3,1.1-.4,2c-.7.9-1.1,1.3-1.1,1.3,0,0-.8-2,0-3.2.8-1.2,1.5,0,1.5,0h0Z"/>
                  <path class="cls-8" d="M719.3,73.2s-1.6-.6-1.3-2.5l1.1.3s1.9,1.3,1.7,3l-1.5-.8h0Z"/>
                  <path class="cls-43" d="M716.9,70.4c0,0-1.2,1.1-.9,3.2,0,0,1-.4,1.3-1.2.3-.7.7-2,.7-2h-1.1c0-.1,0-.1,0-.1h0Z"/>
                  <polygon class="cls-8" points="721.8 74.9 717.3 75.6 717.4 76 722.8 76 721.8 74.9"/>
                  <path class="cls-43" d="M719.5,74.6s-2.1-.1-2.9.7c-.8.8-1.8,1.4-1.8,1.4,0,0,1.6.4,2.7,0,1.2-.4,2-2.1,2-2.1h0Z"/>
                  <path class="cls-43" d="M721.5,80.2s-1.7.3-2.2,2.3c0,0,1.2,0,1.5-.1.9-.3,1.4-1.1,1.3-1.7s-.6-.5-.6-.5Z"/>
                  <path class="cls-26" d="M731.9,77.1c.2-.2.5-.2.8-.1.4.1,1,.4,1.4,1.1.6,1,.7,1.5.7,1.5,0,0-2.2,0-2.9-1.3-.4-.7-.2-1,0-1.2h0Z"/>
                  <path class="cls-26" d="M722.7,71.3s-1,.6-2.1.2-1.5-.7-1.5-.7c0,0,1.7-1.3,3.1-.9,1.4.5.5,1.4.5,1.4h0Z"/>
                  <path class="cls-8" d="M720.5,78.4s2.6.4,2.6,1.9l-1.2.4s-1.7-1-1.4-2.3h0Z"/>
                  <path class="cls-26" d="M728.3,64c-.2-.2-.3-.4-.3-.7,0-.4,0-1.1.6-1.7.8-.8,1.2-1.1,1.2-1.1,0,0,.6,2.1-.4,3.2-.5.6-.9.5-1.2.3h0Z"/>
                  <path class="cls-8" d="M722,67.2c-.2-.2-.3-.4-.3-.7,0-.4,0-1.1.6-1.7.8-.8,1.2-1.1,1.2-1.1,0,0,.6,2.1-.4,3.2-.5.6-.9.5-1.2.3Z"/>
                  <path class="cls-43" d="M727.9,72.5c-.3,0-.5,0-.8-.1-.3-.2-.9-.7-1.1-1.4-.3-1.1-.3-1.7-.3-1.7,0,0,2.1.6,2.5,2,.2.8,0,1.1-.4,1.2Z"/>
                  <path class="cls-8" d="M727.6,69.6s.3,3.6,0,4.4l1-.8s-.5-3.8-.5-3.8-.4.2-.4.2h0Z"/>
                  <path class="cls-43" d="M728.1,65.5s-1.3-1.6-2.2-1.8c0,0-.4,2.6,1.9,3.4l.4-1.5Z"/>
                  <path class="cls-26" d="M725.3,76.2c0-.3.2-.5.5-.6.4-.2,1-.4,1.8-.2,1.1.3,1.6.6,1.6.6,0,0-1.6,1.4-3,1-.8-.2-.9-.6-.8-.9h0Z"/>
                  <polygon class="cls-8" points="727.9 63.3 727.2 68.5 728.2 67.2 728.2 63 727.9 63.3"/>
                  <path class="cls-8" d="M728.4,66.5l-4.6,5.2,1.2,1.5,4.1-6.5c0-.1.1-.3.1-.4s0-.3-.4-.1c-.1,0-.2.2-.3.3h0Z"/>
                  <polygon class="cls-8" points="727.6 68.7 731 67.5 731.2 68.1 726.6 70.1 727.6 68.7"/>
                  <path class="cls-8" d="M725.2,66.2l-.2,4.7s1.1-.8,1.1-1c0-.1-.2-2.6-.3-3.8,0,0,0-.1-.1-.2-.2-.2-.5,0-.5.2h0Z"/>
                  <path class="cls-43" d="M726,68.7s.2-.9-1.1-1.8c-.6-.4-1-.8-1-.8,0,0-.7,1.1.3,2.2,1.1,1.2,1.7.4,1.7.4h0Z"/>
                  <path class="cls-26" d="M729.3,71.5c-.3,0-.5-.2-.6-.5-.2-.3-.4-1-.3-1.8.3-1.1.5-1.6.5-1.6,0,0,1.5,1.5,1.2,3-.2.8-.6.9-.9.9h0Z"/>
                  <path class="cls-26" d="M722.8,79.1s-1.6-2.1-.5-3.1l1.1.5s.5,1.9-.6,2.6Z"/>
                  <path class="cls-26" d="M721.6,74.7c0-.1-.6-1.8.7-2.8,0,0,2.2,2.8.9,4-1.2,1.2-1.6-1.1-1.6-1.1h0Z"/>
                  <path class="cls-8" d="M719.4,73.9s2.5,1,5,5v-2.3c-.1,0-2.8-3.6-4.6-3.5-1.8,0-.4.8-.4.8h0Z"/>
                  <path class="cls-8" d="M723,71l-6-1v.8c0,0,5.9,1.8,6.3,2.2.4.4.1-1.6.1-1.6l-.5-.3h0Z"/>
                  <path class="cls-8" d="M725.2,80.8s2.9-2.7,3.9-5.4c.9-2.7,1-4.9,1.4-4.9.4,0,.4,1,.3,1.7s-1.6,4.4-2.1,5.5-3.9,5.8-3.9,5.8l.4-2.6h0Z"/>
                  <path class="cls-8" d="M723.2,89.4s1.9-.8,1.1-9.4c-.8-8.5-1.7-9.2-1.7-9.2l.4-1.3s2.1,3.4,2.2,5.8c0,2.4.6,8.9.6,10.1,0,1.2.7,4.2,1.3,4.5s-3.9-.5-3.9-.5h0Z"/>
                  <path class="cls-26" d="M728.5,80.8c-.9.2-1.2,1.3-.4,1.9.4.3.9.6,1.4.5,1.2-.2,1.6-.5,1.6-.5,0,0-.8-1.7-1.8-1.9-.2,0-.4,0-.7,0h0Z"/>
                  <path class="cls-8" d="M732.4,74.9c-1.4.1-3.3,1.4-3.3,1.4l-.4,1.3s-.4,1.4,0,.1c.4-1.3,3.7-2.2,3.7-2.2v-.6h0Z"/>
                  <path class="cls-8" d="M732.5,77.1c-1.3-.5-3.5-.4-3.5-.4l-1,.9h-.1s4.3-.2,4.3-.2l.3-.4h0Z"/>
                  <polygon class="cls-8" points="721 65.7 723.6 72 724.6 71.4 721.7 65.1 721 65.7"/>
                  <path class="cls-8" d="M724.7,80.9c-.1,0-4.8-3.6-4.8-3.6l-.6.6s5.1,4,5.3,5.6c.3,1.6.8-2,.8-2l-.8-.6h0Z"/>
                  <polygon class="cls-8" points="725.2 82.5 729.7 80.2 729.9 80.6 725.5 84.2 725.2 82.5"/>
                  <path class="cls-8" d="M725,75.9c1.2-.8,2.4-2,3.6-3.6l1.7-2.3h0c.2,0,.4.3.2.5l-1,1.7c-.9,1.6-2.1,3-3.4,4.1l-1.2,1s0-1.6,0-1.5h0Z"/>
                  <path class="cls-43" d="M724.6,74.3c.2-.2.5-.2.8-.1.4.1,1,.4,1.4,1.1.6,1,.7,1.5.7,1.5,0,0-2.2,0-2.9-1.3-.4-.7-.2-1,0-1.2h0Z"/>
                  <path class="cls-26" d="M728.8,76.7c-.3,0-.5-.3-.6-.5-.1-.4-.3-1.1,0-1.8.4-1.1.8-1.5.8-1.5,0,0,1.3,1.7.8,3.1-.3.8-.7.8-1,.7h0Z"/>
                  <path class="cls-43" d="M728.1,77.7c.1-.2.3-.4.6-.5.4-.1,1.1-.2,1.8.1,1,.5,1.4.9,1.4.9,0,0-1.8,1.1-3.2.5-.7-.3-.8-.7-.6-1h0Z"/>
                  <path class="cls-26" d="M726.1,77.2c-.8-.4-1.7.3-1.5,1.2.1.5.4,1,.8,1.2,1.1.6,1.6.6,1.6.6,0,0,.4-1.9-.3-2.6-.2-.2-.3-.3-.5-.4h0Z"/>
                  <path class="cls-26" d="M724.2,72.9c0-.3,0-.5.1-.8.2-.3.7-.8,1.5-1,1.1-.2,1.7-.2,1.7-.2,0,0-.7,2-2.1,2.4-.8.2-1.1-.1-1.1-.4h0Z"/>
                  <path class="cls-43" d="M725.3,68.6c-.2-.2-.3-.4-.3-.7,0-.4,0-1.1.6-1.7.8-.8,1.2-1.1,1.2-1.1,0,0,.6,2.1-.4,3.2-.5.6-.9.5-1.2.3Z"/>
                  <path class="cls-26" d="M723.1,71.2c-.3,0-.5-.3-.6-.5-.1-.4-.3-1.1,0-1.8.4-1.1.7-1.5.7-1.5,0,0,1.3,1.7.9,3.1-.3.8-.7.8-1,.7h0Z"/>
                  <path class="cls-26" d="M728.5,89c0,0-.2,0-.3,0-.2,0-.4-.2-.6-.2,0-.6-.5-1.1-1.1-1.1s-1.1.5-1.1,1.1,0,.1,0,.2c-.2,0-.4.2-.5.4,0,0,0,0,0,0,0-.1,0-.3,0-.5,0-.6-.5-1.1-1.1-1.1s-1,.4-1.1,1c0,0-.1,0-.2,0-.2-.3-.5-.4-.9-.4-.6,0-1.1.5-1.1,1.1s0,.2,0,.3h8.9c0-.5-.5-.9-1.1-.9h0,0Z"/>
                </g>
                <g>
                  <path class="cls-27" d="M707.8,86.2h12.1c.4,0,.6.3.6.6v.4c0,.4-.3.6-.6.6h-12.1c-.4,0-.6-.3-.6-.6v-.4c0-.4.3-.6.6-.6Z"/>
                  <g>
                    <rect class="cls-43" x="709.9" y="80.2" width="7.8" height="4.9"/>
                    <path class="cls-5" d="M710.1,87.9v1.3c0,.4-.3.7-.7.7h-.2c-.4,0-.7-.3-.7-.7v-1.3"/>
                    <path class="cls-5" d="M719.2,87.9v1.4c0,.4-.3.7-.7.7h-.2c-.4,0-.7-.3-.7-.7v-1.4"/>
                    <path class="cls-5" d="M717.6,86.2v-6.1c0-.4.3-.7.7-.7h.2c.4,0,.7.3.7.7v6.1"/>
                    <path class="cls-2" d="M717.6,86.2v-6.1"/>
                    <path class="cls-5" d="M708.4,86.2v-6.1c0-.4.3-.7.7-.7h.2c.4,0,.7.3.7.7v6.1"/>
                    <path class="cls-2" d="M710.1,80.1v6.1"/>
                  </g>
                </g>
              </g>
            </g>
          </g>
        </g>
      </g>
      <g id="b70">
        <g id="ro_hs64h9nwxxjj-fill">
          <path class="cls-14" d="M480.9,274h167.1s11.9,0,11.9,12v30s0,12-11.9,12h-167.1s-11.9,0-11.9-12v-30s0-12,11.9-12"/>
        </g>
        <g id="tx__13yn60dnwxybp-fill">
          <g class="cls-28">
            <g class="cls-28">
              <path class="cls-23" d="M534.9,292.9l1.7.5c-1.1,2.6-2.5,4.8-4.2,6.8-1.7,1.9-3.7,3.5-5.9,4.7,0-.1-.1-.3-.3-.5-.1-.2-.3-.4-.4-.6-.1-.2-.3-.3-.4-.5,2.2-1.1,4.1-2.5,5.7-4.2,1.6-1.8,2.9-3.8,3.8-6.2ZM525.8,298.1h10.3v1.7h-10.3v-1.7ZM526.7,294.3h7v1.7h-7v-1.7ZM529.5,301.5h4.7v1.5h-4.7v7.6h-1.7v-8l1-1.1h.7ZM528.9,304.7h5.4v1.5h-5.4v-1.5ZM528.9,307.9h5.4v1.5h-5.4v-1.5ZM529.6,292.3h1.8v6.9h-1.8v-6.9ZM533.5,301.5h1.8v8.8h-1.8v-8.8ZM536.9,293.2h5.9v1.8h-4.1v15.7h-1.9v-17.4ZM542.4,293.2h.6c0,0,1.4.8,1.4.8-.4.9-.8,2-1.3,3s-.9,2.1-1.4,3c.7.6,1.1,1.2,1.5,1.8.3.6.6,1.1.7,1.6s.2,1,.2,1.5c0,.7,0,1.2-.2,1.7-.2.5-.4.8-.8,1.1-.4.2-.8.4-1.4.5-.2,0-.5,0-.9,0s-.6,0-1,0c0-.3,0-.6-.1-.9,0-.4-.2-.7-.4-.9.3,0,.6,0,.8,0,.3,0,.5,0,.7,0,.2,0,.3,0,.5,0s.3,0,.4-.2c.2-.1.4-.3.4-.6,0-.3.1-.6.1-.9,0-.6-.2-1.3-.5-2-.3-.7-1-1.5-1.9-2.3.2-.5.5-1.1.7-1.6s.5-1.2.7-1.8c.2-.6.4-1.1.6-1.7.2-.5.4-1,.5-1.4v-.6Z"/>
              <path class="cls-23" d="M545.9,294.8h18.2v1.9h-18.2v-1.9ZM547.9,299.1h13.2v1.8h-11.3v7.2h-1.9v-9ZM554,292.1h2v18.6h-2v-18.6ZM560.3,299.1h2v6.7c0,.5,0,.9-.2,1.2-.1.3-.4.5-.7.7-.4.1-.8.2-1.3.2-.5,0-1.2,0-2,0,0-.3-.1-.6-.2-.9-.1-.4-.3-.7-.4-.9.4,0,.7,0,1.1,0,.3,0,.6,0,.9,0,.3,0,.4,0,.5,0,.2,0,.3,0,.3,0,0,0,0-.1,0-.2v-6.7Z"/>
              <path class="cls-23" d="M569,292.3h1.8v7c0,.9,0,1.9-.1,2.9s-.2,2-.5,3c-.3,1-.6,1.9-1.1,2.8-.5.9-1.2,1.7-2.1,2.4,0-.1-.2-.3-.4-.5-.1-.2-.3-.3-.5-.5-.2-.2-.3-.3-.5-.4.8-.6,1.4-1.3,1.9-2.1.5-.8.8-1.6,1-2.5.2-.9.3-1.8.4-2.6s0-1.7,0-2.5v-7.1ZM565.8,300h7.9v1.7h-7.9v-1.7ZM566.2,295.3h7.2v1.7h-7.2v-1.7ZM570.4,302.4c.1.1.3.3.6.6.2.3.5.6.8.9.3.3.6.7.9,1,.3.3.6.6.8.9.2.3.4.5.5.6l-1.3,1.4c-.2-.3-.4-.6-.7-1-.3-.4-.6-.8-1-1.2-.3-.4-.7-.8-1-1.2-.3-.4-.6-.7-.8-.9l1.2-.9ZM576,303.9h1.8c0,.8-.2,1.5-.4,2.2s-.5,1.3-.8,1.9c-.3.6-.8,1.1-1.4,1.5-.6.5-1.3.8-2.2,1.2,0-.2-.2-.5-.5-.8-.2-.3-.4-.5-.6-.7,1.1-.3,1.9-.8,2.4-1.3.6-.5,1-1.1,1.2-1.8.2-.7.4-1.5.5-2.3ZM574.5,292.9h8.7v11.3h-8.7v-11.3ZM576.2,294.6v1.6h5.1v-1.6h-5.1ZM576.2,297.7v1.6h5.1v-1.6h-5.1ZM576.2,300.9v1.6h5.1v-1.6h-5.1ZM579.2,303.5h1.8v4.6c0,.3,0,.4,0,.5,0,0,.2.1.3.1h1c.1,0,.2,0,.3-.2,0-.1.1-.4.1-.7,0-.4,0-.9,0-1.7.1.1.3.2.5.3.2,0,.4.2.6.2.2,0,.4.1.5.2,0,.9-.1,1.7-.3,2.2-.1.5-.3.9-.6,1-.3.2-.6.3-1,.3h-1.5c-.5,0-.9,0-1.2-.2-.3-.1-.5-.4-.6-.7s-.1-.8-.1-1.3v-4.6Z"/>
              <path class="cls-23" d="M585.7,308.7c1,0,2.1,0,3.3-.1s2.6,0,4-.2c1.4,0,2.8-.1,4.2-.2v1.4c-1.4,0-2.8.1-4.1.2-1.4,0-2.7.1-3.9.2-1.2,0-2.3.1-3.3.1v-1.5ZM585.8,295.2h11.5v1.2h-11.5v-1.2ZM585.9,301.2h11.3v1.3h-11.3v-1.3ZM586.8,299.3h9.6v1.1h-9.6v-1.1ZM587,293.3h9.1v5.2h-9.2v-1.1h7.6v-3h-7.5v-1.1ZM587,303.1h9.2v4.5h-9.2v-4.5ZM588.5,304.1v.8h6.1v-.8h-6.1ZM588.5,305.9v.8h6.1v-.8h-6.1ZM590.6,292.1h1.7v9.9h-1.7v-9.9ZM590.7,303.5h1.6v3.8h-1.6v-3.8ZM597.9,294.5h1.7v11.2h-1.7v-11.2ZM601.7,292.5h1.8v15.9c0,.5,0,1-.2,1.2-.1.3-.4.5-.7.6-.3.2-.7.3-1.3.3-.5,0-1.2,0-2,0,0-.2-.1-.5-.2-.9-.1-.4-.2-.7-.4-.9.6,0,1.1,0,1.5,0h.9c.2,0,.3,0,.3,0,0,0,.1-.2.1-.3v-15.9Z"/>
              <path class="cls-23" d="M606,305.3h18v1.5h-18v-1.5ZM606.4,299.3h17.3v3.9h-1.9v-2.5h-13.6v2.5h-1.8v-3.9ZM611.5,292.3l.8,1.1c-.6.2-1.3.4-2,.6-.8.2-1.5.3-2,.4l-.7-1.1c.4,0,.8-.2,1.3-.3.5-.1,1-.2,1.4-.4s.9-.3,1.2-.4ZM607.6,293.3l1.8.5.4,6.2h-1.8l-.4-6.7ZM608.5,295h3.7v1.2h-3.7v-1.2ZM608.6,297.1h3.7v1.2h-3.7v-1.2ZM609.8,301.8h9.2v1.4h-9.2v-1.4ZM614.3,304.6h1.9v4.2c0,.5,0,.8-.2,1-.1.2-.4.4-.7.6-.4.1-.8.2-1.4.2-.5,0-1.2,0-2,0,0-.2-.1-.5-.2-.8-.1-.3-.2-.6-.4-.8.4,0,.8,0,1.1,0,.4,0,.7,0,.9,0h.5c.2,0,.3,0,.3,0,0,0,0-.1,0-.3v-4.2ZM615.9,295.6l1.3.4c-.5.7-1.1,1.3-1.8,1.8-.7.6-1.4,1.1-2.2,1.5,0-.1-.2-.3-.5-.5-.2-.2-.4-.4-.5-.5.7-.3,1.4-.7,2.1-1.2.7-.5,1.2-1,1.6-1.5ZM615.9,292.3l1.3.4c-.4.6-1,1.2-1.7,1.7s-1.4,1-2,1.4c-.1-.1-.3-.3-.5-.5s-.4-.3-.6-.4c.7-.3,1.4-.7,2-1.2.6-.4,1.1-.9,1.5-1.4ZM612.7,296.6l.9-.8c.5.2.9.5,1.4.7.5.3.9.6,1.4.9.4.3.8.6,1.1.8l-1,.9c-.3-.3-.6-.5-1-.8-.4-.3-.9-.6-1.4-.9-.5-.3-.9-.6-1.4-.8ZM612.8,293.3l.9-.8c.4.2.9.4,1.3.7.5.3.9.5,1.3.8s.8.5,1,.8l-.9.9c-.3-.2-.6-.5-1-.8s-.8-.6-1.3-.8c-.5-.3-.9-.5-1.4-.7ZM618.5,301.8h.9c0,0,1.1.9,1.1.9-.5.4-1,.7-1.6,1.1s-1.2.7-1.8,1c-.6.3-1.2.6-1.8.8-.1-.2-.2-.3-.4-.5s-.3-.3-.5-.5c.5-.2,1-.4,1.6-.7s1-.6,1.5-.9.8-.6,1.1-.8v-.3ZM617.7,292.8h3.8v1.2h-3.8v-1.2ZM617.8,297.1h3.5v1.2h-3.5v-1.2ZM617.9,295h3.5v1.2h-3.5v-1.2ZM620.8,292.8h1.8c0,.8,0,1.6-.1,2.5s-.1,1.7-.2,2.6c0,.8-.1,1.5-.2,2.1h-1.8c0-.6.2-1.4.2-2.2,0-.8.1-1.7.2-2.6,0-.9,0-1.7.1-2.5Z"/>
              <path class="cls-23" d="M628,298.5l1.2.4c-.3.7-.6,1.3-1.1,2s-.9,1.2-1.4,1.6c-.1-.2-.3-.4-.5-.7-.2-.2-.4-.4-.6-.6.3-.2.6-.4,1-.7.3-.3.6-.6.9-1,.3-.4.5-.7.7-1ZM629.4,302.1h1.6v2.1c0,.5,0,1.1-.1,1.7s-.3,1.2-.6,1.7-.7,1.1-1.3,1.6c-.6.5-1.4,1-2.4,1.4,0-.1-.2-.3-.3-.5-.1-.2-.2-.3-.4-.5s-.3-.3-.4-.4c.9-.3,1.5-.7,2-1.1s.9-.8,1.1-1.3c.3-.4.4-.9.5-1.3,0-.5.1-.9.1-1.3v-2ZM625.9,296.5h8.7v1.5h-8.7v-1.5ZM625.9,303.8h8.8v1.6h-8.8v-1.6ZM626.3,293.3l1.3-.5c.2.4.5.8.7,1.2.2.4.4.8.4,1.2l-1.4.6c0-.3-.2-.7-.4-1.2s-.4-.9-.7-1.3ZM629.5,292.2h1.7v9.4h-1.7v-9.4ZM629.5,307.1l1-1.2c.4.2.9.5,1.3.8.5.3.9.6,1.4.9.4.3.8.6,1.1.8l-1,1.3c-.3-.2-.6-.5-1-.8-.4-.3-.9-.6-1.4-1-.5-.3-.9-.6-1.3-.9ZM632.2,298.6c.1,0,.3.2.6.4.3.2.5.4.8.6.3.2.5.4.8.6.2.2.4.3.5.4l-1,1.2c-.1-.2-.3-.4-.5-.6-.2-.2-.5-.5-.7-.7-.3-.3-.5-.5-.7-.7-.2-.2-.4-.4-.6-.5l1-.7ZM631.7,302.5l1.1-.7c.3.2.5.5.8.8.3.3.5.6.6.8l-1.1.8c-.1-.2-.3-.5-.6-.8-.3-.3-.5-.6-.8-.8ZM632.8,292.9l1.6.4c-.2.5-.5.9-.7,1.4s-.5.8-.7,1.2l-1.2-.4c.2-.4.4-.8.6-1.3.2-.5.4-.9.5-1.3ZM637.5,307.1l1.6,1c-.3.3-.7.7-1.1,1-.4.3-.9.7-1.3,1s-.9.5-1.4.8c-.1-.2-.3-.4-.6-.6-.2-.2-.5-.4-.6-.6.4-.2.9-.4,1.3-.7.4-.3.8-.6,1.2-.9.4-.3.7-.6.9-.9ZM634.8,293h9.4v1.6h-9.4v-1.6ZM635.5,296.3h8v10.5h-8v-10.5ZM637.2,297.7v1.6h4.5v-1.6h-4.5ZM637.2,300.7v1.6h4.5v-1.6h-4.5ZM637.2,303.7v1.7h4.5v-1.7h-4.5ZM638.4,293.9l2.1.3c-.2.6-.4,1.2-.6,1.8-.2.6-.4,1.1-.6,1.5l-1.6-.3c0-.3.2-.6.3-1s.2-.8.3-1.1c0-.4.1-.7.2-1ZM639.8,308l1.4-.9c.4.2.8.5,1.2.8s.8.6,1.2.9c.4.3.7.6,1,.8l-1.5,1c-.2-.2-.5-.5-.9-.8-.4-.3-.8-.6-1.2-1-.4-.3-.8-.6-1.2-.9Z"/>
            </g>
          </g>
        </g>
        <g id="_圖層_1-4" data-name="_圖層_1">
          <g id="_圖層_1-2-7" data-name="_圖層_1-2">
            <g id="_圖層_1-2-8" data-name="_圖層_1-2">
              <g>
                <rect class="cls-26" x="505.9" y="309.7" width="9.1" height="6.9"/>
                <path class="cls-26" d="M491.5,316.5v-12.2c0-1.2-.9-2.1-2.1-2.1h-4.3c-1.2,0-2.1.9-2.1,2.1v12.2"/>
                <polyline class="cls-30" points="498.7 316.5 498.7 309.5 495.1 306.1 491.5 309.5 491.5 316.5 498.7 316.5"/>
                <polygon class="cls-43" points="497.9 310.6 495.1 307.7 492.4 310.6 492.4 316.5 497.9 316.5 497.9 310.6"/>
                <rect class="cls-26" x="498.7" y="294" width="7.2" height="22.5"/>
                <polygon class="cls-43" points="503.8 307.3 502.4 305.8 501 307.3 502.4 306.5 503.8 307.3"/>
                <polygon class="cls-43" points="503.8 311.1 502.4 309.6 501 311.1 502.4 310.4 503.8 311.1"/>
                <polygon class="cls-43" points="503.8 299.6 502.4 298.2 501 299.6 502.4 298.9 503.8 299.6"/>
                <path class="cls-8" d="M510.5,305.1s0,0,0,0v-11s0,0,0,0,0,0,0,0v11s0,0,0,0Z"/>
                <polyline class="cls-26" points="505.9 291.4 505.9 288.7 502.3 285.1 498.7 288.7 498.7 291.4"/>
                <polyline class="cls-31" points="508.2 307.4 508.2 305 512.7 305 512.7 307.4"/>
                <polyline class="cls-31" points="510.5 309.7 510.5 307.4 515 307.4 515 309.7"/>
                <polyline class="cls-31" points="505.9 309.7 505.9 307.4 510.5 307.4 510.5 309.7"/>
                <path class="cls-26" d="M484.9,302.3v-2.3c0-1.3,1-2.3,2.3-2.3h0c1.3,0,2.3,1,2.3,2.3v2.3"/>
                <path class="cls-8" d="M487.3,297.6s0,0,0,0v-3.1s0,0,0,0,0,0,0,0v3.1s0,0,0,0Z"/>
                <rect class="cls-23" x="494.8" y="310.5" width=".5" height=".9"/>
                <rect class="cls-23" x="494.8" y="313.7" width=".5" height=".9"/>
                <path class="cls-43" d="M490.6,316.5v-11.1c0-1-.7-1.9-1.6-1.9h-3.3c-.9,0-1.6.8-1.6,1.9v11.1"/>
                <rect class="cls-23" x="486.8" y="306.1" width="1" height=".9"/>
                <rect class="cls-23" x="486.8" y="309.9" width="1" height=".9"/>
                <rect class="cls-23" x="486.8" y="313.7" width="1" height=".9"/>
                <path class="cls-8" d="M505.9,316.6s0,0,0,0v-6.8s0,0,0,0,0,0,0,0v6.8s0,0,0,0Z"/>
                <path class="cls-7" d="M512.7,307.4h-4.6s0,0,0,0,0,0,0,0h4.6s0,0,0,0,0,0,0,0Z"/>
                <path class="cls-8" d="M507,316.6h-2.3s0,0,0,0,0,0,0,0h2.3s0,0,0,0,0,0,0,0Z"/>
                <path class="cls-7" d="M510.5,309.7s0,0,0,0v-2.3s0,0,0,0,0,0,0,0v2.3s0,0,0,0Z"/>
                <polygon class="cls-43" points="513.1 294 510.5 291.4 495.9 291.4 491.6 291.4 491.6 294 491.6 295.7 495.9 295.7 495.9 294 513.1 294"/>
                <polygon class="cls-8" points="511.6 293.4 510.1 292 496.2 292 492.3 292 492.3 293.4 492.3 295 495.2 295 495.2 293.4 511.6 293.4"/>
                <polygon class="cls-43" points="503.8 303.5 502.4 302 501 303.5 502.4 302.7 503.8 303.5"/>
              </g>
            </g>
          </g>
        </g>
      </g>
    </g>
  </g>
</svg>