<?xml version="1.0" encoding="UTF-8"?>
<svg xmlns="http://www.w3.org/2000/svg" version="1.1" viewBox="0 0 1130 251">
  <defs>
    <style>
      .cls-1 {
        fill: #fcf0f0;
        stroke: #fd6a65;
      }

      .cls-1, .cls-2, .cls-3 {
        stroke-linejoin: round;
        stroke-width: 2px;
      }

      .cls-1, .cls-3 {
        stroke-linecap: round;
      }

      .cls-4, .cls-5 {
        fill: #572a22;
      }

      .cls-6 {
        fill: #3d2213;
      }

      .cls-6, .cls-7, .cls-5 {
        fill-rule: evenodd;
      }

      .cls-7 {
        fill: #3cc583;
      }

      .cls-8 {
        fill: #c9ccc6;
      }

      .cls-9 {
        fill: #fff;
      }

      .cls-10 {
        fill: #dbb47d;
      }

      .cls-11 {
        fill: #578562;
      }

      .cls-12 {
        isolation: isolate;
      }

      .cls-13 {
        fill: #dae0d1;
      }

      .cls-14 {
        fill: #80492d;
      }

      .cls-15 {
        fill: #c95836;
      }

      .cls-2, .cls-3 {
        fill: none;
        stroke: #484848;
      }

      .cls-16, .cls-17 {
        fill: #484848;
      }

      .cls-18 {
        fill: #a65f3a;
      }

      .cls-19 {
        fill: #fd6a65;
      }

      .cls-20 {
        fill: #2d2222;
      }

      .cls-3 {
        stroke-dasharray: 5 7;
      }

      .cls-17 {
        opacity: 0;
      }

      .cls-21 {
        fill: #4a2a1a;
      }
    </style>
  </defs>
  <!-- Generator: Adobe Illustrator 28.7.9, SVG Export Plug-In . SVG Version: 1.2.0 Build 218)  -->
  <g>
    <g id="_x32_2_x5F_獸醫學門">
      <g id="g-root-cu_hx51q5qex3i8-stroke">
        <g id="cu_hx51q5qex3i8-stroke">
          <path class="cls-2" d="M541.9,104.7h3.1c4,0,8.3-1.3,12.4-3.7,2.5-1.4,5.6-4.9,8.5-9.8,2.9-4.9,6-8.4,8.5-9.8,4.1-2.4,8.4-3.7,12.4-3.7h3.1"/>
        </g>
      </g>
      <g id="g-root-cu_1urs265qex2j2-stroke">
        <g id="cu_1urs265qex2j2-stroke">
          <path class="cls-3" d="M619.6,105v12c0,6.6,5.4,12,12,12h6"/>
        </g>
      </g>
      <g id="c187">
        <g id="tx__2qnstqeubka-fill">
          <g class="cls-12">
            <g class="cls-12">
              <path class="cls-16" d="M644.8,131.2h10.5v1.1h-10.5v-1.1ZM645.5,120.6h4v3.6h-4v-3.6ZM645.7,124.9h8.7v5.4h-8.7v-5.4ZM646,133.2h8.1v4.6h-1.3v-3.6h-5.5v4h-1.2v-5ZM646.5,121.5v1.8h1.9v-1.8h-1.9ZM646.6,136.3h6.7v1h-6.7v-1ZM646.9,125.9v1.3h6.2v-1.3h-6.2ZM646.9,128.1v1.3h6.2v-1.3h-6.2ZM649.3,125.4h1.2v4.6h-1.2v-4.6ZM650.4,120.6h4.1v3.6h-4.1v-3.6ZM651.4,121.5v1.8h2v-1.8h-2ZM657.7,120h1.3v4.9c0,.9,0,2-.1,3.1,0,1.1-.2,2.3-.5,3.5-.3,1.2-.7,2.4-1.2,3.5s-1.3,2.2-2.2,3.3c0,0-.2-.2-.3-.3s-.2-.2-.4-.3-.2-.2-.4-.3c.9-.9,1.6-1.9,2.1-3,.5-1.1.9-2.2,1.1-3.3s.4-2.2.4-3.3c0-1.1,0-2,0-2.9v-4.9ZM654.7,125.5h8.3v1.3h-8.3v-1.3ZM659.4,126.2c.2,1.6.4,3.1.7,4.5s.7,2.7,1.2,3.8c.5,1.1,1.1,2,1.9,2.7-.1,0-.2.2-.3.3s-.2.3-.3.4c-.1.1-.2.3-.3.4-.8-.8-1.4-1.8-2-3s-1-2.6-1.3-4.1-.6-3.1-.8-4.9l1.1-.2ZM659.8,121.1l1.1-.4c.4.5.8,1,1.2,1.7.4.6.6,1.1.8,1.6l-1.1.5c-.2-.5-.4-1-.8-1.6-.4-.6-.7-1.2-1.1-1.7Z"/>
              <path class="cls-16" d="M664.8,129.6h18.2v1h-18.2v-1ZM665.4,120.5h8.8v.9h-8.8v-.9ZM666,121.1h1.1v5.9c0,.4,0,.6.2.8.1.1.4.2.7.2h4.3c.3,0,.6,0,.9,0,.4,0,.6,0,.8,0,0,.1,0,.3,0,.5,0,.2,0,.3,0,.4-.1,0-.4,0-.7,0-.3,0-.7,0-1.1,0h-4.4c-.5,0-.9,0-1.2-.2-.3-.1-.5-.3-.6-.6-.1-.3-.2-.7-.2-1.1v-5.9ZM666.9,131.5h14.3v6.7h-1.3v-5.8h-11.8v5.8h-1.2v-6.7ZM668.9,121.5l.9.2c-.2.5-.4.9-.7,1.4-.3.4-.6.8-.9,1.1,0,0-.2-.1-.4-.2-.2,0-.3-.2-.4-.2.7-.6,1.2-1.4,1.5-2.2ZM667.5,124.4h6.4v.8h-6.4v-.8ZM667.6,136.5h12.7v.9h-12.7v-.9ZM670.3,122.8h.9v1.5c0,.4,0,.8-.2,1.2-.1.4-.4.9-.8,1.3s-1,.8-1.9,1.1c0-.1-.2-.2-.3-.4-.1-.1-.2-.2-.3-.3.8-.3,1.4-.5,1.7-.9.4-.3.6-.7.7-1.1.1-.4.2-.7.2-1v-1.5ZM671.9,130.1h1.1v1.8c0,.3,0,.6-.2.8-.1.3-.3.5-.6.8-.3.2-.7.4-1.2.6s-1.2.4-2.1.5c0-.1-.1-.3-.3-.4-.1-.2-.2-.3-.3-.4.8,0,1.4-.2,1.9-.3.5-.1.8-.3,1.1-.5.3-.2.4-.3.5-.5s.1-.4.1-.6v-1.8ZM668.6,122.4h4.9v.8h-4.9v-.8ZM669.9,134.9h8.4v.8h-8.4v-.8ZM670.2,125.7l.6-.6c.5.3,1,.6,1.6,1,.6.4,1,.7,1.3,1l-.6.7c-.3-.3-.7-.6-1.3-1s-1.1-.7-1.6-1ZM675.8,120.4h1.1v1.1c0,.3,0,.6-.2,1-.1.3-.3.7-.6,1s-.8.6-1.4.9c0,0-.1-.2-.2-.3,0-.1-.2-.2-.3-.3,0-.1-.2-.2-.3-.2.5-.2.9-.4,1.1-.6.3-.2.4-.4.5-.7,0-.2.1-.5.1-.7v-1ZM680.3,124.2h.4s.7.3.7.3c-.4.9-.9,1.6-1.6,2.3-.7.6-1.5,1.2-2.3,1.6-.9.4-1.8.8-2.7,1,0-.1-.1-.3-.2-.5s-.2-.3-.3-.4c.8-.2,1.6-.5,2.5-.8.8-.4,1.5-.8,2.2-1.4.6-.5,1.1-1.2,1.4-1.9v-.2ZM674.8,124.2h5.7v.9h-5.7v-.9ZM674.9,126.2l.5-.7c.5.2,1.1.5,1.7.7.6.3,1.2.5,1.8.8.6.3,1.1.6,1.7.8.5.3,1,.5,1.3.7l-.6.8c-.4-.2-.8-.5-1.3-.7s-1.1-.6-1.6-.9c-.6-.3-1.2-.6-1.8-.9-.6-.3-1.2-.5-1.7-.8ZM675.2,130.1h1.1v2.9c0,.2,0,.3.1.4,0,0,.3,0,.6,0h2.4c.2,0,.3,0,.4,0,0,0,.1,0,.1,0,.1,0,.3.1.4.2.2,0,.3,0,.5.1,0,.2-.2.4-.3.5-.2,0-.5.1-.9.1h-2.7c-.5,0-.8,0-1.1,0-.3,0-.4-.2-.5-.4,0-.2-.1-.4-.1-.8v-2.9ZM676.3,120.4h3.6v1h-3.6v-1ZM679.3,120.4h1.1v2c0,.2,0,.3,0,.4,0,0,0,.1.2.1h.9c.1,0,.3,0,.4,0,.2,0,.3,0,.4,0,0,.1,0,.3,0,.5,0,.2,0,.3,0,.5,0,0-.2,0-.4,0-.2,0-.3,0-.5,0h-1.1c-.3,0-.6,0-.8-.1-.2,0-.3-.2-.4-.5,0-.2-.1-.5-.1-.9v-1.9Z"/>
              <path class="cls-16" d="M685,133.1h17.9v1.2h-17.9v-1.2ZM685.5,127.1h17v3.6h-1.3v-2.5h-14.4v2.5h-1.3v-3.6ZM690.6,120.1l.6.8c-.6.2-1.2.4-2,.6s-1.4.3-2,.3l-.5-.8c.4,0,.8-.2,1.3-.3.5-.1.9-.2,1.4-.4s.8-.2,1.2-.3ZM686.7,121.1l1.3.4.4,6.2h-1.3l-.4-6.6ZM687.4,122.8h3.6v1h-3.6v-1ZM687.5,124.9h3.6v1h-3.6v-1ZM688.7,129.6h9.6v1h-9.6v-1ZM693.5,132.2h1.3v4.6c0,.4,0,.6-.2.8,0,.2-.3.3-.6.4-.3,0-.7.1-1.2.2-.5,0-1.2,0-2,0,0-.2,0-.3-.2-.6,0-.2-.2-.4-.3-.6.4,0,.8,0,1.2,0,.4,0,.7,0,1,0s.5,0,.6,0c.2,0,.3,0,.3,0,0,0,0-.1,0-.3v-4.5ZM695,123.5l1,.3c-.5.6-1.1,1.2-1.8,1.8-.7.6-1.4,1.1-2.2,1.5,0,0-.2-.2-.4-.4s-.3-.3-.4-.4c.7-.3,1.4-.7,2.1-1.2.7-.5,1.2-1,1.6-1.6ZM694.9,120.1l1,.3c-.5.6-1,1.2-1.7,1.8s-1.4,1-2,1.4c0,0-.2-.2-.4-.4-.2-.1-.3-.3-.4-.3.7-.3,1.3-.8,2-1.2.7-.5,1.2-1,1.6-1.5ZM691.7,124.4l.7-.6c.5.2.9.5,1.4.7s1,.6,1.4.9.8.6,1.1.8l-.7.7c-.3-.3-.6-.6-1-.9-.4-.3-.9-.6-1.4-.9-.5-.3-1-.6-1.4-.8ZM691.7,121l.7-.6c.5.2.9.4,1.4.7.5.3.9.5,1.4.8.4.3.8.5,1,.8l-.7.7c-.3-.2-.6-.5-1-.8-.4-.3-.9-.6-1.3-.8-.5-.3-.9-.5-1.4-.7ZM698,129.6h.6c0,0,.8.6.8.6-.5.4-1,.7-1.6,1-.6.3-1.2.6-1.8.9-.6.3-1.2.5-1.8.8,0-.1-.2-.2-.3-.4-.1-.1-.3-.2-.3-.3.5-.2,1.1-.4,1.6-.7s1.1-.5,1.6-.8.9-.6,1.2-.8v-.3ZM696.7,124.9h3.6v1h-3.6v-1ZM696.7,120.7h3.9v1h-3.9v-1ZM696.8,122.8h3.6v1h-3.6v-1ZM700.1,120.7h1.3c0,.8,0,1.6-.1,2.4,0,.9-.1,1.7-.2,2.5,0,.8-.1,1.5-.2,2.1h-1.3c0-.6.2-1.3.2-2.1,0-.8.1-1.6.2-2.5,0-.9,0-1.6.1-2.4Z"/>
              <path class="cls-16" d="M709.8,132.7l1.3.5c-.4.5-.8,1-1.3,1.6s-1,1-1.6,1.5-1.1.9-1.6,1.2c0,0-.2-.2-.3-.3-.1-.1-.3-.2-.4-.3s-.3-.2-.4-.3c.8-.5,1.6-1.1,2.4-1.8.8-.7,1.4-1.4,2-2.1ZM718.2,120l1,1.1c-.8.4-1.7.7-2.8,1.1-1,.3-2.1.7-3.3,1-1.2.3-2.3.6-3.5.8-1.2.3-2.4.5-3.5.7,0-.2,0-.4-.2-.6,0-.2-.2-.4-.2-.5,1.1-.2,2.3-.5,3.4-.7,1.2-.3,2.3-.5,3.4-.8s2.2-.6,3.1-.9c1-.3,1.8-.7,2.5-1ZM706.5,132.4c0-.1,0-.2,0-.4s0-.3-.2-.5c0-.2-.1-.3-.1-.4.3,0,.7-.1,1.1-.3.5-.2,1-.4,1.6-.7.3-.1.8-.4,1.5-.7.7-.3,1.4-.7,2.3-1.2s1.7-1,2.6-1.6c.9-.6,1.8-1.2,2.6-1.8l1,.9c-1.9,1.3-3.8,2.5-5.7,3.5-1.9,1-3.8,1.9-5.7,2.6h0c-.2.1-.4.2-.5.2-.1,0-.2.1-.3.2-.1,0-.2.1-.2.2ZM706.5,132.4v-1s.9-.5.9-.5l13.1-.9c0,.2,0,.4,0,.6v.6c-2,.1-3.8.3-5.2.4s-2.7.2-3.7.3-1.8.1-2.4.2-1.1.1-1.5.2-.6,0-.8.1c-.2,0-.3,0-.5.1ZM707.6,128.2c0,0,0-.2,0-.4,0-.2,0-.3-.2-.5,0-.2,0-.3-.1-.4.2,0,.5,0,.7-.2.3-.1.6-.2.9-.4.2-.1.6-.3,1.1-.7.5-.3,1.1-.7,1.8-1.2.6-.4,1.2-.9,1.8-1.4l1.2.8c-1,.8-2,1.5-3.1,2.1-1.1.6-2.1,1.2-3.1,1.6h0c-.2.1-.3.2-.5.2-.1,0-.2.1-.3.2,0,0-.1.1-.1.2ZM707.6,128.2v-1s.8-.4.8-.4l7.5-.4c0,.2,0,.3,0,.6,0,.2,0,.4,0,.5-1.4,0-2.5.2-3.5.2-.9,0-1.7.1-2.3.2s-1,0-1.4.1c-.3,0-.6,0-.7,0-.2,0-.3,0-.4.1ZM713.5,130.8h1.4v5.7c0,.4,0,.7-.2.9-.1.2-.3.4-.6.5s-.7.2-1.2.2-1.1,0-1.9,0c0-.2-.1-.4-.2-.7,0-.3-.2-.5-.3-.7.4,0,.8,0,1.2,0,.4,0,.7,0,.9,0s.4,0,.5,0c.2,0,.3,0,.3,0,0,0,0-.1,0-.2v-5.7ZM716.8,133.2l1-.7c.5.4,1.1.9,1.7,1.3.6.5,1.1,1,1.7,1.4.5.5,1,.9,1.3,1.3l-1.1.8c-.3-.4-.7-.8-1.2-1.3-.5-.5-1.1-1-1.6-1.5s-1.1-1-1.7-1.4ZM717.3,127.9l1.1-.5c.5.5,1,.9,1.5,1.5.5.5,1,1.1,1.5,1.6s.8,1,1.1,1.4l-1.1.7c-.3-.4-.6-.9-1.1-1.4s-.9-1.1-1.5-1.6c-.5-.5-1-1.1-1.5-1.5Z"/>
            </g>
          </g>
        </g>
        <rect class="cls-17" x="644" y="120" width="79" height="19"/>
      </g>
      <g id="b78">
        <g id="g-root-ro_qp17gdqeubk8-fill">
          <g id="ro_qp17gdqeubk8-fill">
            <path class="cls-7" d="M602.4,50.7h124.3s12.4,0,12.4,12v30s0,12-12.4,12h-124.3s-12.4,0-12.4-12v-30s0-12,12.4-12"/>
          </g>
        </g>
        <g id="g-root-tx__1hbbr3xqeubk6-fill">
          <g id="tx__1hbbr3xqeubk6-fill">
            <g class="cls-12">
              <g class="cls-12">
                <path class="cls-9" d="M644.6,80.2h10.8v1.4h-10.8v-1.4ZM645.3,69.3h4.2v3.8h-4.2v-3.8ZM645.5,73.8h9v5.6h-9v-5.6ZM645.9,82.3h8.4v4.7h-1.8v-3.4h-4.8v3.7h-1.7v-5.1ZM646.7,70.5v1.5h1.4v-1.5h-1.4ZM646.7,85.2h6.5v1.4h-6.5v-1.4ZM647.2,75v1.1h5.6v-1.1h-5.6ZM647.2,77.2v1.1h5.6v-1.1h-5.6ZM649.1,74.3h1.6v4.7h-1.6v-4.7ZM650.3,69.3h4.4v3.8h-4.4v-3.8ZM651.7,70.5v1.5h1.6v-1.5h-1.6ZM657.6,68.8h1.8v5.2c0,1,0,2-.1,3.2,0,1.1-.3,2.3-.5,3.5-.3,1.2-.7,2.3-1.2,3.5-.5,1.1-1.3,2.2-2.2,3.2,0-.1-.2-.3-.4-.4s-.3-.3-.5-.5c-.2-.2-.4-.3-.5-.4.9-.9,1.6-1.8,2.1-2.9.5-1,.9-2.1,1.1-3.2.2-1.1.4-2.1.4-3.2,0-1,0-2,0-2.8v-5.2ZM654.8,74.3h8.3v1.7h-8.3v-1.7ZM659.7,75.3c.2,1.5.4,2.9.7,4.3s.7,2.6,1.2,3.6c.5,1.1,1.1,2,1.8,2.7-.1.1-.3.2-.5.4-.2.2-.3.4-.5.6s-.3.4-.4.5c-.8-.8-1.4-1.8-2-3-.5-1.2-.9-2.6-1.2-4.1s-.6-3.1-.8-4.8l1.6-.2ZM659.9,70l1.5-.6c.4.5.7,1.1,1,1.7s.6,1.2.7,1.6l-1.6.7c-.1-.5-.3-1-.6-1.7-.3-.6-.7-1.2-1-1.8Z"/>
                <path class="cls-9" d="M664.7,78.5h18.5v1.3h-18.5v-1.3ZM665.1,69.4h9v1.2h-9v-1.2ZM665.8,70.1h1.5v5.6c0,.3,0,.6.2.7s.4.2.7.2h4c.3,0,.6,0,1,0,.4,0,.7,0,.9,0,0,.2,0,.4,0,.6,0,.2,0,.4,0,.6-.2,0-.5,0-.8.1-.4,0-.7,0-1.1,0h-4.2c-.6,0-1,0-1.4-.2-.3-.1-.6-.4-.7-.7-.1-.3-.2-.8-.2-1.3v-5.6ZM666.7,80.5h14.5v6.9h-1.8v-5.8h-11v5.8h-1.7v-6.9ZM668.9,70.5l1.1.3c-.2.4-.4.9-.7,1.3-.3.4-.6.8-.9,1.1-.1,0-.3-.2-.5-.3-.2-.1-.4-.2-.5-.3.6-.6,1.1-1.2,1.4-2ZM667.6,73.3h6.2v1h-6.2v-1ZM670.2,71.8h1.2v1.4c0,.4,0,.8-.2,1.2-.1.4-.4.8-.8,1.2-.4.4-1,.7-1.8,1,0-.1-.2-.3-.4-.5s-.3-.3-.4-.4c.7-.2,1.3-.5,1.6-.8.3-.3.6-.6.7-.9s.2-.6.2-.9v-1.4ZM667.9,85.6h12.1v1.1h-12.1v-1.1ZM671.8,79.2h1.5v1.9c0,.3,0,.6-.2.9-.1.3-.3.5-.6.8-.3.2-.7.4-1.2.6-.5.2-1.2.3-2,.4,0-.2-.2-.3-.4-.6-.2-.2-.3-.4-.4-.5.7,0,1.3-.2,1.7-.3.4-.1.8-.2,1-.4.2-.1.4-.3.5-.5,0-.2.1-.3.1-.5v-1.9ZM668.8,71.4h4.7v1h-4.7v-1ZM670,83.9h8.2v1h-8.2v-1ZM670.2,74.7l.7-.7c.5.3,1,.5,1.5.9.5.3.9.6,1.2.9l-.8.8c-.3-.3-.7-.6-1.2-1-.5-.4-1-.7-1.5-1ZM675.6,69.3h1.5v1.1c0,.4,0,.7-.2,1.1-.1.4-.3.7-.7,1-.3.3-.8.6-1.4.9,0-.1-.2-.3-.3-.4-.1-.1-.3-.3-.4-.4-.1-.1-.2-.2-.3-.3.5-.2.9-.4,1.2-.6.3-.2.4-.4.5-.6s.1-.5.1-.7v-1ZM680.2,73.1h.6s.9.3.9.3c-.4.9-.9,1.7-1.6,2.3-.7.7-1.5,1.2-2.4,1.6-.9.4-1.8.8-2.8,1,0-.2-.2-.4-.3-.6s-.3-.4-.4-.6c.9-.2,1.7-.5,2.5-.8s1.5-.8,2.1-1.3,1.1-1.1,1.4-1.8v-.2ZM674.7,73.1h5.7v1.2h-5.7v-1.2ZM674.8,75.4l.7-1c.5.2,1.1.4,1.7.7s1.2.5,1.8.8,1.2.5,1.7.8c.5.2,1,.5,1.4.7l-.7,1.1c-.4-.2-.8-.4-1.4-.7-.5-.3-1.1-.5-1.7-.8-.6-.3-1.2-.5-1.8-.8-.6-.3-1.2-.5-1.8-.7ZM675,79.2h1.5v2.8c0,.2,0,.3.1.4s.3,0,.5,0h2c.2,0,.3,0,.3,0,0,0,.1,0,.1,0,.2,0,.4.1.6.2.2,0,.4.1.6.1,0,.3-.2.5-.4.6-.2.1-.6.2-1,.2h-2.4c-.5,0-.9,0-1.2-.1s-.5-.2-.6-.4c-.1-.2-.2-.5-.2-.9v-2.8ZM676.3,69.3h3.6v1.3h-3.6v-1.3ZM679.1,69.3h1.5v1.7c0,.2,0,.3,0,.4s0,.1.2.1h.8c.1,0,.3,0,.5,0,.2,0,.3,0,.4,0,0,.2,0,.4,0,.6,0,.2,0,.4,0,.6-.1,0-.2,0-.4,0-.2,0-.3,0-.5,0h-1.1c-.4,0-.8,0-1-.2-.2-.1-.4-.3-.5-.6s-.1-.6-.1-1v-1.7Z"/>
                <path class="cls-9" d="M684.9,82h18v1.5h-18v-1.5ZM685.3,76h17.3v3.9h-1.9v-2.5h-13.6v2.5h-1.8v-3.9ZM690.5,69l.8,1.1c-.6.2-1.3.4-2,.6-.8.2-1.5.3-2,.4l-.7-1.1c.4,0,.8-.2,1.3-.3s1-.2,1.4-.4.9-.3,1.2-.4ZM686.5,70l1.8.5.4,6.2h-1.8l-.4-6.7ZM687.5,71.7h3.7v1.2h-3.7v-1.2ZM687.5,73.8h3.7v1.2h-3.7v-1.2ZM688.7,78.5h9.2v1.4h-9.2v-1.4ZM693.2,81.3h1.9v4.2c0,.5,0,.8-.2,1-.1.2-.4.4-.7.6-.4.1-.8.2-1.3.2-.5,0-1.2,0-2,0,0-.2-.1-.5-.2-.8s-.2-.6-.4-.8c.4,0,.8,0,1.1,0,.4,0,.7,0,.9,0h.5c.2,0,.3,0,.3,0,0,0,0-.1,0-.3v-4.2ZM694.9,72.3l1.3.4c-.5.7-1.1,1.3-1.8,1.8s-1.4,1.1-2.2,1.5c0-.1-.2-.3-.5-.5-.2-.2-.4-.4-.5-.5.7-.3,1.4-.7,2.1-1.2.7-.5,1.2-1,1.6-1.5ZM694.8,69l1.3.4c-.4.6-1,1.2-1.7,1.7s-1.4,1-2,1.4c-.1-.1-.3-.3-.5-.5-.2-.2-.4-.3-.6-.4.7-.3,1.4-.7,2-1.2.6-.4,1.1-.9,1.5-1.4ZM691.6,73.3l.9-.8c.5.2.9.5,1.4.7.5.3.9.6,1.4.9.4.3.8.6,1.1.8l-1,.9c-.3-.3-.6-.5-1-.8s-.9-.6-1.3-.9c-.5-.3-.9-.6-1.4-.8ZM691.7,70l.9-.8c.4.2.9.4,1.3.7.5.3.9.5,1.3.8s.8.5,1,.8l-.9.9c-.3-.2-.6-.5-1-.8-.4-.3-.8-.6-1.3-.8-.5-.3-.9-.5-1.3-.7ZM697.4,78.5h.9c0,0,1.1.9,1.1.9-.5.4-1,.7-1.6,1.1s-1.2.7-1.8,1-1.2.6-1.8.8c-.1-.2-.2-.3-.4-.5-.2-.2-.3-.3-.5-.5.5-.2,1-.4,1.6-.7s1-.6,1.5-.9.8-.6,1.1-.8v-.3ZM696.7,69.5h3.8v1.2h-3.8v-1.2ZM696.7,73.8h3.5v1.2h-3.5v-1.2ZM696.8,71.7h3.5v1.2h-3.5v-1.2ZM699.7,69.5h1.8c0,.8,0,1.6-.1,2.5,0,.9-.1,1.7-.2,2.6,0,.8-.1,1.5-.2,2.1h-1.8c0-.6.2-1.4.2-2.2,0-.8.1-1.7.2-2.6,0-.9,0-1.7.1-2.5Z"/>
                <path class="cls-9" d="M706.9,75.2l1.2.4c-.3.7-.6,1.3-1.1,2s-.9,1.2-1.5,1.6c-.1-.2-.3-.4-.5-.7-.2-.2-.4-.4-.6-.6.3-.2.6-.4,1-.7s.6-.6.9-1c.3-.4.5-.7.7-1ZM708.3,78.8h1.6v2.1c0,.5,0,1.1-.1,1.7-.1.6-.3,1.2-.6,1.7s-.7,1.1-1.3,1.6c-.6.5-1.4,1-2.4,1.4,0-.1-.2-.3-.3-.5-.1-.2-.2-.3-.4-.5-.1-.2-.3-.3-.4-.4.9-.3,1.5-.7,2-1.1s.9-.8,1.1-1.3c.3-.4.4-.9.5-1.3s.1-.9.1-1.3v-2ZM704.9,73.2h8.7v1.5h-8.7v-1.5ZM704.9,80.5h8.8v1.6h-8.8v-1.6ZM705.2,70l1.3-.5c.2.4.5.8.7,1.2.2.4.4.8.4,1.2l-1.4.6c0-.3-.2-.7-.4-1.2s-.4-.9-.7-1.3ZM708.4,68.9h1.7v9.4h-1.7v-9.4ZM708.5,83.8l1-1.2c.4.2.9.5,1.3.8.5.3.9.6,1.4.9.4.3.8.6,1.1.8l-1,1.3c-.3-.2-.6-.5-1-.8s-.9-.6-1.3-1c-.5-.3-.9-.6-1.3-.9ZM711.2,75.3c.1,0,.3.2.6.4.3.2.5.4.8.6s.5.4.8.6c.2.2.4.3.5.4l-1,1.2c-.1-.2-.3-.4-.5-.6s-.5-.5-.7-.7c-.3-.3-.5-.5-.7-.7-.2-.2-.4-.4-.6-.5l1-.7ZM710.7,79.2l1.1-.7c.3.2.5.5.8.8.3.3.5.6.6.8l-1.1.8c-.1-.2-.3-.5-.6-.8-.3-.3-.5-.6-.8-.8ZM711.8,69.6l1.6.4c-.2.5-.5.9-.7,1.4s-.5.8-.7,1.2l-1.2-.4c.2-.4.4-.8.6-1.3.2-.5.4-.9.5-1.3ZM716.4,83.8l1.6,1c-.3.3-.7.7-1.1,1-.4.3-.9.7-1.3,1s-.9.5-1.4.8c-.1-.2-.3-.4-.6-.6-.2-.2-.5-.4-.6-.6.4-.2.9-.4,1.3-.7.4-.3.8-.6,1.2-.9.4-.3.7-.6.9-.9ZM713.7,69.7h9.4v1.6h-9.4v-1.6ZM714.4,73h8v10.5h-8v-10.5ZM716.1,74.4v1.6h4.5v-1.6h-4.5ZM716.1,77.4v1.6h4.5v-1.6h-4.5ZM716.1,80.4v1.7h4.5v-1.7h-4.5ZM717.3,70.6l2.1.3c-.2.6-.4,1.2-.6,1.8-.2.6-.4,1.1-.6,1.5l-1.6-.3c0-.3.2-.6.3-1,0-.4.2-.8.3-1.1,0-.4.1-.7.2-1ZM718.7,84.7l1.4-.9c.4.2.8.5,1.2.8s.8.6,1.2.9.7.6,1,.8l-1.5,1c-.2-.2-.5-.5-.9-.8-.4-.3-.8-.6-1.2-1-.4-.3-.8-.6-1.2-.9Z"/>
              </g>
            </g>
          </g>
        </g>
        <g id="_圖層_1">
          <g id="_圖層_1-2">
            <g id="_圖層_1-2-2" data-name="_圖層_1-2">
              <g id="_圖層_1-2-2">
                <g>
                  <polygon class="cls-11" points="624.1 73.7 631 73.7 631 79.2 636.5 79.2 636.5 86.7 631 86.7 631 92.2 623.5 92.2 623.5 86.7 618 86.7 618 79.1 624.1 79.2 624.1 73.7"/>
                  <g>
                    <path class="cls-14" d="M628.2,69.7c-.2-1.3-.8-2.3-1.7-2.8-.9-.5-2.1-.4-3.1.3,0,0-.2.1-.3.2,0-1,0-2-.4-2.9-.5-1.2-1.3-2-2.4-2.2s-2.1.2-2.9,1.1c-.4.4-.7.9-1,1.5-.3-.6-.6-1.1-1-1.5-.9-.9-1.9-1.3-2.9-1.1s-1.9,1-2.4,2.2c-.3.8-.5,1.8-.4,2.9,0,0-.2-.1-.3-.2-1.1-.6-2.2-.7-3.1-.3-.9.5-1.5,1.5-1.7,2.8-.1,1.2,0,2.5.6,3.7.6,1.2,1.4,2.2,2.3,2.8.3.2.5.3.8.4-.1.3-.2.7-.3,1h0c-.3,1.8,0,3.3.8,4.3.7.9,1.7,1.4,2.8,1.5h9.4c1.2,0,2.2-.6,2.8-1.5.8-1.1,1.1-2.5.8-4.3,0-.4-.1-.7-.3-1,.3,0,.5-.2.8-.4,1-.6,1.8-1.6,2.3-2.8.6-1.2.8-2.5.6-3.7h0Z"/>
                    <g>
                      <path class="cls-18" d="M610.7,67.2c-.4-2,.5-3.8,1.9-4,1.5-.2,3,1.1,3.4,3.1.4,2-.5,3.8-1.9,4-1.5.2-3-1.1-3.4-3.1Z"/>
                      <path class="cls-18" d="M606.1,72.2c-1-1.8-.7-3.7.6-4.3,1.3-.6,3.2.4,4.2,2.2,1,1.8.7,3.7-.6,4.3-1.3.6-3.2-.4-4.2-2.2h0Z"/>
                      <path class="cls-18" d="M618.7,70.3c-1.5-.2-2.3-2-1.9-4,.4-2,1.9-3.4,3.4-3.1,1.5.2,2.3,2,1.9,4-.4,2-1.9,3.4-3.4,3.1Z"/>
                      <path class="cls-18" d="M622.5,74.3c-1.3-.6-1.6-2.5-.6-4.3s2.9-2.8,4.2-2.2c1.3.6,1.6,2.5.6,4.3-1,1.8-2.9,2.8-4.2,2.2h0Z"/>
                    </g>
                    <path class="cls-18" d="M616.4,82.2h4.6c1.7-.1,3.3-1.4,2.8-4.7-.2-1.2-.9-2.2-1.9-2.6-.9-.3-1.7-1.1-2-2-1.2-2.8-5.7-2.8-6.9,0-.4.9-1.1,1.7-2,2-1,.4-1.7,1.3-1.9,2.6-.5,3.3,1.1,4.5,2.8,4.7h4.7Z"/>
                  </g>
                </g>
              </g>
            </g>
          </g>
        </g>
      </g>
      <g id="a22">
        <g id="g-root-ro_1d14flpqfb5s8-stroke">
          <g id="ro_1d14flpqfb5s8-stroke">
            <path class="cls-1" d="M418.2,50.7h95.5s27.3,0,27.3,28.6v92.9s0,28.6-27.3,28.6h-95.5s-27.3,0-27.3-28.6v-92.9s0-28.6,27.3-28.6"/>
          </g>
        </g>
        <g>
          <g id="g-root-tx__924felqfb572-fill">
            <g id="tx__924felqfb572-fill">
              <g class="cls-12">
                <g class="cls-12">
                  <path class="cls-19" d="M426.6,163.2h10.8v1.4h-10.8v-1.4ZM427.3,152.3h4.2v3.8h-4.2v-3.8ZM427.5,156.8h9v5.6h-9v-5.6ZM427.9,165.3h8.4v4.7h-1.8v-3.4h-4.8v3.7h-1.7v-5.1ZM428.7,153.5v1.5h1.4v-1.5h-1.4ZM428.7,168.2h6.5v1.4h-6.5v-1.4ZM429.2,158v1.1h5.6v-1.1h-5.6ZM429.2,160.2v1.1h5.6v-1.1h-5.6ZM431.1,157.3h1.6v4.7h-1.6v-4.7ZM432.3,152.3h4.4v3.8h-4.4v-3.8ZM433.7,153.5v1.5h1.6v-1.5h-1.6ZM439.6,151.8h1.8v5.2c0,1,0,2-.1,3.2,0,1.1-.3,2.3-.5,3.5-.3,1.2-.7,2.3-1.2,3.5-.5,1.1-1.3,2.2-2.2,3.2,0-.1-.2-.3-.4-.4s-.3-.3-.5-.5c-.2-.2-.4-.3-.5-.4.9-.9,1.6-1.8,2.1-2.9.5-1,.9-2.1,1.1-3.2.2-1.1.4-2.1.4-3.2,0-1,0-2,0-2.8v-5.2ZM436.8,157.3h8.3v1.7h-8.3v-1.7ZM441.7,158.3c.2,1.5.4,2.9.7,4.3s.7,2.6,1.2,3.6c.5,1.1,1.1,2,1.8,2.7-.1.1-.3.2-.5.4-.2.2-.3.4-.5.6s-.3.4-.4.5c-.8-.8-1.4-1.8-2-3-.5-1.2-.9-2.6-1.2-4.1s-.6-3.1-.8-4.8l1.6-.2ZM441.9,153l1.5-.6c.4.5.7,1.1,1,1.7s.6,1.2.7,1.6l-1.6.7c-.1-.5-.3-1-.6-1.7-.3-.6-.7-1.2-1-1.8Z"/>
                  <path class="cls-19" d="M446.7,161.5h18.5v1.3h-18.5v-1.3ZM447.1,152.4h9v1.2h-9v-1.2ZM447.8,153.1h1.5v5.6c0,.3,0,.6.2.7s.4.2.7.2h4c.3,0,.6,0,1,0,.4,0,.7,0,.9,0,0,.2,0,.4,0,.6,0,.2,0,.4,0,.6-.2,0-.5,0-.8.1-.4,0-.7,0-1.1,0h-4.2c-.6,0-1,0-1.4-.2-.3-.1-.6-.4-.7-.7-.1-.3-.2-.8-.2-1.3v-5.6ZM448.7,163.5h14.5v6.9h-1.8v-5.8h-11v5.8h-1.7v-6.9ZM450.9,153.5l1.1.3c-.2.4-.4.9-.7,1.3-.3.4-.6.8-.9,1.1-.1,0-.3-.2-.5-.3-.2-.1-.4-.2-.5-.3.6-.6,1.1-1.2,1.4-2ZM449.6,156.3h6.2v1h-6.2v-1ZM452.2,154.8h1.2v1.4c0,.4,0,.8-.2,1.2-.1.4-.4.8-.8,1.2-.4.4-1,.7-1.8,1,0-.1-.2-.3-.4-.5s-.3-.3-.4-.4c.7-.2,1.3-.5,1.6-.8.3-.3.6-.6.7-.9s.2-.6.2-.9v-1.4ZM449.9,168.6h12.1v1.1h-12.1v-1.1ZM453.8,162.2h1.5v1.9c0,.3,0,.6-.2.9-.1.3-.3.5-.6.8-.3.2-.7.4-1.2.6-.5.2-1.2.3-2,.4,0-.2-.2-.3-.4-.6-.2-.2-.3-.4-.4-.5.7,0,1.3-.2,1.7-.3.4-.1.8-.2,1-.4.2-.1.4-.3.5-.5,0-.2.1-.3.1-.5v-1.9ZM450.8,154.4h4.7v1h-4.7v-1ZM452,166.9h8.2v1h-8.2v-1ZM452.2,157.7l.7-.7c.5.3,1,.5,1.5.9.5.3.9.6,1.2.9l-.8.8c-.3-.3-.7-.6-1.2-1-.5-.4-1-.7-1.5-1ZM457.6,152.3h1.5v1.1c0,.4,0,.7-.2,1.1-.1.4-.3.7-.7,1-.3.3-.8.6-1.4.9,0-.1-.2-.3-.3-.4-.1-.1-.3-.3-.4-.4-.1-.1-.2-.2-.3-.3.5-.2.9-.4,1.2-.6.3-.2.4-.4.5-.6s.1-.5.1-.7v-1ZM462.2,156.1h.6s.9.3.9.3c-.4.9-.9,1.7-1.6,2.3-.7.7-1.5,1.2-2.4,1.6-.9.4-1.8.8-2.8,1,0-.2-.2-.4-.3-.6s-.3-.4-.4-.6c.9-.2,1.7-.5,2.5-.8s1.5-.8,2.1-1.3,1.1-1.1,1.4-1.8v-.2ZM456.7,156.1h5.7v1.2h-5.7v-1.2ZM456.8,158.4l.7-1c.5.2,1.1.4,1.7.7s1.2.5,1.8.8,1.2.5,1.7.8c.5.2,1,.5,1.4.7l-.7,1.1c-.4-.2-.8-.4-1.4-.7-.5-.3-1.1-.5-1.7-.8-.6-.3-1.2-.5-1.8-.8-.6-.3-1.2-.5-1.8-.7ZM457,162.2h1.5v2.8c0,.2,0,.3.1.4s.3,0,.5,0h2c.2,0,.3,0,.3,0,0,0,.1,0,.1,0,.2,0,.4.1.6.2.2,0,.4.1.6.1,0,.3-.2.5-.4.6-.2.1-.6.2-1,.2h-2.4c-.5,0-.9,0-1.2-.1s-.5-.2-.6-.4c-.1-.2-.2-.5-.2-.9v-2.8ZM458.3,152.3h3.6v1.3h-3.6v-1.3ZM461.1,152.3h1.5v1.7c0,.2,0,.3,0,.4s0,.1.2.1h.8c.1,0,.3,0,.5,0,.2,0,.3,0,.4,0,0,.2,0,.4,0,.6,0,.2,0,.4,0,.6-.1,0-.2,0-.4,0-.2,0-.3,0-.5,0h-1.1c-.4,0-.8,0-1-.2-.2-.1-.4-.3-.5-.6s-.1-.6-.1-1v-1.7Z"/>
                  <path class="cls-19" d="M466.9,165h18v1.5h-18v-1.5ZM467.3,159h17.3v3.9h-1.9v-2.5h-13.6v2.5h-1.8v-3.9ZM472.5,152l.8,1.1c-.6.2-1.3.4-2,.6-.8.2-1.5.3-2,.4l-.7-1.1c.4,0,.8-.2,1.3-.3s1-.2,1.4-.4.9-.3,1.2-.4ZM468.5,153l1.8.5.4,6.2h-1.8l-.4-6.7ZM469.5,154.7h3.7v1.2h-3.7v-1.2ZM469.5,156.8h3.7v1.2h-3.7v-1.2ZM470.7,161.5h9.2v1.4h-9.2v-1.4ZM475.2,164.3h1.9v4.2c0,.5,0,.8-.2,1-.1.2-.4.4-.7.6-.4.1-.8.2-1.3.2-.5,0-1.2,0-2,0,0-.2-.1-.5-.2-.8s-.2-.6-.4-.8c.4,0,.8,0,1.1,0,.4,0,.7,0,.9,0h.5c.2,0,.3,0,.3,0,0,0,0-.1,0-.3v-4.2ZM476.9,155.3l1.3.4c-.5.7-1.1,1.3-1.8,1.8s-1.4,1.1-2.2,1.5c0-.1-.2-.3-.5-.5-.2-.2-.4-.4-.5-.5.7-.3,1.4-.7,2.1-1.2.7-.5,1.2-1,1.6-1.5ZM476.8,152l1.3.4c-.4.6-1,1.2-1.7,1.7s-1.4,1-2,1.4c-.1-.1-.3-.3-.5-.5-.2-.2-.4-.3-.6-.4.7-.3,1.4-.7,2-1.2.6-.4,1.1-.9,1.5-1.4ZM473.6,156.3l.9-.8c.5.2.9.5,1.4.7.5.3.9.6,1.4.9.4.3.8.6,1.1.8l-1,.9c-.3-.3-.6-.5-1-.8s-.9-.6-1.3-.9c-.5-.3-.9-.6-1.4-.8ZM473.7,153l.9-.8c.4.2.9.4,1.3.7.5.3.9.5,1.3.8s.8.5,1,.8l-.9.9c-.3-.2-.6-.5-1-.8-.4-.3-.8-.6-1.3-.8-.5-.3-.9-.5-1.3-.7ZM479.4,161.5h.9c0,0,1.1.9,1.1.9-.5.4-1,.7-1.6,1.1s-1.2.7-1.8,1-1.2.6-1.8.8c-.1-.2-.2-.3-.4-.5-.2-.2-.3-.3-.5-.5.5-.2,1-.4,1.6-.7s1-.6,1.5-.9.8-.6,1.1-.8v-.3ZM478.7,152.5h3.8v1.2h-3.8v-1.2ZM478.7,156.8h3.5v1.2h-3.5v-1.2ZM478.8,154.7h3.5v1.2h-3.5v-1.2ZM481.7,152.5h1.8c0,.8,0,1.6-.1,2.5,0,.9-.1,1.7-.2,2.6,0,.8-.1,1.5-.2,2.1h-1.8c0-.6.2-1.4.2-2.2,0-.8.1-1.7.2-2.6,0-.9,0-1.7.1-2.5Z"/>
                  <path class="cls-19" d="M487.7,152.7h1.9v17.7h-1.9v-17.7ZM488.6,155.7h5.3v1.4h-5.3v-1.4ZM488.7,152.7h6.3v7.5h-6.3v-1.5h4.5v-4.4h-4.5v-1.6ZM503.4,152.7v1.6h-4.9v4.4h4.9v1.6h-6.7v-7.6h6.7ZM497.8,155.7h5.4v1.4h-5.4v-1.4ZM502.4,152.7h1.9v15.3c0,.6,0,1-.2,1.4-.1.3-.4.5-.8.7s-.9.3-1.5.3c-.6,0-1.4,0-2.4,0,0-.2,0-.4-.2-.6s-.2-.5-.2-.7c0-.2-.2-.5-.3-.6.4,0,.9,0,1.3,0,.4,0,.8,0,1.2,0h.7c.2,0,.3,0,.4-.1s.1-.2.1-.4v-15.2Z"/>
                </g>
              </g>
            </g>
          </g>
          <g id="_圖層_1-2" data-name="_圖層_1">
            <g id="_圖層_1-2-3" data-name="_圖層_1-2">
              <g id="_圖層_1-2-4" data-name="_圖層_1-2">
                <g>
                  <g>
                    <rect class="cls-13" x="425" y="84.1" width="3.2" height="52.6"/>
                    <rect class="cls-13" x="434" y="84.1" width="1" height="52.6"/>
                    <rect class="cls-13" x="444.8" y="84.1" width="1" height="52.6"/>
                    <rect class="cls-13" x="455.6" y="84.1" width="1" height="52.6"/>
                    <rect class="cls-13" x="463.8" y="84.4" width="3.2" height="52.6"/>
                    <rect class="cls-13" x="424.9" y="83.9" width="42.1" height="3.6"/>
                  </g>
                  <path class="cls-15" d="M480,117.2l2.4.2c.5,0,.9.3,1.2.6l1.3,1.4c.5.5.3,1.3-.3,1.5h0l-3-.4c-.7,0-1.3-.5-1.8-1l-.8-.9.9-1.4h0,0Z"/>
                  <path class="cls-11" d="M466,109.8s3.4,3.8,5,5c1.6,1.1,9.8,1.9,9.8,1.9l-1.2,3.1s-13.2,1.3-17-.7c-3.8-2,3.4-9.3,3.4-9.3h0Z"/>
                  <g>
                    <polygon class="cls-14" points="489.4 122.2 482.4 116.7 479.8 119.2 482.3 128.8 489.4 122.2"/>
                    <path class="cls-14" d="M504.6,134.1c-1.9-3.5-16.6,2.5-18.7,0-2.3,0-3.7-3.2-3.7-5.6v-5.3c-.1,0,5.5-1.3,5.5-1.3l16.9,3c.6,0,4.5,1.4,4.3,6.4l-.3,1c-.8,1.5-3.3,3.3-4.1,1.9h0s0,0,0,0Z"/>
                    <path class="cls-14" d="M486.7,119.5c-1,1.7-3.9,1.9-5.6.9s-1.4-3.1-.4-4.8c.6-1.1,1.8-1.1,4.1-.4,1.9.6,2.9,2.6,1.9,4.3h0Z"/>
                    <path class="cls-14" d="M481.4,117.3l.4-1.6-4-.7c-.4,0-.8.1-1,.5h0c-.6,1.1,0,1.9,1.1,2.5l3.4,2.8,1.2-2.9-1.1-.6h0Z"/>
                    <path class="cls-21" d="M477.8,115.1l.9.2s-1,1.5-2,.9c0-.2.1-.4.2-.6.2-.3.5-.5.9-.4h0Z"/>
                    <path class="cls-21" d="M482.3,116.8c-.1.2-.3.3-.5.1s-.3-.3-.1-.5.3-.3.5-.1.3.3.1.5Z"/>
                    <path class="cls-14" d="M510.2,120.5c.4-.4,1.1,0,.9.5,0,0-1.2,3.2-3.5,4.4-.6.3-1.1,1.2-1.9,1.1-.8,0-3.3.1-3-.6.4-.7,3.2-2,3.9-2.2,2.5-.8,3-2.8,3.5-3.3h0s0,0,0,0Z"/>
                    <path class="cls-18" d="M486.1,117.1s2.2-.9,1.4,3.9c0,.5-.4,1-.9,1.2-1,.5-2.7,1.1-3.6-.2-1.3-1.9,1.2-1.8,3.1-4.9h0Z"/>
                    <path class="cls-14" d="M505.5,134.7c0,.7,0,1.6,0,1.6l-1.2,3.7h-2.6c-.6-1.2,1-1.3,1-1.3v-3.7s-.6-1.4-2.3-3.1l1.4-1.5,4.1,2v2.3h-.1s0,0,0,0Z"/>
                    <path class="cls-14" d="M502.6,131.7c.3,2.1,3.8,3.3,5.9,3.8.6.1.9,2.7.9,2.7-1.4.9-.8,1.9-.8,1.9h2.1l.5-1.3v-3.4c0-.4-.2-.8-.4-1.2-.4-.4-.9-1-1.1-1.3-.5-.7-1.8-4.7-1.8-4.7,0,0,0-.9-.7-1.4-.7-.5-4.9,2.4-4.6,4.9h0s0,0,0,0h0Z"/>
                    <path class="cls-14" d="M490.5,137.9c0-1.6,0-6.4.4-7l-4.8-1.2,1.9,8.6s-1.2.4-.6,1.6h1.6c.6,0,1-.2,1.2-.7h0c.1-.5.2-.9.2-1.3h0Z"/>
                    <path class="cls-14" d="M486.8,137.9c0-1.6,0-6.4.4-7l-4.8-1.2,1.9,8.6s-1.2.4-.6,1.6h1.6c.6,0,1-.2,1.2-.7h0c.1-.5.2-.9.2-1.3h0Z"/>
                    <path class="cls-6" d="M481.3,124.9c.9,0,3.1-.5,6.5-3.8.1-.1.4-.1.5,0h0c.2.1.2.4,0,.6-.9,1-3.8,3.8-7,4.1-.2,0-.4-.1-.4-.3h0c0-.4.1-.6.4-.6h0Z"/>
                    <path class="cls-21" d="M478.6,118.1c-.4,0-.7-.1-.7-.1,0,0,0,0,0,0,0,0,0,0,0,0,0,0,.9.4,1.5-.2,0,0,0,0,0,0,0,0,0,0,0,0-.3.3-.6.4-.9.4Z"/>
                    <path class="cls-21" d="M505.5,134.5s0,0,0,0c0,0-3.2-.9-4.4-4.8,0,0,0,0,0,0,0,0,0,0,0,0,1.2,3.9,4.3,4.7,4.3,4.8,0,0,0,0,0,0,0,0,0,0,0,0Z"/>
                  </g>
                  <path class="cls-15" d="M488.2,138.5l2.7,1.1s2.5.8,3.2.4c.8-.4.2-1.6.2-1.6l-4.2-2.2-2,2.4h0Z"/>
                  <path class="cls-4" d="M490.9,139.6c0,.1,0,2.3.6,2.5.5.3,3.5.3,5.1.3s4.3.2,4.8-.6c.4-.8-1-1.3-2.4-1.7-1.5-.4-5.3-2.4-5.3-2.4l-2.8,1.9h0s0,0,0,0Z"/>
                  <path class="cls-5" d="M454.4,101.7c0,0-.4,2.2,1,3.3,1.4,1.1,4.6.9,5.6.3s1.7-5.1-.4-6.5c-1.3-.9-3-.5-4.4-.6-1.2,0-2.4,1.8-1.8,3.5h0Z"/>
                  <path class="cls-5" d="M465.5,98.3c1.3.8,2.9,2.5,3.8,7.1.2,1.1,1.1,2.8,2.3,2.4-1.5,2.1-5.2,2-6.2-.6-.4-1.1-.6-8.4-4.3-6.2.2-.4-.3-.9-.1-1.3,0,0,2-2.8,4.5-1.3h0Z"/>
                  <path class="cls-4" d="M468.4,137.6c-.1,0-2.4,0-3.2.1-.8.1-2.6,0-3.5,1.3-.9,1.3-.9,2,0,2.6.9.6,2.3.4,3.2,0,.9-.4,3.2-1.8,3.9-1.9s-.3-2.3-.3-2.3h0Z"/>
                  <path class="cls-10" d="M466.6,136.5s2.2,3.8,2.3,3.6,11.5-4.8,12.9-6.3c1.3-1.4,2-4.1,1.6-4.9-.5-.8-2.3-3-9.1-1.3,0,0-17.5,6.3-17.4,6.1,0-.2,9.7,2.8,9.7,2.8h0Z"/>
                  <path class="cls-10" d="M451.5,126.5s-1.4,8.2-.2,10.4c1.2,2.2,2,4.3,6.8,4.7,6.8.6,15.8-7.8,15.8-7.8,0,0,6.9,4.6,14.9,5.9l2.3-3.7s-16.1-8.7-17.5-8.9c-1.4-.2-22.2-.6-22.2-.6h0Z"/>
                  <path class="cls-11" d="M460.7,105.2s3.4,1.9,3.4,3.4c0,1.5-3.6,0-3.6,0l.2-3.4h0Z"/>
                  <path class="cls-11" d="M454.1,107.7s-1.5.5-2.7,2.1c-1.1,1.5-1.4,3.5-1,5.3.3.9.5,2,.6,2.4.1.7.2,10.6.3,10.6s5.1,1.6,8.2,1.4c4.3-.3,7.1-2.5,7.1-2.5,0,0,.3-8.7,0-10.1-.3-1.5-.3-3.9-.3-3.9,0,0-.1-2.9-.3-3.2s-2.4-2.6-4.8-2.7c-2.4,0-7.1.6-7.1.6h0s0,0,0,0Z"/>
                  <path class="cls-11" d="M457.7,105.3s-2.2-.7-3.2.8c-1,1.5,1.2,3.6,1.4,3.6s1.8-.6,1.8-.6c0,0-.7-1.7,0-3.7h0Z"/>
                  <path class="cls-9" d="M462,122.2s-.3-3.2-.7-4.2c-.4-1-1.1-4-2.5-6l-.4-.4-1-2.9,3.8-.4s1.2,2,1.1,3.7c0,1.7.3,6.9.5,7.4.1.5.5,3.6.4,3.6s-1.4-.9-1.4-.9h0,0Z"/>
                  <path class="cls-15" d="M458.3,101.9s-.6,4.5-1.4,5.7c0,0,1.4,3.4,3.4,3.5,2,.1,1.1-1.7,1.1-1.7,0,0-.1-2.6-.4-5.4-.2-2.1-2.7-2.1-2.7-2.1h0Z"/>
                  <path class="cls-15" d="M470.1,127.1l2.3-.4c.5,0,.9,0,1.4.3l1.6,1c.6.3.6,1.2.1,1.6h0l-3,.3c-.7,0-1.4-.1-2-.5l-1-.7.5-1.6h0Z"/>
                  <path class="cls-11" d="M450.5,114.9s5.4,9.3,10.5,12.1c5.1,2.8,9.1,2.5,9.1,2.5l.5-3s-7.4-1.7-9.6-4.9c-2.2-3.2-4-6.4-4-6.4l-6.5-.3h0,0Z"/>
                  <path class="cls-15" d="M460.4,103.6s-1.4,2.6-2.5,3.1c-1.2.5-1.8-.1-2.2-1.1-.3-.9-.4-1.6-.5-2.7,0-.8,0-1.2,0-1.8.1-1,1.4-2,2.5-1.4s3.3,1.4,2.7,3.9h0s0,0,0,0Z"/>
                  <path class="cls-20" d="M456.6,104.5c0,0,0,0-.1,0-.1,0-.2-.2-.2-.3,0-.2,0-1,0-1.1,0,0,0,0,0,0,0,0,0,0,0,0,0,0,0,.8,0,1.1,0,.1,0,.2.2.3,0,0,.1,0,.2,0,0,0,0,0,0,0,0,0,0,0,0,0,0,0-.1,0-.2,0Z"/>
                  <path class="cls-20" d="M457.2,105.1c0,0-.1,0-.2,0,0,0,0,0,0,0s0,0,0,0c.6.1.8-.4.8-.4,0,0,0,0,0,0,0,0,0,0,0,0,0,0-.2.5-.7.5Z"/>
                  <path class="cls-4" d="M460.7,103s-1.7.5-4-2.6c-.6-.8-.6-2.1-.6-2.1,0,0,5.2.7,4.7,4.7h0Z"/>
                  <path class="cls-20" d="M457.3,103.2c0,.1.1.3.2.2.1,0,.1-.2.1-.3,0-.1-.1-.3-.2-.2-.1,0-.1.2-.1.3Z"/>
                  <path class="cls-20" d="M455.6,103.5c0,.1.1.3.2.2.1,0,.1-.2.1-.3,0-.1-.1-.3-.2-.2-.1,0-.1.2-.1.3Z"/>
                  <path class="cls-20" d="M469.4,137.4s0,0,0,0c0,0,0,0,0,0l4.4-3.1s0,0,0,0l4.8,2.1s0,0,0,0c0,0,0,0,0,0l-4.8-2.1-4.4,3.1s0,0,0,0Z"/>
                  <g>
                    <g>
                      <path class="cls-8" d="M431.2,134.2s-1,.8-3.1,0c-2.1-.8-1.8-3.7-1.8-3.7,0,0-.7,1.4-.4,2.2,0,0-1.1-.8-1-2.4,0,0-.9,1.5-.4,2.9,0,0-1.5-.6-1.6-2.5,0,0-1.7,1.8-.6,4.3,0,0-.6,0-1-.3,0,0,.6,1.5,1.3,2l-1.4-.2s.5,1.6,1.6,1.7c0,0-.7.7-.9.6s1.1,1.3,2.9,1l-2.4.9s.8.8,4.1.8,3-1.2,3-1.2c0,0-1.5,1.3-1.4,1.3s3-.4,3.8-1.9c.8-1.5-.7-5.7-.7-5.7h0Z"/>
                      <path class="cls-8" d="M446.1,140.7s5.4.4,6.6-1.1v.6c.1,0,.9-.1,1.2-2.8l.2.8s.1-1.1.2-2l.2.5v-2.2s.3.8.3.8c0,0,.4-4-.9-5.6l-12.5.8,4.8,10.3h0Z"/>
                      <path class="cls-8" d="M453.6,122.4s-1,.6-1.4.5c-.4,0-.9-.3-1.3-.8-.4-.5-2.1-1.3-3.5-1.2-1.3,0-3.1.7-3.1.7,0,0-2.1,3.9-2.6,9.2l-.3,1.1.7-1.1v1.2c0,0,11-.8,11-.8l.7-1.4s-1.2-1.4-1.7-2.3c-.4-.9.4-1.1.6-1.2,0,0,1.2-.4,1.2-.9,0-.4-.1-.6-.1-.6,0,0,.2-.7.2-1.3s-.5-1.2-.5-1.2h0s0,0,0,0Z"/>
                      <path class="cls-20" d="M451.6,125.9c-.3,0-.5,0-.6-.2,0,0,0,0,0,0,0,0,0,0,0,0,.2.3.7.3,1.5,0,.7-.2,1.3-.8,1.3-.8,0,0,0,0,0,0,0,0,0,0,0,0,0,0-.6.6-1.4.8-.4.1-.7.2-.9.2Z"/>
                      <path class="cls-20" d="M454,123.4s-.6.1-.8,0c-.2-.2-.4-.6-.4-.6l.6-.3c.1,0,.3,0,.4,0,.2.2.4.6.2.9h0Z"/>
                      <path class="cls-8" d="M446.9,122.2l-1.8-3.1s-.3-.3-.5,0-.7,3.3-.4,4.7l2.7-1.5h0s0,0,0,0Z"/>
                      <path class="cls-8" d="M449.1,121.7l-1.8-3.1s-.3-.3-.5,0-.7,3.3-.4,4.7l2.7-1.5h0s0,0,0,0Z"/>
                      <path class="cls-20" d="M450.2,123.5c.1.2.3.4.4.3s.1-.3,0-.5-.3-.4-.4-.3-.1.3,0,.5Z"/>
                      <path class="cls-20" d="M446.9,122.2s0,0,0,0l-1-1.8s0,0,0,0c0,0,0,0,0,0l1,1.8s0,0,0,0c0,0,0,0,0,0Z"/>
                      <path class="cls-20" d="M445.4,122.6s0,0,0,0c-.4-1-.5-3.4-.5-3.5,0,0,0,0,0,0h0s0,0,0,0c0,0,0,2.5.5,3.5,0,0,0,0,0,0,0,0,0,0,0,0Z"/>
                      <path class="cls-20" d="M448.8,121.1s0,0,0,0c0,0-1.7-.5-2.4,0,0,0,0,0,0,0,0,0,0,0,0,0,.8-.5,2.4,0,2.5,0,0,0,0,0,0,0,0,0,0,0,0,0Z"/>
                      <polygon class="cls-8" points="443.3 124.4 441.7 127.2 442.8 126.3 443.4 124.4 443.3 124.4"/>
                      <path class="cls-20" d="M449.2,127.5c-.5,0-.9,0-1.2-.1-.4-.1-.7-.5-.8-1.1,0,0,0,0,0,0,0,0,0,0,0,0,0,0,0,0,0,0,0,0,0,0,0,0,0,.6.3.9.7,1,.7.2,2.6.2,3.9-.5,0,0,0,0,0,0,0,0,0,0,0,0-.9.5-2,.6-2.8.6Z"/>
                      <path class="cls-8" d="M440.2,142.1h-8.4c-.8,0-1.5-.4-2-1-.6-.8-1.2-2.2-1.3-4.4,0-4.1,2.5-6.7,5.5-7.2,3-.5,6.3.1,9.6-1.5l-7.8,10.7.8,1.5s1.3-.2,2.4,0c1,.2,1.5,1.2,1.2,2.1h0Z"/>
                      <path class="cls-8" d="M443.2,136.6s-.2,5.3.9,5.5c1.1.2,13,0,13,0,0,0,.6-1.8-1.4-2.2-2-.4-5.6-.4-5.6-.4,0,0,.4-1.5,0-3-.1-.8-.5-1.5-1.1-2.1l-1.8-1.7-4.5-.5.2,3v1.4h0Z"/>
                      <path class="cls-8" d="M447.6,136.1s-.2,5.3.9,5.5c1.1.2,9.9.2,9.9.2,0,0,.6-1.8-1.4-2.2s-2.5-.5-2.5-.5c0,0,.8-3.4-1-5.1l-1.8-1.7-4.5-.5.3,4.4h0Z"/>
                      <path class="cls-8" d="M438.6,140.4s2.9.8,2.9.7-.5-1.5-.4-1.4c0,0,1.9,1.1,1.9,1.1l.7-2.6,3.9-5.6-4.9-3.9-8.6,9.5,3,3.2,1.7-1h0Z"/>
                      <path class="cls-20" d="M439.7,140.5s0,0,0,0c-.1-.4-.7-.4-.7-.4h-2.3s0,0,0,0c0,0,0,0,0,0,0,0,1.7-.3,1.7-1.9,0-1.3-1.5-2.2-1.9-2.5,0,0,0,0,0,0,0,0,0,0,0,0,0,0,0,0,0,0,0,0,0,0,0,0,.5.2,1.9,1.2,2,2.5,0,1.2-.9,1.7-1.4,1.9h2s.6,0,.8.5c0,0,0,0,0,0,0,0,0,0,0,0Z"/>
                      <path class="cls-20" d="M430.3,141.4s0,0,0,0c-1.9-2.4-1.4-6.8-1.4-6.8,0,0,0,0,0,0,0,0,0,0,0,0,0,0-.5,4.3,1.4,6.8,0,0,0,0,0,0,0,0,0,0,0,0Z"/>
                      <path class="cls-20" d="M451.8,138.3s0,0,0,0c0,0-1.3-2.3-2.8-3.8l-.5,1.3s0,0,0,0c0,0,0,0,0,0,0,0-1.2-2.3-1.9-3.3l-.2,1.2s0,0,0,0c0,0,0,0,0,0,0,0-3.4-1.6-3.2-4.1,0,0,0,0,0,0,0,0,0,0,0,0-.2,2.2,2.7,3.8,3.1,4l.2-1.3s0,0,0,0c0,0,0,0,0,0,.6.9,1.7,2.9,1.9,3.3l.5-1.3s0,0,0,0c0,0,0,0,0,0,1.5,1.5,2.8,3.9,2.9,3.9,0,0,0,0,0,0,0,0,0,0,0,0Z"/>
                      <path class="cls-20" d="M443.4,140.2s0,0,0,0c-.4-.8-.2-5.6-.2-5.8,0,0,0,0,0,0,0,0,0,0,0,0,0,0-.1,5,.2,5.8,0,0,0,0,0,0,0,0,0,0,0,0Z"/>
                      <path class="cls-20" d="M456.9,142s0,0,0,0c0,0,0-.6-.8-1.4-.7-.8-6.3-1-6.4-1,0,0,0,0,0,0v-3.3c-.1,0-.1,0,0,0,0,0,0,0,0,0v3.2c.7,0,5.8.2,6.5,1,.7.9.8,1.5.8,1.5,0,0,0,0,0,0,0,0,0,0,0,0Z"/>
                    </g>
                    <path class="cls-20" d="M452,138.3s0,0,0,0c0,0,0,0,0,0l2-4s0,0,0,0c0,0,0,0,0,0l.5.5s0,0,0,0c0,0,0,0,0,0l-.5-.5-1.9,3.9s0,0,0,0Z"/>
                  </g>
                  <path class="cls-5" d="M457.6,102.3h-.5c0,0-.1,0-.1,0h0c0,0,0-.1,0-.2h.5c0,0,.1,0,.1,0h0c0,0,0,.1,0,.2Z"/>
                  <path class="cls-20" d="M457.3,106.9s0,0,0,0c0,0,0,0,0,0,0,0,1.8-.2,2.3-1.6,0,0,0,0,0,0,0,0,0,0,0,0-.5,1.4-2.3,1.7-2.3,1.7,0,0,0,0,0,0Z"/>
                  <path class="cls-15" d="M459.5,103.2c-.1.7.2,1.4.6,1.4.5,0,1-.4,1.1-1.1s-.2-1.4-.6-1.4c-.5,0-1,.4-1.1,1.1Z"/>
                  <path class="cls-20" d="M460.2,103.7s0,0,0,0c0,0,0-.6.2-1,.1-.1.3-.2.5-.2,0,0,0,0,0,0,0,0,0,0,0,0-.2,0-.3,0-.4.2-.3.3-.2.9-.2.9,0,0,0,0,0,0,0,0,0,0,0,0Z"/>
                  <path class="cls-20" d="M466.7,125.3s0,0,0,0c0,0-2.4-1.5-4.4-2.8-2-1.3-5.4-7.2-5.5-7.8,0,0,0,0,0,0,0,0,0,0,0,0,.1.6,3.5,6.4,5.4,7.7,2,1.3,4.3,2.8,4.4,2.8,0,0,0,0,0,0,0,0,0,0,0,0Z"/>
                  <path class="cls-20" d="M462,121.9s0,0,0,0c-1.1-7.2-3.3-10-3.4-10.2-2.8-.9-3.8-3-4-3.7,0,0,0,0,0,0,0,0,0,0,0,0,0,0,0,0,0,0,0,0,0,0,0,0,.2.6,1.3,2.7,4,3.6,0,0,0,0,0,0,0,0,2.4,2.8,3.5,10.3,0,0,0,0,0,0,0,0,0,0,0,0Z"/>
                  <path class="cls-20" d="M463.6,128.3s0,0,0,0c-1-.4-4.4-2.3-5.8-3.3-1.4-.9-5.1-6.4-5.8-7.5h0s0,0,0,0c0,0,0,0,0,0h0c.4.7,4.4,6.6,5.8,7.5,1.4.9,4.8,2.9,5.8,3.3,0,0,0,0,0,0,0,0,0,0,0,0Z"/>
                  <path class="cls-20" d="M462.8,110.9s0,0,0,0c0,0,0,0,0,0,0,0,1.2-.9.9-3.2,0,0,0,0,0,0,0,0,0,0,0,0,.3,2.3-.9,3.2-.9,3.3,0,0,0,0,0,0Z"/>
                  <path class="cls-20" d="M463.3,122.8s0,0,0,0c-.6-3.2-.8-11.5-.8-11.6,0,0,0,0,0,0,0,0,0,0,0,0,0,0,.3,8.4.8,11.6,0,0,0,0,0,0,0,0,0,0,0,0Z"/>
                  <path class="cls-20" d="M466.7,121s0,0,0,0l-.5-7.8s0,0,0,0c0,0,0,0,0,0l.5,7.8s0,0,0,0c0,0,0,0,0,0Z"/>
                  <path class="cls-5" d="M455.7,102.6h-.3c0,0-.1,0-.1,0h0c0,0,0-.1.1-.1h.3c0,0,.1,0,.1,0h0c0,0,0,.1-.1.1Z"/>
                  <path class="cls-20" d="M475.8,129.3s0,0,0,0c0,0,0,0,0,0,.1-.4,0-.7,0-1-.4-.7-1.4-.9-1.4-.9,0,0,0,0,0,0,0,0,0,0,0,0,0,0,1,.2,1.5.9.2.3.2.7,0,1.1,0,0,0,0,0,0Z"/>
                  <path class="cls-20" d="M484,132.2s0,0,0,0l-5-2.7s0,0,0,0c0,0,0,0,0,0l5,2.7s0,0,0,0c0,0,0,0,0,0Z"/>
                  <path class="cls-20" d="M461.9,100.8s0,0,0,0c-.2-.6-.8-1.4-.8-1.4,0,0,0,0,0,0,0,0,0,0,0,0,0,0,.6.9.8,1.5,0,0,0,0,0,0,0,0,0,0,0,0Z"/>
                  <path class="cls-13" d="M426.1,110.4h3.3c1.2,0,2.1,1,2.1,2.1h0c0,1.2-1,2.1-2.1,2.1h-3.3v-4.3h0s0,0,0,0Z"/>
                </g>
              </g>
            </g>
          </g>
        </g>
      </g>
    </g>
  </g>
</svg>