<?xml version="1.0" encoding="UTF-8"?>
<svg xmlns="http://www.w3.org/2000/svg" version="1.1" viewBox="0 0 1130 262">
  <defs>
    <style>
      .cls-1 {
        fill: #c1cfb2;
      }

      .cls-1, .cls-2, .cls-3, .cls-4, .cls-5, .cls-6, .cls-7, .cls-8, .cls-9, .cls-10, .cls-11 {
        fill-rule: evenodd;
      }

      .cls-2 {
        fill: #7c8c6b;
      }

      .cls-3 {
        fill: #1eabda;
      }

      .cls-12 {
        fill: #386b44;
      }

      .cls-13, .cls-4 {
        fill: #fff;
      }

      .cls-14 {
        fill: #fcf0f0;
        stroke: #fd6a65;
      }

      .cls-14, .cls-15, .cls-16 {
        stroke-linejoin: round;
        stroke-width: 2px;
      }

      .cls-14, .cls-16 {
        stroke-linecap: round;
      }

      .cls-17 {
        fill: #e2f0d4;
      }

      .cls-18, .cls-19 {
        isolation: isolate;
      }

      .cls-20, .cls-10 {
        fill: #633c1d;
      }

      .cls-21 {
        fill: #b4d691;
      }

      .cls-5, .cls-22 {
        fill: #e3633d;
      }

      .cls-6, .cls-23 {
        fill: #c95836;
      }

      .cls-7, .cls-24 {
        fill: #f5cd7d;
      }

      .cls-25, .cls-11 {
        fill: #458554;
      }

      .cls-8 {
        fill: #572a22;
      }

      .cls-26 {
        fill: #b5cf96;
      }

      .cls-9 {
        fill: #8c9e78;
      }

      .cls-15, .cls-16 {
        fill: none;
        stroke: #484848;
      }

      .cls-27, .cls-28 {
        fill: #484848;
      }

      .cls-29 {
        fill: #2a5241;
      }

      .cls-30 {
        fill: #97b870;
      }

      .cls-31 {
        fill: #fd6a65;
      }

      .cls-16 {
        stroke-dasharray: 5 7;
      }

      .cls-28 {
        opacity: 0;
      }

      .cls-19 {
        mix-blend-mode: multiply;
        opacity: .7;
      }

      .cls-32 {
        fill: #b58e3e;
      }
    </style>
  </defs>
  <!-- Generator: Adobe Illustrator 28.7.9, SVG Export Plug-In . SVG Version: 1.2.0 Build 218)  -->
  <g>
    <g id="_x32_7_x5F_環境保護">
      <g id="g-root-cu_qvwc71nngl58-stroke">
        <g id="cu_qvwc71nngl58-stroke">
          <path class="cls-15" d="M536,120.5h13.6c5.7,0,10.4-4.7,10.4-10.4h0v-24.2c0-5.7,4.7-10.4,10.4-10.4h13.6"/>
        </g>
      </g>
      <g>
        <g id="g-root-cu_4pfanxnngl55-stroke">
          <g id="cu_4pfanxnngl55-stroke">
            <path class="cls-16" d="M615.2,101.5v66h18"/>
          </g>
        </g>
        <g id="g-root-cu_9lsjhnnglxf-stroke">
          <g id="cu_9lsjhnnglxf-stroke">
            <path class="cls-16" d="M615.2,101.5v90c0,6.6,4.4,12,9.8,12h0s8.1,0,8.1,0"/>
          </g>
        </g>
        <g id="g-root-cu_4pfanxnngl55-stroke-2" data-name="g-root-cu_4pfanxnngl55-stroke">
          <g id="cu_4pfanxnngl55-stroke-2" data-name="cu_4pfanxnngl55-stroke">
            <path class="cls-16" d="M615.2,100.9v29.6h18"/>
          </g>
        </g>
      </g>
      <g id="c240">
        <g id="tx__dfg14tnngnb9-fill">
          <g class="cls-18">
            <g class="cls-18">
              <path class="cls-27" d="M641.1,209.1h17.8v1.3h-17.8v-1.3ZM644.9,193.1l1.4.3c-.3,1-.6,2-1,3-.4,1-.8,1.9-1.3,2.7s-1,1.6-1.5,2.2c0,0-.2-.2-.3-.3-.1,0-.3-.2-.5-.3-.2,0-.3-.2-.4-.2.6-.6,1.1-1.3,1.5-2.1s.9-1.6,1.2-2.6c.4-.9.7-1.8.9-2.8ZM643.3,202.5h14v1.3h-14v-1.3ZM644.2,196.7h13.8v1.3h-13.8v-1.3ZM649.4,192.7h1.4v17h-1.4v-17Z"/>
              <path class="cls-27" d="M661.6,197.3c0,0,0-.2-.1-.3,0-.1,0-.3-.1-.5s-.1-.3-.2-.4c.2,0,.3,0,.5-.2.2,0,.4-.2.6-.4.1-.1.4-.3.7-.6.3-.3.7-.6,1-1,.4-.4.7-.8,1-1.2l1.2.4c-.6.7-1.2,1.4-1.9,2s-1.3,1.1-1.9,1.6h0c-.2.1-.3.2-.4.2-.1,0-.2.1-.3.2,0,0-.1.1-.1.2ZM662.8,206.3l1.1.4c-.2.6-.4,1.2-.7,1.9-.3.7-.6,1.3-.9,1.8l-1.2-.6c.2-.3.5-.7.7-1.1.2-.4.4-.8.6-1.3.2-.4.3-.8.4-1.2ZM662.4,197.9h1.2v3.2c0,.5,0,1,0,1.6s-.2,1.1-.4,1.7c-.2.6-.5,1.1-.8,1.5,0,0-.2-.2-.3-.3-.1-.1-.2-.2-.4-.3-.1,0-.2-.2-.3-.2.3-.4.6-.8.7-1.3.1-.5.2-.9.3-1.4,0-.5,0-.9,0-1.3v-3.2ZM661.6,197.3v-.9s.7-.4.7-.4l6.7-.5c0,.1,0,.3.1.5s0,.3.1.5c-1.3.1-2.4.2-3.2.3s-1.6.1-2.1.2c-.5,0-1,0-1.3.1-.3,0-.5,0-.7.1-.1,0-.3,0-.3,0ZM663.1,197.9h5.3v1h-5.3v-1ZM663.5,202.8c.6-.1,1.3-.3,2.2-.5.8-.2,1.7-.4,2.6-.7v.8c-.7.3-1.4.5-2.2.7-.8.2-1.5.5-2.1.7l-.4-1ZM663.9,200.3l.5-.7c.4.1.8.2,1.2.4.4.2.8.3,1.2.5s.7.3,1,.4l-.5.8c-.3-.1-.6-.3-1-.4s-.8-.3-1.2-.5c-.4-.2-.8-.3-1.2-.5ZM665.6,206.5h1.3v2.5c0,.2,0,.4.2.5.2,0,.6.1,1.2.1h4.3c.3,0,.6,0,.7-.1.2,0,.3-.3.3-.6,0-.3.1-.8.1-1.4.2,0,.4.2.6.3.2,0,.4.2.6.2,0,.7-.1,1.3-.3,1.7-.1.4-.4.7-.7.8s-.7.2-1.3.2h-4.4c-.7,0-1.2,0-1.6-.1-.4,0-.7-.3-.8-.5-.1-.2-.2-.6-.2-1.1v-2.6ZM667.9,197.9h1.2v6.5c0,.3,0,.5-.1.7s-.2.3-.5.4c-.2,0-.5.1-.9.2-.4,0-.9,0-1.4,0,0-.2,0-.3-.2-.5,0-.2-.2-.3-.2-.5.4,0,.8,0,1.2,0h.7c.1,0,.2,0,.3,0s0-.1,0-.2v-6.5ZM666.8,194.2l.9-.5c.3.3.7.7,1,1.1.3.4.7.8,1,1.2s.5.7.7,1l-1,.6c-.2-.3-.4-.6-.7-1-.3-.4-.6-.8-.9-1.2-.3-.4-.7-.8-1-1.1ZM668.9,206l.9-.6c.4.4.8.8,1.2,1.2.4.5.7.8,1,1.1l-.9.7c-.2-.3-.6-.7-1-1.2-.4-.5-.8-.9-1.2-1.3ZM671.4,192.9h1.3v3.7c0,.3,0,.5.1.6,0,.1.3.2.5.2h3.4c.2,0,.5,0,.8,0,.3,0,.5,0,.7,0,0,.2,0,.4,0,.6s0,.4,0,.5c-.1,0-.4,0-.7,0-.3,0-.6,0-.9,0h-3.5c-.5,0-.9,0-1.1-.2-.3-.1-.4-.3-.6-.6s-.2-.6-.2-1.1v-3.7ZM671.4,199.4h1.3v4.3c0,.2,0,.4.2.5.1,0,.4.1.8.1h3c.2,0,.4,0,.5-.1.1,0,.2-.2.2-.4,0-.2,0-.5.1-.9.1,0,.3.2.5.3.2,0,.4.1.6.2,0,.6-.1,1-.2,1.3-.1.3-.3.5-.6.6-.2.1-.6.2-1,.2h-3.3c-.6,0-1,0-1.3-.1-.3,0-.5-.3-.6-.5-.1-.2-.2-.6-.2-1v-4.3ZM672.1,201h5.5v1.1h-5.5v-1.1ZM672.2,194.4h5.5v1.1h-5.5v-1.1ZM675.7,206.5l1.2-.3c.2.4.4.8.6,1.2s.4.9.6,1.3c.2.4.3.8.4,1.1l-1.2.4c-.1-.3-.2-.7-.4-1.1s-.4-.9-.6-1.3c-.2-.5-.4-.9-.6-1.3Z"/>
              <path class="cls-27" d="M689.3,192.8h1.5c0,.6,0,1.3-.1,2.2,0,.9-.2,1.9-.3,3-.2,1.1-.4,2.3-.8,3.5s-.9,2.4-1.5,3.5c-.6,1.2-1.4,2.3-2.4,3.3-1,1-2.2,1.9-3.6,2.7-.1-.2-.3-.3-.5-.5s-.4-.4-.6-.5c1.4-.7,2.6-1.5,3.5-2.5,1-1,1.7-2,2.4-3.1.6-1.1,1.1-2.2,1.4-3.4.3-1.1.6-2.2.7-3.3.2-1,.2-2,.3-2.8s0-1.5,0-2ZM690.6,195.3c0,.2.1.7.2,1.3,0,.6.2,1.4.5,2.3.2.9.5,1.9.9,2.9.4,1,.9,2,1.5,3,.6,1,1.4,1.9,2.3,2.8.9.9,2,1.6,3.3,2.2-.2.1-.4.3-.5.5-.2.2-.3.4-.4.6-1.3-.6-2.4-1.4-3.4-2.3s-1.7-1.9-2.4-3-1.2-2.2-1.6-3.2c-.4-1.1-.7-2.1-.9-3.1-.2-1-.4-1.8-.5-2.5-.1-.7-.2-1.2-.2-1.5h1.3Z"/>
              <path class="cls-27" d="M714.6,196.9l1.4.4c-.9,2.4-2,4.5-3.3,6.3-1.3,1.8-2.9,3.2-4.7,4.5-1.8,1.2-4,2.2-6.4,3,0-.1-.1-.2-.2-.4s-.2-.3-.3-.5c-.1-.2-.2-.3-.3-.4,2.4-.7,4.5-1.6,6.3-2.8,1.8-1.1,3.3-2.5,4.6-4.2,1.3-1.7,2.3-3.6,3-5.9ZM701,196.3h18v1.3h-18v-1.3ZM705.3,197c.8,2.1,1.8,4,3.1,5.7,1.3,1.7,2.9,3.2,4.7,4.4,1.8,1.2,3.9,2.1,6.2,2.7,0,0-.2.2-.3.4-.1.1-.2.3-.3.5-.1.2-.2.3-.3.4-2.4-.7-4.5-1.6-6.3-2.9-1.8-1.3-3.4-2.8-4.7-4.6-1.3-1.8-2.4-3.8-3.3-6.1l1.2-.4ZM708.5,193l1.4-.4c.3.5.6,1,.9,1.6s.5,1.1.7,1.5l-1.5.5c-.1-.4-.3-.9-.6-1.5-.3-.6-.6-1.1-.9-1.6Z"/>
              <path class="cls-27" d="M721.1,205.9h17.9v1.2h-17.9v-1.2ZM721.6,199.9h17v3.6h-1.3v-2.5h-14.4v2.5h-1.3v-3.6ZM726.6,192.9l.6.8c-.6.2-1.2.4-2,.6-.7.1-1.4.3-2,.3l-.5-.8c.4,0,.8-.2,1.3-.3s.9-.2,1.4-.4.8-.2,1.2-.3ZM722.8,193.9l1.3.4.4,6.2h-1.3l-.4-6.6ZM723.5,195.6h3.6v1h-3.6v-1ZM723.6,197.7h3.6v1h-3.6v-1ZM724.8,202.4h9.6v1h-9.6v-1ZM729.6,205h1.3v4.6c0,.4,0,.6-.1.8-.1.2-.3.3-.6.4-.3,0-.7.1-1.2.2-.5,0-1.2,0-2,0,0-.2,0-.3-.2-.6,0-.2-.2-.4-.3-.6.4,0,.8,0,1.2,0s.7,0,1,0,.5,0,.6,0c.2,0,.3,0,.3,0,0,0,0-.1,0-.3v-4.5ZM731.1,196.3l1,.3c-.5.6-1.1,1.2-1.8,1.8-.7.6-1.4,1.1-2.2,1.5,0,0-.2-.2-.4-.4-.2-.2-.3-.3-.4-.4.7-.3,1.4-.7,2.1-1.2.7-.5,1.2-1,1.6-1.6ZM731,192.9l1,.3c-.5.6-1,1.2-1.7,1.8-.7.6-1.4,1-2,1.4,0,0-.2-.2-.4-.4-.2-.1-.3-.3-.4-.3.7-.3,1.3-.8,2-1.2.7-.5,1.2-1,1.6-1.5ZM727.8,197.2l.7-.6c.5.2.9.5,1.4.7s1,.6,1.4.9c.4.3.8.6,1.1.8l-.7.7c-.3-.3-.6-.6-1-.9-.4-.3-.9-.6-1.4-.9s-1-.6-1.4-.8ZM727.8,193.8l.7-.6c.5.2.9.4,1.4.7.5.3.9.5,1.4.8.4.3.8.5,1,.8l-.7.7c-.3-.2-.6-.5-1-.8-.4-.3-.9-.6-1.3-.8-.5-.3-.9-.5-1.4-.7ZM734.1,202.4h.6c0,0,.8.6.8.6-.5.4-1,.7-1.6,1-.6.3-1.2.6-1.8.9s-1.2.5-1.8.8c0-.1-.2-.2-.3-.4-.1-.1-.3-.2-.4-.3.5-.2,1.1-.4,1.6-.7.6-.3,1.1-.5,1.6-.8s.9-.6,1.2-.8v-.3ZM732.8,197.7h3.6v1h-3.6v-1ZM732.8,193.5h3.9v1h-3.9v-1ZM732.9,195.6h3.6v1h-3.6v-1ZM736.1,193.5h1.3c0,.8,0,1.6-.1,2.4s-.1,1.7-.2,2.5c0,.8-.1,1.5-.2,2.1h-1.3c0-.6.2-1.3.2-2.1s.1-1.6.2-2.5c0-.9,0-1.6.1-2.4Z"/>
              <path class="cls-27" d="M745.9,205.5l1.3.5c-.4.5-.8,1-1.3,1.6s-1,1-1.6,1.5-1.1.9-1.6,1.2c0,0-.2-.2-.3-.3-.1-.1-.3-.2-.4-.3-.1-.1-.3-.2-.4-.3.8-.5,1.6-1.1,2.4-1.8.8-.7,1.4-1.4,1.9-2.1ZM754.3,192.8l1,1.1c-.8.4-1.7.7-2.8,1.1-1,.3-2.1.7-3.3,1-1.2.3-2.3.6-3.5.8-1.2.3-2.4.5-3.5.7,0-.2,0-.4-.2-.6,0-.2-.2-.4-.2-.5,1.1-.2,2.3-.5,3.4-.7,1.2-.3,2.3-.5,3.4-.8s2.2-.6,3.1-.9c1-.3,1.8-.7,2.5-1ZM742.6,205.2c0-.1,0-.2,0-.4,0-.2-.1-.3-.2-.5,0-.2-.1-.3-.1-.4.3,0,.7-.1,1.1-.3.5-.2,1-.4,1.6-.7.3-.1.8-.4,1.5-.7.7-.3,1.4-.7,2.3-1.2s1.7-1,2.6-1.6c.9-.6,1.8-1.2,2.6-1.8l1,.9c-1.9,1.3-3.8,2.5-5.7,3.5-1.9,1-3.8,1.9-5.7,2.6h0c-.2.1-.4.2-.5.2-.1,0-.2.1-.4.2s-.1.1-.1.2ZM742.6,205.2v-1s.9-.5.9-.5l13.1-.9c0,.2,0,.4,0,.6v.6c-2,.1-3.8.3-5.2.4s-2.7.2-3.7.3-1.8.1-2.4.2-1.1.1-1.5.2-.6,0-.8.1c-.2,0-.3,0-.5.1ZM743.7,201c0,0,0-.2,0-.4,0-.2,0-.3-.1-.5s-.1-.3-.1-.4c.2,0,.5,0,.7-.2.3-.1.6-.2.9-.4.2-.1.6-.3,1.1-.7s1.1-.7,1.8-1.2c.6-.4,1.2-.9,1.8-1.4l1.2.8c-1,.8-2,1.5-3.1,2.1-1.1.6-2.1,1.2-3.1,1.6h0c-.2.1-.3.2-.5.2-.1,0-.2.1-.3.2,0,0-.1.1-.1.2ZM743.7,201v-1s.8-.4.8-.4l7.5-.4c0,.2,0,.3,0,.6,0,.2,0,.4,0,.5-1.4,0-2.5.2-3.4.2-.9,0-1.7.1-2.3.2s-1,0-1.4.1c-.3,0-.6,0-.7,0-.2,0-.3,0-.4.1ZM749.5,203.6h1.4v5.7c0,.4,0,.7-.2.9-.1.2-.3.4-.6.5-.3.1-.7.2-1.2.2s-1.1,0-1.9,0c0-.2-.1-.4-.2-.7-.1-.3-.2-.5-.3-.7.4,0,.8,0,1.2,0,.4,0,.7,0,.9,0,.3,0,.4,0,.5,0,.2,0,.3,0,.3,0,0,0,0-.1,0-.2v-5.7ZM752.8,206l1-.7c.5.4,1.1.9,1.7,1.3.6.5,1.1,1,1.7,1.4.5.5,1,.9,1.3,1.3l-1.1.8c-.3-.4-.7-.8-1.2-1.3-.5-.5-1.1-1-1.6-1.5s-1.1-1-1.7-1.4ZM753.4,200.7l1.1-.5c.5.5,1,.9,1.5,1.5.5.5,1,1.1,1.5,1.6.5.5.8,1,1.1,1.4l-1.1.7c-.3-.4-.6-.9-1.1-1.4s-.9-1.1-1.5-1.6c-.5-.5-1-1.1-1.5-1.5Z"/>
            </g>
          </g>
        </g>
        <rect class="cls-28" x="640" y="192" width="119" height="20"/>
      </g>
      <g id="c239">
        <g id="tx__hv9j99nngmj0-fill">
          <g class="cls-18">
            <g class="cls-18">
              <path class="cls-27" d="M646.7,161.9h.5c0,0,.9.3.9.3-.3,1.7-.8,3.3-1.4,4.7-.6,1.4-1.3,2.6-2.1,3.6-.8,1-1.7,1.9-2.6,2.5,0-.1-.2-.2-.3-.4-.1-.1-.3-.3-.4-.4-.1-.1-.3-.2-.4-.3.9-.6,1.8-1.4,2.6-2.3s1.5-2,2-3.3c.6-1.3,1-2.6,1.3-4.2v-.3ZM641.5,161.9h5.7v1.3h-5.7v-1.3ZM649.3,156.8h1.4v16.4c0,.5,0,.8-.2,1.1s-.3.4-.6.5c-.3.1-.7.2-1.2.2s-1.1,0-1.9,0c0-.1,0-.3-.1-.5s-.1-.4-.2-.5c0-.2-.1-.3-.2-.5.6,0,1.1,0,1.6,0s.8,0,.9,0c.2,0,.3,0,.3,0,0,0,0-.2,0-.3v-16.4ZM650.7,161.3c.4,1.1.9,2.1,1.6,3.2.6,1,1.3,2,2.1,3,.8.9,1.6,1.7,2.5,2.5.9.7,1.8,1.3,2.8,1.8-.1,0-.2.2-.4.4-.1.1-.2.3-.4.4-.1.1-.2.3-.3.4-1-.5-1.9-1.2-2.8-2-.9-.8-1.7-1.7-2.5-2.7-.8-1-1.4-2.1-2.1-3.2-.6-1.1-1.1-2.3-1.6-3.5l1-.3ZM656.4,160.5l1.2.9c-.5.5-1,1.1-1.5,1.7-.5.6-1.1,1.1-1.6,1.7-.5.5-1.1,1-1.5,1.4l-.9-.7c.5-.4,1-.9,1.5-1.5.5-.6,1.1-1.1,1.6-1.8.5-.6.9-1.2,1.3-1.7Z"/>
              <path class="cls-27" d="M661.1,172.8h17.9v1.3h-17.9v-1.3ZM662.4,163.2h15.3v1.3h-15.3v-1.3ZM669.3,156.8h1.4v16.9h-1.4v-16.9Z"/>
              <path class="cls-27" d="M685.6,156.8l1.3.4c-.5,1.1-1,2.2-1.6,3.3-.6,1.1-1.2,2.1-1.9,3-.7,1-1.4,1.8-2.1,2.5,0-.1-.1-.2-.2-.4,0-.2-.2-.3-.3-.5-.1-.2-.2-.3-.3-.4.7-.6,1.4-1.4,2-2.2.6-.9,1.2-1.8,1.8-2.8.6-1,1-2,1.4-3ZM683.5,161.9l1.3-1.3h0v14.4h-1.3v-13.1ZM689.3,168.7l1.2.4c-.3.6-.7,1.1-1.1,1.7-.4.6-.8,1.2-1.2,1.7-.4.6-.8,1-1.2,1.5,0,0-.2-.1-.3-.2-.1,0-.2-.2-.4-.3-.1,0-.3-.2-.4-.2.6-.6,1.2-1.3,1.8-2.1.6-.8,1.1-1.6,1.5-2.4ZM686.1,166.5h13v1.2h-13v-1.2ZM687.6,157.7h10.3v6.3h-10.3v-6.3ZM688.9,158.9v3.8h7.7v-3.8h-7.7ZM692,163.6h1.3v11.5h-1.3v-11.5ZM694.6,169.3l1-.6c.4.5.9,1,1.4,1.5.5.5.9,1.1,1.3,1.6.4.5.7,1,1,1.4l-1.1.7c-.2-.4-.5-.9-.9-1.5-.4-.5-.8-1.1-1.2-1.7-.4-.6-.9-1.1-1.3-1.6Z"/>
              <path class="cls-27" d="M700.6,167.4c.8-.2,1.7-.5,2.8-.8,1.1-.3,2.2-.7,3.4-1.1l.2,1.2c-1.1.3-2.1.7-3.2,1-1.1.4-2,.7-2.9,1l-.4-1.3ZM700.9,160.8h6.1v1.3h-6.1v-1.3ZM703.5,156.7h1.3v16.6c0,.4,0,.7-.1.9s-.3.4-.5.5c-.2.1-.5.2-.9.2-.4,0-.9,0-1.5,0,0-.2,0-.4-.2-.6,0-.2-.2-.5-.2-.6.4,0,.8,0,1.2,0s.6,0,.7,0c.1,0,.2,0,.3,0,0,0,0-.1,0-.3v-16.6ZM707.3,159.4h11.9v1.2h-11.9v-1.2ZM707.5,166.9h11.6v1.2h-11.6v-1.2ZM708.3,163.2h10v1.2h-10v-1.2ZM709.1,169.4l1-.6c.3.4.5.8.8,1.2.3.4.6.8.8,1.2.3.4.5.7.6,1l-1.1.7c-.1-.3-.3-.7-.6-1.1s-.5-.8-.8-1.3c-.3-.4-.6-.8-.8-1.2ZM715.3,165h1.3v8.4c0,.4,0,.7-.2.9s-.3.4-.6.5c-.3,0-.7.2-1.1.2-.5,0-1.1,0-1.9,0,0-.2,0-.4-.2-.6,0-.2-.2-.5-.3-.7.6,0,1.1,0,1.6,0s.8,0,.9,0c.1,0,.2,0,.3-.1s0-.2,0-.3v-8.4ZM712.6,156.8h1.3v7.1h-1.3v-7.1Z"/>
              <path class="cls-27" d="M721.1,169.9h17.9v1.2h-17.9v-1.2ZM721.6,163.9h17v3.6h-1.3v-2.5h-14.4v2.5h-1.3v-3.6ZM726.6,156.9l.6.8c-.6.2-1.2.4-2,.6-.7.1-1.4.3-2,.3l-.5-.8c.4,0,.8-.2,1.3-.3s.9-.2,1.4-.4.8-.2,1.2-.3ZM722.8,157.9l1.3.4.4,6.2h-1.3l-.4-6.6ZM723.5,159.6h3.6v1h-3.6v-1ZM723.6,161.7h3.6v1h-3.6v-1ZM724.8,166.4h9.6v1h-9.6v-1ZM729.6,169h1.3v4.6c0,.4,0,.6-.1.8-.1.2-.3.3-.6.4-.3,0-.7.1-1.2.2-.5,0-1.2,0-2,0,0-.2,0-.3-.2-.6,0-.2-.2-.4-.3-.6.4,0,.8,0,1.2,0s.7,0,1,0,.5,0,.6,0c.2,0,.3,0,.3,0,0,0,0-.1,0-.3v-4.5ZM731.1,160.3l1,.3c-.5.6-1.1,1.2-1.8,1.8-.7.6-1.4,1.1-2.2,1.5,0,0-.2-.2-.4-.4-.2-.2-.3-.3-.4-.4.7-.3,1.4-.7,2.1-1.2.7-.5,1.2-1,1.6-1.6ZM731,156.9l1,.3c-.5.6-1,1.2-1.7,1.8-.7.6-1.4,1-2,1.4,0,0-.2-.2-.4-.4-.2-.1-.3-.3-.4-.3.7-.3,1.3-.8,2-1.2.7-.5,1.2-1,1.6-1.5ZM727.8,161.2l.7-.6c.5.2.9.5,1.4.7s1,.6,1.4.9c.4.3.8.6,1.1.8l-.7.7c-.3-.3-.6-.6-1-.9-.4-.3-.9-.6-1.4-.9s-1-.6-1.4-.8ZM727.8,157.8l.7-.6c.5.2.9.4,1.4.7.5.3.9.5,1.4.8.4.3.8.5,1,.8l-.7.7c-.3-.2-.6-.5-1-.8-.4-.3-.9-.6-1.3-.8-.5-.3-.9-.5-1.4-.7ZM734.1,166.4h.6c0,0,.8.6.8.6-.5.4-1,.7-1.6,1-.6.3-1.2.6-1.8.9s-1.2.5-1.8.8c0-.1-.2-.2-.3-.4-.1-.1-.3-.2-.4-.3.5-.2,1.1-.4,1.6-.7.6-.3,1.1-.5,1.6-.8s.9-.6,1.2-.8v-.3ZM732.8,161.7h3.6v1h-3.6v-1ZM732.8,157.5h3.9v1h-3.9v-1ZM732.9,159.6h3.6v1h-3.6v-1ZM736.1,157.5h1.3c0,.8,0,1.6-.1,2.4s-.1,1.7-.2,2.5c0,.8-.1,1.5-.2,2.1h-1.3c0-.6.2-1.3.2-2.1s.1-1.6.2-2.5c0-.9,0-1.6.1-2.4Z"/>
              <path class="cls-27" d="M745.9,169.5l1.3.5c-.4.5-.8,1-1.3,1.6s-1,1-1.6,1.5-1.1.9-1.6,1.2c0,0-.2-.2-.3-.3-.1-.1-.3-.2-.4-.3-.1-.1-.3-.2-.4-.3.8-.5,1.6-1.1,2.4-1.8.8-.7,1.4-1.4,1.9-2.1ZM754.3,156.8l1,1.1c-.8.4-1.7.7-2.8,1.1-1,.3-2.1.7-3.3,1-1.2.3-2.3.6-3.5.8-1.2.3-2.4.5-3.5.7,0-.2,0-.4-.2-.6,0-.2-.2-.4-.2-.5,1.1-.2,2.3-.5,3.4-.7,1.2-.3,2.3-.5,3.4-.8s2.2-.6,3.1-.9c1-.3,1.8-.7,2.5-1ZM742.6,169.2c0-.1,0-.2,0-.4,0-.2-.1-.3-.2-.5,0-.2-.1-.3-.1-.4.3,0,.7-.1,1.1-.3.5-.2,1-.4,1.6-.7.3-.1.8-.4,1.5-.7.7-.3,1.4-.7,2.3-1.2s1.7-1,2.6-1.6c.9-.6,1.8-1.2,2.6-1.8l1,.9c-1.9,1.3-3.8,2.5-5.7,3.5-1.9,1-3.8,1.9-5.7,2.6h0c-.2.1-.4.2-.5.2-.1,0-.2.1-.4.2s-.1.1-.1.2ZM742.6,169.2v-1s.9-.5.9-.5l13.1-.9c0,.2,0,.4,0,.6v.6c-2,.1-3.8.3-5.2.4s-2.7.2-3.7.3-1.8.1-2.4.2-1.1.1-1.5.2-.6,0-.8.1c-.2,0-.3,0-.5.1ZM743.7,165c0,0,0-.2,0-.4,0-.2,0-.3-.1-.5s-.1-.3-.1-.4c.2,0,.5,0,.7-.2.3-.1.6-.2.9-.4.2-.1.6-.3,1.1-.7s1.1-.7,1.8-1.2c.6-.4,1.2-.9,1.8-1.4l1.2.8c-1,.8-2,1.5-3.1,2.1-1.1.6-2.1,1.2-3.1,1.6h0c-.2.1-.3.2-.5.2-.1,0-.2.1-.3.2,0,0-.1.1-.1.2ZM743.7,165v-1s.8-.4.8-.4l7.5-.4c0,.2,0,.3,0,.6,0,.2,0,.4,0,.5-1.4,0-2.5.2-3.4.2-.9,0-1.7.1-2.3.2s-1,0-1.4.1c-.3,0-.6,0-.7,0-.2,0-.3,0-.4.1ZM749.5,167.6h1.4v5.7c0,.4,0,.7-.2.9-.1.2-.3.4-.6.5-.3.1-.7.2-1.2.2s-1.1,0-1.9,0c0-.2-.1-.4-.2-.7-.1-.3-.2-.5-.3-.7.4,0,.8,0,1.2,0,.4,0,.7,0,.9,0,.3,0,.4,0,.5,0,.2,0,.3,0,.3,0,0,0,0-.1,0-.2v-5.7ZM752.8,170l1-.7c.5.4,1.1.9,1.7,1.3.6.5,1.1,1,1.7,1.4.5.5,1,.9,1.3,1.3l-1.1.8c-.3-.4-.7-.8-1.2-1.3-.5-.5-1.1-1-1.6-1.5s-1.1-1-1.7-1.4ZM753.4,164.7l1.1-.5c.5.5,1,.9,1.5,1.5.5.5,1,1.1,1.5,1.6.5.5.8,1,1.1,1.4l-1.1.7c-.3-.4-.6-.9-1.1-1.4s-.9-1.1-1.5-1.6c-.5-.5-1-1.1-1.5-1.5Z"/>
            </g>
          </g>
        </g>
        <rect class="cls-28" x="640" y="156" width="119" height="20"/>
      </g>
      <g id="c238">
        <g id="tx__qqwji5nnglqb-fill">
          <g class="cls-18">
            <g class="cls-18">
              <path class="cls-27" d="M640.6,135.6c.7-.2,1.6-.4,2.5-.7,1-.3,2-.6,3-.9l.2,1.2c-.9.3-1.9.6-2.8.9-.9.3-1.8.6-2.6.8l-.3-1.3ZM640.9,122.1h5.4v1.2h-5.4v-1.2ZM641.1,128h4.9v1.2h-4.9v-1.2ZM643,122.8h1.2v12.4l-1.2.3v-12.7ZM652.2,132.3l1,.4c-.5.5-1.1,1-1.8,1.5-.7.5-1.4.9-2.2,1.3-.8.4-1.5.7-2.3.9,0-.1-.2-.3-.3-.5-.2-.2-.3-.3-.4-.5.7-.2,1.5-.5,2.3-.8.8-.3,1.5-.7,2.2-1.1s1.2-.9,1.7-1.3ZM646.9,126.7h12.1v1.1h-12.1v-1.1ZM647.7,121.4h10.5v4.2h-10.5v-4.2ZM648.3,129h9.4v4.1h-9.4v-4.1ZM649,139c0-.1-.1-.3-.2-.5-.1-.2-.2-.4-.3-.5.1,0,.3-.2.4-.4.2-.2.2-.5.2-.8v-2l1.1-.3v3.4c-.3.1-.5.3-.6.4s-.3.2-.4.4c-.1.1-.2.3-.2.4ZM648.9,122.4v2.2h2v-2.2h-2ZM649,139v-.9c0,0,.5-.5.5-.5l4.2-1c0,.1,0,.3,0,.5s0,.4,0,.5c-1,.3-1.7.5-2.3.6-.6.2-1,.3-1.4.4-.3,0-.5.2-.7.2-.1,0-.3.1-.3.2ZM649.5,130v2h6.9v-2h-6.9ZM651.9,122.4v2.2h2.1v-2.2h-2.1ZM653.7,132.5c.3.8.7,1.6,1.2,2.3.5.7,1.2,1.3,1.9,1.8.7.5,1.6.9,2.5,1.2-.1.1-.3.3-.4.5-.2.2-.3.4-.4.6-1.5-.5-2.7-1.3-3.7-2.3s-1.7-2.3-2.2-3.8l1.1-.3ZM657.8,133.4l.9.8c-.5.3-1.1.7-1.8,1-.6.3-1.2.6-1.7.9l-.7-.6c.3-.2.7-.4,1.1-.7s.8-.5,1.2-.8.7-.5,1-.7ZM654.9,122.4v2.2h2.1v-2.2h-2.1Z"/>
              <path class="cls-27" d="M660.7,135c.5-.2,1.1-.4,1.7-.6.7-.2,1.3-.5,2.1-.8.7-.3,1.5-.5,2.2-.8l.3,1.2c-1,.4-2,.8-3,1.2-1,.4-2,.8-2.8,1.1l-.4-1.4ZM661.1,125.6h5.5v1.3h-5.5v-1.3ZM663.3,121h1.3v13.4h-1.3v-13.4ZM670.5,133.5h1.3c0,.8-.2,1.5-.4,2.1-.2.6-.5,1.1-.8,1.6-.4.4-.9.8-1.5,1.1-.6.3-1.4.6-2.4.8,0-.1,0-.2-.2-.4,0-.1-.2-.3-.2-.4s-.2-.2-.3-.3c.9-.2,1.6-.4,2.1-.6.6-.3,1-.6,1.3-.9.3-.4.6-.8.7-1.3s.3-1.1.3-1.7ZM667.4,125.9h11.2v1.2h-11.2v-1.2ZM668,122.2h10v1.1h-10v-1.1ZM668.4,128.2h9.1v5.7h-9.1v-5.7ZM669.6,123.9l1.1-.2c.1.3.3.7.4,1,.1.4.3.7.3,1l-1.2.3c0-.3-.1-.6-.3-1s-.3-.8-.4-1.1ZM669.6,129.1v1.4h6.5v-1.4h-6.5ZM669.6,131.5v1.4h6.5v-1.4h-6.5ZM671.8,120.9l1.2-.2c.2.3.3.6.5,1,.2.4.3.7.4.9l-1.3.3c0-.3-.2-.6-.3-1-.1-.4-.3-.7-.4-1ZM673.7,133.5h1.3v3.5c0,.3,0,.5.2.6.1,0,.3,0,.6,0h1c.1,0,.3,0,.4,0s.2,0,.3,0c.2,0,.3-.2.4-.4,0-.1,0-.4,0-.7,0-.3,0-.7,0-1.1.1.1.3.2.5.3.2.1.4.2.6.2,0,.4,0,.8,0,1.2,0,.4,0,.6-.2.8-.1.3-.4.5-.7.6-.1,0-.3,0-.6.1-.2,0-.5,0-.6,0h-1.4c-.2,0-.5,0-.7,0-.3,0-.5-.1-.6-.2-.2-.1-.3-.3-.4-.5,0-.2-.1-.6-.1-1.1v-3.4ZM675,123.7l1.2.3c-.2.4-.4.9-.6,1.3-.2.4-.4.8-.6,1.1l-1-.3c.2-.3.4-.8.5-1.2s.3-.9.5-1.2Z"/>
              <path class="cls-27" d="M681,125.1h5.7v1.1h-5.7v-1.1ZM687,136.1l1.2.6c-.5.3-1.2.6-1.9.9-.7.3-1.4.6-2.2.8-.7.3-1.4.5-2.1.7,0,0-.2-.2-.3-.3-.1-.1-.2-.3-.4-.4-.1-.1-.2-.2-.4-.3.7-.1,1.4-.3,2.1-.5.7-.2,1.4-.4,2.1-.7s1.2-.5,1.7-.8ZM681.5,122h4.8v1.1h-4.8v-1.1ZM683.7,127.8h13v8.1h-13v-8.1ZM685,128.7v1.5h10.3v-1.5h-10.3ZM685,131.1v1.5h10.3v-1.5h-10.3ZM685,133.5v1.5h10.3v-1.5h-10.3ZM692.1,122.7h1.3v.7c0,.4,0,.8-.2,1.2-.1.4-.4.8-.8,1.2s-1,.7-1.9,1.1c-.8.3-2,.6-3.4.8,0-.2-.2-.3-.3-.5-.1-.2-.3-.4-.4-.5,1.3-.2,2.4-.4,3.1-.7.8-.3,1.3-.5,1.7-.8.4-.3.6-.6.7-.9.1-.3.2-.6.2-.9v-.6ZM689.7,120.7l1.2.3c-.3.8-.6,1.6-1.1,2.4-.4.8-.9,1.4-1.4,1.9,0,0-.2-.1-.3-.2-.1,0-.2-.2-.4-.3-.1,0-.3-.2-.4-.2.5-.5,1-1.1,1.4-1.8.4-.7.7-1.4,1-2.1ZM689.3,122.1h8.3v1.1h-8.3v-1.1ZM692,136.8l.9-.8c.7.2,1.5.4,2.2.7.7.3,1.4.5,2.1.8.6.2,1.2.5,1.7.7l-1.2.8c-.4-.2-.9-.5-1.6-.7-.6-.2-1.3-.5-2-.8-.7-.3-1.4-.5-2.2-.7ZM693.2,124c.3.4.8.8,1.4,1.2s1.3.6,2.1.8c.8.2,1.6.4,2.6.5-.1.1-.3.3-.4.5-.1.2-.3.4-.3.6-.9-.1-1.8-.4-2.6-.7s-1.5-.7-2.1-1.1c-.6-.4-1.1-1-1.5-1.5l1-.2ZM697.2,122.1h.5c0,0,.9.2.9.2-.3.5-.5,1-.8,1.5-.3.5-.6,1-.9,1.3l-1.1-.4c.2-.3.5-.8.7-1.2.3-.5.5-.9.6-1.3v-.2Z"/>
              <path class="cls-27" d="M700.8,127.3l.8-.9c.4.2.8.4,1.2.7.4.2.8.5,1.2.7.4.2.7.4,1,.6l-.8,1.1c-.3-.2-.6-.4-1-.7-.4-.3-.8-.5-1.2-.8s-.8-.5-1.2-.7ZM701.3,138c.3-.5.6-1.2,1-1.9.4-.7.7-1.5,1.1-2.3.4-.8.7-1.6,1-2.3l1.1.8c-.3.7-.6,1.4-.9,2.2-.3.8-.7,1.5-1,2.2-.4.7-.7,1.4-1,2l-1.2-.8ZM701.8,121.9l.8-.9c.4.2.8.5,1.2.7.4.3.8.5,1.2.8.4.3.7.5,1,.7l-.8,1.1c-.2-.2-.6-.4-.9-.7-.4-.3-.8-.5-1.2-.8s-.8-.5-1.2-.8ZM706.8,121.7h1.3v5.5c0,.9,0,1.8,0,2.8,0,1-.2,2.1-.4,3.1-.2,1.1-.5,2.1-.8,3.1-.4,1-.8,1.9-1.4,2.8,0,0-.2-.2-.3-.3-.1,0-.3-.2-.4-.3-.1,0-.3-.2-.4-.2.6-.8,1-1.7,1.4-2.6.3-.9.6-1.9.8-2.9.2-1,.3-1.9.3-2.9,0-1,0-1.8,0-2.7v-5.5ZM707.3,121.7h11.7v1.2h-11.7v-1.2ZM710.1,133.4l1.2.3c-.2.5-.5,1-.8,1.5-.3.5-.6,1-.9,1.4-.3.5-.6.9-.9,1.2,0,0-.2-.1-.3-.2-.1,0-.3-.2-.4-.3-.1,0-.3-.2-.4-.2.5-.5.9-1.1,1.4-1.7.4-.7.8-1.3,1.1-2ZM709.4,125.3h8.8v6.9h-8.8v-6.9ZM713,131.7h1.3v6c0,.3,0,.6-.1.8,0,.2-.3.3-.5.4-.3,0-.6.2-1,.2-.4,0-1,0-1.7,0,0-.2,0-.4-.1-.6,0-.2-.1-.4-.2-.6.5,0,1,0,1.4,0h.8c.2,0,.3-.1.3-.3v-5.9ZM710.6,126.4v1.8h6.4v-1.8h-6.4ZM710.6,129.3v1.9h6.4v-1.9h-6.4ZM713.1,123.3l1.5.3c-.2.4-.4.9-.6,1.3-.2.4-.4.8-.6,1.1l-1.1-.3c.1-.3.3-.8.4-1.2s.2-.9.3-1.2ZM715.8,133.7l1.2-.5c.3.4.6.9.9,1.3.3.5.6.9.8,1.4.3.4.5.8.6,1.2l-1.2.6c-.2-.3-.4-.7-.6-1.2s-.5-.9-.8-1.4c-.3-.5-.6-.9-.9-1.3Z"/>
              <path class="cls-27" d="M721.1,133.9h17.9v1.2h-17.9v-1.2ZM721.6,127.9h17v3.6h-1.3v-2.5h-14.4v2.5h-1.3v-3.6ZM726.6,120.9l.6.8c-.6.2-1.2.4-2,.6-.7.1-1.4.3-2,.3l-.5-.8c.4,0,.8-.2,1.3-.3s.9-.2,1.4-.4.8-.2,1.2-.3ZM722.8,121.9l1.3.4.4,6.2h-1.3l-.4-6.6ZM723.5,123.6h3.6v1h-3.6v-1ZM723.6,125.7h3.6v1h-3.6v-1ZM724.8,130.4h9.6v1h-9.6v-1ZM729.6,133h1.3v4.6c0,.4,0,.6-.1.8-.1.2-.3.3-.6.4-.3,0-.7.1-1.2.2-.5,0-1.2,0-2,0,0-.2,0-.3-.2-.6,0-.2-.2-.4-.3-.6.4,0,.8,0,1.2,0s.7,0,1,0,.5,0,.6,0c.2,0,.3,0,.3,0,0,0,0-.1,0-.3v-4.5ZM731.1,124.3l1,.3c-.5.6-1.1,1.2-1.8,1.8-.7.6-1.4,1.1-2.2,1.5,0,0-.2-.2-.4-.4-.2-.2-.3-.3-.4-.4.7-.3,1.4-.7,2.1-1.2.7-.5,1.2-1,1.6-1.6ZM731,120.9l1,.3c-.5.6-1,1.2-1.7,1.8-.7.6-1.4,1-2,1.4,0,0-.2-.2-.4-.4-.2-.1-.3-.3-.4-.3.7-.3,1.3-.8,2-1.2.7-.5,1.2-1,1.6-1.5ZM727.8,125.2l.7-.6c.5.2.9.5,1.4.7s1,.6,1.4.9c.4.3.8.6,1.1.8l-.7.7c-.3-.3-.6-.6-1-.9-.4-.3-.9-.6-1.4-.9s-1-.6-1.4-.8ZM727.8,121.8l.7-.6c.5.2.9.4,1.4.7.5.3.9.5,1.4.8.4.3.8.5,1,.8l-.7.7c-.3-.2-.6-.5-1-.8-.4-.3-.9-.6-1.3-.8-.5-.3-.9-.5-1.4-.7ZM734.1,130.4h.6c0,0,.8.6.8.6-.5.4-1,.7-1.6,1-.6.3-1.2.6-1.8.9s-1.2.5-1.8.8c0-.1-.2-.2-.3-.4-.1-.1-.3-.2-.4-.3.5-.2,1.1-.4,1.6-.7.6-.3,1.1-.5,1.6-.8s.9-.6,1.2-.8v-.3ZM732.8,125.7h3.6v1h-3.6v-1ZM732.8,121.5h3.9v1h-3.9v-1ZM732.9,123.6h3.6v1h-3.6v-1ZM736.1,121.5h1.3c0,.8,0,1.6-.1,2.4s-.1,1.7-.2,2.5c0,.8-.1,1.5-.2,2.1h-1.3c0-.6.2-1.3.2-2.1s.1-1.6.2-2.5c0-.9,0-1.6.1-2.4Z"/>
              <path class="cls-27" d="M745.9,133.5l1.3.5c-.4.5-.8,1-1.3,1.6s-1,1-1.6,1.5-1.1.9-1.6,1.2c0,0-.2-.2-.3-.3-.1-.1-.3-.2-.4-.3-.1-.1-.3-.2-.4-.3.8-.5,1.6-1.1,2.4-1.8.8-.7,1.4-1.4,1.9-2.1ZM754.3,120.8l1,1.1c-.8.4-1.7.7-2.8,1.1-1,.3-2.1.7-3.3,1-1.2.3-2.3.6-3.5.8-1.2.3-2.4.5-3.5.7,0-.2,0-.4-.2-.6,0-.2-.2-.4-.2-.5,1.1-.2,2.3-.5,3.4-.7,1.2-.3,2.3-.5,3.4-.8s2.2-.6,3.1-.9c1-.3,1.8-.7,2.5-1ZM742.6,133.2c0-.1,0-.2,0-.4,0-.2-.1-.3-.2-.5,0-.2-.1-.3-.1-.4.3,0,.7-.1,1.1-.3.5-.2,1-.4,1.6-.7.3-.1.8-.4,1.5-.7.7-.3,1.4-.7,2.3-1.2s1.7-1,2.6-1.6c.9-.6,1.8-1.2,2.6-1.8l1,.9c-1.9,1.3-3.8,2.5-5.7,3.5-1.9,1-3.8,1.9-5.7,2.6h0c-.2.1-.4.2-.5.2-.1,0-.2.1-.4.2s-.1.1-.1.2ZM742.6,133.2v-1s.9-.5.9-.5l13.1-.9c0,.2,0,.4,0,.6v.6c-2,.1-3.8.3-5.2.4s-2.7.2-3.7.3-1.8.1-2.4.2-1.1.1-1.5.2-.6,0-.8.1c-.2,0-.3,0-.5.1ZM743.7,129c0,0,0-.2,0-.4,0-.2,0-.3-.1-.5s-.1-.3-.1-.4c.2,0,.5,0,.7-.2.3-.1.6-.2.9-.4.2-.1.6-.3,1.1-.7s1.1-.7,1.8-1.2c.6-.4,1.2-.9,1.8-1.4l1.2.8c-1,.8-2,1.5-3.1,2.1-1.1.6-2.1,1.2-3.1,1.6h0c-.2.1-.3.2-.5.2-.1,0-.2.1-.3.2,0,0-.1.1-.1.2ZM743.7,129v-1s.8-.4.8-.4l7.5-.4c0,.2,0,.3,0,.6,0,.2,0,.4,0,.5-1.4,0-2.5.2-3.4.2-.9,0-1.7.1-2.3.2s-1,0-1.4.1c-.3,0-.6,0-.7,0-.2,0-.3,0-.4.1ZM749.5,131.6h1.4v5.7c0,.4,0,.7-.2.9-.1.2-.3.4-.6.5-.3.1-.7.2-1.2.2s-1.1,0-1.9,0c0-.2-.1-.4-.2-.7-.1-.3-.2-.5-.3-.7.4,0,.8,0,1.2,0,.4,0,.7,0,.9,0,.3,0,.4,0,.5,0,.2,0,.3,0,.3,0,0,0,0-.1,0-.2v-5.7ZM752.8,134l1-.7c.5.4,1.1.9,1.7,1.3.6.5,1.1,1,1.7,1.4.5.5,1,.9,1.3,1.3l-1.1.8c-.3-.4-.7-.8-1.2-1.3-.5-.5-1.1-1-1.6-1.5s-1.1-1-1.7-1.4ZM753.4,128.7l1.1-.5c.5.5,1,.9,1.5,1.5.5.5,1,1.1,1.5,1.6.5.5.8,1,1.1,1.4l-1.1.7c-.3-.4-.6-.9-1.1-1.4s-.9-1.1-1.5-1.6c-.5-.5-1-1.1-1.5-1.5Z"/>
            </g>
          </g>
        </g>
        <rect class="cls-28" x="640" y="120" width="119" height="20"/>
      </g>
      <g id="b100">
        <g id="g-root-ro_1lt0la5nngkxz-fill">
          <g id="ro_1lt0la5nngkxz-fill">
            <path class="cls-3" d="M596,50h167.1s11.9,0,11.9,12v30s0,12-11.9,12h-167.1s-11.9,0-11.9-12v-30s0-12,11.9-12"/>
          </g>
        </g>
        <g id="g-root-tx__4ik2ppnnglxp-fill">
          <g id="tx__4ik2ppnnglxp-fill">
            <g class="cls-18">
              <g class="cls-18">
                <path class="cls-13" d="M640.5,82.3c.7-.2,1.6-.4,2.6-.7s2-.6,3-.8l.2,1.6c-.9.3-1.9.6-2.8.8-.9.3-1.8.5-2.6.8l-.4-1.7ZM640.8,68.9h5.4v1.7h-5.4v-1.7ZM640.9,74.7h5v1.7h-5v-1.7ZM642.7,69.9h1.7v12.2l-1.7.4v-12.7ZM652,79.3l1.3.6c-.5.5-1.1,1-1.8,1.5-.7.5-1.4.9-2.2,1.3-.8.4-1.5.7-2.3.9-.1-.2-.3-.4-.5-.7-.2-.3-.4-.5-.6-.6.7-.2,1.5-.4,2.2-.7s1.5-.7,2.1-1,1.2-.8,1.7-1.2ZM646.8,73.5h12.2v1.5h-12.2v-1.5ZM647.6,68.3h10.7v4.4h-10.7v-4.4ZM648.1,76h9.7v4.3h-9.7v-4.3ZM648.9,86.1c0-.2-.1-.4-.3-.7-.1-.3-.3-.5-.4-.6.2,0,.3-.2.5-.4.2-.2.2-.5.2-.9v-1.8l1.5-.4v3.4c-.3.2-.6.3-.8.5-.2.1-.4.3-.6.5s-.2.3-.2.4ZM648.9,86.1v-1.3c0,0,.6-.5.6-.5l4.1-.9c0,.2,0,.5,0,.7s0,.5,0,.7c-.9.2-1.7.4-2.3.6s-1,.3-1.4.4c-.3,0-.6.2-.7.2-.2,0-.3.1-.4.2ZM649.2,69.6v1.7h1.6v-1.7h-1.6ZM649.8,77.3v1.6h6.2v-1.6h-6.2ZM652.1,69.6v1.7h1.7v-1.7h-1.7ZM654,79.6c.3.8.7,1.5,1.2,2.2.5.7,1.1,1.2,1.8,1.7.7.5,1.5.8,2.4,1.1-.2.2-.4.4-.6.7-.2.3-.4.5-.5.8-1.5-.5-2.7-1.2-3.6-2.3-1-1.1-1.7-2.3-2.2-3.8l1.5-.3ZM657.6,80.4l1.3,1.1c-.6.3-1.2.6-1.8,1-.6.3-1.2.6-1.7.8l-.9-.9c.3-.2.7-.4,1-.6.4-.2.8-.5,1.1-.7.4-.2.7-.5.9-.7ZM655,69.6v1.7h1.7v-1.7h-1.7Z"/>
                <path class="cls-13" d="M660.6,81.7c.5-.2,1.1-.4,1.8-.6.7-.2,1.4-.5,2.2-.8.8-.3,1.5-.6,2.3-.8l.4,1.7c-1,.4-2.1.8-3.1,1.2s-2,.8-2.9,1.2l-.6-1.9ZM660.9,72.5h5.8v1.8h-5.8v-1.8ZM663,67.9h1.8v13.4h-1.8v-13.4ZM670.2,80.5h1.8c0,.8-.2,1.4-.4,2-.2.6-.5,1.1-.8,1.6s-.9.9-1.5,1.2c-.6.3-1.4.6-2.4.9,0-.1-.1-.3-.2-.5-.1-.2-.2-.4-.4-.5-.1-.2-.3-.3-.4-.4.9-.2,1.6-.4,2.1-.6.5-.2,1-.5,1.3-.9.3-.3.5-.7.7-1.2.1-.5.2-1,.3-1.6ZM667.4,72.6h11.3v1.6h-11.3v-1.6ZM668,69h10.2v1.5h-10.2v-1.5ZM668.3,75.1h9.4v5.9h-9.4v-5.9ZM669.5,71l1.5-.3c.1.3.3.6.4,1s.2.7.3.9l-1.6.4c0-.3-.1-.6-.3-1-.1-.4-.2-.7-.4-1ZM670,76.3v1.1h5.8v-1.1h-5.8ZM670,78.6v1.1h5.8v-1.1h-5.8ZM671.7,67.8l1.8-.3c.2.3.3.6.5,1,.1.4.3.7.3,1l-1.8.4c0-.3-.2-.6-.3-1s-.3-.7-.4-1.1ZM673.6,80.6h1.8v3.3c0,.3,0,.5.1.5,0,0,.2.1.5.1h.8c.1,0,.2,0,.3,0,.1,0,.2,0,.2,0,.1,0,.2-.2.3-.4,0-.1,0-.3,0-.6s0-.6,0-1c.2.1.4.3.7.4s.6.3.8.3c0,.4,0,.8,0,1.1,0,.4-.1.6-.2.8-.2.3-.4.6-.8.7-.1,0-.3,0-.6.1-.2,0-.5,0-.6,0h-1.3c-.2,0-.5,0-.8,0-.3,0-.5-.2-.7-.3-.2-.1-.3-.3-.4-.6,0-.2-.1-.6-.1-1.2v-3.2ZM674.9,70.7l1.7.3c-.2.4-.4.8-.6,1.2-.2.4-.4.7-.5,1l-1.5-.3c.1-.3.3-.7.5-1.1.2-.4.3-.8.4-1.1Z"/>
                <path class="cls-13" d="M680.9,71.8h5.9v1.5h-5.9v-1.5ZM686.9,82.9l1.7.8c-.5.3-1.2.7-1.9,1-.7.3-1.4.6-2.2.9s-1.5.5-2.1.7c0-.1-.2-.3-.4-.4-.2-.2-.3-.4-.5-.5-.2-.2-.3-.3-.5-.4.7-.1,1.4-.3,2.1-.5s1.4-.4,2.1-.7c.7-.2,1.2-.5,1.7-.8ZM681.4,68.7h5v1.4h-5v-1.4ZM683.6,74.8h13.2v8.1h-13.2v-8.1ZM685.4,76v1.1h9.5v-1.1h-9.5ZM685.4,78.3v1.1h9.5v-1.1h-9.5ZM685.4,80.5v1.2h9.5v-1.2h-9.5ZM691.7,69.9h1.7v.7c0,.4,0,.7-.2,1.1-.1.4-.4.8-.9,1.1-.4.4-1.1.7-1.9,1-.8.3-2,.6-3.4.7,0-.2-.2-.5-.4-.8-.2-.3-.4-.5-.5-.7,1.3-.1,2.3-.3,3-.5s1.3-.4,1.7-.7c.4-.2.6-.5.7-.8.1-.3.2-.5.2-.7v-.7ZM689.4,67.5l1.7.4c-.3.8-.6,1.6-1.1,2.4s-1,1.4-1.5,1.9c0-.1-.2-.2-.4-.3-.2-.1-.4-.2-.5-.3-.2-.1-.3-.2-.5-.3.5-.5,1-1,1.4-1.7s.7-1.3.9-2ZM689.2,68.9h8.2v1.4h-8.2v-1.4ZM691.8,83.8l1.3-1c.7.2,1.4.5,2.2.7.7.3,1.4.5,2,.8.6.3,1.2.5,1.7.7l-1.7,1c-.4-.2-.9-.5-1.5-.7s-1.2-.5-1.9-.8c-.7-.3-1.4-.5-2.1-.8ZM693.2,70.9c.3.4.8.8,1.4,1.1s1.3.6,2.1.7c.8.2,1.7.3,2.6.4-.2.2-.4.4-.6.7-.2.3-.4.6-.5.8-1-.1-1.9-.4-2.7-.7-.8-.3-1.5-.7-2.2-1.1s-1.1-1-1.5-1.6l1.3-.3ZM696.7,68.9h.6c0,0,1.3.3,1.3.3-.3.5-.5,1.1-.9,1.6-.3.6-.6,1-.9,1.4l-1.5-.5c.2-.3.5-.7.7-1.2.3-.5.5-.9.6-1.3v-.3Z"/>
                <path class="cls-13" d="M700.7,74.5l1.1-1.3c.3.2.7.4,1.2.6.4.2.8.5,1.2.7.4.2.7.4,1,.6l-1.1,1.5c-.2-.2-.6-.4-.9-.6s-.8-.5-1.2-.8c-.4-.3-.8-.5-1.2-.7ZM701,84.9c.3-.5.6-1.2.9-1.9.3-.7.7-1.5,1-2.3s.7-1.6,1-2.3l1.5,1c-.3.7-.6,1.4-.9,2.2-.3.8-.6,1.5-.9,2.2-.3.7-.6,1.4-1,2l-1.7-1ZM701.7,69.1l1.1-1.3c.3.2.7.4,1.2.7.4.3.8.5,1.2.7.4.2.7.5,1,.6l-1.1,1.5c-.2-.2-.6-.4-.9-.7-.4-.3-.8-.5-1.2-.8s-.8-.5-1.2-.7ZM706.7,68.6h1.8v5.5c0,.9,0,1.8-.1,2.9,0,1-.2,2.1-.4,3.2-.2,1.1-.5,2.1-.8,3.2-.4,1-.8,1.9-1.4,2.8-.1-.1-.3-.2-.5-.3-.2-.1-.4-.3-.6-.4-.2-.1-.4-.2-.5-.3.6-.8,1-1.6,1.3-2.6.3-.9.6-1.9.7-2.9.2-1,.3-2,.3-2.9,0-.9,0-1.8,0-2.6v-5.5ZM707.3,68.6h11.8v1.7h-11.8v-1.7ZM710.1,80.4l1.7.5c-.2.5-.4,1-.7,1.5s-.6,1-.9,1.5c-.3.5-.6.9-.9,1.2-.1-.1-.2-.2-.4-.3-.2-.1-.4-.2-.6-.3-.2-.1-.4-.2-.5-.3.4-.5.8-1,1.2-1.7.4-.7.7-1.3,1-2ZM709.5,72.4h8.9v7.1h-8.9v-7.1ZM712.9,78.8h1.8v5.5c0,.4,0,.8-.2,1,0,.2-.3.4-.6.6-.3.1-.7.2-1.1.2-.5,0-1,0-1.6,0,0-.2-.1-.5-.2-.8,0-.3-.2-.6-.3-.8.4,0,.8,0,1.2,0h.7c.2,0,.3,0,.3-.3v-5.5ZM711.2,73.8v1.5h5.5v-1.5h-5.5ZM711.2,76.6v1.5h5.5v-1.5h-5.5ZM713,70.5l2.1.4c-.2.5-.4.9-.7,1.3-.2.4-.5.8-.6,1.1l-1.5-.4c.1-.3.3-.7.4-1.2.1-.5.2-.9.3-1.2ZM715.7,80.9l1.6-.6c.3.4.5.8.8,1.3.3.5.5.9.8,1.4.2.4.4.8.6,1.2l-1.8.8c-.1-.3-.3-.8-.5-1.2s-.5-.9-.7-1.4c-.3-.5-.5-.9-.8-1.4Z"/>
                <path class="cls-13" d="M721,80.8h18v1.5h-18v-1.5ZM721.4,74.8h17.3v3.9h-1.9v-2.5h-13.6v2.5h-1.8v-3.9ZM726.6,67.8l.8,1.1c-.6.2-1.3.4-2,.6-.8.2-1.5.3-2,.4l-.7-1.1c.4,0,.8-.2,1.3-.3.5-.1,1-.2,1.4-.4s.9-.3,1.2-.4ZM722.6,68.8l1.8.5.4,6.2h-1.8l-.4-6.7ZM723.5,70.5h3.7v1.2h-3.7v-1.2ZM723.6,72.6h3.7v1.2h-3.7v-1.2ZM724.8,77.3h9.2v1.4h-9.2v-1.4ZM729.3,80.1h1.9v4.2c0,.5,0,.8-.2,1-.1.2-.4.4-.7.6-.4.1-.8.2-1.4.2-.5,0-1.2,0-2,0,0-.2-.1-.5-.2-.8-.1-.3-.2-.6-.4-.8.4,0,.8,0,1.1,0,.4,0,.7,0,.9,0h.5c.2,0,.3,0,.3,0,0,0,0-.1,0-.3v-4.2ZM730.9,71.1l1.3.4c-.5.7-1.1,1.3-1.8,1.8-.7.6-1.4,1.1-2.2,1.5,0-.1-.2-.3-.5-.5-.2-.2-.4-.4-.5-.5.7-.3,1.4-.7,2.1-1.2.7-.5,1.2-1,1.6-1.5ZM730.9,67.8l1.3.4c-.4.6-1,1.2-1.7,1.7s-1.4,1-2,1.4c-.1-.1-.3-.3-.5-.5s-.4-.3-.6-.4c.7-.3,1.4-.7,2-1.2.6-.4,1.1-.9,1.5-1.4ZM727.7,72.1l.9-.8c.5.2.9.5,1.4.7.5.3.9.6,1.4.9.4.3.8.6,1.1.8l-1,.9c-.3-.3-.6-.5-1-.8-.4-.3-.9-.6-1.4-.9-.5-.3-.9-.6-1.4-.8ZM727.8,68.8l.9-.8c.4.2.9.4,1.3.7.5.3.9.5,1.3.8s.8.5,1,.8l-.9.9c-.3-.2-.6-.5-1-.8s-.8-.6-1.3-.8c-.5-.3-.9-.5-1.4-.7ZM733.5,77.3h.9c0,0,1.1.9,1.1.9-.5.4-1,.7-1.6,1.1s-1.2.7-1.8,1c-.6.3-1.2.6-1.8.8-.1-.2-.2-.3-.4-.5s-.3-.3-.5-.5c.5-.2,1-.4,1.6-.7s1-.6,1.5-.9.8-.6,1.1-.8v-.3ZM732.8,68.3h3.8v1.2h-3.8v-1.2ZM732.8,72.6h3.5v1.2h-3.5v-1.2ZM732.9,70.5h3.5v1.2h-3.5v-1.2ZM735.8,68.3h1.8c0,.8,0,1.6-.1,2.5s-.1,1.7-.2,2.6c0,.8-.1,1.5-.2,2.1h-1.8c0-.6.2-1.4.2-2.2,0-.8.1-1.7.2-2.6,0-.9,0-1.7.1-2.5Z"/>
                <path class="cls-13" d="M743,74l1.2.4c-.3.7-.6,1.3-1.1,2s-.9,1.2-1.4,1.6c-.1-.2-.3-.4-.5-.7-.2-.2-.4-.4-.6-.6.3-.2.6-.4,1-.7.3-.3.6-.6.9-1,.3-.4.5-.7.7-1ZM744.4,77.6h1.6v2.1c0,.5,0,1.1-.1,1.7s-.3,1.2-.6,1.7-.7,1.1-1.3,1.6c-.6.5-1.4,1-2.4,1.4,0-.1-.2-.3-.3-.5-.1-.2-.2-.3-.4-.5s-.3-.3-.4-.4c.9-.3,1.5-.7,2-1.1s.9-.8,1.1-1.3c.3-.4.4-.9.5-1.3,0-.5.1-.9.1-1.3v-2ZM740.9,72h8.7v1.5h-8.7v-1.5ZM740.9,79.3h8.8v1.6h-8.8v-1.6ZM741.3,68.8l1.3-.5c.2.4.5.8.7,1.2.2.4.4.8.4,1.2l-1.4.6c0-.3-.2-.7-.4-1.2s-.4-.9-.7-1.3ZM744.5,67.7h1.7v9.4h-1.7v-9.4ZM744.6,82.6l1-1.2c.4.2.9.5,1.3.8.5.3.9.6,1.4.9.4.3.8.6,1.1.8l-1,1.3c-.3-.2-.6-.5-1-.8-.4-.3-.9-.6-1.4-1-.5-.3-.9-.6-1.3-.9ZM747.3,74.1c.1,0,.3.2.6.4.3.2.5.4.8.6.3.2.5.4.8.6.2.2.4.3.5.4l-1,1.2c-.1-.2-.3-.4-.5-.6-.2-.2-.5-.5-.7-.7-.3-.3-.5-.5-.7-.7-.2-.2-.4-.4-.6-.5l1-.7ZM746.8,78l1.1-.7c.3.2.5.5.8.8.3.3.5.6.6.8l-1.1.8c-.1-.2-.3-.5-.6-.8-.3-.3-.5-.6-.8-.8ZM747.8,68.4l1.6.4c-.2.5-.5.9-.7,1.4s-.5.8-.7,1.2l-1.2-.4c.2-.4.4-.8.6-1.3.2-.5.4-.9.5-1.3ZM752.5,82.6l1.6,1c-.3.3-.7.7-1.1,1-.4.3-.9.7-1.3,1s-.9.5-1.4.8c-.1-.2-.3-.4-.6-.6-.2-.2-.5-.4-.6-.6.4-.2.9-.4,1.3-.7.4-.3.8-.6,1.2-.9.4-.3.7-.6.9-.9ZM749.8,68.5h9.4v1.6h-9.4v-1.6ZM750.5,71.8h8v10.5h-8v-10.5ZM752.2,73.2v1.6h4.5v-1.6h-4.5ZM752.2,76.2v1.6h4.5v-1.6h-4.5ZM752.2,79.2v1.7h4.5v-1.7h-4.5ZM753.4,69.4l2.1.3c-.2.6-.4,1.2-.6,1.8-.2.6-.4,1.1-.6,1.5l-1.6-.3c0-.3.2-.6.3-1s.2-.8.3-1.1c0-.4.1-.7.2-1ZM754.8,83.5l1.4-.9c.4.2.8.5,1.2.8s.8.6,1.2.9c.4.3.7.6,1,.8l-1.5,1c-.2-.2-.5-.5-.9-.8-.4-.3-.8-.6-1.2-1-.4-.3-.8-.6-1.2-.9Z"/>
              </g>
            </g>
          </g>
        </g>
        <g id="_圖層_1">
          <g class="cls-18">
            <g id="_圖層_1-2">
              <g>
                <path class="cls-22" d="M604.4,74.3c-.2-.4-.6-.5-.6-.5l-1.7,5.2.6,2.6c-.8-.1-1.3.4-1.3.4,0,0,1.4,1.7,2.3,3.3.7,1.2,1.8,2.1,3.1,2.4,0,0,.2,0,.3,0,.9.2,1.6.7,2,1.5l4.7-1.7-.5-1.6c-.4-1.5-1.5-2.7-2.9-3.4l-1.2-.5c-.7-.3-1.2-.9-1.4-1.6l-.6-2v-.3c.1-.7-.2-1.3-.8-1.7v-.2c.2-.7-.1-1.5-.7-1.9h0c0-1.1-.9-1.4-.9-1.4"/>
                <polygon class="cls-24" points="613.8 89 613.8 87.6 608.2 89.6 608.7 90.8 613.8 89 613.8 89"/>
                <polygon class="cls-24" points="608.7 90.8 609.3 92.3 613.8 90.9 613.8 89 608.7 90.8"/>
                <g>
                  <path class="cls-20" d="M607.5,84.4c-1.2,0-2.4-.6-3.1-1.6-.6-.8-1.2-1.2-1.8-1.2-.7,0-1.1.4-1.1.4h0c0,0,.4-.5,1.1-.5.6,0,1.3.4,1.9,1.2.8,1.1,2.1,1.7,3.4,1.5,0,0,0,0,.1,0s0,0,.1,0h0c0,0,0,0-.1,0,0,0,0,0-.1,0-.1,0-.2,0-.3,0h0Z"/>
                  <path class="cls-20" d="M604.3,81l-.5-2.1.8-3.4c0-.5,0-.9-.1-1.2h0c.2.3.2.7.1,1.2l-.8,3.4.5,2.1h0Z"/>
                  <path class="cls-20" d="M605.6,80.7l-.6-2h0s.7-3.7.7-3.7c0-.3,0-.5,0-.7h0c0,.2,0,.5,0,.7l-.7,3.7.6,2h0s0,0,0,0Z"/>
                  <polygon class="cls-20" points="606.8 80.4 606.2 78.4 606.5 76.4 606.6 76.5 606.2 78.4 606.8 80.4 606.8 80.4"/>
                </g>
                <path class="cls-32" d="M608.7,90.8s0,0,0,0c0,0,0,0,0,0l5.1-1.8s0,0,0,0,0,0,0,0l-5.1,1.8h0Z"/>
              </g>
              <g>
                <path class="cls-22" d="M625.4,74.3c.2-.4.6-.5.6-.5l1.7,5.2-.6,2.6c.8-.1,1.3.4,1.3.4,0,0-1.4,1.7-2.3,3.3-.7,1.2-1.8,2.1-3.1,2.4,0,0-.2,0-.3,0-.9.2-1.6.7-2,1.5l-4.7-1.7.5-1.6c.4-1.5,1.5-2.7,2.9-3.4l1.2-.5c.7-.3,1.2-.9,1.4-1.6l.6-2v-.3c-.1-.7.2-1.3.8-1.7v-.2c-.2-.7.1-1.5.7-1.9h0c0-1.1.9-1.4.9-1.4"/>
                <polygon class="cls-24" points="616 89 616 87.6 621.6 89.6 621.2 90.8 616 89 616 89"/>
                <polygon class="cls-24" points="621.2 90.8 620.5 92.3 616 90.9 616 89 621.2 90.8"/>
                <g>
                  <path class="cls-20" d="M622.3,84.4c-.1,0-.2,0-.3,0,0,0,0,0-.1,0s0,0-.1,0h0c0,0,0,0,.1,0s0,0,.1,0c1.3.1,2.6-.5,3.4-1.5.6-.8,1.3-1.2,1.9-1.2.7,0,1.1.4,1.1.4h0s-.4-.4-1.1-.4c-.6,0-1.2.4-1.8,1.2-.8,1-1.9,1.6-3.1,1.6h0Z"/>
                  <path class="cls-20" d="M625.6,81h0s.5-2.1.5-2.1l-.8-3.4c0-.5,0-.9.1-1.2h0c-.2.3-.2.7-.1,1.2l.8,3.4h0s-.5,2.1-.5,2.1h0Z"/>
                  <path class="cls-20" d="M624.3,80.7h0s.6-2,.6-2l-.7-3.7c0-.3,0-.5,0-.7h0c0,.2,0,.5,0,.7l.7,3.7h0s-.6,2-.6,2h0Z"/>
                  <polygon class="cls-20" points="623.1 80.4 623 80.4 623.6 78.4 623.2 76.5 623.3 76.4 623.6 78.4 623.6 78.4 623.1 80.4"/>
                </g>
                <path class="cls-32" d="M621.1,90.8h0l-5.1-1.8s0,0,0,0c0,0,0,0,0,0l5.1,1.8s0,0,0,0c0,0,0,0,0,0h0Z"/>
              </g>
              <g>
                <circle class="cls-17" cx="614.9" cy="68.7" r="8.4"/>
                <path class="cls-26" d="M621.8,63.9c-.4,0-4.2-.6-4.9,1.4-.7,2.1-2.5,1.8-1.9,4s2.3,3.5,4.4,3.2c2.4-.3-2.2,3.3-.4,3.7,4.1-2.2,5.7-7.8,2.7-12.2h0Z"/>
                <path class="cls-26" d="M610.3,61.7s3.7-.2,3.8,1.1c.2,1.3-.8,1.1-2,1.9-1.2.8-1.8.2-2.5,1.3-.7,1.2-2.9.6-2.9.6,0,0,.5-2.9,3.6-4.9h0s0,0,0,0Z"/>
                <path class="cls-26" d="M606.6,70.3s2.7-.6,3.7,1.3,1.8,1.1,2.4,2c.2.2.2.6,0,.9-.5,1.3-2,1.7-3.1,1-1.1-.8-2.4-2.3-3.1-5.2h0Z"/>
                <g class="cls-19">
                  <path class="cls-21" d="M622.1,73c-2.3,4-7.5,5.4-11.5,3,8.9-.6,11.5-8.8,8.5-14.6,4,2.3,5.4,7.5,3,11.6h0Z"/>
                </g>
                <g>
                  <path class="cls-29" d="M614.9,77.2h0c4.6,0,8.4-3.8,8.4-8.4s-3.8-8.4-8.4-8.4h0c0,0,0,0,0,0,2.3,0,4.4.9,6,2.5,1.6,1.6,2.5,3.7,2.5,6s-.9,4.4-2.5,6c-1.6,1.6-3.7,2.5-6,2.5Z"/>
                  <path class="cls-29" d="M606.5,68.7h0c0-1.9.6-3.6,1.7-5.1,1.1-1.4,2.6-2.5,4.3-3h0c-3.5,1.1-6,4.4-6,8.1Z"/>
                </g>
              </g>
            </g>
          </g>
        </g>
      </g>
      <g id="a27">
        <g id="g-root-ro_znshx9nnf8xt-stroke">
          <g id="ro_znshx9nnf8xt-stroke">
            <path class="cls-14" d="M379,51.5h132s24,0,24,28.6v92.9s0,28.6-24,28.6h-132s-24,0-24-28.6v-92.9s0-28.6,24-28.6"/>
          </g>
        </g>
        <g>
          <g id="g-root-tx__1lu9jgdnnf8y7-fill">
            <g id="tx__1lu9jgdnnf8y7-fill">
              <g class="cls-18">
                <g class="cls-18">
                  <path class="cls-31" d="M385.5,170.3c.7-.2,1.6-.4,2.6-.7s2-.6,3-.8l.2,1.6c-.9.3-1.9.6-2.8.8-.9.3-1.8.5-2.6.8l-.4-1.7ZM385.7,156.9h5.4v1.7h-5.4v-1.7ZM385.9,162.7h5v1.7h-5v-1.7ZM387.6,157.9h1.7v12.2l-1.7.4v-12.7ZM397,167.3l1.3.6c-.5.5-1.1,1-1.8,1.5-.7.5-1.4.9-2.2,1.3-.8.4-1.5.7-2.3.9-.1-.2-.3-.4-.5-.7-.2-.3-.4-.5-.6-.6.7-.2,1.5-.4,2.2-.7s1.5-.7,2.1-1,1.2-.8,1.7-1.2ZM391.8,161.5h12.2v1.5h-12.2v-1.5ZM392.6,156.3h10.7v4.4h-10.7v-4.4ZM393.1,164h9.7v4.3h-9.7v-4.3ZM393.8,174.1c0-.2-.1-.4-.3-.7-.1-.3-.3-.5-.4-.6.2,0,.3-.2.5-.4.2-.2.2-.5.2-.9v-1.8l1.5-.4v3.4c-.3.2-.6.3-.8.5-.2.1-.4.3-.6.5s-.2.3-.2.4ZM393.8,174.1v-1.3c0,0,.6-.5.6-.5l4.1-.9c0,.2,0,.5,0,.7s0,.5,0,.7c-.9.2-1.7.4-2.3.6s-1,.3-1.4.4c-.3,0-.6.2-.7.2-.2,0-.3.1-.4.2ZM394.1,157.6v1.7h1.6v-1.7h-1.6ZM394.8,165.3v1.6h6.2v-1.6h-6.2ZM397,157.6v1.7h1.7v-1.7h-1.7ZM399,167.6c.3.8.7,1.5,1.2,2.2.5.7,1.1,1.2,1.8,1.7.7.5,1.5.8,2.4,1.1-.2.2-.4.4-.6.7-.2.3-.4.5-.5.8-1.5-.5-2.7-1.2-3.6-2.3-1-1.1-1.7-2.3-2.2-3.8l1.5-.3ZM402.6,168.4l1.3,1.1c-.6.3-1.2.6-1.8,1-.6.3-1.2.6-1.7.8l-.9-.9c.3-.2.7-.4,1-.6.4-.2.8-.5,1.1-.7.4-.2.7-.5.9-.7ZM400,157.6v1.7h1.7v-1.7h-1.7Z"/>
                  <path class="cls-31" d="M405.6,169.7c.5-.2,1.1-.4,1.8-.6.7-.2,1.4-.5,2.2-.8.8-.3,1.5-.6,2.3-.8l.4,1.7c-1,.4-2.1.8-3.1,1.2s-2,.8-2.9,1.2l-.6-1.9ZM405.9,160.5h5.8v1.8h-5.8v-1.8ZM408,155.9h1.8v13.4h-1.8v-13.4ZM415.2,168.5h1.8c0,.8-.2,1.4-.4,2-.2.6-.5,1.1-.8,1.6s-.9.9-1.5,1.2c-.6.3-1.4.6-2.4.9,0-.1-.1-.3-.2-.5-.1-.2-.2-.4-.4-.5-.1-.2-.3-.3-.4-.4.9-.2,1.6-.4,2.1-.6.5-.2,1-.5,1.3-.9.3-.3.5-.7.7-1.2.1-.5.2-1,.3-1.6ZM412.3,160.6h11.3v1.6h-11.3v-1.6ZM412.9,157h10.2v1.5h-10.2v-1.5ZM413.2,163.1h9.4v5.9h-9.4v-5.9ZM414.4,159l1.5-.3c.1.3.3.6.4,1s.2.7.3.9l-1.6.4c0-.3-.1-.6-.3-1-.1-.4-.2-.7-.4-1ZM414.9,164.3v1.1h5.8v-1.1h-5.8ZM414.9,166.6v1.1h5.8v-1.1h-5.8ZM416.6,155.8l1.8-.3c.2.3.3.6.5,1,.1.4.3.7.3,1l-1.8.4c0-.3-.2-.6-.3-1s-.3-.7-.4-1.1ZM418.5,168.6h1.8v3.3c0,.3,0,.5.1.5,0,0,.2.1.5.1h.8c.1,0,.2,0,.3,0,.1,0,.2,0,.2,0,.1,0,.2-.2.3-.4,0-.1,0-.3,0-.6s0-.6,0-1c.2.1.4.3.7.4s.6.3.8.3c0,.4,0,.8,0,1.1,0,.4-.1.6-.2.8-.2.3-.4.6-.8.7-.1,0-.3,0-.6.1-.2,0-.5,0-.6,0h-1.3c-.2,0-.5,0-.8,0-.3,0-.5-.2-.7-.3-.2-.1-.3-.3-.4-.6,0-.2-.1-.6-.1-1.2v-3.2ZM419.8,158.7l1.7.3c-.2.4-.4.8-.6,1.2-.2.4-.4.7-.5,1l-1.5-.3c.1-.3.3-.7.5-1.1.2-.4.3-.8.4-1.1Z"/>
                  <path class="cls-31" d="M430.3,155.7l1.8.6c-.4,1.1-1,2.2-1.6,3.3s-1.2,2.2-1.9,3.1c-.7,1-1.4,1.8-2.1,2.6,0-.2-.2-.4-.3-.6-.1-.2-.2-.5-.4-.7s-.3-.4-.4-.6c.7-.6,1.3-1.4,1.9-2.2.6-.8,1.2-1.7,1.7-2.7s1-1.9,1.3-2.9ZM428.2,161l1.8-1.8h0v14.9h-1.8v-13.1ZM433.9,167.8l1.7.5c-.3.6-.6,1.2-1,1.8-.4.6-.8,1.2-1.1,1.7s-.8,1-1.1,1.5c-.1,0-.2-.2-.4-.4-.2-.1-.4-.3-.6-.4-.2-.1-.4-.2-.5-.3.5-.6,1.1-1.3,1.6-2.1.5-.8,1-1.6,1.4-2.3ZM431.2,165.3h13v1.7h-13v-1.7ZM432.6,156.5h10.4v6.6h-10.4v-6.6ZM434.4,158.2v3.2h6.8v-3.2h-6.8ZM436.8,162.6h1.9v11.6h-1.9v-11.6ZM439.6,168.6l1.4-.8c.4.5.8.9,1.2,1.5s.8,1,1.2,1.5c.4.5.6,1,.8,1.4l-1.5.9c-.2-.4-.5-.9-.8-1.4-.3-.5-.7-1.1-1.1-1.6-.4-.5-.8-1.1-1.2-1.5Z"/>
                  <path class="cls-31" d="M445.7,159h7.2v1.5h-7.2v-1.5ZM446.5,167.1h1.6v6.9h-1.6v-6.9ZM446.5,161.7h5.7v1.5h-5.7v-1.5ZM446.5,164.4h5.7v1.5h-5.7v-1.5ZM447.3,167.1h5v6h-5v-1.6h3.4v-2.9h-3.4v-1.5ZM447.9,156.3l1.4-.7c.3.4.6.9.9,1.4.3.5.5.9.6,1.3l-1.5.8c-.1-.4-.4-.8-.6-1.3-.3-.5-.5-1-.8-1.4ZM455,158.8l1.5.4c-.3.9-.8,1.9-1.3,2.8-.5.9-1.1,1.7-1.7,2.3,0-.1-.1-.3-.3-.4-.1-.2-.3-.3-.4-.5-.1-.2-.2-.3-.4-.4.5-.5,1-1.1,1.5-1.8s.8-1.5,1.1-2.3ZM461.6,168.2h.7c0,0,1.1.5,1.1.5-.5.8-1,1.5-1.7,2.1-.7.6-1.5,1.1-2.4,1.6-.9.4-1.8.8-2.9,1.1-1,.3-2,.5-3.1.7,0-.2-.2-.5-.3-.8-.2-.3-.3-.5-.5-.7,1-.1,1.9-.3,2.9-.5.9-.2,1.8-.5,2.6-.9.8-.3,1.5-.8,2.2-1.2.6-.5,1.1-1,1.5-1.6v-.2ZM453,156.7h4.2v1.4h-4.2v-1.4ZM453.4,168.2h8.6v1.3h-8.6v-1.3ZM455.9,160.4h7.8v1.2h-7.8v6.2h-1.6v-6.6l.8-.8h.8ZM456.4,169.3c.5.6,1.1,1.1,2,1.6.8.5,1.8.8,2.8,1.1,1,.3,2.1.5,3.3.7-.2.2-.4.4-.6.7-.2.3-.4.6-.5.8-1.2-.2-2.4-.5-3.5-.9s-2.1-.9-2.9-1.5c-.9-.6-1.6-1.3-2.2-2l1.6-.5ZM455.2,162.5h8v1h-8v-1ZM455.2,164.4h8v1h-8v-1ZM455.2,166.3h8.9v1.2h-8.9v-1.2ZM456.1,155.6h1.7v3.6h-1.7v-3.6ZM457.9,159.3l1.7-.4c.1.3.3.7.4,1.1.1.4.2.7.3,1l-1.7.5c0-.3-.1-.6-.3-1-.1-.4-.2-.8-.4-1.1ZM458.4,161.1h1.6v5.8h-1.6v-5.8ZM459.6,155.6h1.7v3.6h-1.7v-3.6ZM460.1,156.7h4.1v1.5h-4.1v-1.5Z"/>
                  <path class="cls-31" d="M466,168.8h18v1.5h-18v-1.5ZM466.4,162.8h17.3v3.9h-1.9v-2.5h-13.6v2.5h-1.8v-3.9ZM471.5,155.8l.8,1.1c-.6.2-1.3.4-2,.6-.8.2-1.5.3-2,.4l-.7-1.1c.4,0,.8-.2,1.3-.3.5-.1,1-.2,1.4-.4s.9-.3,1.2-.4ZM467.6,156.8l1.8.5.4,6.2h-1.8l-.4-6.7ZM468.5,158.5h3.7v1.2h-3.7v-1.2ZM468.6,160.6h3.7v1.2h-3.7v-1.2ZM469.8,165.3h9.2v1.4h-9.2v-1.4ZM474.3,168.1h1.9v4.2c0,.5,0,.8-.2,1-.1.2-.4.4-.7.6-.4.1-.8.2-1.4.2-.5,0-1.2,0-2,0,0-.2-.1-.5-.2-.8-.1-.3-.2-.6-.4-.8.4,0,.8,0,1.1,0,.4,0,.7,0,.9,0h.5c.2,0,.3,0,.3,0,0,0,0-.1,0-.3v-4.2ZM475.9,159.1l1.3.4c-.5.7-1.1,1.3-1.8,1.8-.7.6-1.4,1.1-2.2,1.5,0-.1-.2-.3-.5-.5-.2-.2-.4-.4-.5-.5.7-.3,1.4-.7,2.1-1.2.7-.5,1.2-1,1.6-1.5ZM475.9,155.8l1.3.4c-.4.6-1,1.2-1.7,1.7s-1.4,1-2,1.4c-.1-.1-.3-.3-.5-.5s-.4-.3-.6-.4c.7-.3,1.4-.7,2-1.2.6-.4,1.1-.9,1.5-1.4ZM472.7,160.1l.9-.8c.5.2.9.5,1.4.7.5.3.9.6,1.4.9.4.3.8.6,1.1.8l-1,.9c-.3-.3-.6-.5-1-.8-.4-.3-.9-.6-1.4-.9-.5-.3-.9-.6-1.4-.8ZM472.7,156.8l.9-.8c.4.2.9.4,1.3.7.5.3.9.5,1.3.8s.8.5,1,.8l-.9.9c-.3-.2-.6-.5-1-.8s-.8-.6-1.3-.8c-.5-.3-.9-.5-1.4-.7ZM478.5,165.3h.9c0,0,1.1.9,1.1.9-.5.4-1,.7-1.6,1.1s-1.2.7-1.8,1c-.6.3-1.2.6-1.8.8-.1-.2-.2-.3-.4-.5s-.3-.3-.5-.5c.5-.2,1-.4,1.6-.7s1-.6,1.5-.9.8-.6,1.1-.8v-.3ZM477.7,156.3h3.8v1.2h-3.8v-1.2ZM477.7,160.6h3.5v1.2h-3.5v-1.2ZM477.8,158.5h3.5v1.2h-3.5v-1.2ZM480.8,156.3h1.8c0,.8,0,1.6-.1,2.5s-.1,1.7-.2,2.6c0,.8-.1,1.5-.2,2.1h-1.8c0-.6.2-1.4.2-2.2,0-.8.1-1.7.2-2.6,0-.9,0-1.7.1-2.5Z"/>
                  <path class="cls-31" d="M486.7,156.5h1.9v17.7h-1.9v-17.7ZM487.6,159.5h5.3v1.4h-5.3v-1.4ZM487.8,156.5h6.3v7.5h-6.3v-1.5h4.5v-4.4h-4.5v-1.6ZM502.5,156.5v1.6h-4.9v4.4h4.9v1.6h-6.7v-7.6h6.7ZM496.8,159.5h5.4v1.4h-5.4v-1.4ZM501.5,156.5h1.9v15.3c0,.6,0,1-.2,1.4-.1.3-.4.5-.8.7s-.9.3-1.5.3c-.6,0-1.4,0-2.4,0,0-.2,0-.4-.1-.6,0-.2-.2-.5-.2-.7,0-.2-.2-.5-.3-.6.4,0,.9,0,1.3,0s.8,0,1.2,0h.7c.2,0,.3,0,.4-.1s.1-.2.1-.4v-15.2Z"/>
                </g>
              </g>
            </g>
          </g>
          <g id="_圖層_1-2" data-name="_圖層_1">
            <g class="cls-18">
              <g id="_圖層_1-2-2" data-name="_圖層_1-2">
                <path class="cls-4" d="M460.9,79.8c.8,0,1.3-.8.9-1.5-.7-1.3-1.8-2.9-3.6-2.8-1.8,0-2.9,1.4-3.4,2.3-.3.5-.9.6-1.3.4-.6-.3-1.5-.6-2.6-.7-.6,0-1.1.2-1.6.4-1,.5-.6,1.9.5,1.9h11.2c0,0,0,0,0,0Z"/>
                <path class="cls-4" d="M399.1,109.9c-.8,0-1.3-.8-1-1.5.7-1.3,1.9-3,3.7-2.9,1.9,0,3,1.4,3.6,2.4.3.5.9.6,1.4.4.6-.3,1.6-.7,2.7-.7.6,0,1.2.2,1.7.4,1,.5.7,2-.5,2h-11.7,0Z"/>
                <g>
                  <path class="cls-1" d="M447.7,87.4s-8.1,2.3-9.5,7.9l5.8,1.1s.7-6.7,3.9-8l-.3-1h0Z"/>
                  <g>
                    <path class="cls-6" d="M481.8,109.4c1-.3,2.1.2,2.5,1.4l1.1,6.5-1.3-.3-1.6-4.7-.8-2.9h0,0Z"/>
                    <path class="cls-23" d="M484.2,117.1l.6,1.1c.1.2.3.4.5.5l.9.4c.3.1.6-.1.6-.5h0l-.8-1.3c-.2-.3-.5-.5-.8-.6l-.6-.2-.4.7h0Z"/>
                    <path class="cls-7" d="M477.8,101.9c1.6.3,6.3,7,6.4,7.7.2.8,1.4,5.4,1.4,5.4l-2.3.4s-1.6-3.8-1.9-4.1-4.6-4.4-4.6-4.4l1-4.9h0Z"/>
                  </g>
                  <path class="cls-6" d="M465.9,98.3c-1.1.3-2.2-.2-2.7-1.6l-1.1-6.9,1.3.4,1.6,5,.8,3.1h0s0,0,0,0Z"/>
                  <path class="cls-23" d="M463.4,90.2l-.6-1.1c-.1-.2-.3-.4-.5-.5l-.9-.4c-.3-.2-.6,0-.6.5h0l.8,1.4c.2.3.5.6.8.7l.6.2.4-.7h0Z"/>
                  <path class="cls-7" d="M470,106.4c-1.7-.3-6.5-7.5-6.7-8.3-.2-.8-1.4-5.7-1.4-5.7l2.5-.4s1.6,4.1,1.9,4.4,4.8,4.8,4.8,4.8l-1.2,5.2h0Z"/>
                  <path class="cls-8" d="M471.3,98s-.7-.9.3-1.8c1.1-.8,1.1,1.3,1,1.4s-1.4.4-1.4.4h0Z"/>
                  <path class="cls-8" d="M474.3,98.4s-.2,1.1-1.1,1.1c-.8,0-.7-2.4-.7-2.4l1.7,1.4h0Z"/>
                  <path class="cls-6" d="M471.7,98.7s0,1.2,0,2.2c0,.3.2.5.4.6s.6.1.8,0c0,0,.2,0,.2-.1.4-.2.6-.5.5-.9,0-.9-.3-2.6-.3-2.6l-1.7.8h0Z"/>
                  <polygon class="cls-10" points="471.6 99.5 471.6 100.2 472.4 99.6 471.6 99.5"/>
                  <path class="cls-6" d="M473.8,97.5c0-.3-.1-.7-.5-.8-.4,0-.8-.2-1.2-.3-.3,0-.6.1-.8.5-.2.4-.3,1.2-.4,1.9,0,.4.2.7.5.8.4,0,1.5,0,1.8-.6.2-.5.3-1,.5-1.4h0Z"/>
                  <path class="cls-8" d="M474.5,98.6s.3-1.3-.2-1.9c-.6-.8-1.5-1.2-2.7-.5,0,0-.6.3,1.2.7.2,0-.2,1.2,0,1.3.4.2.9.3,1.5.4h0s0,0,0,0Z"/>
                  <path class="cls-6" d="M473.8,99c-.2.2-.5.3-.7.2s-.2-.4,0-.7.5-.3.7-.2.2.4,0,.7Z"/>
                  <path class="cls-5" d="M472.8,144.1s1.5-9.7-.3-13.6l1.1-13.2-6.1.4,3.6,26.5h1.7c0,0,0,0,0,0Z"/>
                  <path class="cls-8" d="M471,143.7l-.9.9c-.2.2-1.6.7-1.6.7h0c-.1.3.1.4.3.5h3.9c0,0,.9-.3.1-2-.7.3-1.7.5-1.9,0h0Z"/>
                  <path class="cls-9" d="M467,119.7l1.3,11.2,1.8,11.2h4.5s-.4-2-.4-2.6c0-.6.3-6.5-1.1-9.2l.2-11-6.3.3h0Z"/>
                  <path class="cls-2" d="M473.2,130.4l.2-11h-2.1c0,.1-.2,8.2-.2,8.2,0,1.5.2,3,.5,4.5.7,2.9.6,7,.5,7.5,0,.6.4,2.6.4,2.6h2.1s-.4-2-.4-2.6.3-6.5-1.1-9.2h0s0,0,0,0h0Z"/>
                  <path class="cls-5" d="M486.8,142.5s-2-9.7-5.1-12.8l-3.6-12.8-5.7,2.3,12.9,23.9,1.5-.6h0Z"/>
                  <path class="cls-8" d="M485.3,142.8l-.2,1.2c0,.3-.8,1.4-.8,1.4h0c0,.3.4.3.6.2l3.1-2.3s.6-.7-1.1-1.6c-.4.7-1,1.4-1.4,1.1h0s0,0,0,0h0Z"/>
                  <path class="cls-9" d="M472,119.6l6,11.8,5.7,10.1,4.3-1.4s-1.1-1.7-1.2-2.3c-.2-.6-2-6.2-4.3-8.4l-3.9-11.5-6.5,1.7h0Z"/>
                  <path class="cls-9" d="M476.2,110.7l-8.4.6c-1.4.5-.8,8.4-.8,8.4l5.5.3c2.6,0,5.6,2,5.9-2.3.4-4.9-2.2-6.9-2.2-6.9h0Z"/>
                  <path class="cls-2" d="M478.6,118.2s-5.7.6-7.5-1.9l7.5-.6s.2,1.9,0,2.5h0Z"/>
                  <path class="cls-7" d="M468,101.1l2.9-.5,2.5-.3,4.1,1.2c1.1.5.8,1.5.4,2.7l.4,3.6c.9,2.7,1,4.8.9,7.7-4.5,1.8-11.4,1.6-12.9-.4,0-5.7,0-7.8,1.6-14h0Z"/>
                  <path class="cls-23" d="M470.9,100.6s-.9,2.5.8,2.6c1.7,0,2.6-2.6,2.6-2.6l-1.3-.5-2.1.5h0Z"/>
                  <path class="cls-32" d="M478.7,108.5s0,0,0,0l-1.2-1.9s0,0,0,0l.2-.5c0,0,0,0,.1,0,0,0,0,0,0,.1v.4c-.1,0,1,1.8,1,1.8,0,0,0,.1,0,.1,0,0,0,0,0,0Z"/>
                  <path class="cls-32" d="M467.2,104.7s0,0,0,0c0,0,0,0,0-.1,0-.2.3-.9.3-1,0,0,0,0,.1,0,0,0,0,0,0,.1-.1.3-.3.8-.3.9,0,0,0,0,0,0Z"/>
                  <g>
                    <g>
                      <path class="cls-11" d="M448,88.4s.4-.4,1,.7c.6,1.1,1.1,6.7,6.3,4.6l1.8-.8-1.6-3.3s-3.4,3.5-5.3-1.1c-.8-1.9-2.1-1.2-2.5-1.2l.3,1h0Z"/>
                      <path class="cls-11" d="M460.3,86.2l-1.4.6.4,1,1-.4c.3-.2.7,0,.9.5l.7,1.7c.2.4,0,.8-.3,1l-1,.4.4,1,1.4-.6c.5-.2.7-.9.5-1.5l-1.2-2.8c-.3-.6-.9-.9-1.4-.7h0Z"/>
                      <path class="cls-11" d="M458.8,94.7l-2.5.6c-1.6.4-3.2-.7-3.6-2.3v-5.9c-.1,0,.4-.5.4-.5l3.6-.5c-.1.2,1.9-.3,1.9-.3l2.3,5.2c.4,1.6-.7,3.2-2.3,3.6h0s0,0,0,0Z"/>
                    </g>
                    <path class="cls-12" d="M458.8,85.8c0,.4-1.2,1-2.9,1.4-1.7.4-3.1.3-3.2-.1s1.3-.9,3-1.3c1.7-.4,3-.5,3.1,0h0Z"/>
                  </g>
                  <path class="cls-4" d="M471.3,98.4l.6.2s0,.5-.4.4c-.3-.1-.2-.5-.2-.5h0Z"/>
                </g>
                <circle class="cls-17" cx="435.3" cy="120.5" r="25.6"/>
                <path class="cls-26" d="M456.2,105.7c-1.1-.2-12.7-1.9-14.8,4.3-2.1,6.4-7.5,5.3-5.7,12,1.8,6.6,7,10.5,13.4,9.6,7.4-1-6.7,10-1.2,11.2,12.3-6.7,17.4-23.6,8.3-37h0Z"/>
                <path class="cls-26" d="M421.4,99.1s11.1-.7,11.6,3.4c.5,4.1-2.4,3.4-6.1,5.7-3.7,2.4-5.3.5-7.4,4.1-2.1,3.6-8.9,1.8-8.9,1.8,0,0,1.4-8.8,10.8-14.9h0s0,0,0,0Z"/>
                <path class="cls-26" d="M410.3,125.2s8.2-1.8,11.2,4,5.3,3.4,7.3,6c.5.7.5,1.7.2,2.7-1.4,3.8-6,5.3-9.4,3-3.4-2.3-7.4-6.9-9.2-15.7h0Z"/>
                <g class="cls-19">
                  <path class="cls-21" d="M457.2,133.4c-7.1,12.2-22.6,16.3-34.8,9.2,27-1.7,34.7-26.6,25.6-44.1,12.2,7.1,16.3,22.8,9.2,35h0Z"/>
                </g>
                <g>
                  <path class="cls-30" d="M435.4,88s3.2-10.5-11.3-12.2c0,0-.7,10.7,11.3,12.2Z"/>
                  <path class="cls-30" d="M435.3,87.9s-3.4-10,10.4-12.1c0,0,1,10.1-10.4,12.1h0Z"/>
                  <path class="cls-29" d="M435.4,95.1c0,0-.1,0-.1-.1v-8.7c0,0,0-.1.1-.1s.1,0,.1.1v8.7c0,0,0,.1-.1.1Z"/>
                </g>
                <g>
                  <path class="cls-25" d="M445,110.2c-2.5,0-4.6.8-6.2,1.9-2.3,1.6-3.6,3.5-3.7,3.6h0c-1.3,1.4-3.9,5.7-4.2,6.3-.6.9-1.2,1.6-1.7,2.1-1.1.9-2.5,1.3-4.3,1.2-3,0-5.2-2.2-5.1-5.1,0-3.2,2.4-5.3,5.8-5.2,1.7,0,3.5,1.6,5.1,3.3,1.1-1.2,2.5-2.9,3.5-3.9-1.4-1.6-4.5-4.5-8.7-4.6-6.2-.2-10.4,4-10.5,10.2,0,6.1,4.1,10.6,9.9,10.8,2,0,4-.5,5.7-1.7l.8-.6c.9-.7,1.7-1.6,2.5-2.6,0,0,.5-.7.8-1.2l.2-.2c1.5-2.9,5.2-6.2,5.2-6.2,1.1-1.1,2.4-2.2,3.8-2.6,0,0,0,0,.2,0,.3,0,.6-.1.9,0,3.4,0,5.7,2.3,5.7,5.5,0,2.9-2.4,4.8-5.2,4.8s-.2,0-.3,0c-.6,0-1.2-.2-1.8-.5l1-1.6-6.7.6,1.6,7.2,1.1-1.8c1.5,1.1,3.2,1.6,5.1,1.6,2.9,0,5.4-1,7.2-2.8,1.8-1.8,2.9-4.4,2.9-7.5,0-6.3-4.1-10.5-10.3-10.7h0s0,0,0,0h0Z"/>
                  <path class="cls-29" d="M441.2,128.1s0,0,0,0c0,0,0,0,0-.1l2.7-4.3-6.5.6c0,0,0,0-.1,0,0,0,0,0,0-.1l6.7-.6s0,0,0,0c0,0,0,0,0,0l-2.8,4.4s0,0,0,0Z"/>
                </g>
                <path class="cls-29" d="M410.3,125.8s0,0-.1,0c0,0-.6-2.9-.4-6.8.2-3.6,1.1-8.8,4.5-13.3,6.5-8.5,14.8-10.1,14.9-10.1,0,0,.1,0,.1,0s0,.1,0,.1c0,0-8.2,1.6-14.7,10-3.4,4.4-4.3,9.6-4.5,13.1-.2,3.9.4,6.7.4,6.8,0,0,0,.1,0,.1,0,0,0,0,0,0Z"/>
                <path class="cls-29" d="M436.3,85.7s0,0,0,0c0,0,0-.1,0-.2l8.4-8.5s.1,0,.2,0c0,0,0,.1,0,.2l-8.4,8.5s0,0,0,0Z"/>
                <path class="cls-29" d="M433.6,85.3s0,0,0,0c-2.5-2.4-8.4-7.9-8.5-8.2,0,0,0-.1,0-.1,0,0,.1,0,.1,0,.2.3,5.2,5,8.5,8.1,0,0,0,.1,0,.2,0,0,0,0,0,0Z"/>
                <path class="cls-29" d="M435.3,146.2c0,0-.1,0-.1-.1s0-.1.1-.1c14,0,25.5-11.4,25.5-25.5s-11.4-25.5-25.5-25.5-1.4,0-2.2.1c0,0-.1,0-.1,0,0,0,0-.1,0-.1.8,0,1.5-.1,2.2-.1,6.9,0,13.3,2.7,18.2,7.5s7.5,11.3,7.5,18.2-2.7,13.3-7.5,18.2c-4.8,4.8-11.3,7.5-18.2,7.5Z"/>
              </g>
            </g>
          </g>
        </g>
      </g>
    </g>
  </g>
</svg>