<?xml version="1.0" encoding="UTF-8"?>
<svg xmlns="http://www.w3.org/2000/svg" version="1.1" viewBox="0 0 1130 450">
  <defs>
    <style>
      .cls-1 {
        stroke: #cf7021;
        stroke-width: 1.3px;
      }

      .cls-1, .cls-2, .cls-3, .cls-4, .cls-5, .cls-6, .cls-7, .cls-8 {
        stroke-linecap: round;
        stroke-linejoin: round;
      }

      .cls-1, .cls-2, .cls-3, .cls-5, .cls-6, .cls-7, .cls-8 {
        fill: none;
      }

      .cls-9 {
        fill: #7d6451;
      }

      .cls-9, .cls-10, .cls-11, .cls-12, .cls-13, .cls-14, .cls-15, .cls-16, .cls-17, .cls-18, .cls-19, .cls-20, .cls-21, .cls-22, .cls-23, .cls-24 {
        fill-rule: evenodd;
      }

      .cls-10 {
        fill: #3d2213;
      }

      .cls-25 {
        fill: #302218;
      }

      .cls-2 {
        stroke: #1f1406;
        stroke-width: 2.2px;
      }

      .cls-11 {
        fill: #c9c1b8;
      }

      .cls-26 {
        fill: #29ba8c;
      }

      .cls-27 {
        fill: #2cc796;
      }

      .cls-28 {
        opacity: .3;
      }

      .cls-28, .cls-29, .cls-13 {
        fill: #fff;
      }

      .cls-28, .cls-30, .cls-31 {
        isolation: isolate;
      }

      .cls-32 {
        fill: #fdffff;
      }

      .cls-12, .cls-33 {
        fill: #1f1406;
      }

      .cls-30 {
        mix-blend-mode: multiply;
        opacity: .2;
      }

      .cls-30, .cls-34 {
        fill: #ffac66;
      }

      .cls-35 {
        fill: #edb07e;
      }

      .cls-3 {
        stroke: #fff;
        stroke-width: .6px;
      }

      .cls-14 {
        fill: #e0d7cd;
      }

      .cls-4 {
        fill: #fcf0f0;
        stroke: #fd6a65;
      }

      .cls-4, .cls-7, .cls-8 {
        stroke-width: 2px;
      }

      .cls-15 {
        fill: #fad0b9;
      }

      .cls-36 {
        fill: #a69f97;
      }

      .cls-16 {
        fill: #a12a2a;
      }

      .cls-17 {
        fill: #f2ceac;
      }

      .cls-37 {
        fill: #73727d;
      }

      .cls-38 {
        fill: #f0e3d7;
      }

      .cls-18 {
        fill: #e0885c;
      }

      .cls-39 {
        fill: #cfc6bc;
      }

      .cls-5 {
        stroke: #b0664a;
      }

      .cls-5, .cls-6 {
        stroke-width: 1.2px;
      }

      .cls-40 {
        fill: #bab2a9;
      }

      .cls-41, .cls-21 {
        fill: #36261b;
      }

      .cls-19, .cls-42 {
        fill: #db7e5a;
      }

      .cls-43 {
        fill: #e69b5c;
      }

      .cls-20 {
        fill: #ba5de5;
      }

      .cls-44, .cls-45 {
        fill: #484848;
      }

      .cls-46 {
        fill: #f6faf3;
      }

      .cls-6 {
        stroke: #34686b;
      }

      .cls-22 {
        fill: #ede0d5;
      }

      .cls-23 {
        fill: #6e4616;
      }

      .cls-7, .cls-8 {
        stroke: #484848;
      }

      .cls-47 {
        fill: #7d5638;
      }

      .cls-24 {
        fill: #b86f4b;
      }

      .cls-48 {
        fill: #fd6a65;
      }

      .cls-8 {
        stroke-dasharray: 5 7;
      }

      .cls-45 {
        opacity: 0;
      }
    </style>
  </defs>
  <!-- Generator: Adobe Illustrator 28.7.9, SVG Export Plug-In . SVG Version: 1.2.0 Build 218)  -->
  <g>
    <g id="_x33__x5F_外語">
      <g id="g-root-cu_1cvi8ya1cwe8zv-stroke">
        <g id="cu_1cvi8ya1cwe8zv-stroke">
          <path class="cls-7" d="M611.5,220h-3.5c-13,0-23.5-10.5-23.5-23.5h0v-98c0-13-10.5-23.5-23.5-23.5h-3.5"/>
        </g>
      </g>
      <g>
        <g id="g-root-cu_v4upjm1cwe87d-stroke">
          <g id="cu_v4upjm1cwe87d-stroke">
            <path class="cls-8" d="M527.5,102v34h-18"/>
          </g>
        </g>
        <g id="g-root-cu_hte76a1cwe9sc-stroke">
          <g id="cu_hte76a1cwe9sc-stroke">
            <path class="cls-8" d="M527.5,102v70h-18"/>
          </g>
        </g>
        <g id="g-root-cu_ddkp1u1cweakm-stroke">
          <g id="cu_ddkp1u1cweakm-stroke">
            <path class="cls-8" d="M527.5,102v106h-18"/>
          </g>
        </g>
        <g id="g-root-cu_8ydo0i1cwe874-stroke">
          <g id="cu_8ydo0i1cwe874-stroke">
            <path class="cls-8" d="M527.5,102v142h-18"/>
          </g>
        </g>
        <g id="g-root-cu_8ydo0i1cwe876-stroke">
          <g id="cu_8ydo0i1cwe876-stroke">
            <path class="cls-8" d="M527.5,102v178h-18"/>
          </g>
        </g>
        <g id="g-root-cu_1lse7de1cweadq-stroke">
          <g id="cu_1lse7de1cweadq-stroke">
            <path class="cls-8" d="M527.5,102v250h-18"/>
          </g>
        </g>
        <g id="g-root-cu_1hd76c21cwe808-stroke">
          <g id="cu_1hd76c21cwe808-stroke">
            <path class="cls-8" d="M527.5,102v275.6c0,5.7-7,10.4-15.6,10.4h-6.4"/>
          </g>
        </g>
        <g id="g-root-cu_1uo17ma1cwe9l0-stroke">
          <g id="cu_1uo17ma1cwe9l0-stroke">
            <path class="cls-8" d="M527.5,102v214h-18"/>
          </g>
        </g>
      </g>
      <g id="c46">
        <g id="tx__v6q4sy1cwbfnw-fill">
          <g class="cls-31">
            <g class="cls-31">
              <path class="cls-44" d="M382.6,393.4h17.9v1.2h-17.9v-1.2ZM383.1,378.5h16.8v1.3h-16.8v-1.3ZM384,383.1h5.9v1.2h-4.5v5.5h-1.3v-6.6ZM384.8,388.5h5.1v5.7h-1.3v-4.5h-3.8v-1.2ZM389.9,379.1v4.5h-1.3v-4.5h1.3ZM393,379.1h1.3v4.5h-1.3v-4.5ZM393,383h6v6.6h-1.4v-5.4h-4.6v-1.2ZM393,388.5h5.3v1.2h-4v4.5h-1.3v-5.7Z"/>
              <path class="cls-44" d="M402.3,383.8l.7-1c.4.2.8.4,1.2.6.4.2.8.5,1.2.7s.7.4,1,.6l-.8,1.1c-.3-.2-.6-.4-1-.7-.4-.2-.8-.5-1.2-.7s-.8-.5-1.2-.7ZM402.7,394.6c.3-.5.6-1.1.9-1.8.3-.7.7-1.5,1-2.2.3-.8.6-1.5.9-2.3l1.1.7c-.2.7-.5,1.4-.8,2.2s-.6,1.5-.9,2.2c-.3.7-.6,1.4-.9,2l-1.2-.7ZM403.2,378.4l.8-.9c.4.2.7.4,1.2.7.4.3.8.5,1.2.8.4.2.7.5.9.7l-.8,1.1c-.2-.2-.5-.5-.9-.7s-.8-.5-1.2-.8c-.4-.3-.8-.5-1.2-.7ZM409.7,377.7h1.3v7c0,1.3,0,2.6-.2,3.9-.1,1.3-.4,2.5-.8,3.7-.4,1.2-1.1,2.3-2,3.3,0,0-.2-.2-.3-.3-.1,0-.3-.2-.4-.3-.1,0-.3-.2-.4-.2.9-.9,1.5-2,1.9-3.1.4-1.1.6-2.2.8-3.4s.2-2.4.2-3.6v-7ZM407,383.4l1-.3c.2.5.4,1,.6,1.6s.4,1.1.5,1.7.3,1,.4,1.5l-1.1.4c0-.4-.2-.9-.3-1.5-.1-.6-.3-1.1-.5-1.7s-.4-1.1-.6-1.6ZM411.3,383.5l.9-.3c.2.5.4,1,.6,1.5s.3,1.1.5,1.6c.1.5.2,1,.3,1.4l-1,.4c0-.4-.2-.9-.3-1.4-.1-.5-.3-1-.5-1.6s-.4-1-.5-1.5ZM414.1,377.9h1.3v17.2h-1.3v-17.2ZM415.3,383.2l.9-.4c.3.5.6,1,.9,1.6.3.6.5,1.1.8,1.7.2.5.4,1,.5,1.5l-1,.5c-.1-.4-.3-.9-.5-1.5-.2-.6-.5-1.1-.7-1.7s-.5-1.1-.8-1.6ZM418.5,377.7h1.3v17.9h-1.3v-17.9Z"/>
              <path class="cls-44" d="M422.4,380.6h7.3v1.1h-7.3v-1.1ZM423.2,383.3h5.8v1.1h-5.8v-1.1ZM423.2,385.9h5.8v1.1h-5.8v-1.1ZM423.2,388.5h1.2v6.8h-1.2v-6.8ZM423.8,388.5h5.3v5.8h-5.3v-1.1h4.1v-3.5h-4.1v-1.1ZM424.7,377.7l1-.5c.3.4.6.8.9,1.3.3.5.5.9.7,1.2l-1.1.6c-.2-.4-.4-.8-.7-1.3-.3-.5-.6-1-.8-1.4ZM429.5,385.7h11.2v1.1h-11.2v-1.1ZM430.1,378.1h10.2v1.2h-10.2v-1.2ZM430.5,381.4h8.3v4.8h-1.3v-3.6h-7v-1.2ZM430.7,388.4h8.8v7.1h-1.3v-5.9h-6.2v6h-1.3v-7.2ZM431.3,393.5h7.5v1.2h-7.5v-1.2ZM433.6,378.5h1.3c-.1.9-.3,1.8-.5,2.7-.2.9-.3,1.8-.5,2.7-.2.9-.3,1.6-.5,2.2h-1.3c.1-.5.3-1,.4-1.7.1-.6.3-1.3.4-2,.1-.7.2-1.4.4-2.1.1-.7.2-1.3.3-1.9Z"/>
              <path class="cls-44" d="M442.6,380.3h17.9v1.2h-17.9v-1.2ZM445.4,389.3h12.4v6.2h-1.4v-5h-9.7v5.1h-1.3v-6.3ZM445.5,383.2h12v1.1h-12v-1.1ZM445.5,386.2h12v1.1h-12v-1.1ZM446.2,393.5h10.7v1.1h-10.7v-1.1ZM449.8,377.6l1.3-.4c.4.4.8.9,1.2,1.4.4.5.7,1,.9,1.4l-1.3.5c-.2-.4-.4-.8-.8-1.4-.4-.5-.8-1-1.2-1.5Z"/>
              <path class="cls-44" d="M462.6,390.4h17.9v1.2h-17.9v-1.2ZM463,384.4h17v3.6h-1.3v-2.5h-14.4v2.5h-1.3v-3.6ZM468.1,377.4l.6.8c-.6.2-1.2.4-2,.6-.7.1-1.4.3-2,.3l-.5-.8c.4,0,.8-.2,1.3-.3s.9-.2,1.4-.4.8-.2,1.2-.3ZM464.3,378.4l1.3.4.4,6.2h-1.3l-.4-6.6ZM465,380.1h3.6v1h-3.6v-1ZM465.1,382.2h3.6v1h-3.6v-1ZM466.3,386.9h9.6v1h-9.6v-1ZM471,389.5h1.3v4.6c0,.4,0,.6-.1.8-.1.2-.3.3-.6.4-.3,0-.7.1-1.2.2-.5,0-1.2,0-2,0,0-.2,0-.3-.2-.6,0-.2-.2-.4-.3-.6.4,0,.8,0,1.2,0s.7,0,1,0,.5,0,.6,0c.2,0,.3,0,.3,0,0,0,0-.1,0-.3v-4.5ZM472.6,380.8l1,.3c-.5.6-1.1,1.2-1.8,1.8-.7.6-1.4,1.1-2.2,1.5,0,0-.2-.2-.4-.4-.2-.2-.3-.3-.4-.4.7-.3,1.4-.7,2.1-1.2.7-.5,1.2-1,1.6-1.6ZM472.5,377.4l1,.3c-.5.6-1,1.2-1.7,1.8-.7.6-1.4,1-2,1.4,0,0-.2-.2-.4-.4-.2-.1-.3-.3-.4-.3.7-.3,1.3-.8,2-1.2.7-.5,1.2-1,1.6-1.5ZM469.2,381.7l.7-.6c.5.2.9.5,1.4.7s1,.6,1.4.9c.4.3.8.6,1.1.8l-.7.7c-.3-.3-.6-.6-1-.9-.4-.3-.9-.6-1.4-.9s-1-.6-1.4-.8ZM469.3,378.3l.7-.6c.5.2.9.4,1.4.7.5.3.9.5,1.4.8.4.3.8.5,1,.8l-.7.7c-.3-.2-.6-.5-1-.8-.4-.3-.9-.6-1.3-.8-.5-.3-.9-.5-1.4-.7ZM475.5,386.9h.6c0,0,.8.6.8.6-.5.4-1,.7-1.6,1-.6.3-1.2.6-1.8.9s-1.2.5-1.8.8c0-.1-.2-.2-.3-.4-.1-.1-.3-.2-.4-.3.5-.2,1.1-.4,1.6-.7.6-.3,1.1-.5,1.6-.8s.9-.6,1.2-.8v-.3ZM474.3,382.2h3.6v1h-3.6v-1ZM474.3,378h3.9v1h-3.9v-1ZM474.4,380.1h3.6v1h-3.6v-1ZM477.6,378h1.3c0,.8,0,1.6-.1,2.4s-.1,1.7-.2,2.5c0,.8-.1,1.5-.2,2.1h-1.3c0-.6.2-1.3.2-2.1s.1-1.6.2-2.5c0-.9,0-1.6.1-2.4Z"/>
              <path class="cls-44" d="M487.4,390l1.3.5c-.4.5-.8,1-1.3,1.6s-1,1-1.6,1.5-1.1.9-1.6,1.2c0,0-.2-.2-.3-.3-.1-.1-.3-.2-.4-.3-.1-.1-.3-.2-.4-.3.8-.5,1.6-1.1,2.4-1.8.8-.7,1.4-1.4,1.9-2.1ZM495.8,377.3l1,1.1c-.8.4-1.7.7-2.8,1.1-1,.3-2.1.7-3.3,1-1.2.3-2.3.6-3.5.8-1.2.3-2.4.5-3.5.7,0-.2,0-.4-.2-.6,0-.2-.2-.4-.2-.5,1.1-.2,2.3-.5,3.4-.7,1.2-.3,2.3-.5,3.4-.8s2.2-.6,3.1-.9c1-.3,1.8-.7,2.5-1ZM484.1,389.7c0-.1,0-.2,0-.4,0-.2-.1-.3-.2-.5,0-.2-.1-.3-.1-.4.3,0,.7-.1,1.1-.3.5-.2,1-.4,1.6-.7.3-.1.8-.4,1.5-.7.7-.3,1.4-.7,2.3-1.2s1.7-1,2.6-1.6c.9-.6,1.8-1.2,2.6-1.8l1,.9c-1.9,1.3-3.8,2.5-5.7,3.5-1.9,1-3.8,1.9-5.7,2.6h0c-.2.1-.4.2-.5.2-.1,0-.2.1-.4.2s-.1.1-.1.2ZM484.1,389.7v-1s.9-.5.9-.5l13.1-.9c0,.2,0,.4,0,.6v.6c-2,.1-3.8.3-5.2.4s-2.7.2-3.7.3-1.8.1-2.4.2-1.1.1-1.5.2-.6,0-.8.1c-.2,0-.3,0-.5.1ZM485.2,385.5c0,0,0-.2,0-.4,0-.2,0-.3-.1-.5s-.1-.3-.1-.4c.2,0,.5,0,.7-.2.3-.1.6-.2.9-.4.2-.1.6-.3,1.1-.7s1.1-.7,1.8-1.2c.6-.4,1.2-.9,1.8-1.4l1.2.8c-1,.8-2,1.5-3.1,2.1-1.1.6-2.1,1.2-3.1,1.6h0c-.2.1-.3.2-.5.2-.1,0-.2.1-.3.2,0,0-.1.1-.1.2ZM485.2,385.5v-1s.8-.4.8-.4l7.5-.4c0,.2,0,.3,0,.6,0,.2,0,.4,0,.5-1.4,0-2.5.2-3.4.2-.9,0-1.7.1-2.3.2s-1,0-1.4.1c-.3,0-.6,0-.7,0-.2,0-.3,0-.4.1ZM491,388.1h1.4v5.7c0,.4,0,.7-.2.9-.1.2-.3.4-.6.5-.3.1-.7.2-1.2.2s-1.1,0-1.9,0c0-.2-.1-.4-.2-.7-.1-.3-.2-.5-.3-.7.4,0,.8,0,1.2,0,.4,0,.7,0,.9,0,.3,0,.4,0,.5,0,.2,0,.3,0,.3,0,0,0,0-.1,0-.2v-5.7ZM494.3,390.5l1-.7c.5.4,1.1.9,1.7,1.3.6.5,1.1,1,1.7,1.4.5.5,1,.9,1.3,1.3l-1.1.8c-.3-.4-.7-.8-1.2-1.3-.5-.5-1.1-1-1.6-1.5s-1.1-1-1.7-1.4ZM494.9,385.2l1.1-.5c.5.5,1,.9,1.5,1.5.5.5,1,1.1,1.5,1.6.5.5.8,1,1.1,1.4l-1.1.7c-.3-.4-.6-.9-1.1-1.4s-.9-1.1-1.5-1.6c-.5-.5-1-1.1-1.5-1.5Z"/>
            </g>
          </g>
        </g>
        <rect class="cls-45" x="382" y="377" width="118" height="19"/>
      </g>
      <g id="c45">
        <g id="tx__1lt0ogi1cwbfnv-fill">
          <g class="cls-31">
            <g class="cls-31">
              <path class="cls-44" d="M382.3,342.3h9.7v1.2h-9.7v-1.2ZM383,342.4h1.2v13.3c0,.6.1,1,.3,1.2.2.2.6.4,1.2.4h4.6c.3,0,.6,0,1,0,.4,0,.6,0,.8-.1,0,.1,0,.2,0,.4,0,.2,0,.3,0,.4,0,.1,0,.3,0,.4-.2,0-.4,0-.8,0-.4,0-.8,0-1.2,0h-4.5c-.7,0-1.2,0-1.6-.3s-.7-.5-.9-.9-.3-1-.3-1.7v-13.2ZM385,350.8h3.1v5.1h-3.1v-5.1ZM385.7,344.9h5.2v4.5h-5.2v-4.5ZM385.8,351.7v3.2h1.4v-3.2h-1.4ZM386.8,345.8v2.7h3v-2.7h-3ZM388.7,350.8h3.2v5h-3.2v-5ZM389.6,351.7v3.2h1.5v-3.2h-1.5ZM394.2,341.2l1.2.2c-.3,1.7-.6,3.2-1,4.7-.4,1.5-1,2.7-1.7,3.7,0,0-.2-.1-.3-.2-.1,0-.3-.2-.4-.3-.1,0-.3-.2-.4-.2.4-.6.8-1.4,1.2-2.2.3-.8.6-1.7.8-2.7.2-1,.4-2,.6-3ZM395.4,347h1.2v1.4c0,.8,0,1.6-.1,2.6s-.2,1.9-.5,2.9c-.3,1-.6,2-1.1,3-.5,1-1.2,1.9-2.1,2.8,0-.1-.2-.2-.3-.3-.1-.1-.2-.2-.3-.4-.1-.1-.2-.2-.3-.3.8-.8,1.5-1.7,1.9-2.6.5-.9.8-1.8,1-2.7.2-.9.4-1.8.4-2.6s.1-1.6.1-2.3v-1.4ZM394,344.5h5.9v1.3h-5.9v-1.3ZM396.6,349.6c.2,1.4.5,2.7.8,3.7.3,1.1.7,2,1.3,2.8.5.8,1.2,1.6,1.9,2.3-.2.1-.3.3-.5.5s-.3.4-.4.6c-.8-.8-1.5-1.7-2.1-2.6-.5-.9-1-2-1.3-3.1s-.6-2.5-.9-4l1.1-.2ZM399.5,344.5h.4c0,0,.9.2.9.2-.1.6-.3,1.2-.4,1.8-.2.6-.3,1.2-.5,1.8-.2.6-.3,1.1-.5,1.5l-1-.3c.1-.4.3-.9.4-1.4s.3-1.1.4-1.7c.1-.6.2-1.1.3-1.6v-.3Z"/>
              <path class="cls-44" d="M402.3,347.8l.7-1c.4.2.8.4,1.2.6.4.2.8.5,1.2.7s.7.4,1,.6l-.8,1.1c-.3-.2-.6-.4-1-.7-.4-.2-.8-.5-1.2-.7s-.8-.5-1.2-.7ZM402.7,358.6c.3-.5.6-1.1.9-1.8.3-.7.7-1.5,1-2.2.3-.8.6-1.5.9-2.3l1.1.7c-.2.7-.5,1.4-.8,2.2s-.6,1.5-.9,2.2c-.3.7-.6,1.4-.9,2l-1.2-.7ZM403.2,342.4l.8-.9c.4.2.7.4,1.2.7.4.3.8.5,1.2.8.4.2.7.5.9.7l-.8,1.1c-.2-.2-.5-.5-.9-.7s-.8-.5-1.2-.8c-.4-.3-.8-.5-1.2-.7ZM409.7,341.7h1.3v7c0,1.3,0,2.6-.2,3.9-.1,1.3-.4,2.5-.8,3.7-.4,1.2-1.1,2.3-2,3.3,0,0-.2-.2-.3-.3-.1,0-.3-.2-.4-.3-.1,0-.3-.2-.4-.2.9-.9,1.5-2,1.9-3.1.4-1.1.6-2.2.8-3.4s.2-2.4.2-3.6v-7ZM407,347.4l1-.3c.2.5.4,1,.6,1.6s.4,1.1.5,1.7.3,1,.4,1.5l-1.1.4c0-.4-.2-.9-.3-1.5-.1-.6-.3-1.1-.5-1.7s-.4-1.1-.6-1.6ZM411.3,347.5l.9-.3c.2.5.4,1,.6,1.5s.3,1.1.5,1.6c.1.5.2,1,.3,1.4l-1,.4c0-.4-.2-.9-.3-1.4-.1-.5-.3-1-.5-1.6s-.4-1-.5-1.5ZM414.1,341.9h1.3v17.2h-1.3v-17.2ZM415.3,347.2l.9-.4c.3.5.6,1,.9,1.6.3.6.5,1.1.8,1.7.2.5.4,1,.5,1.5l-1,.5c-.1-.4-.3-.9-.5-1.5-.2-.6-.5-1.1-.7-1.7s-.5-1.1-.8-1.6ZM418.5,341.7h1.3v17.9h-1.3v-17.9Z"/>
              <path class="cls-44" d="M422.4,344.6h7.3v1.1h-7.3v-1.1ZM423.2,347.3h5.8v1.1h-5.8v-1.1ZM423.2,349.9h5.8v1.1h-5.8v-1.1ZM423.2,352.5h1.2v6.8h-1.2v-6.8ZM423.8,352.5h5.3v5.8h-5.3v-1.1h4.1v-3.5h-4.1v-1.1ZM424.7,341.7l1-.5c.3.4.6.8.9,1.3.3.5.5.9.7,1.2l-1.1.6c-.2-.4-.4-.8-.7-1.3-.3-.5-.6-1-.8-1.4ZM429.5,349.7h11.2v1.1h-11.2v-1.1ZM430.1,342.1h10.2v1.2h-10.2v-1.2ZM430.5,345.4h8.3v4.8h-1.3v-3.6h-7v-1.2ZM430.7,352.4h8.8v7.1h-1.3v-5.9h-6.2v6h-1.3v-7.2ZM431.3,357.5h7.5v1.2h-7.5v-1.2ZM433.6,342.5h1.3c-.1.9-.3,1.8-.5,2.7-.2.9-.3,1.8-.5,2.7-.2.9-.3,1.6-.5,2.2h-1.3c.1-.5.3-1,.4-1.7.1-.6.3-1.3.4-2,.1-.7.2-1.4.4-2.1.1-.7.2-1.3.3-1.9Z"/>
              <path class="cls-44" d="M442.6,344.3h17.9v1.2h-17.9v-1.2ZM445.4,353.3h12.4v6.2h-1.4v-5h-9.7v5.1h-1.3v-6.3ZM445.5,347.2h12v1.1h-12v-1.1ZM445.5,350.2h12v1.1h-12v-1.1ZM446.2,357.5h10.7v1.1h-10.7v-1.1ZM449.8,341.6l1.3-.4c.4.4.8.9,1.2,1.4.4.5.7,1,.9,1.4l-1.3.5c-.2-.4-.4-.8-.8-1.4-.4-.5-.8-1-1.2-1.5Z"/>
              <path class="cls-44" d="M462.6,354.4h17.9v1.2h-17.9v-1.2ZM463,348.4h17v3.6h-1.3v-2.5h-14.4v2.5h-1.3v-3.6ZM468.1,341.4l.6.8c-.6.2-1.2.4-2,.6-.7.1-1.4.3-2,.3l-.5-.8c.4,0,.8-.2,1.3-.3s.9-.2,1.4-.4.8-.2,1.2-.3ZM464.3,342.4l1.3.4.4,6.2h-1.3l-.4-6.6ZM465,344.1h3.6v1h-3.6v-1ZM465.1,346.2h3.6v1h-3.6v-1ZM466.3,350.9h9.6v1h-9.6v-1ZM471,353.5h1.3v4.6c0,.4,0,.6-.1.8-.1.2-.3.3-.6.4-.3,0-.7.1-1.2.2-.5,0-1.2,0-2,0,0-.2,0-.3-.2-.6,0-.2-.2-.4-.3-.6.4,0,.8,0,1.2,0s.7,0,1,0,.5,0,.6,0c.2,0,.3,0,.3,0,0,0,0-.1,0-.3v-4.5ZM472.6,344.8l1,.3c-.5.6-1.1,1.2-1.8,1.8-.7.6-1.4,1.1-2.2,1.5,0,0-.2-.2-.4-.4-.2-.2-.3-.3-.4-.4.7-.3,1.4-.7,2.1-1.2.7-.5,1.2-1,1.6-1.6ZM472.5,341.4l1,.3c-.5.6-1,1.2-1.7,1.8-.7.6-1.4,1-2,1.4,0,0-.2-.2-.4-.4-.2-.1-.3-.3-.4-.3.7-.3,1.3-.8,2-1.2.7-.5,1.2-1,1.6-1.5ZM469.2,345.7l.7-.6c.5.2.9.5,1.4.7s1,.6,1.4.9c.4.3.8.6,1.1.8l-.7.7c-.3-.3-.6-.6-1-.9-.4-.3-.9-.6-1.4-.9s-1-.6-1.4-.8ZM469.3,342.3l.7-.6c.5.2.9.4,1.4.7.5.3.9.5,1.4.8.4.3.8.5,1,.8l-.7.7c-.3-.2-.6-.5-1-.8-.4-.3-.9-.6-1.3-.8-.5-.3-.9-.5-1.4-.7ZM475.5,350.9h.6c0,0,.8.6.8.6-.5.4-1,.7-1.6,1-.6.3-1.2.6-1.8.9s-1.2.5-1.8.8c0-.1-.2-.2-.3-.4-.1-.1-.3-.2-.4-.3.5-.2,1.1-.4,1.6-.7.6-.3,1.1-.5,1.6-.8s.9-.6,1.2-.8v-.3ZM474.3,346.2h3.6v1h-3.6v-1ZM474.3,342h3.9v1h-3.9v-1ZM474.4,344.1h3.6v1h-3.6v-1ZM477.6,342h1.3c0,.8,0,1.6-.1,2.4s-.1,1.7-.2,2.5c0,.8-.1,1.5-.2,2.1h-1.3c0-.6.2-1.3.2-2.1s.1-1.6.2-2.5c0-.9,0-1.6.1-2.4Z"/>
              <path class="cls-44" d="M487.4,354l1.3.5c-.4.5-.8,1-1.3,1.6s-1,1-1.6,1.5-1.1.9-1.6,1.2c0,0-.2-.2-.3-.3-.1-.1-.3-.2-.4-.3-.1-.1-.3-.2-.4-.3.8-.5,1.6-1.1,2.4-1.8.8-.7,1.4-1.4,1.9-2.1ZM495.8,341.3l1,1.1c-.8.4-1.7.7-2.8,1.1-1,.3-2.1.7-3.3,1-1.2.3-2.3.6-3.5.8-1.2.3-2.4.5-3.5.7,0-.2,0-.4-.2-.6,0-.2-.2-.4-.2-.5,1.1-.2,2.3-.5,3.4-.7,1.2-.3,2.3-.5,3.4-.8s2.2-.6,3.1-.9c1-.3,1.8-.7,2.5-1ZM484.1,353.7c0-.1,0-.2,0-.4,0-.2-.1-.3-.2-.5,0-.2-.1-.3-.1-.4.3,0,.7-.1,1.1-.3.5-.2,1-.4,1.6-.7.3-.1.8-.4,1.5-.7.7-.3,1.4-.7,2.3-1.2s1.7-1,2.6-1.6c.9-.6,1.8-1.2,2.6-1.8l1,.9c-1.9,1.3-3.8,2.5-5.7,3.5-1.9,1-3.8,1.9-5.7,2.6h0c-.2.1-.4.2-.5.2-.1,0-.2.1-.4.2s-.1.1-.1.2ZM484.1,353.7v-1s.9-.5.9-.5l13.1-.9c0,.2,0,.4,0,.6v.6c-2,.1-3.8.3-5.2.4s-2.7.2-3.7.3-1.8.1-2.4.2-1.1.1-1.5.2-.6,0-.8.1c-.2,0-.3,0-.5.1ZM485.2,349.5c0,0,0-.2,0-.4,0-.2,0-.3-.1-.5s-.1-.3-.1-.4c.2,0,.5,0,.7-.2.3-.1.6-.2.9-.4.2-.1.6-.3,1.1-.7s1.1-.7,1.8-1.2c.6-.4,1.2-.9,1.8-1.4l1.2.8c-1,.8-2,1.5-3.1,2.1-1.1.6-2.1,1.2-3.1,1.6h0c-.2.1-.3.2-.5.2-.1,0-.2.1-.3.2,0,0-.1.1-.1.2ZM485.2,349.5v-1s.8-.4.8-.4l7.5-.4c0,.2,0,.3,0,.6,0,.2,0,.4,0,.5-1.4,0-2.5.2-3.4.2-.9,0-1.7.1-2.3.2s-1,0-1.4.1c-.3,0-.6,0-.7,0-.2,0-.3,0-.4.1ZM491,352.1h1.4v5.7c0,.4,0,.7-.2.9-.1.2-.3.4-.6.5-.3.1-.7.2-1.2.2s-1.1,0-1.9,0c0-.2-.1-.4-.2-.7-.1-.3-.2-.5-.3-.7.4,0,.8,0,1.2,0,.4,0,.7,0,.9,0,.3,0,.4,0,.5,0,.2,0,.3,0,.3,0,0,0,0-.1,0-.2v-5.7ZM494.3,354.5l1-.7c.5.4,1.1.9,1.7,1.3.6.5,1.1,1,1.7,1.4.5.5,1,.9,1.3,1.3l-1.1.8c-.3-.4-.7-.8-1.2-1.3-.5-.5-1.1-1-1.6-1.5s-1.1-1-1.7-1.4ZM494.9,349.2l1.1-.5c.5.5,1,.9,1.5,1.5.5.5,1,1.1,1.5,1.6.5.5.8,1,1.1,1.4l-1.1.7c-.3-.4-.6-.9-1.1-1.4s-.9-1.1-1.5-1.6c-.5-.5-1-1.1-1.5-1.5Z"/>
            </g>
          </g>
        </g>
        <rect class="cls-45" x="382" y="341" width="119" height="19"/>
      </g>
      <g id="c44">
        <g id="tx__qp17f61cwbhfu-fill">
          <g class="cls-31">
            <g class="cls-31">
              <path class="cls-44" d="M383.7,306.8h1.2v6c0,.8,0,1.6,0,2.5,0,.9-.1,1.9-.2,2.8-.1,1-.3,1.9-.5,2.8-.2.9-.6,1.8-.9,2.5,0,0-.2-.2-.3-.3-.1,0-.3-.2-.4-.3-.1,0-.3-.2-.4-.2.4-.7.6-1.5.9-2.4.2-.8.4-1.7.5-2.6,0-.9.2-1.8.2-2.6s0-1.6,0-2.4v-6ZM384.4,306.8h16.1v1.1h-16.1v-1.1ZM388.6,308.2l1.1.3c-.5,1-1.1,2-1.9,3-.7,1-1.5,1.8-2.2,2.5,0,0-.2-.2-.3-.3-.1-.1-.2-.2-.3-.3s-.2-.2-.3-.3c.8-.6,1.5-1.4,2.2-2.2s1.2-1.8,1.7-2.8ZM387.3,318.8l1.1.4c-.3.7-.6,1.4-1,2.1-.4.7-.9,1.3-1.5,1.8l-1-.7c.6-.4,1-1,1.4-1.6s.7-1.3.9-2ZM387.3,311.4l1.2-1.2h0v7.4h-1.2v-6.3ZM391.8,308.1l1.1.3c-.4,1-1,1.9-1.6,2.8-.6.9-1.2,1.7-1.9,2.3,0,0-.2-.1-.3-.2-.1,0-.2-.2-.4-.3-.1,0-.2-.2-.3-.2.6-.6,1.2-1.3,1.8-2.1s1.1-1.7,1.4-2.6ZM389.7,318.9h1.2v2.9c0,.2,0,.4.2.4.1,0,.4.1.9.1h3.1c.2,0,.4,0,.5-.1.1,0,.2-.2.3-.5s0-.6.1-1.2c.1,0,.3.2.5.3.2,0,.4.2.6.2,0,.7-.1,1.2-.2,1.5-.1.4-.3.6-.6.7-.3.1-.6.2-1.1.2h-3.4c-.6,0-1,0-1.3-.1-.3,0-.5-.3-.6-.5-.1-.2-.2-.6-.2-1v-2.9ZM390.7,311.1l1.2-1v7.6h-1.2v-6.6ZM390.8,305.2l1.1-.4c.3.4.6.8.9,1.2.3.4.5.8.6,1.2l-1.2.5c-.1-.3-.3-.8-.6-1.2-.3-.5-.5-.9-.8-1.2ZM391.1,316.1h9.1v.9h-9.1v-.9ZM391.8,310h8v.9h-8.7l.7-.9ZM391.4,312.1h7.9v.8h-7.9v-.8ZM391.4,314.1h7.9v.8h-7.9v-.8ZM391.5,318.2l.8-.8c.4.2.8.4,1.2.6s.8.5,1.2.7c.4.2.7.5.9.7l-.8.9c-.2-.2-.5-.4-.9-.7-.4-.3-.8-.5-1.2-.8s-.8-.5-1.2-.6ZM394.3,308.5l.9-.5c.3.3.5.6.8.9.2.3.4.6.6.8l-1,.5c-.1-.3-.3-.5-.5-.9-.2-.3-.5-.6-.7-.9ZM395.1,310.4h1.2v6.1h-1.2v-6.1ZM396.5,319.1l1-.5c.4.4.8.8,1.2,1.2.4.5.7.9,1.1,1.4.3.4.6.8.7,1.2l-1.1.6c-.2-.4-.4-.8-.7-1.2-.3-.5-.7-.9-1-1.4-.4-.5-.8-.9-1.2-1.3Z"/>
              <path class="cls-44" d="M404.6,306.6h1.3v7.3c0,.7,0,1.5,0,2.4s-.2,1.7-.4,2.6c-.2.9-.5,1.7-.8,2.5-.4.8-.8,1.5-1.4,2.2,0,0-.1-.2-.3-.3s-.3-.2-.4-.3c-.1-.1-.2-.2-.3-.2.5-.6,1-1.3,1.3-2,.3-.7.6-1.5.7-2.3.2-.8.3-1.6.3-2.3,0-.8,0-1.5,0-2.2v-7.3ZM405.2,316.1h13.2v1.3h-13.2v-1.3ZM405.4,306.6h13.1v1.3h-13.1v-1.3ZM405.4,311.3h13v1.3h-13v-1.3ZM410.9,307.1h1.3v16.3h-1.3v-16.3ZM417.9,306.6h1.3v15c0,.5,0,.8-.2,1s-.4.4-.7.5c-.3.1-.8.2-1.4.2-.6,0-1.4,0-2.3,0,0-.2,0-.4-.2-.6-.1-.3-.2-.5-.3-.7.5,0,1,0,1.4,0h1.8c.2,0,.3,0,.4-.1,0,0,.1-.2.1-.4v-15Z"/>
              <path class="cls-44" d="M426.2,305.2l1.3.2c-.3,1.3-.6,2.5-1,3.6-.4,1.2-.9,2.2-1.4,3.2s-1.1,1.9-1.7,2.6c0,0-.2-.2-.3-.3s-.3-.2-.4-.3c-.1-.1-.3-.2-.4-.2.6-.7,1.2-1.5,1.7-2.5.5-.9.9-1.9,1.3-3,.4-1.1.7-2.2.9-3.4ZM430.5,308.3h.5c0,0,.9.2.9.2-.3,2.6-.9,4.9-1.7,6.9-.8,1.9-1.8,3.6-2.9,4.9-1.1,1.3-2.4,2.4-3.8,3.2,0-.1-.2-.2-.3-.4-.1-.1-.3-.3-.4-.4-.1-.1-.3-.2-.4-.3,1.4-.7,2.7-1.7,3.8-2.9s2-2.7,2.8-4.5,1.3-3.9,1.6-6.3v-.3ZM424.2,312.6l.9-.8c.5.4,1,.8,1.6,1.3.5.5,1.1,1,1.5,1.5.5.5.9.9,1.1,1.3l-1,.9c-.3-.4-.7-.8-1.1-1.3-.5-.5-1-1-1.5-1.5s-1.1-1-1.6-1.4ZM426,308.3h4.9v1.3h-4.9v-1.3ZM433.8,305.2h1.4v18.3h-1.4v-18.3ZM434.7,312.1l1-.8c.6.4,1.2.9,1.8,1.5.6.5,1.3,1.1,1.8,1.6.6.5,1,1,1.4,1.4l-1.1.9c-.3-.4-.8-.9-1.4-1.5-.6-.6-1.2-1.1-1.8-1.7-.6-.6-1.2-1.1-1.8-1.5Z"/>
              <path class="cls-44" d="M442.4,308.6h7.3v1.1h-7.3v-1.1ZM443.2,311.3h5.8v1.1h-5.8v-1.1ZM443.2,313.9h5.8v1.1h-5.8v-1.1ZM443.2,316.5h1.2v6.8h-1.2v-6.8ZM443.8,316.5h5.3v5.8h-5.3v-1.1h4.1v-3.5h-4.1v-1.1ZM444.7,305.7l1-.5c.3.4.6.8.9,1.3.3.5.5.9.7,1.2l-1.1.6c-.2-.4-.4-.8-.7-1.3-.3-.5-.6-1-.8-1.4ZM449.5,313.7h11.2v1.1h-11.2v-1.1ZM450.1,306.1h10.2v1.2h-10.2v-1.2ZM450.5,309.4h8.3v4.8h-1.3v-3.6h-7v-1.2ZM450.7,316.4h8.8v7.1h-1.3v-5.9h-6.2v6h-1.3v-7.2ZM451.3,321.5h7.5v1.2h-7.5v-1.2ZM453.6,306.5h1.3c-.1.9-.3,1.8-.5,2.7-.2.9-.3,1.8-.5,2.7-.2.9-.3,1.6-.5,2.2h-1.3c.1-.5.3-1,.4-1.7.1-.6.3-1.3.4-2,.1-.7.2-1.4.4-2.1.1-.7.2-1.3.3-1.9Z"/>
              <path class="cls-44" d="M462.6,318.4h17.9v1.2h-17.9v-1.2ZM463,312.4h17v3.6h-1.3v-2.5h-14.4v2.5h-1.3v-3.6ZM468.1,305.4l.6.8c-.6.2-1.2.4-2,.6-.7.1-1.4.3-2,.3l-.5-.8c.4,0,.8-.2,1.3-.3s.9-.2,1.4-.4.8-.2,1.2-.3ZM464.3,306.4l1.3.4.4,6.2h-1.3l-.4-6.6ZM465,308.1h3.6v1h-3.6v-1ZM465.1,310.2h3.6v1h-3.6v-1ZM466.3,314.9h9.6v1h-9.6v-1ZM471,317.5h1.3v4.6c0,.4,0,.6-.1.8-.1.2-.3.3-.6.4-.3,0-.7.1-1.2.2-.5,0-1.2,0-2,0,0-.2,0-.3-.2-.6,0-.2-.2-.4-.3-.6.4,0,.8,0,1.2,0s.7,0,1,0,.5,0,.6,0c.2,0,.3,0,.3,0,0,0,0-.1,0-.3v-4.5ZM472.6,308.8l1,.3c-.5.6-1.1,1.2-1.8,1.8-.7.6-1.4,1.1-2.2,1.5,0,0-.2-.2-.4-.4-.2-.2-.3-.3-.4-.4.7-.3,1.4-.7,2.1-1.2.7-.5,1.2-1,1.6-1.6ZM472.5,305.4l1,.3c-.5.6-1,1.2-1.7,1.8-.7.6-1.4,1-2,1.4,0,0-.2-.2-.4-.4-.2-.1-.3-.3-.4-.3.7-.3,1.3-.8,2-1.2.7-.5,1.2-1,1.6-1.5ZM469.2,309.7l.7-.6c.5.2.9.5,1.4.7s1,.6,1.4.9c.4.3.8.6,1.1.8l-.7.7c-.3-.3-.6-.6-1-.9-.4-.3-.9-.6-1.4-.9s-1-.6-1.4-.8ZM469.3,306.3l.7-.6c.5.2.9.4,1.4.7.5.3.9.5,1.4.8.4.3.8.5,1,.8l-.7.7c-.3-.2-.6-.5-1-.8-.4-.3-.9-.6-1.3-.8-.5-.3-.9-.5-1.4-.7ZM475.5,314.9h.6c0,0,.8.6.8.6-.5.4-1,.7-1.6,1-.6.3-1.2.6-1.8.9s-1.2.5-1.8.8c0-.1-.2-.2-.3-.4-.1-.1-.3-.2-.4-.3.5-.2,1.1-.4,1.6-.7.6-.3,1.1-.5,1.6-.8s.9-.6,1.2-.8v-.3ZM474.3,310.2h3.6v1h-3.6v-1ZM474.3,306h3.9v1h-3.9v-1ZM474.4,308.1h3.6v1h-3.6v-1ZM477.6,306h1.3c0,.8,0,1.6-.1,2.4s-.1,1.7-.2,2.5c0,.8-.1,1.5-.2,2.1h-1.3c0-.6.2-1.3.2-2.1s.1-1.6.2-2.5c0-.9,0-1.6.1-2.4Z"/>
              <path class="cls-44" d="M487.4,318l1.3.5c-.4.5-.8,1-1.3,1.6s-1,1-1.6,1.5-1.1.9-1.6,1.2c0,0-.2-.2-.3-.3-.1-.1-.3-.2-.4-.3-.1-.1-.3-.2-.4-.3.8-.5,1.6-1.1,2.4-1.8.8-.7,1.4-1.4,1.9-2.1ZM495.8,305.3l1,1.1c-.8.4-1.7.7-2.8,1.1-1,.3-2.1.7-3.3,1-1.2.3-2.3.6-3.5.8-1.2.3-2.4.5-3.5.7,0-.2,0-.4-.2-.6,0-.2-.2-.4-.2-.5,1.1-.2,2.3-.5,3.4-.7,1.2-.3,2.3-.5,3.4-.8s2.2-.6,3.1-.9c1-.3,1.8-.7,2.5-1ZM484.1,317.7c0-.1,0-.2,0-.4,0-.2-.1-.3-.2-.5,0-.2-.1-.3-.1-.4.3,0,.7-.1,1.1-.3.5-.2,1-.4,1.6-.7.3-.1.8-.4,1.5-.7.7-.3,1.4-.7,2.3-1.2s1.7-1,2.6-1.6c.9-.6,1.8-1.2,2.6-1.8l1,.9c-1.9,1.3-3.8,2.5-5.7,3.5-1.9,1-3.8,1.9-5.7,2.6h0c-.2.1-.4.2-.5.2-.1,0-.2.1-.4.2s-.1.1-.1.2ZM484.1,317.7v-1s.9-.5.9-.5l13.1-.9c0,.2,0,.4,0,.6v.6c-2,.1-3.8.3-5.2.4s-2.7.2-3.7.3-1.8.1-2.4.2-1.1.1-1.5.2-.6,0-.8.1c-.2,0-.3,0-.5.1ZM485.2,313.5c0,0,0-.2,0-.4,0-.2,0-.3-.1-.5s-.1-.3-.1-.4c.2,0,.5,0,.7-.2.3-.1.6-.2.9-.4.2-.1.6-.3,1.1-.7s1.1-.7,1.8-1.2c.6-.4,1.2-.9,1.8-1.4l1.2.8c-1,.8-2,1.5-3.1,2.1-1.1.6-2.1,1.2-3.1,1.6h0c-.2.1-.3.2-.5.2-.1,0-.2.1-.3.2,0,0-.1.1-.1.2ZM485.2,313.5v-1s.8-.4.8-.4l7.5-.4c0,.2,0,.3,0,.6,0,.2,0,.4,0,.5-1.4,0-2.5.2-3.4.2-.9,0-1.7.1-2.3.2s-1,0-1.4.1c-.3,0-.6,0-.7,0-.2,0-.3,0-.4.1ZM491,316.1h1.4v5.7c0,.4,0,.7-.2.9-.1.2-.3.4-.6.5-.3.1-.7.2-1.2.2s-1.1,0-1.9,0c0-.2-.1-.4-.2-.7-.1-.3-.2-.5-.3-.7.4,0,.8,0,1.2,0,.4,0,.7,0,.9,0,.3,0,.4,0,.5,0,.2,0,.3,0,.3,0,0,0,0-.1,0-.2v-5.7ZM494.3,318.5l1-.7c.5.4,1.1.9,1.7,1.3.6.5,1.1,1,1.7,1.4.5.5,1,.9,1.3,1.3l-1.1.8c-.3-.4-.7-.8-1.2-1.3-.5-.5-1.1-1-1.6-1.5s-1.1-1-1.7-1.4ZM494.9,313.2l1.1-.5c.5.5,1,.9,1.5,1.5.5.5,1,1.1,1.5,1.6.5.5.8,1,1.1,1.4l-1.1.7c-.3-.4-.6-.9-1.1-1.4s-.9-1.1-1.5-1.6c-.5-.5-1-1.1-1.5-1.5Z"/>
            </g>
          </g>
        </g>
        <rect class="cls-45" x="382" y="303" width="118" height="21"/>
      </g>
      <g id="c43">
        <g id="tx__1hbbr2q1cwbhft-fill">
          <g class="cls-31">
            <g class="cls-31">
              <path class="cls-44" d="M426.2,269.2l1.3.2c-.3,1.3-.6,2.5-1,3.6-.4,1.2-.9,2.2-1.4,3.2s-1.1,1.9-1.7,2.6c0,0-.2-.2-.3-.3s-.3-.2-.4-.3c-.1-.1-.3-.2-.4-.2.6-.7,1.2-1.5,1.7-2.5.5-.9.9-1.9,1.3-3,.4-1.1.7-2.2.9-3.4ZM430.5,272.3h.5c0,0,.9.2.9.2-.3,2.6-.9,4.9-1.7,6.9-.8,1.9-1.8,3.6-2.9,4.9-1.1,1.3-2.4,2.4-3.8,3.2,0-.1-.2-.2-.3-.4-.1-.1-.3-.3-.4-.4-.1-.1-.3-.2-.4-.3,1.4-.7,2.7-1.7,3.8-2.9s2-2.7,2.8-4.5,1.3-3.9,1.6-6.3v-.3ZM424.2,276.6l.9-.8c.5.4,1,.8,1.6,1.3.5.5,1.1,1,1.5,1.5.5.5.9.9,1.1,1.3l-1,.9c-.3-.4-.7-.8-1.1-1.3-.5-.5-1-1-1.5-1.5s-1.1-1-1.6-1.4ZM426,272.3h4.9v1.3h-4.9v-1.3ZM433.8,269.2h1.4v18.3h-1.4v-18.3ZM434.7,276.1l1-.8c.6.4,1.2.9,1.8,1.5.6.5,1.3,1.1,1.8,1.6.6.5,1,1,1.4,1.4l-1.1.9c-.3-.4-.8-.9-1.4-1.5-.6-.6-1.2-1.1-1.8-1.7-.6-.6-1.2-1.1-1.8-1.5Z"/>
              <path class="cls-44" d="M442.4,272.6h7.3v1.1h-7.3v-1.1ZM443.2,275.3h5.8v1.1h-5.8v-1.1ZM443.2,277.9h5.8v1.1h-5.8v-1.1ZM443.2,280.5h1.2v6.8h-1.2v-6.8ZM443.8,280.5h5.3v5.8h-5.3v-1.1h4.1v-3.5h-4.1v-1.1ZM444.7,269.7l1-.5c.3.4.6.8.9,1.3.3.5.5.9.7,1.2l-1.1.6c-.2-.4-.4-.8-.7-1.3-.3-.5-.6-1-.8-1.4ZM449.5,277.7h11.2v1.1h-11.2v-1.1ZM450.1,270.1h10.2v1.2h-10.2v-1.2ZM450.5,273.4h8.3v4.8h-1.3v-3.6h-7v-1.2ZM450.7,280.4h8.8v7.1h-1.3v-5.9h-6.2v6h-1.3v-7.2ZM451.3,285.5h7.5v1.2h-7.5v-1.2ZM453.6,270.5h1.3c-.1.9-.3,1.8-.5,2.7-.2.9-.3,1.8-.5,2.7-.2.9-.3,1.6-.5,2.2h-1.3c.1-.5.3-1,.4-1.7.1-.6.3-1.3.4-2,.1-.7.2-1.4.4-2.1.1-.7.2-1.3.3-1.9Z"/>
              <path class="cls-44" d="M462.6,282.4h17.9v1.2h-17.9v-1.2ZM463,276.4h17v3.6h-1.3v-2.5h-14.4v2.5h-1.3v-3.6ZM468.1,269.4l.6.8c-.6.2-1.2.4-2,.6-.7.1-1.4.3-2,.3l-.5-.8c.4,0,.8-.2,1.3-.3s.9-.2,1.4-.4.8-.2,1.2-.3ZM464.3,270.4l1.3.4.4,6.2h-1.3l-.4-6.6ZM465,272.1h3.6v1h-3.6v-1ZM465.1,274.2h3.6v1h-3.6v-1ZM466.3,278.9h9.6v1h-9.6v-1ZM471,281.5h1.3v4.6c0,.4,0,.6-.1.8-.1.2-.3.3-.6.4-.3,0-.7.1-1.2.2-.5,0-1.2,0-2,0,0-.2,0-.3-.2-.6,0-.2-.2-.4-.3-.6.4,0,.8,0,1.2,0s.7,0,1,0,.5,0,.6,0c.2,0,.3,0,.3,0,0,0,0-.1,0-.3v-4.5ZM472.6,272.8l1,.3c-.5.6-1.1,1.2-1.8,1.8-.7.6-1.4,1.1-2.2,1.5,0,0-.2-.2-.4-.4-.2-.2-.3-.3-.4-.4.7-.3,1.4-.7,2.1-1.2.7-.5,1.2-1,1.6-1.6ZM472.5,269.4l1,.3c-.5.6-1,1.2-1.7,1.8-.7.6-1.4,1-2,1.4,0,0-.2-.2-.4-.4-.2-.1-.3-.3-.4-.3.7-.3,1.3-.8,2-1.2.7-.5,1.2-1,1.6-1.5ZM469.2,273.7l.7-.6c.5.2.9.5,1.4.7s1,.6,1.4.9c.4.3.8.6,1.1.8l-.7.7c-.3-.3-.6-.6-1-.9-.4-.3-.9-.6-1.4-.9s-1-.6-1.4-.8ZM469.3,270.3l.7-.6c.5.2.9.4,1.4.7.5.3.9.5,1.4.8.4.3.8.5,1,.8l-.7.7c-.3-.2-.6-.5-1-.8-.4-.3-.9-.6-1.3-.8-.5-.3-.9-.5-1.4-.7ZM475.5,278.9h.6c0,0,.8.6.8.6-.5.4-1,.7-1.6,1-.6.3-1.2.6-1.8.9s-1.2.5-1.8.8c0-.1-.2-.2-.3-.4-.1-.1-.3-.2-.4-.3.5-.2,1.1-.4,1.6-.7.6-.3,1.1-.5,1.6-.8s.9-.6,1.2-.8v-.3ZM474.3,274.2h3.6v1h-3.6v-1ZM474.3,270h3.9v1h-3.9v-1ZM474.4,272.1h3.6v1h-3.6v-1ZM477.6,270h1.3c0,.8,0,1.6-.1,2.4s-.1,1.7-.2,2.5c0,.8-.1,1.5-.2,2.1h-1.3c0-.6.2-1.3.2-2.1s.1-1.6.2-2.5c0-.9,0-1.6.1-2.4Z"/>
              <path class="cls-44" d="M487.4,282l1.3.5c-.4.5-.8,1-1.3,1.6s-1,1-1.6,1.5-1.1.9-1.6,1.2c0,0-.2-.2-.3-.3-.1-.1-.3-.2-.4-.3-.1-.1-.3-.2-.4-.3.8-.5,1.6-1.1,2.4-1.8.8-.7,1.4-1.4,1.9-2.1ZM495.8,269.3l1,1.1c-.8.4-1.7.7-2.8,1.1-1,.3-2.1.7-3.3,1-1.2.3-2.3.6-3.5.8-1.2.3-2.4.5-3.5.7,0-.2,0-.4-.2-.6,0-.2-.2-.4-.2-.5,1.1-.2,2.3-.5,3.4-.7,1.2-.3,2.3-.5,3.4-.8s2.2-.6,3.1-.9c1-.3,1.8-.7,2.5-1ZM484.1,281.7c0-.1,0-.2,0-.4,0-.2-.1-.3-.2-.5,0-.2-.1-.3-.1-.4.3,0,.7-.1,1.1-.3.5-.2,1-.4,1.6-.7.3-.1.8-.4,1.5-.7.7-.3,1.4-.7,2.3-1.2s1.7-1,2.6-1.6c.9-.6,1.8-1.2,2.6-1.8l1,.9c-1.9,1.3-3.8,2.5-5.7,3.5-1.9,1-3.8,1.9-5.7,2.6h0c-.2.1-.4.2-.5.2-.1,0-.2.1-.4.2s-.1.1-.1.2ZM484.1,281.7v-1s.9-.5.9-.5l13.1-.9c0,.2,0,.4,0,.6v.6c-2,.1-3.8.3-5.2.4s-2.7.2-3.7.3-1.8.1-2.4.2-1.1.1-1.5.2-.6,0-.8.1c-.2,0-.3,0-.5.1ZM485.2,277.5c0,0,0-.2,0-.4,0-.2,0-.3-.1-.5s-.1-.3-.1-.4c.2,0,.5,0,.7-.2.3-.1.6-.2.9-.4.2-.1.6-.3,1.1-.7s1.1-.7,1.8-1.2c.6-.4,1.2-.9,1.8-1.4l1.2.8c-1,.8-2,1.5-3.1,2.1-1.1.6-2.1,1.2-3.1,1.6h0c-.2.1-.3.2-.5.2-.1,0-.2.1-.3.2,0,0-.1.1-.1.2ZM485.2,277.5v-1s.8-.4.8-.4l7.5-.4c0,.2,0,.3,0,.6,0,.2,0,.4,0,.5-1.4,0-2.5.2-3.4.2-.9,0-1.7.1-2.3.2s-1,0-1.4.1c-.3,0-.6,0-.7,0-.2,0-.3,0-.4.1ZM491,280.1h1.4v5.7c0,.4,0,.7-.2.9-.1.2-.3.4-.6.5-.3.1-.7.2-1.2.2s-1.1,0-1.9,0c0-.2-.1-.4-.2-.7-.1-.3-.2-.5-.3-.7.4,0,.8,0,1.2,0,.4,0,.7,0,.9,0,.3,0,.4,0,.5,0,.2,0,.3,0,.3,0,0,0,0-.1,0-.2v-5.7ZM494.3,282.5l1-.7c.5.4,1.1.9,1.7,1.3.6.5,1.1,1,1.7,1.4.5.5,1,.9,1.3,1.3l-1.1.8c-.3-.4-.7-.8-1.2-1.3-.5-.5-1.1-1-1.6-1.5s-1.1-1-1.7-1.4ZM494.9,277.2l1.1-.5c.5.5,1,.9,1.5,1.5.5.5,1,1.1,1.5,1.6.5.5.8,1,1.1,1.4l-1.1.7c-.3-.4-.6-.9-1.1-1.4s-.9-1.1-1.5-1.6c-.5-.5-1-1.1-1.5-1.5Z"/>
            </g>
          </g>
        </g>
        <rect class="cls-45" x="422" y="269" width="78" height="19"/>
      </g>
      <g id="c42">
        <g id="tx__4hb7pu1cwbf9c-fill">
          <g class="cls-31">
            <g class="cls-31">
              <path class="cls-44" d="M383.7,234.8h1.2v6c0,.8,0,1.6,0,2.5,0,.9-.1,1.9-.2,2.8-.1,1-.3,1.9-.5,2.8-.2.9-.6,1.8-.9,2.5,0,0-.2-.2-.3-.3-.1,0-.3-.2-.4-.3-.1,0-.3-.2-.4-.2.4-.7.6-1.5.9-2.4.2-.8.4-1.7.5-2.6,0-.9.2-1.8.2-2.6s0-1.6,0-2.4v-6ZM384.4,234.8h16.1v1.1h-16.1v-1.1ZM388.6,236.2l1.1.3c-.5,1-1.1,2-1.9,3-.7,1-1.5,1.8-2.2,2.5,0,0-.2-.2-.3-.3-.1-.1-.2-.2-.3-.3s-.2-.2-.3-.3c.8-.6,1.5-1.4,2.2-2.2s1.2-1.8,1.7-2.8ZM387.3,246.8l1.1.4c-.3.7-.6,1.4-1,2.1-.4.7-.9,1.3-1.5,1.8l-1-.7c.6-.4,1-1,1.4-1.6s.7-1.3.9-2ZM387.3,239.4l1.2-1.2h0v7.4h-1.2v-6.3ZM391.8,236.1l1.1.3c-.4,1-1,1.9-1.6,2.8-.6.9-1.2,1.7-1.9,2.3,0,0-.2-.1-.3-.2-.1,0-.2-.2-.4-.3-.1,0-.2-.2-.3-.2.6-.6,1.2-1.3,1.8-2.1s1.1-1.7,1.4-2.6ZM389.7,246.9h1.2v2.9c0,.2,0,.4.2.4.1,0,.4.1.9.1h3.1c.2,0,.4,0,.5-.1.1,0,.2-.2.3-.5s0-.6.1-1.2c.1,0,.3.2.5.3.2,0,.4.2.6.2,0,.7-.1,1.2-.2,1.5-.1.4-.3.6-.6.7-.3.1-.6.2-1.1.2h-3.4c-.6,0-1,0-1.3-.1-.3,0-.5-.3-.6-.5-.1-.2-.2-.6-.2-1v-2.9ZM390.7,239.1l1.2-1v7.6h-1.2v-6.6ZM390.8,233.2l1.1-.4c.3.4.6.8.9,1.2.3.4.5.8.6,1.2l-1.2.5c-.1-.3-.3-.8-.6-1.2-.3-.5-.5-.9-.8-1.2ZM391.1,244.1h9.1v.9h-9.1v-.9ZM391.8,238h8v.9h-8.7l.7-.9ZM391.4,240.1h7.9v.8h-7.9v-.8ZM391.4,242.1h7.9v.8h-7.9v-.8ZM391.5,246.2l.8-.8c.4.2.8.4,1.2.6s.8.5,1.2.7c.4.2.7.5.9.7l-.8.9c-.2-.2-.5-.4-.9-.7-.4-.3-.8-.5-1.2-.8s-.8-.5-1.2-.6ZM394.3,236.5l.9-.5c.3.3.5.6.8.9.2.3.4.6.6.8l-1,.5c-.1-.3-.3-.5-.5-.9-.2-.3-.5-.6-.7-.9ZM395.1,238.4h1.2v6.1h-1.2v-6.1ZM396.5,247.1l1-.5c.4.4.8.8,1.2,1.2.4.5.7.9,1.1,1.4.3.4.6.8.7,1.2l-1.1.6c-.2-.4-.4-.8-.7-1.2-.3-.5-.7-.9-1-1.4-.4-.5-.8-.9-1.2-1.3Z"/>
              <path class="cls-44" d="M404.6,234.6h1.3v7.3c0,.7,0,1.5,0,2.4s-.2,1.7-.4,2.6c-.2.9-.5,1.7-.8,2.5-.4.8-.8,1.5-1.4,2.2,0,0-.1-.2-.3-.3s-.3-.2-.4-.3c-.1-.1-.2-.2-.3-.2.5-.6,1-1.3,1.3-2,.3-.7.6-1.5.7-2.3.2-.8.3-1.6.3-2.3,0-.8,0-1.5,0-2.2v-7.3ZM405.2,244.1h13.2v1.3h-13.2v-1.3ZM405.4,234.6h13.1v1.3h-13.1v-1.3ZM405.4,239.3h13v1.3h-13v-1.3ZM410.9,235.1h1.3v16.3h-1.3v-16.3ZM417.9,234.6h1.3v15c0,.5,0,.8-.2,1s-.4.4-.7.5c-.3.1-.8.2-1.4.2-.6,0-1.4,0-2.3,0,0-.2,0-.4-.2-.6-.1-.3-.2-.5-.3-.7.5,0,1,0,1.4,0h1.8c.2,0,.3,0,.4-.1,0,0,.1-.2.1-.4v-15Z"/>
              <path class="cls-44" d="M425.1,234.6h13v16.6h-1.4v-15.3h-10.2v15.4h-1.4v-16.7ZM426,248.7h11.3v1.3h-11.3v-1.3ZM426,241.6h11.2v1.3h-11.2v-1.3Z"/>
              <path class="cls-44" d="M442.4,236.6h7.3v1.1h-7.3v-1.1ZM443.2,239.3h5.8v1.1h-5.8v-1.1ZM443.2,241.9h5.8v1.1h-5.8v-1.1ZM443.2,244.5h1.2v6.8h-1.2v-6.8ZM443.8,244.5h5.3v5.8h-5.3v-1.1h4.1v-3.5h-4.1v-1.1ZM444.7,233.7l1-.5c.3.4.6.8.9,1.3.3.5.5.9.7,1.2l-1.1.6c-.2-.4-.4-.8-.7-1.3-.3-.5-.6-1-.8-1.4ZM449.5,241.7h11.2v1.1h-11.2v-1.1ZM450.1,234.1h10.2v1.2h-10.2v-1.2ZM450.5,237.4h8.3v4.8h-1.3v-3.6h-7v-1.2ZM450.7,244.4h8.8v7.1h-1.3v-5.9h-6.2v6h-1.3v-7.2ZM451.3,249.5h7.5v1.2h-7.5v-1.2ZM453.6,234.5h1.3c-.1.9-.3,1.8-.5,2.7-.2.9-.3,1.8-.5,2.7-.2.9-.3,1.6-.5,2.2h-1.3c.1-.5.3-1,.4-1.7.1-.6.3-1.3.4-2,.1-.7.2-1.4.4-2.1.1-.7.2-1.3.3-1.9Z"/>
              <path class="cls-44" d="M462.6,246.4h17.9v1.2h-17.9v-1.2ZM463,240.4h17v3.6h-1.3v-2.5h-14.4v2.5h-1.3v-3.6ZM468.1,233.4l.6.8c-.6.2-1.2.4-2,.6-.7.1-1.4.3-2,.3l-.5-.8c.4,0,.8-.2,1.3-.3s.9-.2,1.4-.4.8-.2,1.2-.3ZM464.3,234.4l1.3.4.4,6.2h-1.3l-.4-6.6ZM465,236.1h3.6v1h-3.6v-1ZM465.1,238.2h3.6v1h-3.6v-1ZM466.3,242.9h9.6v1h-9.6v-1ZM471,245.5h1.3v4.6c0,.4,0,.6-.1.8-.1.2-.3.3-.6.4-.3,0-.7.1-1.2.2-.5,0-1.2,0-2,0,0-.2,0-.3-.2-.6,0-.2-.2-.4-.3-.6.4,0,.8,0,1.2,0s.7,0,1,0,.5,0,.6,0c.2,0,.3,0,.3,0,0,0,0-.1,0-.3v-4.5ZM472.6,236.8l1,.3c-.5.6-1.1,1.2-1.8,1.8-.7.6-1.4,1.1-2.2,1.5,0,0-.2-.2-.4-.4-.2-.2-.3-.3-.4-.4.7-.3,1.4-.7,2.1-1.2.7-.5,1.2-1,1.6-1.6ZM472.5,233.4l1,.3c-.5.6-1,1.2-1.7,1.8-.7.6-1.4,1-2,1.4,0,0-.2-.2-.4-.4-.2-.1-.3-.3-.4-.3.7-.3,1.3-.8,2-1.2.7-.5,1.2-1,1.6-1.5ZM469.2,237.7l.7-.6c.5.2.9.5,1.4.7s1,.6,1.4.9c.4.3.8.6,1.1.8l-.7.7c-.3-.3-.6-.6-1-.9-.4-.3-.9-.6-1.4-.9s-1-.6-1.4-.8ZM469.3,234.3l.7-.6c.5.2.9.4,1.4.7.5.3.9.5,1.4.8.4.3.8.5,1,.8l-.7.7c-.3-.2-.6-.5-1-.8-.4-.3-.9-.6-1.3-.8-.5-.3-.9-.5-1.4-.7ZM475.5,242.9h.6c0,0,.8.6.8.6-.5.4-1,.7-1.6,1-.6.3-1.2.6-1.8.9s-1.2.5-1.8.8c0-.1-.2-.2-.3-.4-.1-.1-.3-.2-.4-.3.5-.2,1.1-.4,1.6-.7.6-.3,1.1-.5,1.6-.8s.9-.6,1.2-.8v-.3ZM474.3,238.2h3.6v1h-3.6v-1ZM474.3,234h3.9v1h-3.9v-1ZM474.4,236.1h3.6v1h-3.6v-1ZM477.6,234h1.3c0,.8,0,1.6-.1,2.4s-.1,1.7-.2,2.5c0,.8-.1,1.5-.2,2.1h-1.3c0-.6.2-1.3.2-2.1s.1-1.6.2-2.5c0-.9,0-1.6.1-2.4Z"/>
              <path class="cls-44" d="M487.4,246l1.3.5c-.4.5-.8,1-1.3,1.6s-1,1-1.6,1.5-1.1.9-1.6,1.2c0,0-.2-.2-.3-.3-.1-.1-.3-.2-.4-.3-.1-.1-.3-.2-.4-.3.8-.5,1.6-1.1,2.4-1.8.8-.7,1.4-1.4,1.9-2.1ZM495.8,233.3l1,1.1c-.8.4-1.7.7-2.8,1.1-1,.3-2.1.7-3.3,1-1.2.3-2.3.6-3.5.8-1.2.3-2.4.5-3.5.7,0-.2,0-.4-.2-.6,0-.2-.2-.4-.2-.5,1.1-.2,2.3-.5,3.4-.7,1.2-.3,2.3-.5,3.4-.8s2.2-.6,3.1-.9c1-.3,1.8-.7,2.5-1ZM484.1,245.7c0-.1,0-.2,0-.4,0-.2-.1-.3-.2-.5,0-.2-.1-.3-.1-.4.3,0,.7-.1,1.1-.3.5-.2,1-.4,1.6-.7.3-.1.8-.4,1.5-.7.7-.3,1.4-.7,2.3-1.2s1.7-1,2.6-1.6c.9-.6,1.8-1.2,2.6-1.8l1,.9c-1.9,1.3-3.8,2.5-5.7,3.5-1.9,1-3.8,1.9-5.7,2.6h0c-.2.1-.4.2-.5.2-.1,0-.2.1-.4.2s-.1.1-.1.2ZM484.1,245.7v-1s.9-.5.9-.5l13.1-.9c0,.2,0,.4,0,.6v.6c-2,.1-3.8.3-5.2.4s-2.7.2-3.7.3-1.8.1-2.4.2-1.1.1-1.5.2-.6,0-.8.1c-.2,0-.3,0-.5.1ZM485.2,241.5c0,0,0-.2,0-.4,0-.2,0-.3-.1-.5s-.1-.3-.1-.4c.2,0,.5,0,.7-.2.3-.1.6-.2.9-.4.2-.1.6-.3,1.1-.7s1.1-.7,1.8-1.2c.6-.4,1.2-.9,1.8-1.4l1.2.8c-1,.8-2,1.5-3.1,2.1-1.1.6-2.1,1.2-3.1,1.6h0c-.2.1-.3.2-.5.2-.1,0-.2.1-.3.2,0,0-.1.1-.1.2ZM485.2,241.5v-1s.8-.4.8-.4l7.5-.4c0,.2,0,.3,0,.6,0,.2,0,.4,0,.5-1.4,0-2.5.2-3.4.2-.9,0-1.7.1-2.3.2s-1,0-1.4.1c-.3,0-.6,0-.7,0-.2,0-.3,0-.4.1ZM491,244.1h1.4v5.7c0,.4,0,.7-.2.9-.1.2-.3.4-.6.5-.3.1-.7.2-1.2.2s-1.1,0-1.9,0c0-.2-.1-.4-.2-.7-.1-.3-.2-.5-.3-.7.4,0,.8,0,1.2,0,.4,0,.7,0,.9,0,.3,0,.4,0,.5,0,.2,0,.3,0,.3,0,0,0,0-.1,0-.2v-5.7ZM494.3,246.5l1-.7c.5.4,1.1.9,1.7,1.3.6.5,1.1,1,1.7,1.4.5.5,1,.9,1.3,1.3l-1.1.8c-.3-.4-.7-.8-1.2-1.3-.5-.5-1.1-1-1.6-1.5s-1.1-1-1.7-1.4ZM494.9,241.2l1.1-.5c.5.5,1,.9,1.5,1.5.5.5,1,1.1,1.5,1.6.5.5.8,1,1.1,1.4l-1.1.7c-.3-.4-.6-.9-1.1-1.4s-.9-1.1-1.5-1.6c-.5-.5-1-1.1-1.5-1.5Z"/>
            </g>
          </g>
        </g>
        <rect class="cls-45" x="382" y="232" width="119" height="21"/>
      </g>
      <g id="c41">
        <g id="tx__m7yr4i1cwbg1z-fill">
          <g class="cls-31">
            <g class="cls-31">
              <path class="cls-44" d="M425.1,198.6h13v16.6h-1.4v-15.3h-10.2v15.4h-1.4v-16.7ZM426,212.7h11.3v1.3h-11.3v-1.3ZM426,205.6h11.2v1.3h-11.2v-1.3Z"/>
              <path class="cls-44" d="M442.4,200.6h7.3v1.1h-7.3v-1.1ZM443.2,203.3h5.8v1.1h-5.8v-1.1ZM443.2,205.9h5.8v1.1h-5.8v-1.1ZM443.2,208.5h1.2v6.8h-1.2v-6.8ZM443.8,208.5h5.3v5.8h-5.3v-1.1h4.1v-3.5h-4.1v-1.1ZM444.7,197.7l1-.5c.3.4.6.8.9,1.3.3.5.5.9.7,1.2l-1.1.6c-.2-.4-.4-.8-.7-1.3-.3-.5-.6-1-.8-1.4ZM449.5,205.7h11.2v1.1h-11.2v-1.1ZM450.1,198.1h10.2v1.2h-10.2v-1.2ZM450.5,201.4h8.3v4.8h-1.3v-3.6h-7v-1.2ZM450.7,208.4h8.8v7.1h-1.3v-5.9h-6.2v6h-1.3v-7.2ZM451.3,213.5h7.5v1.2h-7.5v-1.2ZM453.6,198.5h1.3c-.1.9-.3,1.8-.5,2.7-.2.9-.3,1.8-.5,2.7-.2.9-.3,1.6-.5,2.2h-1.3c.1-.5.3-1,.4-1.7.1-.6.3-1.3.4-2,.1-.7.2-1.4.4-2.1.1-.7.2-1.3.3-1.9Z"/>
              <path class="cls-44" d="M462.6,210.4h17.9v1.2h-17.9v-1.2ZM463,204.4h17v3.6h-1.3v-2.5h-14.4v2.5h-1.3v-3.6ZM468.1,197.4l.6.8c-.6.2-1.2.4-2,.6-.7.1-1.4.3-2,.3l-.5-.8c.4,0,.8-.2,1.3-.3s.9-.2,1.4-.4.8-.2,1.2-.3ZM464.3,198.4l1.3.4.4,6.2h-1.3l-.4-6.6ZM465,200.1h3.6v1h-3.6v-1ZM465.1,202.2h3.6v1h-3.6v-1ZM466.3,206.9h9.6v1h-9.6v-1ZM471,209.5h1.3v4.6c0,.4,0,.6-.1.8-.1.2-.3.3-.6.4-.3,0-.7.1-1.2.2-.5,0-1.2,0-2,0,0-.2,0-.3-.2-.6,0-.2-.2-.4-.3-.6.4,0,.8,0,1.2,0s.7,0,1,0,.5,0,.6,0c.2,0,.3,0,.3,0,0,0,0-.1,0-.3v-4.5ZM472.6,200.8l1,.3c-.5.6-1.1,1.2-1.8,1.8-.7.6-1.4,1.1-2.2,1.5,0,0-.2-.2-.4-.4-.2-.2-.3-.3-.4-.4.7-.3,1.4-.7,2.1-1.2.7-.5,1.2-1,1.6-1.6ZM472.5,197.4l1,.3c-.5.6-1,1.2-1.7,1.8-.7.6-1.4,1-2,1.4,0,0-.2-.2-.4-.4-.2-.1-.3-.3-.4-.3.7-.3,1.3-.8,2-1.2.7-.5,1.2-1,1.6-1.5ZM469.2,201.7l.7-.6c.5.2.9.5,1.4.7s1,.6,1.4.9c.4.3.8.6,1.1.8l-.7.7c-.3-.3-.6-.6-1-.9-.4-.3-.9-.6-1.4-.9s-1-.6-1.4-.8ZM469.3,198.3l.7-.6c.5.2.9.4,1.4.7.5.3.9.5,1.4.8.4.3.8.5,1,.8l-.7.7c-.3-.2-.6-.5-1-.8-.4-.3-.9-.6-1.3-.8-.5-.3-.9-.5-1.4-.7ZM475.5,206.9h.6c0,0,.8.6.8.6-.5.4-1,.7-1.6,1-.6.3-1.2.6-1.8.9s-1.2.5-1.8.8c0-.1-.2-.2-.3-.4-.1-.1-.3-.2-.4-.3.5-.2,1.1-.4,1.6-.7.6-.3,1.1-.5,1.6-.8s.9-.6,1.2-.8v-.3ZM474.3,202.2h3.6v1h-3.6v-1ZM474.3,198h3.9v1h-3.9v-1ZM474.4,200.1h3.6v1h-3.6v-1ZM477.6,198h1.3c0,.8,0,1.6-.1,2.4s-.1,1.7-.2,2.5c0,.8-.1,1.5-.2,2.1h-1.3c0-.6.2-1.3.2-2.1s.1-1.6.2-2.5c0-.9,0-1.6.1-2.4Z"/>
              <path class="cls-44" d="M487.4,210l1.3.5c-.4.5-.8,1-1.3,1.6s-1,1-1.6,1.5-1.1.9-1.6,1.2c0,0-.2-.2-.3-.3-.1-.1-.3-.2-.4-.3-.1-.1-.3-.2-.4-.3.8-.5,1.6-1.1,2.4-1.8.8-.7,1.4-1.4,1.9-2.1ZM495.8,197.3l1,1.1c-.8.4-1.7.7-2.8,1.1-1,.3-2.1.7-3.3,1-1.2.3-2.3.6-3.5.8-1.2.3-2.4.5-3.5.7,0-.2,0-.4-.2-.6,0-.2-.2-.4-.2-.5,1.1-.2,2.3-.5,3.4-.7,1.2-.3,2.3-.5,3.4-.8s2.2-.6,3.1-.9c1-.3,1.8-.7,2.5-1ZM484.1,209.7c0-.1,0-.2,0-.4,0-.2-.1-.3-.2-.5,0-.2-.1-.3-.1-.4.3,0,.7-.1,1.1-.3.5-.2,1-.4,1.6-.7.3-.1.8-.4,1.5-.7.7-.3,1.4-.7,2.3-1.2s1.7-1,2.6-1.6c.9-.6,1.8-1.2,2.6-1.8l1,.9c-1.9,1.3-3.8,2.5-5.7,3.5-1.9,1-3.8,1.9-5.7,2.6h0c-.2.1-.4.2-.5.2-.1,0-.2.1-.4.2s-.1.1-.1.2ZM484.1,209.7v-1s.9-.5.9-.5l13.1-.9c0,.2,0,.4,0,.6v.6c-2,.1-3.8.3-5.2.4s-2.7.2-3.7.3-1.8.1-2.4.2-1.1.1-1.5.2-.6,0-.8.1c-.2,0-.3,0-.5.1ZM485.2,205.5c0,0,0-.2,0-.4,0-.2,0-.3-.1-.5s-.1-.3-.1-.4c.2,0,.5,0,.7-.2.3-.1.6-.2.9-.4.2-.1.6-.3,1.1-.7s1.1-.7,1.8-1.2c.6-.4,1.2-.9,1.8-1.4l1.2.8c-1,.8-2,1.5-3.1,2.1-1.1.6-2.1,1.2-3.1,1.6h0c-.2.1-.3.2-.5.2-.1,0-.2.1-.3.2,0,0-.1.1-.1.2ZM485.2,205.5v-1s.8-.4.8-.4l7.5-.4c0,.2,0,.3,0,.6,0,.2,0,.4,0,.5-1.4,0-2.5.2-3.4.2-.9,0-1.7.1-2.3.2s-1,0-1.4.1c-.3,0-.6,0-.7,0-.2,0-.3,0-.4.1ZM491,208.1h1.4v5.7c0,.4,0,.7-.2.9-.1.2-.3.4-.6.5-.3.1-.7.2-1.2.2s-1.1,0-1.9,0c0-.2-.1-.4-.2-.7-.1-.3-.2-.5-.3-.7.4,0,.8,0,1.2,0,.4,0,.7,0,.9,0,.3,0,.4,0,.5,0,.2,0,.3,0,.3,0,0,0,0-.1,0-.2v-5.7ZM494.3,210.5l1-.7c.5.4,1.1.9,1.7,1.3.6.5,1.1,1,1.7,1.4.5.5,1,.9,1.3,1.3l-1.1.8c-.3-.4-.7-.8-1.2-1.3-.5-.5-1.1-1-1.6-1.5s-1.1-1-1.7-1.4ZM494.9,205.2l1.1-.5c.5.5,1,.9,1.5,1.5.5.5,1,1.1,1.5,1.6.5.5.8,1,1.1,1.4l-1.1.7c-.3-.4-.6-.9-1.1-1.4s-.9-1.1-1.5-1.6c-.5-.5-1-1.1-1.5-1.5Z"/>
            </g>
          </g>
        </g>
        <rect class="cls-45" x="424" y="196" width="76" height="21"/>
      </g>
      <g id="c40">
        <g id="tx__1ha2swi1cwbf9q-fill">
          <g class="cls-31">
            <g class="cls-31">
              <path class="cls-44" d="M383.7,162.8h1.2v6c0,.8,0,1.6,0,2.5,0,.9-.1,1.9-.2,2.8-.1,1-.3,1.9-.5,2.8-.2.9-.6,1.8-.9,2.5,0,0-.2-.2-.3-.3-.1,0-.3-.2-.4-.3-.1,0-.3-.2-.4-.2.4-.7.6-1.5.9-2.4.2-.8.4-1.7.5-2.6,0-.9.2-1.8.2-2.6s0-1.6,0-2.4v-6ZM384.4,162.8h16.1v1.1h-16.1v-1.1ZM388.6,164.2l1.1.3c-.5,1-1.1,2-1.9,3-.7,1-1.5,1.8-2.2,2.5,0,0-.2-.2-.3-.3-.1-.1-.2-.2-.3-.3s-.2-.2-.3-.3c.8-.6,1.5-1.4,2.2-2.2s1.2-1.8,1.7-2.8ZM387.3,174.8l1.1.4c-.3.7-.6,1.4-1,2.1-.4.7-.9,1.3-1.5,1.8l-1-.7c.6-.4,1-1,1.4-1.6s.7-1.3.9-2ZM387.3,167.4l1.2-1.2h0v7.4h-1.2v-6.3ZM391.8,164.1l1.1.3c-.4,1-1,1.9-1.6,2.8-.6.9-1.2,1.7-1.9,2.3,0,0-.2-.1-.3-.2-.1,0-.2-.2-.4-.3-.1,0-.2-.2-.3-.2.6-.6,1.2-1.3,1.8-2.1s1.1-1.7,1.4-2.6ZM389.7,174.9h1.2v2.9c0,.2,0,.4.2.4.1,0,.4.1.9.1h3.1c.2,0,.4,0,.5-.1.1,0,.2-.2.3-.5s0-.6.1-1.2c.1,0,.3.2.5.3.2,0,.4.2.6.2,0,.7-.1,1.2-.2,1.5-.1.4-.3.6-.6.7-.3.1-.6.2-1.1.2h-3.4c-.6,0-1,0-1.3-.1-.3,0-.5-.3-.6-.5-.1-.2-.2-.6-.2-1v-2.9ZM390.7,167.1l1.2-1v7.6h-1.2v-6.6ZM390.8,161.2l1.1-.4c.3.4.6.8.9,1.2.3.4.5.8.6,1.2l-1.2.5c-.1-.3-.3-.8-.6-1.2-.3-.5-.5-.9-.8-1.2ZM391.1,172.1h9.1v.9h-9.1v-.9ZM391.8,166h8v.9h-8.7l.7-.9ZM391.4,168.1h7.9v.8h-7.9v-.8ZM391.4,170.1h7.9v.8h-7.9v-.8ZM391.5,174.2l.8-.8c.4.2.8.4,1.2.6s.8.5,1.2.7c.4.2.7.5.9.7l-.8.9c-.2-.2-.5-.4-.9-.7-.4-.3-.8-.5-1.2-.8s-.8-.5-1.2-.6ZM394.3,164.5l.9-.5c.3.3.5.6.8.9.2.3.4.6.6.8l-1,.5c-.1-.3-.3-.5-.5-.9-.2-.3-.5-.6-.7-.9ZM395.1,166.4h1.2v6.1h-1.2v-6.1ZM396.5,175.1l1-.5c.4.4.8.8,1.2,1.2.4.5.7.9,1.1,1.4.3.4.6.8.7,1.2l-1.1.6c-.2-.4-.4-.8-.7-1.2-.3-.5-.7-.9-1-1.4-.4-.5-.8-.9-1.2-1.3Z"/>
              <path class="cls-44" d="M404.6,162.6h1.3v7.3c0,.7,0,1.5,0,2.4s-.2,1.7-.4,2.6c-.2.9-.5,1.7-.8,2.5-.4.8-.8,1.5-1.4,2.2,0,0-.1-.2-.3-.3s-.3-.2-.4-.3c-.1-.1-.2-.2-.3-.2.5-.6,1-1.3,1.3-2,.3-.7.6-1.5.7-2.3.2-.8.3-1.6.3-2.3,0-.8,0-1.5,0-2.2v-7.3ZM405.2,172.1h13.2v1.3h-13.2v-1.3ZM405.4,162.6h13.1v1.3h-13.1v-1.3ZM405.4,167.3h13v1.3h-13v-1.3ZM410.9,163.1h1.3v16.3h-1.3v-16.3ZM417.9,162.6h1.3v15c0,.5,0,.8-.2,1s-.4.4-.7.5c-.3.1-.8.2-1.4.2-.6,0-1.4,0-2.3,0,0-.2,0-.4-.2-.6-.1-.3-.2-.5-.3-.7.5,0,1,0,1.4,0h1.8c.2,0,.3,0,.4-.1,0,0,.1-.2.1-.4v-15Z"/>
              <path class="cls-44" d="M430.7,165.4h1.4v5.5c0,.7,0,1.3-.2,2-.1.7-.3,1.3-.7,1.9-.3.6-.8,1.2-1.5,1.8-.7.6-1.5,1.1-2.6,1.6s-2.4.9-4,1.3c0-.1-.1-.2-.2-.4,0-.1-.2-.3-.3-.4,0-.1-.2-.3-.3-.3,1.5-.3,2.8-.7,3.9-1.2,1-.4,1.8-.9,2.5-1.4.6-.5,1.1-1,1.4-1.6.3-.5.5-1.1.6-1.7,0-.6.1-1.1.1-1.7v-5.5ZM422.5,172.4h18.1v1.3h-18.1v-1.3ZM423,163.3h8v1.2h-8v-1.2ZM424.8,167.4h13.6v5.6h-1.3v-4.4h-11v4.4h-1.3v-5.6ZM426.8,161.2h1.4v5.3h-1.4v-5.3ZM431.8,175.2l.6-1c.7.3,1.4.6,2.1,1,.8.3,1.5.7,2.2,1.1.7.4,1.4.8,2.1,1.1.6.4,1.2.7,1.6,1l-.7,1.1c-.4-.3-1-.7-1.6-1-.6-.4-1.3-.8-2-1.2-.7-.4-1.5-.8-2.2-1.1-.8-.4-1.5-.7-2.2-1ZM432,163.3h8.1v1.2h-8.1v-1.2ZM435,161.2h1.3v5.2h-1.3v-5.2Z"/>
              <path class="cls-44" d="M442.4,164.6h7.3v1.1h-7.3v-1.1ZM443.2,167.3h5.8v1.1h-5.8v-1.1ZM443.2,169.9h5.8v1.1h-5.8v-1.1ZM443.2,172.5h1.2v6.8h-1.2v-6.8ZM443.8,172.5h5.3v5.8h-5.3v-1.1h4.1v-3.5h-4.1v-1.1ZM444.7,161.7l1-.5c.3.4.6.8.9,1.3.3.5.5.9.7,1.2l-1.1.6c-.2-.4-.4-.8-.7-1.3-.3-.5-.6-1-.8-1.4ZM449.5,169.7h11.2v1.1h-11.2v-1.1ZM450.1,162.1h10.2v1.2h-10.2v-1.2ZM450.5,165.4h8.3v4.8h-1.3v-3.6h-7v-1.2ZM450.7,172.4h8.8v7.1h-1.3v-5.9h-6.2v6h-1.3v-7.2ZM451.3,177.5h7.5v1.2h-7.5v-1.2ZM453.6,162.5h1.3c-.1.9-.3,1.8-.5,2.7-.2.9-.3,1.8-.5,2.7-.2.9-.3,1.6-.5,2.2h-1.3c.1-.5.3-1,.4-1.7.1-.6.3-1.3.4-2,.1-.7.2-1.4.4-2.1.1-.7.2-1.3.3-1.9Z"/>
              <path class="cls-44" d="M462.6,174.4h17.9v1.2h-17.9v-1.2ZM463,168.4h17v3.6h-1.3v-2.5h-14.4v2.5h-1.3v-3.6ZM468.1,161.4l.6.8c-.6.2-1.2.4-2,.6-.7.1-1.4.3-2,.3l-.5-.8c.4,0,.8-.2,1.3-.3s.9-.2,1.4-.4.8-.2,1.2-.3ZM464.3,162.4l1.3.4.4,6.2h-1.3l-.4-6.6ZM465,164.1h3.6v1h-3.6v-1ZM465.1,166.2h3.6v1h-3.6v-1ZM466.3,170.9h9.6v1h-9.6v-1ZM471,173.5h1.3v4.6c0,.4,0,.6-.1.8-.1.2-.3.3-.6.4-.3,0-.7.1-1.2.2-.5,0-1.2,0-2,0,0-.2,0-.3-.2-.6,0-.2-.2-.4-.3-.6.4,0,.8,0,1.2,0s.7,0,1,0,.5,0,.6,0c.2,0,.3,0,.3,0,0,0,0-.1,0-.3v-4.5ZM472.6,164.8l1,.3c-.5.6-1.1,1.2-1.8,1.8-.7.6-1.4,1.1-2.2,1.5,0,0-.2-.2-.4-.4-.2-.2-.3-.3-.4-.4.7-.3,1.4-.7,2.1-1.2.7-.5,1.2-1,1.6-1.6ZM472.5,161.4l1,.3c-.5.6-1,1.2-1.7,1.8-.7.6-1.4,1-2,1.4,0,0-.2-.2-.4-.4-.2-.1-.3-.3-.4-.3.7-.3,1.3-.8,2-1.2.7-.5,1.2-1,1.6-1.5ZM469.2,165.7l.7-.6c.5.2.9.5,1.4.7s1,.6,1.4.9c.4.3.8.6,1.1.8l-.7.7c-.3-.3-.6-.6-1-.9-.4-.3-.9-.6-1.4-.9s-1-.6-1.4-.8ZM469.3,162.3l.7-.6c.5.2.9.4,1.4.7.5.3.9.5,1.4.8.4.3.8.5,1,.8l-.7.7c-.3-.2-.6-.5-1-.8-.4-.3-.9-.6-1.3-.8-.5-.3-.9-.5-1.4-.7ZM475.5,170.9h.6c0,0,.8.6.8.6-.5.4-1,.7-1.6,1-.6.3-1.2.6-1.8.9s-1.2.5-1.8.8c0-.1-.2-.2-.3-.4-.1-.1-.3-.2-.4-.3.5-.2,1.1-.4,1.6-.7.6-.3,1.1-.5,1.6-.8s.9-.6,1.2-.8v-.3ZM474.3,166.2h3.6v1h-3.6v-1ZM474.3,162h3.9v1h-3.9v-1ZM474.4,164.1h3.6v1h-3.6v-1ZM477.6,162h1.3c0,.8,0,1.6-.1,2.4s-.1,1.7-.2,2.5c0,.8-.1,1.5-.2,2.1h-1.3c0-.6.2-1.3.2-2.1s.1-1.6.2-2.5c0-.9,0-1.6.1-2.4Z"/>
              <path class="cls-44" d="M487.4,174l1.3.5c-.4.5-.8,1-1.3,1.6s-1,1-1.6,1.5-1.1.9-1.6,1.2c0,0-.2-.2-.3-.3-.1-.1-.3-.2-.4-.3-.1-.1-.3-.2-.4-.3.8-.5,1.6-1.1,2.4-1.8.8-.7,1.4-1.4,1.9-2.1ZM495.8,161.3l1,1.1c-.8.4-1.7.7-2.8,1.1-1,.3-2.1.7-3.3,1-1.2.3-2.3.6-3.5.8-1.2.3-2.4.5-3.5.7,0-.2,0-.4-.2-.6,0-.2-.2-.4-.2-.5,1.1-.2,2.3-.5,3.4-.7,1.2-.3,2.3-.5,3.4-.8s2.2-.6,3.1-.9c1-.3,1.8-.7,2.5-1ZM484.1,173.7c0-.1,0-.2,0-.4,0-.2-.1-.3-.2-.5,0-.2-.1-.3-.1-.4.3,0,.7-.1,1.1-.3.5-.2,1-.4,1.6-.7.3-.1.8-.4,1.5-.7.7-.3,1.4-.7,2.3-1.2s1.7-1,2.6-1.6c.9-.6,1.8-1.2,2.6-1.8l1,.9c-1.9,1.3-3.8,2.5-5.7,3.5-1.9,1-3.8,1.9-5.7,2.6h0c-.2.1-.4.2-.5.2-.1,0-.2.1-.4.2s-.1.1-.1.2ZM484.1,173.7v-1s.9-.5.9-.5l13.1-.9c0,.2,0,.4,0,.6v.6c-2,.1-3.8.3-5.2.4s-2.7.2-3.7.3-1.8.1-2.4.2-1.1.1-1.5.2-.6,0-.8.1c-.2,0-.3,0-.5.1ZM485.2,169.5c0,0,0-.2,0-.4,0-.2,0-.3-.1-.5s-.1-.3-.1-.4c.2,0,.5,0,.7-.2.3-.1.6-.2.9-.4.2-.1.6-.3,1.1-.7s1.1-.7,1.8-1.2c.6-.4,1.2-.9,1.8-1.4l1.2.8c-1,.8-2,1.5-3.1,2.1-1.1.6-2.1,1.2-3.1,1.6h0c-.2.1-.3.2-.5.2-.1,0-.2.1-.3.2,0,0-.1.1-.1.2ZM485.2,169.5v-1s.8-.4.8-.4l7.5-.4c0,.2,0,.3,0,.6,0,.2,0,.4,0,.5-1.4,0-2.5.2-3.4.2-.9,0-1.7.1-2.3.2s-1,0-1.4.1c-.3,0-.6,0-.7,0-.2,0-.3,0-.4.1ZM491,172.1h1.4v5.7c0,.4,0,.7-.2.9-.1.2-.3.4-.6.5-.3.1-.7.2-1.2.2s-1.1,0-1.9,0c0-.2-.1-.4-.2-.7-.1-.3-.2-.5-.3-.7.4,0,.8,0,1.2,0,.4,0,.7,0,.9,0,.3,0,.4,0,.5,0,.2,0,.3,0,.3,0,0,0,0-.1,0-.2v-5.7ZM494.3,174.5l1-.7c.5.4,1.1.9,1.7,1.3.6.5,1.1,1,1.7,1.4.5.5,1,.9,1.3,1.3l-1.1.8c-.3-.4-.7-.8-1.2-1.3-.5-.5-1.1-1-1.6-1.5s-1.1-1-1.7-1.4ZM494.9,169.2l1.1-.5c.5.5,1,.9,1.5,1.5.5.5,1,1.1,1.5,1.6.5.5.8,1,1.1,1.4l-1.1.7c-.3-.4-.6-.9-1.1-1.4s-.9-1.1-1.5-1.6c-.5-.5-1-1.1-1.5-1.5Z"/>
            </g>
          </g>
        </g>
        <rect class="cls-45" x="382" y="160" width="118" height="21"/>
      </g>
      <g id="c39">
        <g id="tx__4pfdua1cwa1ol-fill">
          <g class="cls-31">
            <g class="cls-31">
              <path class="cls-44" d="M430.7,129.4h1.4v5.5c0,.7,0,1.3-.2,2-.1.7-.3,1.3-.7,1.9-.3.6-.8,1.2-1.5,1.8-.7.6-1.5,1.1-2.6,1.6s-2.4.9-4,1.3c0-.1-.1-.2-.2-.4,0-.1-.2-.3-.3-.4,0-.1-.2-.3-.3-.3,1.5-.3,2.8-.7,3.9-1.2,1-.4,1.8-.9,2.5-1.4.6-.5,1.1-1,1.4-1.6.3-.5.5-1.1.6-1.7,0-.6.1-1.1.1-1.7v-5.5ZM422.5,136.4h18.1v1.3h-18.1v-1.3ZM423,127.3h8v1.2h-8v-1.2ZM424.8,131.4h13.6v5.6h-1.3v-4.4h-11v4.4h-1.3v-5.6ZM426.8,125.2h1.4v5.3h-1.4v-5.3ZM431.8,139.2l.6-1c.7.3,1.4.6,2.1,1,.8.3,1.5.7,2.2,1.1.7.4,1.4.8,2.1,1.1.6.4,1.2.7,1.6,1l-.7,1.1c-.4-.3-1-.7-1.6-1-.6-.4-1.3-.8-2-1.2-.7-.4-1.5-.8-2.2-1.1-.8-.4-1.5-.7-2.2-1ZM432,127.3h8.1v1.2h-8.1v-1.2ZM435,125.2h1.3v5.2h-1.3v-5.2Z"/>
              <path class="cls-44" d="M442.4,128.6h7.3v1.1h-7.3v-1.1ZM443.2,131.3h5.8v1.1h-5.8v-1.1ZM443.2,133.9h5.8v1.1h-5.8v-1.1ZM443.2,136.5h1.2v6.8h-1.2v-6.8ZM443.8,136.5h5.3v5.8h-5.3v-1.1h4.1v-3.5h-4.1v-1.1ZM444.7,125.7l1-.5c.3.4.6.8.9,1.3.3.5.5.9.7,1.2l-1.1.6c-.2-.4-.4-.8-.7-1.3-.3-.5-.6-1-.8-1.4ZM449.5,133.7h11.2v1.1h-11.2v-1.1ZM450.1,126.1h10.2v1.2h-10.2v-1.2ZM450.5,129.4h8.3v4.8h-1.3v-3.6h-7v-1.2ZM450.7,136.4h8.8v7.1h-1.3v-5.9h-6.2v6h-1.3v-7.2ZM451.3,141.5h7.5v1.2h-7.5v-1.2ZM453.6,126.5h1.3c-.1.9-.3,1.8-.5,2.7-.2.9-.3,1.8-.5,2.7-.2.9-.3,1.6-.5,2.2h-1.3c.1-.5.3-1,.4-1.7.1-.6.3-1.3.4-2,.1-.7.2-1.4.4-2.1.1-.7.2-1.3.3-1.9Z"/>
              <path class="cls-44" d="M462.6,138.4h17.9v1.2h-17.9v-1.2ZM463,132.4h17v3.6h-1.3v-2.5h-14.4v2.5h-1.3v-3.6ZM468.1,125.4l.6.8c-.6.2-1.2.4-2,.6-.7.1-1.4.3-2,.3l-.5-.8c.4,0,.8-.2,1.3-.3s.9-.2,1.4-.4.8-.2,1.2-.3ZM464.3,126.4l1.3.4.4,6.2h-1.3l-.4-6.6ZM465,128.1h3.6v1h-3.6v-1ZM465.1,130.2h3.6v1h-3.6v-1ZM466.3,134.9h9.6v1h-9.6v-1ZM471,137.5h1.3v4.6c0,.4,0,.6-.1.8-.1.2-.3.3-.6.4-.3,0-.7.1-1.2.2-.5,0-1.2,0-2,0,0-.2,0-.3-.2-.6,0-.2-.2-.4-.3-.6.4,0,.8,0,1.2,0s.7,0,1,0,.5,0,.6,0c.2,0,.3,0,.3,0,0,0,0-.1,0-.3v-4.5ZM472.6,128.8l1,.3c-.5.6-1.1,1.2-1.8,1.8-.7.6-1.4,1.1-2.2,1.5,0,0-.2-.2-.4-.4-.2-.2-.3-.3-.4-.4.7-.3,1.4-.7,2.1-1.2.7-.5,1.2-1,1.6-1.6ZM472.5,125.4l1,.3c-.5.6-1,1.2-1.7,1.8-.7.6-1.4,1-2,1.4,0,0-.2-.2-.4-.4-.2-.1-.3-.3-.4-.3.7-.3,1.3-.8,2-1.2.7-.5,1.2-1,1.6-1.5ZM469.2,129.7l.7-.6c.5.2.9.5,1.4.7s1,.6,1.4.9c.4.3.8.6,1.1.8l-.7.7c-.3-.3-.6-.6-1-.9-.4-.3-.9-.6-1.4-.9s-1-.6-1.4-.8ZM469.3,126.3l.7-.6c.5.2.9.4,1.4.7.5.3.9.5,1.4.8.4.3.8.5,1,.8l-.7.7c-.3-.2-.6-.5-1-.8-.4-.3-.9-.6-1.3-.8-.5-.3-.9-.5-1.4-.7ZM475.5,134.9h.6c0,0,.8.6.8.6-.5.4-1,.7-1.6,1-.6.3-1.2.6-1.8.9s-1.2.5-1.8.8c0-.1-.2-.2-.3-.4-.1-.1-.3-.2-.4-.3.5-.2,1.1-.4,1.6-.7.6-.3,1.1-.5,1.6-.8s.9-.6,1.2-.8v-.3ZM474.3,130.2h3.6v1h-3.6v-1ZM474.3,126h3.9v1h-3.9v-1ZM474.4,128.1h3.6v1h-3.6v-1ZM477.6,126h1.3c0,.8,0,1.6-.1,2.4s-.1,1.7-.2,2.5c0,.8-.1,1.5-.2,2.1h-1.3c0-.6.2-1.3.2-2.1s.1-1.6.2-2.5c0-.9,0-1.6.1-2.4Z"/>
              <path class="cls-44" d="M487.4,138l1.3.5c-.4.5-.8,1-1.3,1.6s-1,1-1.6,1.5-1.1.9-1.6,1.2c0,0-.2-.2-.3-.3-.1-.1-.3-.2-.4-.3-.1-.1-.3-.2-.4-.3.8-.5,1.6-1.1,2.4-1.8.8-.7,1.4-1.4,1.9-2.1ZM495.8,125.3l1,1.1c-.8.4-1.7.7-2.8,1.1-1,.3-2.1.7-3.3,1-1.2.3-2.3.6-3.5.8-1.2.3-2.4.5-3.5.7,0-.2,0-.4-.2-.6,0-.2-.2-.4-.2-.5,1.1-.2,2.3-.5,3.4-.7,1.2-.3,2.3-.5,3.4-.8s2.2-.6,3.1-.9c1-.3,1.8-.7,2.5-1ZM484.1,137.7c0-.1,0-.2,0-.4,0-.2-.1-.3-.2-.5,0-.2-.1-.3-.1-.4.3,0,.7-.1,1.1-.3.5-.2,1-.4,1.6-.7.3-.1.8-.4,1.5-.7.7-.3,1.4-.7,2.3-1.2s1.7-1,2.6-1.6c.9-.6,1.8-1.2,2.6-1.8l1,.9c-1.9,1.3-3.8,2.5-5.7,3.5-1.9,1-3.8,1.9-5.7,2.6h0c-.2.1-.4.2-.5.2-.1,0-.2.1-.4.2s-.1.1-.1.2ZM484.1,137.7v-1s.9-.5.9-.5l13.1-.9c0,.2,0,.4,0,.6v.6c-2,.1-3.8.3-5.2.4s-2.7.2-3.7.3-1.8.1-2.4.2-1.1.1-1.5.2-.6,0-.8.1c-.2,0-.3,0-.5.1ZM485.2,133.5c0,0,0-.2,0-.4,0-.2,0-.3-.1-.5s-.1-.3-.1-.4c.2,0,.5,0,.7-.2.3-.1.6-.2.9-.4.2-.1.6-.3,1.1-.7s1.1-.7,1.8-1.2c.6-.4,1.2-.9,1.8-1.4l1.2.8c-1,.8-2,1.5-3.1,2.1-1.1.6-2.1,1.2-3.1,1.6h0c-.2.1-.3.2-.5.2-.1,0-.2.1-.3.2,0,0-.1.1-.1.2ZM485.2,133.5v-1s.8-.4.8-.4l7.5-.4c0,.2,0,.3,0,.6,0,.2,0,.4,0,.5-1.4,0-2.5.2-3.4.2-.9,0-1.7.1-2.3.2s-1,0-1.4.1c-.3,0-.6,0-.7,0-.2,0-.3,0-.4.1ZM491,136.1h1.4v5.7c0,.4,0,.7-.2.9-.1.2-.3.4-.6.5-.3.1-.7.2-1.2.2s-1.1,0-1.9,0c0-.2-.1-.4-.2-.7-.1-.3-.2-.5-.3-.7.4,0,.8,0,1.2,0,.4,0,.7,0,.9,0,.3,0,.4,0,.5,0,.2,0,.3,0,.3,0,0,0,0-.1,0-.2v-5.7ZM494.3,138.5l1-.7c.5.4,1.1.9,1.7,1.3.6.5,1.1,1,1.7,1.4.5.5,1,.9,1.3,1.3l-1.1.8c-.3-.4-.7-.8-1.2-1.3-.5-.5-1.1-1-1.6-1.5s-1.1-1-1.7-1.4ZM494.9,133.2l1.1-.5c.5.5,1,.9,1.5,1.5.5.5,1,1.1,1.5,1.6.5.5.8,1,1.1,1.4l-1.1.7c-.3-.4-.6-.9-1.1-1.4s-.9-1.1-1.5-1.6c-.5-.5-1-1.1-1.5-1.5Z"/>
            </g>
          </g>
        </g>
        <rect class="cls-45" x="422" y="123" width="78" height="21"/>
      </g>
      <g id="a3">
        <g id="g-root-ro_dgow4shjfqbp-stroke">
          <g id="ro_dgow4shjfqbp-stroke">
            <path class="cls-4" d="M639.8,126.5h95.5s27.3,0,27.3,28.6v92.9s0,28.6-27.3,28.6h-95.5s-27.3,0-27.3-28.6v-92.9s0-28.6,27.3-28.6"/>
          </g>
        </g>
        <g>
          <g id="_圖層_1">
            <g id="_圖層_1-2">
              <g id="_圖層_1-2-2" data-name="_圖層_1-2">
                <g>
                  <g>
                    <path class="cls-22" d="M671.3,187.7c0,.6-4.8,1.1-10.8,1.1s-10.8-.5-10.8-1.1,4.8-1.1,10.8-1.1,10.8.5,10.8,1.1Z"/>
                    <g>
                      <path class="cls-14" d="M653.7,167.3c-2.4,1.4-2.4,8.6-2.9,11-.2,1.1.5,5.2,1.1,6.2.2.3,2.8.1,3.1.2,1.5.3,8.5.4,9.4-.6.9-1-1.6-3.5-1.5-4.7.9-6.3-2.6-12.3-2.6-12.3,0,0-4.1-1.2-6.6.3h0Z"/>
                      <path class="cls-11" d="M660.9,181.1s-4.8-.8-6.2-6.1c-.6-2.2-.2-3.8-.7-3.9-.9-.3-2.3,1.5-2.3,1.5,0,0-1.3,5.5-.7,7.2s9,2.7,9,2.7l1-1.4h0,0Z"/>
                      <path class="cls-14" d="M660.3,167s4.5.4,7.5,8.8l-3,.6-4.5-3.6v-5.9h0,0Z"/>
                      <path class="cls-12" d="M658,187.4s-3-.2-2.8-1.3c.2-1.1,3.3-.2,3.3-.2l-.5,1.5h0Z"/>
                      <path class="cls-18" d="M659.5,164.9s-.3,1.7-.5,3.1c0,.4-.3.7-.7.8s-.7,0-1-.2c-.1,0-.2-.1-.3-.2-.4-.3-.5-.9-.4-1.4.4-1.3,1-3.6,1-3.6l1.9,1.5h0s0,0,0,0Z"/>
                      <path class="cls-12" d="M660.8,162.6s1.2.9-.1,1.9.1-1.9.1-1.9h0Z"/>
                      <path class="cls-18" d="M661,164.1c0-.4,0-.9-.3-1.2s-.7-.6-1.1-.6h0c-.8-.1-1.6.5-1.8,1.3,0,.5-.2,1-.3,1.5,0,.3,0,.6.2.9.2.3.5.4.8.5.3,0,.6,0,.9.1.6,0,1.2-.3,1.3-1,0-.4.2-.9.3-1.4h0Z"/>
                      <path class="cls-12" d="M658.7,163s-.1,1.5-1.3,1.2c0,0-.3-1.4-.2-2.1.1-1.3,2.7-.9,3.6-.2.9.8,0,1.6-2.1,1h0Z"/>
                      <path class="cls-18" d="M657.5,163.7c.2,0,.4.2.4.5s-.2.5-.4.5-.4-.2-.4-.5c0-.3.2-.5.4-.5h0Z"/>
                      <path class="cls-12" d="M659.5,163.2s2.8.4,2.4-.9c-.3-1.3-2.8.7-3.1.1l.7.8h0,0Z"/>
                      <path class="cls-15" d="M660,165.5h-.8c0,0,0,.5.3.5s.4-.5.4-.5h0,0Z"/>
                      <path class="cls-18" d="M661.6,174.5s-1.1-1.3-1.9-.5c-.8.8.7,2.9,1.5,2.4.8-.4.4-1.9.4-1.9h0Z"/>
                      <path class="cls-12" d="M661,177.9h1.3c.6,0,1.1-.5,1.3-1l1.1-3.9c.1-.5-.2-.9-.7-.9h-1.3c-.6,0-1.1.5-1.3,1l-1.1,3.9c-.1.5.2.9.7.9h0Z"/>
                      <path class="cls-18" d="M664.8,174.4s-1.8-1.4-2.4-.4,1,2.1,1.6,1.9.8-1.5.8-1.5h0Z"/>
                      <path class="cls-18" d="M664.8,174.4s3.8.3,3.5,1.6c-.3,1.2-1.5,2.6-4.3,0-2.8-2.7.8-1.5.8-1.5h0Z"/>
                      <path class="cls-23" d="M662.7,179.8s5.6-2.9,7.2,1.1c1.4,3.4-8.5,5.9-11.3,6.6-.4.1-.9-.1-1.1-.5l-1.2-2.4,6.4-4.7h0Z"/>
                      <path class="cls-23" d="M654.5,186.1s-6-2-4.2-5.9c1.8-3.9,13.2,4.1,13.2,4.1l-1,2.5c-.1.4-.6.7-1,.6l-7-1.2h0Z"/>
                      <path class="cls-12" d="M663,185.6s3,.3,2.8,1.5c-.3,1.1-3.3,0-3.3,0l.6-1.5h0Z"/>
                      <path class="cls-14" d="M654.2,167s-3.9,1-3.9,7.8c0,6.7,6.5,2.7,6.5,2.7l-.4-2.5h-.6c-1.3-.1-2.2-1.2-2.1-2.5l.5-5.5h0s0,0,0,0Z"/>
                      <path class="cls-18" d="M660.3,173.7s-4,.4-5.4,2.3-.3,2.5.4,2.4,4.5-3,4.5-3l.6-1.8h0Z"/>
                      <path class="cls-24" d="M659.2,166.4v.7c-.1,0-.9-1.1-.9-1.1.3.3.7.3.9.3h0Z"/>
                    </g>
                  </g>
                  <g>
                    <rect class="cls-47" x="673.1" y="164.9" width="35.8" height="63.4" rx="2.3" ry="2.3"/>
                    <rect class="cls-38" x="674.3" y="167.7" width="33.4" height="57.4" rx=".3" ry=".3"/>
                    <polygon class="cls-28" points="688.6 167.6 674.3 201.1 674.3 204.7 690.4 167.6 688.6 167.6"/>
                    <path class="cls-28" d="M693.9,167.6l-19.6,45.7v11.4c0,.2.1.4.3.4h6.6l24.6-57.4h-12,0,0Z"/>
                  </g>
                  <path class="cls-41" d="M726.4,179.1l2.8,3.2s-5.4,2-9.2-.2l2.2-3.3,4.3.3h0s0,0,0,0Z"/>
                  <path class="cls-19" d="M723.9,198.1l.4,17.2.6,14.9h1.5c.8-5.2,3.8-8.5,2.2-15l.8-10.7-2.7-5.5-2.8-.9h0s0,0,0,0Z"/>
                  <path class="cls-19" d="M728,195.9l-7.9-.5c-2.5,3.9-2.6,8.8-2.6,8.8,0,0-.9,9.8-.8,10.3l1.6,15.6,1.4.2c.6-4.2,3-8.5,1.3-14.6l2.4-10.4c2.7.2,5.7,2.7,6.4-1.8.8-5.1-1.7-7.5-1.7-7.5h0Z"/>
                  <path class="cls-10" d="M718.3,230.1l-1.3,1c-.3.2-.6.4-.9.4h-.3c-.1,0-.3.1-.3.3h0c0,.2.1.4.3.4l3.8-.2s.9-.2.2-1.9h-1.5s0,0,0,0h0Z"/>
                  <path class="cls-10" d="M725,229.6s-.3,1.3-.4,2c0,.1,0,.3.1.4s.2.1.4.1c.3,0,.6-.1.8-.1.1,0,.2,0,.3-.2,0,0,.1-.1.1-.2.3-.3.2-.6,0-1.1-.1-.5-.2-1-.2-1-.6-.5-1.2,0-1.2,0h0Z"/>
                  <path class="cls-9" d="M728.9,195.4s1.3,3.2,1.6,6.6c.2,3.4-.8,8-.7,9.2.1,1.3.2,8.7-.3,10.7-.5,2-.8,4.6-.8,4.6h-4.9l-.4-13,.6-7.8h-.5c0,0-1.9,9.5-1.9,9.5,0,0,.6,5.8.2,8-.4,2.1-.6,3.1-.6,3.1,0,0-4.2.6-4.2,0s-.9-12.1-.9-12.1l1.5-13.1.7-1.3,10.7-4.4h0Z"/>
                  <line class="cls-6" x1="722.8" y1="203.8" x2="722.9" y2="200.8"/>
                  <path class="cls-17" d="M723.1,182.7c-.6,0-1.6.4-2.4.9-2.1,1.1-2.5,2.7-4.7,7.8-.2.4-1.1,4.8-1,5.2.7,1.9,2.1,2.1,3.2.8,2.2-2.4,3.4-10.7,3.4-10.7l1.5-4.1h0Z"/>
                  <path class="cls-17" d="M727.8,195.8c-.1,1.5,1.5,2.6,2.9,1.9,1.1-.6,1.9-1.8,1.8-4.1-.3-5-1-8.6-2.9-9.6-1.9-1-2.3,3.5-1.8,4.7.3.8.1,4.6,0,7.2h0Z"/>
                  <path class="cls-17" d="M723.1,182.7l1.8-.2h.9c0,0,3.5,1.4,3.5,1.4,1.2.6,1.7,2,1.2,3.3l-.4,5.1c.9,3.1-.9,2.2-.4,6.2-5.1,1.7-11.3,4.6-12.8,2.2.4-6.3,3.5-14,6-18h0,0Z"/>
                  <path class="cls-42" d="M731.3,186.2s-3.8.9-5.4.2-4.4-3.2-4.4-3.2c.8-.3,1.6-.6,2.3-.6h2.2l3.4,1.2s1.4.4,2,2.4h0,0Z"/>
                  <path class="cls-13" d="M726.8,186.6c.2-1,.7-3,1.2-3.3l1.1.4c-.2.5-.7,2-.9,2.9-.5,0-.9,0-1.4,0h0Z"/>
                  <path class="cls-21" d="M722.3,178.4s-1.4,1.8.4,3.6,2.1.6,3,0c1-.6,1.3-1.9.8-2.9-.2-.4-.6-.8-.9-1-.9-.5-2.6.3-3.2.2h0Z"/>
                  <path class="cls-19" d="M723.6,180.4s.1,1.5.2,2.7c0,.3.2.6.5.7s.6.1.9,0c0,0,.2-.1.3-.2.4-.3.5-.7.5-1.1-.2-1.1-.6-3.2-.6-3.2l-1.8,1.2h0Z"/>
                  <polygon class="cls-16" points="723.7 181.9 723.7 182.6 724.6 181.8 723.7 181.9"/>
                  <path class="cls-19" d="M713.3,194.3s1.3,1.8.3,2.3c-1,.6-1.9-1.1-1.7-1.7s1.5-.7,1.5-.7h0Z"/>
                  <g>
                    <path class="cls-26" d="M717.1,196.6l-1.4,3-4-6.1,1.2-3.4c0-.1.2-.1.3,0l3.8,6.5h0Z"/>
                    <path class="cls-40" d="M714.4,189.6l1.8,3-2.3.8s-1.6,0-1.6,0,2.2-3.7,2.2-3.7h0Z"/>
                    <path class="cls-39" d="M719.9,192.4l-.5-.8c-1.6,0-3.3.4-5.1,1.1-1.8.7-2.1.8-2.1.8l.6.2,7.1-1.3h0s0,0,0,0Z"/>
                    <path class="cls-39" d="M714.2,191c.2-.6.3-1.2.2-1.4l-1.1.4-1.4,3.5h.5s.2-.1.2-.1c.7-.6,1.3-1.4,1.6-2.4h0Z"/>
                    <path class="cls-27" d="M712.2,193.4h-.2c-.1,0-.2.2-.1.3l4.3,6.8c0,.1.2.2.3.2h.5c.2.2.4,0,.3-.3l-4.2-6.7c-.1-.3-.4-.4-.7-.4h0Z"/>
                    <path class="cls-26" d="M722.6,199.5l-5.5,1.2-4.4-7.1,6.5-1.2c.5,0,.9.1,1.1.5l2.9,5.2c.3.6,0,1.3-.7,1.4h0Z"/>
                  </g>
                  <path class="cls-42" d="M728.2,194.9h-5.8c0,.1-.6,1.8,1.8,1.9,1.3,0,2.9.1,4.2.1s1.3-.7,1-1.4h0c-.2-.4-.6-.6-1.1-.6h0Z"/>
                  <path class="cls-19" d="M723.5,196.5s-1.9,1.1-2.3,0c-.4-1.1,1.2-1.8,1.8-1.6s.5,1.5.5,1.5h0Z"/>
                  <path class="cls-19" d="M725.4,178.7c0-.4-.5-.7-.9-.6-.5.1-1,.2-1.5.3-.4,0-.6.5-.6.9,0,.5.3,1.5.6,2.2.2.4.6.7,1,.6.5-.1,1.7-.8,1.7-1.6,0-.6-.1-1.2-.3-1.8h0Z"/>
                  <path class="cls-21" d="M726.7,179.5s-.4-1.6-1.2-2c-1.1-.5-2.4-.5-3.2,1,0,0,.7,2.5,4.4,1h0Z"/>
                  <path class="cls-19" d="M726.2,180.3c0,.4-.3.6-.6.6s-.5-.4-.4-.7c0-.4.3-.6.6-.6s.5.4.4.7h0Z"/>
                  <path class="cls-13" d="M723.3,181.3l.8-.3s.2.5-.2.6-.6-.4-.6-.4h0s0,0,0,0Z"/>
                  <circle class="cls-41" cx="726.4" cy="178" r=".9"/>
                  <path class="cls-5" d="M728.3,193.9c0-.2.1-2.5,0-3.2,0-.7,0-2.6.1-2.9"/>
                  <line class="cls-5" x1="719.3" y1="191.1" x2="720.3" y2="188.4"/>
                  <path class="cls-10" d="M725.9,182.2c-.1.3-1.9.8-2.2.2v.6s.8.7,2.3-.1v-.7h-.1s0,0,0,0h0Z"/>
                  <g>
                    <path class="cls-3" d="M723.5,179.8s.7-.2,1.3-.2"/>
                    <path class="cls-3" d="M723.5,179.9s.1.8.7.7c.9-.2.6-.9.6-.9"/>
                    <path class="cls-3" d="M722.1,180.3s.5-.3,1-.3"/>
                    <path class="cls-3" d="M723.2,179.9s.3.8-.2,1c-.6.3-.8-.6-.8-.6"/>
                    <path class="cls-29" d="M723.6,180s-.2,0-.4.1v-.2s0,0,.3,0v.2h0s0,0,0,0h0Z"/>
                  </g>
                  <rect class="cls-26" x="683.3" y="184.8" width="18.7" height="13.3" rx="4.9" ry="4.9"/>
                  <path class="cls-29" d="M689.5,192.6v-3.4c0-.7.7-1.2,1.4-1l5.7,2c.6.2.6,1,0,1.2l-5.7,2c-.7.2-1.4-.3-1.4-1h0s0,0,0,0Z"/>
                  <g>
                    <path class="cls-39" d="M702.2,205.1h-8.9c-2.8-.1-5-2.4-5-5.2h0c0-2.8,2.3-5,5.1-5h8.9c2.8.1,5,2.4,5,5.2h0c0,2.8-2.3,5-5.1,5Z"/>
                    <polygon class="cls-39" points="699.5 204.9 705.3 209.3 704.7 203.3 699.5 204.9"/>
                    <path class="cls-46" d="M693.2,200.6h0c-.5,0-.9-.5-.8-1h0c0-.5.5-.9,1-.8h0c.5,0,.9.5.8,1h0c0,.5-.5.9-1,.8Z"/>
                    <path class="cls-46" d="M697.8,200.7h0c-.5,0-.9-.5-.8-1h0c0-.5.5-.9,1-.8h0c.5,0,.9.5.8,1h0c0,.5-.5.9-1,.8Z"/>
                    <path class="cls-46" d="M702.3,200.7h0c-.5,0-.9-.5-.8-1h0c0-.5.5-.9,1-.8h0c.5,0,.9.5.8,1h0c0,.5-.5.9-1,.8Z"/>
                  </g>
                  <g>
                    <g>
                      <rect class="cls-34" x="704.8" y="150" width="18.5" height="23.3"/>
                      <rect class="cls-42" x="706.3" y="152.2" width="3" height="1"/>
                      <rect class="cls-42" x="706.3" y="155.8" width="3" height="1"/>
                      <rect class="cls-42" x="717.7" y="155.8" width="1.7" height="1"/>
                      <rect class="cls-42" x="709.9" y="155.8" width="1.7" height="1"/>
                      <rect class="cls-42" x="720.3" y="155.8" width="1.5" height="1"/>
                      <rect class="cls-42" x="719.6" y="163.1" width="2.2" height="1"/>
                      <rect class="cls-42" x="706.3" y="159.4" width="4.2" height="1"/>
                      <rect class="cls-42" x="706.3" y="163.1" width="3" height="1"/>
                      <rect class="cls-42" x="706.3" y="166.7" width="1.9" height="1"/>
                      <rect class="cls-42" x="712.2" y="166.7" width="4.5" height="1"/>
                      <rect class="cls-42" x="706.3" y="169.7" width="11.2" height="1"/>
                      <rect class="cls-42" x="718.9" y="152.2" width="3" height="1"/>
                      <rect class="cls-42" x="719.1" y="159.4" width="2.8" height="1"/>
                      <rect class="cls-42" x="720.7" y="166.7" width="1.2" height="1"/>
                      <rect class="cls-42" x="718.9" y="169.7" width="3" height="1"/>
                      <rect class="cls-42" x="710.8" y="152.2" width="6.2" height="1"/>
                      <path class="cls-25" d="M712.3,163.5l-1.1,3.8h-2.4l4.1-13.4h3l4.2,13.4h-2.5l-1.2-3.8h-4.1,0ZM716,161.6l-1-3.3c-.3-.8-.5-1.7-.7-2.5h0c-.2.8-.4,1.7-.6,2.5l-1,3.3h3.3,0Z"/>
                    </g>
                    <rect class="cls-39" x="692" y="153.9" width="18.5" height="23.3"/>
                    <polygon class="cls-25" points="705.3 158.9 696.2 158.9 696.2 158 704.8 158 705.3 158.9"/>
                    <path class="cls-25" d="M697.2,158.2s1.7,5.8,8.1,6l.4-1.2s-4.5.7-7.6-5.1l-.9.2h0s0,0,0,0h0Z"/>
                    <path class="cls-25" d="M705.9,158s-1.8,6-8.2,6.2l-.4-1.2s4.5.7,7.6-5.1h1.1,0Z"/>
                    <rect class="cls-25" x="700.8" y="164.6" width="1.1" height="6.5"/>
                    <rect class="cls-25" x="698.6" y="165.9" width="5.5" height="1.1"/>
                    <rect class="cls-25" x="698.6" y="168.6" width="5.5" height="1.1"/>
                    <rect class="cls-36" x="693.5" y="156" width="3" height="1"/>
                    <rect class="cls-36" x="693.5" y="159.7" width="3" height="1"/>
                    <rect class="cls-36" x="705.8" y="159.7" width=".8" height="1"/>
                    <rect class="cls-36" x="707.5" y="159.7" width="1.5" height="1"/>
                    <rect class="cls-36" x="705.2" y="166.9" width="1.5" height="1"/>
                    <rect class="cls-36" x="703.7" y="170.6" width="1.5" height="1"/>
                    <rect class="cls-36" x="707.5" y="166.9" width="1.5" height="1"/>
                    <rect class="cls-36" x="693.5" y="163.3" width="1.3" height="1"/>
                    <rect class="cls-36" x="695.5" y="163.3" width=".9" height="1"/>
                    <rect class="cls-36" x="693.5" y="166.9" width="3" height="1"/>
                    <rect class="cls-36" x="693.5" y="170.6" width="5.1" height="1"/>
                    <rect class="cls-36" x="693.5" y="173.6" width="11.2" height="1"/>
                    <rect class="cls-36" x="706" y="156" width="3" height="1"/>
                    <rect class="cls-36" x="706.2" y="163.3" width="2.8" height="1"/>
                    <rect class="cls-36" x="706" y="170.6" width="3" height="1"/>
                    <rect class="cls-36" x="706" y="173.6" width="3" height="1"/>
                    <rect class="cls-36" x="697.9" y="156" width="6.2" height="1"/>
                    <path class="cls-25" d="M702.6,148.2h-2.7c-.6,0-1.1.5-1.1,1.1h0v2.1c0,.3.2.5.5.5h.2c.3,0,.5-.2.5-.5v-1.5c0-.3.3-.6.5-.6h2.1v-1.1h0s0,0,0,0Z"/>
                    <path class="cls-25" d="M702,147.1c.5.4,1.4,1.2,1.7,1.5,0,0,0,.2,0,.3l-1.7,1.4c-.1,0-.3,0-.3-.1v-.7s0-.1,0-.1l.5-.3s0,0,0-.1h0c0-.1-.1-.3-.3-.1l-.2.2c-.1.1-.3,0-.3-.1v-1.5c0-.1.1-.2.3-.1h0Z"/>
                    <path class="cls-25" d="M713.4,178h2.7c.6,0,1.1-.5,1.1-1.1h0v-2.1c0-.3-.2-.5-.5-.5h-.2c-.3,0-.5.2-.5.5v1.5c0,.3-.3.6-.6.6h-2v1.1h0s0,0,0,0Z"/>
                    <path class="cls-25" d="M714,179.1c-.5-.4-1.4-1.2-1.7-1.5,0,0,0-.2,0-.3l1.7-1.4c.1,0,.3,0,.3.1v.7c0,0,0,.1,0,.1l-.5.3s0,0,0,.1h0c0,.1.1.3.3.1l.2-.2c.1-.1.3,0,.3.1v1.5c0,.1-.1.2-.3.1h0Z"/>
                  </g>
                  <g>
                    <g>
                      <path class="cls-43" d="M648.8,185h29.8c1.3,0,2.3,1,2.3,2.3v40.4c0,1.5-1.2,2.7-2.7,2.7h-29.4v-45.4h0Z"/>
                      <path class="cls-35" d="M643.6,185h5.1v45.4h-4.8c-.8,0-1.5-.7-1.5-1.5v-42.8c0-.6.5-1.1,1.1-1.1h0Z"/>
                      <g>
                        <path class="cls-29" d="M659.9,215.8h2l3.1,9.5h-1.8l-.7-2.6h-3.2l-.7,2.6h-1.7l3.1-9.5h0ZM659.6,221.4h2.4l-.3-1.2c-.3-1-.6-2.1-.9-3.1h0c-.3,1.1-.5,2.1-.8,3.1l-.3,1.2h0,0Z"/>
                        <path class="cls-29" d="M665.9,223.3c0-1.5,1.3-2.3,4.2-2.6,0-.8-.3-1.4-1.3-1.4s-1.4.3-2,.7l-.6-1.1c.8-.5,1.8-.9,2.9-.9,1.8,0,2.7,1.1,2.7,3.1v4.2h-1.4v-.8h-.2c-.6.5-1.4,1-2.2,1-1.2,0-2.1-.8-2.1-2.1h0s0,0,0,0h0ZM670.1,223.3v-1.6c-1.9.3-2.6.8-2.6,1.5s.4.9,1,.9,1-.3,1.6-.8h0Z"/>
                      </g>
                      <polygon class="cls-32" points="673 206.7 673 206.7 673 193.7 673 193.7 673 193.6 673 193.5 673 192 672.1 192 671.5 192 671.5 192 666.1 192 665.8 192 665.6 192 664.2 192 663.8 192 658.1 192 658.1 192 657.5 192 656.6 192 656.6 193.1 656.6 193.1 656.6 193.7 656.6 193.7 656.6 199.1 656.6 199.1 656.6 201.2 656.6 201.2 656.6 206.7 656.6 206.7 656.6 207.3 656.6 208.4 657.5 208.4 657.5 208.4 658.1 208.4 658.1 208.4 658.1 208.4 663.8 208.4 664.2 208.4 665.6 208.4 665.8 208.4 666.1 208.4 671.5 208.4 671.5 208.4 671.5 208.4 672.1 208.4 672.1 208.4 673 208.4 673 206.9 673 206.8 673 206.7"/>
                      <g>
                        <rect class="cls-37" x="658.7" y="193.9" width="12.5" height="12.5"/>
                        <rect class="cls-42" x="664.2" y="193.9" width="1.6" height="12.5"/>
                        <rect class="cls-42" x="658.7" y="199.4" width="12.5" height="1.6"/>
                        <polygon class="cls-42" points="659.9 206.4 658.7 206.4 658.7 205.3 670.1 193.9 671.2 193.9 671.2 195.1 659.9 206.4"/>
                        <polygon class="cls-42" points="670.1 206.4 671.2 206.4 671.2 205.3 659.9 193.9 658.7 193.9 658.7 195.1 670.1 206.4"/>
                        <rect class="cls-32" x="664.2" y="201" width=".3" height="5.4"/>
                        <rect class="cls-32" x="665.6" y="200.8" width=".3" height="5.7"/>
                        <rect class="cls-32" x="664.2" y="193.9" width=".3" height="5.7"/>
                        <rect class="cls-32" x="665.6" y="193.9" width=".3" height="5.7"/>
                        <polygon class="cls-32" points="658.7 205.6 658.7 205.1 662.9 201 663.4 201 658.7 205.6"/>
                        <polygon class="cls-32" points="659.8 206.4 659.3 206.4 664.2 201.7 664.4 202 659.8 206.4"/>
                        <polygon class="cls-32" points="671.2 205.6 671.2 205.1 667 201 666.5 201 671.2 205.6"/>
                        <polygon class="cls-32" points="670.1 206.4 670.6 206.4 665.7 201.7 665.6 202.1 670.1 206.4"/>
                        <polygon class="cls-32" points="671.2 194.8 671.2 195.3 667 199.4 666.5 199.4 671.2 194.8"/>
                        <polygon class="cls-32" points="670.1 193.9 670.6 193.9 665.7 198.7 665.8 198.2 670.1 193.9"/>
                        <polygon class="cls-32" points="658.7 194.8 658.7 195.3 662.9 199.4 663.4 199.4 658.7 194.8"/>
                        <polygon class="cls-32" points="659.8 193.9 659.3 193.9 664.2 198.7 664.3 198.3 659.8 193.9"/>
                        <rect class="cls-32" x="658.8" y="199.3" width="5.7" height=".3"/>
                        <rect class="cls-32" x="665.6" y="199.3" width="5.6" height=".3"/>
                        <rect class="cls-32" x="658.8" y="200.8" width="5.7" height=".3"/>
                        <rect class="cls-32" x="665.6" y="200.8" width="5.6" height=".3"/>
                      </g>
                    </g>
                    <line class="cls-1" x1="650.7" y1="186.9" x2="650.7" y2="229.7"/>
                  </g>
                  <path class="cls-2" d="M688.2,184.8h9.2s3.4.1,4.4,3.4"/>
                  <line class="cls-2" x1="693.4" y1="194.9" x2="701.3" y2="194.9"/>
                  <line class="cls-2" x1="673" y1="192" x2="673" y2="207.7"/>
                </g>
              </g>
            </g>
          </g>
          <g id="g-root-tx__v7cfjghjfr4b-fill">
            <g id="tx__v7cfjghjfr4b-fill">
              <g class="cls-31">
                <g class="cls-31">
                  <path class="cls-48" d="M651.9,237.6l1.9.3c-.3,1.3-.6,2.5-1,3.7-.4,1.2-.8,2.3-1.4,3.3-.5,1-1.1,1.9-1.7,2.7-.1-.1-.3-.3-.5-.4-.2-.2-.4-.3-.6-.5-.2-.1-.4-.3-.5-.3.6-.7,1.1-1.5,1.6-2.4.5-.9.9-1.9,1.2-3,.4-1.1.6-2.2.9-3.4ZM656.1,240.6h.7c0,0,1.4.3,1.4.3-.3,2.7-.9,5-1.7,7-.8,2-1.7,3.7-2.8,5-1.1,1.3-2.4,2.4-3.9,3.2,0-.2-.2-.3-.4-.5-.2-.2-.4-.4-.6-.6-.2-.2-.4-.3-.5-.4,1.4-.7,2.7-1.7,3.8-2.9,1.1-1.2,2-2.7,2.7-4.4.7-1.7,1.2-3.8,1.5-6.2v-.5ZM650.1,245.2l1.3-1.2c.5.4,1,.8,1.5,1.3.5.5,1,1,1.5,1.5.5.5.9.9,1.1,1.3l-1.3,1.3c-.3-.4-.6-.8-1.1-1.3-.5-.5-.9-1-1.5-1.5-.5-.5-1-1-1.5-1.4ZM651.9,240.6h4.9v1.8h-4.9v-1.8ZM659.5,237.6h2v18.6h-2v-18.6ZM660.7,244.8l1.5-1.1c.5.5,1.1,1,1.7,1.5.6.5,1.2,1.1,1.7,1.6s1,1,1.3,1.4l-1.6,1.3c-.3-.4-.7-.9-1.3-1.5s-1.1-1.1-1.7-1.7c-.6-.6-1.1-1.1-1.7-1.6Z"/>
                  <path class="cls-48" d="M668.3,241h7.5v1.5h-7.5v-1.5ZM669.1,249.1h1.6v6.9h-1.6v-6.9ZM669.1,243.7h6v1.5h-6v-1.5ZM669.1,246.4h6v1.5h-6v-1.5ZM669.9,249.1h5.3v6h-5.3v-1.6h3.7v-2.9h-3.7v-1.5ZM670.5,238.3l1.5-.7c.3.4.6.9.9,1.4.3.5.5.9.6,1.3l-1.5.8c-.1-.4-.3-.8-.6-1.3-.3-.5-.6-1-.8-1.4ZM675.5,246h11.3v1.6h-11.3v-1.6ZM676.1,238.4h10.3v1.6h-10.3v-1.6ZM676.5,241.8h8.5v4.9h-1.8v-3.3h-6.7v-1.6ZM676.6,248.8h9v7.3h-1.8v-5.7h-5.4v5.7h-1.8v-7.4ZM677.5,253.7h7.3v1.6h-7.3v-1.6ZM679.3,239.1l1.8.2c-.1.8-.3,1.7-.4,2.6-.2.9-.3,1.8-.5,2.7-.2.9-.3,1.6-.5,2.2h-1.9c.1-.5.2-1,.4-1.7.1-.6.3-1.3.4-2,.1-.7.2-1.4.4-2,.1-.7.2-1.3.3-1.9Z"/>
                  <path class="cls-48" d="M688.5,250.8h18v1.5h-18v-1.5ZM688.9,244.8h17.3v3.9h-1.9v-2.5h-13.6v2.5h-1.8v-3.9ZM694,237.8l.8,1.1c-.6.2-1.3.4-2,.6-.8.2-1.5.3-2,.4l-.7-1.1c.4,0,.8-.2,1.3-.3.5-.1,1-.2,1.4-.4s.9-.3,1.2-.4ZM690.1,238.8l1.8.5.4,6.2h-1.8l-.4-6.7ZM691,240.5h3.7v1.2h-3.7v-1.2ZM691.1,242.6h3.7v1.2h-3.7v-1.2ZM692.3,247.3h9.2v1.4h-9.2v-1.4ZM696.8,250.1h1.9v4.2c0,.5,0,.8-.2,1-.1.2-.4.4-.7.6-.4.1-.8.2-1.4.2-.5,0-1.2,0-2,0,0-.2-.1-.5-.2-.8-.1-.3-.2-.6-.4-.8.4,0,.8,0,1.1,0,.4,0,.7,0,.9,0h.5c.2,0,.3,0,.3,0,0,0,0-.1,0-.3v-4.2ZM698.4,241.1l1.3.4c-.5.7-1.1,1.3-1.8,1.8-.7.6-1.4,1.1-2.2,1.5,0-.1-.2-.3-.5-.5-.2-.2-.4-.4-.5-.5.7-.3,1.4-.7,2.1-1.2.7-.5,1.2-1,1.6-1.5ZM698.4,237.8l1.3.4c-.4.6-1,1.2-1.7,1.7s-1.4,1-2,1.4c-.1-.1-.3-.3-.5-.5s-.4-.3-.6-.4c.7-.3,1.4-.7,2-1.2.6-.4,1.1-.9,1.5-1.4ZM695.2,242.1l.9-.8c.5.2.9.5,1.4.7.5.3.9.6,1.4.9.4.3.8.6,1.1.8l-1,.9c-.3-.3-.6-.5-1-.8-.4-.3-.9-.6-1.4-.9-.5-.3-.9-.6-1.4-.8ZM695.3,238.8l.9-.8c.4.2.9.4,1.3.7.5.3.9.5,1.3.8s.8.5,1,.8l-.9.9c-.3-.2-.6-.5-1-.8s-.8-.6-1.3-.8c-.5-.3-.9-.5-1.4-.7ZM701,247.3h.9c0,0,1.1.9,1.1.9-.5.4-1,.7-1.6,1.1s-1.2.7-1.8,1c-.6.3-1.2.6-1.8.8-.1-.2-.2-.3-.4-.5s-.3-.3-.5-.5c.5-.2,1-.4,1.6-.7s1-.6,1.5-.9.8-.6,1.1-.8v-.3ZM700.2,238.3h3.8v1.2h-3.8v-1.2ZM700.3,242.6h3.5v1.2h-3.5v-1.2ZM700.4,240.5h3.5v1.2h-3.5v-1.2ZM703.3,238.3h1.8c0,.8,0,1.6-.1,2.5s-.1,1.7-.2,2.6c0,.8-.1,1.5-.2,2.1h-1.8c0-.6.2-1.4.2-2.2,0-.8.1-1.7.2-2.6,0-.9,0-1.7.1-2.5Z"/>
                  <path class="cls-48" d="M709.2,238.5h1.9v17.7h-1.9v-17.7ZM710.1,241.5h5.3v1.4h-5.3v-1.4ZM710.3,238.5h6.3v7.5h-6.3v-1.5h4.5v-4.4h-4.5v-1.6ZM725,238.5v1.6h-4.9v4.4h4.9v1.6h-6.7v-7.6h6.7ZM719.4,241.5h5.4v1.4h-5.4v-1.4ZM724,238.5h1.9v15.3c0,.6,0,1-.2,1.4-.1.3-.4.5-.8.7s-.9.3-1.5.3c-.6,0-1.4,0-2.4,0,0-.2,0-.4-.1-.6,0-.2-.2-.5-.2-.7,0-.2-.2-.5-.3-.6.4,0,.9,0,1.3,0s.8,0,1.2,0h.7c.2,0,.3,0,.4-.1s.1-.2.1-.4v-15.2Z"/>
                </g>
              </g>
            </g>
          </g>
        </g>
      </g>
      <g id="b11">
        <g id="g-root-ro_1d0i1n61cwcv0n-fill">
          <g id="ro_1d0i1n61cwcv0n-fill">
            <path class="cls-20" d="M379.4,48h166.2s11.9,0,11.9,12v30s0,12-11.9,12h-166.2s-11.9,0-11.9-12v-30s0-12,11.9-12"/>
          </g>
        </g>
        <g id="g-root-tx__hx51oy1cwctmt-fill">
          <g id="tx__hx51oy1cwctmt-fill">
            <g class="cls-31">
              <g class="cls-31">
                <path class="cls-29" d="M385.9,66.1l1.9.3c-.3,1.3-.6,2.5-1,3.7-.4,1.2-.8,2.3-1.4,3.3-.5,1-1.1,1.9-1.7,2.7-.1-.1-.3-.3-.5-.4-.2-.2-.4-.3-.6-.5-.2-.1-.4-.3-.5-.3.6-.7,1.1-1.5,1.6-2.4.5-.9.9-1.9,1.2-3,.4-1.1.6-2.2.9-3.4ZM390.1,69.1h.7c0,0,1.4.3,1.4.3-.3,2.7-.9,5-1.7,7-.8,2-1.7,3.7-2.8,5-1.1,1.3-2.4,2.4-3.9,3.2,0-.2-.2-.3-.4-.5-.2-.2-.4-.4-.6-.6-.2-.2-.4-.3-.5-.4,1.4-.7,2.7-1.7,3.8-2.9,1.1-1.2,2-2.7,2.7-4.4.7-1.7,1.2-3.8,1.5-6.2v-.5ZM384.1,73.7l1.3-1.2c.5.4,1,.8,1.5,1.3.5.5,1,1,1.5,1.5.5.5.9.9,1.1,1.3l-1.3,1.3c-.3-.4-.6-.8-1.1-1.3-.5-.5-.9-1-1.5-1.5-.5-.5-1-1-1.5-1.4ZM385.9,69.1h4.9v1.8h-4.9v-1.8ZM393.5,66.1h2v18.6h-2v-18.6ZM394.7,73.3l1.5-1.1c.5.5,1.1,1,1.7,1.5.6.5,1.2,1.1,1.7,1.6s1,1,1.3,1.4l-1.6,1.3c-.3-.4-.7-.9-1.3-1.5s-1.1-1.1-1.7-1.7c-.6-.6-1.1-1.1-1.7-1.6Z"/>
                <path class="cls-29" d="M403,67h16.9v17.7h-1.9v-16h-13.2v16h-1.8v-17.7ZM404.2,82.1h14.9v1.7h-14.9v-1.7ZM405.6,79c.8-.1,1.7-.2,2.7-.4s2.1-.3,3.2-.5v1.3c-1,.2-2,.3-2.9.5-1,.2-1.9.3-2.7.5l-.2-1.4ZM405.8,71.1h11.5v1.4h-11.5v-1.4ZM406.4,73.6h4.5v3.8h-4.5v-3.8ZM407.7,74.6v1.7h1.9v-1.7h-1.9ZM415.1,73.2l1.5.3c-.5,1.8-1.2,3.4-2.2,4.8-1,1.4-2.1,2.5-3.5,3.4,0-.1-.2-.2-.3-.4-.1-.1-.3-.3-.4-.4-.1-.1-.3-.3-.4-.3,1.3-.8,2.4-1.8,3.3-3,.9-1.2,1.5-2.7,2-4.3ZM411.5,69.1h1.6c0,1.3.1,2.6.3,3.9.1,1.2.3,2.4.5,3.4.2,1,.5,1.8.8,2.4s.7,1,1.1,1c.1,0,.2-.1.3-.5s.2-.9.2-1.5c.1.1.2.2.4.3.1.1.3.2.4.3.2,0,.3.2.4.2-.1,1.1-.4,1.9-.8,2.4s-.9.5-1.5.3c-.7-.2-1.2-.6-1.7-1.3s-.8-1.7-1.1-2.8-.5-2.4-.6-3.8c-.2-1.4-.3-2.8-.4-4.3ZM414,69.7l.9-.9c.4.2.7.4,1.1.6s.7.5.9.7l-.9,1c-.2-.2-.5-.5-.9-.7-.4-.3-.8-.5-1.1-.7Z"/>
                <path class="cls-29" d="M422.3,69.5h7.5v1.5h-7.5v-1.5ZM423.1,77.6h1.6v6.9h-1.6v-6.9ZM423.1,72.2h6v1.5h-6v-1.5ZM423.1,74.9h6v1.5h-6v-1.5ZM423.9,77.6h5.3v6h-5.3v-1.6h3.7v-2.9h-3.7v-1.5ZM424.5,66.8l1.5-.7c.3.4.6.9.9,1.4.3.5.5.9.6,1.3l-1.5.8c-.1-.4-.3-.8-.6-1.3-.3-.5-.6-1-.8-1.4ZM429.5,74.5h11.3v1.6h-11.3v-1.6ZM430.1,66.9h10.3v1.6h-10.3v-1.6ZM430.5,70.3h8.5v4.9h-1.8v-3.3h-6.7v-1.6ZM430.6,77.3h9v7.3h-1.8v-5.7h-5.4v5.7h-1.8v-7.4ZM431.5,82.2h7.3v1.6h-7.3v-1.6ZM433.3,67.6l1.8.2c-.1.8-.3,1.7-.4,2.6-.2.9-.3,1.8-.5,2.7-.2.9-.3,1.6-.5,2.2h-1.9c.1-.5.2-1,.4-1.7.1-.6.3-1.3.4-2,.1-.7.2-1.4.4-2,.1-.7.2-1.3.3-1.9Z"/>
                <path class="cls-29" d="M455.7,70.4l2,.5c-.8,2.4-1.9,4.5-3.2,6.3-1.3,1.8-2.9,3.2-4.7,4.4-1.8,1.2-4,2.2-6.4,2.9,0-.1-.2-.3-.3-.6s-.3-.5-.4-.7-.3-.4-.4-.5c2.4-.6,4.5-1.5,6.2-2.6,1.8-1.1,3.2-2.4,4.5-4s2.2-3.5,2.9-5.8ZM442.5,69.6h18.2v1.8h-18.2v-1.8ZM447.2,70.6c.7,2,1.7,3.8,3,5.5,1.3,1.6,2.8,3,4.6,4.2,1.8,1.1,3.9,2,6.2,2.6-.1.1-.3.3-.4.5-.2.2-.3.4-.5.6-.1.2-.3.4-.4.6-2.4-.7-4.5-1.6-6.4-2.9-1.8-1.2-3.4-2.8-4.7-4.5-1.3-1.8-2.4-3.8-3.2-6.1l1.7-.5ZM449.9,66.5l2-.6c.3.5.6,1,.9,1.6.3.6.5,1.1.6,1.5l-2.1.7c-.1-.4-.3-.9-.6-1.5-.3-.6-.5-1.1-.8-1.6Z"/>
                <path class="cls-29" d="M462.5,79.3h18v1.5h-18v-1.5ZM462.9,73.3h17.3v3.9h-1.9v-2.5h-13.6v2.5h-1.8v-3.9ZM468,66.3l.8,1.1c-.6.2-1.3.4-2,.6-.8.2-1.5.3-2,.4l-.7-1.1c.4,0,.8-.2,1.3-.3.5-.1,1-.2,1.4-.4s.9-.3,1.2-.4ZM464.1,67.3l1.8.5.4,6.2h-1.8l-.4-6.7ZM465,69h3.7v1.2h-3.7v-1.2ZM465.1,71.1h3.7v1.2h-3.7v-1.2ZM466.3,75.8h9.2v1.4h-9.2v-1.4ZM470.8,78.6h1.9v4.2c0,.5,0,.8-.2,1-.1.2-.4.4-.7.6-.4.1-.8.2-1.4.2-.5,0-1.2,0-2,0,0-.2-.1-.5-.2-.8-.1-.3-.2-.6-.4-.8.4,0,.8,0,1.1,0,.4,0,.7,0,.9,0h.5c.2,0,.3,0,.3,0,0,0,0-.1,0-.3v-4.2ZM472.4,69.6l1.3.4c-.5.7-1.1,1.3-1.8,1.8-.7.6-1.4,1.1-2.2,1.5,0-.1-.2-.3-.5-.5-.2-.2-.4-.4-.5-.5.7-.3,1.4-.7,2.1-1.2.7-.5,1.2-1,1.6-1.5ZM472.4,66.3l1.3.4c-.4.6-1,1.2-1.7,1.7s-1.4,1-2,1.4c-.1-.1-.3-.3-.5-.5s-.4-.3-.6-.4c.7-.3,1.4-.7,2-1.2.6-.4,1.1-.9,1.5-1.4ZM469.2,70.6l.9-.8c.5.2.9.5,1.4.7.5.3.9.6,1.4.9.4.3.8.6,1.1.8l-1,.9c-.3-.3-.6-.5-1-.8-.4-.3-.9-.6-1.4-.9-.5-.3-.9-.6-1.4-.8ZM469.3,67.3l.9-.8c.4.2.9.4,1.3.7.5.3.9.5,1.3.8s.8.5,1,.8l-.9.9c-.3-.2-.6-.5-1-.8s-.8-.6-1.3-.8c-.5-.3-.9-.5-1.4-.7ZM475,75.8h.9c0,0,1.1.9,1.1.9-.5.4-1,.7-1.6,1.1s-1.2.7-1.8,1c-.6.3-1.2.6-1.8.8-.1-.2-.2-.3-.4-.5s-.3-.3-.5-.5c.5-.2,1-.4,1.6-.7s1-.6,1.5-.9.8-.6,1.1-.8v-.3ZM474.2,66.8h3.8v1.2h-3.8v-1.2ZM474.3,71.1h3.5v1.2h-3.5v-1.2ZM474.4,69h3.5v1.2h-3.5v-1.2ZM477.3,66.8h1.8c0,.8,0,1.6-.1,2.5s-.1,1.7-.2,2.6c0,.8-.1,1.5-.2,2.1h-1.8c0-.6.2-1.4.2-2.2,0-.8.1-1.7.2-2.6,0-.9,0-1.7.1-2.5Z"/>
                <path class="cls-29" d="M484.5,72.5l1.2.4c-.3.7-.6,1.3-1.1,2s-.9,1.2-1.4,1.6c-.1-.2-.3-.4-.5-.7-.2-.2-.4-.4-.6-.6.3-.2.6-.4,1-.7.3-.3.6-.6.9-1,.3-.4.5-.7.7-1ZM485.9,76.1h1.6v2.1c0,.5,0,1.1-.1,1.7s-.3,1.2-.6,1.7-.7,1.1-1.3,1.6c-.6.5-1.4,1-2.4,1.4,0-.1-.2-.3-.3-.5-.1-.2-.2-.3-.4-.5s-.3-.3-.4-.4c.9-.3,1.5-.7,2-1.1s.9-.8,1.1-1.3c.3-.4.4-.9.5-1.3,0-.5.1-.9.1-1.3v-2ZM482.4,70.5h8.7v1.5h-8.7v-1.5ZM482.4,77.8h8.8v1.6h-8.8v-1.6ZM482.8,67.3l1.3-.5c.2.4.5.8.7,1.2.2.4.4.8.4,1.2l-1.4.6c0-.3-.2-.7-.4-1.2s-.4-.9-.7-1.3ZM486,66.2h1.7v9.4h-1.7v-9.4ZM486,81.1l1-1.2c.4.2.9.5,1.3.8.5.3.9.6,1.4.9.4.3.8.6,1.1.8l-1,1.3c-.3-.2-.6-.5-1-.8-.4-.3-.9-.6-1.4-1-.5-.3-.9-.6-1.3-.9ZM488.7,72.6c.1,0,.3.2.6.4.3.2.5.4.8.6.3.2.5.4.8.6.2.2.4.3.5.4l-1,1.2c-.1-.2-.3-.4-.5-.6-.2-.2-.5-.5-.7-.7-.3-.3-.5-.5-.7-.7-.2-.2-.4-.4-.6-.5l1-.7ZM488.2,76.5l1.1-.7c.3.2.5.5.8.8.3.3.5.6.6.8l-1.1.8c-.1-.2-.3-.5-.6-.8-.3-.3-.5-.6-.8-.8ZM489.3,66.9l1.6.4c-.2.5-.5.9-.7,1.4s-.5.8-.7,1.2l-1.2-.4c.2-.4.4-.8.6-1.3.2-.5.4-.9.5-1.3ZM494,81.1l1.6,1c-.3.3-.7.7-1.1,1-.4.3-.9.7-1.3,1s-.9.5-1.4.8c-.1-.2-.3-.4-.6-.6-.2-.2-.5-.4-.6-.6.4-.2.9-.4,1.3-.7.4-.3.8-.6,1.2-.9.4-.3.7-.6.9-.9ZM491.3,67h9.4v1.6h-9.4v-1.6ZM492,70.3h8v10.5h-8v-10.5ZM493.7,71.7v1.6h4.5v-1.6h-4.5ZM493.7,74.7v1.6h4.5v-1.6h-4.5ZM493.7,77.7v1.7h4.5v-1.7h-4.5ZM494.9,67.9l2.1.3c-.2.6-.4,1.2-.6,1.8-.2.6-.4,1.1-.6,1.5l-1.6-.3c0-.3.2-.6.3-1s.2-.8.3-1.1c0-.4.1-.7.2-1ZM496.3,82l1.4-.9c.4.2.8.5,1.2.8s.8.6,1.2.9c.4.3.7.6,1,.8l-1.5,1c-.2-.2-.5-.5-.9-.8-.4-.3-.8-.6-1.2-1-.4-.3-.8-.6-1.2-.9Z"/>
              </g>
            </g>
          </g>
        </g>
        <g id="_圖層_1-2" data-name="_圖層_1">
          <g id="_圖層_1-2-3" data-name="_圖層_1-2">
            <g id="_圖層_1-2-4" data-name="_圖層_1-2">
              <g class="cls-31">
                <g id="_圖層_1-2-2">
                  <g>
                    <g>
                      <circle class="cls-35" cx="528.3" cy="75.5" r="12.6"/>
                      <path class="cls-43" d="M538.6,68.2c-.6,0-6.3-.9-7.3,2.1-1.1,3.2-3.7,2.6-2.8,5.9.9,3.3,3.5,5.2,6.6,4.8,3.6-.5-3.3,4.9-.6,5.5,6.1-3.3,8.6-11.7,4.1-18.3h0Z"/>
                      <path class="cls-43" d="M521.4,65s5.5-.3,5.7,1.7c.2,2-1.2,1.7-3,2.8-1.8,1.2-2.6.2-3.7,2-1,1.8-4.4.9-4.4.9,0,0,.7-4.4,5.3-7.4h0s0,0,0,0h0Z"/>
                      <path class="cls-43" d="M515.9,77.9s4.1-.9,5.5,2c1.5,2.9,2.6,1.7,3.6,3,.3.4.2.8,0,1.3-.7,1.9-3,2.6-4.6,1.5-1.7-1.1-3.6-3.4-4.6-7.7h0Z"/>
                      <path class="cls-30" d="M539.1,81.9c-3.5,6-11.2,8.1-17.2,4.5,13.3-.9,17.1-13.1,12.6-21.8,6,3.5,8.1,11.2,4.6,17.3h0s0,0,0,0Z"/>
                    </g>
                    <path class="cls-27" d="M521.6,69.6l2,2v-8.5c0-1.2-.9-2.1-2.1-2.1h-7.1c-1.2,0-2.1.9-2.1,2.1v4.4c0,1.2.9,2.1,2.1,2.1h7.2s0,0,0,0Z"/>
                    <g>
                      <path class="cls-29" d="M516.7,65.5h-.3c-.9,0-1.7-.8-1.7-1.7s.8-1.7,1.7-1.7h1c.2,0,.3.2.3.3s-.2.3-.3.3h-1c-.6,0-1,.5-1,1s.5,1,1,1h.3c.2,0,.3.2.3.3s-.2.3-.3.3h0Z"/>
                      <path class="cls-29" d="M517.4,68.2h-1c-.9,0-1.7-.8-1.7-1.7s.8-1.7,1.7-1.7h.3c.2,0,.3.2.3.3s-.2.3-.3.3h-.3c-.6,0-1,.5-1,1s.5,1,1,1h1c.2,0,.3.2.3.3s-.2.3-.3.3Z"/>
                      <path class="cls-29" d="M520.5,68.2c-.2,0-.3-.2-.3-.3v-1.7c0-.4-.3-.7-.7-.7h-.6v2.4c0,.2-.2.3-.3.3s-.3-.2-.3-.3v-2.7c0-.2.2-.3.3-.3h.9c.8,0,1.4.6,1.4,1.4v1.7c0,.2-.2.3-.3.3Z"/>
                    </g>
                    <path class="cls-27" d="M535,81.5l-2-2v8.5c0,1.2.9,2.1,2.1,2.1h7.1c1.2,0,2.1-.9,2.1-2.1v-4.4c0-1.2-.9-2.1-2.1-2.1h-7.2s0,0,0,0h0Z"/>
                    <g>
                      <path class="cls-29" d="M536.5,88.2h-1.2c-.2,0-.3-.2-.3-.3v-4.6c0-.2.2-.3.3-.3h1.2c1.5,0,2.6,1.2,2.6,2.6s-1.2,2.6-2.6,2.6ZM535.6,87.5h.9c1.1,0,2-.9,2-2s-.9-2-2-2h-.9v3.9Z"/>
                      <path class="cls-29" d="M541,88.1c-.6,0-1.2-.3-1.5-.8-.3-.5-.3-1.2.2-1.6.4-.5,1.2-.6,1.8-.5.5.1.8.5.8.9h0c0,.4-.1.6-.4.8,0,0,0,0,0,0-.2,0-.4,0-1,0s-.3-.2-.3-.3.2-.3.3-.3c.4,0,.6,0,.7,0,0,0,0,0,0,0,0,0-.2-.2-.3-.3-.3,0-.8,0-1,.2h0c-.2.3-.3.6,0,.9.2.3.6.6,1.3.4.2,0,.4,0,.4.3s0,.4-.3.4c-.2,0-.3,0-.5,0h0s0,0,0,0Z"/>
                    </g>
                    <polygon class="cls-26" points="521.6 69.6 523.6 69.6 523.6 71.5 521.6 69.6"/>
                    <polygon class="cls-26" points="535 81.5 532.9 81.5 532.9 79.5 535 81.5"/>
                    <path class="cls-33" d="M523.6,69.6h-6.6s0,0,0,0,0,0,0,0h6.6s0,0,0,0,0,0,0,0Z"/>
                    <path class="cls-33" d="M539.4,81.5h-6.5s0,0,0,0,0,0,0,0h6.5s0,0,0,0,0,0,0,0Z"/>
                  </g>
                </g>
              </g>
            </g>
          </g>
        </g>
      </g>
    </g>
  </g>
</svg>