<?xml version="1.0" encoding="UTF-8"?>
<svg xmlns="http://www.w3.org/2000/svg" version="1.1" viewBox="0 0 1130 261">
  <defs>
    <style>
      .cls-1 {
        fill: #3b9579;
      }

      .cls-2 {
        stroke: #524133;
        stroke-width: 1.1px;
      }

      .cls-2, .cls-3, .cls-4, .cls-5, .cls-6, .cls-7, .cls-8, .cls-9, .cls-10 {
        stroke-linejoin: round;
      }

      .cls-2, .cls-3, .cls-4, .cls-5, .cls-6, .cls-7, .cls-8, .cls-10 {
        stroke-linecap: round;
      }

      .cls-2, .cls-3, .cls-4, .cls-5, .cls-7, .cls-8, .cls-9, .cls-10 {
        fill: none;
      }

      .cls-11 {
        fill: #d6cdc4;
      }

      .cls-12 {
        fill: #fff;
      }

      .cls-3 {
        stroke-width: 1.7px;
      }

      .cls-3, .cls-8 {
        stroke: #fff;
      }

      .cls-4 {
        stroke-width: 1.2px;
      }

      .cls-4, .cls-5, .cls-13 {
        stroke: #bfad99;
      }

      .cls-14 {
        fill: #edb07e;
      }

      .cls-5 {
        stroke-width: 1.3px;
      }

      .cls-15 {
        fill: #ede0d5;
      }

      .cls-6 {
        fill: #fcf0f0;
        stroke: #fd6a65;
      }

      .cls-6, .cls-7, .cls-9, .cls-10 {
        stroke-width: 2px;
      }

      .cls-16 {
        fill: #e8dcd0;
      }

      .cls-17 {
        fill: #e0d1c3;
      }

      .cls-18, .cls-19, .cls-20 {
        isolation: isolate;
      }

      .cls-19, .cls-20 {
        fill: #2b6e59;
        mix-blend-mode: multiply;
        opacity: .4;
      }

      .cls-7 {
        stroke: #736f6a;
      }

      .cls-21 {
        fill: #96674f;
      }

      .cls-13 {
        stroke-miterlimit: 10;
      }

      .cls-13, .cls-22 {
        fill: #bfad99;
      }

      .cls-8 {
        stroke-width: 1.5px;
      }

      .cls-23 {
        fill: #524133;
      }

      .cls-24, .cls-25 {
        fill: #e69b5c;
      }

      .cls-24, .cls-26, .cls-20, .cls-27 {
        fill-rule: evenodd;
      }

      .cls-28 {
        fill: #d9cabd;
      }

      .cls-9, .cls-10 {
        stroke: #484848;
      }

      .cls-26 {
        fill: #ba5de5;
      }

      .cls-29, .cls-30 {
        fill: #484848;
      }

      .cls-27 {
        fill: #3cc583;
      }

      .cls-31 {
        fill: #d6573e;
      }

      .cls-32 {
        fill: #fcefe3;
      }

      .cls-33 {
        fill: #fd6a65;
      }

      .cls-10 {
        stroke-dasharray: 5 7;
      }

      .cls-30 {
        opacity: 0;
      }
    </style>
  </defs>
  <!-- Generator: Adobe Illustrator 28.7.9, SVG Export Plug-In . SVG Version: 1.2.0 Build 218)  -->
  <g>
    <g id="_x34__x5F_本國語文及文學">
      <g id="g-root-cu_58ztrlzhoga-stroke">
        <g id="cu_58ztrlzhoga-stroke">
          <path class="cls-9" d="M468.5,123.1h-3.2c-11.5,0-20.8-9.3-20.8-20.8v-.2s0-14.2,0-14.2c0-11.5-9.3-20.8-20.8-20.8h-3.2"/>
        </g>
      </g>
      <g id="g-root-cu_4l2hy7lzhnnz-stroke">
        <g id="cu_4l2hy7lzhnnz-stroke">
          <path class="cls-9" d="M660.5,123.1h6.2c15.4,0,27.8-12.5,27.8-27.8v-16c0-6.7,5.3-12.1,12-12.2h1.9"/>
        </g>
      </g>
      <g>
        <g id="g-root-cu_1ur60rjlzhlvs-stroke">
          <g id="cu_1ur60rjlzhlvs-stroke">
            <path class="cls-10" d="M391.5,104.6v24h-18"/>
          </g>
        </g>
        <g id="g-root-cu_1qbcin3lzhmo3-stroke">
          <g id="cu_1qbcin3lzhmo3-stroke">
            <path class="cls-10" d="M391.5,104.6v48c0,6.6-5.4,12-12,12h-6"/>
          </g>
        </g>
      </g>
      <g id="g-root-cu_58ztrlzhogd-stroke">
        <g id="cu_58ztrlzhogd-stroke">
          <path class="cls-10" d="M737.5,104.6v12c0,6.6,5.4,12,12,12h6"/>
        </g>
      </g>
      <g id="c49">
        <g id="tx__v7d1lrlzc0lm-fill">
          <g class="cls-18">
            <g class="cls-18">
              <path class="cls-29" d="M268.5,165.3h17.9v1.2h-17.9v-1.2ZM268.7,155.4h8.4v1.2h-8.4v-1.2ZM269,158.7h16.9v1.2h-16.9v-1.2ZM269,162h6.7v1.2h-6.7v-1.2ZM269.5,168.3h15.9v1.2h-15.9v-1.2ZM272,160.5h1.3v4.3h-1.3v-4.3ZM273.3,153.9h1.3v4.3h-1.3v-4.3ZM276.7,159.2h1.3v13.1h-1.3v-13.1ZM277.8,155.4h8.4v1.2h-8.4v-1.2ZM279.2,161.9h6.7v1.2h-6.7v-1.2ZM280.2,153.9h1.3v4.3h-1.3v-4.3ZM281.8,160.5h1.3v4.3h-1.3v-4.3Z"/>
              <path class="cls-29" d="M288.4,157.3h7.3v1.1h-7.3v-1.1ZM289.2,159.9h5.8v1.1h-5.8v-1.1ZM289.2,162.5h5.8v1.1h-5.8v-1.1ZM289.2,165.2h1.2v6.8h-1.2v-6.8ZM289.8,165.2h5.3v5.8h-5.3v-1.1h4.1v-3.5h-4.1v-1.1ZM290.7,154.3l1-.5c.3.4.6.8.9,1.3.3.5.5.9.7,1.2l-1.1.6c-.2-.4-.4-.8-.7-1.3-.3-.5-.6-1-.8-1.4ZM295.5,162.4h11.2v1.1h-11.2v-1.1ZM296,154.7h10.2v1.2h-10.2v-1.2ZM296.5,158.1h8.3v4.8h-1.3v-3.6h-7v-1.2ZM296.7,165h8.8v7.1h-1.3v-5.9h-6.2v6h-1.3v-7.2ZM297.3,170.1h7.5v1.2h-7.5v-1.2ZM299.6,155.2h1.3c-.1.9-.3,1.8-.5,2.7-.2.9-.3,1.8-.5,2.7-.2.9-.3,1.6-.5,2.2h-1.3c.1-.5.3-1,.4-1.7.1-.6.3-1.3.4-2,.1-.7.2-1.4.4-2.1s.2-1.3.3-1.9Z"/>
              <path class="cls-29" d="M322.1,158l1.4.4c-.9,2.4-2,4.5-3.3,6.3-1.3,1.8-2.9,3.2-4.7,4.5-1.8,1.2-4,2.2-6.4,3,0-.1-.1-.2-.2-.4,0-.2-.2-.3-.3-.5-.1-.2-.2-.3-.3-.4,2.4-.7,4.5-1.6,6.3-2.8,1.8-1.1,3.3-2.5,4.6-4.2,1.3-1.7,2.3-3.6,3-5.9ZM308.5,157.4h18v1.3h-18v-1.3ZM312.8,158.1c.8,2.1,1.8,4,3.1,5.7,1.3,1.7,2.9,3.2,4.7,4.4,1.8,1.2,3.9,2.1,6.2,2.7,0,0-.2.2-.3.4-.1.1-.2.3-.3.5s-.2.3-.3.4c-2.4-.7-4.5-1.6-6.3-2.9s-3.4-2.8-4.7-4.6c-1.3-1.8-2.4-3.8-3.3-6.1l1.2-.4ZM316,154.2l1.4-.4c.3.5.6,1,.9,1.6s.5,1.1.7,1.5l-1.5.5c-.1-.4-.3-.9-.6-1.5-.3-.6-.6-1.1-.9-1.6Z"/>
              <path class="cls-29" d="M328.6,167.1h17.9v1.2h-17.9v-1.2ZM329,161h17v3.6h-1.3v-2.5h-14.4v2.5h-1.3v-3.6ZM334.1,154.1l.6.8c-.6.2-1.2.4-2,.6s-1.4.3-2,.3l-.5-.8c.4,0,.8-.2,1.3-.3.5-.1.9-.2,1.4-.4s.8-.2,1.2-.3ZM330.2,155l1.3.4.4,6.2h-1.3l-.4-6.6ZM331,156.8h3.6v1h-3.6v-1ZM331.1,158.9h3.6v1h-3.6v-1ZM332.2,163.5h9.6v1h-9.6v-1ZM337,166.2h1.3v4.6c0,.4,0,.6-.2.8,0,.2-.3.3-.6.4-.3,0-.7.1-1.2.2-.5,0-1.2,0-2,0,0-.2,0-.3-.2-.6,0-.2-.2-.4-.3-.6.4,0,.8,0,1.2,0,.4,0,.7,0,1,0s.5,0,.6,0c.2,0,.3,0,.3,0,0,0,0-.1,0-.3v-4.5ZM338.5,157.4l1,.3c-.5.6-1.1,1.2-1.8,1.8-.7.6-1.4,1.1-2.2,1.5,0,0-.2-.2-.4-.4s-.3-.3-.4-.4c.7-.3,1.4-.7,2.1-1.2.7-.5,1.2-1,1.6-1.6ZM338.5,154.1l1,.3c-.5.6-1,1.2-1.7,1.8s-1.4,1-2,1.4c0,0-.2-.2-.4-.4-.2-.1-.3-.3-.4-.3.7-.3,1.3-.8,2-1.2.7-.5,1.2-1,1.6-1.5ZM335.2,158.3l.7-.6c.5.2.9.5,1.4.7s1,.6,1.4.9.8.6,1.1.8l-.7.7c-.3-.3-.6-.6-1-.9-.4-.3-.9-.6-1.4-.9-.5-.3-1-.6-1.4-.8ZM335.3,155l.7-.6c.5.2.9.4,1.4.7.5.3.9.5,1.4.8.4.3.8.5,1,.8l-.7.7c-.3-.2-.6-.5-1-.8-.4-.3-.9-.6-1.3-.8-.5-.3-.9-.5-1.4-.7ZM341.5,163.5h.6c0,0,.8.6.8.6-.5.4-1,.7-1.6,1-.6.3-1.2.6-1.8.9-.6.3-1.2.5-1.8.8,0-.1-.2-.2-.3-.4-.1-.1-.3-.2-.3-.3.5-.2,1.1-.4,1.6-.7s1.1-.5,1.6-.8.9-.6,1.2-.8v-.3ZM340.2,158.9h3.6v1h-3.6v-1ZM340.3,154.6h3.9v1h-3.9v-1ZM340.4,156.8h3.6v1h-3.6v-1ZM343.6,154.6h1.3c0,.8,0,1.6-.1,2.4,0,.9-.1,1.7-.2,2.5,0,.8-.1,1.5-.2,2.1h-1.3c0-.6.2-1.3.2-2.1,0-.8.1-1.6.2-2.5,0-.9,0-1.6.1-2.4Z"/>
              <path class="cls-29" d="M353.4,166.6l1.3.5c-.4.5-.8,1-1.3,1.6s-1,1-1.6,1.5-1.1.9-1.6,1.2c0,0-.2-.2-.3-.3-.1-.1-.3-.2-.4-.3s-.3-.2-.4-.3c.8-.5,1.6-1.1,2.4-1.8.8-.7,1.4-1.4,2-2.1ZM361.8,153.9l1,1.1c-.8.4-1.7.7-2.8,1.1-1,.3-2.1.7-3.3,1-1.2.3-2.3.6-3.5.8-1.2.3-2.4.5-3.5.7,0-.2,0-.4-.2-.6,0-.2-.2-.4-.2-.5,1.1-.2,2.3-.5,3.4-.7,1.2-.3,2.3-.5,3.4-.8s2.2-.6,3.1-.9c1-.3,1.8-.7,2.5-1ZM350,166.3c0-.1,0-.2,0-.4s0-.3-.2-.5c0-.2-.1-.3-.1-.4.3,0,.7-.1,1.1-.3.5-.2,1-.4,1.6-.7.3-.1.8-.4,1.5-.7.7-.3,1.4-.7,2.3-1.2s1.7-1,2.6-1.6c.9-.6,1.8-1.2,2.6-1.8l1,.9c-1.9,1.3-3.8,2.5-5.7,3.5-1.9,1-3.8,1.9-5.7,2.6h0c-.2.1-.4.2-.5.2-.1,0-.2.1-.3.2-.1,0-.2.1-.2.2ZM350,166.3v-1s.9-.5.9-.5l13.1-.9c0,.2,0,.4,0,.6v.6c-2,.1-3.8.3-5.2.4s-2.7.2-3.7.3-1.8.1-2.4.2-1.1.1-1.5.2-.6,0-.8.1c-.2,0-.3,0-.5.1ZM351.2,162.1c0,0,0-.2,0-.4,0-.2,0-.3-.2-.5,0-.2,0-.3-.1-.4.2,0,.5,0,.7-.2.3-.1.6-.2.9-.4.2-.1.6-.3,1.1-.7.5-.3,1.1-.7,1.8-1.2.6-.4,1.2-.9,1.8-1.4l1.2.8c-1,.8-2,1.5-3.1,2.1-1.1.6-2.1,1.2-3.1,1.6h0c-.2.1-.3.2-.5.2-.1,0-.2.1-.3.2,0,0-.1.1-.1.2ZM351.2,162.1v-1s.8-.4.8-.4l7.5-.4c0,.2,0,.3,0,.6,0,.2,0,.4,0,.5-1.4,0-2.5.2-3.5.2-.9,0-1.7.1-2.3.2s-1,0-1.4.1c-.3,0-.6,0-.7,0-.2,0-.3,0-.4.1ZM357,164.8h1.4v5.7c0,.4,0,.7-.2.9-.1.2-.3.4-.6.5s-.7.2-1.2.2-1.1,0-1.9,0c0-.2-.1-.4-.2-.7,0-.3-.2-.5-.3-.7.4,0,.8,0,1.2,0,.4,0,.7,0,.9,0s.4,0,.5,0c.2,0,.3,0,.3,0,0,0,0-.1,0-.2v-5.7ZM360.3,167.1l1-.7c.5.4,1.1.9,1.7,1.3.6.5,1.1,1,1.7,1.4.5.5,1,.9,1.3,1.3l-1.1.8c-.3-.4-.7-.8-1.2-1.3-.5-.5-1.1-1-1.6-1.5s-1.1-1-1.7-1.4ZM360.8,161.9l1.1-.5c.5.5,1,.9,1.5,1.5.5.5,1,1.1,1.5,1.6s.8,1,1.1,1.4l-1.1.7c-.3-.4-.6-.9-1.1-1.4s-.9-1.1-1.5-1.6c-.5-.5-1-1.1-1.5-1.5Z"/>
            </g>
          </g>
        </g>
        <rect class="cls-30" x="268" y="153" width="99" height="19"/>
      </g>
      <g id="c48">
        <g id="tx__14301unlzbzsx-fill">
          <g class="cls-18">
            <g class="cls-18">
              <path class="cls-29" d="M249.4,121.5h16v9.3h-1.4v-8h-13.3v8.1h-1.3v-9.4ZM250.2,128.3h14.8v1.3h-14.8v-1.3ZM256.7,117.9h1.4v18.3h-1.4v-18.3Z"/>
              <path class="cls-29" d="M269.2,118.8h16.6v17.5h-1.3v-16.2h-14v16.2h-1.3v-17.5ZM269.9,134.1h15.3v1.2h-15.3v-1.2ZM271.4,131.1c.8-.1,1.7-.3,2.8-.5s2.2-.4,3.3-.6v1c-1,.2-2.1.4-3.1.6-1,.2-2,.4-2.8.6l-.2-1ZM271.6,122.8h11.8v1h-11.8v-1ZM272.3,125.2h4.5v3.9h-4.5v-3.9ZM273.3,126v2.2h2.5v-2.2h-2.5ZM281.4,124.8l1.1.2c-.5,1.9-1.3,3.6-2.2,5-1,1.4-2.2,2.6-3.6,3.5,0,0-.1-.2-.2-.3,0-.1-.2-.2-.3-.3-.1-.1-.2-.2-.3-.3,1.4-.8,2.5-1.9,3.5-3.2s1.6-2.8,2-4.6ZM277.6,120.6h1.2c0,1.5.2,2.8.3,4.2.2,1.3.4,2.5.6,3.6s.6,1.9,1,2.6.8,1,1.3,1.1c.1,0,.3-.2.4-.5s.2-.9.2-1.6c0,0,.2.1.3.2.1,0,.2.2.3.2s.2.1.3.1c-.1,1.1-.4,1.8-.7,2.2-.3.4-.7.5-1.2.4-.7-.1-1.3-.6-1.8-1.3s-.9-1.7-1.2-2.8c-.3-1.2-.5-2.5-.7-3.9-.2-1.4-.3-2.9-.4-4.5ZM280,121l.6-.7c.4.2.8.4,1.2.6s.8.5,1,.8l-.7.7c-.2-.2-.5-.5-1-.8s-.8-.5-1.2-.7Z"/>
              <path class="cls-29" d="M288.4,121.3h7.3v1.1h-7.3v-1.1ZM289.2,123.9h5.8v1.1h-5.8v-1.1ZM289.2,126.5h5.8v1.1h-5.8v-1.1ZM289.2,129.2h1.2v6.8h-1.2v-6.8ZM289.8,129.2h5.3v5.8h-5.3v-1.1h4.1v-3.5h-4.1v-1.1ZM290.7,118.3l1-.5c.3.4.6.8.9,1.3.3.5.5.9.7,1.2l-1.1.6c-.2-.4-.4-.8-.7-1.3-.3-.5-.6-1-.8-1.4ZM295.5,126.4h11.2v1.1h-11.2v-1.1ZM296,118.7h10.2v1.2h-10.2v-1.2ZM296.5,122.1h8.3v4.8h-1.3v-3.6h-7v-1.2ZM296.7,129h8.8v7.1h-1.3v-5.9h-6.2v6h-1.3v-7.2ZM297.3,134.1h7.5v1.2h-7.5v-1.2ZM299.6,119.2h1.3c-.1.9-.3,1.8-.5,2.7-.2.9-.3,1.8-.5,2.7-.2.9-.3,1.6-.5,2.2h-1.3c.1-.5.3-1,.4-1.7.1-.6.3-1.3.4-2,.1-.7.2-1.4.4-2.1s.2-1.3.3-1.9Z"/>
              <path class="cls-29" d="M322.1,122l1.4.4c-.9,2.4-2,4.5-3.3,6.3-1.3,1.8-2.9,3.2-4.7,4.5-1.8,1.2-4,2.2-6.4,3,0-.1-.1-.2-.2-.4,0-.2-.2-.3-.3-.5-.1-.2-.2-.3-.3-.4,2.4-.7,4.5-1.6,6.3-2.8,1.8-1.1,3.3-2.5,4.6-4.2,1.3-1.7,2.3-3.6,3-5.9ZM308.5,121.4h18v1.3h-18v-1.3ZM312.8,122.1c.8,2.1,1.8,4,3.1,5.7,1.3,1.7,2.9,3.2,4.7,4.4,1.8,1.2,3.9,2.1,6.2,2.7,0,0-.2.2-.3.4-.1.1-.2.3-.3.5s-.2.3-.3.4c-2.4-.7-4.5-1.6-6.3-2.9s-3.4-2.8-4.7-4.6c-1.3-1.8-2.4-3.8-3.3-6.1l1.2-.4ZM316,118.2l1.4-.4c.3.5.6,1,.9,1.6s.5,1.1.7,1.5l-1.5.5c-.1-.4-.3-.9-.6-1.5-.3-.6-.6-1.1-.9-1.6Z"/>
              <path class="cls-29" d="M328.6,131.1h17.9v1.2h-17.9v-1.2ZM329,125h17v3.6h-1.3v-2.5h-14.4v2.5h-1.3v-3.6ZM334.1,118.1l.6.8c-.6.2-1.2.4-2,.6s-1.4.3-2,.3l-.5-.8c.4,0,.8-.2,1.3-.3.5-.1.9-.2,1.4-.4s.8-.2,1.2-.3ZM330.2,119l1.3.4.4,6.2h-1.3l-.4-6.6ZM331,120.8h3.6v1h-3.6v-1ZM331.1,122.9h3.6v1h-3.6v-1ZM332.2,127.5h9.6v1h-9.6v-1ZM337,130.2h1.3v4.6c0,.4,0,.6-.2.8,0,.2-.3.3-.6.4-.3,0-.7.1-1.2.2-.5,0-1.2,0-2,0,0-.2,0-.3-.2-.6,0-.2-.2-.4-.3-.6.4,0,.8,0,1.2,0,.4,0,.7,0,1,0s.5,0,.6,0c.2,0,.3,0,.3,0,0,0,0-.1,0-.3v-4.5ZM338.5,121.4l1,.3c-.5.6-1.1,1.2-1.8,1.8-.7.6-1.4,1.1-2.2,1.5,0,0-.2-.2-.4-.4s-.3-.3-.4-.4c.7-.3,1.4-.7,2.1-1.2.7-.5,1.2-1,1.6-1.6ZM338.5,118.1l1,.3c-.5.6-1,1.2-1.7,1.8s-1.4,1-2,1.4c0,0-.2-.2-.4-.4-.2-.1-.3-.3-.4-.3.7-.3,1.3-.8,2-1.2.7-.5,1.2-1,1.6-1.5ZM335.2,122.3l.7-.6c.5.2.9.5,1.4.7s1,.6,1.4.9.8.6,1.1.8l-.7.7c-.3-.3-.6-.6-1-.9-.4-.3-.9-.6-1.4-.9-.5-.3-1-.6-1.4-.8ZM335.3,119l.7-.6c.5.2.9.4,1.4.7.5.3.9.5,1.4.8.4.3.8.5,1,.8l-.7.7c-.3-.2-.6-.5-1-.8-.4-.3-.9-.6-1.3-.8-.5-.3-.9-.5-1.4-.7ZM341.5,127.5h.6c0,0,.8.6.8.6-.5.4-1,.7-1.6,1-.6.3-1.2.6-1.8.9-.6.3-1.2.5-1.8.8,0-.1-.2-.2-.3-.4-.1-.1-.3-.2-.3-.3.5-.2,1.1-.4,1.6-.7s1.1-.5,1.6-.8.9-.6,1.2-.8v-.3ZM340.2,122.9h3.6v1h-3.6v-1ZM340.3,118.6h3.9v1h-3.9v-1ZM340.4,120.8h3.6v1h-3.6v-1ZM343.6,118.6h1.3c0,.8,0,1.6-.1,2.4,0,.9-.1,1.7-.2,2.5,0,.8-.1,1.5-.2,2.1h-1.3c0-.6.2-1.3.2-2.1,0-.8.1-1.6.2-2.5,0-.9,0-1.6.1-2.4Z"/>
              <path class="cls-29" d="M353.4,130.6l1.3.5c-.4.5-.8,1-1.3,1.6s-1,1-1.6,1.5-1.1.9-1.6,1.2c0,0-.2-.2-.3-.3-.1-.1-.3-.2-.4-.3s-.3-.2-.4-.3c.8-.5,1.6-1.1,2.4-1.8.8-.7,1.4-1.4,2-2.1ZM361.8,117.9l1,1.1c-.8.4-1.7.7-2.8,1.1-1,.3-2.1.7-3.3,1-1.2.3-2.3.6-3.5.8-1.2.3-2.4.5-3.5.7,0-.2,0-.4-.2-.6,0-.2-.2-.4-.2-.5,1.1-.2,2.3-.5,3.4-.7,1.2-.3,2.3-.5,3.4-.8s2.2-.6,3.1-.9c1-.3,1.8-.7,2.5-1ZM350,130.3c0-.1,0-.2,0-.4s0-.3-.2-.5c0-.2-.1-.3-.1-.4.3,0,.7-.1,1.1-.3.5-.2,1-.4,1.6-.7.3-.1.8-.4,1.5-.7.7-.3,1.4-.7,2.3-1.2s1.7-1,2.6-1.6c.9-.6,1.8-1.2,2.6-1.8l1,.9c-1.9,1.3-3.8,2.5-5.7,3.5-1.9,1-3.8,1.9-5.7,2.6h0c-.2.1-.4.2-.5.2-.1,0-.2.1-.3.2-.1,0-.2.1-.2.2ZM350,130.3v-1s.9-.5.9-.5l13.1-.9c0,.2,0,.4,0,.6v.6c-2,.1-3.8.3-5.2.4s-2.7.2-3.7.3-1.8.1-2.4.2-1.1.1-1.5.2-.6,0-.8.1c-.2,0-.3,0-.5.1ZM351.2,126.1c0,0,0-.2,0-.4,0-.2,0-.3-.2-.5,0-.2,0-.3-.1-.4.2,0,.5,0,.7-.2.3-.1.6-.2.9-.4.2-.1.6-.3,1.1-.7.5-.3,1.1-.7,1.8-1.2.6-.4,1.2-.9,1.8-1.4l1.2.8c-1,.8-2,1.5-3.1,2.1-1.1.6-2.1,1.2-3.1,1.6h0c-.2.1-.3.2-.5.2-.1,0-.2.1-.3.2,0,0-.1.1-.1.2ZM351.2,126.1v-1s.8-.4.8-.4l7.5-.4c0,.2,0,.3,0,.6,0,.2,0,.4,0,.5-1.4,0-2.5.2-3.5.2-.9,0-1.7.1-2.3.2s-1,0-1.4.1c-.3,0-.6,0-.7,0-.2,0-.3,0-.4.1ZM357,128.8h1.4v5.7c0,.4,0,.7-.2.9-.1.2-.3.4-.6.5s-.7.2-1.2.2-1.1,0-1.9,0c0-.2-.1-.4-.2-.7,0-.3-.2-.5-.3-.7.4,0,.8,0,1.2,0,.4,0,.7,0,.9,0s.4,0,.5,0c.2,0,.3,0,.3,0,0,0,0-.1,0-.2v-5.7ZM360.3,131.1l1-.7c.5.4,1.1.9,1.7,1.3.6.5,1.1,1,1.7,1.4.5.5,1,.9,1.3,1.3l-1.1.8c-.3-.4-.7-.8-1.2-1.3-.5-.5-1.1-1-1.6-1.5s-1.1-1-1.7-1.4ZM360.8,125.9l1.1-.5c.5.5,1,.9,1.5,1.5.5.5,1,1.1,1.5,1.6s.8,1,1.1,1.4l-1.1.7c-.3-.4-.6-.9-1.1-1.4s-.9-1.1-1.5-1.6c-.5-.5-1-1.1-1.5-1.5Z"/>
            </g>
          </g>
        </g>
        <rect class="cls-30" x="248" y="117" width="119" height="20"/>
      </g>
      <g id="c47">
        <g id="tx__18i72vzlzc26g-fill">
          <g class="cls-18">
            <g class="cls-18">
              <path class="cls-29" d="M764.7,134.7h17.6v1h-17.6v-1ZM764.8,119.1h17.5v1h-17.5v-1ZM765.1,126.8h16.7v2.8h-1.3v-1.9h-14.2v1.9h-1.2v-2.8ZM766.2,121.2h14.6v.9h-14.6v-.9ZM766.6,132.7h13.8v.9h-13.8v-.9ZM767.1,128.7h12.7v.9h-12.7v-.9ZM767.1,123h12.8v2.9h-12.8v-2.9ZM767.8,131.9c0-.1,0-.3-.1-.5,0-.2-.1-.4-.2-.5.3,0,.7-.1,1.1-.3.1,0,.4-.2.7-.3s.7-.4,1.1-.6c.4-.2.8-.5,1.2-.8l1,.4c-.7.5-1.4.9-2.1,1.2s-1.3.6-2,.8h0c-.3.1-.5.2-.6.3-.1,0-.2.2-.2.3ZM767.8,131.9v-.7l.8-.4h10s0,.1,0,.3c0,.2,0,.3,0,.4-1.9,0-3.5,0-4.8.1-1.3,0-2.3,0-3.1,0-.8,0-1.4,0-1.8,0-.4,0-.7,0-.9,0-.2,0-.3,0-.4,0ZM768.4,123.8v1.2h10.2v-1.2h-10.2ZM772.8,117.9h1.4v3.8h-1.4v-3.8ZM772.8,131.2h1.4v4h-1.4v-4ZM775.7,129.7l.8-.6c.5.2.9.5,1.4.8.5.3.9.6,1.4.9.4.3.8.6,1,.8l-.8.7c-.3-.3-.6-.6-1-.9s-.9-.6-1.3-.9c-.5-.3-.9-.6-1.4-.8Z"/>
              <path class="cls-29" d="M784.2,124.4l.8-.9c.3.2.7.4,1.1.6.4.2.7.5,1,.7.3.2.6.5.8.7l-.8,1c-.2-.2-.4-.4-.8-.7-.3-.3-.7-.5-1-.8-.4-.3-.7-.5-1.1-.6ZM784.6,135.2c.3-.5.5-1.1.8-1.8.3-.7.6-1.5.9-2.2.3-.8.6-1.6.8-2.3l1.1.7c-.2.7-.5,1.4-.7,2.2-.3.8-.6,1.5-.8,2.2-.3.7-.6,1.4-.8,2l-1.2-.7ZM784.7,119l.8-.9c.3.2.7.4,1.1.7.4.3.7.5,1,.8s.6.5.8.7l-.8,1c-.2-.2-.4-.5-.7-.8s-.6-.5-1-.8-.7-.5-1-.7ZM788.8,125.1l.8.2c-.1.5-.2,1-.4,1.5-.1.5-.3.9-.5,1.3,0,0-.2-.2-.3-.2-.1-.1-.3-.2-.4-.2.2-.4.4-.8.5-1.2.1-.4.2-.9.3-1.3ZM788.6,121.7c0,0,0-.2-.1-.3s-.1-.3-.2-.4c.1,0,.2,0,.3-.2,0,0,.2-.2.3-.4,0,0,.2-.2.3-.5s.3-.6.5-.9.3-.7.4-1l.9.3c-.2.5-.5,1.1-.9,1.6-.3.5-.6,1-1,1.3h0c-.2.1-.4.2-.5.2-.1,0-.2.1-.2.2ZM788.6,124.4c0,0,0-.2-.1-.4,0-.2-.1-.3-.2-.4.1,0,.3,0,.4-.2.1-.1.3-.3.5-.5.1-.1.3-.4.6-.7s.6-.7.9-1.2.6-.9.9-1.4l.9.4c-.5.7-1,1.4-1.5,2.1-.6.7-1.1,1.3-1.7,1.8h0c-.2.1-.4.2-.5.3s-.2.1-.2.2ZM788.6,121.7v-.7s.6-.3.6-.3l2.3-.2c0,.1,0,.3,0,.4,0,.1,0,.3,0,.4-.7,0-1.2,0-1.6.1-.4,0-.6,0-.8.1s-.3,0-.4,0ZM788.6,124.4v-.7s.5-.3.5-.3l3.2-.4c0,0,0,.2,0,.4,0,.1,0,.3,0,.4-1,.1-1.8.2-2.3.3-.5,0-.9.1-1.1.2-.2,0-.4,0-.4.1ZM790.4,130.3h1.3c-.1.5-.3,1-.4,1.5-.1.5-.3,1-.4,1.4h-1.3c.2-.4.3-.9.5-1.4.1-.5.3-1,.4-1.5ZM790.8,130.3h8.7v-1.1h-9.9v-.9h11.2v2.9h-10v-.9ZM790.1,125.2l.7-.2c.1.4.2.8.3,1.3,0,.5.1.8.1,1.1l-.8.3c0-.3,0-.7-.1-1.2,0-.5-.2-.9-.3-1.3ZM790.4,132.2h10.4v.9h-10.4v-.9ZM791.4,122.4l.7-.2c.2.3.4.6.6,1,.2.4.3.7.4,1l-.7.3c0-.3-.2-.6-.4-1-.2-.4-.4-.7-.6-1ZM791.6,124.9l.7-.2c.2.3.3.7.5,1.1.1.4.2.8.3,1.1l-.7.3c0-.3-.1-.7-.3-1.1-.1-.4-.3-.8-.4-1.2ZM792.8,119.9h4.8v.9h-4.8v-.9ZM793.4,124.5h3.8v3h-3.8v-3ZM793.4,121.5h3.7v.8h-3.7v-.8ZM793.4,123h3.7v.8h-3.7v-.8ZM794.2,118.2l1-.2c.2.2.3.5.5.8.2.3.3.6.4.8l-1,.3c0-.2-.2-.5-.4-.8s-.3-.6-.5-.9ZM794.3,125.3v1.4h1.9v-1.4h-1.9ZM800.4,132.2h1.3c0,.3,0,.5,0,.6-.2.9-.4,1.5-.6,2-.2.5-.5.8-.7,1-.2.1-.4.2-.6.3-.2,0-.5,0-.8,0-.3,0-.7,0-1.3,0-.6,0-1.2,0-1.8,0,0-.2,0-.3-.1-.5,0-.2-.2-.4-.3-.5.7,0,1.3.1,1.9.1.6,0,1,0,1.3,0s.4,0,.5,0c.1,0,.2,0,.3-.1.2-.1.4-.4.6-.8.2-.4.4-1,.5-1.8h0ZM798.1,125l.8.2c0,.5-.2,1-.4,1.5s-.3.9-.5,1.3c0,0-.2-.2-.3-.2-.2-.1-.3-.2-.4-.2.2-.4.4-.8.5-1.2.1-.4.2-.9.3-1.3ZM797.9,121.6c0,0,0-.2-.1-.4,0-.2-.1-.3-.2-.4.1,0,.2,0,.3-.2,0,0,.2-.2.3-.3,0,0,.2-.3.3-.5.2-.3.3-.6.5-.9s.3-.7.4-1l.9.3c-.2.5-.5,1.1-.8,1.6-.3.5-.6,1-1,1.3h0c-.2.1-.4.2-.5.3-.1,0-.2.1-.2.2ZM797.9,124.4c0,0,0-.2-.1-.4,0-.2-.1-.3-.2-.4.2,0,.3,0,.5-.2s.3-.3.5-.5c.1-.1.3-.4.6-.7.3-.3.6-.8.9-1.2s.6-.9.8-1.4l.9.4c-.5.7-1,1.4-1.5,2.1-.6.7-1.1,1.3-1.7,1.8h0c-.2.1-.4.2-.5.3-.1,0-.2.1-.2.2ZM797.9,121.6v-.7s.6-.3.6-.3l2.3-.2c0,.1,0,.3,0,.4,0,.2,0,.3,0,.4-.7,0-1.2.1-1.6.1-.4,0-.6,0-.8.1-.2,0-.3,0-.4.1ZM797.9,124.4v-.7s.5-.3.5-.3l3.2-.4c0,.1,0,.2,0,.4s0,.2,0,.3c-1,.1-1.8.3-2.3.3-.5,0-.9.2-1.1.2-.2,0-.4,0-.5.1ZM799.4,125.1l.7-.2c.2.4.3.9.4,1.4,0,.5.1.9.2,1.2l-.8.3c0-.4,0-.8-.1-1.3,0-.5-.2-1-.3-1.4ZM800.7,122.3l.7-.2c.2.3.5.7.7,1.1.2.4.4.7.4,1l-.7.3c0-.3-.2-.6-.4-1-.2-.4-.4-.8-.6-1.1ZM800.9,124.9l.7-.2c.2.4.4.9.6,1.3.2.5.3.9.3,1.2l-.7.3c0-.3-.2-.8-.3-1.3s-.3-1-.5-1.4Z"/>
              <path class="cls-29" d="M804.4,121.3h7.3v1.1h-7.3v-1.1ZM805.2,123.9h5.8v1.1h-5.8v-1.1ZM805.2,126.5h5.8v1.1h-5.8v-1.1ZM805.2,129.2h1.2v6.8h-1.2v-6.8ZM805.8,129.2h5.3v5.8h-5.3v-1.1h4.1v-3.5h-4.1v-1.1ZM806.7,118.3l1-.5c.3.4.6.8.9,1.3.3.5.5.9.7,1.2l-1.1.6c-.2-.4-.4-.8-.7-1.3-.3-.5-.6-1-.8-1.4ZM811.5,126.4h11.2v1.1h-11.2v-1.1ZM812,118.7h10.2v1.2h-10.2v-1.2ZM812.5,122.1h8.3v4.8h-1.3v-3.6h-7v-1.2ZM812.7,129h8.8v7.1h-1.3v-5.9h-6.2v6h-1.3v-7.2ZM813.3,134.1h7.5v1.2h-7.5v-1.2ZM815.6,119.2h1.3c-.1.9-.3,1.8-.5,2.7-.2.9-.3,1.8-.5,2.7-.2.9-.3,1.6-.5,2.2h-1.3c.1-.5.3-1,.4-1.7.1-.6.3-1.3.4-2,.1-.7.2-1.4.4-2.1s.2-1.3.3-1.9Z"/>
              <path class="cls-29" d="M838.1,122l1.4.4c-.9,2.4-2,4.5-3.3,6.3-1.3,1.8-2.9,3.2-4.7,4.5-1.8,1.2-4,2.2-6.4,3,0-.1-.1-.2-.2-.4,0-.2-.2-.3-.3-.5-.1-.2-.2-.3-.3-.4,2.4-.7,4.5-1.6,6.3-2.8,1.8-1.1,3.3-2.5,4.6-4.2,1.3-1.7,2.3-3.6,3-5.9ZM824.5,121.4h18v1.3h-18v-1.3ZM828.8,122.1c.8,2.1,1.8,4,3.1,5.7,1.3,1.7,2.9,3.2,4.7,4.4,1.8,1.2,3.9,2.1,6.2,2.7,0,0-.2.2-.3.4-.1.1-.2.3-.3.5s-.2.3-.3.4c-2.4-.7-4.5-1.6-6.3-2.9s-3.4-2.8-4.7-4.6c-1.3-1.8-2.4-3.8-3.3-6.1l1.2-.4ZM832,118.2l1.4-.4c.3.5.6,1,.9,1.6s.5,1.1.7,1.5l-1.5.5c-.1-.4-.3-.9-.6-1.5-.3-.6-.6-1.1-.9-1.6Z"/>
              <path class="cls-29" d="M844.6,131.1h17.9v1.2h-17.9v-1.2ZM845,125h17v3.6h-1.3v-2.5h-14.4v2.5h-1.3v-3.6ZM850.1,118.1l.6.8c-.6.2-1.2.4-2,.6s-1.4.3-2,.3l-.5-.8c.4,0,.8-.2,1.3-.3.5-.1.9-.2,1.4-.4s.8-.2,1.2-.3ZM846.2,119l1.3.4.4,6.2h-1.3l-.4-6.6ZM847,120.8h3.6v1h-3.6v-1ZM847.1,122.9h3.6v1h-3.6v-1ZM848.2,127.5h9.6v1h-9.6v-1ZM853,130.2h1.3v4.6c0,.4,0,.6-.2.8,0,.2-.3.3-.6.4-.3,0-.7.1-1.2.2-.5,0-1.2,0-2,0,0-.2,0-.3-.2-.6,0-.2-.2-.4-.3-.6.4,0,.8,0,1.2,0,.4,0,.7,0,1,0s.5,0,.6,0c.2,0,.3,0,.3,0,0,0,0-.1,0-.3v-4.5ZM854.5,121.4l1,.3c-.5.6-1.1,1.2-1.8,1.8-.7.6-1.4,1.1-2.2,1.5,0,0-.2-.2-.4-.4s-.3-.3-.4-.4c.7-.3,1.4-.7,2.1-1.2.7-.5,1.2-1,1.6-1.6ZM854.5,118.1l1,.3c-.5.6-1,1.2-1.7,1.8s-1.4,1-2,1.4c0,0-.2-.2-.4-.4-.2-.1-.3-.3-.4-.3.7-.3,1.3-.8,2-1.2.7-.5,1.2-1,1.6-1.5ZM851.2,122.3l.7-.6c.5.2.9.5,1.4.7s1,.6,1.4.9.8.6,1.1.8l-.7.7c-.3-.3-.6-.6-1-.9-.4-.3-.9-.6-1.4-.9-.5-.3-1-.6-1.4-.8ZM851.3,119l.7-.6c.5.2.9.4,1.4.7.5.3.9.5,1.4.8.4.3.8.5,1,.8l-.7.7c-.3-.2-.6-.5-1-.8-.4-.3-.9-.6-1.3-.8-.5-.3-.9-.5-1.4-.7ZM857.5,127.5h.6c0,0,.8.6.8.6-.5.4-1,.7-1.6,1-.6.3-1.2.6-1.8.9-.6.3-1.2.5-1.8.8,0-.1-.2-.2-.3-.4-.1-.1-.3-.2-.3-.3.5-.2,1.1-.4,1.6-.7s1.1-.5,1.6-.8.9-.6,1.2-.8v-.3ZM856.2,122.9h3.6v1h-3.6v-1ZM856.3,118.6h3.9v1h-3.9v-1ZM856.4,120.8h3.6v1h-3.6v-1ZM859.6,118.6h1.3c0,.8,0,1.6-.1,2.4,0,.9-.1,1.7-.2,2.5,0,.8-.1,1.5-.2,2.1h-1.3c0-.6.2-1.3.2-2.1,0-.8.1-1.6.2-2.5,0-.9,0-1.6.1-2.4Z"/>
              <path class="cls-29" d="M869.4,130.6l1.3.5c-.4.5-.8,1-1.3,1.6s-1,1-1.6,1.5-1.1.9-1.6,1.2c0,0-.2-.2-.3-.3-.1-.1-.3-.2-.4-.3s-.3-.2-.4-.3c.8-.5,1.6-1.1,2.4-1.8.8-.7,1.4-1.4,2-2.1ZM877.8,117.9l1,1.1c-.8.4-1.7.7-2.8,1.1-1,.3-2.1.7-3.3,1-1.2.3-2.3.6-3.5.8-1.2.3-2.4.5-3.5.7,0-.2,0-.4-.2-.6,0-.2-.2-.4-.2-.5,1.1-.2,2.3-.5,3.4-.7,1.2-.3,2.3-.5,3.4-.8s2.2-.6,3.1-.9c1-.3,1.8-.7,2.5-1ZM866,130.3c0-.1,0-.2,0-.4s0-.3-.2-.5c0-.2-.1-.3-.1-.4.3,0,.7-.1,1.1-.3.5-.2,1-.4,1.6-.7.3-.1.8-.4,1.5-.7.7-.3,1.4-.7,2.3-1.2s1.7-1,2.6-1.6c.9-.6,1.8-1.2,2.6-1.8l1,.9c-1.9,1.3-3.8,2.5-5.7,3.5-1.9,1-3.8,1.9-5.7,2.6h0c-.2.1-.4.2-.5.2-.1,0-.2.1-.3.2-.1,0-.2.1-.2.2ZM866,130.3v-1s.9-.5.9-.5l13.1-.9c0,.2,0,.4,0,.6v.6c-2,.1-3.8.3-5.2.4s-2.7.2-3.7.3-1.8.1-2.4.2-1.1.1-1.5.2-.6,0-.8.1c-.2,0-.3,0-.5.1ZM867.2,126.1c0,0,0-.2,0-.4,0-.2,0-.3-.2-.5,0-.2,0-.3-.1-.4.2,0,.5,0,.7-.2.3-.1.6-.2.9-.4.2-.1.6-.3,1.1-.7.5-.3,1.1-.7,1.8-1.2.6-.4,1.2-.9,1.8-1.4l1.2.8c-1,.8-2,1.5-3.1,2.1-1.1.6-2.1,1.2-3.1,1.6h0c-.2.1-.3.2-.5.2-.1,0-.2.1-.3.2,0,0-.1.1-.1.2ZM867.2,126.1v-1s.8-.4.8-.4l7.5-.4c0,.2,0,.3,0,.6,0,.2,0,.4,0,.5-1.4,0-2.5.2-3.5.2-.9,0-1.7.1-2.3.2s-1,0-1.4.1c-.3,0-.6,0-.7,0-.2,0-.3,0-.4.1ZM873,128.8h1.4v5.7c0,.4,0,.7-.2.9-.1.2-.3.4-.6.5s-.7.2-1.2.2-1.1,0-1.9,0c0-.2-.1-.4-.2-.7,0-.3-.2-.5-.3-.7.4,0,.8,0,1.2,0,.4,0,.7,0,.9,0s.4,0,.5,0c.2,0,.3,0,.3,0,0,0,0-.1,0-.2v-5.7ZM876.3,131.1l1-.7c.5.4,1.1.9,1.7,1.3.6.5,1.1,1,1.7,1.4.5.5,1,.9,1.3,1.3l-1.1.8c-.3-.4-.7-.8-1.2-1.3-.5-.5-1.1-1-1.6-1.5s-1.1-1-1.7-1.4ZM876.8,125.9l1.1-.5c.5.5,1,.9,1.5,1.5.5.5,1,1.1,1.5,1.6s.8,1,1.1,1.4l-1.1.7c-.3-.4-.6-.9-1.1-1.4s-.9-1.1-1.5-1.6c-.5-.5-1-1.1-1.5-1.5Z"/>
            </g>
          </g>
        </g>
        <rect class="cls-30" x="764" y="117" width="118" height="20"/>
      </g>
      <g id="b10">
        <g id="g-root-ro_hwj0bjlzhm32-fill">
          <g id="ro_hwj0bjlzhm32-fill">
            <path class="cls-26" d="M245.7,50.6h164s11.7,0,11.7,12v30s0,12-11.7,12h-164s-11.7,0-11.7-12v-30s0-12,11.7-12"/>
          </g>
        </g>
        <g id="g-root-tx__v7d1lrlzhnnw-fill">
          <g id="tx__v7d1lrlzhnnw-fill">
            <g class="cls-18">
              <g class="cls-18">
                <path class="cls-12" d="M249.3,72.3h16.3v9.7h-2v-7.8h-12.4v7.9h-1.9v-9.8ZM250.3,79h14.5v1.9h-14.5v-1.9ZM256.4,68.8h2v18.5h-2v-18.5Z"/>
                <path class="cls-12" d="M269,69.7h16.9v17.7h-1.9v-16h-13.2v16h-1.8v-17.7ZM270.2,84.8h14.9v1.7h-14.9v-1.7ZM271.5,81.7c.8-.1,1.7-.2,2.7-.4s2.1-.3,3.2-.5v1.3c-1,.2-2,.3-2.9.5-1,.2-1.9.3-2.7.5l-.2-1.4ZM271.8,73.7h11.5v1.4h-11.5v-1.4ZM272.4,76.2h4.5v3.8h-4.5v-3.8ZM273.7,77.3v1.7h1.9v-1.7h-1.9ZM281.1,75.9l1.5.3c-.5,1.8-1.2,3.4-2.2,4.8-1,1.4-2.1,2.5-3.5,3.4,0-.1-.2-.2-.3-.4-.1-.1-.3-.3-.4-.4-.1-.1-.3-.3-.4-.3,1.3-.8,2.4-1.8,3.3-3s1.5-2.7,2-4.3ZM277.4,71.8h1.6c0,1.3.1,2.6.3,3.9.1,1.2.3,2.4.5,3.4.2,1,.5,1.8.8,2.4s.7,1,1.1,1c.1,0,.2-.1.3-.5s.2-.9.2-1.5c.1.1.2.2.4.3s.3.2.5.3c.2,0,.3.2.4.2-.1,1.1-.4,1.9-.8,2.4-.4.4-.9.5-1.5.3-.7-.2-1.2-.6-1.7-1.3-.4-.7-.8-1.7-1.1-2.8s-.5-2.4-.6-3.8-.3-2.8-.3-4.3ZM280,72.3l.9-.9c.4.2.7.4,1.1.6.4.2.7.5.9.7l-.9,1c-.2-.2-.5-.5-.9-.7s-.8-.5-1.1-.7Z"/>
                <path class="cls-12" d="M288.2,72.1h7.5v1.5h-7.5v-1.5ZM289.1,80.2h1.6v6.9h-1.6v-6.9ZM289.1,74.8h6v1.5h-6v-1.5ZM289.1,77.5h6v1.5h-6v-1.5ZM289.9,80.2h5.3v6h-5.3v-1.6h3.7v-2.9h-3.7v-1.5ZM290.5,69.4l1.5-.7c.3.4.6.9.9,1.4.3.5.5.9.6,1.3l-1.5.8c-.1-.4-.3-.8-.6-1.3-.3-.5-.6-1-.8-1.4ZM295.5,77.2h11.3v1.6h-11.3v-1.6ZM296,69.6h10.3v1.6h-10.3v-1.6ZM296.5,72.9h8.5v4.9h-1.8v-3.3h-6.7v-1.6ZM296.6,80h9v7.3h-1.8v-5.7h-5.4v5.7h-1.8v-7.4ZM297.5,84.9h7.3v1.6h-7.3v-1.6ZM299.3,70.2l1.8.2c-.1.8-.3,1.7-.4,2.6-.2.9-.3,1.8-.5,2.7-.2.9-.3,1.6-.5,2.2h-1.9c.1-.5.2-1,.4-1.7s.3-1.3.4-2,.2-1.4.4-2c.1-.7.2-1.3.3-1.9Z"/>
                <path class="cls-12" d="M321.7,73.1l2,.5c-.8,2.4-1.9,4.5-3.2,6.3-1.3,1.8-2.9,3.2-4.7,4.4s-4,2.2-6.4,2.9c0-.1-.2-.3-.3-.6-.1-.2-.3-.5-.4-.7s-.3-.4-.4-.5c2.4-.6,4.5-1.5,6.2-2.6s3.2-2.4,4.5-4c1.2-1.6,2.2-3.5,2.9-5.8ZM308.4,72.2h18.2v1.8h-18.2v-1.8ZM313.2,73.2c.7,2,1.7,3.8,3,5.5,1.3,1.6,2.8,3,4.6,4.2s3.9,2,6.2,2.6c-.1.1-.3.3-.4.5-.2.2-.3.4-.5.6-.1.2-.3.4-.4.6-2.4-.7-4.5-1.6-6.4-2.9-1.8-1.2-3.4-2.8-4.7-4.5-1.3-1.8-2.3-3.8-3.2-6.1l1.7-.5ZM315.8,69.2l2-.6c.3.5.6,1,.9,1.6s.5,1.1.6,1.5l-2.1.7c-.1-.4-.3-.9-.6-1.5-.3-.6-.5-1.1-.8-1.6Z"/>
                <path class="cls-12" d="M328.5,82h18v1.5h-18v-1.5ZM328.9,75.9h17.3v3.9h-1.9v-2.5h-13.6v2.5h-1.8v-3.9ZM334,68.9l.8,1.1c-.6.2-1.3.4-2,.6-.8.2-1.5.3-2,.4l-.7-1.1c.4,0,.8-.2,1.3-.3s1-.2,1.4-.4.9-.3,1.2-.4ZM330.1,69.9l1.8.5.4,6.2h-1.8l-.4-6.7ZM331,71.6h3.7v1.2h-3.7v-1.2ZM331.1,73.8h3.7v1.2h-3.7v-1.2ZM332.3,78.5h9.2v1.4h-9.2v-1.4ZM336.8,81.2h1.9v4.2c0,.5,0,.8-.2,1-.1.2-.4.4-.7.6-.4.1-.8.2-1.3.2-.5,0-1.2,0-2,0,0-.2-.1-.5-.2-.8s-.2-.6-.4-.8c.4,0,.8,0,1.1,0,.4,0,.7,0,.9,0h.5c.2,0,.3,0,.3,0,0,0,0-.1,0-.3v-4.2ZM338.4,72.3l1.3.4c-.5.7-1.1,1.3-1.8,1.8s-1.4,1.1-2.2,1.5c0-.1-.2-.3-.5-.5-.2-.2-.4-.4-.5-.5.7-.3,1.4-.7,2.1-1.2.7-.5,1.2-1,1.6-1.5ZM338.4,68.9l1.3.4c-.4.6-1,1.2-1.7,1.7s-1.4,1-2,1.4c-.1-.1-.3-.3-.5-.5-.2-.2-.4-.3-.6-.4.7-.3,1.4-.7,2-1.2.6-.4,1.1-.9,1.5-1.4ZM335.2,73.3l.9-.8c.5.2.9.5,1.4.7.5.3.9.6,1.4.9.4.3.8.6,1.1.8l-1,.9c-.3-.3-.6-.5-1-.8s-.9-.6-1.3-.9c-.5-.3-.9-.6-1.4-.8ZM335.2,69.9l.9-.8c.4.2.9.4,1.3.7.5.3.9.5,1.3.8s.8.5,1,.8l-.9.9c-.3-.2-.6-.5-1-.8-.4-.3-.8-.6-1.3-.8-.5-.3-.9-.5-1.3-.7ZM341,78.5h.9c0,0,1.1.9,1.1.9-.5.4-1,.7-1.6,1.1s-1.2.7-1.8,1-1.2.6-1.8.8c-.1-.2-.2-.3-.4-.5-.2-.2-.3-.3-.5-.5.5-.2,1-.4,1.6-.7s1-.6,1.5-.9.8-.6,1.1-.8v-.3ZM340.2,69.5h3.8v1.2h-3.8v-1.2ZM340.2,73.8h3.5v1.2h-3.5v-1.2ZM340.3,71.6h3.5v1.2h-3.5v-1.2ZM343.2,69.5h1.8c0,.8,0,1.6-.1,2.5,0,.9-.1,1.7-.2,2.6,0,.8-.1,1.5-.2,2.1h-1.8c0-.6.2-1.4.2-2.2,0-.8.1-1.7.2-2.6,0-.9,0-1.7.1-2.5Z"/>
                <path class="cls-12" d="M350.5,75.2l1.2.4c-.3.7-.6,1.3-1.1,2s-.9,1.2-1.5,1.6c-.1-.2-.3-.4-.5-.7-.2-.2-.4-.4-.6-.6.3-.2.6-.4,1-.7s.6-.6.9-1c.3-.4.5-.7.7-1ZM351.9,78.7h1.6v2.1c0,.5,0,1.1-.1,1.7-.1.6-.3,1.2-.6,1.7s-.7,1.1-1.3,1.6c-.6.5-1.4,1-2.4,1.4,0-.1-.2-.3-.3-.5-.1-.2-.2-.3-.4-.5-.1-.2-.3-.3-.4-.4.9-.3,1.5-.7,2-1.1s.9-.8,1.1-1.3c.3-.4.4-.9.5-1.3s.1-.9.1-1.3v-2ZM348.4,73.1h8.7v1.5h-8.7v-1.5ZM348.4,80.5h8.8v1.6h-8.8v-1.6ZM348.8,70l1.3-.5c.2.4.5.8.7,1.2.2.4.4.8.4,1.2l-1.4.6c0-.3-.2-.7-.4-1.2s-.4-.9-.7-1.3ZM352,68.9h1.7v9.4h-1.7v-9.4ZM352,83.7l1-1.2c.4.2.9.5,1.3.8.5.3.9.6,1.4.9.4.3.8.6,1.1.8l-1,1.3c-.3-.2-.6-.5-1-.8s-.9-.6-1.3-1c-.5-.3-.9-.6-1.3-.9ZM354.7,75.2c.1,0,.3.2.6.4.3.2.5.4.8.6s.5.4.8.6c.2.2.4.3.5.4l-1,1.2c-.1-.2-.3-.4-.5-.6s-.5-.5-.7-.7c-.3-.3-.5-.5-.7-.7-.2-.2-.4-.4-.6-.5l1-.7ZM354.2,79.1l1.1-.7c.3.2.5.5.8.8.3.3.5.6.6.8l-1.1.8c-.1-.2-.3-.5-.6-.8-.3-.3-.5-.6-.8-.8ZM355.3,69.5l1.6.4c-.2.5-.5.9-.7,1.4s-.5.8-.7,1.2l-1.2-.4c.2-.4.4-.8.6-1.3.2-.5.4-.9.5-1.3ZM360,83.7l1.6,1c-.3.3-.7.7-1.1,1-.4.3-.9.7-1.3,1s-.9.5-1.4.8c-.1-.2-.3-.4-.6-.6-.2-.2-.5-.4-.6-.6.4-.2.9-.4,1.3-.7.4-.3.8-.6,1.2-.9.4-.3.7-.6.9-.9ZM357.2,69.6h9.4v1.6h-9.4v-1.6ZM358,72.9h8v10.5h-8v-10.5ZM359.7,74.4v1.6h4.5v-1.6h-4.5ZM359.7,77.3v1.6h4.5v-1.6h-4.5ZM359.7,80.3v1.7h4.5v-1.7h-4.5ZM360.9,70.5l2.1.3c-.2.6-.4,1.2-.6,1.8-.2.6-.4,1.1-.6,1.5l-1.6-.3c0-.3.2-.6.3-1,0-.4.2-.8.3-1.1,0-.4.1-.7.2-1ZM362.3,84.7l1.4-.9c.4.2.8.5,1.2.8s.8.6,1.2.9.7.6,1,.8l-1.5,1c-.2-.2-.5-.5-.9-.8-.4-.3-.8-.6-1.2-1-.4-.3-.8-.6-1.2-.9Z"/>
              </g>
            </g>
          </g>
        </g>
        <g id="_圖層_1">
          <g id="_圖層_1-2">
            <g id="_圖層_1-2-2" data-name="_圖層_1-2">
              <g>
                <g>
                  <path class="cls-21" d="M391.6,91.7s-.5-.2-.6-1.4h0c0-1.2.6-1.9,1.8-2.7l13.3-7.7c.5-.3.5-1,0-1.3l-14.3-8.3-14.4,8.3c-1.2.7-1.8,1.4-1.8,2.7,0,0,0,.2,0,.5.1.5.5.9.9,1.1l15.2,8.8"/>
                  <path class="cls-21" d="M392.1,91.8c-.3,0-.6,0-.8-.3-.6-.4-.8-1-.8-1.7,0-.1.1-.2.3-.2.1,0,.2.1.2.3,0,.5.1,1,.5,1.2.4.2.8.2,1.2,0l13.6-7.9-1.3-.8c-.1,0-.1-.2,0-.3s.2-.1.3,0l1.6,1.1c0,0,.1.1.1.2s0,.2-.1.2l-14,8.1c-.3.2-.6.3-.9.3h0Z"/>
                  <path class="cls-17" d="M406.3,83.2s0,0,0,0l-13.6,7.9c-.4.2-.8.2-1.2,0-.4-.2-.6-.7-.5-1.1,0-1,.7-1.7,1.8-2.3l13.3-7.7c0,0,.1,0,.2-.2,0,0-.9,1.1-.4,2.5,0,0,0,.4.5.9h0Z"/>
                  <polygon class="cls-12" points="404 79.3 391.7 72.2 389.4 73.5 401.8 80.6 404 79.3"/>
                  <path class="cls-22" d="M392.3,90.7s0,0,0,0,0,0,0,0l13.6-7.9s0,0,0,0c0,0,0,0,0,0l-13.6,7.9h0Z"/>
                  <path class="cls-22" d="M391.6,90.2s0,0,0,0,0,0,0,0l14.1-8.2s0,0,0,0c0,0,0,0,0,0l-14.1,8.2h0Z"/>
                  <path class="cls-22" d="M392,89s0,0,0,0,0,0,0,0l13.6-7.9s0,0,0,0c0,0,0,0,0,0l-13.6,7.9h0Z"/>
                </g>
                <path class="cls-17" d="M391.5,86.1s0,0,0,0h0Z"/>
                <g>
                  <path class="cls-31" d="M391.2,86.5s-.5-.2-.6-1.4h0c0-1.2.6-1.9,1.8-2.7l13.3-7.7c.5-.3.5-1,0-1.3l-14.3-8.3-14.4,8.3c-1.2.7-1.8,1.4-1.8,2.7,0,0,0,.2,0,.5.1.5.5.9.9,1.1l15.2,8.8"/>
                  <path class="cls-31" d="M391.7,86.5c-.3,0-.6,0-.8-.3-.6-.4-.8-1-.8-1.7,0-.1.1-.2.3-.2.1,0,.2.1.2.3,0,.5.1,1,.5,1.2.4.2.8.2,1.2,0l13.6-7.9-1.3-.8c-.1,0-.1-.2,0-.3s.2-.1.3,0l1.6,1.1c0,0,.1.1.1.2s0,.2-.1.2l-14,8.1c-.3.2-.6.3-.9.3h0Z"/>
                  <path class="cls-17" d="M405.9,78s0,0,0,0l-13.6,7.9c-.4.2-.8.2-1.2,0-.4-.2-.6-.7-.5-1.1,0-1,.7-1.7,1.8-2.3l13.3-7.7c0,0,.1,0,.2-.2,0,0-.9,1.1-.4,2.5,0,0,0,.4.5.9h0Z"/>
                  <path class="cls-23" d="M388.9,80.1h0l-12-6.7s0,0,0,0c0,0,0,0,0,0l12,6.7s0,0,0,0c0,0,0,0,0,0h0Z"/>
                  <polygon class="cls-12" points="403.6 74.1 391.3 66.9 389 68.3 401.4 75.3 403.6 74.1"/>
                  <path class="cls-22" d="M391.9,85.4s0,0,0,0,0,0,0,0l13.6-7.9s0,0,0,0c0,0,0,0,0,0l-13.6,7.9h0Z"/>
                  <path class="cls-22" d="M391.2,84.9s0,0,0,0,0,0,0,0l14.1-8.2s0,0,0,0c0,0,0,0,0,0l-14.1,8.2h0Z"/>
                  <path class="cls-22" d="M391.6,83.7s0,0,0,0,0,0,0,0l13.6-7.9s0,0,0,0c0,0,0,0,0,0l-13.6,7.9h0Z"/>
                </g>
                <path class="cls-25" d="M393.9,87.9v3.4l1.4-2,1.4.4v-3.2c0,0,0-.2,0-.2l-2.8,1.6Z"/>
              </g>
            </g>
          </g>
        </g>
      </g>
      <g id="b9">
        <g id="g-root-ro_1utnx3zlz998v-fill">
          <g id="ro_1utnx3zlz998v-fill">
            <path class="cls-27" d="M719.4,50.7h167.6s12,0,12,12v29.9s0,12-12,12h-167.6s-12,0-12-12v-29.9s0-12,12-12"/>
          </g>
        </g>
        <g id="g-root-tx__940di7lz97v1-fill">
          <g id="tx__940di7lz97v1-fill">
            <g class="cls-18">
              <g class="cls-18">
                <path class="cls-12" d="M764.7,69.9h17.7v1.2h-17.7v-1.2ZM764.7,85.6h17.6v1.3h-17.6v-1.3ZM765,77.6h17v2.9h-1.8v-1.7h-13.5v1.7h-1.7v-2.9ZM766.2,72h14.6v1.2h-14.6v-1.2ZM766.7,83.5h13.8v1.2h-13.8v-1.2ZM767,79.6h12.8v1.1h-12.8v-1.1ZM767,73.9h13v3h-13v-3ZM767.8,83c0-.1,0-.4-.2-.6,0-.3-.2-.5-.2-.7.3,0,.7-.1,1.1-.3.1,0,.4-.2.7-.3.3-.1.7-.3,1.1-.5.4-.2.8-.4,1.1-.7l1.3.5c-.7.4-1.3.8-2,1.1-.7.3-1.3.6-1.9.8h0c-.3.2-.6.3-.7.4-.2,0-.2.2-.2.3ZM767.8,83v-.9l.8-.4h9.8s0,.2.1.4c0,.2,0,.4.1.5-1.9,0-3.4,0-4.7,0-1.3,0-2.3,0-3,0-.8,0-1.4,0-1.8,0-.4,0-.7,0-.9,0s-.3,0-.5,0ZM768.8,74.9v.9h9.4v-.9h-9.4ZM772.5,68.7h1.9v3.9h-1.9v-3.9ZM772.5,82.2h1.9v4.1h-1.9v-4.1ZM775.5,80.8l1.1-.8c.5.2.9.5,1.4.8.5.3.9.6,1.4.9.4.3.8.6,1.1.8l-1.1.9c-.3-.3-.6-.6-1.1-.9-.4-.3-.9-.6-1.4-.9s-1-.6-1.4-.8Z"/>
                <path class="cls-12" d="M784.1,75.6l1-1.3c.3.2.7.4,1.1.6s.7.5,1.1.7.6.5.8.7l-1.1,1.4c-.2-.2-.5-.4-.8-.7-.3-.3-.7-.5-1-.8-.4-.2-.7-.5-1.1-.7ZM784.5,86.1c.3-.5.5-1.2.8-1.9.3-.7.6-1.5.9-2.2.3-.8.6-1.6.8-2.3l1.5,1c-.2.7-.5,1.4-.7,2.2s-.5,1.5-.8,2.2c-.3.7-.5,1.4-.8,2l-1.7-1ZM784.5,70.3l1.1-1.2c.3.2.7.4,1,.6.4.2.7.5,1,.7.3.2.6.5.8.7l-1.1,1.4c-.2-.2-.4-.5-.8-.7s-.6-.5-1-.8c-.4-.3-.7-.5-1.1-.7ZM788.7,76.1l1,.3c0,.5-.2,1-.3,1.5-.1.5-.3.9-.5,1.3-.1,0-.2-.2-.4-.3-.2-.1-.3-.2-.5-.3.2-.3.4-.7.5-1.1.1-.4.2-.8.3-1.3ZM788.6,72.8c0,0,0-.2-.2-.4s-.2-.3-.2-.5c.1,0,.2,0,.3-.2,0,0,.2-.2.3-.3,0,0,.2-.3.3-.5.2-.3.3-.6.5-.9s.3-.7.4-1.1l1.1.4c-.2.5-.5,1.1-.9,1.6s-.7,1-1,1.4h0c-.2.1-.4.2-.5.3s-.2.1-.2.2ZM788.7,75.5c0,0,0-.2-.2-.4s-.2-.3-.2-.5c.2,0,.3,0,.5-.2s.3-.3.5-.5c.1-.1.3-.4.6-.7.3-.3.6-.8.9-1.2s.6-.9.8-1.4l1,.5c-.4.7-.9,1.4-1.5,2.1s-1.1,1.3-1.7,1.8h0c-.3.1-.5.2-.6.3-.1,0-.2.1-.2.2ZM788.6,72.8v-.9s.7-.3.7-.3h2.3s0,.2-.1.4c0,.2,0,.3,0,.5-.7,0-1.2,0-1.6.1s-.6,0-.8.1c-.2,0-.3,0-.4.1ZM788.7,75.5v-.9c0,0,.6-.3.6-.3l3.1-.4c0,.1,0,.3,0,.5,0,.2,0,.3.1.4-1,.1-1.8.2-2.3.3s-.9.2-1.1.2c-.2,0-.4,0-.5.1ZM790.3,81.2h1.8c-.1.6-.3,1.1-.4,1.7-.2.6-.3,1.1-.4,1.5h-1.8c.2-.5.3-1,.5-1.5.2-.6.3-1.1.4-1.7ZM790.9,81.2h8.3v-.9h-9.5v-1.1h11.3v3.1h-10.1v-1.1ZM790,76.3l.9-.2c.1.4.2.8.3,1.2,0,.4.1.8.2,1.1l-.9.3c0-.3,0-.7-.1-1.1s-.2-.9-.3-1.2ZM790.6,83.2h10.1v1.2h-10.1v-1.2ZM791.4,73.4l.8-.3c.2.3.4.7.6,1.1.2.4.3.7.4,1l-.9.4c0-.3-.2-.6-.3-1-.2-.4-.4-.8-.6-1.1ZM791.6,76l.8-.3c.2.3.3.7.4,1.1.1.4.2.7.2,1l-.9.4c0-.3-.1-.6-.2-1.1-.1-.4-.3-.8-.4-1.1ZM792.9,70.8h4.8v1.1h-4.8v-1.1ZM793.4,75.6h3.8v3h-3.8v-3ZM793.5,72.4h3.8v1h-3.8v-1ZM793.5,74h3.8v.9h-3.8v-.9ZM794.2,69.2l1.3-.3c.1.2.3.5.5.8.2.3.3.6.3.8l-1.3.4c0-.2-.2-.5-.3-.8-.1-.3-.3-.6-.4-.8ZM794.6,76.5v1.1h1.4v-1.1h-1.4ZM800.1,83.2h1.8c0,.4,0,.6,0,.7-.2.8-.4,1.5-.6,2-.2.5-.4.8-.7,1-.2.2-.5.3-.7.3-.3,0-.6,0-.9.1-.3,0-.7,0-1.3,0-.6,0-1.2,0-1.8,0,0-.2,0-.5-.2-.7,0-.3-.2-.5-.3-.7.6,0,1.2.1,1.8.1s1,0,1.2,0,.4,0,.5,0c.1,0,.2,0,.3-.1.2-.1.4-.4.5-.8s.3-.9.5-1.7v-.2ZM798.1,76l1,.2c0,.5-.2,1-.3,1.5-.1.5-.3.9-.5,1.3-.1,0-.2-.2-.4-.3-.2-.1-.3-.2-.4-.3.2-.3.3-.7.4-1.1.1-.4.2-.8.3-1.2ZM798,72.8c0,0-.1-.2-.2-.4,0-.2-.2-.3-.2-.4.1,0,.2,0,.3-.2,0,0,.2-.2.3-.4,0,0,.2-.3.3-.5.2-.3.3-.6.5-.9.2-.3.3-.7.4-1.1l1.1.4c-.2.5-.5,1.1-.8,1.6s-.7,1-1,1.4h0c-.2.1-.4.2-.5.3-.1,0-.2.1-.2.2ZM798.1,75.5c0,0,0-.2-.2-.4s-.2-.3-.2-.4c.2,0,.3-.1.5-.2.1-.1.3-.3.5-.5.1-.1.3-.4.6-.7.3-.3.6-.7.9-1.2s.6-.9.8-1.4l1.1.5c-.4.7-.9,1.4-1.5,2.1-.5.7-1.1,1.3-1.7,1.8h0c-.2.1-.4.2-.6.3-.1,0-.2.1-.2.2ZM798,72.8v-.8s.6-.3.6-.3h2.3s0,.2,0,.4c0,.2,0,.3,0,.5-.7,0-1.2,0-1.6.1s-.6,0-.8.1c-.2,0-.3,0-.4.1ZM798.1,75.5v-.9c0,0,.6-.3.6-.3l3.1-.3c0,.1,0,.3,0,.5,0,.2,0,.3.1.4-1,.1-1.8.2-2.3.3-.5,0-.9.1-1.1.2-.2,0-.4,0-.5.1ZM799.4,76.3l.9-.2c.1.4.2.9.3,1.3,0,.5.1.9.1,1.2l-.9.3c0-.3,0-.7-.1-1.2,0-.5-.2-1-.3-1.4ZM800.8,73.4l.8-.3c.2.3.4.7.6,1.1.2.4.3.7.4,1l-.9.4c0-.3-.2-.6-.4-1.1s-.4-.8-.6-1.1ZM801,76l.8-.3c.2.4.4.8.5,1.3s.3.9.3,1.2l-.9.4c0-.3-.1-.8-.3-1.2-.1-.5-.3-.9-.5-1.3Z"/>
                <path class="cls-12" d="M804.2,72.1h7.5v1.5h-7.5v-1.5ZM805.1,80.2h1.6v6.9h-1.6v-6.9ZM805.1,74.8h6v1.5h-6v-1.5ZM805.1,77.5h6v1.5h-6v-1.5ZM805.9,80.2h5.3v6h-5.3v-1.6h3.7v-2.9h-3.7v-1.5ZM806.5,69.4l1.5-.7c.3.4.6.9.9,1.4.3.5.5.9.6,1.3l-1.5.8c-.1-.4-.3-.8-.6-1.3-.3-.5-.6-1-.8-1.4ZM811.5,77.2h11.3v1.6h-11.3v-1.6ZM812,69.6h10.3v1.6h-10.3v-1.6ZM812.5,72.9h8.5v4.9h-1.8v-3.3h-6.7v-1.6ZM812.6,80h9v7.3h-1.8v-5.7h-5.4v5.7h-1.8v-7.4ZM813.5,84.9h7.3v1.6h-7.3v-1.6ZM815.3,70.2l1.8.2c-.1.8-.3,1.7-.4,2.6-.2.9-.3,1.8-.5,2.7-.2.9-.3,1.6-.5,2.2h-1.9c.1-.5.2-1,.4-1.7s.3-1.3.4-2,.2-1.4.4-2c.1-.7.2-1.3.3-1.9Z"/>
                <path class="cls-12" d="M837.7,73.1l2,.5c-.8,2.4-1.9,4.5-3.2,6.3-1.3,1.8-2.9,3.2-4.7,4.4s-4,2.2-6.4,2.9c0-.1-.2-.3-.3-.6-.1-.2-.3-.5-.4-.7s-.3-.4-.4-.5c2.4-.6,4.5-1.5,6.2-2.6s3.2-2.4,4.5-4c1.2-1.6,2.2-3.5,2.9-5.8ZM824.4,72.2h18.2v1.8h-18.2v-1.8ZM829.2,73.2c.7,2,1.7,3.8,3,5.5,1.3,1.6,2.8,3,4.6,4.2s3.9,2,6.2,2.6c-.1.1-.3.3-.4.5-.2.2-.3.4-.5.6-.1.2-.3.4-.4.6-2.4-.7-4.5-1.6-6.4-2.9-1.8-1.2-3.4-2.8-4.7-4.5-1.3-1.8-2.3-3.8-3.2-6.1l1.7-.5ZM831.8,69.2l2-.6c.3.5.6,1,.9,1.6s.5,1.1.6,1.5l-2.1.7c-.1-.4-.3-.9-.6-1.5-.3-.6-.5-1.1-.8-1.6Z"/>
                <path class="cls-12" d="M844.5,82h18v1.5h-18v-1.5ZM844.9,75.9h17.3v3.9h-1.9v-2.5h-13.6v2.5h-1.8v-3.9ZM850,68.9l.8,1.1c-.6.2-1.3.4-2,.6-.8.2-1.5.3-2,.4l-.7-1.1c.4,0,.8-.2,1.3-.3s1-.2,1.4-.4.9-.3,1.2-.4ZM846.1,69.9l1.8.5.4,6.2h-1.8l-.4-6.7ZM847,71.6h3.7v1.2h-3.7v-1.2ZM847.1,73.8h3.7v1.2h-3.7v-1.2ZM848.3,78.5h9.2v1.4h-9.2v-1.4ZM852.8,81.2h1.9v4.2c0,.5,0,.8-.2,1-.1.2-.4.4-.7.6-.4.1-.8.2-1.3.2-.5,0-1.2,0-2,0,0-.2-.1-.5-.2-.8s-.2-.6-.4-.8c.4,0,.8,0,1.1,0,.4,0,.7,0,.9,0h.5c.2,0,.3,0,.3,0,0,0,0-.1,0-.3v-4.2ZM854.4,72.3l1.3.4c-.5.7-1.1,1.3-1.8,1.8s-1.4,1.1-2.2,1.5c0-.1-.2-.3-.5-.5-.2-.2-.4-.4-.5-.5.7-.3,1.4-.7,2.1-1.2.7-.5,1.2-1,1.6-1.5ZM854.4,68.9l1.3.4c-.4.6-1,1.2-1.7,1.7s-1.4,1-2,1.4c-.1-.1-.3-.3-.5-.5-.2-.2-.4-.3-.6-.4.7-.3,1.4-.7,2-1.2.6-.4,1.1-.9,1.5-1.4ZM851.2,73.3l.9-.8c.5.2.9.5,1.4.7.5.3.9.6,1.4.9.4.3.8.6,1.1.8l-1,.9c-.3-.3-.6-.5-1-.8s-.9-.6-1.3-.9c-.5-.3-.9-.6-1.4-.8ZM851.2,69.9l.9-.8c.4.2.9.4,1.3.7.5.3.9.5,1.3.8s.8.5,1,.8l-.9.9c-.3-.2-.6-.5-1-.8-.4-.3-.8-.6-1.3-.8-.5-.3-.9-.5-1.3-.7ZM857,78.5h.9c0,0,1.1.9,1.1.9-.5.4-1,.7-1.6,1.1s-1.2.7-1.8,1-1.2.6-1.8.8c-.1-.2-.2-.3-.4-.5-.2-.2-.3-.3-.5-.5.5-.2,1-.4,1.6-.7s1-.6,1.5-.9.8-.6,1.1-.8v-.3ZM856.2,69.5h3.8v1.2h-3.8v-1.2ZM856.2,73.8h3.5v1.2h-3.5v-1.2ZM856.3,71.6h3.5v1.2h-3.5v-1.2ZM859.2,69.5h1.8c0,.8,0,1.6-.1,2.5,0,.9-.1,1.7-.2,2.6,0,.8-.1,1.5-.2,2.1h-1.8c0-.6.2-1.4.2-2.2,0-.8.1-1.7.2-2.6,0-.9,0-1.7.1-2.5Z"/>
                <path class="cls-12" d="M866.5,75.2l1.2.4c-.3.7-.6,1.3-1.1,2s-.9,1.2-1.5,1.6c-.1-.2-.3-.4-.5-.7-.2-.2-.4-.4-.6-.6.3-.2.6-.4,1-.7s.6-.6.9-1c.3-.4.5-.7.7-1ZM867.9,78.7h1.6v2.1c0,.5,0,1.1-.1,1.7-.1.6-.3,1.2-.6,1.7s-.7,1.1-1.3,1.6c-.6.5-1.4,1-2.4,1.4,0-.1-.2-.3-.3-.5-.1-.2-.2-.3-.4-.5-.1-.2-.3-.3-.4-.4.9-.3,1.5-.7,2-1.1s.9-.8,1.1-1.3c.3-.4.4-.9.5-1.3s.1-.9.1-1.3v-2ZM864.4,73.1h8.7v1.5h-8.7v-1.5ZM864.4,80.5h8.8v1.6h-8.8v-1.6ZM864.8,70l1.3-.5c.2.4.5.8.7,1.2.2.4.4.8.4,1.2l-1.4.6c0-.3-.2-.7-.4-1.2s-.4-.9-.7-1.3ZM868,68.9h1.7v9.4h-1.7v-9.4ZM868,83.7l1-1.2c.4.2.9.5,1.3.8.5.3.9.6,1.4.9.4.3.8.6,1.1.8l-1,1.3c-.3-.2-.6-.5-1-.8s-.9-.6-1.3-1c-.5-.3-.9-.6-1.3-.9ZM870.7,75.2c.1,0,.3.2.6.4.3.2.5.4.8.6s.5.4.8.6c.2.2.4.3.5.4l-1,1.2c-.1-.2-.3-.4-.5-.6s-.5-.5-.7-.7c-.3-.3-.5-.5-.7-.7-.2-.2-.4-.4-.6-.5l1-.7ZM870.2,79.1l1.1-.7c.3.2.5.5.8.8.3.3.5.6.6.8l-1.1.8c-.1-.2-.3-.5-.6-.8-.3-.3-.5-.6-.8-.8ZM871.3,69.5l1.6.4c-.2.5-.5.9-.7,1.4s-.5.8-.7,1.2l-1.2-.4c.2-.4.4-.8.6-1.3.2-.5.4-.9.5-1.3ZM876,83.7l1.6,1c-.3.3-.7.7-1.1,1-.4.3-.9.7-1.3,1s-.9.5-1.4.8c-.1-.2-.3-.4-.6-.6-.2-.2-.5-.4-.6-.6.4-.2.9-.4,1.3-.7.4-.3.8-.6,1.2-.9.4-.3.7-.6.9-.9ZM873.2,69.6h9.4v1.6h-9.4v-1.6ZM874,72.9h8v10.5h-8v-10.5ZM875.7,74.4v1.6h4.5v-1.6h-4.5ZM875.7,77.3v1.6h4.5v-1.6h-4.5ZM875.7,80.3v1.7h4.5v-1.7h-4.5ZM876.9,70.5l2.1.3c-.2.6-.4,1.2-.6,1.8-.2.6-.4,1.1-.6,1.5l-1.6-.3c0-.3.2-.6.3-1,0-.4.2-.8.3-1.1,0-.4.1-.7.2-1ZM878.3,84.7l1.4-.9c.4.2.8.5,1.2.8s.8.6,1.2.9.7.6,1,.8l-1.5,1c-.2-.2-.5-.5-.9-.8-.4-.3-.8-.6-1.2-1-.4-.3-.8-.6-1.2-.9Z"/>
              </g>
            </g>
          </g>
        </g>
        <g id="_圖層_1-2" data-name="_圖層_1">
          <g id="_圖層_1-2-3" data-name="_圖層_1-2">
            <g class="cls-18">
              <g id="_圖層_1-2-4" data-name="_圖層_1-2">
                <g>
                  <g>
                    <g>
                      <g>
                        <rect class="cls-31" x="737.1" y="88.6" width="2" height="4.3" rx=".5" ry=".5"/>
                        <path class="cls-31" d="M737.8,92.5h-13c-.7,0-1.2-.5-1.2-1.2v-18.2c0-.6.5-1,1-1h13.2v20.4h0Z"/>
                        <rect class="cls-17" x="724.7" y="72.2" width="13.5" height="20.1"/>
                        <path class="cls-12" d="M738.1,92.2c-3.7-1.5-7.4-2.2-11.2-1.4v-20.1c4.2-1.1,8-.7,11.2,1.5v20.1h0Z"/>
                        <path class="cls-32" d="M736.9,90.2c-2.8-1.2-5.6-1.8-8.5-1.2v-16.4c3.2-.9,6.1-.6,8.5,1.2v16.3h0Z"/>
                        <line class="cls-5" x1="738.1" y1="72.4" x2="738.1" y2="91.6"/>
                        <path class="cls-22" d="M737.7,92.2h0c-7.5-1.7-10.6-1-10.6-1,0,0,0,0,0,0,0,0,0,0,0,0,0,0,3.2-.8,10.6,1,0,0,0,0,0,0,0,0,0,0,0,0h0Z"/>
                        <path class="cls-31" d="M738.3,92.5h0v-20.4h13.2c.6,0,1,.5,1,1v18.2c0,.7-.5,1.2-1.2,1.2h-13Z"/>
                        <rect class="cls-17" x="738" y="72.2" width="13.5" height="20.1"/>
                        <path class="cls-12" d="M738,92.2h0v-20.1c3.2-2.2,7-2.6,11.2-1.5v20.1c-3.7-.8-7.5,0-11.2,1.4h0Z"/>
                        <path class="cls-32" d="M739.3,90.2v-16.3c2.4-1.8,5.3-2.1,8.5-1.2v16.4c-2.8-.7-5.7,0-8.5,1.2h0Z"/>
                        <line class="cls-5" x1="738" y1="91.6" x2="738" y2="72.4"/>
                        <path class="cls-22" d="M750.8,91.5s0,0,0,0v-19s0,0,0,0,0,0,0,0v19s0,0,0,0Z"/>
                        <path class="cls-22" d="M738.4,92.2s0,0,0,0,0,0,0,0c7.5-1.7,10.6-1,10.6-1,0,0,0,0,0,0s0,0,0,0c0,0-3.2-.8-10.6,1h0Z"/>
                        <path class="cls-22" d="M750,91.5s0,0,0,0v-19s0,0,0,0,0,0,0,0v19s0,0,0,0Z"/>
                      </g>
                      <path class="cls-22" d="M725.3,91.5s0,0,0,0v-19s0,0,0,0,0,0,0,0v19s0,0,0,0Z"/>
                      <path class="cls-22" d="M726.2,91.5s0,0,0,0v-19s0,0,0,0,0,0,0,0v19s0,0,0,0Z"/>
                    </g>
                    <path class="cls-1" d="M741.8,61.8s1-1.6,2.6-.7c1.6.9,2.1,1.4,1.2,3-.9,1.6,1,2-1.7,6.3-2.7,4.3,0,6.9-3.3,10.5-3.3,3.6-1.3,7.2-2.7,7.1-1.4,0-1.8-3.2-3.9-4.7-2.8-2-2.9-10.2,1.8-15.2,4.7-5,1.8-5.1,5.9-6.3h0s0,0,0,0h0Z"/>
                  </g>
                  <path class="cls-19" d="M734.9,82.6s-3.3-2.4-.9-10c0,0-.4,7.1.9,10Z"/>
                </g>
              </g>
            </g>
          </g>
        </g>
      </g>
      <g id="a4">
        <g id="g-root-ro_1czw09rlz7t3i-stroke">
          <g id="ro_1czw09rlz7t3i-stroke">
            <path class="cls-6" d="M493,55.5h144s24,0,24,24v102s0,24-24,24h-144s-24,0-24-24v-102s0-24,24-24"/>
          </g>
        </g>
        <g>
          <g id="g-root-tx__58ztrlz7u2s-fill">
            <g id="tx__58ztrlz7u2s-fill">
              <g class="cls-18">
                <g class="cls-18">
                  <path class="cls-33" d="M502.3,147.4l1.7.5c-.5,1.4-1.1,2.7-1.8,4-.7,1.3-1.5,2.5-2.4,3.5-.9,1.1-1.8,2-2.8,2.7-.1-.1-.2-.3-.4-.5-.2-.2-.3-.4-.5-.6-.2-.2-.3-.3-.5-.5,1-.6,1.9-1.4,2.7-2.4.9-1,1.6-2,2.3-3.2.7-1.2,1.2-2.4,1.6-3.6ZM496.2,146.7h17.6v1.9h-17.6v-1.9ZM499.5,155.7h10.9v1.9h-10.9v-1.9ZM504,142.6h2v18.6h-2v-18.6ZM507.6,147.4c.4,1.2,1,2.4,1.6,3.5.7,1.1,1.5,2.2,2.3,3.1.9.9,1.8,1.7,2.8,2.3-.2.1-.3.3-.5.5-.2.2-.4.4-.5.6-.2.2-.3.4-.4.6-1-.7-1.9-1.6-2.8-2.6-.9-1-1.6-2.2-2.3-3.5-.7-1.3-1.3-2.6-1.8-4l1.7-.5Z"/>
                  <path class="cls-33" d="M516.5,143.5h16.9v17.7h-1.9v-16h-13.2v16h-1.8v-17.7ZM517.7,158.6h14.9v1.7h-14.9v-1.7ZM519.1,155.5c.8-.1,1.7-.2,2.7-.4s2.1-.3,3.2-.5v1.3c-1,.2-2,.3-2.9.5-1,.2-1.9.3-2.7.5l-.2-1.4ZM519.3,147.6h11.5v1.4h-11.5v-1.4ZM519.9,150.1h4.5v3.8h-4.5v-3.8ZM521.2,151.1v1.7h1.9v-1.7h-1.9ZM528.6,149.7l1.5.3c-.5,1.8-1.2,3.4-2.2,4.8-1,1.4-2.1,2.5-3.5,3.4,0-.1-.2-.2-.3-.4-.1-.1-.3-.3-.4-.4-.1-.1-.3-.3-.4-.3,1.3-.8,2.4-1.8,3.3-3s1.5-2.7,2-4.3ZM525,145.6h1.6c0,1.3.1,2.6.3,3.9.1,1.2.3,2.4.5,3.4.2,1,.5,1.8.8,2.4s.7,1,1.1,1c.1,0,.2-.1.3-.5s.2-.9.2-1.5c.1.1.2.2.4.3s.3.2.5.3c.2,0,.3.2.4.2-.1,1.1-.4,1.9-.8,2.4-.4.4-.9.5-1.5.3-.7-.2-1.2-.6-1.7-1.3-.4-.7-.8-1.7-1.1-2.8s-.5-2.4-.6-3.8-.3-2.8-.3-4.3ZM527.5,146.2l.9-.9c.4.2.7.4,1.1.6.4.2.7.5.9.7l-.9,1c-.2-.2-.5-.5-.9-.7s-.8-.5-1.1-.7Z"/>
                  <path class="cls-33" d="M535.8,146h7.5v1.5h-7.5v-1.5ZM536.6,154.1h1.6v6.9h-1.6v-6.9ZM536.6,148.7h6v1.5h-6v-1.5ZM536.6,151.4h6v1.5h-6v-1.5ZM537.4,154.1h5.3v6h-5.3v-1.6h3.7v-2.9h-3.7v-1.5ZM538,143.3l1.5-.7c.3.4.6.9.9,1.4.3.5.5.9.6,1.3l-1.5.8c-.1-.4-.3-.8-.6-1.3-.3-.5-.6-1-.8-1.4ZM543,151h11.3v1.6h-11.3v-1.6ZM543.6,143.4h10.3v1.6h-10.3v-1.6ZM544,146.8h8.5v4.9h-1.8v-3.3h-6.7v-1.6ZM544.1,153.8h9v7.3h-1.8v-5.7h-5.4v5.7h-1.8v-7.4ZM545,158.7h7.3v1.6h-7.3v-1.6ZM546.8,144.1l1.8.2c-.1.8-.3,1.7-.4,2.6-.2.9-.3,1.8-.5,2.7-.2.9-.3,1.6-.5,2.2h-1.9c.1-.5.2-1,.4-1.7s.3-1.3.4-2,.2-1.4.4-2c.1-.7.2-1.3.3-1.9Z"/>
                  <path class="cls-33" d="M569.2,146.9l2,.5c-.8,2.4-1.9,4.5-3.2,6.3-1.3,1.8-2.9,3.2-4.7,4.4s-4,2.2-6.4,2.9c0-.1-.2-.3-.3-.6-.1-.2-.3-.5-.4-.7s-.3-.4-.4-.5c2.4-.6,4.5-1.5,6.2-2.6s3.2-2.4,4.5-4c1.2-1.6,2.2-3.5,2.9-5.8ZM556,146.1h18.2v1.8h-18.2v-1.8ZM560.7,147.1c.7,2,1.7,3.8,3,5.5,1.3,1.6,2.8,3,4.6,4.2s3.9,2,6.2,2.6c-.1.1-.3.3-.4.5-.2.2-.3.4-.5.6-.1.2-.3.4-.4.6-2.4-.7-4.5-1.6-6.4-2.9-1.8-1.2-3.4-2.8-4.7-4.5-1.3-1.8-2.3-3.8-3.2-6.1l1.7-.5ZM563.4,143l2-.6c.3.5.6,1,.9,1.6s.5,1.1.6,1.5l-2.1.7c-.1-.4-.3-.9-.6-1.5-.3-.6-.5-1.1-.8-1.6Z"/>
                  <path class="cls-33" d="M580.1,144.2h2v2.9c0,.8,0,1.6,0,2.5,0,.9-.2,1.8-.4,2.8s-.5,1.9-.8,2.9c-.4,1-.9,1.9-1.5,2.9-.6.9-1.4,1.8-2.3,2.7,0-.2-.2-.4-.4-.6-.2-.2-.3-.4-.5-.6-.2-.2-.3-.3-.5-.5,1-.9,1.9-1.9,2.5-3,.6-1.1,1.1-2.1,1.3-3.2s.5-2.1.6-3.2c0-1,.1-2,.1-2.8v-2.8ZM576.8,143.5h11v1.8h-11v-1.8ZM591.3,149.2h.8c0,0,1.4.5,1.4.5-.4,1.7-1,3.2-1.8,4.5s-1.7,2.4-2.7,3.3c-1,.9-2.2,1.7-3.4,2.3-1.3.6-2.6,1.2-4,1.5,0-.2-.2-.4-.3-.6s-.2-.4-.4-.6c-.1-.2-.3-.4-.4-.5,1.3-.3,2.5-.7,3.7-1.3,1.2-.6,2.2-1.3,3.2-2.1,1-.8,1.8-1.8,2.5-2.9.7-1.1,1.2-2.4,1.6-3.8v-.4ZM581.3,149.2h10.4v1.8h-10.8l.3-1.8ZM584,150.3c.8,2.3,2.1,4.2,3.8,5.8s3.9,2.7,6.6,3.3c-.1.1-.3.3-.4.5-.2.2-.3.4-.5.6s-.3.4-.4.6c-1.8-.5-3.4-1.3-4.8-2.2s-2.6-2.1-3.5-3.5-1.8-3-2.4-4.7l1.7-.4ZM587.3,143.5h2c-.1.7-.3,1.5-.5,2.3-.2.8-.3,1.6-.5,2.3-.2.7-.3,1.4-.5,1.9h-2.1c.2-.6.4-1.2.6-2,.2-.8.4-1.5.6-2.3.2-.8.3-1.5.5-2.2Z"/>
                  <path class="cls-33" d="M609.2,146.9l2,.5c-.8,2.4-1.9,4.5-3.2,6.3-1.3,1.8-2.9,3.2-4.7,4.4s-4,2.2-6.4,2.9c0-.1-.2-.3-.3-.6-.1-.2-.3-.5-.4-.7s-.3-.4-.4-.5c2.4-.6,4.5-1.5,6.2-2.6s3.2-2.4,4.5-4c1.2-1.6,2.2-3.5,2.9-5.8ZM596,146.1h18.2v1.8h-18.2v-1.8ZM600.7,147.1c.7,2,1.7,3.8,3,5.5,1.3,1.6,2.8,3,4.6,4.2s3.9,2,6.2,2.6c-.1.1-.3.3-.4.5-.2.2-.3.4-.5.6-.1.2-.3.4-.4.6-2.4-.7-4.5-1.6-6.4-2.9-1.8-1.2-3.4-2.8-4.7-4.5-1.3-1.8-2.3-3.8-3.2-6.1l1.7-.5ZM603.4,143l2-.6c.3.5.6,1,.9,1.6s.5,1.1.6,1.5l-2.1.7c-.1-.4-.3-.9-.6-1.5-.3-.6-.5-1.1-.8-1.6Z"/>
                  <path class="cls-33" d="M616,155.8h18v1.5h-18v-1.5ZM616.4,149.8h17.3v3.9h-1.9v-2.5h-13.6v2.5h-1.8v-3.9ZM621.5,142.8l.8,1.1c-.6.2-1.3.4-2,.6-.8.2-1.5.3-2,.4l-.7-1.1c.4,0,.8-.2,1.3-.3s1-.2,1.4-.4.9-.3,1.2-.4ZM617.6,143.8l1.8.5.4,6.2h-1.8l-.4-6.7ZM618.5,145.5h3.7v1.2h-3.7v-1.2ZM618.6,147.6h3.7v1.2h-3.7v-1.2ZM619.8,152.3h9.2v1.4h-9.2v-1.4ZM624.3,155.1h1.9v4.2c0,.5,0,.8-.2,1-.1.2-.4.4-.7.6-.4.1-.8.2-1.3.2-.5,0-1.2,0-2,0,0-.2-.1-.5-.2-.8s-.2-.6-.4-.8c.4,0,.8,0,1.1,0,.4,0,.7,0,.9,0h.5c.2,0,.3,0,.3,0,0,0,0-.1,0-.3v-4.2ZM625.9,146.1l1.3.4c-.5.7-1.1,1.3-1.8,1.8s-1.4,1.1-2.2,1.5c0-.1-.2-.3-.5-.5-.2-.2-.4-.4-.5-.5.7-.3,1.4-.7,2.1-1.2.7-.5,1.2-1,1.6-1.5ZM625.9,142.8l1.3.4c-.4.6-1,1.2-1.7,1.7s-1.4,1-2,1.4c-.1-.1-.3-.3-.5-.5-.2-.2-.4-.3-.6-.4.7-.3,1.4-.7,2-1.2.6-.4,1.1-.9,1.5-1.4ZM622.7,147.1l.9-.8c.5.2.9.5,1.4.7.5.3.9.6,1.4.9.4.3.8.6,1.1.8l-1,.9c-.3-.3-.6-.5-1-.8s-.9-.6-1.3-.9c-.5-.3-.9-.6-1.4-.8ZM622.8,143.8l.9-.8c.4.2.9.4,1.3.7.5.3.9.5,1.3.8s.8.5,1,.8l-.9.9c-.3-.2-.6-.5-1-.8-.4-.3-.8-.6-1.3-.8-.5-.3-.9-.5-1.3-.7ZM628.5,152.3h.9c0,0,1.1.9,1.1.9-.5.4-1,.7-1.6,1.1s-1.2.7-1.8,1-1.2.6-1.8.8c-.1-.2-.2-.3-.4-.5-.2-.2-.3-.3-.5-.5.5-.2,1-.4,1.6-.7s1-.6,1.5-.9.8-.6,1.1-.8v-.3ZM627.7,143.3h3.8v1.2h-3.8v-1.2ZM627.8,147.6h3.5v1.2h-3.5v-1.2ZM627.9,145.5h3.5v1.2h-3.5v-1.2ZM630.8,143.3h1.8c0,.8,0,1.6-.1,2.5,0,.9-.1,1.7-.2,2.6,0,.8-.1,1.5-.2,2.1h-1.8c0-.6.2-1.4.2-2.2,0-.8.1-1.7.2-2.6,0-.9,0-1.7.1-2.5Z"/>
                </g>
                <g class="cls-18">
                  <path class="cls-33" d="M546,179.8h18v1.5h-18v-1.5ZM546.4,173.8h17.3v3.9h-1.9v-2.5h-13.6v2.5h-1.8v-3.9ZM551.5,166.8l.8,1.1c-.6.2-1.3.4-2,.6-.8.2-1.5.3-2,.4l-.7-1.1c.4,0,.8-.2,1.3-.3s1-.2,1.4-.4.9-.3,1.2-.4ZM547.6,167.8l1.8.5.4,6.2h-1.8l-.4-6.7ZM548.5,169.5h3.7v1.2h-3.7v-1.2ZM548.6,171.6h3.7v1.2h-3.7v-1.2ZM549.8,176.3h9.2v1.4h-9.2v-1.4ZM554.3,179.1h1.9v4.2c0,.5,0,.8-.2,1-.1.2-.4.4-.7.6-.4.1-.8.2-1.3.2-.5,0-1.2,0-2,0,0-.2-.1-.5-.2-.8s-.2-.6-.4-.8c.4,0,.8,0,1.1,0,.4,0,.7,0,.9,0h.5c.2,0,.3,0,.3,0,0,0,0-.1,0-.3v-4.2ZM555.9,170.1l1.3.4c-.5.7-1.1,1.3-1.8,1.8s-1.4,1.1-2.2,1.5c0-.1-.2-.3-.5-.5-.2-.2-.4-.4-.5-.5.7-.3,1.4-.7,2.1-1.2.7-.5,1.2-1,1.6-1.5ZM555.9,166.8l1.3.4c-.4.6-1,1.2-1.7,1.7s-1.4,1-2,1.4c-.1-.1-.3-.3-.5-.5-.2-.2-.4-.3-.6-.4.7-.3,1.4-.7,2-1.2.6-.4,1.1-.9,1.5-1.4ZM552.7,171.1l.9-.8c.5.2.9.5,1.4.7.5.3.9.6,1.4.9.4.3.8.6,1.1.8l-1,.9c-.3-.3-.6-.5-1-.8s-.9-.6-1.3-.9c-.5-.3-.9-.6-1.4-.8ZM552.8,167.8l.9-.8c.4.2.9.4,1.3.7.5.3.9.5,1.3.8s.8.5,1,.8l-.9.9c-.3-.2-.6-.5-1-.8-.4-.3-.8-.6-1.3-.8-.5-.3-.9-.5-1.3-.7ZM558.5,176.3h.9c0,0,1.1.9,1.1.9-.5.4-1,.7-1.6,1.1s-1.2.7-1.8,1-1.2.6-1.8.8c-.1-.2-.2-.3-.4-.5-.2-.2-.3-.3-.5-.5.5-.2,1-.4,1.6-.7s1-.6,1.5-.9.8-.6,1.1-.8v-.3ZM557.7,167.3h3.8v1.2h-3.8v-1.2ZM557.8,171.6h3.5v1.2h-3.5v-1.2ZM557.9,169.5h3.5v1.2h-3.5v-1.2ZM560.8,167.3h1.8c0,.8,0,1.6-.1,2.5,0,.9-.1,1.7-.2,2.6,0,.8-.1,1.5-.2,2.1h-1.8c0-.6.2-1.4.2-2.2,0-.8.1-1.7.2-2.6,0-.9,0-1.7.1-2.5Z"/>
                  <path class="cls-33" d="M566.7,167.5h1.9v17.7h-1.9v-17.7ZM567.6,170.5h5.3v1.4h-5.3v-1.4ZM567.8,167.5h6.3v7.5h-6.3v-1.5h4.5v-4.4h-4.5v-1.6ZM582.5,167.5v1.6h-4.9v4.4h4.9v1.6h-6.7v-7.6h6.7ZM576.9,170.5h5.4v1.4h-5.4v-1.4ZM581.5,167.5h1.9v15.3c0,.6,0,1-.2,1.4-.1.3-.4.5-.8.7s-.9.3-1.5.3c-.6,0-1.4,0-2.4,0,0-.2,0-.4-.2-.6s-.2-.5-.2-.7c0-.2-.2-.5-.3-.6.4,0,.9,0,1.3,0,.4,0,.8,0,1.2,0h.7c.2,0,.3,0,.4-.1s.1-.2.1-.4v-15.2Z"/>
                </g>
              </g>
            </g>
          </g>
          <g id="_圖層_1-3" data-name="_圖層_1">
            <g id="_圖層_1-2-5" data-name="_圖層_1-2">
              <g class="cls-18">
                <g id="_圖層_1-2-6" data-name="_圖層_1-2">
                  <g>
                    <rect class="cls-31" x="559.2" y="119.4" width="4.7" height="9.9" rx="1.1" ry="1.1"/>
                    <path class="cls-31" d="M562.6,81.1h30.6c1.3,0,2.4,1.1,2.4,2.4v42.3c0,1.5-1.2,2.8-2.8,2.8h-30.2v-47.5h0,0Z"/>
                    <path class="cls-31" d="M561,128.6h-30.2c-1.5,0-2.8-1.2-2.8-2.8v-42.3c0-1.3,1.1-2.4,2.4-2.4h30.6v47.5h0Z"/>
                    <path class="cls-14" d="M559.7,81.1h5.3v46.7h-4.9c-.8,0-1.5-.7-1.5-1.5v-44.1c0-.6.5-1.2,1.2-1.2h0s0,0,0,0h0Z"/>
                    <rect class="cls-17" x="530.3" y="81.1" width="31.4" height="46.7"/>
                    <rect class="cls-28" x="561.7" y="81.1" width="31.4" height="46.7"/>
                    <rect class="cls-12" x="561.7" y="81.1" width="27.8" height="46.7"/>
                    <path class="cls-12" d="M561.7,127.8c-8.6-3.5-17.3-5.2-26-3.3v-46.9c9.8-2.5,18.6-1.7,26,3.5v46.7h0Z"/>
                    <path class="cls-32" d="M558.8,123.1c-6.6-2.9-13.1-4.2-19.7-2.7v-38.1c7.4-2.1,14.1-1.4,19.7,2.8v38h0Z"/>
                    <line class="cls-5" x1="561.7" y1="81.7" x2="561.7" y2="126.4"/>
                    <line class="cls-5" x1="591.2" y1="82.8" x2="591.2" y2="127"/>
                    <line class="cls-5" x1="531.9" y1="81.9" x2="531.9" y2="126.2"/>
                    <path class="cls-5" d="M536.1,125.4s7.2-1.8,24.8,2.3"/>
                    <line class="cls-5" x1="533.8" y1="81.9" x2="533.8" y2="126.2"/>
                    <rect class="cls-32" x="564.9" y="84.8" width="22.7" height="39.6"/>
                    <path class="cls-5" d="M567.8,115.9s1.2-1.5,2.2-.8c.9.7,1.6,1.3,2.7.6,1.2-.8,1.2-.7,2.3-.2,1.1.5,1.7.8,2.5.5,1.3-.5,2.1-1.1,3.4-.1.8.6,1.8-.3,2-.4.4,0,.4.3,1.2.6"/>
                    <path class="cls-5" d="M584.4,101.2s-1.6.7-2.5,0c-.9-.7-1.6-1.3-2.7-.6-1.2.8-1.2.7-2.3.2-1.1-.5-1.7-.8-2.5-.5-1.3.5-2.1,1.1-3.4.1-.8-.6-1.8.3-2,.4-.4,0-.4.4-1.2.1"/>
                    <path class="cls-4" d="M571.7,93s.6-.6,1.4,0c.8.7,1.3,1.3,2.3.6,1-.8,1-.7,1.9-.2s1.4.8,2,.5c1.1-.5,1.7-1.1,2.8-.1.6.6,1.5-.3,1.7-.4"/>
                    <path class="cls-5" d="M567.8,108.3s1-.8,2-.1c.9.7,1.8.8,2.9,0,1.2-.8,2.2-.6,3.3-.1,1.1.5.8.4,1.5.2,1.3-.5,1.7-1.6,3.4-.1.7.6,1.6-.4,1.9-.4.4,0,.6.4,1.4.7"/>
                    <path class="cls-24" d="M567.1,78.6h-1.6c-1.4,0-2.6,1.2-2.6,2.6h2.7c.7,0,1.2.6,1.2,1.2v7l3.5-2.5,3.6,2.5v-8c0-1.6-1.3-2.9-2.9-2.9h-4,0Z"/>
                    <ellipse class="cls-15" cx="582" cy="132.1" rx="8.9" ry="1.6"/>
                    <g>
                      <path class="cls-16" d="M581.1,121.5h1.9c.9,0,1.7.8,1.7,1.7v8.9h-5.2v-8.9c0-.9.8-1.7,1.7-1.7h0Z"/>
                      <rect class="cls-1" x="579.4" y="125.3" width="5.2" height="6.7"/>
                      <path class="cls-20" d="M583,121.5h-1.4c.9,0,1.7.8,1.7,1.7v8.9h1.4v-8.9c0-.9-.8-1.7-1.7-1.7Z"/>
                    </g>
                    <g>
                      <path class="cls-11" d="M606.1,112.3l5.7-1.9c5.9-7.5,6.3-18.2,6.3-18.2-4.1.9-7.4,2.2-10.1,3.7l-1.2,4.3c-.1.4-.7.4-.8,0-.2-.7-.5-1.6-.7-2.6-10.7,8-6.8,20-6.8,20,3.9-.2,6.5-1.4,9-3.1l-1.4-2.1h0Z"/>
                      <path class="cls-7" d="M595.7,127.7c.8-8.7,7-21.4,16.8-29"/>
                      <path class="cls-21" d="M591.3,123.9h10.1c2.1,0,3.7,1.7,3.7,3.7v1.4c0,2.1-1.7,3.7-3.7,3.7h-10.1c-2.1,0-3.7-1.7-3.7-3.7v-1.4c0-2.1,1.7-3.7,3.7-3.7Z"/>
                      <path class="cls-21" d="M599.5,125h-5.9c-.8,0-1.4-.6-1.4-1.4h0c0-.8.6-1.4,1.4-1.4h5.9c.8,0,1.4.6,1.4,1.4h0c0,.8-.6,1.4-1.4,1.4Z"/>
                      <line class="cls-2" x1="600.8" y1="124.2" x2="594.1" y2="124.2"/>
                    </g>
                    <g>
                      <path class="cls-25" d="M567.5,132.5h0c0-.8.5-1.4,1.3-1.4h23.1c.8,0,1.4.6,1.3,1.4h0c0,.8-.7,1.4-1.4,1.4h-23c-.7-.1-1.2-.7-1.3-1.4h0,0Z"/>
                      <path class="cls-3" d="M584.3,131.1s-.7,1.5,0,2.7"/>
                      <path class="cls-8" d="M592.4,133.5c-.2,0-.4-.4-.4-1,0-.5.2-1,.5-1s.4.4.4,1-.2,1-.5,1Z"/>
                    </g>
                    <line class="cls-3" x1="572.3" y1="132.7" x2="582.6" y2="132.7"/>
                    <path class="cls-13" d="M568.9,93.9c0,.3.1.5.1.7,0,.4-.3.8-.9.8s-.6,0-1-.2v-.5c.5.2.8.3,1,.3s.5-.1.5-.5,0-.4-.1-.6h-2.3v-.4h2.1l-.3-.5h.2l.8-.5h-2v-.4h2.6l.3.3-1.3.8v.2h2v.4h-1.8,0ZM568.2,91.3v-.4h.4v.4h1.7l.4.2c0,.3-.1.6-.3,1h-.4c0-.1.2-.8.2-.8,0,0,0,0,0,0h-3.5s0,0,0,0v.7h-.4v-1.1c0,0,0,0,0,0h1.9,0,0Z"/>
                  </g>
                </g>
              </g>
            </g>
          </g>
        </g>
      </g>
    </g>
  </g>
</svg>