<?xml version="1.0" encoding="UTF-8"?>
<svg xmlns="http://www.w3.org/2000/svg" version="1.1" viewBox="0 0 1130 270">
  <defs>
    <style>
      .cls-1, .cls-2, .cls-3, .cls-4, .cls-5, .cls-6, .cls-7, .cls-8, .cls-9, .cls-10, .cls-11, .cls-12 {
        fill-rule: evenodd;
      }

      .cls-1, .cls-13 {
        fill: #29ba8c;
      }

      .cls-2, .cls-14 {
        fill: #7d5638;
      }

      .cls-15 {
        fill: #7db3a2;
      }

      .cls-16 {
        stroke: #1f1406;
        stroke-width: 2.2px;
      }

      .cls-16, .cls-17, .cls-18, .cls-19, .cls-20, .cls-21, .cls-22, .cls-23, .cls-24, .cls-25, .cls-26 {
        stroke-linejoin: round;
      }

      .cls-16, .cls-17, .cls-18, .cls-19, .cls-20, .cls-21, .cls-22, .cls-24, .cls-25, .cls-26 {
        stroke-linecap: round;
      }

      .cls-16, .cls-17, .cls-19, .cls-27, .cls-20, .cls-21, .cls-22, .cls-23, .cls-24, .cls-25, .cls-26 {
        fill: none;
      }

      .cls-28 {
        fill: #7d7469;
      }

      .cls-3, .cls-29 {
        fill: #24a37b;
      }

      .cls-30 {
        fill: #55cfa7;
      }

      .cls-31, .cls-4 {
        fill: #fff;
      }

      .cls-32 {
        fill: #b0d6c9;
      }

      .cls-33 {
        fill: #edb07e;
      }

      .cls-5, .cls-34 {
        fill: #ffac66;
      }

      .cls-17, .cls-27 {
        stroke-width: 1.8px;
      }

      .cls-17, .cls-20 {
        stroke: #1f8c6a;
      }

      .cls-35 {
        fill: #ede0d5;
      }

      .cls-18 {
        fill: #fcf0f0;
        stroke: #fd6a65;
      }

      .cls-18, .cls-19, .cls-23, .cls-25, .cls-26 {
        stroke-width: 2px;
      }

      .cls-36 {
        isolation: isolate;
      }

      .cls-6 {
        fill: #a12a2a;
      }

      .cls-19 {
        stroke: #36261b;
      }

      .cls-27 {
        stroke: #e69b5c;
        stroke-miterlimit: 10;
      }

      .cls-37 {
        fill: #faf3ed;
      }

      .cls-38 {
        fill: #d1c1b8;
      }

      .cls-39 {
        fill: #dbcfc5;
      }

      .cls-40 {
        fill: #1f1406;
      }

      .cls-41 {
        fill: #6e6964;
      }

      .cls-21 {
        stroke: #c9c1b8;
      }

      .cls-42 {
        fill: #1f8c6a;
      }

      .cls-22 {
        stroke: #301b0f;
        stroke-width: 1.2px;
      }

      .cls-7 {
        fill: #4e88e7;
      }

      .cls-43, .cls-11 {
        fill: #30230f;
      }

      .cls-44, .cls-10 {
        fill: #36261b;
      }

      .cls-8, .cls-45 {
        fill: #db7e5a;
      }

      .cls-46 {
        fill: #e69b5c;
      }

      .cls-47 {
        fill: #e0d6cd;
      }

      .cls-23, .cls-26 {
        stroke: #484848;
      }

      .cls-9 {
        fill: #ba5de5;
      }

      .cls-48, .cls-49 {
        fill: #484848;
      }

      .cls-50, .cls-12 {
        fill: #f5f5f5;
      }

      .cls-24 {
        stroke: #855b46;
        stroke-width: .7px;
      }

      .cls-25 {
        stroke: #bd8163;
      }

      .cls-51 {
        fill: #99938b;
      }

      .cls-52 {
        fill: #bd8163;
      }

      .cls-53 {
        fill: #fd6a65;
      }

      .cls-26 {
        stroke-dasharray: 5 7;
      }

      .cls-54 {
        fill: #9c7f6c;
      }

      .cls-49 {
        opacity: 0;
      }
    </style>
  </defs>
  <!-- Generator: Adobe Illustrator 28.7.9, SVG Export Plug-In . SVG Version: 1.2.0 Build 218)  -->
  <g>
    <g id="_x38__x5F_社會">
      <g>
        <g id="g-root-cu_mdladbht6x3f-stroke">
          <g id="cu_mdladbht6x3f-stroke">
            <path class="cls-26" d="M353,104v24h-18"/>
          </g>
        </g>
        <g id="g-root-cu_hye9bzht6upy-stroke">
          <g id="cu_hye9bzht6upy-stroke">
            <path class="cls-26" d="M353,104v60h-18"/>
          </g>
        </g>
        <g id="g-root-cu_hye9bzht6uq0-stroke">
          <g id="cu_hye9bzht6uq0-stroke">
            <path class="cls-26" d="M353,104v84c0,6.6-5.4,12-12,12h-6"/>
          </g>
        </g>
      </g>
      <g id="g-root-cu_dikr7jht6via-stroke">
        <g id="cu_dikr7jht6via-stroke">
          <path class="cls-26" d="M660,122v12c0,6.6,5.4,12,12,12h6"/>
        </g>
      </g>
      <g id="g-root-cu_v98am7ht6wao-stroke">
        <g id="cu_v98am7ht6wao-stroke">
          <path class="cls-23" d="M582,122h3.1c4,0,8.3-1.3,12.4-3.7,2.5-1.4,5.6-4.9,8.5-9.8,2.9-4.9,6-8.4,8.5-9.8,4.1-2.4,8.4-3.7,12.4-3.7h3.1"/>
        </g>
      </g>
      <g id="g-root-cu_zp1sqnht6vid-stroke">
        <g id="cu_zp1sqnht6vid-stroke">
          <path class="cls-23" d="M431,122h-3.1c-11.5,0-20.9-9.4-20.9-20.9h0v-3.2c0-11.5-9.4-20.9-20.9-20.9h-3.1"/>
        </g>
      </g>
      <g id="c82">
        <g id="tx__htegn3ht5h51-fill">
          <g class="cls-36">
            <g class="cls-36">
              <path class="cls-48" d="M686.7,148.8c.5-.2,1.1-.4,1.8-.7s1.4-.6,2.2-.9c.8-.3,1.6-.7,2.3-1l.3,1.2c-1.1.5-2.1,1-3.2,1.4-1.1.5-2,.9-2.9,1.3l-.5-1.3ZM687.1,140.1h5.9v1.3h-5.9v-1.3ZM689.5,135.5h1.3v12.9h-1.3v-12.9ZM692.4,143.5l10.8-4.6.5,1.2-10.8,4.6-.5-1.2ZM694.6,137.1h1.3v13.5c0,.3,0,.6.1.8s.2.3.5.4c.2,0,.6.1,1,.1h5c.4,0,.7,0,.9-.2.2-.2.3-.4.4-.9,0-.4.1-1,.2-1.8.2.1.4.2.6.3.2,0,.4.2.6.2,0,.9-.2,1.6-.3,2.2-.2.5-.4.9-.8,1.1-.4.2-.9.3-1.6.3h-5c-.7,0-1.3,0-1.7-.2s-.7-.4-.9-.8-.3-.9-.3-1.6v-13.4ZM698.8,135.2h1.3v13.9h-1.3v-13.9ZM702.9,139.4h-.2l.6-.5,1,.3v.3c-.1.9-.2,2-.3,3-.1,1.1-.2,2.1-.4,3.1-.1,1-.3,1.9-.5,2.6l-1.1-.3c.1-.5.2-1.1.3-1.8s.2-1.4.2-2.2.1-1.5.2-2.3.1-1.5.1-2.2Z"/>
              <path class="cls-48" d="M706.7,150.1c.5-.2,1.1-.3,1.8-.5s1.4-.4,2.2-.7c.8-.3,1.5-.5,2.3-.8l.2,1.3c-1.1.4-2.2.7-3.2,1.1s-2.1.7-2.9,1l-.3-1.4ZM707,136.6h6.2v1.3h-6.2v-1.3ZM707.2,142.4h5.7v1.3h-5.7v-1.3ZM709.5,137.1h1.3v12.4l-1.3.3v-12.7ZM712.3,151.7h13v1.2h-13v-1.2ZM713.9,147.5h10.8v1.2h-10.8v-1.2ZM714.1,136.2h10.2v8.9h-10.2v-8.9ZM715.4,137.4v2.7h7.7v-2.7h-7.7ZM715.4,141.2v2.7h7.7v-2.7h-7.7ZM718.6,136.8h1.2v7.7h.1v7.7h-1.4v-7.7h0v-7.7Z"/>
              <path class="cls-48" d="M727.1,148.4h17.9v1.2h-17.9v-1.2ZM727.5,142.4h17v3.6h-1.3v-2.5h-14.4v2.5h-1.3v-3.6ZM732.6,135.4l.6.8c-.6.2-1.2.4-2,.6-.7.1-1.4.3-2,.3l-.5-.8c.4,0,.8-.2,1.3-.3s.9-.2,1.4-.4.8-.2,1.2-.3ZM728.8,136.4l1.3.4.4,6.2h-1.3l-.4-6.6ZM729.5,138.1h3.6v1h-3.6v-1ZM729.6,140.2h3.6v1h-3.6v-1ZM730.8,144.9h9.6v1h-9.6v-1ZM735.5,147.5h1.3v4.6c0,.4,0,.6-.1.8-.1.2-.3.3-.6.4-.3,0-.7.1-1.2.2-.5,0-1.2,0-2,0,0-.2,0-.3-.2-.6,0-.2-.2-.4-.3-.6.4,0,.8,0,1.2,0s.7,0,1,0,.5,0,.6,0c.2,0,.3,0,.3,0,0,0,0-.1,0-.3v-4.5ZM737.1,138.8l1,.3c-.5.6-1.1,1.2-1.8,1.8-.7.6-1.4,1.1-2.2,1.5,0,0-.2-.2-.4-.4-.2-.2-.3-.3-.4-.4.7-.3,1.4-.7,2.1-1.2.7-.5,1.2-1,1.6-1.6ZM737,135.4l1,.3c-.5.6-1,1.2-1.7,1.8-.7.6-1.4,1-2,1.4,0,0-.2-.2-.4-.4-.2-.1-.3-.3-.4-.3.7-.3,1.3-.8,2-1.2.7-.5,1.2-1,1.6-1.5ZM733.7,139.7l.7-.6c.5.2.9.5,1.4.7s1,.6,1.4.9c.4.3.8.6,1.1.8l-.7.7c-.3-.3-.6-.6-1-.9-.4-.3-.9-.6-1.4-.9s-1-.6-1.4-.8ZM733.8,136.3l.7-.6c.5.2.9.4,1.4.7.5.3.9.5,1.4.8.4.3.8.5,1,.8l-.7.7c-.3-.2-.6-.5-1-.8-.4-.3-.9-.6-1.3-.8-.5-.3-.9-.5-1.4-.7ZM740,144.9h.6c0,0,.8.6.8.6-.5.4-1,.7-1.6,1-.6.3-1.2.6-1.8.9s-1.2.5-1.8.8c0-.1-.2-.2-.3-.4-.1-.1-.3-.2-.4-.3.5-.2,1.1-.4,1.6-.7.6-.3,1.1-.5,1.6-.8s.9-.6,1.2-.8v-.3ZM738.8,140.2h3.6v1h-3.6v-1ZM738.8,136h3.9v1h-3.9v-1ZM738.9,138.1h3.6v1h-3.6v-1ZM742.1,136h1.3c0,.8,0,1.6-.1,2.4s-.1,1.7-.2,2.5c0,.8-.1,1.5-.2,2.1h-1.3c0-.6.2-1.3.2-2.1s.1-1.6.2-2.5c0-.9,0-1.6.1-2.4Z"/>
              <path class="cls-48" d="M751.9,148l1.3.5c-.4.5-.8,1-1.3,1.6s-1,1-1.6,1.5-1.1.9-1.6,1.2c0,0-.2-.2-.3-.3-.1-.1-.3-.2-.4-.3-.1-.1-.3-.2-.4-.3.8-.5,1.6-1.1,2.4-1.8.8-.7,1.4-1.4,1.9-2.1ZM760.3,135.3l1,1.1c-.8.4-1.7.7-2.8,1.1-1,.3-2.1.7-3.3,1-1.2.3-2.3.6-3.5.8-1.2.3-2.4.5-3.5.7,0-.2,0-.4-.2-.6,0-.2-.2-.4-.2-.5,1.1-.2,2.3-.5,3.4-.7,1.2-.3,2.3-.5,3.4-.8s2.2-.6,3.1-.9c1-.3,1.8-.7,2.5-1ZM748.6,147.7c0-.1,0-.2,0-.4,0-.2-.1-.3-.2-.5,0-.2-.1-.3-.1-.4.3,0,.7-.1,1.1-.3.5-.2,1-.4,1.6-.7.3-.1.8-.4,1.5-.7.7-.3,1.4-.7,2.3-1.2s1.7-1,2.6-1.6c.9-.6,1.8-1.2,2.6-1.8l1,.9c-1.9,1.3-3.8,2.5-5.7,3.5-1.9,1-3.8,1.9-5.7,2.6h0c-.2.1-.4.2-.5.2-.1,0-.2.1-.4.2s-.1.1-.1.2ZM748.6,147.7v-1s.9-.5.9-.5l13.1-.9c0,.2,0,.4,0,.6v.6c-2,.1-3.8.3-5.2.4s-2.7.2-3.7.3-1.8.1-2.4.2-1.1.1-1.5.2-.6,0-.8.1c-.2,0-.3,0-.5.1ZM749.7,143.5c0,0,0-.2,0-.4,0-.2,0-.3-.1-.5s-.1-.3-.1-.4c.2,0,.5,0,.7-.2.3-.1.6-.2.9-.4.2-.1.6-.3,1.1-.7s1.1-.7,1.8-1.2c.6-.4,1.2-.9,1.8-1.4l1.2.8c-1,.8-2,1.5-3.1,2.1-1.1.6-2.1,1.2-3.1,1.6h0c-.2.1-.3.2-.5.2-.1,0-.2.1-.3.2,0,0-.1.1-.1.2ZM749.7,143.5v-1s.8-.4.8-.4l7.5-.4c0,.2,0,.3,0,.6,0,.2,0,.4,0,.5-1.4,0-2.5.2-3.4.2-.9,0-1.7.1-2.3.2s-1,0-1.4.1c-.3,0-.6,0-.7,0-.2,0-.3,0-.4.1ZM755.5,146.1h1.4v5.7c0,.4,0,.7-.2.9-.1.2-.3.4-.6.5-.3.1-.7.2-1.2.2s-1.1,0-1.9,0c0-.2-.1-.4-.2-.7-.1-.3-.2-.5-.3-.7.4,0,.8,0,1.2,0,.4,0,.7,0,.9,0,.3,0,.4,0,.5,0,.2,0,.3,0,.3,0,0,0,0-.1,0-.2v-5.7ZM758.8,148.5l1-.7c.5.4,1.1.9,1.7,1.3.6.5,1.1,1,1.7,1.4.5.5,1,.9,1.3,1.3l-1.1.8c-.3-.4-.7-.8-1.2-1.3-.5-.5-1.1-1-1.6-1.5s-1.1-1-1.7-1.4ZM759.4,143.2l1.1-.5c.5.5,1,.9,1.5,1.5.5.5,1,1.1,1.5,1.6.5.5.8,1,1.1,1.4l-1.1.7c-.3-.4-.6-.9-1.1-1.4s-.9-1.1-1.5-1.6c-.5-.5-1-1.1-1.5-1.5Z"/>
            </g>
          </g>
        </g>
        <rect class="cls-49" x="686" y="134" width="80" height="21"/>
      </g>
      <g id="c263">
        <g id="tx__v48hxbht5ipw-fill">
          <g class="cls-36">
            <g class="cls-36">
              <path class="cls-48" d="M216.3,189.3h1.5c0,.6,0,1.3-.1,2.2,0,.9-.2,1.9-.3,3-.2,1.1-.4,2.3-.8,3.5s-.9,2.4-1.5,3.5c-.6,1.2-1.4,2.3-2.4,3.3-1,1-2.2,1.9-3.6,2.7-.1-.2-.3-.3-.5-.5s-.4-.4-.6-.5c1.4-.7,2.6-1.5,3.5-2.5,1-1,1.7-2,2.4-3.1.6-1.1,1.1-2.2,1.4-3.4.3-1.1.6-2.2.7-3.3.2-1,.2-2,.3-2.8s0-1.5,0-2ZM217.6,191.8c0,.2.1.7.2,1.3,0,.6.2,1.4.5,2.3.2.9.5,1.9.9,2.9.4,1,.9,2,1.5,3,.6,1,1.4,1.9,2.3,2.8.9.9,2,1.6,3.3,2.2-.2.1-.4.3-.5.5-.2.2-.3.4-.4.6-1.3-.6-2.4-1.4-3.4-2.3s-1.7-1.9-2.4-3-1.2-2.2-1.6-3.2c-.4-1.1-.7-2.1-.9-3.1-.2-1-.4-1.8-.5-2.5-.1-.7-.2-1.2-.2-1.5h1.3Z"/>
              <path class="cls-48" d="M241.6,193.4l1.4.4c-.9,2.4-2,4.5-3.3,6.3-1.3,1.8-2.9,3.2-4.7,4.5-1.8,1.2-4,2.2-6.4,3,0-.1-.1-.2-.2-.4s-.2-.3-.3-.5c-.1-.2-.2-.3-.3-.4,2.4-.7,4.5-1.6,6.3-2.8,1.8-1.1,3.3-2.5,4.6-4.2,1.3-1.7,2.3-3.6,3-5.9ZM228,192.8h18v1.3h-18v-1.3ZM232.3,193.5c.8,2.1,1.8,4,3.1,5.7,1.3,1.7,2.9,3.2,4.7,4.4,1.8,1.2,3.9,2.1,6.2,2.7,0,0-.2.2-.3.4-.1.1-.2.3-.3.5-.1.2-.2.3-.3.4-2.4-.7-4.5-1.6-6.3-2.9-1.8-1.3-3.4-2.8-4.7-4.6-1.3-1.8-2.4-3.8-3.3-6.1l1.2-.4ZM235.5,189.5l1.4-.4c.3.5.6,1,.9,1.6s.5,1.1.7,1.5l-1.5.5c-.1-.4-.3-.9-.6-1.5-.3-.6-.6-1.1-.9-1.6Z"/>
              <path class="cls-48" d="M253.9,192.7h.5s.7.5.7.5c-.5,1.2-1.1,2.3-1.8,3.3-.8,1.1-1.6,2-2.5,2.9-.9.9-1.8,1.6-2.7,2.2,0-.1,0-.3-.2-.5,0-.2-.2-.3-.2-.5,0-.2-.2-.3-.2-.4.8-.5,1.7-1.2,2.5-2,.8-.8,1.6-1.6,2.3-2.6.7-.9,1.2-1.9,1.6-2.8v-.3ZM248.1,192.7h6.3v1.2h-6.3v-1.2ZM250.2,189.8l1-.6c.4.4.8.8,1.1,1.3.4.5.7.9.8,1.3l-1.1.7c-.2-.4-.5-.8-.8-1.3-.4-.5-.7-1-1.1-1.4ZM251.1,198.4l1.3-1.6v10.7h-1.3v-9.1ZM252.3,197.2c.1.1.4.3.7.6.3.3.6.6.9.9.3.3.6.6.9.9.3.3.5.5.6.6l-.8,1.1c-.2-.2-.4-.5-.6-.8-.3-.3-.6-.7-.9-1-.3-.3-.6-.7-.9-1-.3-.3-.5-.5-.7-.7l.8-.7ZM254.6,205.4h11.5v1.3h-11.5v-1.3ZM255.6,195.6h10.1v1.3h-10.1v-1.3ZM260,189.1h1.4v17h-1.4v-17Z"/>
              <path class="cls-48" d="M276.9,189.2l1.2.5c-.7.9-1.5,1.7-2.6,2.5s-2.1,1.4-3.3,1.9c-1.2.6-2.4,1-3.6,1.4,0,0-.1-.2-.2-.3,0-.1-.2-.3-.3-.4-.1-.1-.2-.2-.3-.3,1.2-.3,2.4-.8,3.6-1.3,1.2-.5,2.2-1.1,3.2-1.8,1-.7,1.8-1.4,2.4-2.2ZM270.3,195h13.4v5h-13.4v-5ZM271.5,195.9v3.1h11v-3.1h-11ZM271.5,201h11.2v6.5h-1.4v-5.5h-8.5v5.6h-1.3v-6.6ZM272.3,203.4h9.6v1h-9.6v-1ZM272.3,205.9h9.7v1h-9.7v-1ZM272.8,196.5l1-.3c.3.3.5.7.8,1.2s.4.8.5,1.1l-1,.4c0-.3-.2-.7-.5-1.2-.2-.4-.5-.8-.7-1.2ZM273.6,192.9h7v1h-7v-1ZM276.4,195.3h1.1v4.2h-1.1v-4.2ZM277.6,189.8c.5.5,1,1,1.7,1.4.7.4,1.4.9,2.2,1.2.8.4,1.6.7,2.4,1,.8.3,1.7.6,2.5.7-.1.1-.3.3-.5.5-.2.2-.3.4-.4.6-.8-.2-1.6-.5-2.5-.8-.8-.3-1.6-.7-2.4-1.2-.8-.4-1.5-.9-2.2-1.4-.7-.5-1.3-1-1.8-1.6l1-.5ZM280.1,196.1l1.2.4c-.2.4-.5.9-.7,1.3-.2.4-.5.8-.7,1.1l-.9-.3c.2-.3.4-.8.6-1.2s.4-.9.5-1.2Z"/>
              <path class="cls-48" d="M288.1,202.4h17.9v1.2h-17.9v-1.2ZM288.5,196.4h17v3.6h-1.3v-2.5h-14.4v2.5h-1.3v-3.6ZM293.6,189.4l.6.8c-.6.2-1.2.4-2,.6-.7.1-1.4.3-2,.3l-.5-.8c.4,0,.8-.2,1.3-.3s.9-.2,1.4-.4.8-.2,1.2-.3ZM289.8,190.4l1.3.4.4,6.2h-1.3l-.4-6.6ZM290.5,192.1h3.6v1h-3.6v-1ZM290.6,194.2h3.6v1h-3.6v-1ZM291.8,198.9h9.6v1h-9.6v-1ZM296.5,201.5h1.3v4.6c0,.4,0,.6-.1.8-.1.2-.3.3-.6.4-.3,0-.7.1-1.2.2-.5,0-1.2,0-2,0,0-.2,0-.3-.2-.6,0-.2-.2-.4-.3-.6.4,0,.8,0,1.2,0s.7,0,1,0,.5,0,.6,0c.2,0,.3,0,.3,0,0,0,0-.1,0-.3v-4.5ZM298.1,192.8l1,.3c-.5.6-1.1,1.2-1.8,1.8-.7.6-1.4,1.1-2.2,1.5,0,0-.2-.2-.4-.4-.2-.2-.3-.3-.4-.4.7-.3,1.4-.7,2.1-1.2.7-.5,1.2-1,1.6-1.6ZM298,189.4l1,.3c-.5.6-1,1.2-1.7,1.8-.7.6-1.4,1-2,1.4,0,0-.2-.2-.4-.4-.2-.1-.3-.3-.4-.3.7-.3,1.3-.8,2-1.2.7-.5,1.2-1,1.6-1.5ZM294.7,193.7l.7-.6c.5.2.9.5,1.4.7s1,.6,1.4.9c.4.3.8.6,1.1.8l-.7.7c-.3-.3-.6-.6-1-.9-.4-.3-.9-.6-1.4-.9s-1-.6-1.4-.8ZM294.8,190.3l.7-.6c.5.2.9.4,1.4.7.5.3.9.5,1.4.8.4.3.8.5,1,.8l-.7.7c-.3-.2-.6-.5-1-.8-.4-.3-.9-.6-1.3-.8-.5-.3-.9-.5-1.4-.7ZM301,198.9h.6c0,0,.8.6.8.6-.5.4-1,.7-1.6,1-.6.3-1.2.6-1.8.9s-1.2.5-1.8.8c0-.1-.2-.2-.3-.4-.1-.1-.3-.2-.4-.3.5-.2,1.1-.4,1.6-.7.6-.3,1.1-.5,1.6-.8s.9-.6,1.2-.8v-.3ZM299.8,194.2h3.6v1h-3.6v-1ZM299.8,190h3.9v1h-3.9v-1ZM299.9,192.1h3.6v1h-3.6v-1ZM303.1,190h1.3c0,.8,0,1.6-.1,2.4s-.1,1.7-.2,2.5c0,.8-.1,1.5-.2,2.1h-1.3c0-.6.2-1.3.2-2.1s.1-1.6.2-2.5c0-.9,0-1.6.1-2.4Z"/>
              <path class="cls-48" d="M312.9,202l1.3.5c-.4.5-.8,1-1.3,1.6s-1,1-1.6,1.5-1.1.9-1.6,1.2c0,0-.2-.2-.3-.3-.1-.1-.3-.2-.4-.3-.1-.1-.3-.2-.4-.3.8-.5,1.6-1.1,2.4-1.8.8-.7,1.4-1.4,1.9-2.1ZM321.3,189.3l1,1.1c-.8.4-1.7.7-2.8,1.1-1,.3-2.1.7-3.3,1-1.2.3-2.3.6-3.5.8-1.2.3-2.4.5-3.5.7,0-.2,0-.4-.2-.6,0-.2-.2-.4-.2-.5,1.1-.2,2.3-.5,3.4-.7,1.2-.3,2.3-.5,3.4-.8s2.2-.6,3.1-.9c1-.3,1.8-.7,2.5-1ZM309.6,201.7c0-.1,0-.2,0-.4,0-.2-.1-.3-.2-.5,0-.2-.1-.3-.1-.4.3,0,.7-.1,1.1-.3.5-.2,1-.4,1.6-.7.3-.1.8-.4,1.5-.7.7-.3,1.4-.7,2.3-1.2s1.7-1,2.6-1.6c.9-.6,1.8-1.2,2.6-1.8l1,.9c-1.9,1.3-3.8,2.5-5.7,3.5-1.9,1-3.8,1.9-5.7,2.6h0c-.2.1-.4.2-.5.2-.1,0-.2.1-.4.2s-.1.1-.1.2ZM309.6,201.7v-1s.9-.5.9-.5l13.1-.9c0,.2,0,.4,0,.6v.6c-2,.1-3.8.3-5.2.4s-2.7.2-3.7.3-1.8.1-2.4.2-1.1.1-1.5.2-.6,0-.8.1c-.2,0-.3,0-.5.1ZM310.7,197.5c0,0,0-.2,0-.4,0-.2,0-.3-.1-.5s-.1-.3-.1-.4c.2,0,.5,0,.7-.2.3-.1.6-.2.9-.4.2-.1.6-.3,1.1-.7s1.1-.7,1.8-1.2c.6-.4,1.2-.9,1.8-1.4l1.2.8c-1,.8-2,1.5-3.1,2.1-1.1.6-2.1,1.2-3.1,1.6h0c-.2.1-.3.2-.5.2-.1,0-.2.1-.3.2,0,0-.1.1-.1.2ZM310.7,197.5v-1s.8-.4.8-.4l7.5-.4c0,.2,0,.3,0,.6,0,.2,0,.4,0,.5-1.4,0-2.5.2-3.4.2-.9,0-1.7.1-2.3.2s-1,0-1.4.1c-.3,0-.6,0-.7,0-.2,0-.3,0-.4.1ZM316.5,200.1h1.4v5.7c0,.4,0,.7-.2.9-.1.2-.3.4-.6.5-.3.1-.7.2-1.2.2s-1.1,0-1.9,0c0-.2-.1-.4-.2-.7-.1-.3-.2-.5-.3-.7.4,0,.8,0,1.2,0,.4,0,.7,0,.9,0,.3,0,.4,0,.5,0,.2,0,.3,0,.3,0,0,0,0-.1,0-.2v-5.7ZM319.8,202.5l1-.7c.5.4,1.1.9,1.7,1.3.6.5,1.1,1,1.7,1.4.5.5,1,.9,1.3,1.3l-1.1.8c-.3-.4-.7-.8-1.2-1.3-.5-.5-1.1-1-1.6-1.5s-1.1-1-1.7-1.4ZM320.4,197.2l1.1-.5c.5.5,1,.9,1.5,1.5.5.5,1,1.1,1.5,1.6.5.5.8,1,1.1,1.4l-1.1.7c-.3-.4-.6-.9-1.1-1.4s-.9-1.1-1.5-1.6c-.5-.5-1-1.1-1.5-1.5Z"/>
            </g>
          </g>
        </g>
        <rect class="cls-49" x="208" y="188" width="118" height="22"/>
      </g>
      <g id="c258">
        <g id="tx__zk201rht5hxn-fill">
          <g class="cls-36">
            <g class="cls-36">
              <path class="cls-48" d="M212.7,160.5l1,.6c-.4.7-.8,1.4-1.4,2.1s-1.2,1.4-1.8,2c-.7.6-1.3,1.2-1.9,1.6-.1-.2-.2-.4-.4-.6-.2-.2-.3-.4-.5-.5.6-.4,1.2-.8,1.9-1.4s1.3-1.2,1.8-1.9,1-1.4,1.4-2ZM214,153.3l1.1.8c-.5.7-1.1,1.5-1.8,2.2-.7.7-1.4,1.5-2.2,2.1-.8.7-1.6,1.3-2.4,1.8-.1-.1-.2-.3-.4-.5-.2-.2-.3-.3-.5-.4.8-.5,1.6-1.1,2.4-1.8.8-.7,1.5-1.4,2.1-2.1.7-.7,1.2-1.4,1.6-2.1ZM208.3,154.2l.9-.8c1.1.8,2,1.6,2.6,2.5.7.9,1.1,1.7,1.5,2.6.3.9.5,1.8.6,2.7.1.9.2,1.9.2,2.8s0,2-.1,2.8c0,.9-.2,1.6-.4,2.3-.2.7-.4,1.2-.7,1.6-.1.2-.3.4-.5.5-.2.1-.4.2-.7.2-.4,0-.9.1-1.3.1-.5,0-1,0-1.5,0,0-.2,0-.4-.1-.7,0-.2-.2-.5-.3-.7.6,0,1.1,0,1.6,0s.9,0,1.1,0c.2,0,.3,0,.4-.1.1,0,.2-.2.3-.3.3-.4.5-1.1.6-2.1s.2-2.2.2-3.6,0-1.8-.2-2.7c-.1-.9-.3-1.7-.6-2.5-.3-.8-.8-1.6-1.4-2.4s-1.4-1.5-2.4-2.3ZM216.3,154.8h1.4v14c0,.4,0,.6.1.8s.2.3.4.4c.2,0,.5.1.9.1h4.4c.4,0,.7,0,.9-.3.2-.2.3-.5.4-1,0-.5.1-1.2.2-2.1.2.1.4.2.6.3.2.1.5.2.7.2,0,1-.2,1.8-.4,2.4-.2.6-.4,1-.8,1.3-.4.3-.9.4-1.6.4h-4.6c-.7,0-1.2,0-1.6-.2-.4-.1-.7-.4-.9-.8-.2-.4-.2-.9-.2-1.6v-14ZM216.8,154.8h7.5v1.3h-7.5v-1.3ZM223.6,154.8h1.3v7.2c0,.4,0,.7-.2.9s-.3.4-.6.5c-.3.1-.8.2-1.4.2-.6,0-1.4,0-2.3,0,0-.2,0-.4-.2-.7,0-.2-.2-.5-.2-.7.5,0,1,0,1.4,0,.4,0,.8,0,1.1,0s.5,0,.6,0c.2,0,.3,0,.4,0,0,0,0-.1,0-.3v-7.2Z"/>
              <path class="cls-48" d="M228,167.4c.8-.1,1.8-.2,3-.4s2.4-.3,3.6-.5v1.1c-1.1.2-2.3.4-3.4.5-1.1.2-2.1.3-3,.5l-.2-1.2ZM228.7,160.8h6.1v1.2h-6.1v-1.2ZM229,154.1h16.1v5h-16.1v-5ZM229.2,163.8h5.6v1.1h-5.6v-1.1ZM234.3,159.5h1.3v5.5c0,.8,0,1.5-.2,2.1s-.4,1.3-.8,1.8c-.4.6-.9,1.1-1.6,1.5-.7.5-1.7.9-2.8,1.2,0-.1-.2-.3-.4-.5-.2-.2-.3-.4-.4-.5,1.1-.3,2-.7,2.6-1.1.7-.4,1.2-.9,1.5-1.3.3-.5.6-1,.7-1.6.1-.6.2-1.1.2-1.8v-5.5ZM230.3,155.2v2.8h3.6v-2.8h-3.6ZM235.1,155.2v2.8h3.7v-2.8h-3.7ZM238.4,159.5h1.4v12.1h-1.4v-12.1ZM239.2,166.9h6.9v1.3h-6.9v-1.3ZM239.2,163.8h6v1.2h-6v-1.2ZM239.2,160.8h6.5v1.2h-6.5v-1.2ZM240.1,155.2v2.8h3.7v-2.8h-3.7Z"/>
              <path class="cls-48" d="M248.7,154.1h5.1v1.2h-3.8v16.3h-1.3v-17.5ZM253.4,154.1h.4c0,0,.9.5.9.5-.2.6-.4,1.2-.7,1.8s-.5,1.3-.8,1.9-.5,1.2-.8,1.8c.8.9,1.3,1.7,1.6,2.4.3.7.4,1.4.4,2.1s0,1-.2,1.4c-.1.4-.3.7-.6.9-.1.1-.3.2-.5.2-.2,0-.4.1-.6.1-.2,0-.5,0-.7,0s-.5,0-.8,0c0-.2,0-.4-.1-.6s-.1-.4-.2-.6c.3,0,.5,0,.7,0h.6c.3,0,.5,0,.7-.2.2-.1.3-.3.3-.6,0-.3,0-.6,0-.9,0-.6-.1-1.2-.4-1.9-.3-.7-.8-1.5-1.6-2.3.2-.5.4-1,.6-1.5.2-.5.4-1,.6-1.5.2-.5.4-1,.5-1.5.2-.5.3-.9.4-1.2v-.4ZM257.7,157.3h1.3c0,1.5-.1,3-.2,4.4-.1,1.4-.4,2.7-.7,4-.4,1.2-.9,2.3-1.6,3.3-.7,1-1.7,1.8-2.9,2.5,0-.2-.2-.3-.4-.5-.2-.2-.3-.3-.5-.5,1.2-.6,2.1-1.4,2.7-2.3.7-.9,1.2-2,1.5-3.1.3-1.1.5-2.4.6-3.7,0-1.3.2-2.7.2-4.1ZM254.4,156.6h11.6v1.3h-11.6v-1.3ZM258.3,161.1h5.7v1.2h-5.7v-1.2ZM259,153.6l1.2-.3c.2.5.4,1,.6,1.5.2.6.3,1,.4,1.4l-1.3.4c0-.4-.2-.9-.4-1.4-.2-.6-.4-1.1-.5-1.6ZM263.5,161.1h1.3v.6c0,1.6-.1,2.9-.2,4,0,1.1-.1,2-.2,2.7,0,.7-.2,1.3-.3,1.7-.1.4-.2.7-.4.9-.2.2-.3.4-.6.4-.2,0-.5.1-.8.2-.3,0-.7,0-1.2,0s-1,0-1.6,0c0-.2,0-.4-.1-.7,0-.2-.2-.5-.3-.7.6,0,1.1,0,1.6.1.5,0,.8,0,1,0,.3,0,.6,0,.8-.3.1-.2.3-.6.4-1.2.1-.6.2-1.5.3-2.7,0-1.2.2-2.8.2-4.8v-.3Z"/>
              <path class="cls-48" d="M267.9,159.9l.7-1c.4.2.9.4,1.3.6.5.2.9.5,1.3.7.4.2.8.5,1,.7l-.7,1.1c-.3-.2-.6-.4-1-.7-.4-.3-.9-.5-1.3-.8-.5-.3-.9-.5-1.3-.7ZM268.4,170.4c.4-.5.8-1.1,1.2-1.8s.9-1.5,1.3-2.3.9-1.6,1.3-2.3l1,.9c-.3.7-.7,1.4-1.2,2.2-.4.8-.8,1.5-1.3,2.3-.4.7-.8,1.4-1.2,2l-1.1-.9ZM269.1,154.4l.8-1c.4.2.9.4,1.4.7.5.3.9.5,1.4.8.4.2.8.5,1.1.7l-.8,1.1c-.3-.2-.6-.5-1.1-.7-.4-.3-.9-.5-1.4-.8s-.9-.5-1.4-.7ZM273.6,161.9c0,0,0-.2-.1-.4s-.1-.3-.2-.5c0-.2-.1-.3-.2-.4.2,0,.4-.2.6-.4.2-.2.5-.5.8-.9.1-.2.4-.5.6-.9.3-.4.6-.9.9-1.4.4-.6.7-1.2,1.1-1.8.4-.6.7-1.3,1-2l1.4.4c-.5.9-1,1.8-1.6,2.7-.6.9-1.1,1.8-1.7,2.6-.6.8-1.1,1.5-1.7,2.2h0c-.2.1-.4.2-.5.3-.1,0-.2.2-.4.2-.1,0-.2.2-.2.2ZM273.6,161.9v-1.1s.9-.5.9-.5l9.5-.6c0,.2,0,.4.1.6,0,.2.1.4.1.6-1.8.1-3.3.2-4.5.3-1.2,0-2.2.1-3,.2-.8,0-1.3.1-1.8.1-.4,0-.7,0-.9.1-.2,0-.3,0-.5.1ZM274.4,163.6h10.1v7.9h-1.4v-6.7h-7.5v6.8h-1.3v-8ZM275.2,169.4h8.8v1.3h-8.8v-1.3ZM280.5,156.5l1.1-.6c.5.6,1.1,1.2,1.6,1.9.6.7,1.1,1.4,1.5,2,.5.7.8,1.2,1.1,1.8l-1.2.7c-.3-.5-.6-1.1-1.1-1.8-.5-.7-1-1.4-1.5-2.1-.5-.7-1.1-1.3-1.6-1.9Z"/>
              <path class="cls-48" d="M288.1,166.4h17.9v1.2h-17.9v-1.2ZM288.5,160.4h17v3.6h-1.3v-2.5h-14.4v2.5h-1.3v-3.6ZM293.6,153.4l.6.8c-.6.2-1.2.4-2,.6-.7.1-1.4.3-2,.3l-.5-.8c.4,0,.8-.2,1.3-.3s.9-.2,1.4-.4.8-.2,1.2-.3ZM289.8,154.4l1.3.4.4,6.2h-1.3l-.4-6.6ZM290.5,156.1h3.6v1h-3.6v-1ZM290.6,158.2h3.6v1h-3.6v-1ZM291.8,162.9h9.6v1h-9.6v-1ZM296.5,165.5h1.3v4.6c0,.4,0,.6-.1.8-.1.2-.3.3-.6.4-.3,0-.7.1-1.2.2-.5,0-1.2,0-2,0,0-.2,0-.3-.2-.6,0-.2-.2-.4-.3-.6.4,0,.8,0,1.2,0s.7,0,1,0,.5,0,.6,0c.2,0,.3,0,.3,0,0,0,0-.1,0-.3v-4.5ZM298.1,156.8l1,.3c-.5.6-1.1,1.2-1.8,1.8-.7.6-1.4,1.1-2.2,1.5,0,0-.2-.2-.4-.4-.2-.2-.3-.3-.4-.4.7-.3,1.4-.7,2.1-1.2.7-.5,1.2-1,1.6-1.6ZM298,153.4l1,.3c-.5.6-1,1.2-1.7,1.8-.7.6-1.4,1-2,1.4,0,0-.2-.2-.4-.4-.2-.1-.3-.3-.4-.3.7-.3,1.3-.8,2-1.2.7-.5,1.2-1,1.6-1.5ZM294.7,157.7l.7-.6c.5.2.9.5,1.4.7s1,.6,1.4.9c.4.3.8.6,1.1.8l-.7.7c-.3-.3-.6-.6-1-.9-.4-.3-.9-.6-1.4-.9s-1-.6-1.4-.8ZM294.8,154.3l.7-.6c.5.2.9.4,1.4.7.5.3.9.5,1.4.8.4.3.8.5,1,.8l-.7.7c-.3-.2-.6-.5-1-.8-.4-.3-.9-.6-1.3-.8-.5-.3-.9-.5-1.4-.7ZM301,162.9h.6c0,0,.8.6.8.6-.5.4-1,.7-1.6,1-.6.3-1.2.6-1.8.9s-1.2.5-1.8.8c0-.1-.2-.2-.3-.4-.1-.1-.3-.2-.4-.3.5-.2,1.1-.4,1.6-.7.6-.3,1.1-.5,1.6-.8s.9-.6,1.2-.8v-.3ZM299.8,158.2h3.6v1h-3.6v-1ZM299.8,154h3.9v1h-3.9v-1ZM299.9,156.1h3.6v1h-3.6v-1ZM303.1,154h1.3c0,.8,0,1.6-.1,2.4s-.1,1.7-.2,2.5c0,.8-.1,1.5-.2,2.1h-1.3c0-.6.2-1.3.2-2.1s.1-1.6.2-2.5c0-.9,0-1.6.1-2.4Z"/>
              <path class="cls-48" d="M312.9,166l1.3.5c-.4.5-.8,1-1.3,1.6s-1,1-1.6,1.5-1.1.9-1.6,1.2c0,0-.2-.2-.3-.3-.1-.1-.3-.2-.4-.3-.1-.1-.3-.2-.4-.3.8-.5,1.6-1.1,2.4-1.8.8-.7,1.4-1.4,1.9-2.1ZM321.3,153.3l1,1.1c-.8.4-1.7.7-2.8,1.1-1,.3-2.1.7-3.3,1-1.2.3-2.3.6-3.5.8-1.2.3-2.4.5-3.5.7,0-.2,0-.4-.2-.6,0-.2-.2-.4-.2-.5,1.1-.2,2.3-.5,3.4-.7,1.2-.3,2.3-.5,3.4-.8s2.2-.6,3.1-.9c1-.3,1.8-.7,2.5-1ZM309.6,165.7c0-.1,0-.2,0-.4,0-.2-.1-.3-.2-.5,0-.2-.1-.3-.1-.4.3,0,.7-.1,1.1-.3.5-.2,1-.4,1.6-.7.3-.1.8-.4,1.5-.7.7-.3,1.4-.7,2.3-1.2s1.7-1,2.6-1.6c.9-.6,1.8-1.2,2.6-1.8l1,.9c-1.9,1.3-3.8,2.5-5.7,3.5-1.9,1-3.8,1.9-5.7,2.6h0c-.2.1-.4.2-.5.2-.1,0-.2.1-.4.2s-.1.1-.1.2ZM309.6,165.7v-1s.9-.5.9-.5l13.1-.9c0,.2,0,.4,0,.6v.6c-2,.1-3.8.3-5.2.4s-2.7.2-3.7.3-1.8.1-2.4.2-1.1.1-1.5.2-.6,0-.8.1c-.2,0-.3,0-.5.1ZM310.7,161.5c0,0,0-.2,0-.4,0-.2,0-.3-.1-.5s-.1-.3-.1-.4c.2,0,.5,0,.7-.2.3-.1.6-.2.9-.4.2-.1.6-.3,1.1-.7s1.1-.7,1.8-1.2c.6-.4,1.2-.9,1.8-1.4l1.2.8c-1,.8-2,1.5-3.1,2.1-1.1.6-2.1,1.2-3.1,1.6h0c-.2.1-.3.2-.5.2-.1,0-.2.1-.3.2,0,0-.1.1-.1.2ZM310.7,161.5v-1s.8-.4.8-.4l7.5-.4c0,.2,0,.3,0,.6,0,.2,0,.4,0,.5-1.4,0-2.5.2-3.4.2-.9,0-1.7.1-2.3.2s-1,0-1.4.1c-.3,0-.6,0-.7,0-.2,0-.3,0-.4.1ZM316.5,164.1h1.4v5.7c0,.4,0,.7-.2.9-.1.2-.3.4-.6.5-.3.1-.7.2-1.2.2s-1.1,0-1.9,0c0-.2-.1-.4-.2-.7-.1-.3-.2-.5-.3-.7.4,0,.8,0,1.2,0,.4,0,.7,0,.9,0,.3,0,.4,0,.5,0,.2,0,.3,0,.3,0,0,0,0-.1,0-.2v-5.7ZM319.8,166.5l1-.7c.5.4,1.1.9,1.7,1.3.6.5,1.1,1,1.7,1.4.5.5,1,.9,1.3,1.3l-1.1.8c-.3-.4-.7-.8-1.2-1.3-.5-.5-1.1-1-1.6-1.5s-1.1-1-1.7-1.4ZM320.4,161.2l1.1-.5c.5.5,1,.9,1.5,1.5.5.5,1,1.1,1.5,1.6.5.5.8,1,1.1,1.4l-1.1.7c-.3-.4-.6-.9-1.1-1.4s-.9-1.1-1.5-1.6c-.5-.5-1-1.1-1.5-1.5Z"/>
            </g>
          </g>
        </g>
        <rect class="cls-49" x="206" y="153" width="120" height="21"/>
      </g>
      <g id="c81">
        <g id="tx__1cviif3ht5gcq-fill">
          <g class="cls-36">
            <g class="cls-36">
              <path class="cls-48" d="M253.9,120.7h.5s.7.5.7.5c-.5,1.2-1.1,2.3-1.8,3.3-.8,1.1-1.6,2-2.5,2.9-.9.9-1.8,1.6-2.7,2.2,0-.1,0-.3-.2-.5,0-.2-.2-.3-.2-.5,0-.2-.2-.3-.2-.4.8-.5,1.7-1.2,2.5-2,.8-.8,1.6-1.6,2.3-2.6.7-.9,1.2-1.9,1.6-2.8v-.3ZM248.1,120.7h6.3v1.2h-6.3v-1.2ZM250.2,117.8l1-.6c.4.4.8.8,1.1,1.3.4.5.7.9.8,1.3l-1.1.7c-.2-.4-.5-.8-.8-1.3-.4-.5-.7-1-1.1-1.4ZM251.1,126.4l1.3-1.6v10.7h-1.3v-9.1ZM252.3,125.2c.1.1.4.3.7.6.3.3.6.6.9.9.3.3.6.6.9.9.3.3.5.5.6.6l-.8,1.1c-.2-.2-.4-.5-.6-.8-.3-.3-.6-.7-.9-1-.3-.3-.6-.7-.9-1-.3-.3-.5-.5-.7-.7l.8-.7ZM254.6,133.4h11.5v1.3h-11.5v-1.3ZM255.6,123.6h10.1v1.3h-10.1v-1.3ZM260,117.1h1.4v17h-1.4v-17Z"/>
              <path class="cls-48" d="M276.9,117.2l1.2.5c-.7.9-1.5,1.7-2.6,2.5s-2.1,1.4-3.3,1.9c-1.2.6-2.4,1-3.6,1.4,0,0-.1-.2-.2-.3,0-.1-.2-.3-.3-.4-.1-.1-.2-.2-.3-.3,1.2-.3,2.4-.8,3.6-1.3,1.2-.5,2.2-1.1,3.2-1.8,1-.7,1.8-1.4,2.4-2.2ZM270.3,123h13.4v5h-13.4v-5ZM271.5,123.9v3.1h11v-3.1h-11ZM271.5,129h11.2v6.5h-1.4v-5.5h-8.5v5.6h-1.3v-6.6ZM272.3,131.4h9.6v1h-9.6v-1ZM272.3,133.9h9.7v1h-9.7v-1ZM272.8,124.5l1-.3c.3.3.5.7.8,1.2s.4.8.5,1.1l-1,.4c0-.3-.2-.7-.5-1.2-.2-.4-.5-.8-.7-1.2ZM273.6,120.9h7v1h-7v-1ZM276.4,123.3h1.1v4.2h-1.1v-4.2ZM277.6,117.8c.5.5,1,1,1.7,1.4.7.4,1.4.9,2.2,1.2.8.4,1.6.7,2.4,1,.8.3,1.7.6,2.5.7-.1.1-.3.3-.5.5-.2.2-.3.4-.4.6-.8-.2-1.6-.5-2.5-.8-.8-.3-1.6-.7-2.4-1.2-.8-.4-1.5-.9-2.2-1.4-.7-.5-1.3-1-1.8-1.6l1-.5ZM280.1,124.1l1.2.4c-.2.4-.5.9-.7,1.3-.2.4-.5.8-.7,1.1l-.9-.3c.2-.3.4-.8.6-1.2s.4-.9.5-1.2Z"/>
              <path class="cls-48" d="M288.1,130.4h17.9v1.2h-17.9v-1.2ZM288.5,124.4h17v3.6h-1.3v-2.5h-14.4v2.5h-1.3v-3.6ZM293.6,117.4l.6.8c-.6.2-1.2.4-2,.6-.7.1-1.4.3-2,.3l-.5-.8c.4,0,.8-.2,1.3-.3s.9-.2,1.4-.4.8-.2,1.2-.3ZM289.8,118.4l1.3.4.4,6.2h-1.3l-.4-6.6ZM290.5,120.1h3.6v1h-3.6v-1ZM290.6,122.2h3.6v1h-3.6v-1ZM291.8,126.9h9.6v1h-9.6v-1ZM296.5,129.5h1.3v4.6c0,.4,0,.6-.1.8-.1.2-.3.3-.6.4-.3,0-.7.1-1.2.2-.5,0-1.2,0-2,0,0-.2,0-.3-.2-.6,0-.2-.2-.4-.3-.6.4,0,.8,0,1.2,0s.7,0,1,0,.5,0,.6,0c.2,0,.3,0,.3,0,0,0,0-.1,0-.3v-4.5ZM298.1,120.8l1,.3c-.5.6-1.1,1.2-1.8,1.8-.7.6-1.4,1.1-2.2,1.5,0,0-.2-.2-.4-.4-.2-.2-.3-.3-.4-.4.7-.3,1.4-.7,2.1-1.2.7-.5,1.2-1,1.6-1.6ZM298,117.4l1,.3c-.5.6-1,1.2-1.7,1.8-.7.6-1.4,1-2,1.4,0,0-.2-.2-.4-.4-.2-.1-.3-.3-.4-.3.7-.3,1.3-.8,2-1.2.7-.5,1.2-1,1.6-1.5ZM294.7,121.7l.7-.6c.5.2.9.5,1.4.7s1,.6,1.4.9c.4.3.8.6,1.1.8l-.7.7c-.3-.3-.6-.6-1-.9-.4-.3-.9-.6-1.4-.9s-1-.6-1.4-.8ZM294.8,118.3l.7-.6c.5.2.9.4,1.4.7.5.3.9.5,1.4.8.4.3.8.5,1,.8l-.7.7c-.3-.2-.6-.5-1-.8-.4-.3-.9-.6-1.3-.8-.5-.3-.9-.5-1.4-.7ZM301,126.9h.6c0,0,.8.6.8.6-.5.4-1,.7-1.6,1-.6.3-1.2.6-1.8.9s-1.2.5-1.8.8c0-.1-.2-.2-.3-.4-.1-.1-.3-.2-.4-.3.5-.2,1.1-.4,1.6-.7.6-.3,1.1-.5,1.6-.8s.9-.6,1.2-.8v-.3ZM299.8,122.2h3.6v1h-3.6v-1ZM299.8,118h3.9v1h-3.9v-1ZM299.9,120.1h3.6v1h-3.6v-1ZM303.1,118h1.3c0,.8,0,1.6-.1,2.4s-.1,1.7-.2,2.5c0,.8-.1,1.5-.2,2.1h-1.3c0-.6.2-1.3.2-2.1s.1-1.6.2-2.5c0-.9,0-1.6.1-2.4Z"/>
              <path class="cls-48" d="M312.9,130l1.3.5c-.4.5-.8,1-1.3,1.6s-1,1-1.6,1.5-1.1.9-1.6,1.2c0,0-.2-.2-.3-.3-.1-.1-.3-.2-.4-.3-.1-.1-.3-.2-.4-.3.8-.5,1.6-1.1,2.4-1.8.8-.7,1.4-1.4,1.9-2.1ZM321.3,117.3l1,1.1c-.8.4-1.7.7-2.8,1.1-1,.3-2.1.7-3.3,1-1.2.3-2.3.6-3.5.8-1.2.3-2.4.5-3.5.7,0-.2,0-.4-.2-.6,0-.2-.2-.4-.2-.5,1.1-.2,2.3-.5,3.4-.7,1.2-.3,2.3-.5,3.4-.8s2.2-.6,3.1-.9c1-.3,1.8-.7,2.5-1ZM309.6,129.7c0-.1,0-.2,0-.4,0-.2-.1-.3-.2-.5,0-.2-.1-.3-.1-.4.3,0,.7-.1,1.1-.3.5-.2,1-.4,1.6-.7.3-.1.8-.4,1.5-.7.7-.3,1.4-.7,2.3-1.2s1.7-1,2.6-1.6c.9-.6,1.8-1.2,2.6-1.8l1,.9c-1.9,1.3-3.8,2.5-5.7,3.5-1.9,1-3.8,1.9-5.7,2.6h0c-.2.1-.4.2-.5.2-.1,0-.2.1-.4.2s-.1.1-.1.2ZM309.6,129.7v-1s.9-.5.9-.5l13.1-.9c0,.2,0,.4,0,.6v.6c-2,.1-3.8.3-5.2.4s-2.7.2-3.7.3-1.8.1-2.4.2-1.1.1-1.5.2-.6,0-.8.1c-.2,0-.3,0-.5.1ZM310.7,125.5c0,0,0-.2,0-.4,0-.2,0-.3-.1-.5s-.1-.3-.1-.4c.2,0,.5,0,.7-.2.3-.1.6-.2.9-.4.2-.1.6-.3,1.1-.7s1.1-.7,1.8-1.2c.6-.4,1.2-.9,1.8-1.4l1.2.8c-1,.8-2,1.5-3.1,2.1-1.1.6-2.1,1.2-3.1,1.6h0c-.2.1-.3.2-.5.2-.1,0-.2.1-.3.2,0,0-.1.1-.1.2ZM310.7,125.5v-1s.8-.4.8-.4l7.5-.4c0,.2,0,.3,0,.6,0,.2,0,.4,0,.5-1.4,0-2.5.2-3.4.2-.9,0-1.7.1-2.3.2s-1,0-1.4.1c-.3,0-.6,0-.7,0-.2,0-.3,0-.4.1ZM316.5,128.1h1.4v5.7c0,.4,0,.7-.2.9-.1.2-.3.4-.6.5-.3.1-.7.2-1.2.2s-1.1,0-1.9,0c0-.2-.1-.4-.2-.7-.1-.3-.2-.5-.3-.7.4,0,.8,0,1.2,0,.4,0,.7,0,.9,0,.3,0,.4,0,.5,0,.2,0,.3,0,.3,0,0,0,0-.1,0-.2v-5.7ZM319.8,130.5l1-.7c.5.4,1.1.9,1.7,1.3.6.5,1.1,1,1.7,1.4.5.5,1,.9,1.3,1.3l-1.1.8c-.3-.4-.7-.8-1.2-1.3-.5-.5-1.1-1-1.6-1.5s-1.1-1-1.7-1.4ZM320.4,125.2l1.1-.5c.5.5,1,.9,1.5,1.5.5.5,1,1.1,1.5,1.6.5.5.8,1,1.1,1.4l-1.1.7c-.3-.4-.6-.9-1.1-1.4s-.9-1.1-1.5-1.6c-.5-.5-1-1.1-1.5-1.5Z"/>
            </g>
          </g>
        </g>
        <rect class="cls-49" x="246" y="116" width="80" height="21"/>
      </g>
      <g id="b23">
        <g id="g-root-ro_1lqj1kvht5ipt-fill">
          <g id="ro_1lqj1kvht5ipt-fill">
            <path class="cls-9" d="M642.6,68h125.8s12.6,0,12.6,12v30s0,12-12.6,12h-125.8s-12.6,0-12.6-12v-30s0-12,12.6-12"/>
          </g>
        </g>
        <g id="g-root-tx__1um61trht5h5b-fill">
          <g id="tx__1um61trht5h5b-fill">
            <g class="cls-36">
              <g class="cls-36">
                <path class="cls-31" d="M686.6,99.5c.5-.2,1.2-.4,1.9-.7.7-.3,1.5-.6,2.2-.9.8-.3,1.6-.7,2.4-1l.4,1.7c-1.1.5-2.1,1-3.2,1.5-1.1.5-2.1.9-2.9,1.3l-.8-1.9ZM687,90.9h6.1v1.8h-6.1v-1.8ZM689.3,86.4h1.8v13.1h-1.8v-13.1ZM692.4,94.3l10.6-4.5.7,1.6-10.6,4.6-.7-1.7ZM694.5,88h1.8v13.2c0,.4,0,.7.1.9,0,.2.2.3.4.4.2,0,.5,0,1,0h4.4c.4,0,.7,0,.8-.2.2-.1.3-.4.4-.8s.2-.9.2-1.7c.2.1.5.3.8.4.3.1.6.2.9.3,0,.9-.2,1.7-.4,2.2s-.5.9-.9,1.2-1,.3-1.7.3h-4.7c-.8,0-1.5,0-1.9-.3-.5-.2-.8-.5-1-.9-.2-.4-.3-1.1-.3-1.9v-13.2ZM698.6,86.1h1.8v14h-1.8v-14ZM702.5,90.3h-.2l.7-.5,1.4.5v.3c-.1.9-.2,1.9-.3,3,0,1.1-.2,2.1-.3,3.1-.1,1-.3,1.9-.4,2.7l-1.5-.4c0-.5.2-1.2.2-1.8,0-.7.1-1.4.2-2.2,0-.8.1-1.6.1-2.3,0-.8,0-1.5.1-2.2Z"/>
                <path class="cls-31" d="M706.6,100.8c.6-.1,1.2-.3,1.9-.5.7-.2,1.5-.4,2.2-.7.8-.3,1.6-.5,2.4-.8l.3,1.8c-1.1.4-2.2.7-3.3,1.1s-2.1.7-3,1l-.5-1.9ZM706.8,87.4h6.4v1.8h-6.4v-1.8ZM707,93.2h5.9v1.7h-5.9v-1.7ZM709.2,88.1h1.8v12.3l-1.8.3v-12.7ZM712.5,102.3h12.9v1.7h-12.9v-1.7ZM713.9,98.2h10.8v1.7h-10.8v-1.7ZM714.1,87h10.4v9.1h-10.4v-9.1ZM715.8,88.6v2.2h6.8v-2.2h-6.8ZM715.8,92.3v2.2h6.8v-2.2h-6.8ZM718.5,87.7h1.6v7.6h.1v7.7h-1.9v-7.7h.2v-7.6Z"/>
                <path class="cls-31" d="M727,99.3h18v1.5h-18v-1.5ZM727.4,93.3h17.3v3.9h-1.9v-2.5h-13.6v2.5h-1.8v-3.9ZM732.5,86.3l.8,1.1c-.6.2-1.3.4-2,.6-.8.2-1.5.3-2,.4l-.7-1.1c.4,0,.8-.2,1.3-.3.5-.1,1-.2,1.4-.4s.9-.3,1.2-.4ZM728.6,87.3l1.8.5.4,6.2h-1.8l-.4-6.7ZM729.5,89h3.7v1.2h-3.7v-1.2ZM729.6,91.1h3.7v1.2h-3.7v-1.2ZM730.8,95.8h9.2v1.4h-9.2v-1.4ZM735.3,98.6h1.9v4.2c0,.5,0,.8-.2,1-.1.2-.4.4-.7.6-.4.1-.8.2-1.4.2-.5,0-1.2,0-2,0,0-.2-.1-.5-.2-.8-.1-.3-.2-.6-.4-.8.4,0,.8,0,1.1,0,.4,0,.7,0,.9,0h.5c.2,0,.3,0,.3,0,0,0,0-.1,0-.3v-4.2ZM736.9,89.6l1.3.4c-.5.7-1.1,1.3-1.8,1.8-.7.6-1.4,1.1-2.2,1.5,0-.1-.2-.3-.5-.5-.2-.2-.4-.4-.5-.5.7-.3,1.4-.7,2.1-1.2.7-.5,1.2-1,1.6-1.5ZM736.9,86.3l1.3.4c-.4.6-1,1.2-1.7,1.7s-1.4,1-2,1.4c-.1-.1-.3-.3-.5-.5s-.4-.3-.6-.4c.7-.3,1.4-.7,2-1.2.6-.4,1.1-.9,1.5-1.4ZM733.7,90.6l.9-.8c.5.2.9.5,1.4.7.5.3.9.6,1.4.9.4.3.8.6,1.1.8l-1,.9c-.3-.3-.6-.5-1-.8-.4-.3-.9-.6-1.4-.9-.5-.3-.9-.6-1.4-.8ZM733.8,87.3l.9-.8c.4.2.9.4,1.3.7.5.3.9.5,1.3.8s.8.5,1,.8l-.9.9c-.3-.2-.6-.5-1-.8s-.8-.6-1.3-.8c-.5-.3-.9-.5-1.4-.7ZM739.5,95.8h.9c0,0,1.1.9,1.1.9-.5.4-1,.7-1.6,1.1s-1.2.7-1.8,1c-.6.3-1.2.6-1.8.8-.1-.2-.2-.3-.4-.5s-.3-.3-.5-.5c.5-.2,1-.4,1.6-.7s1-.6,1.5-.9.8-.6,1.1-.8v-.3ZM738.7,86.8h3.8v1.2h-3.8v-1.2ZM738.8,91.1h3.5v1.2h-3.5v-1.2ZM738.9,89h3.5v1.2h-3.5v-1.2ZM741.8,86.8h1.8c0,.8,0,1.6-.1,2.5s-.1,1.7-.2,2.6c0,.8-.1,1.5-.2,2.1h-1.8c0-.6.2-1.4.2-2.2,0-.8.1-1.7.2-2.6,0-.9,0-1.7.1-2.5Z"/>
                <path class="cls-31" d="M749,92.5l1.2.4c-.3.7-.6,1.3-1.1,2s-.9,1.2-1.4,1.6c-.1-.2-.3-.4-.5-.7-.2-.2-.4-.4-.6-.6.3-.2.6-.4,1-.7.3-.3.6-.6.9-1,.3-.4.5-.7.7-1ZM750.4,96.1h1.6v2.1c0,.5,0,1.1-.1,1.7s-.3,1.2-.6,1.7-.7,1.1-1.3,1.6c-.6.5-1.4,1-2.4,1.4,0-.1-.2-.3-.3-.5-.1-.2-.2-.3-.4-.5s-.3-.3-.4-.4c.9-.3,1.5-.7,2-1.1s.9-.8,1.1-1.3c.3-.4.4-.9.5-1.3,0-.5.1-.9.1-1.3v-2ZM746.9,90.5h8.7v1.5h-8.7v-1.5ZM746.9,97.8h8.8v1.6h-8.8v-1.6ZM747.3,87.3l1.3-.5c.2.4.5.8.7,1.2.2.4.4.8.4,1.2l-1.4.6c0-.3-.2-.7-.4-1.2s-.4-.9-.7-1.3ZM750.5,86.2h1.7v9.4h-1.7v-9.4ZM750.5,101.1l1-1.2c.4.2.9.5,1.3.8.5.3.9.6,1.4.9.4.3.8.6,1.1.8l-1,1.3c-.3-.2-.6-.5-1-.8-.4-.3-.9-.6-1.4-1-.5-.3-.9-.6-1.3-.9ZM753.2,92.6c.1,0,.3.2.6.4.3.2.5.4.8.6.3.2.5.4.8.6.2.2.4.3.5.4l-1,1.2c-.1-.2-.3-.4-.5-.6-.2-.2-.5-.5-.7-.7-.3-.3-.5-.5-.7-.7-.2-.2-.4-.4-.6-.5l1-.7ZM752.7,96.5l1.1-.7c.3.2.5.5.8.8.3.3.5.6.6.8l-1.1.8c-.1-.2-.3-.5-.6-.8-.3-.3-.5-.6-.8-.8ZM753.8,86.9l1.6.4c-.2.5-.5.9-.7,1.4s-.5.8-.7,1.2l-1.2-.4c.2-.4.4-.8.6-1.3.2-.5.4-.9.5-1.3ZM758.5,101.1l1.6,1c-.3.3-.7.7-1.1,1-.4.3-.9.7-1.3,1s-.9.5-1.4.8c-.1-.2-.3-.4-.6-.6-.2-.2-.5-.4-.6-.6.4-.2.9-.4,1.3-.7.4-.3.8-.6,1.2-.9.4-.3.7-.6.9-.9ZM755.8,87h9.4v1.6h-9.4v-1.6ZM756.5,90.3h8v10.5h-8v-10.5ZM758.2,91.7v1.6h4.5v-1.6h-4.5ZM758.2,94.7v1.6h4.5v-1.6h-4.5ZM758.2,97.7v1.7h4.5v-1.7h-4.5ZM759.4,87.9l2.1.3c-.2.6-.4,1.2-.6,1.8-.2.6-.4,1.1-.6,1.5l-1.6-.3c0-.3.2-.6.3-1s.2-.8.3-1.1c0-.4.1-.7.2-1ZM760.8,102l1.4-.9c.4.2.8.5,1.2.8s.8.6,1.2.9c.4.3.7.6,1,.8l-1.5,1c-.2-.2-.5-.5-.9-.8-.4-.3-.8-.6-1.2-1-.4-.3-.8-.6-1.2-.9Z"/>
              </g>
            </g>
          </g>
        </g>
        <g id="_圖層_1">
          <g id="_圖層_1-2">
            <g id="_圖層_1-2-2" data-name="_圖層_1-2">
              <g id="_圖層_1-2-2">
                <g id="_圖層_1-2-2-2" data-name="_圖層_1-2-2">
                  <g id="_圖層_2">
                    <g id="Icon_Set">
                      <rect class="cls-35" x="647.2" y="82.8" width="31.9" height="24.3"/>
                      <path class="cls-50" d="M665.4,86.1h-4.6c-6.5,0-11.7,4-11.7,8.9s5.2,8.9,11.7,8.9h4.6c6.5,0,11.7-4,11.7-8.9s-5.2-8.9-11.7-8.9Z"/>
                      <rect class="cls-45" x="648.9" y="84.6" width="2.6" height=".1"/>
                      <rect class="cls-45" x="648.9" y="86.2" width="2.6" height=".1"/>
                      <rect class="cls-45" x="675" y="103.6" width="2.6" height=".1"/>
                      <rect class="cls-45" x="675" y="105.2" width="2.6" height=".1"/>
                      <path class="cls-15" d="M653.9,93.6c.4,1.5,1.9,2.4,3.2,3.3.7.4,1.4.8,2.1,1,.8.2,1.6,0,2.2-.4.8-.7.8-1.9.5-3-.3-1-.9-1.9-1.3-2.9-.4-1.2-.3-2.8.1-4.1h0c-3.1,0-5.8,1-7.7,2.6.3.3.4.7.5,1,.2.8,0,1.7.3,2.6h0s0,0,0,0h0Z"/>
                      <path class="cls-13" d="M665,91.4c.4.6.9,1,1.1,1.7.3.8,0,1.8.2,2.6.2.7.8,1.2,1.5,1.3.7.1,1.4,0,1.9-.6.6-.7.7-1.8.5-2.7-.1-.9-.4-1.9-.3-2.8.1-.8.6-1.6,1.2-2.2-1.6-.8-3.6-1.3-5.7-1.3h-.5c-.2.3-.3.7-.4,1.1-.2,1,0,2,.5,2.8h0s0,0,0,0Z"/>
                      <path class="cls-30" d="M673,98.9c0,.4,0,.8.1,1.2,1.4-1.1,2.4-2.6,2.6-4.3-.5.1-1,.3-1.4.6-.8.6-1.2,1.5-1.3,2.4h0,0Z"/>
                      <path class="cls-29" d="M656.3,101.8c1.4.5,2.9.8,4.5.8h4.6c1.6,0,3.2-.3,4.5-.8-1.4-1.1-4-1.9-6.8-1.9s-5.4.8-6.8,1.9h0,0Z"/>
                    </g>
                  </g>
                  <path class="cls-40" d="M650.2,107.2h-3s0,0,0,0v-16.4s0,0,0,0,0,0,0,0v16.4h3s0,0,0,0,0,0,0,0Z"/>
                  <path class="cls-40" d="M679.1,105.3s0,0,0,0v-22.3h-8.7s0,0,0,0,0,0,0,0h8.7s0,0,0,0v22.4s0,0,0,0h0Z"/>
                </g>
              </g>
            </g>
          </g>
        </g>
      </g>
      <g id="b21">
        <g id="g-root-ro_1qbcce7ht6vic-fill">
          <g id="ro_1qbcce7ht6vic-fill">
            <path class="cls-7" d="M245.5,50h125s12.5,0,12.5,12v30s0,12-12.5,12h-125s-12.5,0-12.5-12v-30s0-12,12.5-12"/>
          </g>
        </g>
        <g id="g-root-tx__90vttrht6wi2-fill">
          <g id="tx__90vttrht6wi2-fill">
            <g class="cls-36">
              <g class="cls-36">
                <path class="cls-31" d="M253.6,71.5h.7c0,0,1,.6,1,.6-.5,1.2-1.1,2.4-1.9,3.5-.8,1.1-1.6,2.1-2.5,3-.9.9-1.8,1.6-2.8,2.2,0-.2-.1-.4-.2-.6,0-.2-.2-.5-.3-.7s-.2-.4-.3-.5c.8-.5,1.7-1.1,2.5-1.9.8-.8,1.5-1.6,2.2-2.5.7-.9,1.2-1.8,1.5-2.8v-.4ZM248,71.5h6.2v1.7h-6.2v-1.7ZM250,68.9l1.5-.8c.4.4.7.8,1.1,1.3.4.5.6.9.8,1.3l-1.6.9c-.2-.4-.4-.8-.8-1.3-.3-.5-.7-1-1-1.4ZM250.8,77.8l1.9-2.2v11.1h-1.9v-8.9ZM252.6,76.1c.1.1.4.3.6.6s.6.6.9.9.6.6.9.9c.3.3.5.5.6.6l-1.2,1.6c-.2-.2-.4-.5-.6-.8-.3-.3-.5-.7-.8-1-.3-.3-.6-.7-.8-1-.3-.3-.5-.5-.7-.8l1.1-.9ZM254.7,84.1h11.6v1.9h-11.6v-1.9ZM255.6,74.3h10.2v1.8h-10.2v-1.8ZM259.8,68.1h1.9v16.9h-1.9v-16.9Z"/>
                <path class="cls-31" d="M276.7,68l1.7.6c-.7.9-1.6,1.8-2.6,2.5-1,.7-2.2,1.4-3.4,2-1.2.6-2.5,1-3.7,1.4,0-.1-.2-.3-.3-.5-.1-.2-.2-.4-.4-.6s-.3-.3-.4-.4c1.2-.3,2.4-.7,3.6-1.2,1.2-.5,2.2-1.1,3.2-1.7,1-.6,1.7-1.4,2.4-2.2ZM270.2,73.9h13.7v5.2h-13.7v-5.2ZM271.3,79.9h11.5v6.7h-1.9v-5.4h-7.7v5.5h-1.9v-6.7ZM271.8,75.1v2.8h10.4v-2.8h-10.4ZM272.4,82.3h9.3v1.3h-9.3v-1.3ZM272.4,84.8h9.3v1.3h-9.3v-1.3ZM272.8,75.6l1.3-.4c.2.3.4.7.6,1.1s.3.8.4,1.1l-1.4.5c0-.3-.2-.7-.4-1.1s-.4-.8-.6-1.2ZM273.5,71.7h7v1.3h-7v-1.3ZM276.1,74.3h1.6v4.2h-1.6v-4.2ZM277.9,68.8c.5.5,1,.9,1.6,1.3.6.4,1.4.8,2.1,1.2.8.4,1.6.7,2.4,1,.8.3,1.7.5,2.5.7-.2.2-.4.4-.6.7-.2.3-.4.6-.6.8-.8-.2-1.6-.5-2.5-.8-.8-.3-1.6-.7-2.4-1.2-.8-.4-1.5-.9-2.2-1.4s-1.3-1-1.8-1.6l1.4-.6ZM279.7,75.1l1.6.4c-.2.4-.4.8-.7,1.3-.2.4-.4.8-.6,1.1l-1.3-.4c.2-.3.3-.7.5-1.2.2-.5.3-.9.4-1.2Z"/>
                <path class="cls-31" d="M288,81.3h18v1.5h-18v-1.5ZM288.4,75.3h17.3v3.9h-1.9v-2.5h-13.6v2.5h-1.8v-3.9ZM293.5,68.3l.8,1.1c-.6.2-1.3.4-2,.6-.8.2-1.5.3-2,.4l-.7-1.1c.4,0,.8-.2,1.3-.3.5-.1,1-.2,1.4-.4s.9-.3,1.2-.4ZM289.6,69.3l1.8.5.4,6.2h-1.8l-.4-6.7ZM290.5,71h3.7v1.2h-3.7v-1.2ZM290.6,73.1h3.7v1.2h-3.7v-1.2ZM291.8,77.8h9.2v1.4h-9.2v-1.4ZM296.3,80.6h1.9v4.2c0,.5,0,.8-.2,1-.1.2-.4.4-.7.6-.4.1-.8.2-1.4.2-.5,0-1.2,0-2,0,0-.2-.1-.5-.2-.8-.1-.3-.2-.6-.4-.8.4,0,.8,0,1.1,0,.4,0,.7,0,.9,0h.5c.2,0,.3,0,.3,0,0,0,0-.1,0-.3v-4.2ZM297.9,71.6l1.3.4c-.5.7-1.1,1.3-1.8,1.8-.7.6-1.4,1.1-2.2,1.5,0-.1-.2-.3-.5-.5-.2-.2-.4-.4-.5-.5.7-.3,1.4-.7,2.1-1.2.7-.5,1.2-1,1.6-1.5ZM297.9,68.3l1.3.4c-.4.6-1,1.2-1.7,1.7s-1.4,1-2,1.4c-.1-.1-.3-.3-.5-.5s-.4-.3-.6-.4c.7-.3,1.4-.7,2-1.2.6-.4,1.1-.9,1.5-1.4ZM294.7,72.6l.9-.8c.5.2.9.5,1.4.7.5.3.9.6,1.4.9.4.3.8.6,1.1.8l-1,.9c-.3-.3-.6-.5-1-.8-.4-.3-.9-.6-1.4-.9-.5-.3-.9-.6-1.4-.8ZM294.8,69.3l.9-.8c.4.2.9.4,1.3.7.5.3.9.5,1.3.8s.8.5,1,.8l-.9.9c-.3-.2-.6-.5-1-.8s-.8-.6-1.3-.8c-.5-.3-.9-.5-1.4-.7ZM300.5,77.8h.9c0,0,1.1.9,1.1.9-.5.4-1,.7-1.6,1.1s-1.2.7-1.8,1c-.6.3-1.2.6-1.8.8-.1-.2-.2-.3-.4-.5s-.3-.3-.5-.5c.5-.2,1-.4,1.6-.7s1-.6,1.5-.9.8-.6,1.1-.8v-.3ZM299.7,68.8h3.8v1.2h-3.8v-1.2ZM299.8,73.1h3.5v1.2h-3.5v-1.2ZM299.9,71h3.5v1.2h-3.5v-1.2ZM302.8,68.8h1.8c0,.8,0,1.6-.1,2.5s-.1,1.7-.2,2.6c0,.8-.1,1.5-.2,2.1h-1.8c0-.6.2-1.4.2-2.2,0-.8.1-1.7.2-2.6,0-.9,0-1.7.1-2.5Z"/>
                <path class="cls-31" d="M310,74.5l1.2.4c-.3.7-.6,1.3-1.1,2s-.9,1.2-1.4,1.6c-.1-.2-.3-.4-.5-.7-.2-.2-.4-.4-.6-.6.3-.2.6-.4,1-.7.3-.3.6-.6.9-1,.3-.4.5-.7.7-1ZM311.4,78.1h1.6v2.1c0,.5,0,1.1-.1,1.7s-.3,1.2-.6,1.7-.7,1.1-1.3,1.6c-.6.5-1.4,1-2.4,1.4,0-.1-.2-.3-.3-.5-.1-.2-.2-.3-.4-.5s-.3-.3-.4-.4c.9-.3,1.5-.7,2-1.1s.9-.8,1.1-1.3c.3-.4.4-.9.5-1.3,0-.5.1-.9.1-1.3v-2ZM307.9,72.5h8.7v1.5h-8.7v-1.5ZM307.9,79.8h8.8v1.6h-8.8v-1.6ZM308.3,69.3l1.3-.5c.2.4.5.8.7,1.2.2.4.4.8.4,1.2l-1.4.6c0-.3-.2-.7-.4-1.2s-.4-.9-.7-1.3ZM311.5,68.2h1.7v9.4h-1.7v-9.4ZM311.5,83.1l1-1.2c.4.2.9.5,1.3.8.5.3.9.6,1.4.9.4.3.8.6,1.1.8l-1,1.3c-.3-.2-.6-.5-1-.8-.4-.3-.9-.6-1.4-1-.5-.3-.9-.6-1.3-.9ZM314.2,74.6c.1,0,.3.2.6.4.3.2.5.4.8.6.3.2.5.4.8.6.2.2.4.3.5.4l-1,1.2c-.1-.2-.3-.4-.5-.6-.2-.2-.5-.5-.7-.7-.3-.3-.5-.5-.7-.7-.2-.2-.4-.4-.6-.5l1-.7ZM313.7,78.5l1.1-.7c.3.2.5.5.8.8.3.3.5.6.6.8l-1.1.8c-.1-.2-.3-.5-.6-.8-.3-.3-.5-.6-.8-.8ZM314.8,68.9l1.6.4c-.2.5-.5.9-.7,1.4s-.5.8-.7,1.2l-1.2-.4c.2-.4.4-.8.6-1.3.2-.5.4-.9.5-1.3ZM319.5,83.1l1.6,1c-.3.3-.7.7-1.1,1-.4.3-.9.7-1.3,1s-.9.5-1.4.8c-.1-.2-.3-.4-.6-.6-.2-.2-.5-.4-.6-.6.4-.2.9-.4,1.3-.7.4-.3.8-.6,1.2-.9.4-.3.7-.6.9-.9ZM316.8,69h9.4v1.6h-9.4v-1.6ZM317.5,72.3h8v10.5h-8v-10.5ZM319.2,73.7v1.6h4.5v-1.6h-4.5ZM319.2,76.7v1.6h4.5v-1.6h-4.5ZM319.2,79.7v1.7h4.5v-1.7h-4.5ZM320.4,69.9l2.1.3c-.2.6-.4,1.2-.6,1.8-.2.6-.4,1.1-.6,1.5l-1.6-.3c0-.3.2-.6.3-1s.2-.8.3-1.1c0-.4.1-.7.2-1ZM321.8,84l1.4-.9c.4.2.8.5,1.2.8s.8.6,1.2.9c.4.3.7.6,1,.8l-1.5,1c-.2-.2-.5-.5-.9-.8-.4-.3-.8-.6-1.2-1-.4-.3-.8-.6-1.2-.9Z"/>
              </g>
            </g>
          </g>
        </g>
        <g id="_圖層_1-2" data-name="_圖層_1">
          <g id="_圖層_1-2-3" data-name="_圖層_1-2">
            <g id="_圖層_1-2-4" data-name="_圖層_1-2">
              <g id="_圖層_1-2-2-3" data-name="_圖層_1-2-2">
                <g id="_圖層_1-2-2-4" data-name="_圖層_1-2-2">
                  <g id="_圖層_1-2-2-2">
                    <g>
                      <g>
                        <path class="cls-44" d="M365.2,73.3l-.7-1.9h-1.8s-1.8,0-1.8,0l-.7,1.9c-.2.6.2,1.1.8,1.1.6,0,1.1,0,1.7-.1.5,0,1.1.1,1.7.1.6,0,1-.6.8-1.1Z"/>
                        <path class="cls-10" d="M363,69.2s1.8,0,1.7,2-2.6,0-2.6,0l.9-2h0Z"/>
                        <path class="cls-10" d="M363.4,69.3s-.3,1.9-1,2.1c-.3.1-.2.6-.4.8-.4.4-1.4-.8-1.4-1.4,0-.9.2-1.2,1.1-1.8.6-.3,1.2-.7,1.8.1h0Z"/>
                        <path class="cls-45" d="M358.7,80.9l-1.9-.2s-1.2,3.6.9,3.8l.9-3.6h0Z"/>
                        <path class="cls-45" d="M366.9,80.9l1.9-.2s1.2,3.6-.9,3.8l-.9-3.6h0Z"/>
                        <ellipse class="cls-45" cx="362.6" cy="71.7" rx="1.9" ry="2.4"/>
                        <polygon class="cls-8" points="362 73.3 363.4 73.3 363.7 76 362.7 76.4 361.7 76 362 73.3"/>
                        <g>
                          <path class="cls-5" d="M361.9,74.9s-2.5.1-3.8,1.8c-.7.9-1.3,2.3-1.7,4.5l3.7.6,1.8-6.8h0Z"/>
                          <path class="cls-5" d="M363.6,74.9h0l1.8,6.8,3.7-.6c-.3-2.1-1-3.5-1.7-4.5-1.3-1.7-3.8-1.8-3.8-1.8h0Z"/>
                          <path class="cls-34" d="M367.4,81.7c-.3-1.5-.5-5.5-2.2-6.4-.1,0-1.4-.5-1.5-.4-.2.2-.5.5-.9.5-.4,0-.7-.4-.9-.5,0,0-1.4.3-1.5.4-1.7.9-1.9,5-2.2,6.4-.1.7-.9,2.9-.5,3.5.1.2,1.5,0,1.7,0,.5,0,2,.2,3.4.2,1.4,0,2.9-.1,3.4-.2.3,0,1.6.1,1.7,0,.4-.6-.4-2.9-.5-3.5Z"/>
                        </g>
                        <rect class="cls-46" x="366.7" y="77.7" width="0" height="2.9" transform="translate(-8 97.6) rotate(-15)"/>
                        <line class="cls-27" x1="358.4" y1="80.6" x2="359.1" y2="77.8"/>
                        <path class="cls-8" d="M360.5,71.3c.2,0,.3,0,.4.2s0,.4-.1.5-.3,0-.4-.2,0-.4.1-.5h0Z"/>
                        <path class="cls-8" d="M364.6,71.3c.2,0,.2.3.1.5,0,.2-.3.3-.4.2s-.2-.3-.1-.5.3-.3.4-.2h0Z"/>
                        <path class="cls-4" d="M362.2,72.9h.9s0,.3-.4.3-.4-.3-.4-.3h0Z"/>
                        <path class="cls-10" d="M361.1,69.7s2.3,2.7,3.2,1.9c.9-.8-.6-2.1-.6-2.1,0,0-1.1-1-2.7.2Z"/>
                        <path class="cls-10" d="M361.7,70.1l-1.1,1.2s-.3-.9.3-1.4c.6-.5.8.2.8.2h0Z"/>
                      </g>
                      <g>
                        <path class="cls-10" d="M342.7,70.1s.4,1.3-.6,1.4c0,0-.7-1.1-.8-1.7-.3-1.1,1.9-1.6,2.9-1.3s.5,1.3-1.4,1.5h0Z"/>
                        <path class="cls-10" d="M343.9,70.1c-2-.2-2.4-1.2-1.4-1.5,1-.3,3.2.2,2.9,1.3-.1.6-.8,1.7-.8,1.7-1-.2-.6-1.4-.6-1.4h0Z"/>
                        <path class="cls-45" d="M339.4,80.8l-1.9-.2s-1.2,3.6.9,3.8l.9-3.6h0Z"/>
                        <path class="cls-45" d="M347.5,80.8l1.9-.2s1.2,3.6-.9,3.8l-.9-3.6h0Z"/>
                        <ellipse class="cls-45" cx="343.2" cy="71.5" rx="1.9" ry="2.4"/>
                        <polygon class="cls-8" points="342.6 73.2 344.1 73.2 344.3 75.8 343.4 76.3 342.4 75.8 342.6 73.2"/>
                        <g>
                          <path class="cls-1" d="M342.5,74.8s-2.5.1-3.8,1.8c-.7.9-1.3,2.3-1.7,4.5l3.7.6,1.8-6.8h0Z"/>
                          <path class="cls-1" d="M344.3,74.8h0l1.8,6.8,3.7-.6c-.3-2.1-1-3.5-1.7-4.5-1.3-1.7-3.8-1.8-3.8-1.8h0Z"/>
                          <path class="cls-13" d="M348,81.6c-.3-1.5-.5-5.5-2.2-6.4-.1,0-1.4-.5-1.5-.4-.2.2-.5.5-.9.5-.4,0-.7-.4-.9-.5,0,0-1.4.3-1.5.4-1.7.9-1.9,5-2.2,6.4-.1.7-.9,2.9-.5,3.5.1.2,1.5,0,1.7,0,.5,0,2,.2,3.4.2,1.4,0,2.9-.1,3.4-.2.3,0,1.6.1,1.7,0,.4-.6-.4-2.9-.5-3.5Z"/>
                        </g>
                        <line class="cls-17" x1="347.7" y1="80.4" x2="347" y2="77.6"/>
                        <path class="cls-42" d="M339,80.5h0s0,0,0,0l.8-2.8s0,0,0,0c0,0,0,0,0,0l-.8,2.8s0,0,0,0h0Z"/>
                        <path class="cls-8" d="M341.2,71.1c.2,0,.3,0,.4.2s0,.4-.1.5-.3,0-.4-.2,0-.4.1-.5h0Z"/>
                        <path class="cls-8" d="M345.3,71.1c.2,0,.2.3.1.5s-.3.3-.4.2-.2-.3-.1-.5.3-.3.4-.2h0Z"/>
                        <path class="cls-4" d="M342.9,72.8h.9s0,.3-.4.3c-.4,0-.4-.3-.4-.3h0Z"/>
                        <path class="cls-10" d="M344.8,69.4s1.2.4.5,1.6c-.8,1.2-.5-1.6-.5-1.6h0Z"/>
                        <path class="cls-10" d="M341.6,69.4s.3,2.8-.5,1.6c-.8-1.2.5-1.6.5-1.6h0Z"/>
                        <path class="cls-10" d="M341.6,70s3.4,1.2,3.3-.2c-.1-1.2-2.3-.7-2.5-1.3l-.7,1.1-.2.3h0Z"/>
                      </g>
                      <g>
                        <path class="cls-45" d="M348.5,81l-2.2-.2s-1.4,4.2,1.1,4.4l1.1-4.2h0Z"/>
                        <path class="cls-45" d="M357.8,81l2.2-.2s1.4,4.2-1.1,4.4l-1.1-4.2h0Z"/>
                        <ellipse class="cls-45" cx="352.9" cy="70.4" rx="2.2" ry="2.7"/>
                        <polygon class="cls-8" points="352.2 72.3 353.8 72.3 354.2 75.3 353.1 75.8 351.9 75.3 352.2 72.3"/>
                        <g>
                          <path class="cls-12" d="M352.1,74.1s-2.9.1-4.3,2c-.8,1.1-1.6,2.7-1.9,5.1l4.2.7,2.1-7.9h0Z"/>
                          <path class="cls-12" d="M354.1,74.1h0l2.1,7.9,4.2-.7c-.4-2.5-1.1-4.1-1.9-5.1-1.5-1.9-4.3-2-4.3-2h0Z"/>
                          <path class="cls-50" d="M358.4,81.9c-.3-1.7-.6-6.3-2.6-7.4-.1,0-1.7-.5-1.7-.5-.2.2-.6.5-1,.6-.5-.1-.8-.4-1-.6,0,0-1.6.4-1.7.5-2,1.1-2.2,5.7-2.6,7.4-.2.8-1.1,3.4-.6,4.1.2.2,1.7,0,2,0,.6,0,2.3.2,3.9.2,1.6,0,3.3-.2,3.9-.2.3,0,1.8.1,2,0,.5-.7-.4-3.3-.6-4.1h0Z"/>
                        </g>
                        <path class="cls-52" d="M358.1,80.7s0,0,0,0l-.9-3.2s0,0,0,0c0,0,0,0,0,0l.9,3.2s0,0,0,0h0,0Z"/>
                        <path class="cls-52" d="M348,80.7h0s0,0,0,0l.9-3.2s0,0,0,0c0,0,0,0,0,0l-.9,3.2s0,0,0,0h0Z"/>
                        <path class="cls-8" d="M350.5,69.9c.2,0,.4,0,.5.3s0,.5-.2.5-.4,0-.5-.3,0-.5.2-.5h0Z"/>
                        <path class="cls-8" d="M355.3,69.9c.2,0,.2.3.2.5s-.3.4-.5.3-.2-.3-.2-.5c0-.2.3-.4.5-.3h0Z"/>
                        <path class="cls-4" d="M352.5,71.8h1s0,.3-.5.4-.5-.4-.5-.4Z"/>
                        <path class="cls-10" d="M354.4,67.3c-.5-.3-1-.5-1.5-.5-.4,0-1,.1-1.5.5-.8.5-1.4,2.4-1.4,2.4.6.3,1.1.3,1.5.3.3,0,.6-1.2.8-1.5.1,0,.3,0,.6,0,.2,0,.4,0,.6,0,.2.3.5,1.5.8,1.5.4,0,.9,0,1.5-.3,0,0-.6-1.9-1.4-2.4h0Z"/>
                      </g>
                    </g>
                  </g>
                </g>
              </g>
            </g>
          </g>
        </g>
      </g>
      <g id="a8">
        <g id="g-root-ro_24czjht5gr0-stroke">
          <g id="ro_24czjht5gr0-stroke">
            <path class="cls-18" d="M459.8,68h95.5s27.3,0,27.3,28.6v92.9s0,28.6-27.3,28.6h-95.5s-27.3,0-27.3-28.6v-92.9s0-28.6,27.3-28.6"/>
          </g>
        </g>
        <g>
          <g id="g-root-tx__m8leinht5hj6-fill">
            <g id="tx__m8leinht5hj6-fill">
              <g class="cls-36">
                <g class="cls-36">
                  <path class="cls-53" d="M474.2,172.5h.7c0,0,1,.6,1,.6-.5,1.2-1.1,2.4-1.9,3.5-.8,1.1-1.6,2.1-2.5,3-.9.9-1.8,1.6-2.8,2.2,0-.2-.1-.4-.2-.6,0-.2-.2-.5-.3-.7s-.2-.4-.3-.5c.8-.5,1.7-1.1,2.5-1.9.8-.8,1.5-1.6,2.2-2.5.7-.9,1.2-1.8,1.5-2.8v-.4ZM468.6,172.5h6.2v1.7h-6.2v-1.7ZM470.6,169.9l1.5-.8c.4.4.7.8,1.1,1.3.4.5.6.9.8,1.3l-1.6.9c-.2-.4-.4-.8-.8-1.3-.3-.5-.7-1-1-1.4ZM471.4,178.8l1.9-2.2v11.1h-1.9v-8.9ZM473.1,177.1c.1.1.4.3.6.6s.6.6.9.9.6.6.9.9c.3.3.5.5.6.6l-1.2,1.6c-.2-.2-.4-.5-.6-.8-.3-.3-.5-.7-.8-1-.3-.3-.6-.7-.8-1-.3-.3-.5-.5-.7-.8l1.1-.9ZM475.3,185.1h11.6v1.9h-11.6v-1.9ZM476.2,175.3h10.2v1.8h-10.2v-1.8ZM480.4,169.1h1.9v16.9h-1.9v-16.9Z"/>
                  <path class="cls-53" d="M497.3,169l1.7.6c-.7.9-1.6,1.8-2.6,2.5-1,.7-2.2,1.4-3.4,2-1.2.6-2.5,1-3.7,1.4,0-.1-.2-.3-.3-.5-.1-.2-.2-.4-.4-.6s-.3-.3-.4-.4c1.2-.3,2.4-.7,3.6-1.2,1.2-.5,2.2-1.1,3.2-1.7,1-.6,1.7-1.4,2.4-2.2ZM490.7,174.9h13.7v5.2h-13.7v-5.2ZM491.9,180.9h11.5v6.7h-1.9v-5.4h-7.7v5.5h-1.9v-6.7ZM492.3,176.1v2.8h10.4v-2.8h-10.4ZM493,183.3h9.3v1.3h-9.3v-1.3ZM493,185.8h9.3v1.3h-9.3v-1.3ZM493.3,176.6l1.3-.4c.2.3.4.7.6,1.1s.3.8.4,1.1l-1.4.5c0-.3-.2-.7-.4-1.1s-.4-.8-.6-1.2ZM494.1,172.7h7v1.3h-7v-1.3ZM496.7,175.3h1.6v4.2h-1.6v-4.2ZM498.5,169.8c.5.5,1,.9,1.6,1.3.6.4,1.4.8,2.1,1.2.8.4,1.6.7,2.4,1,.8.3,1.7.5,2.5.7-.2.2-.4.4-.6.7-.2.3-.4.6-.6.8-.8-.2-1.6-.5-2.5-.8-.8-.3-1.6-.7-2.4-1.2-.8-.4-1.5-.9-2.2-1.4s-1.3-1-1.8-1.6l1.4-.6ZM500.3,176.1l1.6.4c-.2.4-.4.8-.7,1.3-.2.4-.4.8-.6,1.1l-1.3-.4c.2-.3.3-.7.5-1.2.2-.5.3-.9.4-1.2Z"/>
                  <path class="cls-53" d="M508.6,182.3h18v1.5h-18v-1.5ZM509,176.3h17.3v3.9h-1.9v-2.5h-13.6v2.5h-1.8v-3.9ZM514.1,169.3l.8,1.1c-.6.2-1.3.4-2,.6-.8.2-1.5.3-2,.4l-.7-1.1c.4,0,.8-.2,1.3-.3.5-.1,1-.2,1.4-.4s.9-.3,1.2-.4ZM510.2,170.3l1.8.5.4,6.2h-1.8l-.4-6.7ZM511.1,172h3.7v1.2h-3.7v-1.2ZM511.2,174.1h3.7v1.2h-3.7v-1.2ZM512.4,178.8h9.2v1.4h-9.2v-1.4ZM516.9,181.6h1.9v4.2c0,.5,0,.8-.2,1-.1.2-.4.4-.7.6-.4.1-.8.2-1.4.2-.5,0-1.2,0-2,0,0-.2-.1-.5-.2-.8-.1-.3-.2-.6-.4-.8.4,0,.8,0,1.1,0,.4,0,.7,0,.9,0h.5c.2,0,.3,0,.3,0,0,0,0-.1,0-.3v-4.2ZM518.5,172.6l1.3.4c-.5.7-1.1,1.3-1.8,1.8-.7.6-1.4,1.1-2.2,1.5,0-.1-.2-.3-.5-.5-.2-.2-.4-.4-.5-.5.7-.3,1.4-.7,2.1-1.2.7-.5,1.2-1,1.6-1.5ZM518.5,169.3l1.3.4c-.4.6-1,1.2-1.7,1.7s-1.4,1-2,1.4c-.1-.1-.3-.3-.5-.5s-.4-.3-.6-.4c.7-.3,1.4-.7,2-1.2.6-.4,1.1-.9,1.5-1.4ZM515.3,173.6l.9-.8c.5.2.9.5,1.4.7.5.3.9.6,1.4.9.4.3.8.6,1.1.8l-1,.9c-.3-.3-.6-.5-1-.8-.4-.3-.9-.6-1.4-.9-.5-.3-.9-.6-1.4-.8ZM515.3,170.3l.9-.8c.4.2.9.4,1.3.7.5.3.9.5,1.3.8s.8.5,1,.8l-.9.9c-.3-.2-.6-.5-1-.8s-.8-.6-1.3-.8c-.5-.3-.9-.5-1.4-.7ZM521.1,178.8h.9c0,0,1.1.9,1.1.9-.5.4-1,.7-1.6,1.1s-1.2.7-1.8,1c-.6.3-1.2.6-1.8.8-.1-.2-.2-.3-.4-.5s-.3-.3-.5-.5c.5-.2,1-.4,1.6-.7s1-.6,1.5-.9.8-.6,1.1-.8v-.3ZM520.3,169.8h3.8v1.2h-3.8v-1.2ZM520.3,174.1h3.5v1.2h-3.5v-1.2ZM520.4,172h3.5v1.2h-3.5v-1.2ZM523.4,169.8h1.8c0,.8,0,1.6-.1,2.5s-.1,1.7-.2,2.6c0,.8-.1,1.5-.2,2.1h-1.8c0-.6.2-1.4.2-2.2,0-.8.1-1.7.2-2.6,0-.9,0-1.7.1-2.5Z"/>
                  <path class="cls-53" d="M529.3,170h1.9v17.7h-1.9v-17.7ZM530.2,173h5.3v1.4h-5.3v-1.4ZM530.4,170h6.3v7.5h-6.3v-1.5h4.5v-4.4h-4.5v-1.6ZM545.1,170v1.6h-4.9v4.4h4.9v1.6h-6.7v-7.6h6.7ZM539.4,173h5.4v1.4h-5.4v-1.4ZM544.1,170h1.9v15.3c0,.6,0,1-.2,1.4-.1.3-.4.5-.8.7s-.9.3-1.5.3c-.6,0-1.4,0-2.4,0,0-.2,0-.4-.1-.6,0-.2-.2-.5-.2-.7,0-.2-.2-.5-.3-.6.4,0,.9,0,1.3,0s.8,0,1.2,0h.7c.2,0,.3,0,.4-.1s.1-.2.1-.4v-15.2Z"/>
                </g>
              </g>
            </g>
          </g>
          <g id="_圖層_1-3" data-name="_圖層_1">
            <g id="_圖層_1-2-5" data-name="_圖層_1-2">
              <g id="_圖層_1-2-6" data-name="_圖層_1-2">
                <g>
                  <path class="cls-38" d="M498.3,111.7h0c-.7-.7-.2-1.8.7-1.8h0c1.1,0,1.9-.9,1.9-2v-.6c0-1.1-.9-2-1.9-2h0c-.9,0-1.4-1.2-.7-1.8h0c.7-.8.7-2,0-2.8l-.4-.4c-.7-.8-2-.8-2.7,0h0c-.7.7-1.8.2-1.8-.8h0c0-1.1-.9-2-1.9-2h-.5c-1.1,0-1.9.9-1.9,2h0c0,1-1.1,1.4-1.8.7h0c-.8-.8-2-.8-2.7,0l-.4.4c-.7.8-.7,2,0,2.8.7.7.2,1.8-.7,1.8h0c-1.1,0-1.9.9-1.9,2v.6c0,1.1.9,2,1.9,2h0c.9,0,1.4,1.2.7,1.8h0c-.7.8-.7,2,0,2.8l.4.4c.8.8,2,.8,2.7,0,.7-.7,1.8-.2,1.8.8s.9,2,1.9,2h.5c1.1,0,1.9-.9,1.9-2h0c0-1,1.1-1.4,1.8-.7h0c.7.8,2,.8,2.7,0l.4-.4c.7-.8.7-2,0-2.8h0ZM487.8,111c-1.9-1.9-1.9-5,0-6.9s4.9-1.9,6.8,0c1.9,1.9,1.9,5,0,6.9s-4.9,1.9-6.8,0h0Z"/>
                  <path class="cls-29" d="M481.8,123.6s-3.6-12.1-13.9-14l10.1,14.3s-5.8-7.4-15.4-1.8c0,0,10.3,1.5,14.4,6,0,0,2.2,3.9,3.2,4,6.3.9,1.5-8.6,1.5-8.6h0,0Z"/>
                  <g>
                    <rect class="cls-35" x="479.1" y="113.7" width="50.4" height="36"/>
                    <rect class="cls-15" x="479.1" y="110" width="50.4" height="5.2"/>
                    <circle class="cls-31" cx="482.1" cy="112.6" r=".9"/>
                    <circle class="cls-31" cx="484.8" cy="112.6" r=".9"/>
                    <circle class="cls-31" cx="487.6" cy="112.6" r=".9"/>
                  </g>
                  <path class="cls-45" d="M510.7,140.8c3.2-4.4,5.1-6.6,8.3-11.2l2.9.5c-4.9,10-4.7,13.9-8.6,16.6-8.1-1.6-1.5,1.5-2.5-5.9h0Z"/>
                  <path class="cls-45" d="M519.9,132.5l3.4-1.1c.7-.2,1.3-.7,1.6-1.3l1.5-2.5c.5-.9,0-2-1-2.2h0l-4.2,1.6c-.9.4-1.8,1.1-2.3,2.1l-.9,1.6,1.8,1.7h0Z"/>
                  <path class="cls-8" d="M510.6,131.2l3,9.6c.5.2,1.2,5.1-1,6.4h0c-1.5,1-3.6,0-3.8-1.8l-1.7-7.3-.3-5.5,3.8-1.6h0s0,0,0,0Z"/>
                  <path class="cls-12" d="M505.8,122.4s2.5.4,5.9,10.3l-4.6,7.1-1.4-17.4h0Z"/>
                  <path class="cls-12" d="M502,120.4c-1.7,2.5-3.6.7-4.3-.2-.1-.1-2.9.9-3.1,1.1-3.5,2.4-4,12.8-4.6,16.6-.3,1.7-1.9,7.6-1.1,9.1.3.5,3,.1,3.6.2,2.3.4,12.6,1.2,14-.4,1.4-1.6.4-4.5.6-6.3,1.4-9.7-1.3-18.2-1.3-18.2l-3.8-1.9h0,0Z"/>
                  <path class="cls-8" d="M503.1,116.4s-.6,3.2-1,5.9c-.1.7-.6,1.3-1.3,1.5s-1.4,0-2-.4c-.2-.2-.4-.3-.5-.5-.7-.7-1-1.7-.8-2.6.7-2.4,2-6.9,2-6.9l3.6,2.9h0s0,0,0,0Z"/>
                  <path class="cls-10" d="M503.2,111s2.7.8,1.1,3.4c-1.6,2.6-1.1-3.4-1.1-3.4h0Z"/>
                  <path class="cls-8" d="M504,112.9c-.2-.8-.7-1.6-1.4-2-.7-.5-1.6-.6-2.4-.4h0c-1.6.4-2.6,2-2.3,3.6.2.9.4,2,.5,2.8.1.6.5,1.1,1,1.5.5.3,1.1.4,1.7.3.5-.1,1.1-.3,1.7-.4,1.2-.3,1.9-1.4,1.7-2.6-.2-.8-.3-1.8-.5-2.7h0Z"/>
                  <path class="cls-10" d="M499.5,113.2s.8,2.7-1.4,3.1c0,0-1.5-2.4-1.8-3.6-.6-2.4,4.2-3.5,6.3-2.8,2.1.7,1.2,2.8-3.1,3.3h0Z"/>
                  <path class="cls-8" d="M498,115.1c.4-.2.9.1,1.1.6s0,1-.3,1.2-.9-.1-1.1-.6,0-1,.3-1.2h0Z"/>
                  <path class="cls-10" d="M504.5,115.6c.1-.3,1.3,3.7-1.2,4.1-2.5.4-3.7-.5-4.5-5.1,0,0,1.4,2.7,2.9,2.7,3.1-.1,2.7-1.3,2.9-1.6h0Z"/>
                  <path class="cls-10" d="M501.1,112.9s5.3-1.2,3.7-3.4c-1.5-2-4.6,3.1-5.5,2.4l1.8,1h0Z"/>
                  <path class="cls-4" d="M503.8,116.6l-1.5.4s.3,1,1,.7c.7-.3.5-1.1.5-1.1h0Z"/>
                  <path class="cls-12" d="M507.5,132.5c-2,5.3-17.6,1.7-15.9-.9,2.4-3.6-1,2.5-1.7,6.2-.3,1.7-2,10.1-1.1,11.6.3.5,18.7.1,18.7.1-.7-4.7.3-11.8,0-13.7-.6-4.8,0-3.4,0-3.4h0,0,0Z"/>
                  <path class="cls-8" d="M484.9,134.6l-.6,10c0,2.2,1.1,4.2,3,5.2h7.9c0,0-4.8-5.3-4.8-5.3l.2-11.5-5.7,1.6h0s0,0,0,0Z"/>
                  <path class="cls-12" d="M497.6,119.7s-6.5.3-9.8,4.6c-1.9,2.4-3.5,6-4.4,11.6l9.5,1.5,4.6-17.7h0Z"/>
                  <line class="cls-25" x1="490.6" y1="136.7" x2="491.7" y2="130.6"/>
                  <path class="cls-25" d="M507.5,135.5s0-1.8-.5-5.5"/>
                  <rect class="cls-31" x="479.1" y="146.5" width="53.5" height="1.1"/>
                  <rect class="cls-14" x="479.1" y="146.5" width="27.8" height="1.1"/>
                  <circle class="cls-14" cx="507.1" cy="147.1" r="1"/>
                  <g>
                    <path class="cls-8" d="M530.2,140.8s3.3-.9,4.6-2.1c1.3-1.2-.1-1.5-.6-1.5s-4.1,2.4-4.1,2.4v1.2h0Z"/>
                    <path class="cls-8" d="M530.9,140.6s-1.6.5-1.8-.4c-.2-.9,1.2-1.2,1.6-.9s.2,1.3.2,1.3h0Z"/>
                    <path class="cls-2" d="M535.9,138.6s-1.2,2.8-1.2,3.4c0,1.1.6,1.9.6,1.9l5.1.6c1.5.2,2.6-1,2.5-2.4h0c0-.2,0-.3,0-.4,0-.7-.2-2.6-.2-2.6-1.9-1-3.8-.4-6.3-1.4l-.5.9h0Z"/>
                    <path class="cls-2" d="M524.9,149.6c.4-.6,1.7-5.9,2.7-8.1.3-.6.8-1,1.4-1l6.4-.5,1.4,4.4-7.1-.2c-.5,1.8-1.9,4.2-3.5,6.2l-1.3-.7h0,0Z"/>
                    <polygon class="cls-8" points="535.4 133.9 531.4 131.3 531.3 132.9 534.5 135.7 535.4 133.9"/>
                    <path class="cls-8" d="M531.9,133.1s-2.7-.6-2.3-1.6,1.9-.4,2,.1c.2.5.2,1.5.2,1.5h0Z"/>
                    <path class="cls-8" d="M538.1,127.9s.2,1,.5,1.9c0,.2.2.4.5.5s.5,0,.6-.2l.2-.2c.2-.2.3-.6.2-.9-.3-.8-.8-2.2-.8-2.2l-1.1,1h0s0,0,0,0h0Z"/>
                    <path class="cls-8" d="M539.8,126.8c0-.3,0-.6-.4-.7-.3-.1-.7-.2-1.1-.3-.3,0-.6.1-.7.4-.2.3-.3,1.1-.4,1.6,0,.3.1.7.4.7.3.1,1.4,0,1.7-.5.2-.4.3-.8.5-1.3h0s0,0,0,0h0Z"/>
                    <path class="cls-10" d="M540.4,127.8s.3-1.2,0-1.7c-.5-.7-1.4-1.1-2.4-.5,0,0-.4,1.8,2.5,2.2h0Z"/>
                    <path class="cls-5" d="M538.7,129.9h2c.6-.2,1.4-.7,1.6-.2.2.5.5,1.1.7,2v1.1c-.4.6-.3,2.3-.5,2.9-.6,1.7,1.5,1.3.3,3.3-2.6-.2-5.8,1.9-6.5,0,0-.4-.5-3.9-.4-4.2.8-3.9.1-2.6,2.1-4.5.2-.2.5-.4.8-.4h0Z"/>
                    <path class="cls-44" d="M539.7,126.3s1-1.6,1.8-.6-.6,1.9-1.6,1.5c-1-.4-.2-.9-.2-.9h0Z"/>
                    <path class="cls-6" d="M538.3,128.6v.3c0,0,.4,0,.5-.3h-.5s0,0,0,0Z"/>
                    <path class="cls-44" d="M539.2,126.8s-.5.5-.4,1c.2.6.4,1,.7,1.3,1.2,1.2-1.5,2.9,1.2,3.9,2.6,1,2.9-.2,2.7-1.8-.2-1-1.3-1.5-1.3-2.1,0-1.2-1.1-1.3-1-2,.1-.7-1.1-1.2-1.1-1.2l-.8.9h0s0,0,0,0h0Z"/>
                    <path class="cls-8" d="M539.3,128c-.2.2-.4.3-.6.2s-.2-.4,0-.6.4-.3.6-.2c.2.1.2.4,0,.6Z"/>
                    <path class="cls-46" d="M535.2,139.4s.4-.7.2-1,.4-.2.4-.8,0-2.9,0-2.9l.9-.8s.4,5.2,1.8,5.8c-1.1.7-2.2.2-3.3-.3h0Z"/>
                    <path class="cls-5" d="M538.3,130c-3.4,1.6-3.3,3.6-4.5,6.7-.1.3-.7,1-.1,1.7,1.3,1.5,2.4-.9,3.2-2.5.7-1.4,1.7-2.8,1.7-2.8l-.2-3.1h0Z"/>
                    <path class="cls-24" d="M540,125.9s-.2,1.1.7,1.3"/>
                    <g>
                      <path class="cls-10" d="M530.9,133.4l-1.8.8c-.2,0-.4,0-.5-.2l-1.2-3.7c0-.2,0-.5.2-.6l1.8-.8c.2,0,.4,0,.5.2l1.2,3.7c0,.2,0,.5-.2.6h0Z"/>
                      <polygon class="cls-4" points="530.9 132.8 528.8 133.7 527.6 129.9 529.7 129 530.9 132.8"/>
                    </g>
                    <path class="cls-8" d="M531,132.2l-.7-.2c-.2,0-.3-.2-.2-.4h0c0-.2.2-.3.4-.2l.7.2c.2,0,.3.2.2.4h0c0,.2-.2.3-.4.2Z"/>
                  </g>
                  <g>
                    <path class="cls-37" d="M517.9,160.7h16.3v-6.9h-16.3c1.6,0,1.6,6.9,0,6.9h0Z"/>
                    <path class="cls-30" d="M518,154h16.2v-.8h-16.2c-.2,0-.4.2-.4.4h0c0,.2.2.4.4.4h0s0,0,0,0Z"/>
                    <path class="cls-30" d="M518,161.1h16.2v-.9h-16.2c-.2,0-.5.2-.5.5h0c0,.2.2.5.5.5h0Z"/>
                    <path class="cls-30" d="M529.9,153.2h16.9c.4,0,.4,7.9,0,7.9h-16.9c1.9,0,1.9-7.9,0-7.9h0Z"/>
                    <path class="cls-13" d="M531,153.2h19.1c1.4,0,2.5,1.1,2.5,2.5v2.9c0,1.4-1.1,2.5-2.5,2.5h-19.1c1.9,0,1.9-7.9,0-7.9h0Z"/>
                    <line class="cls-21" x1="529.9" y1="155" x2="519.6" y2="155"/>
                    <line class="cls-21" x1="529.9" y1="156.6" x2="519.6" y2="156.6"/>
                    <line class="cls-21" x1="529.9" y1="158.2" x2="519.6" y2="158.2"/>
                    <line class="cls-21" x1="529.9" y1="159.8" x2="519.6" y2="159.8"/>
                    <g>
                      <rect class="cls-51" x="519.6" y="148.3" width="1.7" height="4.4"/>
                      <g>
                        <path class="cls-37" d="M520.5,152.5h15.8v-3.9h-15.8c-.2,1.4-.2,2.7,0,3.9h0Z"/>
                        <path class="cls-51" d="M520.1,148.8h16.2v-.8h-16.2c-.2,0-.4.2-.4.4h0c0,.2.2.4.4.4h0s0,0,0,0Z"/>
                        <path class="cls-51" d="M520.1,153.2h16.2v-.9h-16.2c-.2,0-.5.2-.5.5h0c0,.2.2.5.5.5h0s0,0,0,0Z"/>
                        <path class="cls-28" d="M532.2,147.9h18.7c.7,0,1.2.2,1.2.8-1.1,1-1.3,2.7,0,3.5,0,.7-.5.9-1.2.9h-18.7v-5.3h0Z"/>
                        <path class="cls-47" d="M532.2,148.8h19.9c-.8,1.2-.7,2.4,0,3.5h-19.9c-.2-1.2-.2-2.4,0-3.5Z"/>
                        <line class="cls-21" x1="531.6" y1="149.7" x2="521.3" y2="149.7"/>
                        <line class="cls-21" x1="531.6" y1="151.3" x2="521.3" y2="151.3"/>
                      </g>
                    </g>
                    <g>
                      <path class="cls-37" d="M524.7,147.6h11v-4.6h-11c1.1,0,1.1,4.6,0,4.6h0Z"/>
                      <path class="cls-33" d="M524.8,143.2h11v-.6h-11c-.2,0-.3.1-.3.3h0c0,.2.1.3.3.3h0Z"/>
                      <path class="cls-33" d="M524.8,147.9h10.9v-.6h-10.9c-.2,0-.3.1-.3.3h0c0,.2.1.3.3.3h0Z"/>
                      <path class="cls-33" d="M532.8,142.6h11.4c.2,0,.2,5.4,0,5.4h-11.4c1.3,0,1.3-5.4,0-5.4Z"/>
                      <path class="cls-46" d="M533.6,142.6h12.9c.9,0,1.7.8,1.7,1.7v2c0,.9-.8,1.7-1.7,1.7h-12.9c1.3,0,1.3-5.4,0-5.4h0Z"/>
                      <line class="cls-21" x1="532.8" y1="143.8" x2="525.9" y2="143.8"/>
                      <line class="cls-21" x1="532.8" y1="144.9" x2="525.9" y2="144.9"/>
                      <line class="cls-21" x1="532.8" y1="145.9" x2="525.9" y2="145.9"/>
                      <line class="cls-21" x1="532.8" y1="147" x2="525.9" y2="147"/>
                    </g>
                  </g>
                  <g>
                    <path class="cls-51" d="M475.3,133c0,.5.3.9.7.9.4,0,.7-.4.7-.8,0-.5-.3-.9-.7-.9s-.7.4-.7.8Z"/>
                    <g>
                      <rect class="cls-44" x="466.9" y="147.7" width="14.5" height="2.8" rx="1.3" ry="1.3"/>
                      <path class="cls-10" d="M464.8,162.1h0c-.2,0-.2-.2-.2-.4l5.1-12.7c0-.2.2-.2.4-.2h0c.2,0,.2.2.2.4l-5.1,12.7c0,.2-.2.2-.4.2h0Z"/>
                      <path class="cls-10" d="M475.6,162.1h0c.2,0,.2-.2.2-.4l-5.1-12.7c0-.2-.2-.2-.4-.2h0c-.2,0-.2.2-.2.4l5.1,12.7c0,.2.2.2.4.2h0Z"/>
                      <path class="cls-10" d="M482.3,162.1h0c.2,0,.2-.2.2-.4l-5.1-12.7c0-.2-.2-.2-.4-.2h0c-.2,0-.2.2-.2.4l5.1,12.7c0,.2.2.2.4.2h0Z"/>
                      <path class="cls-10" d="M471.7,162.1h0c-.2,0-.2-.2-.2-.4l5.1-12.7c0-.2.2-.2.4-.2h0c.2,0,.2.2.2.4l-5.1,12.7c0,.2-.2.2-.4.2h0Z"/>
                    </g>
                    <path class="cls-43" d="M479.4,145.7h1.6c1.4,0,2.5,1.1,2.5,2.3v5.5c0,0-.7-.3-.7-.3v-5.1c0-1-.8-1.8-1.9-1.8h-1.5v-.6h0Z"/>
                    <path class="cls-43" d="M475.5,146.8h5.2c.4,0,.7-.2.7-.6h0c0-.4-.3-.7-.7-.7h-5.2c-.4,0-.7.2-.7.6h0c0,.4.3.7.7.7h0Z"/>
                    <path class="cls-43" d="M474.2,140.3c0,.2-.2.3-.3.3s-.3-.2-.3-.3.2-.3.3-.3.3.2.3.3Z"/>
                    <path class="cls-43" d="M474.4,141.9c0,.2-.2.3-.3.3s-.3-.2-.3-.3.2-.3.3-.3.3.2.3.3Z"/>
                    <path class="cls-43" d="M474.6,143.7c0,.2-.2.3-.3.3s-.3-.2-.3-.3.2-.3.3-.3.3.2.3.3Z"/>
                    <path class="cls-8" d="M478.1,138.9l1.1,4.1c.2,0-.5,1.7-1.3,2.3l-.3.9-.2-1v-1.9c-.1,0-.7-3.7-.7-3.7l1.5-.6h0s0,0,0,0Z"/>
                    <path class="cls-1" d="M476,135.4s1.6.2,3,4.6l-2.5,1.4-.5-5.9h0Z"/>
                    <polygon class="cls-8" points="481.7 161.1 482.8 160.8 482.9 159.2 481.7 159.4 481.7 161.1"/>
                    <path class="cls-2" d="M477.1,143.7s1.2,3,1.2,3.7c-.1,1.2-.8,2-.8,2l-5.9.3c-1.7.1-2.9-1.2-2.7-2.7h0c0-.2,0-.3,0-.5,0-.7.4-2.7.4-2.7,1.8,1,5.1,1.2,8,.3l-.2-.4h0Z"/>
                    <path class="cls-1" d="M474.5,134.6c-.7,1-1.1.2-1.4-.1,0,0-1.5.4-1.6.4-1.4,1-1.6,5.1-1.8,6.6-.1.7-.8,3-.4,3.6.1.2,1.2,0,1.4,0,.9.2,5,.5,5.5-.2.5-.6.1-1.8.2-2.5.6-3.8-.5-7.2-.5-7.2l-1.5-.8h0Z"/>
                    <path class="cls-10" d="M482.8,160.8l1,.7c.2.2.4.3.7.3h.3c.1,0,.2.1.2.2h0c0,.2,0,.3-.2.3h-2.9s-.7-.2-.2-1.5h1.1s0,0,0,0h0Z"/>
                    <polygon class="cls-8" points="474.3 161.1 475.4 160.9 475.9 159.3 474.6 159.5 474.3 161.1"/>
                    <path class="cls-10" d="M475.4,160.8l1,.7c.2.2.4.3.7.3h.3c.1,0,.2.1.2.2h0c0,.2,0,.3-.2.3h-2.9s-.7-.2-.2-1.5h1.1s0,0,0,0h0Z"/>
                    <path class="cls-8" d="M475.1,133s-.2,1.3-.4,2.3c0,.3-.2.5-.5.6-.3.1-.6,0-.8-.2,0,0-.1-.1-.2-.2-.3-.3-.4-.7-.3-1,.3-1,.8-2.7.8-2.7l1.4,1.2h0Z"/>
                    <path class="cls-11" d="M475.9,131.5s.9.7,0,1.4,0-1.4,0-1.4h0Z"/>
                    <path class="cls-8" d="M475.9,132.3c0-.3,0-.7-.2-.9s-.5-.5-.8-.5h0c-.7,0-1.2.4-1.4,1,0,.4-.1.8-.2,1.1,0,.2,0,.5.2.7.1.2.1.8.4.8.2,0,.8,0,1.1,0,.5,0,.8-.7.9-1.2,0-.3.1-.7.2-1.1h0,0Z"/>
                    <path class="cls-11" d="M474.3,131.8s0,1.1-1,1c0,0-.2-1.1-.2-1.6.1-1,2-.7,2.7-.2.7.6,0,1.2-1.6.8h0Z"/>
                    <path class="cls-8" d="M473.4,132.3c.2,0,.3.2.3.4,0,.2-.1.4-.3.4s-.3-.2-.3-.4c0-.2.1-.4.3-.4h0Z"/>
                    <path class="cls-4" d="M475.4,133.6h-.6c0,0,0,.4.3.3s.3-.4.3-.4h0Z"/>
                    <path class="cls-2" d="M483.1,159.8c0-.8,1.1-6.5,1-9.2,0-.7-.3-1.3-.9-1.7l-5.1-2.9-4.3,3.2,7,3c-.4,2,0,4.9.6,7.6h1.6c0-.1,0-.1,0-.1Z"/>
                    <path class="cls-2" d="M471,149.7l.3-1.2,4.1-.6,3,1.1c.9.3,1.6,1.6,1.6,2.6l-3.8,8.2h-2c0-3.1,1.4-7,2.2-7.8l-5.4-2.2h0Z"/>
                    <path class="cls-1" d="M476.4,140.2c-.8,2.1-6.7-.2-6-1.2.9-1.4-.4,1-.7,2.5-.1.7-.8,3-.4,3.6.1.2.6,1.8.8,1.8,2.9.1,7.7,0,7.9-.9.3-1.1-1.1-4-1.2-4.7-.2-1.9-.3-1.1-.3-1.1h0s0,0,0,0h0Z"/>
                    <path class="cls-22" d="M480.3,151.1s.2-1.9-.8-2.5c-1.1-.6-2.6-1.4-2.6-1.4"/>
                    <path class="cls-20" d="M476.8,140.8s-.3-1-.4-2.1"/>
                    <path class="cls-45" d="M479.2,143c.3,1.1.2,2.2-.2,3.3,0,0-1.4.2-1.5,0s.4-3.3.4-3.3h1.3,0Z"/>
                    <polygon class="cls-44" points="477.1 149.6 484.3 148.7 480.3 146.4 473.1 147.5 477.1 149.6"/>
                    <path class="cls-8" d="M467.7,140.7v3.5c0,.9.4,1.6,1.2,2.1,1.4.8,3.7,1.9,5.7,1.3l.7-.8-5.2-2.6v-4.5c0,0-2.4,1.1-2.4,1.1h0s0,0,0,0Z"/>
                    <path class="cls-1" d="M471.7,134.9s-1.4.2-2.6,1.5c-.9,1-1.7,2.7-1.8,4.9,0,1,3.8,1,3.8,0l.7-6.4h0Z"/>
                    <polyline class="cls-20" points="470.5 141.9 470.6 139.1 470.5 138.9"/>
                    <path class="cls-45" d="M478.2,145.6l-.8.7c-.2.1-.2.3-.2.5v.9c0,.3.4.5.8.5h0l.9-.9c.2-.2.3-.5.3-.8v-.5c0,0-.9-.3-.9-.3h0Z"/>
                    <path class="cls-8" d="M474.3,146.5h2s1.6.5,1.1,1.3c-.5.8-1,.3-1.2.2-.2-.1-.8.2-2-.5v-.9h.1s0,0,0,0Z"/>
                    <path class="cls-39" d="M477.1,149.6l7.2-1,1-4.5c0-.4-.3-.7-.7-.6l-5.4.7c-.5,0-1,.4-1.1.9l-1,4.5h0s0,0,0,0Z"/>
                    <path class="cls-4" d="M480.8,146.4c-.1.4.2.7.7.7s1-.3,1.1-.7-.2-.7-.7-.7-1,.3-1.1.7Z"/>
                    <path class="cls-51" d="M473,132.3s-.2-1.9,1.9-1.8c1.8,0,1.5,2,1.5,2h-.2s0-1.6-1.3-1.7c-1.6,0-1.6,1.5-1.6,1.5h-.4s0,0,0,0h0Z"/>
                    <path class="cls-51" d="M472.5,132.8c0,.5.3.9.7.9s.7-.4.7-.8c0-.5-.3-.9-.7-.9s-.7.4-.7.8Z"/>
                    <path class="cls-41" d="M472.7,132.8c0,.2.1.4.3.5s.3-.2.3-.4c0-.2-.1-.4-.3-.5-.2,0-.3.2-.3.4h0Z"/>
                    <path class="cls-3" d="M476.5,140.3s-1.2.4-2.3.5c-1.1,0-3.4-.3-3.4-.3v1.2c-.1,0,2.5,1.5,6,0l-.3-1.3h0Z"/>
                  </g>
                  <path class="cls-54" d="M501.2,143.2v-2.1c0-.4.4-.7.9-.6l3.6,1.3c.4.1.4.6,0,.7l-3.6,1.3c-.4.2-.9-.2-.9-.6h0Z"/>
                  <rect class="cls-54" x="496.1" y="141" width=".8" height="2.7" rx=".4" ry=".4"/>
                  <rect class="cls-54" x="497.6" y="141" width=".8" height="2.7" rx=".4" ry=".4"/>
                  <path class="cls-16" d="M483.5,135.9s1.1-9,5-12.3c3.9-3.3,8.5-4,8.5-4"/>
                  <path class="cls-21" d="M518.5,160.2s1.4-2.6-.2-6.1"/>
                  <path class="cls-37" d="M540.6,161.1h-4c1.2,0,1.2-8,0-8h4c1.3,0,1.3,8,0,8Z"/>
                  <g>
                    <path class="cls-15" d="M515,115.5v5.1c0,.3.3.5.5.3l2.9-2.2-3.3-3.1h0s0,0,0,0Z"/>
                    <path class="cls-32" d="M536.8,119.7h-18.9c-3.1,0-5.6-2.6-5.6-5.7h0c0-3.2,2.5-5.8,5.6-5.8h18.9c3.1,0,5.6,2.6,5.6,5.7h0c0,3.2-2.5,5.8-5.6,5.8h0Z"/>
                  </g>
                  <g>
                    <path class="cls-31" d="M536.7,111.5h-19.7c-.3,0-.6-.3-.6-.6h0c0-.3.3-.6.6-.6h19.7c.3,0,.6.3.6.6h0c0,.3-.3.6-.6.6Z"/>
                    <path class="cls-31" d="M536.7,114.6h-19.7c-.3,0-.6-.3-.6-.6h0c0-.3.3-.6.6-.6h19.7c.3,0,.6.3.6.6h0c0,.3-.3.6-.6.6Z"/>
                    <path class="cls-31" d="M528.3,117.6h-11.3c-.3,0-.6-.3-.6-.6h0c0-.3.3-.6.6-.6h11.3c.3,0,.6.3.6.6h0c0,.3-.3.6-.6.6Z"/>
                  </g>
                  <line class="cls-19" x1="518" y1="119.6" x2="536.3" y2="119.6"/>
                </g>
              </g>
            </g>
          </g>
        </g>
      </g>
    </g>
  </g>
</svg>