<?xml version="1.0" encoding="UTF-8"?>
<svg id="_x31__x5F_教育" xmlns="http://www.w3.org/2000/svg" viewBox="0 0 1130 650">
  <defs>
    <style>
      .cls-1 {
        fill: #7585e6;
      }

      .cls-2, .cls-3, .cls-4, .cls-5, .cls-6, .cls-7, .cls-8, .cls-9, .cls-10, .cls-11, .cls-12, .cls-13, .cls-14, .cls-15, .cls-16, .cls-17, .cls-18, .cls-19 {
        fill-rule: evenodd;
      }

      .cls-2, .cls-20 {
        fill: #874b2b;
      }

      .cls-21 {
        font-family: NotoSansTC-DemiLight, 'Noto Sans TC';
        font-variation-settings: 'wght' 350;
      }

      .cls-21, .cls-22, .cls-6 {
        fill: #fff;
      }

      .cls-21, .cls-23, .cls-24, .cls-25 {
        isolation: isolate;
      }

      .cls-21, .cls-24, .cls-25 {
        font-size: 20px;
        font-weight: 300;
      }

      .cls-26 {
        fill: #d4894a;
      }

      .cls-27 {
        fill: #1f8c69;
      }

      .cls-3 {
        fill: #f0e6db;
      }

      .cls-28 {
        fill: #c9c1b8;
      }

      .cls-29 {
        fill: #7d7469;
      }

      .cls-30 {
        stroke: #663b24;
        stroke-width: .8px;
      }

      .cls-30, .cls-31, .cls-32, .cls-33, .cls-34, .cls-35, .cls-36, .cls-37, .cls-38, .cls-39, .cls-40 {
        fill: none;
      }

      .cls-30, .cls-32, .cls-33, .cls-34, .cls-36, .cls-37, .cls-38, .cls-39, .cls-40 {
        stroke-linejoin: round;
      }

      .cls-30, .cls-32, .cls-33, .cls-34, .cls-36, .cls-38, .cls-39, .cls-40 {
        stroke-linecap: round;
      }

      .cls-4 {
        fill: #873b24;
      }

      .cls-5, .cls-41 {
        fill: #ded5cb;
      }

      .cls-7 {
        fill: #e0cb15;
      }

      .cls-32 {
        stroke: #fff;
      }

      .cls-32, .cls-35, .cls-37, .cls-38, .cls-39, .cls-40 {
        stroke-width: 2px;
      }

      .cls-33 {
        stroke: #9c938b;
        stroke-width: 1.3px;
      }

      .cls-34 {
        stroke: #59321f;
        stroke-width: 1.4px;
      }

      .cls-42 {
        fill: #25a67d;
      }

      .cls-43 {
        fill: #ebe0d5;
      }

      .cls-35, .cls-37, .cls-38, .cls-40 {
        stroke: #484848;
      }

      .cls-24 {
        fill: #484848;
      }

      .cls-24, .cls-25 {
        font-family: NotoSansTC-Light, 'Noto Sans TC';
        font-variation-settings: 'wght' 300;
      }

      .cls-44 {
        fill: #786f67;
      }

      .cls-8 {
        fill: #663a23;
      }

      .cls-9, .cls-45 {
        fill: #c95836;
      }

      .cls-46 {
        fill: #baaba0;
      }

      .cls-47 {
        fill: #faf3ed;
      }

      .cls-10, .cls-48 {
        fill: #663a24;
      }

      .cls-11, .cls-49 {
        fill: #7a462b;
      }

      .cls-50 {
        fill: #bab2a9;
      }

      .cls-12, .cls-51 {
        fill: #e69b5c;
      }

      .cls-52, .cls-15 {
        fill: #36261b;
      }

      .cls-53 {
        fill: #5bc2a1;
      }

      .cls-36 {
        stroke: #c9c1b8;
        stroke-width: 1.7px;
      }

      .cls-54 {
        fill: #155e47;
      }

      .cls-55 {
        fill: #b8a99e;
      }

      .cls-56 {
        fill: #e0d6cd;
      }

      .cls-57 {
        fill: #fffefc;
      }

      .cls-58 {
        fill: #d68b4d;
      }

      .cls-59 {
        fill: #c4b4a9;
      }

      .cls-13 {
        fill: #ba5de5;
      }

      .cls-14 {
        fill: #3cc583;
      }

      .cls-25 {
        fill: #fd6a65;
      }

      .cls-60 {
        fill: #fff8f2;
      }

      .cls-61 {
        fill: #91867d;
      }

      .cls-16 {
        fill: #633c1d;
      }

      .cls-17, .cls-62 {
        fill: #4a2a1a;
      }

      .cls-39 {
        stroke: #fd6a65;
      }

      .cls-63 {
        fill: #99938b;
      }

      .cls-64 {
        fill: #24a37b;
      }

      .cls-18 {
        fill: #9c5937;
      }

      .cls-65 {
        fill: #f5f4f2;
      }

      .cls-40 {
        stroke-dasharray: 5 7;
      }

      .cls-19 {
        fill: #4e88e7;
      }
    </style>
  </defs>
  <g id="c11">
    <g id="tx__8zmyodohb7k1-fill">
      <g class="cls-23">
        <text class="cls-24" transform="translate(736 261)"><tspan x="0" y="0">幼兒教育學系</tspan></text>
      </g>
    </g>
  </g>
  <g id="c12">
    <g id="tx__1upwzd9ohb5s2-fill">
      <g class="cls-23">
        <text class="cls-24" transform="translate(736 297)"><tspan x="0" y="0">幼兒與家庭教育學系</tspan></text>
      </g>
    </g>
  </g>
  <g id="c13">
    <g id="tx__1heggzxohb7cz-fill">
      <g class="cls-23">
        <text class="cls-24" transform="translate(736 435)"><tspan x="0" y="0">特殊教育學系</tspan></text>
      </g>
    </g>
  </g>
  <g id="c14">
    <g id="tx__18itgr1ohb85o-fill">
      <g class="cls-23">
        <text class="cls-24" transform="translate(736 471)"><tspan x="0" y="0">適應體育學系</tspan></text>
      </g>
    </g>
  </g>
  <g id="g-root-ro_4nkb2loh9rf0-stroke">
    <g id="ro_4nkb2loh9rf0-stroke">
      <path class="cls-32" d="M688,351h168s12,0,12,12v30s0,12-12,12h-168s-12,0-12-12v-30s0-12,12-12"/>
    </g>
  </g>
  <g id="g-root-ro_1q881zhoh9te1-stroke">
    <g id="ro_1q881zhoh9te1-stroke">
      <path class="cls-32" d="M688,177h168s12,0,12,12v30s0,12-12,12h-168s-12,0-12-12v-30s0-12,12-12"/>
    </g>
  </g>
  <g id="g-root-cu_1d0ie4tohclc7-stroke">
    <g id="cu_1d0ie4tohclc7-stroke">
      <path class="cls-40" d="M710,231v48c0,6.63,5.37,12,12,12h6"/>
    </g>
  </g>
  <g id="g-root-cu_1hgbw99ohckjw-stroke">
    <g id="cu_1hgbw99ohckjw-stroke">
      <path class="cls-40" d="M710,231v24h18"/>
    </g>
  </g>
  <g id="g-root-cu_18kow0dohcm4k-stroke">
    <g id="cu_18kow0dohcm4k-stroke">
      <path class="cls-40" d="M710,405v48c0,6.63,5.37,12,12,12h6"/>
    </g>
  </g>
  <g id="g-root-cu_1d0ie4tohclc9-stroke">
    <g id="cu_1d0ie4tohclc9-stroke">
      <path class="cls-40" d="M710,405v24h18"/>
    </g>
  </g>
  <g id="a1">
    <g id="g-root-tx__4mfiloh8dmx-fill">
      <g id="tx__4mfiloh8dmx-fill">
        <g class="cls-23">
          <text class="cls-25" transform="translate(524 374)"><tspan x="0" y="0">教育學門</tspan></text>
        </g>
      </g>
    </g>
    <g id="g-root-ro_1lu9z4doh8f0r-stroke">
      <g id="ro_1lu9z4doh8f0r-stroke">
        <path class="cls-39" d="M522,264h84s24,0,24,24v78s0,24-24,24h-84s-24,0-24-24v-78s0-24,24-24"/>
      </g>
    </g>
    <g id="_圖層_1">
      <g id="_圖層_1-2">
        <g id="_圖層_1-2-2" data-name="_圖層_1-2">
          <g>
            <g>
              <path class="cls-60" d="M541.73,291.24l-5.74,3.23,13.34,53.1,15.92-10.43c-5.8-11.37-16.78-32.83-23.52-45.9h-.01,0Z"/>
              <polygon class="cls-60" points="576.57 329.73 598.47 315.39 552.44 285.21 547.6 287.94 576.57 329.73"/>
            </g>
            <path class="cls-5" d="M574.39,295.53c-.52.56-1.49,2.94-2.35,4.9,0,0,1.73,1.07,2.9.71,0,0,1.2-2.04,1.8-3.8.29-.8-.34-1.5-1.19-1.56l-1.16-.25h0Z"/>
            <path class="cls-10" d="M577.2,290.25s.56-.31,1.51.84,1.1.36,2.29,1.78c.54.64-3.06,2.63-4.15,2.29s-2.05-.06-2.05-.64,1.01-.69.69-1.56c-.33-.88-.15-1.92.54-2.19.69-.26,1.16-.49,1.16-.49h0v-.02h.01Z"/>
            <path class="cls-5" d="M584.57,308.21s.89-8.53-2.6-12.92c-1.07-1.33-2.94-1.33-3.8-1.37-1.96-.09-3.76,1.58-3.76,1.58-.4,2.18.3,3.19.64,7.03l-1.8,2.5,11.33,3.18h-.01Z"/>
            <path class="cls-33" d="M575.2,299.81s.11-1.03.2-1.98c-.09-.24-.18-.36-.18-.36"/>
            <path class="cls-9" d="M571.96,303.1s-1.2-.07-2.94,3.38c-.95,1.89-4.46,5.79-4.46,5.79l-.96-.55,4.24-8.52c.37-.7,1.63-1.34,2.39-1.43l1.01.67.75.65h-.02Z"/>
            <path class="cls-11" d="M564.04,310.06l2.41.81s2.55-2.58,3.21-4.7l5.49,4.24,4.7-3.56s-8.05-5.15-8.55-5.51c-.48-.36-2.2-.79-3.14.5-.94,1.31-4.15,8.22-4.15,8.22h.01v-.02h.01Z"/>
            <path class="cls-49" d="M584.64,306.69s.56,6.88-5.21,6.74c-5.78-.14-6.83-6.38-6.83-6.38l1.61,1.3,1.22-.52,2.81-2.43,6.39,1.28h.01Z"/>
            <path class="cls-17" d="M563.63,311.56l-1.03.71c-.21.18-1.34.5-1.34.5h0c-.11.22.09.36.29.39l3.28.06s.76-.14.15-1.61c-.61.24-1.2.4-1.35-.06h.01Z"/>
            <path class="cls-9" d="M576.98,303.3s-1.2-.07-2.94,3.38c-.95,1.89-4.46,5.79-4.46,5.79l-.96-.55,4.24-8.52c.37-.7,1.63-1.34,2.39-1.43l1.01.67.75.65h-.02,0Z"/>
            <path class="cls-17" d="M568.64,311.76l-1.03.71c-.21.18-1.34.5-1.34.5h0c-.11.22.09.36.29.39l3.28.06s.76-.14.15-1.61c-.61.24-1.2.4-1.35-.06h.01Z"/>
            <path class="cls-9" d="M576.62,292.93s.33.95.6,1.76c.07.21.25.37.48.4.22.05.45-.05.59-.21.05-.06.09-.11.14-.16.2-.24.24-.56.1-.84-.33-.71-.94-2.01-.94-2.01l-.95,1.07h-.01Z"/>
            <polygon class="cls-4" points="576.7 293.25 576.93 293.82 577.38 293.19 576.7 293.25"/>
            <path class="cls-45" d="M576.46,294.24s-.8,1.96.63,2.04c1.41.06,2.18-2.24,2.18-2.24l-1.22-.41-1.58.61h-.01Z"/>
            <path class="cls-9" d="M578,291.48c.03-.3-.18-.56-.48-.59-.31-.03-.7-.07-1.01-.1-.3-.03-.5.2-.59.48-.09.34-.1,1.06-.06,1.58.03.3.22.59.52.61.31.03,1.28-.18,1.41-.73.1-.41.15-.81.2-1.25h.01Z"/>
            <path class="cls-10" d="M579.11,292.63s-.34-1.48-.81-1.88c-.63-.54-1.45-.8-2.26-.01,0,0,.61,1.14,2.71,1.95l.37-.05h0Z"/>
            <path class="cls-9" d="M578.21,292.69c-.1.22-.33.33-.52.24s-.24-.34-.14-.55c.1-.22.33-.33.52-.24s.24.34.14.55h0Z"/>
            <path class="cls-6" d="M576.01,292.64l.5.05s-.03.36-.29.3-.22-.34-.22-.34h0Z"/>
            <polyline class="cls-33" points="578.45 300.06 578.7 298.21 579.1 297.87"/>
            <path class="cls-9" d="M578,303.53l1.85-5.2c.5-1.43,1.78-2.16,2.66-1.55h0c.36.24.22,1.76-.03,2.29l-2.2,5.3-2.28-.86h.01Z"/>
            <path class="cls-9" d="M567.55,301.52c-.18.1-.41.06-.55-.09-.31-.37-.81-1.07-.4-1.54.59-.64,1.49.44,1.5.94,0,.31-.31.55-.56.69h.01Z"/>
            <g>
              <path class="cls-27" d="M570.57,301.45l-1.15,2.48-3.36-5.09,1.04-2.84c.05-.11.2-.14.25-.03l3.2,5.49h.01Z"/>
              <path class="cls-50" d="M568.33,295.53l1.48,2.54-1.96.67s-1.34-.05-1.34-.07,1.85-3.13,1.85-3.13h-.02Z"/>
              <path class="cls-43" d="M572.97,297.93l-.44-.7c-1.31-.06-2.76.31-4.3.91-1.5.59-1.73.71-1.73.71l.48.14,5.99-1.06h0Z"/>
              <path class="cls-43" d="M568.14,296.74c.16-.5.26-1,.18-1.2l-.94.31-1.18,2.98.41.05.16-.14c.63-.52,1.1-1.2,1.35-1.98h.01Z"/>
              <path class="cls-27" d="M566.47,298.76h-.2c-.11,0-.18.15-.11.24l3.59,5.75c.06.09.14.15.24.18l.16.05c.18.05.45-.09.45-.09l-3.51-5.8c-.14-.21-.36-.33-.6-.31h-.02Z"/>
              <path class="cls-42" d="M575.23,303.85l-4.63,1.04-3.66-5.99,5.49-1.03c.37-.07.76.1.94.44l2.41,4.35c.26.48,0,1.09-.55,1.2h0Z"/>
            </g>
            <path class="cls-5" d="M580.07,296.58l-1.63,4.3,3.79,1.96s.94-3.85.94-4.08-.1-2.68-1.34-3.09-1.78.89-1.78.89h.02Z"/>
            <g>
              <polygon class="cls-59" points="539.11 343.87 534.45 345.89 520.97 310.22 525.64 308.21 539.11 343.87"/>
              <path class="cls-55" d="M527.54,342.27h17.92c1.66,0,3.01,1.35,3.01,3.01h0c0,1.66-1.35,3.01-3.01,3.01h-17.93c-1.66,0-3.01-1.35-3.01-3.01h0c0-1.66,1.35-3.01,3.01-3.01h.01,0Z"/>
              <polygon class="cls-59" points="525.34 307.31 519.81 306.42 533.32 288.1 536.52 291.67 525.34 307.31"/>
              <g>
                <path class="cls-61" d="M536.73,291.93l-8-5.95c-2.16-1.61-2.6-4.68-1-6.84l.16-.22c1.61-2.16,4.68-2.6,6.84-1l8,5.95c2.16,1.61,2.6,4.68,1,6.84l-.16.22c-1.61,2.16-4.68,2.6-6.84,1h0Z"/>
                <ellipse class="cls-46" cx="548.01" cy="294.9" rx="12.24" ry="3.59" transform="translate(-25.2 537.2) rotate(-51.2)"/>
                <path class="cls-61" d="M539.19,303.4l-2.66-3.56c-3.28-4.38-3.01-10.47.65-14.53h0c3.35-3.73,8.74-4.85,13.29-2.76l4.21,1.92-15.51,18.93h.01Z"/>
                <ellipse class="cls-52" cx="546.89" cy="294.11" rx="12.08" ry="3.54" transform="translate(-25.01 536.03) rotate(-51.2)"/>
                <path class="cls-22" d="M550.9,291.43c-.2,2.05-1.16,5.02-5.06,6.05-1.7.45-3.21-1.15-2.64-2.8.78-2.2,2.71-4.61,4.74-5.45,1.5-.63,3.13.6,2.98,2.21h-.02,0Z"/>
                <path class="cls-46" d="M543.89,291.4c4.24-5.28,8.92-8.53,10.47-7.3.29.24.45.61.49,1.1-2.11.29-5.85,3.25-9.29,7.54-3.44,4.29-5.64,8.94-5.46,11.05-.49.06-.78-.37-1.07-.6-1.55-1.24.64-6.53,4.89-11.79h-.03Z"/>
              </g>
              <ellipse class="cls-44" cx="522.76" cy="307.79" rx="3.93" ry="3.61" transform="translate(-58.93 135.61) rotate(-14)"/>
              <circle class="cls-59" cx="522.54" cy="307.62" r="1.55"/>
              <path class="cls-44" d="M535.73,288.52s-1.58,6.46,3.38,10.74c0,0,1.18-3.01,2.98-5.44,0,0-2.99-1.04-4.3-8.14l-2.05,2.83h-.01Z"/>
              <path class="cls-44" d="M535.73,288.52l-5.68-4.44c-.91-.71-1.09-2.01-.4-2.94l.65-.89,7.48,5.44-1.26,4.49-.79-1.81v.16h0Z"/>
            </g>
            <g>
              <path class="cls-57" d="M551.62,323.42h22.23v-9.38h-22.23c2.16,0,2.16,9.38,0,9.38h0Z"/>
              <path class="cls-51" d="M551.71,314.36h22.13v-1.14h-22.13c-.31,0-.56.25-.56.56h0c0,.31.25.56.56.56h0Z"/>
              <path class="cls-51" d="M551.76,324.05h22.08v-1.22h-22.08c-.34,0-.61.26-.61.61h0c0,.34.26.61.61.61h0Z"/>
              <path class="cls-51" d="M567.93,313.19h22.98c.49,0,.49,10.84,0,10.84h-22.98c2.6,0,2.6-10.84,0-10.84h0Z"/>
              <path class="cls-58" d="M569.47,313.19h25.97c1.9,0,3.44,1.55,3.44,3.44v3.95c0,1.9-1.54,3.44-3.44,3.44h-25.97c2.6,0,2.6-10.84,0-10.84h0Z"/>
              <line class="cls-36" x1="567.93" y1="315.63" x2="553.99" y2="315.63"/>
              <line class="cls-36" x1="567.93" y1="317.8" x2="553.99" y2="317.8"/>
              <line class="cls-36" x1="567.93" y1="319.99" x2="553.99" y2="319.99"/>
              <line class="cls-36" x1="567.93" y1="322.17" x2="553.99" y2="322.17"/>
            </g>
            <path class="cls-28" d="M576.31,313.16h-3.09c1.66,0,1.66,10.9,0,10.9h3.09c1.66,0,1.66-10.9,0-10.9h0Z"/>
            <path class="cls-22" d="M538.78,349.84h32.96v-13.89h-32.94c3.2,0,3.2,13.89,0,13.89h-.01,0Z"/>
            <path class="cls-53" d="M538.93,336.36h32.81v-1.69h-32.81c-.46,0-.85.37-.85.85h0c0,.46.37.85.85.85h0Z"/>
            <path class="cls-53" d="M538.99,350.74h32.75v-1.81h-32.75c-.5,0-.91.4-.91.91h0c0,.5.4.91.91.91h0Z"/>
            <path class="cls-53" d="M562.97,334.67h34.06c.73,0,.73,16.07,0,16.07h-34.06c3.85,0,3.85-16.07,0-16.07h0Z"/>
            <path class="cls-64" d="M565.25,334.67h38.5c2.81,0,5.1,2.28,5.1,5.1v5.87c0,2.81-2.28,5.1-5.1,5.1h-38.5c3.85,0,3.85-16.07,0-16.07h0Z"/>
            <line class="cls-36" x1="562.97" y1="338.3" x2="542.32" y2="338.3"/>
            <line class="cls-36" x1="562.97" y1="341.52" x2="542.32" y2="341.52"/>
            <line class="cls-36" x1="562.97" y1="344.76" x2="542.32" y2="344.76"/>
            <line class="cls-36" x1="562.97" y1="347.99" x2="542.32" y2="347.99"/>
            <path class="cls-47" d="M584.55,350.74h-8.03c2.48,0,2.48-16.09,0-16.09h8.03c2.55,0,2.55,16.09,0,16.09Z"/>
            <g>
              <rect class="cls-63" x="542.32" y="324.88" width="3.4" height="8.87"/>
              <g>
                <path class="cls-65" d="M544.01,333.2h31.96v-7.89h-31.96c-.37,2.88-.39,5.51,0,7.89h0Z"/>
                <path class="cls-63" d="M575.96,325.71h-32.81c-.46,0-.85-.37-.85-.85h0c0-.46.37-.85.85-.85h32.81v1.69h0Z"/>
                <path class="cls-63" d="M543.21,334.65h32.75v-1.81h-32.75c-.5,0-.91.4-.91.91h0c0,.5.4.91.91.91h0Z"/>
                <path class="cls-29" d="M567.73,324.03h37.79c1.35,0,2.45.33,2.45,1.69-2.26,2.09-2.64,5.43,0,7.12,0,1.35-1.1,1.81-2.45,1.81h-37.79v-10.62h0Z"/>
                <path class="cls-56" d="M567.73,325.71h40.24c-1.58,2.51-1.49,4.88,0,7.12h-40.24c-.4-2.44-.46-4.81,0-7.12Z"/>
                <line class="cls-36" x1="566.37" y1="327.64" x2="545.71" y2="327.64"/>
                <line class="cls-36" x1="566.37" y1="330.88" x2="545.71" y2="330.88"/>
              </g>
            </g>
            <path class="cls-9" d="M580.52,303.7c-.54,1.64-1.04,1.84-1.94,1.56l-3.58-2.89.94-.76,2.79,1.22,1.78.85h0v.02h.01Z"/>
            <path class="cls-45" d="M576.07,301.7l-.95-.7c-.2-.14-.44-.21-.69-.2l-1.03.06c-.36.01-.61.36-.49.65h0l1.26.8c.29.18.65.25,1.04.21l.65-.06.2-.79h0v.02h.01Z"/>
            <path class="cls-11" d="M569.08,310.26l2.41.81s2.55-2.58,3.21-4.7l5.49,4.24,4.38-3.93s-7.85-3.91-8.34-4.28-2.09-.86-3.03.45-4.18,7.42-4.18,7.42h.05Z"/>
            <line class="cls-34" x1="573.93" y1="308.71" x2="576.2" y2="306.01"/>
            <g>
              <g>
                <path class="cls-2" d="M592.19,335.78c-.15.31,0,.69.4.89.67.37,2.74.31,3.29,2.73.4,1.74,3.1,6.24,4.7,8.19.24.29,0,.16.41.09h0c.49-.09,1.15.25,1.04-.14,0,0-3.53-11.79-4.36-11.62l-3.8-1.01s.29.89.14,1.24l-1.8-.37h-.03Z"/>
                <path class="cls-17" d="M601.87,346.99l.96.45c.24.09,1.31,0,1.31,0h0c.18.16.03.34-.1.44l-2.81,1.1s-.7.14-.64-1.34c.6,0,1.31-.2,1.28-.63h0Z"/>
                <path class="cls-2" d="M593.26,340.14c.4,1.74,3.13,6.23,4.75,8.16.24.29,0,.16.41.09h0c.49-.09,1.15.24,1.03-.15l-3.3-11.57c-.1-.36-.33-.67-.67-.94-.67-.52-1.61-.69-2.44-.49l-1.81.44s.3.89.14,1.22c0,0,1.34.84,1.9,3.23h0v.02h-.01Z"/>
                <path class="cls-17" d="M599.38,347.84l.89.29c.24.09,1.31,0,1.31,0h0c.18.15.03.34-.1.44l-2.8,1.11s-.7.14-.65-1.34c.6,0,1.39-.05,1.35-.48h0Z"/>
                <path class="cls-18" d="M602.53,345.79c.03.06-2.16,1.16-2.8,1.2l-1.3-2.31.99,2.43s-1.76,1.16-2.49,1.01c0,0-2.26-4.3-2.49-4.6s-2.15-3.9-2.28-4.26c-.48-1.19-1.73-1.74-2.66-2.2s-5.02-1.8-6.3-2.59c-1.28-.79-1.11-5.46-1.11-5.46l9.35.37s6.13,4.65,6.57,5.05c.46.41,1.07,1.8,1.26,2.28,1.19,2.91,2.4,7.15,3.26,9.08h0Z"/>
                <path class="cls-30" d="M598.5,344.5s-2.7-6.31-2.9-7.04c-.64-2.29-1.49-3.03-5.04-4.79"/>
              </g>
              <path class="cls-9" d="M592.53,325.87c.69,0,1.51-.22,1.73-.86-.46-1.69-1.49-3.71-2.89-5.98-.69-1.2-1.92-1.84-2.6-1.33h0c-.26.2-.24.73.07,1.18l3.91,7.42-.22-.44h0Z"/>
              <path class="cls-3" d="M589.7,317.51l-1.86-.64-2.88-.05-2.35.95c-1.07.54-1.4,6.03-1.4,6.03.33,6.85.29,5.64.67,7.03,1.96-.36,4.68.75,8.24-.37,2.34-.73,1.54-2.24.99-4.61-.56-2.43-.99-5.08-1.39-8.34h-.01Z"/>
              <path class="cls-20" d="M587.83,316.88s.29,1.85-.99,1.92c-1.24.07-1.89-1.96-1.89-1.96l.78-.39,2.1.44h0Z"/>
              <path class="cls-2" d="M584.36,326.3l-.15-5.61c-.05-1.55-1.04-2.65-2.1-2.34h0c-.41.11-.78,1.64-.7,2.24l.45,5.83,2.49-.11h.01Z"/>
              <path class="cls-2" d="M581.87,326.41c.14,1.18,1.61,1.76,2.51,1.49l3.64-2.94-.96-.78-3.4,1.35-1.8.86h.01Z"/>
              <path class="cls-3" d="M582.33,317.99s-.99.64-1.31,3.74l-.07,2.06,3.54-.1s.15-5.21-.94-5.53-1.24-.18-1.24-.18h.01Z"/>
              <path class="cls-3" d="M589.7,317.51s1.58.37,3.29,3.91c0,0-1.04,2.09-1.96,1.94,0,0-1.63-2.16-1.7-2.16s.37-3.68.37-3.68h0Z"/>
              <path class="cls-2" d="M596.91,323.77c.18.1.41.06.55-.09.33-.37.81-1.1.4-1.56-.6-.65-1.51.44-1.54.95,0,.31.31.55.56.7h.02Z"/>
              <polyline class="cls-33" points="584.55 323.44 584.41 320.95 584.1 320.53"/>
              <polyline class="cls-33" points="590.1 322.13 589.4 320.17 589.48 319.7"/>
              <g>
                <path class="cls-26" d="M593.84,323.72l1.16,2.54,3.43-5.2-1.06-2.9c-.05-.11-.2-.14-.26-.03l-3.26,5.59h-.01Z"/>
                <path class="cls-50" d="M596.14,317.68l-1.49,2.58,2.01.67s1.35-.05,1.37-.07-1.88-3.19-1.88-3.19h0Z"/>
                <path class="cls-22" d="M591.41,320.13l.44-.71c1.33-.06,2.81.33,4.38.94,1.54.6,1.76.73,1.76.73l-.49.14-6.09-1.07h0v-.03h.01Z"/>
                <path class="cls-22" d="M596.32,318.91c-.18-.52-.26-1.01-.2-1.24l.95.31,1.19,3.04-.41.05-.16-.15c-.63-.54-1.11-1.24-1.37-2.01h-.01Z"/>
                <path class="cls-26" d="M598.03,320.95h.21c.11,0,.2.15.11.24l-3.65,5.84c-.06.09-.14.15-.24.18l-.16.05c-.2.05-.46-.09-.46-.09l3.58-5.91c.14-.21.37-.33.61-.33h0v.03h0Z"/>
                <path class="cls-51" d="M589.1,326.14l4.73,1.06,3.73-6.1-5.59-1.04c-.39-.07-.78.1-.95.45l-2.45,4.43c-.26.49,0,1.1.55,1.22h-.01Z"/>
              </g>
              <path class="cls-20" d="M586.95,324.27l.96-.71c.2-.15.45-.21.7-.2l1.04.06c.37,0,.63.37.49.67h0l-1.28.81c-.29.18-.67.25-1.07.22l-.67-.07-.21-.8h.03v.02h-.01Z"/>
              <path class="cls-8" d="M585.55,314.35s0,1.31.69,1.48c.67.16.99-1.7.99-1.7l-1.66.22h-.01Z"/>
              <path class="cls-2" d="M587.44,315.58s-.2.96-.36,1.79c-.05.21-.21.39-.45.45s-.49,0-.67-.15c-.06-.05-.11-.1-.18-.15-.25-.21-.36-.54-.26-.81.24-.73.67-2.06.67-2.06l1.24.96h0v-.02h.01Z"/>
              <polygon class="cls-16" points="587.38 316.2 587.21 316.75 586.7 316.15 587.38 316.2"/>
              <path class="cls-2" d="M586.13,314.24c0-.3.25-.52.54-.5.31,0,.7,0,1,.03.29,0,.48.25.5.54.05.34-.03,1.04-.15,1.55-.06.29-.3.54-.59.54s-1.22-.33-1.3-.89c-.06-.44-.03-.81,0-1.25h-.01Z"/>
              <path class="cls-8" d="M585.57,314.51s-.15-.69.36-1.01c.67-.45.89.44.76.61-.11.16.07.96-.2,1.01-.34.05-.2-.36-.73-.46l-.21-.14h.02Z"/>
              <path class="cls-6" d="M587.85,315.55h-.45s0,.31.22.29.21-.29.21-.29h.02Z"/>
              <path class="cls-2" d="M585.79,315.26c.07.22.29.36.48.3s.29-.3.21-.52-.29-.36-.48-.3-.29.3-.21.52Z"/>
              <path class="cls-62" d="M585.2,313.81c0-.11.1-.24.22-.25-.05-.1,0-.22.06-.31.07-.07.21-.1.31-.06.03-.11.1-.24.22-.29.11-.06.25-.05.36,0,.05-.09.14-.14.22-.15s.2.05.24.11c.06-.09.18-.15.29-.14s.21.1.22.22c0-.07.05-.15.11-.16.07,0,.15.03.21.09.05.06.06.07.1.15.22-.11.44.03.44.31.14-.06.15.09.18.2v.09s.06.1.06.18-.06.16-.15.2c-.03.09-.1.11-.2.1-.86-.11-1.22.15-1.49.21-.26.07-1.03.44-1.03.44-.15,0-.18-.15-.16-.34-.05,0-.07-.03-.1-.06-.06-.09,0-.22.1-.29-.11,0-.22-.14-.22-.25h.02Z"/>
            </g>
            <polygon class="cls-51" points="549.95 341.52 549.95 346.99 551.62 345.06 553.67 346.87 553.67 341.52 549.95 341.52"/>
          </g>
        </g>
      </g>
    </g>
  </g>
  <g id="c2">
    <g id="tx__1lsejv1ohb7k9-fill">
      <g class="cls-23">
        <text class="cls-24" transform="translate(274 173)"><tspan x="0" y="0">教育行政學系</tspan></text>
      </g>
    </g>
  </g>
  <g id="c3">
    <g id="tx__1hd7itpohb56q-fill">
      <g class="cls-23">
        <text class="cls-24" transform="translate(274 209)"><tspan x="0" y="0">公民教育學系</tspan></text>
      </g>
    </g>
  </g>
  <g id="c4">
    <g id="tx__18hkiktohb5zf-fill">
      <g class="cls-23">
        <text class="cls-24" transform="translate(274 245)"><tspan x="0" y="0">社會教育學系</tspan></text>
      </g>
    </g>
  </g>
  <g id="c5">
    <g id="tx__141r0gdohb6ro-fill">
      <g class="cls-23">
        <text class="cls-24" transform="translate(214 281)"><tspan x="0" y="0">成人及繼續教育學系</tspan></text>
      </g>
    </g>
  </g>
  <g id="c1">
    <g id="tx__1uo1k3xohb6rk-fill">
      <g class="cls-23">
        <text class="cls-24" transform="translate(314 137)"><tspan x="0" y="0">教育學系</tspan></text>
      </g>
    </g>
  </g>
  <g id="c6">
    <g id="tx__v6407hohb7kd-fill">
      <g class="cls-23">
        <text class="cls-24" transform="translate(274 317)"><tspan x="0" y="0">數學教育學系</tspan></text>
      </g>
    </g>
  </g>
  <g id="c7">
    <g id="tx__qqwz65ohb56u-fill">
      <g class="cls-23">
        <text class="cls-24" transform="translate(274 353)"><tspan x="0" y="0">英語教學學系</tspan></text>
      </g>
    </g>
  </g>
  <g id="c9">
    <g id="tx__hv9yx9ohb5zj-fill">
      <g class="cls-23">
        <text class="cls-24" transform="translate(274 389)"><tspan x="0" y="0">語文教育學系</tspan></text>
      </g>
    </g>
  </g>
  <g id="c10">
    <g id="tx__dfggstohb6rs-fill">
      <g class="cls-23">
        <text class="cls-24" transform="translate(274 425)"><tspan x="0" y="0">科學教育學系</tspan></text>
      </g>
    </g>
  </g>
  <g id="g-root-ro_1uuws25ohb56x-stroke">
    <g id="ro_1uuws25ohb56x-stroke">
      <path class="cls-32" d="M272,51h168s12,0,12,12v30s0,12-12,12h-168s-12,0-12-12v-30s0-12,12-12"/>
    </g>
  </g>
  <g id="g-root-cu_dhbw25ohcjyc-stroke">
    <g id="cu_dhbw25ohcjyc-stroke">
      <path class="cls-40" d="M420,105v60h-18"/>
    </g>
  </g>
  <g id="g-root-cu_dhbw25ohcjye-stroke">
    <g id="cu_dhbw25ohcjye-stroke">
      <path class="cls-40" d="M420,105v96h-18"/>
    </g>
  </g>
  <g id="g-root-cu_91idxpohckqo-stroke">
    <g id="cu_91idxpohckqo-stroke">
      <path class="cls-40" d="M420,105v132h-18"/>
    </g>
  </g>
  <g id="g-root-cu_5vdotohclje-stroke">
    <g id="cu_5vdotohclje-stroke">
      <path class="cls-40" d="M420,105v168h-18"/>
    </g>
  </g>
  <g id="g-root-cu_5vdotohcljg-stroke">
    <g id="cu_5vdotohcljg-stroke">
      <path class="cls-40" d="M420,105v204h-18"/>
    </g>
  </g>
  <g id="g-root-cu_1ur5xjhohcm4m-stroke">
    <g id="cu_1ur5xjhohcm4m-stroke">
      <path class="cls-40" d="M420,105v240h-18"/>
    </g>
  </g>
  <g id="g-root-cu_1qbywi5ohcjr4-stroke">
    <g id="cu_1qbywi5ohcjr4-stroke">
      <path class="cls-40" d="M420,105v276h-18"/>
    </g>
  </g>
  <g id="g-root-cu_1qbywi5ohcjr6-stroke">
    <g id="cu_1qbywi5ohcjr6-stroke">
      <path class="cls-40" d="M420,105v300c0,6.63-5.37,12-12,12h-6"/>
    </g>
  </g>
  <g id="g-root-cu_hwix3hohcmbt-stroke">
    <g id="cu_hwix3hohcmbt-stroke">
      <path class="cls-40" d="M420,105v24h-18"/>
    </g>
  </g>
  <g id="b1">
    <g id="g-root-ro_1uuws25ohb56x-fill">
      <g id="ro_1uuws25ohb56x-fill">
        <path class="cls-14" d="M272,51h168s12,0,12,12v30s0,12-12,12h-168s-12,0-12-12v-30s0-12,12-12"/>
      </g>
    </g>
    <g id="g-root-tx__94mrd9ohb6yv-fill">
      <g id="tx__94mrd9ohb6yv-fill">
        <g class="cls-23">
          <text class="cls-21" transform="translate(277 86)"><tspan x="0" y="0">綜合教育學類</tspan></text>
        </g>
      </g>
    </g>
    <g id="_圖層_1-2" data-name="_圖層_1">
      <g id="_圖層_1-2-3" data-name="_圖層_1-2">
        <g id="_圖層_1-2-4" data-name="_圖層_1-2">
          <g>
            <path class="cls-44" d="M409.82,73.92v9.64c0,.6.35,1.22.92,1.47,3.01,1.35,6.22,2.01,9.45,2.01h0c3.23,0,6.44-.66,9.45-2.01.57-.26.92-.83.92-1.47v-9.64"/>
            <path class="cls-51" d="M435.31,87.96c.47,1.72.9,3.54.9,5.77h-3.3c0-2.17.41-4.05.9-5.77"/>
            <path class="cls-1" d="M421.89,66.76l13.93,4.38c.47.15.47.86,0,1.02l-13.93,4.38c-1.09.35-2.27.35-3.4,0l-13.93-4.37c-.47-.15-.47-.86,0-1.02l13.93-4.38c1.09-.35,2.27-.35,3.4,0h0v-.02h0Z"/>
            <path class="cls-61" d="M421.89,66.76l13.93,4.38c.47.15.47.86,0,1.02l-13.93,4.38c-1.09.35-2.27.35-3.4,0l-13.93-4.37c-.47-.15-.47-.86,0-1.02l13.93-4.38c1.09-.35,2.27-.35,3.4,0h0v-.02h0Z"/>
            <path class="cls-52" d="M430.56,73.92h-.29l-8.34,2.63c-1.09.35-2.27.35-3.4,0l-8.37-2.63h-.35v2.1l8.71,2.73c1.13.35,2.31.35,3.4,0l8.62-2.72v-2.13l.02.02h0Z"/>
            <path class="cls-64" d="M433.16,87.34c0-.77.64-1.41,1.41-1.41s1.41.64,1.41,1.41-.64,1.41-1.41,1.41-1.41-.64-1.41-1.41Z"/>
            <path class="cls-58" d="M433.47,93.73s0-1.57.26-2.35c0,0,.42,1.99.21,2.35h-.47Z"/>
            <path class="cls-58" d="M435.14,93.73s0-1.57.26-2.35c0,0,.42,1.99.21,2.35h-.47Z"/>
            <path class="cls-58" d="M434.3,93.73s0-1.57.26-2.35c0,0,.42,1.99.21,2.35h-.47Z"/>
            <ellipse class="cls-44" cx="420.31" cy="71.23" rx=".69" ry=".33"/>
            <path class="cls-64" d="M434.56,86.79c-.06,0-.1-.04-.1-.1v-13.24c0-.66-.16-1.13-.48-1.42-.36-.32-.81-.27-.82-.27h-.02l-12.98-.48c-.06,0-.1-.05-.1-.11,0-.06.05-.1.11-.1l12.97.48c.07,0,.56-.04.97.32.36.32.55.85.55,1.57v13.24c0,.06-.04.1-.1.1Z"/>
          </g>
        </g>
      </g>
    </g>
  </g>
  <g id="b2">
    <g id="g-root-ro_1q881zhoh9te1-fill">
      <g id="ro_1q881zhoh9te1-fill">
        <path class="cls-13" d="M688,177h168s12,0,12,12v30s0,12-12,12h-168s-12,0-12-12v-30s0-12,12-12"/>
      </g>
    </g>
    <g id="g-root-tx__4ikidpoh9s07-fill">
      <g id="tx__4ikidpoh9s07-fill">
        <g class="cls-23">
          <text class="cls-21" transform="translate(730 210.56)"><tspan x="0" y="0">學前教育學類</tspan></text>
        </g>
      </g>
    </g>
    <g id="_圖層_1-3" data-name="_圖層_1">
      <g id="_圖層_1-2-5" data-name="_圖層_1-2">
        <g id="_圖層_1-2-6" data-name="_圖層_1-2">
          <g id="_圖層_1-2-2">
            <g>
              <path class="cls-64" d="M700.87,189.66h19.7c.84,0,1.52.68,1.52,1.52v26.75c0,.98-.8,1.76-1.76,1.76h-19.45v-30.04h0s0,.01,0,.01h0Z"/>
              <path class="cls-53" d="M697.47,189.66h3.39v30.04h-3.18c-.54,0-.96-.44-.96-.96v-28.33c0-.42.33-.75.75-.75h0,0Z"/>
              <rect class="cls-54" x="702.14" y="190.93" width=".08" height="28.28"/>
              <g>
                <path class="cls-48" d="M711.18,200.74c-.06,0-.12-.05-.12-.12s.05-.12.12-.12c.36,0,.68-.15.82-.38.15-.26.15-.67-.09-.86,0,0,0,0,0,0-.13-.13-.34-.18-.57-.12-.13.05-.28.18-.3.34-.01.13.1.3.23.31.06,0,.11.06.1.13,0,.06-.06.11-.13.1-.25-.03-.46-.31-.43-.57.03-.26.25-.47.46-.54h0c.31-.09.6-.02.8.17.35.28.34.82.14,1.16-.22.37-.67.49-1.01.49h0s0,0,0,0Z"/>
                <g>
                  <path class="cls-45" d="M705.74,209.49c.38.42,1.01.42,1.41,0l-1.35-1.39c-.38.39-.42,1.01-.06,1.39Z"/>
                  <path class="cls-41" d="M717.3,208.12h-.04.04l-2.58-2.58c-.36-.36-.89-.48-1.33-.3-.6.2-1.22.3-1.85.3s-1.25-.1-1.85-.3c-.48-.18-1.01-.06-1.33.3l-2.56,2.56,1.35,1.39,1.72-1.72v2.32l-.92,4.91c-.12.77.51,1.49,1.28,1.49s1.07-.39,1.25-.92l.77-3.89c0-.14.14-.24.3-.24s.27.1.3.24l.77,3.89c.18.54.66.92,1.25.92s1.37-.69,1.29-1.49l-.92-4.91v-2.32l1.69,1.69,1.39-1.33h-.02,0Z"/>
                  <path class="cls-45" d="M717.32,208.12l-1.39,1.33c.39.39,1.01.42,1.39.06.42-.39.42-1.01,0-1.39Z"/>
                </g>
                <path class="cls-31" d="M708.92,203.37s0,0,0,0c0-.01,0,0,0,0Z"/>
                <path class="cls-45" d="M714.09,203.4v-.41c0-1.39-1.13-2.52-2.52-2.52s-2.52,1.13-2.52,2.52,0,.31,0,.41c-.13.19-.21.4-.21.62,0,.89,1.23,1.61,2.74,1.61s2.74-.72,2.74-1.61-.08-.43-.21-.62h0ZM709.06,203.37s0-.03,0,0c0,0,0,0,0,0ZM714.06,203.36s0,0,0,0h0Z"/>
                <path class="cls-22" d="M711.56,204.73c.14,0,.25-.11.25-.25h-.5c0,.14.11.25.25.25h0Z"/>
              </g>
              <path class="cls-12" d="M705.37,187.72h-1.18c-1.08,0-1.96.87-1.96,1.96h2.03c.52,0,.93.42.93.93v5.25l2.61-1.87,2.68,1.87v-5.99c0-1.19-.96-2.16-2.16-2.16h-2.97,0s0,0,0,0Z"/>
            </g>
          </g>
        </g>
      </g>
    </g>
  </g>
  <g id="b3">
    <g id="g-root-ro_4nkb2loh9rf0-fill">
      <g id="ro_4nkb2loh9rf0-fill">
        <path class="cls-7" d="M688,351h168s12,0,12,12v30s0,12-12,12h-168s-12,0-12-12v-30s0-12,12-12"/>
      </g>
    </g>
    <g id="g-root-tx__qu1clpoh9s76-fill">
      <g id="tx__qu1clpoh9s76-fill">
        <g class="cls-23">
          <text class="cls-21" transform="translate(730 387)"><tspan x="0" y="0">特殊教育學類</tspan></text>
        </g>
      </g>
    </g>
    <g id="_圖層_1-4" data-name="_圖層_1">
      <g id="_圖層_1-2-7" data-name="_圖層_1-2">
        <g id="_圖層_1-2-8" data-name="_圖層_1-2">
          <g id="_圖層_1-2-2-2" data-name="_圖層_1-2-2">
            <g>
              <g>
                <path class="cls-44" d="M704.44,368.19v7.66c0,.48.28.97.73,1.17,2.39,1.07,4.94,1.6,7.51,1.6h0c2.57,0,5.11-.53,7.51-1.6.46-.2.73-.66.73-1.17v-7.66"/>
                <path class="cls-51" d="M724.69,379.36c.38,1.36.71,2.81.71,4.58h-2.62c0-1.72.33-3.22.71-4.58"/>
                <path class="cls-1" d="M714.04,362.51l11.07,3.48c.38.12.38.68,0,.81l-11.07,3.48c-.86.28-1.8.28-2.7,0l-11.07-3.47c-.38-.12-.38-.68,0-.81l11.07-3.48c.86-.28,1.8-.28,2.7,0h0s0,0,0,0Z"/>
                <path class="cls-61" d="M714.04,362.51l11.07,3.48c.38.12.38.68,0,.81l-11.07,3.48c-.86.28-1.8.28-2.7,0l-11.07-3.47c-.38-.12-.38-.68,0-.81l11.07-3.48c.86-.28,1.8-.28,2.7,0h0s0,0,0,0Z"/>
                <path class="cls-52" d="M720.92,368.19h-.24l-6.63,2.09c-.86.28-1.8.28-2.7,0l-6.65-2.09h-.28v1.67l6.93,2.17c.9.28,1.84.28,2.7,0l6.85-2.16v-1.69h0s.01,0,.01,0h0Z"/>
                <path class="cls-64" d="M722.98,378.86c0-.61.51-1.12,1.12-1.12s1.12.51,1.12,1.12-.51,1.12-1.12,1.12-1.12-.51-1.12-1.12Z"/>
                <path class="cls-58" d="M723.24,383.94s0-1.24.21-1.86c0,0,.33,1.57.16,1.86h-.37Z"/>
                <path class="cls-58" d="M724.56,383.94s0-1.24.21-1.86c0,0,.33,1.57.16,1.86h-.37Z"/>
                <path class="cls-58" d="M723.89,383.94s0-1.24.21-1.86c0,0,.33,1.57.16,1.86h-.37Z"/>
                <ellipse class="cls-44" cx="712.78" cy="366.06" rx=".54" ry=".26"/>
                <path class="cls-64" d="M724.1,378.45c-.06,0-.1-.04-.1-.1v-10.52c0-.52-.13-.89-.37-1.11-.28-.25-.63-.21-.63-.21h-.02l-10.31-.38c-.06,0-.1-.05-.1-.11,0-.06.05-.1.11-.1l10.31.38c.07,0,.45-.03.78.26.29.26.44.69.44,1.26v10.52c0,.06-.04.1-.1.1Z"/>
              </g>
              <g>
                <path class="cls-53" d="M699.26,372.05c-3.93.21-5.85,2.54-5.85,2.54,1.45,2.17,1.86,4.61,1.92,6.28.07,1.02-.09,2.01-.37,2.97-.52,1.92-.12,2.91-.12,2.91,1.67,4.83,7.89,6.01,7.89,6.01v-19.2c-2.08,0-3.47-1.51-3.47-1.51h0Z"/>
                <path class="cls-54" d="M702.71,392.8s-1.58-.31-3.33-1.2c-1.03-.52-1.92-1.14-2.64-1.84-.91-.88-1.57-1.88-1.95-2.99l.07-.02c.86,2.48,2.95,3.98,4.55,4.79,1.74.89,3.3,1.19,3.31,1.19v.07h-.01,0Z"/>
                <path class="cls-64" d="M710.12,380.87c.07-1.7.43-4.15,1.92-6.28,0,0-1.92-2.32-5.85-2.54,0,0-1.39,1.51-3.47,1.51v19.2s6.22-1.17,7.89-6.01c0,0,.4-.99-.12-2.91-.24-.95-.4-1.98-.37-2.97h0Z"/>
                <path class="cls-54" d="M702.73,392.8v-.07s1.56-.3,3.3-1.19c1.6-.82,3.7-2.31,4.55-4.8,0-.01.39-1.01-.12-2.89-.27-1.07-.4-2.07-.37-2.99.09-2.49.74-4.61,1.93-6.3l.06.04c-1.17,1.68-1.82,3.79-1.91,6.26-.02.91.1,1.9.37,2.96.52,1.9.14,2.89.12,2.93-.38,1.11-1.04,2.11-1.95,2.99-.73.7-1.62,1.32-2.64,1.84-1.75.89-3.31,1.19-3.33,1.2h-.01s0,.01,0,.01Z"/>
                <path class="cls-22" d="M698.66,373.83c-1.34.19-2.33.64-2.97,1.08,1.05,2.11,1.36,4.3,1.42,5.85.02,1.15-.12,2.33-.43,3.53-.33,1.17-.19,1.82-.19,1.88,1.11,3.22,5.04,4.46,6.22,4.77h.02v-15.69c-1.88,0-3.27-.81-4.07-1.42h0,0Z"/>
                <path class="cls-65" d="M708.34,380.76c.07-1.57.37-3.74,1.42-5.85-.66-.4-1.65-.89-2.97-1.08-.77.62-2.16,1.42-4.05,1.42s-.02,0-.02,0v15.67l.02-.02c1.17-.31,5.08-1.55,6.22-4.77,0-.19.12-.81-.19-1.86-.34-1.24-.5-2.42-.43-3.53h0,0Z"/>
                <path class="cls-54" d="M702.75,390.96l-.05-.05.03-.03h0c1.17-.31,5.07-1.56,6.19-4.74,0-.03,0-.07,0-.12.02-.27.07-.84-.19-1.72-.35-1.27-.5-2.46-.43-3.54.09-2.16.56-4.12,1.41-5.83-.93-.56-1.89-.91-2.93-1.05v-.07c1.07.15,2.05.51,3,1.08l.03.02-.02.03c-.85,1.71-1.33,3.67-1.42,5.83-.06,1.07.08,2.26.43,3.52.26.89.22,1.46.2,1.75,0,.05,0,.09,0,.12h0c-.49,1.4-1.54,2.58-3.11,3.51-1.24.73-2.48,1.13-3.12,1.3h-.01s0,.01,0,.01Z"/>
                <path class="cls-51" d="M702.71,387.83c-.11,0-.2-.09-.2-.2v-6.57c0-.11.09-.2.2-.2s.2.09.2.2v6.57c0,.11-.09.2-.2.2Z"/>
                <path class="cls-51" d="M704.38,383.04h-3.29c-.11,0-.2-.09-.2-.2s.09-.2.2-.2h3.29c.11,0,.2.09.2.2s-.09.2-.2.2Z"/>
              </g>
            </g>
          </g>
        </g>
      </g>
    </g>
  </g>
  <g id="g-root-ro_1cymyvhohclj8-stroke">
    <g id="ro_1cymyvhohclj8-stroke">
      <path class="cls-32" d="M272,477h168s12,0,12,12v30s0,12-12,12h-168s-12,0-12-12v-30s0-12,12-12"/>
    </g>
  </g>
  <g id="c16">
    <g id="tx__v7zfgtohb6ku-fill">
      <g class="cls-23">
        <text class="cls-24" transform="translate(270 599)"><tspan x="0" y="0">教育科技學系</tspan></text>
      </g>
    </g>
  </g>
  <g id="c15">
    <g id="tx__143mfppohb5s5-fill">
      <g class="cls-23">
        <text class="cls-24" transform="translate(270 563)"><tspan x="0" y="0">學習科學學系</tspan></text>
      </g>
    </g>
  </g>
  <g id="g-root-cu_zpoculohcjri-stroke">
    <g id="cu_zpoculohcjri-stroke">
      <path class="cls-40" d="M420,543v12h-18"/>
    </g>
  </g>
  <g id="g-root-cu_v9uuq5ohckjt-stroke">
    <g id="cu_v9uuq5ohckjt-stroke">
      <path class="cls-40" d="M420,531v48c0,6.63-5.37,12-12,12h-6"/>
    </g>
  </g>
  <g id="b4">
    <g id="g-root-ro_1cymyvhohclj8-fill">
      <g id="ro_1cymyvhohclj8-fill">
        <path class="cls-19" d="M272,477h168s12,0,12,12v30s0,12-12,12h-168s-12,0-12-12v-30s0-12,12-12"/>
      </g>
    </g>
    <g id="g-root-tx__1upaia5ohcmbu-fill">
      <g id="tx__1upaia5ohcmbu-fill">
        <g class="cls-23">
          <text class="cls-21" transform="translate(277 512)"><tspan x="0" y="0">教育科技學類</tspan></text>
        </g>
      </g>
    </g>
    <g id="_圖層_1-5" data-name="_圖層_1">
      <g id="_圖層_1-2-9" data-name="_圖層_1-2">
        <g id="_圖層_1-2-10" data-name="_圖層_1-2">
          <g>
            <polygon class="cls-15" points="406.2 519.46 407.04 520.41 433.53 520.41 434.23 519.46 406.2 519.46"/>
            <path class="cls-44" d="M431.85,514.11l2.4,4.35c.34.66-.1,1.47-.86,1.47h-26.37c-.73,0-1.22-.79-.87-1.47l2.4-4.35h23.3Z"/>
            <g>
              <path class="cls-22" d="M409.81,517.14s-.06-.01-.09-.03c0,0,0,0-.01-.02,0,0,0-.01,0-.02s0-.01,0-.02v-.05s0-.01,0-.02c0,0,0-.01,0-.02,0,0,0-.01.01-.02.03-.03.07-.04.11-.03h.02s.01,0,.02,0c0,0,.01,0,.02.01s0,0,.01.02c0,0,0,.01,0,.02,0,0,0,.01,0,.02v.05s0,.01,0,.02c0,0,0,.01,0,.02,0,0,0,.01-.01.02,0,0,0,0-.02.01,0,0-.01,0-.02,0h-.05v.02Z"/>
              <path class="cls-22" d="M429.49,517.14h-17.38c-.07,0-.12-.05-.12-.12s.05-.12.12-.12h17.38c.07,0,.12.05.12.12s-.05.12-.12.12Z"/>
              <path class="cls-22" d="M430.64,517.14s-.06-.01-.09-.03c0,0,0,0-.01-.02,0,0,0-.01,0-.02v-.1s0-.01,0-.02c0,0,0-.01.01-.02.03-.03.07-.04.11-.03h.02s.01,0,.02,0c0,0,.01,0,.02.01,0,0,0,0,.01.02,0,0,0,.01,0,.02v.1s0,.01,0,.02c0,0,0,.01-.01.02,0,0,0,0-.02.01,0,0-.01,0-.02,0h-.05v.02Z"/>
            </g>
          </g>
          <g>
            <g>
              <rect class="cls-44" x="418.21" y="504" width="3.99" height="7.18"/>
              <rect class="cls-52" x="418.21" y="509.29" width="3.63" height=".09"/>
              <path class="cls-44" d="M425.05,511.71h-9.69c0-1.31,1.06-2.37,2.37-2.37h4.94c1.31,0,2.37,1.06,2.37,2.37h0Z"/>
              <polygon class="cls-52" points="418.21 507.48 422.2 507.48 422.2 508.93 418.21 507.48"/>
            </g>
            <path class="cls-61" d="M432.98,507.48h-25.55c-.6,0-1.08-.48-1.08-1.08v-16.91c0-.6.48-1.08,1.08-1.08h25.56c.6,0,1.08.48,1.08,1.08v16.91c0,.6-.48,1.08-1.08,1.08h0Z"/>
            <rect class="cls-60" x="407.11" y="489.26" width="26.2" height="16.98"/>
            <g>
              <polygon class="cls-58" points="418.24 494.42 416.96 490.97 415.65 492.17 418.24 494.42"/>
              <polygon class="cls-58" points="424.78 492.17 423.46 490.97 422.19 494.42 424.78 492.17"/>
              <g>
                <g>
                  <path class="cls-53" d="M427.87,496.14s-4.35-2.24-7.67.45v-.04c-.41-.32-.83-.58-1.25-.77,0,0-1.98-.9-4.13-.41,0,0-1.48.34-2.29.77l-3.26,7.82,8.69-.7c.23.22.49.42.73.54.93.49,2.08.49,3,0,.26-.13.51-.32.74-.54l8.69.7-3.26-7.82h0Z"/>
                  <path class="cls-64" d="M420.21,502.39c-1.92-2.88-5.47-1.52-8.31,0l-2.62,1.57,8.69-.7c.23.22.49.42.73.54.93.49,2.08.49,3,0,.26-.13.51-.32.74-.54l8.69.7-2.88-1.57c-3.07-1.66-6.2-2.81-8.05,0"/>
                </g>
                <path class="cls-22" d="M412.97,496.43s4.1-1.71,6.87.57l-.15,3.93s-2.91-2.71-9.23,1.64l2.51-6.14Z"/>
                <g>
                  <path class="cls-22" d="M421.26,497.1l-.04-.08c1.97-1.14,4.14-.87,5.61-.44l-.02.08c-1.45-.42-3.6-.69-5.54.43h0Z"/>
                  <path class="cls-22" d="M421.26,498.11l-.04-.08c2.26-1.31,4.79-.74,6.09-.29l-.03.08c-1.29-.45-3.79-1.01-6.03.28h0Z"/>
                  <path class="cls-22" d="M421.26,499.13l-.04-.08c2.58-1.5,5.48-.56,6.61-.09l-.03.08c-1.11-.47-3.98-1.39-6.53.08h0Z"/>
                </g>
                <path class="cls-54" d="M420.21,499.74s-.04-.02-.04-.04v-3.13s.02-.04.04-.04.04.02.04.04v3.13s-.02.04-.04.04Z"/>
              </g>
              <polygon class="cls-58" points="420.16 494.43 419.01 490.9 421.33 490.9 420.16 494.43"/>
            </g>
          </g>
        </g>
      </g>
    </g>
  </g>
  <g id="g-root-cu_mcymukfvckco-stroke">
    <g id="cu_mcymukfvckco-stroke">
      <path class="cls-35" d="M675.97,204.54h-2.91c-10.83,0-19.61,14.45-19.61,32.27v37.37c0,17.82-8.78,32.27-19.61,32.27h-2.91"/>
    </g>
  </g>
  <g id="g-root-cu_qss4z0fvcjka-stroke">
    <g id="cu_qss4z0fvcjka-stroke">
      <path class="cls-38" d="M630.4,347.49h2.88c10.74,0,19.45,4.54,19.45,10.14v.05s0,11.7,0,11.7c0,5.6,8.71,10.14,19.45,10.14h.09s2.79,0,2.79,0"/>
    </g>
  </g>
  <g id="g-root-cu_qss4z0fvcjk7-stroke">
    <g id="cu_qss4z0fvcjk7-stroke">
      <path class="cls-37" d="M496.26,306.07h-2.87c-10.7,0-19.38-8.68-19.38-19.38v-.09s0-189.29,0-189.29c0-10.7-8.68-19.38-19.38-19.38h-2.88"/>
    </g>
  </g>
  <g id="g-root-cu_qss4z0fvcjk7-stroke-2" data-name="g-root-cu_qss4z0fvcjk7-stroke">
    <g id="cu_qss4z0fvcjk7-stroke-2" data-name="cu_qss4z0fvcjk7-stroke">
      <path class="cls-37" d="M451.74,504.31h2.87c10.7,0,19.38-5.96,19.38-13.31v-.06s0-129.95,0-129.95c0-7.35,8.68-13.31,19.38-13.31h2.88"/>
    </g>
  </g>
</svg>