<?xml version="1.0" encoding="UTF-8"?>
<svg id="_x31_3_x5F_貿易行銷" xmlns="http://www.w3.org/2000/svg" viewBox="0 0 1130 265">
  <defs>
    <style>
      .cls-1 {
        mix-blend-mode: multiply;
        opacity: .5;
      }

      .cls-1, .cls-2 {
        isolation: isolate;
      }

      .cls-3 {
        fill: #7585e6;
      }

      .cls-4 {
        stroke: #8c9ec4;
      }

      .cls-4, .cls-5, .cls-6, .cls-7, .cls-8, .cls-9, .cls-10, .cls-11 {
        stroke-linecap: round;
        stroke-linejoin: round;
      }

      .cls-4, .cls-5, .cls-6, .cls-8, .cls-9, .cls-10, .cls-11 {
        fill: none;
      }

      .cls-4, .cls-5, .cls-8 {
        stroke-width: 1.2px;
      }

      .cls-5 {
        stroke: #2a4c91;
      }

      .cls-12 {
        fill: #3d2213;
      }

      .cls-12, .cls-13, .cls-14, .cls-15, .cls-16, .cls-17, .cls-18, .cls-19, .cls-20, .cls-21, .cls-22, .cls-23, .cls-24, .cls-25, .cls-26, .cls-27, .cls-28 {
        fill-rule: evenodd;
      }

      .cls-6 {
        stroke: #fff;
        stroke-width: 2.5px;
      }

      .cls-13 {
        fill: #873b24;
      }

      .cls-29, .cls-14 {
        fill: #fff;
      }

      .cls-15, .cls-30 {
        fill: #5c3420;
      }

      .cls-31 {
        fill: #d2d5f7;
      }

      .cls-32 {
        fill: #2e3e91;
      }

      .cls-7 {
        fill: #fcf0f0;
        stroke: #fd6a65;
      }

      .cls-7, .cls-10, .cls-11 {
        stroke-width: 2px;
      }

      .cls-16 {
        fill: #8794e8;
      }

      .cls-33, .cls-22 {
        fill: #abafd1;
      }

      .cls-8 {
        stroke: #213c73;
      }

      .cls-17 {
        fill: #6b79cf;
      }

      .cls-34 {
        fill: #d8daed;
      }

      .cls-18 {
        fill: #e3633d;
      }

      .cls-35 {
        fill: #364aab;
      }

      .cls-19, .cls-36 {
        fill: #c95836;
      }

      .cls-37 {
        fill: #eff1f7;
      }

      .cls-20 {
        fill: #572a22;
      }

      .cls-21 {
        fill: #728f3b;
      }

      .cls-38 {
        fill: #ed5353;
      }

      .cls-23 {
        fill: #979bc4;
      }

      .cls-24 {
        fill: #ba5de5;
      }

      .cls-39 {
        fill: #484848;
      }

      .cls-25 {
        fill: #3cc583;
      }

      .cls-26, .cls-40 {
        fill: #7988e8;
      }

      .cls-41 {
        fill: #c9ccf2;
      }

      .cls-42 {
        fill: #213c73;
      }

      .cls-9 {
        stroke: #172d59;
        stroke-width: 2.3px;
      }

      .cls-10, .cls-11 {
        stroke: #484848;
      }

      .cls-43 {
        fill: #c5c8e8;
      }

      .cls-27 {
        fill: #633c1d;
      }

      .cls-28 {
        fill: #4a2a1a;
      }

      .cls-44 {
        fill: #3746a1;
      }

      .cls-45 {
        fill: #fd6a65;
      }

      .cls-46 {
        fill: #172d59;
      }

      .cls-11 {
        stroke-dasharray: 5 7;
      }

      .cls-47 {
        fill: #3f50b8;
      }
    </style>
  </defs>
  <g id="g-root-cu_qqww40o736ki-stroke">
    <g id="cu_qqww40o736ki-stroke">
      <path class="cls-10" d="M490,120h-3.1c-11.54,0-20.9-9.36-20.9-20.9v-3.2c0-11.54-9.36-20.9-20.9-20.9h-3.1"/>
    </g>
  </g>
  <g id="g-root-cu_qqww40o736kt-stroke">
    <g id="cu_qqww40o736kt-stroke">
      <path class="cls-10" d="M640,120h3.1c3.96-.02,8.25-1.3,12.4-3.7,2.49-1.4,5.56-4.93,8.5-9.8,2.94-4.87,6.01-8.4,8.5-9.8,4.15-2.4,8.44-3.68,12.4-3.7h3.1"/>
    </g>
  </g>
  <g id="g-root-cu_mb3dzko737d8-stroke">
    <g id="cu_mb3dzko737d8-stroke">
      <path class="cls-11" d="M718,120v12c0,6.63,5.37,12,12,12h6"/>
    </g>
  </g>
  <g>
    <g id="g-root-cu_qqww40o736ko-stroke">
      <g id="cu_qqww40o736ko-stroke">
        <path class="cls-11" d="M411,102v24h-18"/>
      </g>
    </g>
    <g id="g-root-cu_qqww40o736kp-stroke">
      <g id="cu_qqww40o736kp-stroke">
        <path class="cls-11" d="M411,102v60h-18"/>
      </g>
    </g>
    <g id="g-root-cu_qqww40o736kq-stroke">
      <g id="cu_qqww40o736kq-stroke">
        <path class="cls-11" d="M411,102v84c0,6.63-5.37,12-12,12h-6"/>
      </g>
    </g>
  </g>
  <g id="c115">
    <g id="tx__qqww40o737cy-fill">
      <g class="cls-2">
        <g class="cls-2">
          <path class="cls-39" d="M272.2,191.5l1.26.46c-.51.84-1.09,1.67-1.76,2.5-.67.83-1.36,1.6-2.08,2.32-.72.72-1.43,1.36-2.14,1.92-.07-.09-.16-.21-.27-.35-.11-.14-.23-.28-.35-.42-.12-.14-.23-.25-.34-.33.71-.49,1.4-1.07,2.09-1.73s1.34-1.36,1.96-2.11c.62-.75,1.16-1.5,1.63-2.26ZM271.38,187.22l1.28.52c-.43.57-.93,1.16-1.5,1.76s-1.17,1.17-1.8,1.72c-.63.55-1.23,1.03-1.82,1.44-.07-.09-.15-.21-.24-.34-.09-.13-.19-.27-.29-.4-.1-.13-.19-.24-.27-.32.56-.39,1.13-.83,1.71-1.32s1.13-1.01,1.64-1.54c.51-.53.94-1.04,1.29-1.52ZM269.88,195.38l1.18-1.18.14.08v11.34h-1.32v-10.24ZM273.78,193.96h11.3v1.28h-11.3v-1.28ZM274.66,188.44h9.84v1.3h-9.84v-1.3ZM280.66,194.36h1.34v9.44c0,.43-.06.75-.19.98-.13.23-.35.4-.67.52-.32.09-.77.15-1.36.18-.59.03-1.38.04-2.38.04-.03-.19-.08-.4-.17-.65-.09-.25-.18-.47-.29-.67.49.01.96.03,1.4.04.44.01.82.02,1.14,0,.32,0,.54-.02.66-.03.19,0,.32-.03.4-.1.08-.07.12-.18.12-.34v-9.42Z"/>
          <path class="cls-39" d="M290.5,187.24l1.22.4c-.35.73-.75,1.46-1.22,2.17-.47.71-.97,1.39-1.52,2.02-.55.63-1.1,1.19-1.66,1.67-.03-.09-.08-.22-.17-.38-.09-.16-.18-.32-.27-.49-.09-.17-.18-.3-.26-.41.76-.6,1.49-1.34,2.18-2.22s1.26-1.8,1.7-2.76ZM286.78,203.62c.6-.11,1.29-.23,2.08-.38.79-.15,1.63-.31,2.53-.49.9-.18,1.8-.36,2.71-.53l.08,1.04c-1.25.28-2.5.56-3.75.85-1.25.29-2.35.53-3.31.73l-.34-1.22ZM287,195.8h6.98v1.18h-6.98v-1.18ZM287.22,198.32l.96-.24c.17.61.34,1.27.51,1.96.17.69.29,1.29.37,1.8l-1.02.26c-.07-.52-.18-1.13-.34-1.83-.16-.7-.32-1.35-.48-1.95ZM288.22,192.32h5.08v1.16h-5.08v-1.16ZM290.14,192.82h1.2v10.6l-1.2.2v-10.8ZM290.2,188.92l.74-.88c.41.35.85.72,1.32,1.13.47.41.91.81,1.34,1.2.43.39.77.73,1.04,1.01l-.76,1.02c-.27-.31-.61-.66-1.03-1.07-.42-.41-.86-.82-1.33-1.25-.47-.43-.91-.81-1.32-1.16ZM293.04,197.84l1.1.34c-.2.63-.41,1.28-.63,1.96-.22.68-.42,1.26-.61,1.74l-.88-.3c.12-.35.25-.74.38-1.18.13-.44.26-.88.37-1.33.11-.45.2-.86.27-1.23ZM295.28,192.96h1.26v5.42c0,.73-.03,1.53-.09,2.4-.06.87-.19,1.72-.39,2.56-.2.84-.51,1.6-.92,2.28-.07-.08-.16-.17-.28-.27-.12-.1-.25-.2-.38-.3-.13-.1-.25-.18-.36-.23.36-.63.62-1.31.79-2.05.17-.74.27-1.49.31-2.25.04-.76.06-1.47.06-2.14v-5.42ZM294.8,188.42l1.08-.52c.29.37.58.78.86,1.23.28.45.53.88.74,1.31.21.43.37.81.48,1.16l-1.14.6c-.11-.35-.26-.74-.47-1.18-.21-.44-.45-.89-.72-1.34-.27-.45-.55-.87-.83-1.26ZM295.8,192.96h7.52v1.2h-7.52v-1.2ZM296.6,200.36c.6-.11,1.28-.24,2.04-.41.76-.17,1.56-.35,2.41-.55.85-.2,1.7-.4,2.57-.6l.12,1.08c-1.16.31-2.32.61-3.49.9s-2.22.55-3.17.76l-.48-1.18ZM296.96,196.5l.52-.86c.56.09,1.14.22,1.74.39.6.17,1.17.34,1.72.53.55.19,1,.38,1.36.58l-.52.98c-.37-.19-.83-.38-1.37-.58s-1.11-.39-1.71-.58-1.18-.34-1.74-.46ZM299.1,187.24h1.3v6.5h-1.3v-6.5ZM302.98,192.96h1.28v10.86c0,.37-.05.67-.16.89-.11.22-.3.39-.58.51-.28.09-.67.15-1.16.18-.49.03-1.13.04-1.9.04-.03-.19-.08-.4-.16-.65-.08-.25-.17-.46-.26-.63.59.01,1.12.02,1.59.03.47,0,.79,0,.95-.01.16-.01.27-.05.32-.1.05-.05.08-.15.08-.28v-10.84ZM303.64,187.8l1.24.52c-.35.65-.72,1.32-1.13,2.01-.41.69-.8,1.28-1.17,1.77l-1.1-.48c.25-.35.51-.74.77-1.18.26-.44.51-.89.76-1.36.25-.47.46-.89.63-1.28Z"/>
          <path class="cls-39" d="M309.98,187.08l1.2.34c-.25.63-.56,1.25-.92,1.86-.36.61-.75,1.19-1.16,1.72-.41.53-.83,1.01-1.26,1.42-.05-.09-.14-.19-.26-.3s-.24-.22-.36-.33c-.12-.11-.23-.2-.34-.27.64-.56,1.23-1.23,1.78-2.01.55-.78.99-1.59,1.32-2.43ZM308.12,192.86h16.12v3.28h-1.34v-2.2h-13.48v2.2h-1.3v-3.28ZM309.54,188.7h6.38v1.1h-6.38v-1.1ZM310.28,195.24h1.34v10.34h-1.34v-10.34ZM311,190.4l.86-.68c.33.29.68.62,1.05.99.37.37.66.68.87.93l-.9.76c-.2-.28-.48-.61-.84-.99-.36-.38-.71-.72-1.04-1.01ZM311.18,195.24h10.62v3.94h-10.62v-1.04h9.32v-1.84h-9.32v-1.06ZM311.24,200.66h11.6v4.88h-1.32v-3.82h-10.28v-1.06ZM311.26,203.8h10.72v1.08h-10.72v-1.08ZM314.88,191.56l1.2-.26c.19.28.37.6.54.95s.29.66.36.91l-1.26.3c-.07-.25-.18-.56-.34-.91-.16-.35-.33-.68-.5-.99ZM318.22,187.1l1.24.3c-.29.79-.68,1.54-1.17,2.26s-1,1.33-1.55,1.82c-.08-.07-.18-.15-.3-.25-.12-.1-.25-.2-.38-.31-.13-.11-.25-.19-.36-.24.55-.45,1.04-.99,1.48-1.61.44-.62.79-1.28,1.04-1.97ZM317.8,188.72h7.28v1.08h-7.28v-1.08ZM319.74,190.52l.86-.72c.37.28.77.61,1.18.99s.74.7.98.97l-.9.8c-.23-.28-.55-.61-.96-1-.41-.39-.8-.73-1.16-1.04Z"/>
          <path class="cls-39" d="M326.74,202.08c.53-.16,1.14-.34,1.82-.55.68-.21,1.4-.44,2.17-.69.77-.25,1.53-.51,2.29-.76l.24,1.28c-1.08.36-2.16.73-3.24,1.1s-2.06.71-2.94,1l-.34-1.38ZM326.96,188.62h6.16v1.26h-6.16v-1.26ZM327.16,194.42h5.68v1.26h-5.68v-1.26ZM329.48,189.12h1.3v12.42l-1.3.26v-12.68ZM332.32,203.66h12.98v1.24h-12.98v-1.24ZM333.88,199.54h10.76v1.22h-10.76v-1.22ZM334.14,188.18h10.2v8.88h-10.2v-8.88ZM335.38,189.36v2.68h7.68v-2.68h-7.68ZM335.38,193.16v2.74h7.68v-2.74h-7.68ZM338.62,188.76h1.18v7.72h.1v7.74h-1.36v-7.74h.08v-7.72Z"/>
          <path class="cls-39" d="M347.1,200.44h17.86v1.16h-17.86v-1.16ZM347.54,194.4h17v3.56h-1.34v-2.52h-14.38v2.52h-1.28v-3.56ZM352.62,187.42l.62.84c-.57.23-1.23.41-1.97.56-.74.15-1.41.26-2.01.34l-.5-.78c.39-.07.82-.16,1.29-.27.47-.11.94-.23,1.4-.36s.85-.24,1.17-.33ZM348.76,188.38l1.3.36.4,6.22h-1.26l-.44-6.58ZM349.5,190.12h3.62v.96h-3.62v-.96ZM349.6,192.24h3.62v.96h-3.62v-.96ZM350.78,196.9h9.58v1.04h-9.58v-1.04ZM355.54,199.52h1.3v4.56c0,.36-.05.63-.15.82-.1.19-.3.33-.61.44-.29.09-.7.14-1.22.15-.52,0-1.19,0-2,0-.03-.16-.09-.35-.18-.56-.09-.21-.19-.4-.28-.56.44.01.84.02,1.21.03.37,0,.69,0,.96,0s.46,0,.55,0c.16-.01.27-.04.33-.09s.09-.14.09-.27v-4.52ZM357.06,190.8l.98.3c-.48.63-1.08,1.23-1.8,1.81s-1.44,1.06-2.16,1.45c-.08-.09-.2-.22-.36-.37-.16-.15-.29-.28-.4-.37.71-.33,1.4-.75,2.09-1.24s1.24-1.02,1.65-1.58ZM357,187.42l.98.28c-.45.61-1.02,1.2-1.71,1.75-.69.55-1.37,1.02-2.05,1.39-.08-.09-.2-.21-.36-.36-.16-.15-.3-.25-.42-.32.68-.35,1.35-.76,2-1.23.65-.47,1.17-.98,1.56-1.51ZM353.74,191.66l.7-.6c.45.21.93.46,1.42.74s.96.57,1.4.87c.44.3.79.58,1.06.85l-.72.7c-.27-.28-.61-.57-1.04-.87-.43-.3-.88-.6-1.37-.9-.49-.3-.97-.56-1.45-.79ZM353.8,188.32l.68-.62c.45.19.92.41,1.39.68s.93.53,1.36.8c.43.27.78.53,1.05.78l-.7.68c-.27-.24-.61-.5-1.03-.79-.42-.29-.87-.56-1.35-.83-.48-.27-.95-.5-1.4-.7ZM360.04,196.9h.32l.28-.06.8.68c-.45.36-.97.71-1.56,1.04-.59.33-1.2.64-1.83.93-.63.29-1.25.54-1.85.75-.07-.12-.17-.25-.31-.39-.14-.14-.26-.25-.35-.33.53-.19,1.08-.41,1.65-.68.57-.27,1.1-.55,1.61-.84s.92-.57,1.24-.84v-.26ZM358.78,192.24h3.58v.96h-3.58v-.96ZM358.8,188h3.86v.96h-3.86v-.96ZM358.9,190.12h3.62v.96h-3.62v-.96ZM362.12,188h1.28c-.04.76-.09,1.57-.14,2.42-.05.85-.11,1.68-.18,2.49s-.13,1.5-.2,2.09h-1.3c.09-.6.17-1.31.24-2.12.07-.81.13-1.65.18-2.5.05-.85.09-1.65.12-2.38Z"/>
          <path class="cls-39" d="M371.88,199.98l1.34.48c-.39.52-.83,1.05-1.34,1.58s-1.03,1.03-1.57,1.49-1.07.87-1.59,1.23c-.08-.08-.19-.18-.34-.29s-.29-.22-.44-.33c-.15-.11-.27-.19-.38-.26.8-.49,1.59-1.09,2.37-1.78.78-.69,1.43-1.4,1.95-2.12ZM380.28,187.26l.98,1.06c-.81.37-1.74.73-2.77,1.07-1.03.34-2.13.66-3.28.96-1.15.3-2.33.58-3.52.84-1.19.26-2.36.5-3.51.71-.03-.17-.08-.37-.17-.58-.09-.21-.16-.39-.23-.54,1.12-.21,2.27-.45,3.44-.72,1.17-.27,2.32-.55,3.43-.85s2.15-.61,3.12-.94c.97-.33,1.8-.66,2.51-1.01ZM368.56,199.66c-.01-.11-.04-.24-.09-.4-.05-.16-.1-.32-.16-.49-.06-.17-.11-.31-.15-.43.31-.03.69-.12,1.14-.29.45-.17.99-.39,1.6-.67.33-.15.83-.38,1.49-.71.66-.33,1.41-.72,2.26-1.19s1.73-.98,2.64-1.55c.91-.57,1.78-1.16,2.61-1.79l1.04.88c-1.87,1.31-3.76,2.46-5.69,3.45-1.93.99-3.82,1.85-5.69,2.57v.04c-.2.07-.37.13-.5.18-.13.05-.25.12-.35.19-.1.07-.15.14-.15.21ZM368.56,199.66l-.04-1.04.98-.5,13.14-.9c-.03.19-.04.4-.04.63v.55c-2.03.15-3.77.27-5.23.38s-2.69.2-3.68.27-1.8.14-2.42.2-1.1.11-1.45.15-.61.08-.8.12c-.19.04-.34.09-.46.14ZM369.68,195.48c-.01-.09-.04-.22-.09-.38-.05-.16-.1-.32-.15-.49-.05-.17-.1-.31-.14-.43.21-.03.45-.09.72-.19.27-.1.56-.24.88-.41.23-.12.6-.34,1.13-.66.53-.32,1.11-.7,1.75-1.15.64-.45,1.25-.92,1.82-1.41l1.18.76c-.99.76-2.01,1.46-3.06,2.09-1.05.63-2.09,1.17-3.1,1.61v.04c-.19.08-.34.15-.47.21-.13.06-.24.13-.33.2-.09.07-.14.14-.14.21ZM369.68,195.48l-.02-.98.82-.42,7.5-.38c-.04.16-.07.35-.09.57-.02.22-.04.4-.05.53-1.37.08-2.52.15-3.45.21-.93.06-1.68.11-2.26.16s-1.03.09-1.35.12-.56.06-.71.09c-.15.03-.28.06-.39.1ZM375.52,198.14h1.36v5.74c0,.39-.05.69-.16.9-.11.21-.31.37-.62.48-.31.11-.71.17-1.22.2s-1.13.04-1.86.04c-.04-.2-.11-.43-.21-.68-.1-.25-.2-.47-.31-.66.41.01.8.03,1.16.04.36.01.67.02.93,0,.26,0,.44-.02.53-.03.17-.01.28-.04.33-.08s.07-.12.07-.24v-5.72ZM378.82,200.5l1.04-.7c.53.41,1.09.86,1.68,1.34.59.48,1.14.95,1.67,1.42.53.47.96.89,1.29,1.26l-1.12.78c-.32-.36-.74-.78-1.25-1.26-.51-.48-1.06-.97-1.63-1.47s-1.13-.96-1.68-1.37ZM379.36,195.24l1.1-.54c.51.45,1.02.95,1.55,1.48.53.53,1.02,1.05,1.47,1.56.45.51.82.96,1.1,1.36l-1.14.68c-.27-.4-.63-.87-1.08-1.4s-.94-1.07-1.47-1.62c-.53-.55-1.04-1.05-1.53-1.52Z"/>
        </g>
      </g>
    </g>
  </g>
  <g id="c114">
    <g id="tx__mb3dzko737da-fill">
      <g class="cls-2">
        <g class="cls-2">
          <path class="cls-39" d="M274.04,162.6h1.1v.64c0,.41-.04.85-.13,1.3-.09.45-.27.91-.55,1.37-.28.46-.7.91-1.27,1.35-.57.44-1.32.85-2.26,1.24-.94.39-2.12.73-3.53,1.04-.05-.13-.14-.29-.26-.47-.12-.18-.23-.32-.34-.43,1.33-.28,2.44-.59,3.33-.93s1.59-.7,2.11-1.09.91-.78,1.17-1.18c.26-.4.43-.79.51-1.16s.12-.73.12-1.06v-.62ZM266.9,163.44h10.34v1.02h-10.34v-1.02ZM266.92,154.62h1.84v.06h6.7v-.06h1.94v1.06h-1.94v-.06h-6.7v.06h-1.84v-1.06ZM267.8,158.88h8.88v3.22h-8.88v-3.22ZM268.28,152.54h7.96v5.42h-7.96v-5.42ZM268.32,166.26c.32-.4.65-.87.98-1.4.33-.53.65-1.08.96-1.65.31-.57.56-1.1.76-1.61l1.14.26c-.23.53-.49,1.08-.8,1.64s-.62,1.1-.94,1.62c-.32.52-.62.97-.9,1.34l-1.2-.2ZM268.32,166.26l.9-.74c.76.2,1.56.46,2.4.77s1.64.64,2.39.97c.75.33,1.39.65,1.91.96l-.88.82c-.51-.31-1.14-.64-1.89-.99-.75-.35-1.55-.69-2.39-1-.84-.31-1.65-.58-2.44-.79ZM268.96,159.78v1.42h6.52v-1.42h-6.52ZM269.36,153.52v3.48h5.76v-3.48h-5.76ZM271.62,151.22h1.08v10.48h-1.08v-10.48ZM282.44,155.96l1.22.1c-.27,2.28-.68,4.28-1.23,5.99-.55,1.71-1.33,3.19-2.33,4.42-1,1.23-2.31,2.27-3.92,3.11-.04-.09-.1-.2-.19-.33s-.18-.25-.27-.38c-.09-.13-.18-.23-.26-.31,1.55-.73,2.79-1.68,3.73-2.83.94-1.15,1.66-2.54,2.17-4.15s.87-3.49,1.08-5.62ZM279.6,151.24l1.16.22c-.23,1.2-.5,2.38-.83,3.53-.33,1.15-.69,2.24-1.08,3.26-.39,1.02-.83,1.93-1.31,2.73-.07-.08-.16-.17-.28-.28-.12-.11-.24-.21-.36-.31-.12-.1-.23-.18-.34-.23.48-.73.91-1.58,1.29-2.54s.72-1.99,1.01-3.08c.29-1.09.54-2.19.74-3.3ZM279.38,156.52c.25,1.8.62,3.49,1.1,5.06.48,1.57,1.12,2.95,1.92,4.13s1.78,2.08,2.94,2.71c-.11.08-.22.18-.33.3s-.22.25-.32.38c-.1.13-.18.26-.25.38-1.19-.73-2.18-1.73-2.98-2.99s-1.44-2.72-1.93-4.39c-.49-1.67-.87-3.47-1.15-5.42l1-.16ZM278.88,155.24h6.3v1.2h-6.3v-1.2Z"/>
          <path class="cls-39" d="M291.82,151.3l1.26.4c-.44,1.12-.95,2.23-1.53,3.32-.58,1.09-1.21,2.12-1.88,3.09-.67.97-1.38,1.82-2.11,2.57-.04-.11-.11-.24-.2-.41-.09-.17-.19-.33-.3-.5-.11-.17-.2-.3-.28-.41.67-.65,1.31-1.41,1.94-2.27.63-.86,1.21-1.78,1.74-2.77.53-.99.99-1.99,1.36-3.02ZM289.68,156.4l1.32-1.32.02.02v14.42h-1.34v-13.12ZM292.52,167.44h12.56v1.28h-12.56v-1.28ZM293.4,154.92h10.84v1.3h-10.84v-1.3ZM294.74,157.82l1.22-.28c.17.71.34,1.45.5,2.23.16.78.31,1.55.44,2.32.13.77.25,1.49.35,2.17.1.68.18,1.28.23,1.8l-1.34.38c-.04-.53-.11-1.15-.2-1.84-.09-.69-.2-1.43-.33-2.21-.13-.78-.26-1.56-.41-2.35-.15-.79-.3-1.53-.46-2.22ZM297.46,151.46l1.26-.34c.19.49.38,1.03.57,1.62s.34,1.09.45,1.52l-1.32.38c-.09-.43-.23-.94-.41-1.53-.18-.59-.36-1.14-.55-1.65ZM301.54,157.36l1.42.26c-.15.83-.31,1.7-.49,2.62-.18.92-.37,1.84-.57,2.77s-.4,1.81-.61,2.66-.41,1.6-.61,2.27l-1.18-.28c.2-.68.4-1.45.59-2.3s.38-1.75.57-2.69c.19-.94.36-1.87.51-2.78.15-.91.28-1.76.37-2.53Z"/>
          <path class="cls-39" d="M312.2,155.5l1.26.46c-.51.84-1.09,1.67-1.76,2.5-.67.83-1.36,1.6-2.08,2.32-.72.72-1.43,1.36-2.14,1.92-.07-.09-.16-.21-.27-.35-.11-.14-.23-.28-.35-.42-.12-.14-.23-.25-.34-.33.71-.49,1.4-1.07,2.09-1.73s1.34-1.36,1.96-2.11c.62-.75,1.16-1.5,1.63-2.26ZM311.38,151.22l1.28.52c-.43.57-.93,1.16-1.5,1.76s-1.17,1.17-1.8,1.72c-.63.55-1.23,1.03-1.82,1.44-.07-.09-.15-.21-.24-.34-.09-.13-.19-.27-.29-.4-.1-.13-.19-.24-.27-.32.56-.39,1.13-.83,1.71-1.32s1.13-1.01,1.64-1.54c.51-.53.94-1.04,1.29-1.52ZM309.88,159.38l1.18-1.18.14.08v11.34h-1.32v-10.24ZM313.78,157.96h11.3v1.28h-11.3v-1.28ZM314.66,152.44h9.84v1.3h-9.84v-1.3ZM320.66,158.36h1.34v9.44c0,.43-.06.75-.19.98-.13.23-.35.4-.67.52-.32.09-.77.15-1.36.18-.59.03-1.38.04-2.38.04-.03-.19-.08-.4-.17-.65-.09-.25-.18-.47-.29-.67.49.01.96.03,1.4.04.44.01.82.02,1.14,0,.32,0,.54-.02.66-.03.19,0,.32-.03.4-.1.08-.07.12-.18.12-.34v-9.42Z"/>
          <path class="cls-39" d="M330.5,151.24l1.22.4c-.35.73-.75,1.46-1.22,2.17-.47.71-.97,1.39-1.52,2.02-.55.63-1.1,1.19-1.66,1.67-.03-.09-.08-.22-.17-.38-.09-.16-.18-.32-.27-.49-.09-.17-.18-.3-.26-.41.76-.6,1.49-1.34,2.18-2.22s1.26-1.8,1.7-2.76ZM326.78,167.62c.6-.11,1.29-.23,2.08-.38.79-.15,1.63-.31,2.53-.49.9-.18,1.8-.36,2.71-.53l.08,1.04c-1.25.28-2.5.56-3.75.85-1.25.29-2.35.53-3.31.73l-.34-1.22ZM327,159.8h6.98v1.18h-6.98v-1.18ZM327.22,162.32l.96-.24c.17.61.34,1.27.51,1.96.17.69.29,1.29.37,1.8l-1.02.26c-.07-.52-.18-1.13-.34-1.83-.16-.7-.32-1.35-.48-1.95ZM328.22,156.32h5.08v1.16h-5.08v-1.16ZM330.14,156.82h1.2v10.6l-1.2.2v-10.8ZM330.2,152.92l.74-.88c.41.35.85.72,1.32,1.13.47.41.91.81,1.34,1.2.43.39.77.73,1.04,1.01l-.76,1.02c-.27-.31-.61-.66-1.03-1.07-.42-.41-.86-.82-1.33-1.25-.47-.43-.91-.81-1.32-1.16ZM333.04,161.84l1.1.34c-.2.63-.41,1.28-.63,1.96-.22.68-.42,1.26-.61,1.74l-.88-.3c.12-.35.25-.74.38-1.18.13-.44.26-.88.37-1.33.11-.45.2-.86.27-1.23ZM335.28,156.96h1.26v5.42c0,.73-.03,1.53-.09,2.4-.06.87-.19,1.72-.39,2.56-.2.84-.51,1.6-.92,2.28-.07-.08-.16-.17-.28-.27-.12-.1-.25-.2-.38-.3-.13-.1-.25-.18-.36-.23.36-.63.62-1.31.79-2.05.17-.74.27-1.49.31-2.25.04-.76.06-1.47.06-2.14v-5.42ZM334.8,152.42l1.08-.52c.29.37.58.78.86,1.23.28.45.53.88.74,1.31.21.43.37.81.48,1.16l-1.14.6c-.11-.35-.26-.74-.47-1.18-.21-.44-.45-.89-.72-1.34-.27-.45-.55-.87-.83-1.26ZM335.8,156.96h7.52v1.2h-7.52v-1.2ZM336.6,164.36c.6-.11,1.28-.24,2.04-.41.76-.17,1.56-.35,2.41-.55.85-.2,1.7-.4,2.57-.6l.12,1.08c-1.16.31-2.32.61-3.49.9s-2.22.55-3.17.76l-.48-1.18ZM336.96,160.5l.52-.86c.56.09,1.14.22,1.74.39.6.17,1.17.34,1.72.53.55.19,1,.38,1.36.58l-.52.98c-.37-.19-.83-.38-1.37-.58s-1.11-.39-1.71-.58-1.18-.34-1.74-.46ZM339.1,151.24h1.3v6.5h-1.3v-6.5ZM342.98,156.96h1.28v10.86c0,.37-.05.67-.16.89-.11.22-.3.39-.58.51-.28.09-.67.15-1.16.18-.49.03-1.13.04-1.9.04-.03-.19-.08-.4-.16-.65-.08-.25-.17-.46-.26-.63.59.01,1.12.02,1.59.03.47,0,.79,0,.95-.01.16-.01.27-.05.32-.1.05-.05.08-.15.08-.28v-10.84ZM343.64,151.8l1.24.52c-.35.65-.72,1.32-1.13,2.01-.41.69-.8,1.28-1.17,1.77l-1.1-.48c.25-.35.51-.74.77-1.18.26-.44.51-.89.76-1.36.25-.47.46-.89.63-1.28Z"/>
          <path class="cls-39" d="M347.1,164.44h17.86v1.16h-17.86v-1.16ZM347.54,158.4h17v3.56h-1.34v-2.52h-14.38v2.52h-1.28v-3.56ZM352.62,151.42l.62.84c-.57.23-1.23.41-1.97.56-.74.15-1.41.26-2.01.34l-.5-.78c.39-.07.82-.16,1.29-.27.47-.11.94-.23,1.4-.36s.85-.24,1.17-.33ZM348.76,152.38l1.3.36.4,6.22h-1.26l-.44-6.58ZM349.5,154.12h3.62v.96h-3.62v-.96ZM349.6,156.24h3.62v.96h-3.62v-.96ZM350.78,160.9h9.58v1.04h-9.58v-1.04ZM355.54,163.52h1.3v4.56c0,.36-.05.63-.15.82-.1.19-.3.33-.61.44-.29.09-.7.14-1.22.15-.52,0-1.19,0-2,0-.03-.16-.09-.35-.18-.56-.09-.21-.19-.4-.28-.56.44.01.84.02,1.21.03.37,0,.69,0,.96,0s.46,0,.55,0c.16-.01.27-.04.33-.09s.09-.14.09-.27v-4.52ZM357.06,154.8l.98.3c-.48.63-1.08,1.23-1.8,1.81s-1.44,1.06-2.16,1.45c-.08-.09-.2-.22-.36-.37-.16-.15-.29-.28-.4-.37.71-.33,1.4-.75,2.09-1.24s1.24-1.02,1.65-1.58ZM357,151.42l.98.28c-.45.61-1.02,1.2-1.71,1.75-.69.55-1.37,1.02-2.05,1.39-.08-.09-.2-.21-.36-.36-.16-.15-.3-.25-.42-.32.68-.35,1.35-.76,2-1.23.65-.47,1.17-.98,1.56-1.51ZM353.74,155.66l.7-.6c.45.21.93.46,1.42.74s.96.57,1.4.87c.44.3.79.58,1.06.85l-.72.7c-.27-.28-.61-.57-1.04-.87-.43-.3-.88-.6-1.37-.9-.49-.3-.97-.56-1.45-.79ZM353.8,152.32l.68-.62c.45.19.92.41,1.39.68s.93.53,1.36.8c.43.27.78.53,1.05.78l-.7.68c-.27-.24-.61-.5-1.03-.79-.42-.29-.87-.56-1.35-.83-.48-.27-.95-.5-1.4-.7ZM360.04,160.9h.32l.28-.06.8.68c-.45.36-.97.71-1.56,1.04-.59.33-1.2.64-1.83.93-.63.29-1.25.54-1.85.75-.07-.12-.17-.25-.31-.39-.14-.14-.26-.25-.35-.33.53-.19,1.08-.41,1.65-.68.57-.27,1.1-.55,1.61-.84s.92-.57,1.24-.84v-.26ZM358.78,156.24h3.58v.96h-3.58v-.96ZM358.8,152h3.86v.96h-3.86v-.96ZM358.9,154.12h3.62v.96h-3.62v-.96ZM362.12,152h1.28c-.04.76-.09,1.57-.14,2.42-.05.85-.11,1.68-.18,2.49s-.13,1.5-.2,2.09h-1.3c.09-.6.17-1.31.24-2.12.07-.81.13-1.65.18-2.5.05-.85.09-1.65.12-2.38Z"/>
          <path class="cls-39" d="M371.88,163.98l1.34.48c-.39.52-.83,1.05-1.34,1.58s-1.03,1.03-1.57,1.49-1.07.87-1.59,1.23c-.08-.08-.19-.18-.34-.29s-.29-.22-.44-.33c-.15-.11-.27-.19-.38-.26.8-.49,1.59-1.09,2.37-1.78.78-.69,1.43-1.4,1.95-2.12ZM380.28,151.26l.98,1.06c-.81.37-1.74.73-2.77,1.07-1.03.34-2.13.66-3.28.96-1.15.3-2.33.58-3.52.84-1.19.26-2.36.5-3.51.71-.03-.17-.08-.37-.17-.58-.09-.21-.16-.39-.23-.54,1.12-.21,2.27-.45,3.44-.72,1.17-.27,2.32-.55,3.43-.85s2.15-.61,3.12-.94c.97-.33,1.8-.66,2.51-1.01ZM368.56,163.66c-.01-.11-.04-.24-.09-.4-.05-.16-.1-.32-.16-.49-.06-.17-.11-.31-.15-.43.31-.03.69-.12,1.14-.29.45-.17.99-.39,1.6-.67.33-.15.83-.38,1.49-.71.66-.33,1.41-.72,2.26-1.19s1.73-.98,2.64-1.55c.91-.57,1.78-1.16,2.61-1.79l1.04.88c-1.87,1.31-3.76,2.46-5.69,3.45-1.93.99-3.82,1.85-5.69,2.57v.04c-.2.07-.37.13-.5.18-.13.05-.25.12-.35.19-.1.07-.15.14-.15.21ZM368.56,163.66l-.04-1.04.98-.5,13.14-.9c-.03.19-.04.4-.04.63v.55c-2.03.15-3.77.27-5.23.38s-2.69.2-3.68.27-1.8.14-2.42.2-1.1.11-1.45.15-.61.08-.8.12c-.19.04-.34.09-.46.14ZM369.68,159.48c-.01-.09-.04-.22-.09-.38-.05-.16-.1-.32-.15-.49-.05-.17-.1-.31-.14-.43.21-.03.45-.09.72-.19.27-.1.56-.24.88-.41.23-.12.6-.34,1.13-.66.53-.32,1.11-.7,1.75-1.15.64-.45,1.25-.92,1.82-1.41l1.18.76c-.99.76-2.01,1.46-3.06,2.09-1.05.63-2.09,1.17-3.1,1.61v.04c-.19.08-.34.15-.47.21-.13.06-.24.13-.33.2-.09.07-.14.14-.14.21ZM369.68,159.48l-.02-.98.82-.42,7.5-.38c-.04.16-.07.35-.09.57-.02.22-.04.4-.05.53-1.37.08-2.52.15-3.45.21-.93.06-1.68.11-2.26.16s-1.03.09-1.35.12-.56.06-.71.09c-.15.03-.28.06-.39.1ZM375.52,162.14h1.36v5.74c0,.39-.05.69-.16.9-.11.21-.31.37-.62.48-.31.11-.71.17-1.22.2s-1.13.04-1.86.04c-.04-.2-.11-.43-.21-.68-.1-.25-.2-.47-.31-.66.41.01.8.03,1.16.04.36.01.67.02.93,0,.26,0,.44-.02.53-.03.17-.01.28-.04.33-.08s.07-.12.07-.24v-5.72ZM378.82,164.5l1.04-.7c.53.41,1.09.86,1.68,1.34.59.48,1.14.95,1.67,1.42.53.47.96.89,1.29,1.26l-1.12.78c-.32-.36-.74-.78-1.25-1.26-.51-.48-1.06-.97-1.63-1.47s-1.13-.96-1.68-1.37ZM379.36,159.24l1.1-.54c.51.45,1.02.95,1.55,1.48.53.53,1.02,1.05,1.47,1.56.45.51.82.96,1.1,1.36l-1.14.68c-.27-.4-.63-.87-1.08-1.4s-.94-1.07-1.47-1.62c-.53-.55-1.04-1.05-1.53-1.52Z"/>
        </g>
      </g>
    </g>
  </g>
  <g id="c113">
    <g id="tx__mb3dzko737d3-fill">
      <g class="cls-2">
        <g class="cls-2">
          <path class="cls-39" d="M252.2,119.5l1.26.46c-.51.84-1.09,1.67-1.76,2.5-.67.83-1.36,1.6-2.08,2.32-.72.72-1.43,1.36-2.14,1.92-.07-.09-.16-.21-.27-.35-.11-.14-.23-.28-.35-.42-.12-.14-.23-.25-.34-.33.71-.49,1.4-1.07,2.09-1.73s1.34-1.36,1.96-2.11c.62-.75,1.16-1.5,1.63-2.26ZM251.38,115.22l1.28.52c-.43.57-.93,1.16-1.5,1.76s-1.17,1.17-1.8,1.72c-.63.55-1.23,1.03-1.82,1.44-.07-.09-.15-.21-.24-.34-.09-.13-.19-.27-.29-.4-.1-.13-.19-.24-.27-.32.56-.39,1.13-.83,1.71-1.32s1.13-1.01,1.64-1.54c.51-.53.94-1.04,1.29-1.52ZM249.88,123.38l1.18-1.18.14.08v11.34h-1.32v-10.24ZM253.78,121.96h11.3v1.28h-11.3v-1.28ZM254.66,116.44h9.84v1.3h-9.84v-1.3ZM260.66,122.36h1.34v9.44c0,.43-.06.75-.19.98-.13.23-.35.4-.67.52-.32.09-.77.15-1.36.18-.59.03-1.38.04-2.38.04-.03-.19-.08-.4-.17-.65-.09-.25-.18-.47-.29-.67.49.01.96.03,1.4.04.44.01.82.02,1.14,0,.32,0,.54-.02.66-.03.19,0,.32-.03.4-.1.08-.07.12-.18.12-.34v-9.42Z"/>
          <path class="cls-39" d="M270.5,115.24l1.22.4c-.35.73-.75,1.46-1.22,2.17-.47.71-.97,1.39-1.52,2.02-.55.63-1.1,1.19-1.66,1.67-.03-.09-.08-.22-.17-.38-.09-.16-.18-.32-.27-.49-.09-.17-.18-.3-.26-.41.76-.6,1.49-1.34,2.18-2.22s1.26-1.8,1.7-2.76ZM266.78,131.62c.6-.11,1.29-.23,2.08-.38.79-.15,1.63-.31,2.53-.49.9-.18,1.8-.36,2.71-.53l.08,1.04c-1.25.28-2.5.56-3.75.85-1.25.29-2.35.53-3.31.73l-.34-1.22ZM267,123.8h6.98v1.18h-6.98v-1.18ZM267.22,126.32l.96-.24c.17.61.34,1.27.51,1.96.17.69.29,1.29.37,1.8l-1.02.26c-.07-.52-.18-1.13-.34-1.83-.16-.7-.32-1.35-.48-1.95ZM268.22,120.32h5.08v1.16h-5.08v-1.16ZM270.14,120.82h1.2v10.6l-1.2.2v-10.8ZM270.2,116.92l.74-.88c.41.35.85.72,1.32,1.13.47.41.91.81,1.34,1.2.43.39.77.73,1.04,1.01l-.76,1.02c-.27-.31-.61-.66-1.03-1.07-.42-.41-.86-.82-1.33-1.25-.47-.43-.91-.81-1.32-1.16ZM273.04,125.84l1.1.34c-.2.63-.41,1.28-.63,1.96-.22.68-.42,1.26-.61,1.74l-.88-.3c.12-.35.25-.74.38-1.18.13-.44.26-.88.37-1.33.11-.45.2-.86.27-1.23ZM275.28,120.96h1.26v5.42c0,.73-.03,1.53-.09,2.4-.06.87-.19,1.72-.39,2.56-.2.84-.51,1.6-.92,2.28-.07-.08-.16-.17-.28-.27-.12-.1-.25-.2-.38-.3-.13-.1-.25-.18-.36-.23.36-.63.62-1.31.79-2.05.17-.74.27-1.49.31-2.25.04-.76.06-1.47.06-2.14v-5.42ZM274.8,116.42l1.08-.52c.29.37.58.78.86,1.23.28.45.53.88.74,1.31.21.43.37.81.48,1.16l-1.14.6c-.11-.35-.26-.74-.47-1.18-.21-.44-.45-.89-.72-1.34-.27-.45-.55-.87-.83-1.26ZM275.8,120.96h7.52v1.2h-7.52v-1.2ZM276.6,128.36c.6-.11,1.28-.24,2.04-.41.76-.17,1.56-.35,2.41-.55.85-.2,1.7-.4,2.57-.6l.12,1.08c-1.16.31-2.32.61-3.49.9s-2.22.55-3.17.76l-.48-1.18ZM276.96,124.5l.52-.86c.56.09,1.14.22,1.74.39.6.17,1.17.34,1.72.53.55.19,1,.38,1.36.58l-.52.98c-.37-.19-.83-.38-1.37-.58s-1.11-.39-1.71-.58-1.18-.34-1.74-.46ZM279.1,115.24h1.3v6.5h-1.3v-6.5ZM282.98,120.96h1.28v10.86c0,.37-.05.67-.16.89-.11.22-.3.39-.58.51-.28.09-.67.15-1.16.18-.49.03-1.13.04-1.9.04-.03-.19-.08-.4-.16-.65-.08-.25-.17-.46-.26-.63.59.01,1.12.02,1.59.03.47,0,.79,0,.95-.01.16-.01.27-.05.32-.1.05-.05.08-.15.08-.28v-10.84ZM283.64,115.8l1.24.52c-.35.65-.72,1.32-1.13,2.01-.41.69-.8,1.28-1.17,1.77l-1.1-.48c.25-.35.51-.74.77-1.18.26-.44.51-.89.76-1.36.25-.47.46-.89.63-1.28Z"/>
          <path class="cls-39" d="M286.96,127.58h18.1v1.26h-18.1v-1.26ZM292.86,129.24l1.16.8c-.53.41-1.14.83-1.82,1.26s-1.38.83-2.09,1.22c-.71.39-1.4.72-2.07,1-.08-.13-.2-.3-.35-.5-.15-.2-.3-.37-.43-.5.64-.27,1.31-.59,2.02-.96.71-.37,1.38-.76,2.01-1.17.63-.41,1.16-.79,1.57-1.15ZM292.34,115.34l.68,1.1c-.6.27-1.26.52-1.98.77-.72.25-1.4.46-2.04.65-.03-.13-.08-.29-.15-.47-.07-.18-.14-.35-.21-.51.61-.21,1.26-.46,1.95-.74.69-.28,1.27-.55,1.75-.8ZM288.64,116.88l1.24.38.38,10.78h-1.22l-.4-11.16ZM289.36,120.06h3.4v1.14h-3.4v-1.14ZM289.46,123.8h3.36v1.16h-3.36v-1.16ZM294.58,122.76l1.06.18c-.11.72-.27,1.42-.49,2.09-.22.67-.48,1.25-.79,1.73-.11-.09-.26-.2-.45-.32-.19-.12-.36-.21-.51-.28.33-.45.59-.97.77-1.56.18-.59.32-1.2.41-1.84ZM293.86,115.36h1.18v5.36h2.72v1.1h-3.9v-6.46ZM294.5,117.3h3.88v1.16h-3.88v-1.16ZM297.1,120.74h1.16v5.36c0,.29-.03.51-.1.66-.07.15-.21.27-.44.36-.2.08-.47.13-.82.14-.35.01-.77.02-1.26.02-.03-.15-.07-.3-.14-.47-.07-.17-.14-.32-.22-.47.39.01.72.02.99.02s.46,0,.57-.02c.11,0,.18-.02.21-.05s.05-.1.05-.19v-5.36ZM298,130.1l.72-.92c.72.32,1.44.68,2.16,1.07.72.39,1.4.78,2.04,1.15.64.37,1.19.73,1.66,1.06l-.88,1c-.45-.33-.99-.69-1.61-1.08-.62-.39-1.28-.78-1.98-1.17s-1.4-.76-2.11-1.11ZM299.18,116.26h3.7v1.2h-3.7v-1.2ZM299.24,123.9h3.42v1.16h-3.42v-1.16ZM299.34,120.12h3.48v1.16h-3.48v-1.16ZM302.16,116.26h1.24c0,.93,0,1.94-.03,3.02-.02,1.08-.05,2.16-.08,3.23s-.07,2.09-.11,3.05-.08,1.81-.12,2.54h-1.26c.05-.73.1-1.59.15-2.56s.09-2,.12-3.08.06-2.15.08-3.22c.02-1.07.02-2.06,0-2.98Z"/>
          <path class="cls-39" d="M306.84,121.94l.72-1c.43.17.87.38,1.34.62.47.24.9.49,1.31.75.41.26.74.5,1.01.73l-.76,1.12c-.25-.24-.58-.49-.99-.76-.41-.27-.84-.53-1.29-.79-.45-.26-.9-.48-1.34-.67ZM307.36,132.38c.36-.51.76-1.12,1.21-1.84.45-.72.9-1.48,1.35-2.29s.87-1.58,1.26-2.33l.96.88c-.35.69-.73,1.43-1.15,2.2s-.84,1.53-1.27,2.26c-.43.73-.84,1.41-1.24,2.04l-1.12-.92ZM307.74,116.44l.8-.96c.41.23.83.49,1.26.78.43.29.83.59,1.21.89.38.3.68.58.91.85l-.82,1.04c-.23-.27-.52-.56-.89-.87-.37-.31-.77-.62-1.2-.93-.43-.31-.86-.57-1.27-.8ZM314.1,124.66h1.22v2.14c0,.55-.03,1.11-.09,1.69-.06.58-.19,1.16-.38,1.75-.19.59-.48,1.15-.85,1.7-.37.55-.89,1.06-1.54,1.54-.05-.09-.14-.2-.25-.31s-.23-.22-.35-.32c-.12-.1-.23-.18-.34-.25.79-.57,1.36-1.19,1.72-1.85s.59-1.33.7-2.02c.11-.69.16-1.34.16-1.97v-2.1ZM312.26,117.88h12.56v1.22h-12.56v-1.22ZM313.02,123.92c-.03-.09-.07-.22-.12-.38-.05-.16-.11-.32-.16-.49-.05-.17-.11-.31-.16-.43.2-.04.42-.17.66-.4.24-.23.51-.52.8-.88.16-.17.4-.46.72-.86.32-.4.68-.88,1.07-1.43.39-.55.79-1.15,1.2-1.8.41-.65.78-1.3,1.13-1.95l1.3.54c-.53.92-1.11,1.82-1.72,2.7s-1.24,1.71-1.88,2.5c-.64.79-1.27,1.5-1.9,2.14v.04c-.19.09-.34.18-.47.25s-.24.15-.33.23c-.09.08-.14.15-.14.22ZM313.02,123.92l-.02-1,.86-.48,9.16-.54c.03.19.07.39.13.6.06.21.12.39.17.52-1.76.12-3.23.22-4.4.31-1.17.09-2.13.16-2.86.21-.73.05-1.3.1-1.7.14-.4.04-.69.08-.88.12-.19.04-.34.08-.46.12ZM317.66,124.78h1.22v7.92h-1.22v-7.92ZM320.34,120.1l1.02-.58c.4.45.83.95,1.28,1.48.45.53.88,1.05,1.29,1.55.41.5.74.94.99,1.31l-1.1.72c-.25-.37-.58-.82-.97-1.34-.39-.52-.81-1.05-1.25-1.6-.44-.55-.86-1.06-1.26-1.54ZM321.3,124.66h1.26v6.7c0,.28.02.47.06.57.04.1.12.15.24.15h1.26c.12,0,.27,0,.44-.02.17-.01.31-.03.42-.06.01.15.03.32.04.53.01.21.03.38.06.51-.11.04-.24.06-.41.07-.17,0-.34,0-.53,0h-1.38c-.4,0-.71-.06-.92-.17-.21-.11-.36-.3-.43-.57s-.11-.62-.11-1.06v-6.66Z"/>
          <path class="cls-39" d="M330.84,124.86h.32l.24-.04.68.26c-.35,2.12-.92,3.88-1.72,5.29-.8,1.41-1.75,2.49-2.86,3.25-.05-.09-.14-.2-.25-.32s-.23-.24-.34-.35-.22-.2-.31-.27c1.07-.68,1.97-1.65,2.71-2.92.74-1.27,1.25-2.82,1.53-4.66v-.24ZM327.22,126.24c-.03-.11-.07-.24-.14-.4s-.13-.32-.2-.48c-.07-.16-.13-.28-.18-.36.15-.04.3-.1.46-.19.16-.09.33-.23.5-.43.17-.15.41-.41.7-.78.29-.37.61-.79.95-1.25s.66-.9.96-1.33c.3-.43.54-.77.71-1.04v-.06l.42-.18.92.44c-.25.33-.55.73-.89,1.2-.34.47-.7.94-1.07,1.43-.37.49-.74.96-1.1,1.41-.36.45-.69.84-.98,1.16-.21.11-.39.21-.53.3-.14.09-.26.19-.37.28-.11.09-.16.19-.16.28ZM326.96,119.84h4.4v1.14h-4.4v-1.14ZM327.22,126.24v-1.04l.7-.34h3.4l-.02,1.1h-2.88c-.27,0-.51.03-.74.08-.23.05-.38.12-.46.2ZM327.72,115.86l1.02-.6c.31.32.62.67.94,1.04.32.37.62.74.91,1.09.29.35.52.67.69.95l-1.02.72c-.19-.28-.42-.61-.71-.98-.29-.37-.59-.76-.9-1.15-.31-.39-.62-.75-.93-1.07ZM330.44,129.1c.43.87,1,1.51,1.73,1.94s1.61.7,2.65.83,2.23.2,3.58.21c.69,0,1.45,0,2.28-.03.83-.02,1.65-.05,2.46-.09.81-.04,1.55-.09,2.22-.14-.07.09-.13.22-.19.37-.06.15-.11.31-.16.48s-.08.32-.11.45c-.6.03-1.27.05-2.01.08-.74.03-1.49.05-2.26.06s-1.52.02-2.25.02c-1.16,0-2.21-.05-3.14-.14-.93-.09-1.76-.27-2.47-.53-.71-.26-1.34-.64-1.87-1.13s-.99-1.14-1.36-1.94l.9-.44ZM333.26,116.1h10.06v1.06h-10.06v-1.06ZM333.26,120.26h10.28v1.06h-9.08v9.24h-1.2v-10.3ZM333.96,123.2h9.58v1.02h-9.58v-1.02ZM333.96,126.16h9.58v1.06h-9.58v-1.06ZM335.2,118.5l.84-.78c.64.23,1.32.49,2.05.79s1.42.61,2.08.92c.66.31,1.21.6,1.65.87l-.9.88c-.41-.27-.94-.56-1.59-.89-.65-.33-1.33-.65-2.06-.96-.73-.31-1.42-.59-2.07-.83ZM338.1,120.68h1.18v9.86h-1.18v-9.86ZM342.88,116.1h.3l.28-.08.84.64c-.44.41-.95.82-1.53,1.22-.58.4-1.18.77-1.81,1.11s-1.24.63-1.84.87c-.08-.12-.19-.26-.34-.41s-.27-.28-.38-.39c.56-.21,1.12-.47,1.69-.77.57-.3,1.1-.62,1.59-.96.49-.34.89-.67,1.2-.99v-.24ZM343.04,120.26h1.24v9c0,.33-.05.59-.14.76-.09.17-.27.31-.52.42-.24.09-.58.15-1.01.17-.43.02-.99.03-1.67.03-.03-.16-.08-.34-.15-.55-.07-.21-.15-.38-.23-.53.51.01.96.02,1.35.02h.81c.13,0,.22-.03.26-.08.04-.05.06-.14.06-.26v-8.98Z"/>
          <path class="cls-39" d="M347.1,128.44h17.86v1.16h-17.86v-1.16ZM347.54,122.4h17v3.56h-1.34v-2.52h-14.38v2.52h-1.28v-3.56ZM352.62,115.42l.62.84c-.57.23-1.23.41-1.97.56-.74.15-1.41.26-2.01.34l-.5-.78c.39-.07.82-.16,1.29-.27.47-.11.94-.23,1.4-.36s.85-.24,1.17-.33ZM348.76,116.38l1.3.36.4,6.22h-1.26l-.44-6.58ZM349.5,118.12h3.62v.96h-3.62v-.96ZM349.6,120.24h3.62v.96h-3.62v-.96ZM350.78,124.9h9.58v1.04h-9.58v-1.04ZM355.54,127.52h1.3v4.56c0,.36-.05.63-.15.82-.1.19-.3.33-.61.44-.29.09-.7.14-1.22.15-.52,0-1.19,0-2,0-.03-.16-.09-.35-.18-.56-.09-.21-.19-.4-.28-.56.44.01.84.02,1.21.03.37,0,.69,0,.96,0s.46,0,.55,0c.16-.01.27-.04.33-.09s.09-.14.09-.27v-4.52ZM357.06,118.8l.98.3c-.48.63-1.08,1.23-1.8,1.81s-1.44,1.06-2.16,1.45c-.08-.09-.2-.22-.36-.37-.16-.15-.29-.28-.4-.37.71-.33,1.4-.75,2.09-1.24s1.24-1.02,1.65-1.58ZM357,115.42l.98.28c-.45.61-1.02,1.2-1.71,1.75-.69.55-1.37,1.02-2.05,1.39-.08-.09-.2-.21-.36-.36-.16-.15-.3-.25-.42-.32.68-.35,1.35-.76,2-1.23.65-.47,1.17-.98,1.56-1.51ZM353.74,119.66l.7-.6c.45.21.93.46,1.42.74s.96.57,1.4.87c.44.3.79.58,1.06.85l-.72.7c-.27-.28-.61-.57-1.04-.87-.43-.3-.88-.6-1.37-.9-.49-.3-.97-.56-1.45-.79ZM353.8,116.32l.68-.62c.45.19.92.41,1.39.68s.93.53,1.36.8c.43.27.78.53,1.05.78l-.7.68c-.27-.24-.61-.5-1.03-.79-.42-.29-.87-.56-1.35-.83-.48-.27-.95-.5-1.4-.7ZM360.04,124.9h.32l.28-.06.8.68c-.45.36-.97.71-1.56,1.04-.59.33-1.2.64-1.83.93-.63.29-1.25.54-1.85.75-.07-.12-.17-.25-.31-.39-.14-.14-.26-.25-.35-.33.53-.19,1.08-.41,1.65-.68.57-.27,1.1-.55,1.61-.84s.92-.57,1.24-.84v-.26ZM358.78,120.24h3.58v.96h-3.58v-.96ZM358.8,116h3.86v.96h-3.86v-.96ZM358.9,118.12h3.62v.96h-3.62v-.96ZM362.12,116h1.28c-.04.76-.09,1.57-.14,2.42-.05.85-.11,1.68-.18,2.49s-.13,1.5-.2,2.09h-1.3c.09-.6.17-1.31.24-2.12.07-.81.13-1.65.18-2.5.05-.85.09-1.65.12-2.38Z"/>
          <path class="cls-39" d="M371.88,127.98l1.34.48c-.39.52-.83,1.05-1.34,1.58s-1.03,1.03-1.57,1.49-1.07.87-1.59,1.23c-.08-.08-.19-.18-.34-.29s-.29-.22-.44-.33c-.15-.11-.27-.19-.38-.26.8-.49,1.59-1.09,2.37-1.78.78-.69,1.43-1.4,1.95-2.12ZM380.28,115.26l.98,1.06c-.81.37-1.74.73-2.77,1.07-1.03.34-2.13.66-3.28.96-1.15.3-2.33.58-3.52.84-1.19.26-2.36.5-3.51.71-.03-.17-.08-.37-.17-.58-.09-.21-.16-.39-.23-.54,1.12-.21,2.27-.45,3.44-.72,1.17-.27,2.32-.55,3.43-.85s2.15-.61,3.12-.94c.97-.33,1.8-.66,2.51-1.01ZM368.56,127.66c-.01-.11-.04-.24-.09-.4-.05-.16-.1-.32-.16-.49-.06-.17-.11-.31-.15-.43.31-.03.69-.12,1.14-.29.45-.17.99-.39,1.6-.67.33-.15.83-.38,1.49-.71.66-.33,1.41-.72,2.26-1.19s1.73-.98,2.64-1.55c.91-.57,1.78-1.16,2.61-1.79l1.04.88c-1.87,1.31-3.76,2.46-5.69,3.45-1.93.99-3.82,1.85-5.69,2.57v.04c-.2.07-.37.13-.5.18-.13.05-.25.12-.35.19-.1.07-.15.14-.15.21ZM368.56,127.66l-.04-1.04.98-.5,13.14-.9c-.03.19-.04.4-.04.63v.55c-2.03.15-3.77.27-5.23.38s-2.69.2-3.68.27-1.8.14-2.42.2-1.1.11-1.45.15-.61.08-.8.12c-.19.04-.34.09-.46.14ZM369.68,123.48c-.01-.09-.04-.22-.09-.38-.05-.16-.1-.32-.15-.49-.05-.17-.1-.31-.14-.43.21-.03.45-.09.72-.19.27-.1.56-.24.88-.41.23-.12.6-.34,1.13-.66.53-.32,1.11-.7,1.75-1.15.64-.45,1.25-.92,1.82-1.41l1.18.76c-.99.76-2.01,1.46-3.06,2.09-1.05.63-2.09,1.17-3.1,1.61v.04c-.19.08-.34.15-.47.21-.13.06-.24.13-.33.2-.09.07-.14.14-.14.21ZM369.68,123.48l-.02-.98.82-.42,7.5-.38c-.04.16-.07.35-.09.57-.02.22-.04.4-.05.53-1.37.08-2.52.15-3.45.21-.93.06-1.68.11-2.26.16s-1.03.09-1.35.12-.56.06-.71.09c-.15.03-.28.06-.39.1ZM375.52,126.14h1.36v5.74c0,.39-.05.69-.16.9-.11.21-.31.37-.62.48-.31.11-.71.17-1.22.2s-1.13.04-1.86.04c-.04-.2-.11-.43-.21-.68-.1-.25-.2-.47-.31-.66.41.01.8.03,1.16.04.36.01.67.02.93,0,.26,0,.44-.02.53-.03.17-.01.28-.04.33-.08s.07-.12.07-.24v-5.72ZM378.82,128.5l1.04-.7c.53.41,1.09.86,1.68,1.34.59.48,1.14.95,1.67,1.42.53.47.96.89,1.29,1.26l-1.12.78c-.32-.36-.74-.78-1.25-1.26-.51-.48-1.06-.97-1.63-1.47s-1.13-.96-1.68-1.37ZM379.36,123.24l1.1-.54c.51.45,1.02.95,1.55,1.48.53.53,1.02,1.05,1.47,1.56.45.51.82.96,1.1,1.36l-1.14.68c-.27-.4-.63-.87-1.08-1.4s-.94-1.07-1.47-1.62c-.53-.55-1.04-1.05-1.53-1.52Z"/>
        </g>
      </g>
    </g>
  </g>
  <g id="c112">
    <g id="tx__mb3dzko737d9-fill">
      <g class="cls-2">
        <g class="cls-2">
          <path class="cls-39" d="M745.68,136.16h16.64v17.48h-1.32v-16.24h-14.04v16.24h-1.28v-17.48ZM746.46,151.46h15.28v1.22h-15.28v-1.22ZM747.92,148.42c.79-.13,1.72-.3,2.79-.5s2.18-.41,3.33-.62l.04.96c-1.05.21-2.1.43-3.13.64-1.03.21-1.97.4-2.81.56l-.22-1.04ZM748.12,140.16h11.82v1.02h-11.82v-1.02ZM748.86,142.54h4.46v3.88h-4.46v-3.88ZM749.84,143.4v2.16h2.46v-2.16h-2.46ZM757.94,142.18l1.1.22c-.51,1.91-1.25,3.56-2.24,4.96-.99,1.4-2.17,2.55-3.56,3.46-.05-.07-.13-.15-.23-.26-.1-.11-.2-.22-.3-.33s-.19-.2-.27-.27c1.37-.8,2.52-1.86,3.45-3.17.93-1.31,1.61-2.85,2.05-4.61ZM754.14,137.92h1.16c.07,1.45.18,2.85.33,4.18.15,1.33.36,2.54.62,3.61s.58,1.94.96,2.59.83,1.02,1.35,1.1c.15.03.27-.15.37-.54.1-.39.18-.91.25-1.58.08.07.17.14.28.23.11.09.22.16.33.23s.21.11.29.14c-.13,1.08-.36,1.83-.67,2.24-.31.41-.72.53-1.23.36-.69-.13-1.28-.56-1.75-1.29-.47-.73-.86-1.67-1.17-2.84-.31-1.17-.55-2.47-.72-3.91-.17-1.44-.31-2.95-.4-4.52ZM756.52,138.4l.62-.66c.4.16.81.37,1.24.63s.76.51,1,.75l-.66.74c-.23-.24-.55-.5-.97-.77s-.83-.5-1.23-.69Z"/>
          <path class="cls-39" d="M765.6,136.04h4.64v1.22h-3.44v16.26h-1.2v-17.48ZM769.84,136.04h.22l.22-.06.82.52c-.28.81-.6,1.68-.95,2.6-.35.92-.7,1.79-1.03,2.6.73.85,1.22,1.64,1.45,2.37s.35,1.41.35,2.05c0,.51-.06.96-.17,1.37-.11.41-.3.71-.57.91-.13.11-.28.18-.45.23-.17.05-.35.08-.55.11-.2.01-.41.02-.64.03-.23,0-.45,0-.68,0-.01-.15-.05-.33-.1-.56s-.13-.42-.24-.58c.23.01.44.02.64.02h.54c.27-.03.48-.09.64-.2.15-.11.25-.29.32-.56.07-.27.1-.56.1-.88,0-.56-.12-1.19-.37-1.88-.25-.69-.73-1.45-1.45-2.28.19-.45.37-.93.55-1.42.18-.49.35-.98.52-1.47.17-.49.32-.95.47-1.39.15-.44.27-.83.36-1.16v-.36ZM773.46,135.22l1.08.26c-.36,1.05-.83,2.05-1.42,3-.59.95-1.22,1.75-1.9,2.4-.09-.09-.24-.21-.44-.36-.2-.15-.37-.25-.5-.32.69-.61,1.32-1.35,1.87-2.22.55-.87.99-1.79,1.31-2.76ZM770.62,141.48c.44-.05.92-.11,1.43-.16.51-.05,1.08-.12,1.69-.2l.04.86c-.55.09-1.06.18-1.55.25s-.97.14-1.45.21l-.16-.96ZM773.52,148.56l1.2.4c-.25.43-.54.86-.87,1.31-.33.45-.66.88-.99,1.3s-.65.79-.96,1.11c-.08-.07-.19-.15-.32-.24-.13-.09-.27-.18-.4-.27-.13-.09-.25-.16-.36-.21.48-.47.96-1,1.45-1.61.49-.61.9-1.2,1.25-1.79ZM776.06,136.78h.2l.2-.06.72.3c-.29,1.31-.72,2.5-1.27,3.57-.55,1.07-1.18,2.01-1.89,2.82-.71.81-1.47,1.46-2.28,1.97-.07-.12-.17-.27-.32-.44-.15-.17-.28-.31-.4-.42.73-.44,1.44-1.03,2.11-1.77s1.27-1.6,1.78-2.58c.51-.98.9-2.03,1.15-3.15v-.24ZM771.94,146.36h10.28v1.16h-10.28v-1.16ZM772.34,138.84l.64-.64c.43.31.88.66,1.36,1.06.48.4.85.75,1.1,1.06l-.66.74c-.25-.32-.61-.69-1.08-1.1-.47-.41-.92-.79-1.36-1.12ZM773.14,136.78h3.28v1h-3.28v-1ZM773.92,143.28h6.26v1.14h-6.26v-1.14ZM776.44,146.86h1.28v6.68h-1.28v-6.68ZM778.3,137.14c.32,1.03.72,2.02,1.21,2.97s1.05,1.81,1.69,2.58c.64.77,1.33,1.38,2.06,1.83-.13.11-.28.25-.44.44-.16.19-.29.35-.38.5-.76-.52-1.47-1.2-2.13-2.03-.66-.83-1.25-1.77-1.76-2.8s-.94-2.1-1.27-3.21l1.02-.28ZM778.02,136.32h4.06v1h-4.06v-1ZM781.66,136.32h.26l.22-.06.78.44c-.33.88-.76,1.75-1.29,2.62-.53.87-1.07,1.59-1.63,2.18-.09-.12-.22-.25-.37-.4-.15-.15-.28-.27-.39-.36.33-.35.65-.76.96-1.24.31-.48.59-.98.84-1.49.25-.51.46-1,.62-1.45v-.24ZM779.34,149.04l.98-.6c.35.36.71.75,1.08,1.16.37.41.73.82,1.06,1.22.33.4.61.75.84,1.04l-1.04.7c-.21-.31-.48-.66-.81-1.07-.33-.41-.67-.83-1.04-1.26-.37-.43-.72-.83-1.07-1.19Z"/>
          <path class="cls-39" d="M791.08,150.8l1.18.56c-.53.29-1.16.58-1.87.85-.71.27-1.44.53-2.18.76-.74.23-1.45.44-2.13.61-.05-.09-.14-.2-.26-.33-.12-.13-.24-.25-.36-.38-.12-.13-.23-.23-.34-.31.69-.13,1.4-.29,2.13-.47.73-.18,1.42-.38,2.09-.59.67-.21,1.25-.45,1.74-.7ZM786.72,142.36c-.03-.11-.07-.23-.14-.36-.07-.13-.14-.26-.21-.39-.07-.13-.14-.23-.21-.31.13-.08.28-.21.43-.39s.23-.47.23-.87v-3.62h1.28v4.7c-.19.12-.35.22-.48.31-.13.09-.27.19-.41.3s-.26.22-.35.33c-.09.11-.14.21-.14.3ZM786.72,142.36l-.08-1.08.64-.48,4.9-1.34c.01.17.03.37.05.58.02.21.04.39.07.52-1.16.32-2.09.58-2.78.79-.69.21-1.22.37-1.59.5-.37.13-.64.22-.81.29-.17.07-.31.14-.4.22ZM792.48,135.34l.68,1.02c-.53.16-1.14.31-1.83.44-.69.13-1.39.25-2.11.35-.72.1-1.41.18-2.08.25-.01-.15-.05-.31-.12-.5-.07-.19-.13-.35-.2-.48.64-.08,1.31-.18,2.02-.29s1.38-.24,2.01-.37c.63-.13,1.18-.27,1.63-.42ZM787.62,142.54h12.96v7.9h-12.96v-7.9ZM788.92,143.48v1.38h10.34v-1.38h-10.34ZM788.92,145.76v1.42h10.34v-1.42h-10.34ZM788.92,148.08v1.44h10.34v-1.44h-10.34ZM790.3,138.26l1.04-.4c.31.32.62.68.93,1.07.31.39.6.78.85,1.17.25.39.45.73.6,1.04l-1.1.46c-.13-.31-.33-.65-.58-1.04-.25-.39-.53-.78-.83-1.19-.3-.41-.6-.78-.91-1.11ZM796.94,136.52h1.2c-.09.96-.28,1.81-.57,2.56s-.73,1.39-1.32,1.93-1.41.98-2.45,1.33c-.04-.09-.1-.2-.19-.33-.09-.13-.18-.25-.27-.37s-.19-.22-.28-.3c.95-.28,1.69-.64,2.22-1.09.53-.45.92-.98,1.16-1.61.24-.63.41-1.33.5-2.12ZM793.94,136.16h7.42v1.1h-7.42v-1.1ZM796.02,151.54l.82-.76c.72.19,1.45.39,2.18.62.73.23,1.42.45,2.07.68s1.2.43,1.67.62l-1.06.82c-.44-.19-.96-.39-1.57-.62-.61-.23-1.26-.46-1.97-.7-.71-.24-1.42-.46-2.14-.66ZM800.94,136.16h1.28c-.01.28-.03.46-.04.54-.07,1-.14,1.81-.22,2.44-.08.63-.17,1.11-.27,1.45s-.22.59-.37.75c-.15.15-.31.25-.48.32s-.38.11-.62.12c-.21.01-.52.02-.91,0-.39,0-.8-.02-1.23-.03-.01-.16-.05-.35-.12-.57-.07-.22-.15-.41-.24-.57.43.04.82.07,1.18.08s.61.02.76.02c.29,0,.49-.06.6-.18.11-.11.2-.31.28-.6.08-.29.15-.73.21-1.31s.12-1.34.19-2.27v-.2Z"/>
          <path class="cls-39" d="M810.42,143.2l1.3.42c-.48.77-1.04,1.52-1.68,2.23-.64.71-1.31,1.38-2.02,1.99-.71.61-1.41,1.15-2.12,1.6-.07-.09-.17-.2-.3-.32-.13-.12-.27-.24-.4-.36-.13-.12-.25-.21-.36-.28,1.09-.63,2.14-1.4,3.14-2.33s1.81-1.91,2.44-2.95ZM812.64,145.9l1.26.4c-.48.93-1.06,1.82-1.74,2.67-.68.85-1.41,1.62-2.18,2.33-.77.71-1.57,1.33-2.4,1.86-.07-.08-.16-.18-.29-.3-.13-.12-.26-.24-.39-.37-.13-.13-.25-.22-.36-.29,1.25-.72,2.42-1.63,3.49-2.73,1.07-1.1,1.94-2.29,2.61-3.57ZM807.76,136.16h12.8v7.6h-12.8v-7.6ZM808.84,145.56h12.06v1.22h-12.06v-1.22ZM809.08,137.3v2.1h10.14v-2.1h-10.14ZM809.08,140.5v2.12h10.14v-2.12h-10.14ZM816.78,146l1.28.3c-.53,1.52-1.22,2.92-2.07,4.19-.85,1.27-1.78,2.33-2.79,3.17-.08-.08-.19-.17-.32-.27-.13-.1-.27-.2-.4-.31-.13-.11-.25-.19-.36-.26,1.03-.79,1.94-1.77,2.75-2.96.81-1.19,1.44-2.47,1.91-3.86ZM820.54,145.56h1.36c-.01.15-.02.27-.03.37,0,.1-.02.18-.03.25-.12,1.51-.25,2.73-.38,3.66-.13.93-.28,1.65-.44,2.14-.16.49-.34.85-.54,1.06-.19.19-.38.32-.59.39-.21.07-.45.12-.73.13-.25.03-.61.04-1.06.03-.45,0-.93-.02-1.42-.05-.01-.17-.05-.37-.11-.59s-.14-.42-.25-.59c.49.05.96.08,1.39.09.43,0,.74,0,.91,0,.19,0,.33,0,.44-.03.11-.02.21-.08.3-.19.16-.15.31-.45.44-.92s.26-1.15.39-2.04c.13-.89.24-2.06.35-3.5v-.22Z"/>
          <path class="cls-39" d="M825.1,148.44h17.86v1.16h-17.86v-1.16ZM825.54,142.4h17v3.56h-1.34v-2.52h-14.38v2.52h-1.28v-3.56ZM830.62,135.42l.62.84c-.57.23-1.23.41-1.97.56-.74.15-1.41.26-2.01.34l-.5-.78c.39-.07.82-.16,1.29-.27s.94-.23,1.4-.36.85-.24,1.17-.33ZM826.76,136.38l1.3.36.4,6.22h-1.26l-.44-6.58ZM827.5,138.12h3.62v.96h-3.62v-.96ZM827.6,140.24h3.62v.96h-3.62v-.96ZM828.78,144.9h9.58v1.04h-9.58v-1.04ZM833.54,147.52h1.3v4.56c0,.36-.05.63-.15.82-.1.19-.3.33-.61.44-.29.09-.7.14-1.22.15-.52,0-1.19,0-2,0-.03-.16-.09-.35-.18-.56-.09-.21-.19-.4-.28-.56.44.01.84.02,1.21.03s.69,0,.96,0,.46,0,.55,0c.16-.01.27-.04.33-.09.06-.05.09-.14.09-.27v-4.52ZM835.06,138.8l.98.3c-.48.63-1.08,1.23-1.8,1.81-.72.58-1.44,1.06-2.16,1.45-.08-.09-.2-.22-.36-.37-.16-.15-.29-.28-.4-.37.71-.33,1.4-.75,2.09-1.24.69-.49,1.24-1.02,1.65-1.58ZM835,135.42l.98.28c-.45.61-1.02,1.2-1.71,1.75-.69.55-1.37,1.02-2.05,1.39-.08-.09-.2-.21-.36-.36-.16-.15-.3-.25-.42-.32.68-.35,1.35-.76,2-1.23.65-.47,1.17-.98,1.56-1.51ZM831.74,139.66l.7-.6c.45.21.93.46,1.42.74s.96.57,1.4.87c.44.3.79.58,1.06.85l-.72.7c-.27-.28-.61-.57-1.04-.87-.43-.3-.88-.6-1.37-.9s-.97-.56-1.45-.79ZM831.8,136.32l.68-.62c.45.19.92.41,1.39.68.47.27.93.53,1.36.8.43.27.78.53,1.05.78l-.7.68c-.27-.24-.61-.5-1.03-.79-.42-.29-.87-.56-1.35-.83-.48-.27-.95-.5-1.4-.7ZM838.04,144.9h.32l.28-.06.8.68c-.45.36-.97.71-1.56,1.04-.59.33-1.2.64-1.83.93s-1.25.54-1.85.75c-.07-.12-.17-.25-.31-.39-.14-.14-.26-.25-.35-.33.53-.19,1.08-.41,1.65-.68.57-.27,1.1-.55,1.61-.84s.92-.57,1.24-.84v-.26ZM836.78,140.24h3.58v.96h-3.58v-.96ZM836.8,136h3.86v.96h-3.86v-.96ZM836.9,138.12h3.62v.96h-3.62v-.96ZM840.12,136h1.28c-.04.76-.09,1.57-.14,2.42s-.11,1.68-.18,2.49c-.07.81-.13,1.5-.2,2.09h-1.3c.09-.6.17-1.31.24-2.12s.13-1.65.18-2.5c.05-.85.09-1.65.12-2.38Z"/>
          <path class="cls-39" d="M849.88,147.98l1.34.48c-.39.52-.83,1.05-1.34,1.58s-1.03,1.03-1.57,1.49-1.07.87-1.59,1.23c-.08-.08-.19-.18-.34-.29-.15-.11-.29-.22-.44-.33-.15-.11-.27-.19-.38-.26.8-.49,1.59-1.09,2.37-1.78.78-.69,1.43-1.4,1.95-2.12ZM858.28,135.26l.98,1.06c-.81.37-1.74.73-2.77,1.07-1.03.34-2.13.66-3.28.96-1.15.3-2.33.58-3.52.84-1.19.26-2.36.5-3.51.71-.03-.17-.08-.37-.17-.58-.09-.21-.16-.39-.23-.54,1.12-.21,2.27-.45,3.44-.72,1.17-.27,2.32-.55,3.43-.85s2.15-.61,3.12-.94c.97-.33,1.8-.66,2.51-1.01ZM846.56,147.66c-.01-.11-.04-.24-.09-.4-.05-.16-.1-.32-.16-.49-.06-.17-.11-.31-.15-.43.31-.03.69-.12,1.14-.29.45-.17.99-.39,1.6-.67.33-.15.83-.38,1.49-.71.66-.33,1.41-.72,2.26-1.19s1.73-.98,2.64-1.55c.91-.57,1.78-1.16,2.61-1.79l1.04.88c-1.87,1.31-3.76,2.46-5.69,3.45-1.93.99-3.82,1.85-5.69,2.57v.04c-.2.07-.37.13-.5.18-.13.05-.25.12-.35.19s-.15.14-.15.21ZM846.56,147.66l-.04-1.04.98-.5,13.14-.9c-.03.19-.04.4-.04.63v.55c-2.03.15-3.77.27-5.23.38s-2.69.2-3.68.27-1.8.14-2.42.2-1.1.11-1.45.15-.61.08-.8.12c-.19.04-.34.09-.46.14ZM847.68,143.48c-.01-.09-.04-.22-.09-.38-.05-.16-.1-.32-.15-.49s-.1-.31-.14-.43c.21-.03.45-.09.72-.19.27-.1.56-.24.88-.41.23-.12.6-.34,1.13-.66s1.11-.7,1.75-1.15c.64-.45,1.25-.92,1.82-1.41l1.18.76c-.99.76-2.01,1.46-3.06,2.09-1.05.63-2.09,1.17-3.1,1.61v.04c-.19.08-.34.15-.47.21-.13.06-.24.13-.33.2-.09.07-.14.14-.14.21ZM847.68,143.48l-.02-.98.82-.42,7.5-.38c-.04.16-.07.35-.09.57-.02.22-.04.4-.05.53-1.37.08-2.52.15-3.45.21-.93.06-1.68.11-2.26.16s-1.03.09-1.35.12c-.32.03-.56.06-.71.09-.15.03-.28.06-.39.1ZM853.52,146.14h1.36v5.74c0,.39-.05.69-.16.9-.11.21-.31.37-.62.48-.31.11-.71.17-1.22.2s-1.13.04-1.86.04c-.04-.2-.11-.43-.21-.68-.1-.25-.2-.47-.31-.66.41.01.8.03,1.16.04.36.01.67.02.93,0,.26,0,.44-.02.53-.03.17-.01.28-.04.33-.08.05-.04.07-.12.07-.24v-5.72ZM856.82,148.5l1.04-.7c.53.41,1.09.86,1.68,1.34.59.48,1.14.95,1.67,1.42.53.47.96.89,1.29,1.26l-1.12.78c-.32-.36-.74-.78-1.25-1.26-.51-.48-1.06-.97-1.63-1.47s-1.13-.96-1.68-1.37ZM857.36,143.24l1.1-.54c.51.45,1.02.95,1.55,1.48.53.53,1.02,1.05,1.47,1.56.45.51.82.96,1.1,1.36l-1.14.68c-.27-.4-.63-.87-1.08-1.4s-.94-1.07-1.47-1.62c-.53-.55-1.04-1.05-1.53-1.52Z"/>
        </g>
      </g>
    </g>
  </g>
  <g id="b41">
    <g id="g-root-ro_mb3dzko736kv-fill">
      <g id="ro_mb3dzko736kv-fill">
        <path class="cls-24" d="M243.41,48h186.18s12.41,0,12.41,12v30s0,12-12.41,12h-186.18s-12.41,0-12.41-12v-30s0-12,12.41-12"/>
      </g>
    </g>
    <g id="g-root-tx__qqww40o736kg-fill">
      <g id="tx__qqww40o736kg-fill">
        <g class="cls-2">
          <g class="cls-2">
            <path class="cls-29" d="M252.02,70.42l1.78.68c-.51.87-1.1,1.73-1.78,2.58-.68.85-1.39,1.66-2.12,2.42-.73.76-1.46,1.43-2.18,2-.08-.13-.2-.3-.36-.51-.16-.21-.32-.41-.49-.62-.17-.21-.32-.37-.45-.49.68-.48,1.36-1.05,2.05-1.7.69-.65,1.34-1.35,1.95-2.1.61-.75,1.15-1.5,1.6-2.26ZM251.22,66.1l1.82.76c-.45.6-.98,1.21-1.58,1.83-.6.62-1.22,1.21-1.86,1.78-.64.57-1.27,1.07-1.9,1.51-.08-.15-.18-.32-.31-.51-.13-.19-.26-.38-.39-.57-.13-.19-.26-.34-.38-.46.56-.37,1.13-.81,1.71-1.3.58-.49,1.12-1.01,1.63-1.54.51-.53.93-1.03,1.26-1.5ZM249.72,74.72l1.66-1.66.24.1v11.56h-1.9v-10ZM253.94,72.82h11.22v1.8h-11.22v-1.8ZM254.8,67.3h9.8v1.8h-9.8v-1.8ZM260.32,73.38h1.92v9c0,.55-.07.97-.21,1.27-.14.3-.4.52-.79.67-.37.15-.87.23-1.49.26-.62.03-1.4.04-2.35.04-.04-.27-.12-.58-.23-.94-.11-.36-.24-.67-.37-.94.44.01.87.02,1.28.03.41,0,.77.01,1.08.01s.52,0,.64-.02c.2,0,.34-.03.41-.09.07-.06.11-.16.11-.31v-8.98Z"/>
            <path class="cls-29" d="M270.28,66.06l1.66.56c-.35.79-.77,1.56-1.26,2.32-.49.76-1.02,1.47-1.58,2.14-.56.67-1.13,1.26-1.72,1.78-.05-.15-.13-.34-.23-.58-.1-.24-.21-.48-.33-.73-.12-.25-.23-.44-.34-.59.76-.6,1.48-1.33,2.15-2.19.67-.86,1.22-1.76,1.65-2.71ZM266.68,82.32c.6-.11,1.3-.23,2.1-.36.8-.13,1.66-.28,2.57-.45.91-.17,1.83-.34,2.75-.51l.1,1.42c-1.25.28-2.5.56-3.75.85-1.25.29-2.36.54-3.35.75l-.42-1.7ZM266.94,74.64h7.02v1.62h-7.02v-1.62ZM267.08,77.5l1.28-.32c.17.56.34,1.17.49,1.84.15.67.27,1.24.35,1.72l-1.36.38c-.05-.49-.15-1.08-.3-1.75s-.3-1.3-.46-1.87ZM268.16,71.16h5.04v1.6h-5.04v-1.6ZM269.9,71.84h1.66v10.62l-1.66.3v-10.92ZM270.02,68.14l1.02-1.26c.41.33.86.7,1.33,1.11.47.41.93.8,1.36,1.18.43.38.79.71,1.07.99l-1.06,1.46c-.27-.31-.62-.66-1.05-1.07-.43-.41-.88-.82-1.35-1.25s-.91-.81-1.32-1.16ZM272.86,76.96l1.46.4c-.19.6-.38,1.22-.59,1.87-.21.65-.4,1.19-.57,1.63l-1.18-.36c.11-.32.22-.69.33-1.11s.22-.84.33-1.27c.11-.43.18-.81.22-1.16ZM275.08,71.78h1.76v5.82c0,.75-.03,1.55-.09,2.42-.06.87-.19,1.72-.38,2.55s-.48,1.57-.87,2.21c-.11-.11-.25-.23-.43-.37-.18-.14-.36-.28-.55-.41-.19-.13-.35-.23-.5-.28.33-.59.57-1.23.72-1.93s.24-1.41.28-2.14.06-1.41.06-2.05v-5.82ZM274.56,67.46l1.52-.72c.28.37.55.78.81,1.22.26.44.49.87.7,1.29.21.42.36.8.45,1.15l-1.64.82c-.08-.35-.22-.74-.41-1.17-.19-.43-.41-.88-.66-1.33-.25-.45-.5-.87-.77-1.26ZM275.78,71.78h7.3v1.64h-7.3v-1.64ZM276.74,79.14c.57-.11,1.23-.24,1.96-.41.73-.17,1.51-.34,2.34-.53s1.65-.37,2.48-.56l.18,1.48c-1.11.29-2.22.58-3.33.86-1.11.28-2.13.53-3.05.76l-.58-1.6ZM277.06,75.74l.76-1.18c.49.11,1.02.24,1.57.39.55.15,1.08.33,1.59.52.51.19.93.38,1.26.57l-.8,1.32c-.32-.2-.73-.4-1.22-.6-.49-.2-1.02-.39-1.57-.58-.55-.19-1.08-.33-1.59-.44ZM278.86,66.12h1.8v6.82h-1.8v-6.82ZM282.68,71.78h1.78v10.72c0,.47-.06.84-.17,1.12s-.34.49-.67.64c-.32.15-.74.24-1.25.27-.51.03-1.15.05-1.91.05-.03-.25-.09-.55-.2-.9-.11-.35-.22-.64-.34-.88.52.03,1,.04,1.45.05.45,0,.75,0,.91,0,.16-.01.27-.05.32-.1.05-.05.08-.15.08-.28v-10.68ZM283.34,66.62l1.76.66c-.32.68-.66,1.36-1.03,2.04-.37.68-.72,1.27-1.05,1.76l-1.58-.64c.21-.35.44-.74.68-1.18.24-.44.47-.89.68-1.36.21-.47.39-.89.54-1.28Z"/>
            <path class="cls-29" d="M286.88,78.26h18.28v1.76h-18.28v-1.76ZM292.68,80.12l1.56,1.18c-.56.41-1.19.82-1.89,1.23-.7.41-1.41.79-2.14,1.16-.73.37-1.42.69-2.07.97-.13-.2-.3-.44-.51-.72-.21-.28-.4-.52-.59-.72.64-.24,1.31-.54,2.02-.89.71-.35,1.38-.72,2.02-1.11.64-.39,1.17-.75,1.6-1.1ZM292.22,66.22l.86,1.54c-.65.25-1.35.49-2.09.71-.74.22-1.44.42-2.09.61-.03-.19-.09-.41-.18-.67-.09-.26-.19-.48-.28-.67.64-.21,1.31-.46,2-.73.69-.27,1.29-.54,1.78-.79ZM288.44,67.74l1.74.48.34,10.6h-1.7l-.38-11.08ZM289.38,70.84h3.4v1.58h-3.4v-1.58ZM289.5,74.54h3.34v1.58h-3.34v-1.58ZM294.2,73.54l1.46.26c-.09.67-.23,1.32-.42,1.97-.19.65-.43,1.2-.74,1.65-.13-.11-.33-.24-.59-.4-.26-.16-.48-.28-.65-.36.29-.43.51-.91.64-1.45.13-.54.23-1.1.3-1.67ZM293.72,66.26h1.62v5.08h2.48v1.5h-4.1v-6.58ZM294.64,67.92h3.96v1.58h-3.96v-1.58ZM296.84,71.36h1.6v5.22c0,.35-.04.61-.12.79s-.25.33-.5.45c-.24.09-.54.15-.91.17-.37.02-.8.03-1.29.03-.03-.19-.08-.39-.17-.62s-.18-.43-.27-.6c.32.01.61.02.88.03.27,0,.45,0,.54,0,.09,0,.16-.02.19-.05.03-.03.05-.1.05-.19v-5.22ZM297.78,81.34l1.04-1.32c.71.32,1.42.67,2.14,1.04.72.37,1.4.74,2.04,1.1.64.36,1.19.69,1.64,1l-1.24,1.44c-.43-.32-.95-.67-1.57-1.04-.62-.37-1.28-.75-1.97-1.14s-1.39-.75-2.08-1.08ZM299.2,67.08h3.72v1.64h-3.72v-1.64ZM299.28,74.62h3.38v1.58h-3.38v-1.58ZM299.4,70.9h3.44v1.56h-3.44v-1.56ZM301.86,67.08h1.74c-.01.96-.03,1.98-.04,3.05-.01,1.07-.03,2.14-.06,3.21-.03,1.07-.06,2.08-.1,3.05-.04.97-.09,1.82-.14,2.55h-1.78c.05-.75.11-1.61.16-2.58.05-.97.1-2,.13-3.07.03-1.07.06-2.14.07-3.21.01-1.07.02-2.07.02-3Z"/>
            <path class="cls-29" d="M306.72,73.24l1-1.42c.43.16.88.36,1.35.59.47.23.92.48,1.35.73.43.25.77.5,1.04.74l-1.06,1.58c-.25-.24-.59-.49-1-.76-.41-.27-.85-.53-1.32-.79s-.92-.48-1.36-.67ZM307.16,83.16c.36-.51.76-1.11,1.2-1.82.44-.71.89-1.46,1.34-2.25.45-.79.87-1.57,1.26-2.33l1.4,1.26c-.35.69-.72,1.42-1.13,2.17-.41.75-.82,1.49-1.24,2.21-.42.72-.83,1.4-1.23,2.04l-1.6-1.28ZM307.6,67.72l1.06-1.36c.41.19.84.42,1.29.69.45.27.87.55,1.27.84.4.29.73.56.98.81l-1.14,1.5c-.23-.25-.53-.53-.92-.83-.39-.3-.8-.6-1.25-.89-.45-.29-.88-.55-1.29-.76ZM314.1,75.68h1.72v2.04c0,.56-.03,1.14-.1,1.73-.07.59-.2,1.19-.39,1.8s-.48,1.19-.87,1.76-.91,1.1-1.56,1.59c-.09-.13-.22-.28-.37-.43s-.32-.31-.49-.46-.33-.27-.48-.35c.77-.56,1.34-1.17,1.69-1.82s.58-1.31.69-1.98c.11-.67.16-1.3.16-1.9v-1.98ZM312.4,68.64h12.52v1.7h-12.52v-1.7ZM313.18,75.16c-.03-.13-.08-.31-.15-.52-.07-.21-.15-.44-.23-.67-.08-.23-.16-.42-.24-.57.24-.05.48-.19.72-.41.24-.22.51-.51.8-.87.16-.17.39-.46.7-.86.31-.4.65-.88,1.04-1.43.39-.55.77-1.15,1.16-1.79s.74-1.29,1.06-1.94l1.86.72c-.53.92-1.11,1.83-1.72,2.72-.61.89-1.24,1.73-1.88,2.52-.64.79-1.27,1.49-1.9,2.12v.04c-.25.13-.46.25-.61.35-.15.1-.29.2-.42.31-.13.11-.19.2-.19.28ZM313.18,75.16l-.04-1.38,1.08-.6,8.9-.5c.03.24.07.51.14.81.07.3.13.55.18.75-1.71.12-3.14.22-4.29.3s-2.09.15-2.82.21-1.29.11-1.7.15c-.41.04-.72.08-.93.12-.21.04-.39.09-.52.14ZM317.58,75.82h1.68v8h-1.68v-8ZM320.3,71.24l1.44-.82c.37.43.78.9,1.22,1.43.44.53.86,1.04,1.25,1.54s.72.94.97,1.31l-1.54.98c-.23-.37-.53-.82-.91-1.33-.38-.51-.78-1.04-1.21-1.59-.43-.55-.83-1.05-1.22-1.52ZM321.08,75.68h1.76v6.3c0,.31.02.52.05.63.03.11.12.17.25.17h1c.13,0,.29-.01.47-.03s.33-.05.45-.09c.03.23.05.48.06.75s.04.52.08.73c-.13.04-.29.07-.48.08-.19.01-.37.02-.56.02h-1.18c-.53,0-.93-.08-1.2-.23s-.45-.4-.55-.74c-.1-.34-.15-.78-.15-1.31v-6.28Z"/>
            <path class="cls-29" d="M330.62,75.68h.46l.3-.04.92.34c-.33,2.17-.9,3.98-1.7,5.43-.8,1.45-1.77,2.55-2.9,3.31-.08-.13-.19-.28-.34-.45-.15-.17-.3-.33-.46-.48s-.31-.27-.44-.35c1.08-.67,1.98-1.63,2.7-2.88.72-1.25,1.21-2.77,1.46-4.56v-.32ZM327.22,77.48c-.03-.15-.08-.32-.17-.52s-.17-.4-.25-.61c-.08-.21-.15-.37-.22-.49.16-.04.32-.1.48-.19s.33-.23.52-.43c.16-.15.38-.4.66-.76.28-.36.58-.76.91-1.21.33-.45.63-.88.92-1.3.29-.42.52-.76.69-1.03v-.06l.54-.22,1.18.54c-.24.35-.52.75-.85,1.21-.33.46-.67.93-1.03,1.42-.36.49-.72.95-1.07,1.4-.35.45-.68.83-.97,1.15-.27.15-.49.28-.67.39-.18.11-.34.23-.47.36-.13.13-.2.24-.2.35ZM326.9,70.76h4.32v1.54h-4.32v-1.54ZM327.22,77.48v-1.4l.78-.4h3.2v1.5h-2.76c-.25,0-.5.03-.74.09-.24.06-.4.13-.48.21ZM327.54,66.98l1.4-.86c.32.32.64.67.97,1.04.33.37.64.73.93,1.08.29.35.53.65.72.92l-1.44,1.04c-.19-.28-.42-.61-.71-.98-.29-.37-.59-.76-.92-1.15-.33-.39-.64-.76-.95-1.09ZM330.7,79.72c.39.88.92,1.53,1.6,1.96.68.43,1.51.71,2.49.84.98.13,2.1.2,3.37.2.71,0,1.49-.01,2.36-.04.87-.03,1.74-.06,2.62-.1.88-.04,1.67-.09,2.38-.16-.09.13-.18.31-.26.52-.08.21-.15.43-.21.66-.06.23-.11.43-.15.6-.65.04-1.36.07-2.12.1s-1.53.05-2.32.06c-.79.01-1.56.02-2.32.02-1.17,0-2.22-.05-3.13-.16-.91-.11-1.72-.3-2.42-.58-.7-.28-1.31-.69-1.83-1.23-.52-.54-.97-1.26-1.34-2.15l1.28-.54ZM333.2,71.14h10.16v1.4h-8.46v8.92h-1.7v-10.32ZM333.32,66.88h9.78v1.42h-9.78v-1.42ZM334.22,74.02h9.06v1.36h-9.06v-1.36ZM334.22,76.9h9.06v1.42h-9.06v-1.42ZM335.1,69.7l1.2-1.04c.63.23,1.3.49,2.02.78.72.29,1.41.59,2.07.9.66.31,1.22.59,1.67.86l-1.28,1.16c-.41-.25-.94-.54-1.59-.86-.65-.32-1.33-.64-2.04-.96-.71-.32-1.4-.6-2.05-.84ZM337.9,71.76h1.64v9.66h-1.64v-9.66ZM342.46,66.88h.42l.38-.1,1.14.9c-.45.43-.97.85-1.54,1.28s-1.17.82-1.8,1.19c-.63.37-1.25.69-1.86.97-.12-.17-.28-.37-.47-.58-.19-.21-.36-.38-.51-.5.53-.24,1.07-.52,1.61-.84.54-.32,1.04-.65,1.51-1s.84-.67,1.12-.98v-.34ZM342.7,71.14h1.7v8.66c0,.41-.05.73-.15.94-.1.21-.29.39-.57.52-.27.12-.62.19-1.05.22-.43.03-.97.04-1.61.04-.03-.23-.09-.47-.18-.74-.09-.27-.19-.5-.3-.7.41.01.79.02,1.14.02h.7c.12-.01.2-.04.25-.08.05-.04.07-.12.07-.24v-8.64Z"/>
            <path class="cls-29" d="M347,79.32h18v1.54h-18v-1.54ZM347.4,73.3h17.28v3.86h-1.88v-2.46h-13.6v2.46h-1.8v-3.86ZM352.54,66.26l.8,1.12c-.6.24-1.28.44-2.05.6-.77.16-1.45.29-2.05.38l-.66-1.06c.39-.08.82-.18,1.31-.29.49-.11.96-.24,1.43-.38s.87-.26,1.22-.37ZM348.58,67.3l1.8.46.38,6.2h-1.78l-.4-6.66ZM349.52,68.98h3.7v1.24h-3.7v-1.24ZM349.6,71.14h3.68v1.22h-3.68v-1.22ZM350.8,75.84h9.16v1.38h-9.16v-1.38ZM355.28,78.58h1.86v4.22c0,.45-.06.8-.19,1.04s-.37.43-.73.56c-.36.12-.81.19-1.35.21-.54.02-1.2.03-1.99.03-.04-.24-.12-.51-.24-.8-.12-.29-.25-.56-.38-.8.39.01.76.02,1.11.03.35,0,.67,0,.94,0h.55c.16,0,.27-.02.33-.07.06-.05.09-.14.09-.27v-4.16ZM356.92,69.64l1.26.4c-.48.65-1.08,1.27-1.8,1.85-.72.58-1.45,1.06-2.18,1.45-.09-.13-.25-.3-.46-.5-.21-.2-.39-.36-.52-.48.71-.32,1.4-.72,2.07-1.19.67-.47,1.22-.98,1.63-1.53ZM356.88,66.28l1.26.36c-.44.61-1.01,1.19-1.7,1.74s-1.37,1-2.04,1.36c-.11-.12-.27-.27-.48-.45-.21-.18-.4-.32-.56-.43.69-.32,1.36-.7,1.99-1.15.63-.45,1.14-.92,1.53-1.43ZM353.68,70.64l.9-.78c.45.21.92.46,1.4.74.48.28.94.57,1.37.86.43.29.79.57,1.07.84l-.98.88c-.25-.27-.59-.55-1.01-.85-.42-.3-.87-.6-1.35-.9-.48-.3-.95-.56-1.4-.79ZM353.76,67.26l.9-.78c.43.19.87.41,1.33.67.46.26.9.53,1.31.8s.75.52,1.02.75l-.94.88c-.25-.24-.58-.5-.98-.78-.4-.28-.83-.56-1.29-.83-.46-.27-.91-.51-1.35-.71ZM359.48,75.84h.46l.4-.1,1.08.98c-.48.36-1.01.71-1.6,1.06s-1.19.67-1.81.98c-.62.31-1.24.58-1.85.82-.11-.16-.25-.34-.43-.53-.18-.19-.33-.35-.45-.47.51-.19,1.03-.42,1.56-.7s1.03-.57,1.5-.87.85-.58,1.14-.83v-.34ZM358.74,66.82h3.78v1.24h-3.78v-1.24ZM358.76,71.14h3.46v1.22h-3.46v-1.22ZM358.86,68.98h3.5v1.24h-3.5v-1.24ZM361.78,66.82h1.8c-.04.79-.09,1.62-.14,2.5-.05.88-.11,1.73-.18,2.56-.07.83-.13,1.54-.2,2.14h-1.82c.08-.63.16-1.35.23-2.18.07-.83.14-1.68.19-2.56.05-.88.09-1.7.12-2.46Z"/>
            <path class="cls-29" d="M369,72.52l1.16.4c-.25.67-.61,1.33-1.07,1.99s-.94,1.18-1.45,1.57c-.13-.2-.31-.42-.52-.66-.21-.24-.41-.43-.6-.56.32-.19.64-.43.95-.73.31-.3.6-.63.87-.98.27-.35.49-.7.66-1.03ZM370.38,76.08h1.64v2.06c0,.55-.05,1.11-.15,1.69-.1.58-.3,1.15-.6,1.71s-.75,1.1-1.34,1.61c-.59.51-1.38.98-2.37,1.41-.07-.13-.15-.29-.26-.46-.11-.17-.23-.34-.36-.51-.13-.17-.25-.3-.36-.41.87-.35,1.55-.73,2.05-1.14s.88-.84,1.13-1.29c.25-.45.42-.9.5-1.35.08-.45.12-.89.12-1.3v-2.02ZM366.92,70.46h8.66v1.54h-8.66v-1.54ZM366.92,77.82h8.8v1.58h-8.8v-1.58ZM367.28,67.32l1.32-.48c.24.36.47.76.7,1.21.23.45.37.84.44,1.17l-1.38.56c-.07-.35-.2-.75-.4-1.2s-.43-.87-.68-1.26ZM370.5,66.22h1.66v9.44h-1.66v-9.44ZM370.54,81.1l1-1.16c.41.24.86.52,1.33.83.47.31.93.62,1.37.92.44.3.8.56,1.08.79l-1.04,1.32c-.27-.24-.62-.52-1.05-.84-.43-.32-.88-.64-1.35-.97-.47-.33-.91-.62-1.34-.89ZM373.24,72.58c.12.08.31.21.56.4.25.19.52.39.8.6.28.21.54.42.77.61s.4.34.51.43l-1.04,1.22c-.13-.16-.31-.36-.53-.59-.22-.23-.46-.48-.71-.73-.25-.25-.5-.49-.73-.71-.23-.22-.43-.39-.59-.51l.96-.72ZM372.74,76.46l1.06-.68c.25.23.52.49.79.79.27.3.48.56.63.79l-1.1.76c-.13-.24-.33-.52-.59-.83s-.52-.59-.79-.83ZM373.82,66.88l1.56.44c-.24.47-.48.93-.71,1.38s-.46.84-.67,1.16l-1.24-.42c.19-.36.38-.78.58-1.27.2-.49.36-.92.48-1.29ZM378.48,81.06l1.6.96c-.31.35-.67.69-1.09,1.03s-.86.66-1.32.95-.92.55-1.37.76c-.15-.17-.34-.38-.57-.62-.23-.24-.45-.44-.65-.6.43-.2.86-.44,1.29-.71s.84-.57,1.21-.88.67-.61.9-.89ZM375.78,67h9.4v1.62h-9.4v-1.62ZM376.48,70.28h8v10.5h-8v-10.5ZM378.2,71.72v1.62h4.48v-1.62h-4.48ZM378.2,74.7v1.62h4.48v-1.62h-4.48ZM378.2,77.68v1.66h4.48v-1.66h-4.48ZM379.38,67.86l2.06.26c-.2.59-.4,1.17-.61,1.75s-.4,1.08-.57,1.49l-1.6-.3c.09-.31.19-.65.28-1.02.09-.37.18-.75.26-1.14s.14-.73.18-1.04ZM380.8,82.04l1.36-.94c.39.24.79.51,1.22.82s.83.61,1.22.92c.39.31.71.59.96.84l-1.46,1.02c-.23-.24-.53-.52-.9-.83s-.77-.63-1.19-.96c-.42-.33-.82-.62-1.21-.87Z"/>
          </g>
        </g>
      </g>
    </g>
    <g id="_圖層_1">
      <g id="_圖層_1-2">
        <g id="_圖層_1-2-2" data-name="_圖層_1-2">
          <g>
            <g>
              <rect class="cls-41" x="402.74" y="71.08" width="10" height="10" rx=".76" ry=".76"/>
              <polyline class="cls-38" points="406.01 73.5 406.01 76.68 406.01 78.66 407.74 77.32 409.47 78.66 409.47 76.68 409.47 73.5"/>
            </g>
            <g>
              <rect class="cls-41" x="412.74" y="71.08" width="10" height="10" rx=".76" ry=".76"/>
              <polyline class="cls-38" points="416.01 73.5 416.01 76.68 416.01 78.66 417.74 77.32 419.46 78.66 419.46 76.68 419.46 73.5"/>
            </g>
            <path class="cls-42" d="M412.74,80.29s-.03-.01-.03-.03v-8.36s.01-.03.03-.03.03.01.03.03v8.36s-.01.03-.03.03Z"/>
            <g>
              <rect class="cls-41" x="407.82" y="61.08" width="10" height="10" rx=".76" ry=".76"/>
              <path class="cls-42" d="M416.99,71.11h-8.36s-.03-.01-.03-.03.01-.03.03-.03h8.36s.03.01.03.03-.01.03-.03.03Z"/>
              <polyline class="cls-38" points="411.09 63.5 411.09 66.68 411.09 68.67 412.81 67.32 414.54 68.67 414.54 66.68 414.54 63.5"/>
            </g>
            <g>
              <circle class="cls-46" cx="409.09" cy="86.79" r="2.15"/>
              <rect class="cls-33" x="408.18" y="83.95" width="1.81" height="2.57" rx=".59" ry=".59"/>
              <circle class="cls-46" cx="420.88" cy="86.78" r="2.15"/>
              <rect class="cls-33" x="419.98" y="83.95" width="1.81" height="2.57" rx=".59" ry=".59"/>
              <path class="cls-3" d="M404.19,81.6h-.43c-.87,0-1.65-.48-1.89-1.18l-2.3-6.54-1.63-4.62c-.41-1.17-1.25-2.19-2.45-2.96-.34-.21-.54-.55-.54-.91s.22-.75.62-.97c.49-.27,1.11-.25,1.58.05,1.6,1.04,2.78,2.44,3.4,4.06l.45,1.22h24.14c.63,0,1.2.27,1.51.72.25.36.31.77.17,1.16l-3.03,8.76c-.23.7-1.01,1.2-1.89,1.2h-17.7s0,.01,0,.01h0ZM398.8,70.24l1.23,3.48,2.3,6.54c.17.5.76.85,1.43.85h17.7s.43-.01.43-.01c.67,0,1.26-.36,1.43-.86l3.03-8.76c.09-.24.05-.5-.11-.72-.22-.32-.65-.51-1.11-.51h-26.33ZM398.62,69.76h1.84l-.39-1.04c-.59-1.52-1.69-2.84-3.21-3.83-.36-.23-.8-.19-1.08-.03-.23.13-.36.32-.36.54s.11.38.31.5h0c1.29.84,2.21,1.94,2.65,3.21l.23.65h0s0,0,0,0Z"/>
              <rect class="cls-3" x="399.8" y="73.55" width="26.22" height=".49"/>
              <rect class="cls-3" x="401.12" y="77.33" width="23.38" height=".49"/>
              <g>
                <rect class="cls-3" x="404.83" y="69.8" width=".49" height="11.73" transform="translate(-5.99 104.55) rotate(-14.6)"/>
                <rect class="cls-3" x="410.04" y="70.01" width=".49" height="11.38" transform="translate(-4.03 26.63) rotate(-3.7)"/>
                <rect class="cls-3" x="414.94" y="75.46" width="11.73" height=".49" transform="translate(241.47 463.84) rotate(-75.4)"/>
                <rect class="cls-3" x="409.84" y="75.42" width="11.38" height=".49" transform="translate(313.21 485.44) rotate(-86.3)"/>
              </g>
              <path class="cls-3" d="M422.58,84.95h-18.82c-.1,0-.2-.06-.23-.16l-1.48-4.04c-.05-.13.02-.27.15-.31.13-.05.27.02.31.15l1.43,3.88h18.65c.14,0,.24.11.24.24s-.11.24-.24.24Z"/>
              <circle class="cls-32" cx="406.97" cy="87" r="2.15"/>
              <circle class="cls-32" cx="418.73" cy="87" r="2.15"/>
              <rect class="cls-33" x="406.01" y="83.95" width="1.81" height="2.57" rx=".59" ry=".59"/>
              <path class="cls-47" d="M397.84,69.25c-.19,0-.37-.1-.47-.28-.45-.85-1.07-1.6-1.84-2.21-.4-.3-.63-.78-.63-1.29s.36-1.21.92-1.48c.57-.28,1.24-.21,1.74.2,1.37,1.1,2.45,2.54,3.13,4.17.11.27-.01.58-.28.69-.27.11-.58-.01-.69-.28-.62-1.47-1.59-2.77-2.82-3.76-.18-.15-.42-.17-.63-.07-.21.1-.33.3-.33.53s.08.35.21.45c0,0,0,0,0,0,.89.7,1.6,1.56,2.12,2.54.14.26.04.58-.22.71-.08.04-.16.06-.24.06h0Z"/>
              <rect class="cls-33" x="417.83" y="83.95" width="1.81" height="2.57" rx=".59" ry=".59"/>
            </g>
          </g>
        </g>
      </g>
    </g>
  </g>
  <g id="b37">
    <g id="g-root-ro_qqww40o736kl-fill">
      <g id="ro_qqww40o736kl-fill">
        <path class="cls-25" d="M700.58,66h125.83s12.58,0,12.58,12v30s0,12-12.58,12h-125.83s-12.58,0-12.58-12v-30s0-12,12.58-12"/>
      </g>
    </g>
    <g id="g-root-tx__qqww40o736kn-fill">
      <g id="tx__qqww40o736kn-fill">
        <g class="cls-2">
          <g class="cls-2">
            <path class="cls-29" d="M750.88,99.64l1.7.78c-.55.29-1.18.59-1.89.88s-1.45.56-2.2.8c-.75.24-1.47.45-2.15.62-.09-.13-.22-.29-.39-.46-.17-.17-.34-.34-.51-.51s-.33-.3-.46-.41c.69-.13,1.41-.29,2.14-.46.73-.17,1.43-.36,2.08-.57.65-.21,1.21-.43,1.68-.67ZM746.56,91.42c-.04-.13-.1-.29-.19-.46-.09-.17-.18-.34-.29-.51-.11-.17-.21-.3-.3-.41.17-.09.35-.25.52-.46s.26-.53.26-.96v-3.42h1.82v4.62c-.24.15-.45.28-.63.39s-.36.24-.55.39c-.19.15-.34.29-.46.43-.12.14-.18.27-.18.39ZM746.56,91.42l-.14-1.42.76-.58,4.76-1.18c.01.23.03.48.06.77.03.29.05.52.08.69-1.11.31-2,.56-2.68.75-.68.19-1.21.35-1.58.47-.37.12-.65.22-.83.29-.18.07-.32.14-.43.21ZM752.36,84.18l.84,1.4c-.57.16-1.22.31-1.93.44-.71.13-1.44.24-2.17.32-.73.08-1.44.15-2.12.2-.03-.19-.08-.41-.16-.66-.08-.25-.17-.48-.26-.68.67-.07,1.35-.15,2.06-.26.71-.11,1.39-.22,2.04-.35.65-.13,1.22-.26,1.7-.41ZM747.52,91.42h13.2v8.02h-13.2v-8.02ZM749.34,92.62v1.1h9.48v-1.1h-9.48ZM749.34,94.86v1.1h9.48v-1.1h-9.48ZM749.34,97.12v1.14h9.48v-1.14h-9.48ZM750.08,87.24l1.46-.52c.29.35.59.73.88,1.14.29.41.56.82.81,1.22.25.4.43.76.55,1.08l-1.54.58c-.12-.31-.29-.67-.52-1.08-.23-.41-.48-.83-.76-1.25-.28-.42-.57-.81-.88-1.17ZM756.64,85.46h1.66c-.09.96-.27,1.81-.53,2.56-.26.75-.68,1.4-1.27,1.95-.59.55-1.41,1.01-2.48,1.37-.07-.15-.15-.31-.26-.48-.11-.17-.23-.34-.36-.51-.13-.17-.26-.3-.38-.39.93-.28,1.64-.63,2.13-1.05s.84-.92,1.05-1.49c.21-.57.36-1.23.44-1.96ZM753.92,85h7.22v1.48h-7.22v-1.48ZM755.92,100.6l1.16-1.04c.71.19,1.41.4,2.12.64.71.24,1.38.48,2.01.72s1.18.45,1.65.64l-1.54,1.1c-.41-.2-.91-.42-1.49-.65s-1.2-.47-1.87-.72c-.67-.25-1.35-.48-2.04-.69ZM760.58,85h1.78c0,.33-.01.56-.04.68-.07.95-.14,1.73-.22,2.36s-.17,1.11-.27,1.46-.22.61-.37.78c-.17.17-.36.3-.55.38-.19.08-.42.13-.67.16-.21.03-.51.04-.9.04s-.79-.01-1.22-.04c-.01-.23-.06-.49-.15-.79-.09-.3-.19-.56-.31-.77.37.04.72.06,1.04.07.32,0,.55,0,.68,0,.28,0,.48-.06.6-.18.09-.09.17-.28.24-.56.07-.28.13-.69.19-1.24s.12-1.26.17-2.14v-.22Z"/>
            <path class="cls-29" d="M770.18,92.06l1.82.58c-.48.8-1.04,1.57-1.69,2.31-.65.74-1.33,1.42-2.05,2.03-.72.61-1.45,1.15-2.18,1.62-.09-.12-.23-.27-.41-.44-.18-.17-.36-.34-.54-.51-.18-.17-.35-.3-.51-.39,1.11-.6,2.16-1.36,3.15-2.27.99-.91,1.8-1.89,2.41-2.93ZM772.26,94.92l1.8.56c-.49.93-1.08,1.82-1.76,2.65-.68.83-1.41,1.6-2.19,2.3-.78.7-1.58,1.31-2.39,1.83-.09-.12-.23-.27-.41-.44-.18-.17-.36-.34-.54-.51-.18-.17-.34-.3-.49-.41,1.24-.67,2.39-1.52,3.45-2.57s1.9-2.18,2.53-3.41ZM767.62,85.02h13.04v7.86h-13.04v-7.86ZM768.8,94.38h11.86v1.66h-11.86v-1.66ZM769.48,86.56v1.64h9.24v-1.64h-9.24ZM769.48,89.66v1.68h9.24v-1.68h-9.24ZM776.38,95.04l1.8.44c-.52,1.51-1.21,2.89-2.07,4.16-.86,1.27-1.8,2.32-2.81,3.16-.09-.11-.23-.23-.42-.38s-.38-.29-.57-.44c-.19-.15-.36-.26-.49-.34,1.01-.75,1.91-1.7,2.7-2.85.79-1.15,1.41-2.4,1.86-3.75ZM780.2,94.38h1.92c-.01.19-.02.34-.03.47,0,.13-.02.23-.03.31-.13,1.48-.27,2.69-.42,3.62-.15.93-.3,1.65-.47,2.16-.17.51-.36.87-.57,1.1-.2.23-.42.38-.66.47-.24.09-.51.14-.82.17-.27.03-.62.04-1.07.04s-.92-.01-1.43-.04c-.01-.24-.06-.51-.15-.82-.09-.31-.2-.57-.35-.8.47.04.9.07,1.3.08.4.01.69.02.86.02s.31-.02.42-.05c.11-.03.21-.1.3-.19.16-.16.31-.47.45-.92.14-.45.27-1.11.4-1.98.13-.87.24-1.99.35-3.36v-.28Z"/>
            <path class="cls-29" d="M785,97.32h18v1.54h-18v-1.54ZM785.4,91.3h17.28v3.86h-1.88v-2.46h-13.6v2.46h-1.8v-3.86ZM790.54,84.26l.8,1.12c-.6.24-1.28.44-2.05.6-.77.16-1.45.29-2.05.38l-.66-1.06c.39-.08.82-.18,1.31-.29.49-.11.96-.24,1.43-.38s.87-.26,1.22-.37ZM786.58,85.3l1.8.46.38,6.2h-1.78l-.4-6.66ZM787.52,86.98h3.7v1.24h-3.7v-1.24ZM787.6,89.14h3.68v1.22h-3.68v-1.22ZM788.8,93.84h9.16v1.38h-9.16v-1.38ZM793.28,96.58h1.86v4.22c0,.45-.06.8-.19,1.04-.13.24-.37.43-.73.56-.36.12-.81.19-1.35.21-.54.02-1.2.03-1.99.03-.04-.24-.12-.51-.24-.8-.12-.29-.25-.56-.38-.8.39.01.76.02,1.11.03.35,0,.67,0,.94,0h.55c.16,0,.27-.02.33-.07.06-.05.09-.14.09-.27v-4.16ZM794.92,87.64l1.26.4c-.48.65-1.08,1.27-1.8,1.85-.72.58-1.45,1.06-2.18,1.45-.09-.13-.25-.3-.46-.5-.21-.2-.39-.36-.52-.48.71-.32,1.4-.72,2.07-1.19.67-.47,1.22-.98,1.63-1.53ZM794.88,84.28l1.26.36c-.44.61-1.01,1.19-1.7,1.74s-1.37,1-2.04,1.36c-.11-.12-.27-.27-.48-.45s-.4-.32-.56-.43c.69-.32,1.36-.7,1.99-1.15.63-.45,1.14-.92,1.53-1.43ZM791.68,88.64l.9-.78c.45.21.92.46,1.4.74.48.28.94.57,1.37.86.43.29.79.57,1.07.84l-.98.88c-.25-.27-.59-.55-1.01-.85-.42-.3-.87-.6-1.35-.9-.48-.3-.95-.56-1.4-.79ZM791.76,85.26l.9-.78c.43.19.87.41,1.33.67.46.26.9.53,1.31.8s.75.52,1.02.75l-.94.88c-.25-.24-.58-.5-.98-.78s-.83-.56-1.29-.83c-.46-.27-.91-.51-1.35-.71ZM797.48,93.84h.46l.4-.1,1.08.98c-.48.36-1.01.71-1.6,1.06s-1.19.67-1.81.98c-.62.31-1.24.58-1.85.82-.11-.16-.25-.34-.43-.53s-.33-.35-.45-.47c.51-.19,1.03-.42,1.56-.7s1.03-.57,1.5-.87.85-.58,1.14-.83v-.34ZM796.74,84.82h3.78v1.24h-3.78v-1.24ZM796.76,89.14h3.46v1.22h-3.46v-1.22ZM796.86,86.98h3.5v1.24h-3.5v-1.24ZM799.78,84.82h1.8c-.04.79-.09,1.62-.14,2.5s-.11,1.73-.18,2.56c-.07.83-.13,1.54-.2,2.14h-1.82c.08-.63.16-1.35.23-2.18.07-.83.14-1.68.19-2.56.05-.88.09-1.7.12-2.46Z"/>
            <path class="cls-29" d="M807,90.52l1.16.4c-.25.67-.61,1.33-1.07,1.99s-.94,1.18-1.45,1.57c-.13-.2-.31-.42-.52-.66-.21-.24-.41-.43-.6-.56.32-.19.64-.43.95-.73.31-.3.6-.63.87-.98.27-.35.49-.7.66-1.03ZM808.38,94.08h1.64v2.06c0,.55-.05,1.11-.15,1.69s-.3,1.15-.6,1.71-.75,1.1-1.34,1.61c-.59.51-1.38.98-2.37,1.41-.07-.13-.15-.29-.26-.46-.11-.17-.23-.34-.36-.51s-.25-.3-.36-.41c.87-.35,1.55-.73,2.05-1.14s.88-.84,1.13-1.29c.25-.45.42-.9.5-1.35.08-.45.12-.89.12-1.3v-2.02ZM804.92,88.46h8.66v1.54h-8.66v-1.54ZM804.92,95.82h8.8v1.58h-8.8v-1.58ZM805.28,85.32l1.32-.48c.24.36.47.76.7,1.21.23.45.37.84.44,1.17l-1.38.56c-.07-.35-.2-.75-.4-1.2s-.43-.87-.68-1.26ZM808.5,84.22h1.66v9.44h-1.66v-9.44ZM808.54,99.1l1-1.16c.41.24.86.52,1.33.83.47.31.93.62,1.37.92.44.3.8.56,1.08.79l-1.04,1.32c-.27-.24-.62-.52-1.05-.84-.43-.32-.88-.64-1.35-.97-.47-.33-.91-.62-1.34-.89ZM811.24,90.58c.12.08.31.21.56.4.25.19.52.39.8.6.28.21.54.42.77.61.23.19.4.34.51.43l-1.04,1.22c-.13-.16-.31-.36-.53-.59-.22-.23-.46-.48-.71-.73-.25-.25-.5-.49-.73-.71-.23-.22-.43-.39-.59-.51l.96-.72ZM810.74,94.46l1.06-.68c.25.23.52.49.79.79.27.3.48.56.63.79l-1.1.76c-.13-.24-.33-.52-.59-.83-.26-.31-.52-.59-.79-.83ZM811.82,84.88l1.56.44c-.24.47-.48.93-.71,1.38s-.46.84-.67,1.16l-1.24-.42c.19-.36.38-.78.58-1.27.2-.49.36-.92.48-1.29ZM816.48,99.06l1.6.96c-.31.35-.67.69-1.09,1.03-.42.34-.86.66-1.32.95s-.92.55-1.37.76c-.15-.17-.34-.38-.57-.62-.23-.24-.45-.44-.65-.6.43-.2.86-.44,1.29-.71.43-.27.84-.57,1.21-.88.37-.31.67-.61.9-.89ZM813.78,85h9.4v1.62h-9.4v-1.62ZM814.48,88.28h8v10.5h-8v-10.5ZM816.2,89.72v1.62h4.48v-1.62h-4.48ZM816.2,92.7v1.62h4.48v-1.62h-4.48ZM816.2,95.68v1.66h4.48v-1.66h-4.48ZM817.38,85.86l2.06.26c-.2.59-.4,1.17-.61,1.75-.21.58-.4,1.08-.57,1.49l-1.6-.3c.09-.31.19-.65.28-1.02s.18-.75.26-1.14c.08-.39.14-.73.18-1.04ZM818.8,100.04l1.36-.94c.39.24.79.51,1.22.82s.83.61,1.22.92c.39.31.71.59.96.84l-1.46,1.02c-.23-.24-.53-.52-.9-.83-.37-.31-.77-.63-1.19-.96-.42-.33-.82-.62-1.21-.87Z"/>
          </g>
        </g>
      </g>
    </g>
    <g id="_圖層_1-2" data-name="_圖層_1">
      <g class="cls-2">
        <g id="_圖層_1-2-3" data-name="_圖層_1-2">
          <g>
            <g>
              <circle class="cls-43" cx="718.49" cy="97.53" r="11.1"/>
              <path class="cls-3" d="M727.55,91.12c-.48-.08-5.53-.81-6.42,1.85-.89,2.66-3.27,2.33-2.46,5.21.8,2.89,3.03,4.56,5.81,4.18,3.19-.43-2.93,4.32-.51,4.85,5.34-2.93,7.53-10.26,3.57-16.07h0v-.02h0Z"/>
              <path class="cls-3" d="M712.46,88.23s4.83-.29,5.04,1.47c.21,1.76-1.02,1.47-2.63,2.49-1.61,1.02-2.33.21-3.23,1.76-.9,1.55-3.87.76-3.87.76,0,0,.61-3.84,4.69-6.47h0s0,0,0,0Z"/>
              <path class="cls-3" d="M707.63,99.56s3.56-.77,4.86,1.75c1.3,2.51,2.33,1.47,3.15,2.6.23.31.21.73.05,1.16-.59,1.65-2.62,2.29-4.06,1.29-1.47-1-3.19-2.97-4-6.79h0Z"/>
              <g class="cls-1">
                <path class="cls-47" d="M728.06,103.12c-3.09,5.29-9.81,7.06-15.1,4,11.71-.76,15.03-11.54,11.11-19.15,5.29,3.09,7.08,9.87,4,15.17h0s0-.01,0-.01Z"/>
              </g>
            </g>
            <path class="cls-46" d="M718.49,108.67s-.04-.02-.04-.04.02-.04.04-.04c6.09,0,11.05-4.96,11.05-11.05s-4.96-11.05-11.05-11.05h-.05s-.04-.02-.04-.04.02-.04.04-.04h.05c2.98,0,5.77,1.16,7.88,3.26,2.1,2.1,3.26,4.9,3.26,7.88s-1.16,5.77-3.26,7.88-4.9,3.26-7.88,3.26Z"/>
            <path class="cls-46" d="M707.39,97.57s-.04-.02-.04-.04c0-2.45.78-4.77,2.25-6.72,1.42-1.88,3.45-3.29,5.7-3.96.02,0,.05,0,.06.03,0,.02,0,.05-.03.06-4.64,1.39-7.88,5.74-7.88,10.59,0,.02-.02.04-.04.04Z"/>
          </g>
          <path class="cls-38" d="M725.34,83.53c0-3.79-3.06-6.85-6.85-6.86h0c-3.79,0-6.85,3.07-6.85,6.86,0,5.84,6.57,11.06,6.85,11.28h0s0,0,0,0h0c.28-.23,6.85-5.45,6.85-11.29h0Z"/>
          <g>
            <g>
              <polygon class="cls-31" points="719.52 82.74 722.18 80.84 717.43 79.7 714.8 81.58 719.52 82.74"/>
              <polygon class="cls-33" points="719.61 87.68 722.22 85.64 722.18 80.84 719.52 82.74 719.61 87.68"/>
              <polygon class="cls-31" points="719.62 87.67 714.89 86.51 714.8 81.58 719.54 82.74 719.62 87.67"/>
            </g>
            <path class="cls-46" d="M719.59,85.55s-.02,0-.02-.02l-.05-2.77-4.72-1.16s-.02-.01-.01-.02c0,0,.01-.02.02-.01l4.74,1.16s.01,0,.01.02l.05,2.79s0,.02-.02.02h0Z"/>
            <path class="cls-46" d="M719.54,82.76s-.01,0-.02,0,0-.02,0-.03l1.57-1.13s.02,0,.03,0,0,.02,0,.03l-1.57,1.13h-.01Z"/>
          </g>
        </g>
      </g>
    </g>
  </g>
  <g id="a13">
    <g id="g-root-ro_qqww40o736kk-stroke">
      <g id="ro_qqww40o736kk-stroke">
        <path class="cls-7" d="M517.27,66h95.45s27.27,0,27.27,28.57v92.86s0,28.57-27.27,28.57h-95.45s-27.27,0-27.27-28.57v-92.86s0-28.57,27.27-28.57"/>
      </g>
    </g>
    <g>
      <g id="g-root-tx__qqww40o737cw-fill">
        <g id="tx__qqww40o737cw-fill">
          <g class="cls-2">
            <g class="cls-2">
              <path class="cls-45" d="M531.79,188.54l1.7.78c-.55.29-1.18.59-1.89.88-.71.29-1.45.56-2.2.8-.75.24-1.47.45-2.15.62-.09-.13-.22-.29-.39-.46-.17-.17-.34-.34-.51-.51s-.33-.3-.46-.41c.69-.13,1.41-.29,2.14-.46.73-.17,1.43-.36,2.08-.57.65-.21,1.21-.43,1.68-.67ZM527.47,180.32c-.04-.13-.1-.29-.19-.46-.09-.17-.18-.34-.29-.51-.11-.17-.21-.3-.3-.41.17-.09.35-.25.52-.46.17-.21.26-.53.26-.96v-3.42h1.82v4.62c-.24.15-.45.28-.63.39s-.36.24-.55.39c-.19.15-.34.29-.46.43-.12.14-.18.27-.18.39ZM527.47,180.32l-.14-1.42.76-.58,4.76-1.18c.01.23.03.48.06.77.03.29.05.52.08.69-1.11.31-2,.56-2.68.75-.68.19-1.21.35-1.58.47s-.65.22-.83.29c-.18.07-.32.14-.43.21ZM533.27,173.08l.84,1.4c-.57.16-1.22.31-1.93.44-.71.13-1.44.24-2.17.32-.73.08-1.44.15-2.12.2-.03-.19-.08-.41-.16-.66-.08-.25-.17-.48-.26-.68.67-.07,1.35-.15,2.06-.26s1.39-.22,2.04-.35c.65-.13,1.22-.26,1.7-.41ZM528.43,180.32h13.2s0,8.03,0,8.03h-13.2s0-8.03,0-8.03ZM530.25,186.02v1.14s9.48,0,9.48,0v-1.14s-9.48,0-9.48,0ZM530.25,183.76v1.1s9.48,0,9.48,0v-1.1s-9.48,0-9.48,0ZM530.25,181.52v1.1s9.48,0,9.48,0v-1.1s-9.48,0-9.48,0ZM530.99,176.14l1.46-.52c.29.35.59.73.88,1.14.29.41.56.82.81,1.22.25.4.43.76.55,1.08l-1.54.58c-.12-.31-.29-.67-.52-1.08s-.48-.83-.76-1.25c-.28-.42-.57-.81-.88-1.17ZM537.55,174.36h1.66c-.09.96-.27,1.81-.53,2.56-.26.75-.68,1.4-1.27,1.95-.59.55-1.41,1.01-2.48,1.37-.07-.15-.15-.31-.26-.48-.11-.17-.23-.34-.36-.51-.13-.17-.26-.3-.38-.39.93-.28,1.64-.63,2.13-1.05s.84-.92,1.05-1.49c.21-.57.36-1.23.44-1.96ZM534.83,173.9h7.22s0,1.48,0,1.48h-7.22s0-1.48,0-1.48ZM536.83,189.5l1.16-1.04c.71.19,1.41.4,2.12.64.71.24,1.38.48,2.01.72s1.18.45,1.65.64l-1.54,1.1c-.41-.2-.91-.42-1.49-.65-.58-.23-1.2-.47-1.87-.72-.67-.25-1.35-.48-2.04-.69ZM541.49,173.9h1.78c0,.33-.01.56-.04.68-.07.95-.14,1.73-.22,2.36-.08.63-.17,1.11-.27,1.46-.1.35-.22.61-.37.78-.17.17-.36.3-.55.38-.19.08-.42.13-.67.16-.21.03-.51.04-.9.04-.39,0-.79-.01-1.22-.04-.01-.23-.06-.49-.15-.79-.09-.3-.19-.56-.31-.77.37.04.72.06,1.04.07.32,0,.55,0,.68.01.28,0,.48-.06.6-.18.09-.09.17-.28.24-.56.07-.28.13-.69.19-1.24.06-.55.12-1.26.17-2.14v-.22Z"/>
              <path class="cls-45" d="M551.09,180.97l1.82.58c-.48.8-1.04,1.57-1.69,2.31-.65.74-1.33,1.42-2.05,2.03s-1.45,1.15-2.18,1.62c-.09-.12-.23-.27-.41-.44-.18-.17-.36-.34-.54-.51-.18-.17-.35-.3-.51-.39,1.11-.6,2.16-1.36,3.15-2.27.99-.91,1.8-1.89,2.41-2.93ZM553.17,183.83l1.8.56c-.49.93-1.08,1.82-1.76,2.65-.68.83-1.41,1.6-2.19,2.3-.78.7-1.58,1.31-2.39,1.83-.09-.12-.23-.27-.41-.44-.18-.17-.36-.34-.54-.51-.18-.17-.34-.3-.49-.41,1.24-.67,2.39-1.52,3.45-2.57,1.06-1.05,1.9-2.18,2.53-3.41ZM548.53,173.93h13.04s0,7.87,0,7.87h-13.04s0-7.87,0-7.87ZM549.71,183.29h11.86s0,1.67,0,1.67h-11.86s0-1.67,0-1.67ZM550.39,178.57v1.68s9.24,0,9.24,0v-1.68s-9.24,0-9.24,0ZM550.39,175.47v1.64s9.24,0,9.24,0v-1.64s-9.24,0-9.24,0ZM557.29,183.95l1.8.44c-.52,1.51-1.21,2.89-2.07,4.16-.86,1.27-1.8,2.32-2.81,3.16-.09-.11-.23-.23-.42-.38s-.38-.29-.57-.44c-.19-.15-.36-.26-.49-.34,1.01-.75,1.91-1.7,2.7-2.85.79-1.15,1.41-2.4,1.86-3.75ZM561.11,183.29h1.92c-.01.19-.02.34-.03.47,0,.13-.02.23-.03.31-.13,1.48-.27,2.69-.42,3.62-.15.93-.3,1.65-.47,2.16-.17.51-.36.87-.57,1.1-.2.23-.42.38-.66.47-.24.09-.51.14-.82.17-.27.03-.62.04-1.07.04-.45,0-.92-.01-1.43-.04-.01-.24-.06-.51-.15-.82-.09-.31-.2-.57-.35-.8.47.04.9.07,1.3.08.4.01.69.02.86.02s.31-.02.42-.05c.11-.03.21-.1.3-.19.16-.16.31-.47.45-.92.14-.45.27-1.11.4-1.98.13-.87.24-1.99.35-3.36v-.28Z"/>
              <path class="cls-45" d="M570.93,177.33l1.78.68c-.51.87-1.1,1.73-1.78,2.58-.68.85-1.39,1.66-2.12,2.42-.73.76-1.46,1.43-2.18,2-.08-.13-.2-.3-.36-.51-.16-.21-.32-.41-.49-.62-.17-.21-.32-.37-.45-.49.68-.48,1.36-1.05,2.05-1.7s1.34-1.35,1.95-2.1c.61-.75,1.15-1.5,1.6-2.26ZM570.13,173.01l1.82.76c-.45.6-.98,1.21-1.58,1.83-.6.62-1.22,1.21-1.86,1.78-.64.57-1.27,1.07-1.9,1.51-.08-.15-.18-.32-.31-.51-.13-.19-.26-.38-.39-.57s-.26-.34-.38-.46c.56-.37,1.13-.81,1.71-1.3.58-.49,1.12-1.01,1.63-1.54.51-.53.93-1.03,1.26-1.5ZM568.63,181.63l1.66-1.66.24.1v11.56s-1.9,0-1.9,0v-10ZM572.85,179.74h11.22s0,1.8,0,1.8h-11.22s0-1.8,0-1.8ZM573.71,174.22h9.8s0,1.8,0,1.8h-9.8s0-1.8,0-1.8ZM579.23,180.3h1.92s0,9,0,9c0,.55-.07.97-.21,1.27-.14.3-.4.52-.79.67-.37.15-.87.23-1.49.26-.62.03-1.4.04-2.35.04-.04-.27-.12-.58-.23-.94-.11-.36-.24-.67-.37-.94.44.01.87.02,1.28.03.41,0,.77.01,1.08.01s.52,0,.64-.02c.2,0,.34-.03.41-.09.07-.06.11-.16.11-.31v-8.98Z"/>
              <path class="cls-45" d="M589.19,172.98l1.66.56c-.35.79-.77,1.56-1.26,2.32-.49.76-1.02,1.47-1.58,2.14-.56.67-1.13,1.26-1.72,1.78-.05-.15-.13-.34-.23-.58-.1-.24-.21-.48-.33-.73-.12-.25-.23-.44-.34-.59.76-.6,1.48-1.33,2.15-2.19.67-.86,1.22-1.76,1.65-2.71ZM585.58,189.24c.6-.11,1.3-.23,2.1-.36.8-.13,1.66-.28,2.57-.45.91-.17,1.83-.33,2.75-.51l.1,1.42c-1.25.28-2.5.56-3.75.85-1.25.29-2.36.54-3.35.75l-.42-1.7ZM585.85,181.56h7.02s0,1.62,0,1.62h-7.02s0-1.62,0-1.62ZM585.99,184.42l1.28-.32c.17.56.34,1.17.49,1.84.15.67.27,1.24.35,1.72l-1.36.38c-.05-.49-.15-1.08-.3-1.75-.15-.67-.3-1.3-.46-1.87ZM587.07,178.08h5.04s0,1.6,0,1.6h-5.04s0-1.6,0-1.6ZM588.81,178.76h1.66s0,10.62,0,10.62l-1.66.3v-10.92ZM588.93,175.06l1.02-1.26c.41.33.86.7,1.33,1.11.47.41.93.8,1.36,1.18.43.38.79.71,1.07.99l-1.06,1.46c-.27-.31-.62-.66-1.05-1.07-.43-.41-.88-.82-1.35-1.25-.47-.43-.91-.81-1.32-1.16ZM591.77,183.88l1.46.4c-.19.6-.38,1.22-.59,1.87-.21.65-.4,1.19-.57,1.63l-1.18-.36c.11-.32.22-.69.33-1.11.11-.42.22-.84.33-1.27.11-.43.18-.81.22-1.16ZM593.99,178.7h1.76s0,5.82,0,5.82c0,.75-.03,1.55-.09,2.42-.06.87-.19,1.72-.38,2.55s-.48,1.57-.87,2.21c-.11-.11-.25-.23-.43-.37-.18-.14-.36-.28-.55-.41-.19-.13-.35-.23-.5-.28.33-.59.57-1.23.72-1.93.15-.7.24-1.41.28-2.14.04-.73.06-1.41.06-2.05v-5.82ZM593.47,174.38l1.52-.72c.28.37.55.78.81,1.22.26.44.49.87.7,1.29.21.42.36.8.45,1.15l-1.64.82c-.08-.35-.22-.74-.41-1.17-.19-.43-.41-.88-.66-1.33-.25-.45-.5-.87-.77-1.26ZM594.69,178.7h7.3s0,1.64,0,1.64h-7.3s0-1.64,0-1.64ZM595.65,186.06c.57-.11,1.23-.24,1.96-.41.73-.17,1.51-.34,2.34-.53.83-.19,1.65-.37,2.48-.56l.18,1.48c-1.11.29-2.22.58-3.33.86-1.11.28-2.13.53-3.05.76l-.58-1.6ZM595.97,182.67l.76-1.18c.49.11,1.02.24,1.57.39.55.15,1.08.33,1.59.52.51.19.93.38,1.26.57l-.8,1.32c-.32-.2-.73-.4-1.22-.6-.49-.2-1.02-.39-1.57-.58-.55-.19-1.08-.33-1.59-.44ZM597.77,173.04h1.8s0,6.82,0,6.82h-1.8s0-6.82,0-6.82ZM601.59,178.71h1.78v10.72c0,.47-.06.84-.17,1.12-.11.28-.34.49-.67.64-.32.15-.74.24-1.25.27-.51.03-1.15.05-1.91.05-.03-.25-.09-.55-.2-.9-.11-.35-.22-.64-.34-.88.52.03,1,.04,1.45.05.45,0,.75,0,.91,0,.16-.01.27-.05.32-.1.05-.05.08-.15.08-.28v-10.68ZM602.25,173.55l1.76.66c-.32.68-.66,1.36-1.03,2.04-.37.68-.72,1.27-1.05,1.76l-1.58-.64c.21-.35.44-.74.68-1.18s.47-.89.68-1.36c.21-.47.39-.89.54-1.28Z"/>
            </g>
          </g>
        </g>
      </g>
      <g id="_圖層_1-3" data-name="_圖層_1">
        <g id="_圖層_1-2-4" data-name="_圖層_1-2">
          <g id="_圖層_1-2-5" data-name="_圖層_1-2">
            <g>
              <g>
                <g>
                  <rect class="cls-35" x="558.99" y="137.5" width="12.38" height="22.25"/>
                  <path class="cls-35" d="M580.38,161.43h-30.06c0-4.09,3.29-7.37,7.36-7.37h15.33c4.07,0,7.36,3.3,7.36,7.37h.01s0,0,0,0Z"/>
                </g>
                <polygon class="cls-46" points="558.99 148.31 571.36 148.32 571.36 152.79 558.99 148.31"/>
                <line class="cls-9" x1="559.26" y1="154.05" x2="570.52" y2="154.06"/>
                <g>
                  <path class="cls-32" d="M602.6,148.33l-79.25-.03c-1.86,0-3.35-1.5-3.35-3.35l.02-52.45c0-1.86,1.5-3.35,3.35-3.35l79.25.03c1.86,0,3.35,1.5,3.35,3.35l-.02,52.45c0,1.86-1.5,3.35-3.35,3.35h0Z"/>
                  <rect class="cls-34" x="522.14" y="91.81" width="81.25" height="52.66"/>
                </g>
              </g>
              <rect class="cls-37" x="530.78" y="99.04" width="64.41" height="45.43"/>
              <ellipse class="cls-29" cx="563.07" cy="122.72" rx="14.18" ry="13.73"/>
              <rect class="cls-3" x="530.78" y="99.04" width="64.41" height="5.07"/>
              <path class="cls-29" d="M536.12,101.43c0,.4-.32.71-.71.71s-.71-.32-.71-.71.32-.71.71-.71.71.32.71.71Z"/>
              <path class="cls-29" d="M538.75,101.43c0,.4-.32.71-.71.71s-.71-.32-.71-.71.32-.71.71-.71.71.32.71.71Z"/>
              <path class="cls-29" d="M541.38,101.43c0,.4-.32.71-.71.71s-.71-.32-.71-.71.32-.71.71-.71.71.32.71.71Z"/>
              <g>
                <rect class="cls-31" x="555.89" y="115.51" width="5.32" height="2.19" transform="translate(58.95 392.25) rotate(-40.68)"/>
                <polygon class="cls-31" points="557.72 113.47 562.26 113.44 561.65 117.88 557.72 113.47"/>
              </g>
              <g>
                <rect class="cls-31" x="562.79" y="128.1" width="8.7" height="2.19" transform="translate(52.83 400.89) rotate(-40.68)"/>
                <polygon class="cls-31" points="567.6 124.98 572.16 124.95 571.54 129.39 567.6 124.98"/>
              </g>
              <g>
                <polygon class="cls-31" points="560.19 129.47 557.96 131.4 556.69 129.93 558.9 128 560.19 129.47"/>
                <polygon class="cls-31" points="557.76 127.51 561.07 127.49 560.62 130.72 557.76 127.51"/>
              </g>
              <polygon class="cls-38" points="571.13 123.01 572.02 116.57 565.41 116.59 566.89 118.25 562.35 122.16 561.47 121.15 559.39 118.73 552.6 124.56 554.79 127.12 558.91 123.59 562.42 127.58 563.35 126.79 569.66 121.35 571.13 123.01"/>
              <polygon class="cls-44" points="579.36 142.21 581.5 140.15 573.81 132.15 571.76 134.36 579.36 142.21"/>
              <path class="cls-40" d="M591.68,152.28h0c1.15-1.11,1.16-2.94.07-4.09l-9.61-9.93c-1.11-1.13-2.94-1.16-4.07-.07h0c-1.15,1.11-1.16,2.94-.07,4.09l9.61,9.93c1.11,1.13,2.94,1.16,4.07.07h0Z"/>
              <path class="cls-47" d="M551.17,134.27c6.43,6.65,17.04,6.83,23.7.38,6.65-6.44,6.83-17.04.38-23.7-6.44-6.65-17.04-6.83-23.7-.38-6.65,6.43-6.83,17.04-.38,23.7h0ZM553.3,132.2c-5.3-5.47-5.15-14.2.32-19.49,5.47-5.3,14.2-5.15,19.49.32,5.3,5.47,5.15,14.2-.32,19.49-5.47,5.3-14.2,5.15-19.49-.32h0Z"/>
              <g>
                <path class="cls-30" d="M533.04,123.76l.59,1.48c.23.58-.1,1.22-.72,1.37-.99.23-2.5.49-3.88.46-.64,0-1.11-.66-.88-1.25l.75-2.09,4.13.03h.01,0Z"/>
                <rect class="cls-33" x="522.81" y="146.72" width="16.31" height="18.46"/>
                <path class="cls-19" d="M530.76,160.05c-.17,1.08-.03,2.06-.07,2.86-.01.48-.14.19.37.37.62.23.63,1.08.9.57l1.14-4.18-2.33.37h-.01,0Z"/>
                <path class="cls-31" d="M542.76,149.86s1.08-2.94-2.91-5.44c-.59-.39-6.84-4.54-7.1-4.18-.3.39-4.32.24-4.22.49,1.65,4.09,10.66,9.96,10.66,9.96l3.58-.82h-.01s0,0,0,0Z"/>
                <path class="cls-31" d="M537.12,150.18s.48-1.86-1.4-3.74c-2.09-2.12-6.33-5.12-6.61-4.81-.32.35-3.68,4.9-3.51,5.04,2.36,1.81,7.55,4.52,7.55,4.52l3.98-1h-.01Z"/>
                <path class="cls-31" d="M537.06,150.15c.09.64-3.88,11.42-3.88,11.42l-2.71-.07s-.37-10.58,3.7-12.98c0,0,2.84,1.3,2.87,1.63h.01,0Z"/>
                <path class="cls-19" d="M536.64,160.05c-.1,1.08.09,2.06.1,2.86,0,.48-.13.19.39.37.63.23.71,1.08.93.57l.89-4.18-2.33.37h.03s0,0,0,0Z"/>
                <path class="cls-28" d="M538.34,162.98l1.22.95c.24.23,1.66.67,1.66.67h0c.13.31-.17.46-.41.5l-4.27.02s-.98-.18.03-2.11c.75.32,1.52.55,1.77-.05h0Z"/>
                <path class="cls-28" d="M532.24,162.98l.59.83c.24.23,1.38.86,1.38.86.13.31-.13.46-.31.5l-3.46-.03s-.98-.18.03-2.11c.75.32,1.52.55,1.77-.05h0Z"/>
                <path class="cls-31" d="M542.76,149.86c.09.64-3.59,11.72-3.59,11.72l-2.71-.07s-.37-10.58,3.7-12.98c0,0,2.54.99,2.59,1.33h0Z"/>
                <path class="cls-31" d="M535.72,147.67c-.18-.41-5.19-5.21-5.49-5.42l.98-2.33.09-.39-.67-.06-1.01-.76-.27.63-4.83-.47s-1.01,7.04,1.31,7.94c2.31.89,6.91,1.16,6.91,1.16,3.43.79,3.42.5,3.03-.32h-.05s0,.01,0,.01Z"/>
                <path class="cls-4" d="M537.19,149.71s.03-1.57-.4-2.22-2.96-2.85-2.87-2.82"/>
                <path class="cls-29" d="M533.67,146.91l6.74-1.29c1.42-.27,1.54-2.36.16-3.08l-1.22-.65-8.91,1.74c-.34.06-.4.55-.1.79l3.34,2.5h.01s-.01-.01-.01-.01Z"/>
                <path class="cls-14" d="M533.46,146.73l8.02-1.35,1.95-5.87c.05-.14-.05-.26-.18-.23l-7.63,1.29c-.06,0-.13.06-.15.14l-2.01,6.03h.01Z"/>
                <path class="cls-28" d="M533.67,146.91l8.02-1.35,1.95-5.87c.05-.14-.05-.26-.18-.23l-7.63,1.29c-.06,0-.13.06-.15.14l-2.01,6.03h.01Z"/>
                <path class="cls-14" d="M538.4,143.25c-.08.37.22.62.63.55s.81-.43.89-.8-.22-.62-.63-.55-.81.43-.89.8Z"/>
                <path class="cls-15" d="M531.41,122.69s1.86-.03,1.78,2.06c-.09,2.1-2.72,0-2.72,0l.95-2.04h0v-.03h0-.01Z"/>
                <path class="cls-19" d="M538.18,135.21l-2.4-4.67c-.67-1.46-1.69-1.87-2.69-.9h0c-.4.39-.46,1.11-.13,1.62l2.77,4.46c1.39,2.23,2.75,1.54,3.42.76l-.95-1.28h-.01s0,0,0,0Z"/>
                <path class="cls-19" d="M537.23,135.01s.9,2.44,1.93,1.46l4.23-6.06-1.35-.18-3.65,3.6-1.16,1.21h0v-.03Z"/>
                <path class="cls-16" d="M534.19,127.97l-2.64-.62h0l-.37-.26h-.01s-.83.05-.83.05h0l-2.59.48h0c-1.06.58-1.07.76-1.56,2.18h0l-.83,3.64-.06.4c-.79,2.94-.99,4.18-1.38,7.68-.09.8.73.93.76.93,2.85.47,8.01,0,9.63-.91,1.01-.57.49-2.37.59-3.56.41-5.14.71-7.21-.65-9.98h-.06s.01,0,.01,0v-.03h0Z"/>
                <path class="cls-19" d="M532.04,125.52s-.19,1.29-.37,2.35c-.05.3-.23.52-.49.63-.26.1-.55.05-.75-.14s-.14-.13-.19-.17c-.3-.25-.4-.66-.31-1.04.26-.98.72-2.75.72-2.75l1.39,1.12h0Z"/>
                <path class="cls-13" d="M531.96,126.09l-.15.76c-.54-.17-.82-.67-1.06-1.24l1.2.48h.01s0,0,0,0Z"/>
                <path class="cls-19" d="M529.8,124.31c-.14-.34.01-.72.34-.86.34-.14.79-.32,1.12-.48.32-.14.64.05.82.37.22.37.48,1.21.59,1.84.06.35-.06.76-.39.9-.34.14-1.5.23-1.86-.37-.27-.46-.44-.92-.64-1.41h.01Z"/>
                <path class="cls-14" d="M532.45,124.98l-.57.23s.17.4.41.26c.26-.14.14-.48.14-.48h.01s0-.01,0-.01Z"/>
                <path class="cls-19" d="M527.19,141.11l.54-6.3c0-1.62-.35-2.76-1.71-2.64l-.48.3c-.54.05-.79.31-.71.95l.37,6.29,1.98,1.42h0Z"/>
                <path class="cls-36" d="M542.03,130.19l.97-.8c.19-.15.44-.24.68-.23l1.03.05c.35,0,.59.39.46.72h0l-1.29.91c-.27.19-.66.3-1.04.26l-.64-.06-.17-.88h0v.03Z"/>
                <path class="cls-19" d="M525.24,138.03s-.65,2.31.58,2.97l6.17,2.19-.39-1.33-4.24-2.94-2.13-.89h0Z"/>
                <path class="cls-36" d="M531.59,141.86l1.13.55c.23.1.4.3.49.54l.39.95c.14.32-.1.71-.46.72h0l-1.38-.76c-.31-.17-.55-.48-.67-.84l-.22-.62.72-.52h0v-.04h0,0Z"/>
                <path class="cls-15" d="M531.73,122.85s-.37,1.96-1.01,2.22c-.34.14-.23.64-.46.89-.43.43-1.48-.8-1.48-1.41,0-.9.18-1.28,1.14-1.84.58-.33,1.25-.76,1.82.14h0Z"/>
                <path class="cls-19" d="M529.98,125.79c.19.23.49.27.66.1s.15-.48-.03-.71c-.19-.23-.49-.27-.66-.1s-.15.48.03.71Z"/>
                <path class="cls-16" d="M528.29,130.33l-.2,4.82-3.84-.17c.43-.95.66-4.87,1.99-6.59.34-.43.93-.8,1.41-.81.92-.03.63,2.75.63,2.75h.01s0,0,0,0Z"/>
                <path class="cls-16" d="M534.19,127.97s1.35.18,2.1,2.72c.75,2.54,1.39,3.09,1.39,3.09l-3.97,1.52-.62-5.87,1.08-1.46h.01s0-.01,0-.01Z"/>
                <path class="cls-5" d="M535.14,134.19c.05-.13-.42-2.33-.44-2.62"/>
                <line class="cls-5" x1="527.82" y1="134.38" x2="528.08" y2="131.98"/>
                <path class="cls-19" d="M532.37,127.54s.49,2.36-.79,2.46c-1.29.1-2.33-2.71-2.33-2.71,0,0,.86-.39.9-.39s2.22.62,2.22.62h-.01s.01,0,.01,0h0Z"/>
              </g>
              <g>
                <path class="cls-36" d="M585.04,120.12h-1.28c-.26,0-.5-.09-.68-.26l-.79-.67c-.27-.23-.23-.67.09-.84h0l1.61.09c.35.01.71.18.99.46l.48.46-.41.79h0v-.04s-.01,0-.01,0h0Z"/>
                <path class="cls-19" d="M583.96,119.6s2.72,3.7,4.54,5.91c1.89,2.3,3.84-1.31,2.33-2.38-.63-.44-5.52-3.9-5.52-3.9l-1.37.37h.01Z"/>
                <path class="cls-19" d="M597.82,115.98c-3.6-.18-6.54,3.16-9.19,7.47-.22.35,2.09,2.42,2.37,2.05,2.15-2.62,5.03-4.9,5.03-4.9l1.78-4.63h.01Z"/>
                <path class="cls-40" d="M595.95,115.74s-1.87,0-5.07,4.23l-1.44,1.64-3.52-2.22-.99,1.87,3.69,4.73s1.46,1.04,2.36.14,3.88-3.92,3.88-3.92c0,0,2.09-5.94,1.11-6.47h-.01Z"/>
                <path class="cls-18" d="M598.07,163.75s1.91-10.65,0-14.85l1.57-14.44-6.74.46,3.3,28.93,1.88-.1h-.01Z"/>
                <path class="cls-28" d="M596.12,163.33l-.99.97c-.27.24-1.71.71-1.71.71h0c-.15.31.13.46.35.49l4.23-.09s.98-.19.17-2.09c-.79.33-1.87.58-2.05,0h.01s0,.01,0,.01Z"/>
                <path class="cls-22" d="M592.43,137.16l2.76,24.48h4.92s-.4-2.13-.32-2.8.44-7.09-.96-10.04l.49-12.02-6.91.37h.01Z"/>
                <path class="cls-23" d="M598.89,148.82l.49-12.02-2.35.13-.35,8.81c-.07,1.64.1,3.29.46,4.9.71,3.2.42,7.66.37,8.23-.08.67.32,2.8.32,2.8h2.33s-.4-2.13-.32-2.8.44-7.09-.96-10.04h0Z"/>
                <path class="cls-22" d="M602.53,127.32l-9.19.71c-1.5.55-.91,9.17-.91,9.17l6.05.27c2.8-.06,6.12,2.14,6.47-2.54.4-5.35-2.43-7.61-2.43-7.61h.01Z"/>
                <path class="cls-36" d="M608.89,160.37l-.1.14c.18,1.16,0,1.62.17,2.78-.49.08-.63.84-1.13.91-.14,0-.06-.64-.19-.72l-1.4-3.07,2.68-.05h-.01Z"/>
                <path class="cls-33" d="M597.28,131.44c2.69,10.11,5.39,20.22,8.48,30.47,1.47-.23,4.23-.15,4.23-.15,0,0-.52-1.81-.57-2.06-1.08-6.18-.58-7.07-1.97-11.82-1.42-6.9-2.01-11.63-3.63-17.21-2.45.19-4.06.67-6.5.93h-.1s-.06.06.05-.14h0Z"/>
                <path class="cls-12" d="M607.55,163.15s-.19,1.21-.13,1.97c0,.13.1.27.24.39s.31.17.44.17c.31,0,.66-.03.88-.03s.24-.05.32-.14c.05-.05.09-.1.15-.17.25-.3.09-.59-.1-1.04-.19-.46-.37-.98-.37-.98-.82-.54-1.44-.14-1.44-.14h0v-.03h.01Z"/>
                <path class="cls-21" d="M604.61,133.97s-5.74-.38-7.25-.39l7.27-1.89s.08,1.6-.03,2.27h0Z"/>
                <path class="cls-26" d="M595.81,115.74l2.58-.71.99-.03,3.84,1.05c1.3.54,1.98,1.97,1.6,3.35l-.48,4.25c.35,3.76.33,7.04.34,10.13,0,.55-.4,1.04-.93,1.15-3.76.73-9.93,1.32-11.63-.82-.15-6.76,1.36-13.85,3.67-18.36h0v-.03h.01Z"/>
                <path class="cls-17" d="M597.85,135.59s7.07-7.08,6.37-14.13l.66,5.79s.54,3.83.73,7.04c0,0-2.72,1.53-7.76,1.3h0Z"/>
                <path class="cls-19" d="M607.18,133.67c-.31-.32-.93-5.05-.26-7.01.32-.93.32-1.73.75-1.97.9-.49,1.46,1.53,1.3,2.84-.1.79-.62,5.63-.62,5.63l-1.17.5h0Z"/>
                <line class="cls-8" x1="593.85" y1="121.34" x2="594.18" y2="119.36"/>
                <path class="cls-36" d="M607.07,133.27l.27,1.17c.05.23.18.44.39.58l.8.58c.27.19.67.06.76-.26h0l-.42-1.47c-.09-.32-.32-.62-.63-.83l-.52-.35-.63.55h-.01Z"/>
                <path class="cls-20" d="M596.94,112.91s-.88-1.01.31-2.04c1.17-1.03,1.29,1.47,1.24,1.5-.03.03-1.55.54-1.55.54h0Z"/>
                <path class="cls-20" d="M600.41,113.17s-.19,1.28-1.16,1.28c-.97,0-.88-2.77-.88-2.77l2.04,1.52h0v-.03h0,0Z"/>
                <path class="cls-19" d="M597.25,113.78s.31,1.37.55,2.48c.06.31.31.54.64.62.32.08.68,0,.93-.23.08-.08.17-.14.25-.22.35-.31.48-.75.34-1.15-.35-1.01-1-2.86-1-2.86l-1.7,1.38h0Z"/>
                <polygon class="cls-27" points="597.37 114.67 597.62 115.41 598.33 114.56 597.37 114.67"/>
                <path class="cls-19" d="M599.8,112.22c.09-.4-.17-.8-.55-.88-.41-.09-.95-.22-1.38-.31-.4-.09-.72.18-.88.57-.17.44-.31,1.42-.32,2.14,0,.41.22.84.62.92.41.09,1.77-.03,2.05-.76.22-.55.32-1.11.46-1.69h0Z"/>
                <path class="cls-20" d="M600.62,113.43s.31-1.55-.27-2.15c-.76-.84-1.84-1.33-3.09-.39,0,0-.68.37,1.42.76.27.05-.19,1.31.14,1.46.46.18,1.04.31,1.79.34h.01Z"/>
                <path class="cls-19" d="M599.91,113.89c-.18.3-.5.4-.73.24s-.27-.49-.09-.79.5-.4.73-.24.27.49.09.79h0Z"/>
                <path class="cls-14" d="M597.03,113.4l.58.17s-.13.4-.4.3c-.27-.13-.18-.46-.18-.46h0Z"/>
                <path class="cls-26" d="M604.74,117.61s3.57,5.45,4.08,6.41c1.16,2.15.9,1.55.46,5.84l-.31,2.35-2.42-.31-.46-5.85-3.29-5.21s-.23-.97,1.95-3.21h-.01Z"/>
                <line class="cls-8" x1="602.42" y1="119.68" x2="603.36" y2="121.9"/>
              </g>
              <circle class="cls-43" cx="548.74" cy="112.77" r="6.41"/>
              <polyline class="cls-6" points="547.15 113.24 548.47 115.13 551.54 110.24"/>
            </g>
          </g>
        </g>
      </g>
    </g>
  </g>
</svg>