<?xml version="1.0" encoding="UTF-8"?>
<svg id="_x31_4_x5F_法律" xmlns="http://www.w3.org/2000/svg" viewBox="0 0 1130 268">
  <defs>
    <style>
      .cls-1 {
        fill: #334f73;
      }

      .cls-2 {
        fill: #3cc583;
      }

      .cls-2, .cls-3, .cls-4, .cls-5, .cls-6, .cls-7, .cls-8, .cls-9, .cls-10 {
        fill-rule: evenodd;
      }

      .cls-11 {
        fill: #802720;
      }

      .cls-3 {
        fill: #873b24;
      }

      .cls-12, .cls-4 {
        fill: #fff;
      }

      .cls-13 {
        fill: #6e80eb;
      }

      .cls-5 {
        fill: #5c3420;
      }

      .cls-14 {
        fill: #ad4c2f;
      }

      .cls-15 {
        fill: #6272d1;
      }

      .cls-16 {
        fill: #fcf0f0;
        stroke: #fd6a65;
      }

      .cls-16, .cls-17, .cls-18 {
        stroke-linejoin: round;
        stroke-width: 2px;
      }

      .cls-16, .cls-18 {
        stroke-linecap: round;
      }

      .cls-19 {
        fill: #c7cce8;
      }

      .cls-20 {
        isolation: isolate;
      }

      .cls-6 {
        fill: #e0874e;
      }

      .cls-21 {
        fill: #f9a56e;
      }

      .cls-7, .cls-22 {
        fill: #c95836;
      }

      .cls-8 {
        fill: #663a24;
      }

      .cls-23 {
        fill: #a3472c;
      }

      .cls-24 {
        fill: #0d367f;
      }

      .cls-9 {
        fill: #e0cb15;
      }

      .cls-25 {
        fill: #eff1f7;
      }

      .cls-17, .cls-18 {
        fill: none;
        stroke: #484848;
      }

      .cls-26 {
        fill: #484848;
      }

      .cls-27 {
        fill: #dee2f5;
      }

      .cls-28 {
        fill: #5664b8;
      }

      .cls-10 {
        fill: #4a2a1a;
      }

      .cls-29 {
        fill: #4453b3;
      }

      .cls-30 {
        fill: #fd6a65;
      }

      .cls-18 {
        stroke-dasharray: 5 7;
      }
    </style>
  </defs>
  <g id="g-root-cu_1haqbtcq5bl6s-stroke">
    <g id="cu_1haqbtcq5bl6s-stroke">
      <path class="cls-17" d="M490,120h-3.1c-11.54,0-20.9-9.36-20.9-20.9v-3.2c0-11.54-9.36-20.9-20.9-20.9h-3.1"/>
    </g>
  </g>
  <g id="g-root-cu_1lqjtxsq5bkeh-stroke">
    <g id="cu_1lqjtxsq5bkeh-stroke">
      <path class="cls-17" d="M641,122h3.1c3.96-.02,8.25-1.3,12.4-3.7,2.49-1.4,5.56-4.93,8.5-9.8,2.94-4.87,6.01-8.4,8.5-9.8,4.15-2.4,8.44-3.68,12.4-3.7h3.1"/>
    </g>
  </g>
  <g id="g-root-cu_1haqbtcq5bl6v-stroke">
    <g id="cu_1haqbtcq5bl6v-stroke">
      <path class="cls-18" d="M719,122v13.6c0,5.74,6.98,10.4,15.6,10.4h2.4"/>
    </g>
  </g>
  <g>
    <g id="g-root-cu_13zwaj4q5bjm5-stroke">
      <g id="cu_13zwaj4q5bjm5-stroke">
        <path class="cls-18" d="M412.18,104.79v63.21h-18"/>
      </g>
    </g>
    <g id="g-root-cu_1cvjas0q5bite-stroke">
      <g id="cu_1cvjas0q5bite-stroke">
        <path class="cls-18" d="M412.18,104.79v21h-18"/>
      </g>
    </g>
    <g id="g-root-cu_zk2seoq5bkef-stroke">
      <g id="cu_zk2seoq5bkef-stroke">
        <path class="cls-18" d="M412.18,104.79v90c0,6.63-5.37,12-12,12h-6"/>
      </g>
    </g>
  </g>
  <g id="c119">
    <g id="tx__92s1g0q54ikt-fill">
      <g class="cls-20">
        <g class="cls-20">
          <path class="cls-26" d="M269,212.39c.77-.17,1.67-.37,2.7-.6s2.12-.48,3.27-.76c1.15-.28,2.31-.55,3.47-.82l.1.9c-1.12.28-2.24.55-3.36.82-1.12.27-2.19.52-3.22.77-1.03.25-1.95.47-2.76.67l-.2-.98ZM269.28,198.65h9.2v.94h-9.2v-.94ZM270.28,203.01h.9v9.5h-.9v-9.5ZM273.66,199.17h.94v12.66h-.94v-12.66ZM274.12,204.51h3.48v.94h-3.48v-.94ZM284.94,201.23l.96.12c-.36,2.33-.87,4.38-1.52,6.13-.65,1.75-1.52,3.27-2.61,4.55-1.09,1.28-2.46,2.37-4.13,3.28-.04-.08-.09-.17-.16-.27-.07-.1-.14-.2-.22-.31-.08-.11-.16-.19-.24-.24,1.63-.83,2.96-1.85,4.01-3.08s1.88-2.68,2.49-4.36c.61-1.68,1.09-3.62,1.42-5.82ZM280.58,197.11l.98.18c-.25,1.21-.56,2.39-.93,3.54-.37,1.15-.77,2.22-1.22,3.21-.45.99-.94,1.88-1.47,2.65-.07-.07-.15-.14-.25-.22s-.2-.16-.31-.23c-.11-.07-.2-.13-.28-.17.56-.73,1.06-1.57,1.49-2.52.43-.95.82-1.97,1.15-3.08.33-1.11.61-2.23.84-3.36ZM280.1,201.89c.35,1.93.83,3.74,1.46,5.41.63,1.67,1.42,3.13,2.39,4.37s2.14,2.18,3.51,2.82c-.07.07-.15.15-.24.24-.09.09-.18.19-.26.29-.08.1-.15.19-.2.27-1.39-.72-2.57-1.73-3.55-3.02-.98-1.29-1.79-2.81-2.44-4.54s-1.15-3.63-1.51-5.68l.84-.16ZM279.8,200.87h7.44v.92h-7.44v-.92Z"/>
          <path class="cls-26" d="M289.1,203.51l.54-.72c.41.2.85.43,1.31.68.46.25.9.5,1.32.75.42.25.76.47,1.03.67l-.54.78c-.27-.19-.61-.41-1.03-.66-.42-.25-.86-.52-1.32-.79-.46-.27-.9-.51-1.31-.71ZM289.64,214.33c.37-.52.78-1.14,1.23-1.87.45-.73.9-1.5,1.35-2.31.45-.81.87-1.59,1.24-2.34l.7.62c-.35.71-.73,1.45-1.16,2.24-.43.79-.86,1.55-1.3,2.3-.44.75-.85,1.42-1.24,2.02l-.82-.66ZM290.34,198.03l.54-.68c.44.2.9.43,1.38.68.48.25.94.51,1.37.76.43.25.8.48,1.09.68l-.56.82c-.28-.23-.64-.47-1.07-.74-.43-.27-.89-.53-1.37-.8-.48-.27-.94-.51-1.38-.72ZM294.74,205.57c0-.07-.02-.16-.06-.28s-.09-.24-.14-.37c-.05-.13-.1-.23-.14-.31.19-.04.4-.18.63-.42.23-.24.48-.55.75-.94.16-.17.39-.47.69-.88s.63-.9,1-1.47c.37-.57.74-1.18,1.12-1.84.38-.66.72-1.32,1.03-1.99l1.02.34c-.52.93-1.06,1.86-1.62,2.78-.56.92-1.13,1.79-1.72,2.6-.59.81-1.17,1.55-1.76,2.2v.04c-.16.07-.29.13-.4.18-.11.05-.2.11-.28.18-.08.07-.12.13-.12.18ZM294.74,205.57v-.78l.74-.4,9.9-.58c0,.13.02.28.06.45.04.17.07.3.1.41-1.88.13-3.45.24-4.7.33-1.25.09-2.26.16-3.02.21-.76.05-1.35.1-1.76.14s-.71.08-.89.11c-.18.03-.32.07-.43.11ZM295.62,207.41h10v7.84h-.98v-6.9h-8.08v6.96h-.94v-7.9ZM296.14,213.47h9.08v.92h-9.08v-.92ZM301.8,200.29l.82-.44c.55.59,1.1,1.22,1.66,1.9.56.68,1.08,1.35,1.55,2,.47.65.84,1.24,1.11,1.76l-.84.52c-.28-.53-.65-1.13-1.12-1.8-.47-.67-.98-1.34-1.53-2.03-.55-.69-1.1-1.32-1.65-1.91Z"/>
          <path class="cls-26" d="M309.1,203.47l.54-.72c.43.19.87.4,1.34.64.47.24.91.48,1.32.73.41.25.75.48,1,.71l-.54.82c-.27-.23-.6-.47-1.01-.73-.41-.26-.84-.52-1.3-.78-.46-.26-.91-.48-1.35-.67ZM309.76,214.33c.36-.52.76-1.14,1.21-1.87.45-.73.9-1.5,1.35-2.31s.87-1.59,1.26-2.34l.68.62c-.35.71-.73,1.45-1.16,2.24-.43.79-.86,1.55-1.29,2.3-.43.75-.85,1.42-1.25,2.02l-.8-.66ZM310.1,198.01l.54-.7c.45.19.92.4,1.41.64.49.24.94.49,1.37.75.43.26.78.5,1.06.73l-.56.84c-.27-.24-.61-.5-1.04-.77-.43-.27-.88-.54-1.36-.8-.48-.26-.95-.49-1.42-.69ZM314.94,205.83h11.92v.92h-11.92v-.92ZM315.74,214.45c-.01-.07-.04-.16-.08-.29-.04-.13-.08-.25-.13-.37s-.09-.23-.13-.32c.17-.03.37-.16.58-.4.21-.24.45-.55.7-.92.15-.17.36-.46.63-.87.27-.41.58-.89.92-1.45s.68-1.16,1.03-1.8c.35-.64.66-1.29.94-1.94l1,.38c-.47.91-.96,1.81-1.47,2.7-.51.89-1.05,1.74-1.6,2.53-.55.79-1.1,1.52-1.65,2.17v.02c-.15.07-.27.13-.37.19s-.19.12-.26.19c-.07.07-.11.13-.11.18ZM315.74,214.45l-.02-.76.66-.4,8.56-1c0,.13.01.28.04.44.03.16.05.29.06.4-1.61.2-2.96.37-4.03.5-1.07.13-1.94.25-2.61.34-.67.09-1.17.17-1.52.22-.35.05-.6.1-.77.14s-.29.08-.37.12ZM315.88,200.83h10.12v.92h-10.12v-.92ZM320.36,197.09h.96v9.32h-.96v-9.32ZM322.34,209.47l.76-.36c.49.59.98,1.22,1.46,1.91.48.69.91,1.36,1.3,2.03.39.67.69,1.26.9,1.78l-.82.42c-.21-.51-.51-1.1-.88-1.77-.37-.67-.8-1.36-1.28-2.07-.48-.71-.96-1.35-1.44-1.94Z"/>
          <path class="cls-26" d="M333.74,201.55l.88.32c-.43.77-.92,1.53-1.48,2.28-.56.75-1.15,1.45-1.77,2.11s-1.24,1.25-1.87,1.77c-.03-.07-.08-.16-.15-.27s-.15-.22-.24-.33c-.09-.11-.16-.19-.23-.26.61-.45,1.22-.98,1.82-1.59.6-.61,1.16-1.25,1.69-1.93.53-.68.98-1.38,1.35-2.1ZM333.54,197.19l.92.32c-.36.55-.8,1.11-1.31,1.68-.51.57-1.05,1.12-1.62,1.63-.57.51-1.14.96-1.71,1.35-.04-.08-.09-.17-.16-.26-.07-.09-.14-.19-.21-.28-.07-.09-.14-.17-.19-.22.53-.37,1.07-.79,1.61-1.26s1.04-.96,1.51-1.47c.47-.51.85-1.01,1.16-1.49ZM332.08,204.53l.9-.92.02.04v11.58h-.92v-10.7ZM334.54,211.09h12.54v.88h-12.54v-.88ZM334.82,202.31h12.44v.9h-12.44v-.9ZM335.48,208.13h10.52v.86h-10.52v-.86ZM335.84,199.35h9.86v6.84h-9.96v-.86h8.98v-5.1h-8.88v-.88ZM340.2,197.13h.96v18.14h-.96v-18.14Z"/>
          <path class="cls-26" d="M349.34,210.31h17.76v.88h-17.76v-.88ZM349.82,204.25h16.8v3.38h-.96v-2.56h-14.9v2.56h-.94v-3.38ZM354.86,197.33l.5.64c-.56.21-1.2.39-1.93.53-.73.14-1.38.25-1.97.33l-.38-.6c.37-.07.79-.15,1.26-.26.47-.11.92-.22,1.37-.34.45-.12.83-.22,1.15-.3ZM351.08,198.23l.96.28.4,6.22h-.92l-.44-6.5ZM351.66,200.01h3.58v.76h-3.58v-.76ZM351.78,202.11h3.58v.76h-3.58v-.76ZM352.94,206.73h9.88v.8h-9.88v-.8ZM357.88,209.25h.96v4.8c0,.29-.05.52-.14.67-.09.15-.27.27-.54.35-.25.08-.63.12-1.13.13s-1.16,0-1.99,0c-.03-.12-.08-.26-.15-.41s-.14-.3-.21-.43c.47.01.89.02,1.27.03.38,0,.7,0,.97,0,.27,0,.45-.01.56-.01.16,0,.27-.03.32-.08s.08-.15.08-.28v-4.78ZM359.34,200.69l.76.24c-.48.63-1.08,1.23-1.79,1.8-.71.57-1.43,1.05-2.15,1.44-.05-.08-.15-.18-.28-.3-.13-.12-.24-.21-.32-.28.71-.35,1.41-.77,2.1-1.28.69-.51,1.25-1.05,1.68-1.62ZM359.28,197.33l.76.2c-.45.61-1.02,1.2-1.71,1.75-.69.55-1.36,1.02-2.03,1.39-.07-.07-.17-.16-.3-.27-.13-.11-.25-.2-.34-.27.69-.35,1.37-.76,2.02-1.25.65-.49,1.19-1,1.6-1.55ZM355.98,201.45l.54-.48c.47.21.95.46,1.45.74s.97.57,1.41.87c.44.3.8.59,1.08.87l-.58.58c-.27-.28-.62-.57-1.05-.88-.43-.31-.9-.61-1.39-.91s-.98-.56-1.46-.79ZM356.02,198.15l.54-.52c.45.2.92.43,1.41.69.49.26.95.53,1.39.8.44.27.79.54,1.06.79l-.54.58c-.28-.25-.63-.52-1.05-.81-.42-.29-.88-.56-1.37-.83-.49-.27-.97-.5-1.44-.7ZM362.58,206.73h.24l.22-.06.6.5c-.45.36-.97.7-1.56,1.03s-1.19.63-1.82.9c-.63.27-1.24.51-1.84.71-.07-.09-.15-.19-.25-.3-.1-.11-.2-.19-.29-.26.57-.17,1.15-.39,1.74-.64.59-.25,1.14-.53,1.67-.83.53-.3.96-.58,1.29-.85v-.2ZM360.98,202.11h3.64v.76h-3.64v-.76ZM361,197.91h3.94v.78h-3.94v-.78ZM361.1,200.01h3.72v.76h-3.72v-.76ZM364.54,197.91h.92c-.04.73-.09,1.52-.14,2.36-.05.84-.11,1.66-.18,2.45-.07.79-.13,1.47-.2,2.03h-.94c.08-.57.16-1.26.23-2.06.07-.8.14-1.62.19-2.46.05-.84.09-1.61.12-2.32Z"/>
          <path class="cls-26" d="M374.42,209.77l.96.34c-.4.53-.85,1.07-1.36,1.6s-1.03,1.03-1.57,1.49-1.07.88-1.59,1.25c-.07-.05-.15-.12-.25-.2s-.2-.16-.31-.23c-.11-.07-.21-.14-.3-.19.81-.52,1.62-1.14,2.41-1.86.79-.72,1.46-1.45,2.01-2.2ZM382.5,197.17l.7.78c-.77.37-1.66.74-2.67,1.09s-2.08.69-3.21,1c-1.13.31-2.29.61-3.46.88-1.17.27-2.33.54-3.46.79-.03-.13-.07-.27-.14-.42-.07-.15-.13-.27-.18-.38,1.12-.25,2.26-.52,3.43-.81,1.17-.29,2.31-.59,3.42-.9s2.15-.64,3.11-.98,1.78-.69,2.46-1.05ZM370.68,209.25c-.01-.09-.04-.2-.07-.31s-.07-.24-.11-.37c-.04-.13-.08-.24-.12-.32.28-.03.65-.12,1.12-.29.47-.17,1-.38,1.6-.65.35-.16.85-.4,1.51-.72.66-.32,1.42-.71,2.27-1.18.85-.47,1.75-.98,2.68-1.54.93-.56,1.83-1.14,2.68-1.74l.78.62c-1.93,1.31-3.87,2.46-5.8,3.45-1.93.99-3.85,1.85-5.74,2.57v.04c-.16.04-.29.08-.4.13s-.2.1-.28.15c-.08.05-.12.11-.12.16ZM370.68,209.25l-.02-.76.8-.42,13.5-.92c-.01.13-.02.29-.02.46v.42c-2.09.15-3.89.27-5.39.38s-2.76.2-3.77.27c-1.01.07-1.83.14-2.46.19-.63.05-1.11.1-1.45.14s-.6.08-.77.11c-.17.03-.31.08-.42.13ZM371.9,205.15c-.01-.08-.04-.18-.07-.31-.03-.13-.07-.25-.11-.38s-.08-.23-.12-.31c.21-.03.45-.09.71-.18.26-.09.55-.23.87-.4.23-.12.6-.34,1.13-.66.53-.32,1.11-.7,1.76-1.15.65-.45,1.26-.92,1.83-1.41l.9.54c-1.01.79-2.04,1.5-3.07,2.13-1.03.63-2.05,1.17-3.05,1.61v.02c-.16.05-.29.11-.4.16-.11.05-.2.11-.27.17-.07.06-.11.12-.11.17ZM371.9,205.15l-.02-.76.7-.32,7.5-.42c-.03.13-.05.28-.06.45-.01.17-.03.3-.04.39-1.39.08-2.54.15-3.47.21-.93.06-1.68.11-2.25.15-.57.04-1.02.08-1.33.11-.31.03-.54.06-.69.09-.15.03-.26.06-.34.1ZM377.94,207.91h.98v5.98c0,.32-.05.56-.14.73-.09.17-.27.3-.54.39-.27.08-.64.13-1.12.15-.48.02-1.09.03-1.82.03-.03-.15-.08-.31-.15-.49s-.16-.34-.25-.49c.45.01.86.02,1.22.03.36,0,.66,0,.91,0s.42,0,.51-.02c.16-.01.27-.04.32-.09.05-.05.08-.13.08-.25v-5.98ZM381.14,210.13l.72-.5c.56.43,1.14.89,1.73,1.38.59.49,1.15.98,1.67,1.46.52.48.95.91,1.3,1.28l-.78.58c-.33-.37-.76-.81-1.27-1.3-.51-.49-1.06-1-1.65-1.51-.59-.51-1.16-.98-1.72-1.39ZM381.72,204.93l.8-.4c.52.45,1.05.94,1.59,1.47.54.53,1.04,1.04,1.49,1.55.45.51.82.95,1.1,1.34l-.82.5c-.28-.4-.65-.86-1.11-1.38-.46-.52-.96-1.05-1.49-1.59s-1.05-1.04-1.56-1.49Z"/>
        </g>
      </g>
    </g>
  </g>
  <g id="c118">
    <g id="tx__hyf1owq54hs4-fill">
      <g class="cls-20">
        <g class="cls-20">
          <path class="cls-26" d="M271.42,170.85l.94.24c-.29.79-.67,1.55-1.12,2.3-.45.75-.93,1.38-1.44,1.9-.05-.05-.13-.12-.23-.2-.1-.08-.2-.16-.3-.23-.1-.07-.19-.14-.27-.19.51-.48.97-1.06,1.4-1.73.43-.67.77-1.37,1.02-2.09ZM269.96,157.87h6.78v12.38h-6.78v-12.38ZM270.9,158.73v2.98h4.88v-2.98h-4.88ZM270.9,162.53v3h4.88v-3h-4.88ZM270.9,166.35v3.04h4.88v-3.04h-4.88ZM274.32,171.25l.78-.4c.43.49.85,1.04,1.26,1.64.41.6.72,1.12.92,1.56l-.84.46c-.21-.44-.52-.97-.92-1.59s-.8-1.18-1.2-1.67ZM283.36,162.25l.78.24c-.45,1.29-1.02,2.55-1.69,3.77-.67,1.22-1.41,2.33-2.21,3.34-.8,1.01-1.62,1.83-2.46,2.47-.08-.11-.19-.23-.32-.37-.13-.14-.25-.26-.36-.35.63-.43,1.24-.97,1.85-1.63s1.18-1.4,1.73-2.21c.55-.81,1.05-1.67,1.51-2.56s.85-1.79,1.17-2.7ZM277.44,161.89h9.88v.92h-9.88v-.92ZM283.54,157.17h.96v16.68c0,.39-.06.67-.17.85s-.3.31-.55.39c-.24.08-.59.13-1.06.16-.47.03-1.09.04-1.88.04-.03-.13-.07-.29-.14-.48-.07-.19-.14-.35-.22-.48.63.01,1.18.02,1.65.02s.79,0,.95-.02c.17,0,.29-.03.36-.1.07-.07.1-.19.1-.36v-16.7Z"/>
          <path class="cls-26" d="M290.04,169.77l.9.16c-.13.85-.3,1.72-.5,2.61s-.41,1.64-.62,2.27c-.07-.04-.15-.08-.25-.11-.1-.03-.2-.07-.31-.12-.11-.05-.2-.08-.28-.09.24-.64.45-1.38.62-2.22.17-.84.32-1.67.44-2.5ZM289.36,164.31c-.01-.07-.04-.16-.08-.28l-.12-.36c-.04-.12-.08-.22-.12-.3.16-.03.33-.14.51-.35.18-.21.38-.47.59-.79.15-.19.39-.55.72-1.08s.69-1.16,1.07-1.88c.38-.72.71-1.45.99-2.18l.92.38c-.53,1.15-1.13,2.27-1.78,3.38-.65,1.11-1.32,2.07-2,2.9-.13.07-.25.13-.35.19-.1.06-.18.12-.25.19-.07.07-.1.13-.1.18ZM289.48,168.75c-.01-.07-.04-.16-.08-.28s-.08-.24-.12-.36-.08-.23-.12-.32c.19-.03.4-.16.63-.41.23-.25.5-.55.79-.91.15-.19.37-.49.68-.91.31-.42.66-.91,1.05-1.48.39-.57.79-1.18,1.19-1.84.4-.66.77-1.32,1.1-1.99l.88.46c-.52.91-1.07,1.81-1.65,2.72-.58.91-1.17,1.76-1.78,2.57-.61.81-1.22,1.54-1.85,2.19v.02c-.13.07-.25.13-.35.18-.1.05-.19.11-.26.17-.07.06-.11.12-.11.19ZM289.36,164.31l-.02-.78.58-.32,3.58-.32c-.03.12-.05.26-.06.42-.01.16-.01.29,0,.38-.83.11-1.49.19-2,.25-.51.06-.9.11-1.17.16-.27.05-.48.09-.61.12-.13.03-.23.06-.3.09ZM289.48,168.75l-.02-.78.58-.34,4.98-.68c-.03.12-.04.26-.04.42s0,.29.02.4c-1.16.16-2.08.3-2.77.41-.69.11-1.22.2-1.59.27-.37.07-.64.12-.79.17s-.28.09-.37.13ZM292,169.87l.82-.14c.12.69.23,1.44.34,2.23.11.79.17,1.48.2,2.07l-.82.16c-.03-.59-.09-1.28-.19-2.09-.1-.81-.22-1.55-.35-2.23ZM293.78,164.79l.8-.2c.2.44.39.92.57,1.43.18.51.34,1.01.49,1.48.15.47.25.88.32,1.23l-.86.28c-.07-.36-.17-.78-.31-1.27-.14-.49-.3-.99-.47-1.5s-.35-1-.54-1.45ZM293.82,169.49l.76-.22c.23.56.45,1.18.67,1.85.22.67.38,1.25.47,1.73l-.82.26c-.08-.49-.23-1.08-.44-1.75-.21-.67-.43-1.3-.64-1.87ZM295.62,173.89h11.5v.94h-11.5v-.94ZM298.4,159.95l.9.26c-.25.51-.56,1.07-.93,1.69-.37.62-.72,1.2-1.07,1.73.45.6.89,1.24,1.32,1.92.43.68.75,1.25.96,1.72l-.86.4c-.21-.52-.54-1.15-.99-1.88-.45-.73-.93-1.45-1.45-2.14.27-.41.54-.84.81-1.29.27-.45.52-.88.75-1.31.23-.43.41-.79.56-1.1ZM296.44,158.19h10.52v.9h-10.52v-.9ZM296.84,168.55h9.48v.9h-9.48v-.9ZM301.96,159.95l.9.28c-.27.49-.59,1.05-.98,1.67-.39.62-.75,1.2-1.1,1.73.32.4.63.82.93,1.26.3.44.58.87.84,1.28.26.41.46.77.61,1.08l-.84.4c-.24-.52-.59-1.15-1.06-1.88-.47-.73-.98-1.44-1.54-2.12.29-.41.58-.84.86-1.29.28-.45.54-.88.79-1.31.25-.43.44-.79.59-1.1ZM301.1,168.97h.94v5.5h-.94v-5.5ZM305.44,159.95l.92.28c-.29.49-.63,1.05-1.02,1.67-.39.62-.76,1.2-1.12,1.73.33.39.66.8.98,1.25.32.45.61.87.88,1.28.27.41.48.77.64,1.09l-.82.42c-.25-.52-.63-1.15-1.12-1.88s-1.03-1.45-1.6-2.14c.29-.41.58-.84.86-1.29.28-.45.54-.88.79-1.31.25-.43.45-.79.61-1.1Z"/>
          <path class="cls-26" d="M309.1,163.47l.54-.72c.43.19.87.4,1.34.64.47.24.91.48,1.32.73.41.25.75.48,1,.71l-.54.82c-.27-.23-.6-.47-1.01-.73-.41-.26-.84-.52-1.3-.78-.46-.26-.91-.48-1.35-.67ZM309.76,174.33c.36-.52.76-1.14,1.21-1.87.45-.73.9-1.5,1.35-2.31s.87-1.59,1.26-2.34l.68.62c-.35.71-.73,1.45-1.16,2.24-.43.79-.86,1.55-1.29,2.3-.43.75-.85,1.42-1.25,2.02l-.8-.66ZM310.1,158.01l.54-.7c.45.19.92.4,1.41.64.49.24.94.49,1.37.75.43.26.78.5,1.06.73l-.56.84c-.27-.24-.61-.5-1.04-.77-.43-.27-.88-.54-1.36-.8-.48-.26-.95-.49-1.42-.69ZM314.94,165.83h11.92v.92h-11.92v-.92ZM315.74,174.45c-.01-.07-.04-.16-.08-.29-.04-.13-.08-.25-.13-.37s-.09-.23-.13-.32c.17-.03.37-.16.58-.4.21-.24.45-.55.7-.92.15-.17.36-.46.63-.87.27-.41.58-.89.92-1.45s.68-1.16,1.03-1.8c.35-.64.66-1.29.94-1.94l1,.38c-.47.91-.96,1.81-1.47,2.7-.51.89-1.05,1.74-1.6,2.53-.55.79-1.1,1.52-1.65,2.17v.02c-.15.07-.27.13-.37.19s-.19.12-.26.19c-.07.07-.11.13-.11.18ZM315.74,174.45l-.02-.76.66-.4,8.56-1c0,.13.01.28.04.44.03.16.05.29.06.4-1.61.2-2.96.37-4.03.5-1.07.13-1.94.25-2.61.34-.67.09-1.17.17-1.52.22-.35.05-.6.1-.77.14s-.29.08-.37.12ZM315.88,160.83h10.12v.92h-10.12v-.92ZM320.36,157.09h.96v9.32h-.96v-9.32ZM322.34,169.47l.76-.36c.49.59.98,1.22,1.46,1.91.48.69.91,1.36,1.3,2.03.39.67.69,1.26.9,1.78l-.82.42c-.21-.51-.51-1.1-.88-1.77-.37-.67-.8-1.36-1.28-2.07-.48-.71-.96-1.35-1.44-1.94Z"/>
          <path class="cls-26" d="M333.74,161.55l.88.32c-.43.77-.92,1.53-1.48,2.28-.56.75-1.15,1.45-1.77,2.11s-1.24,1.25-1.87,1.77c-.03-.07-.08-.16-.15-.27s-.15-.22-.24-.33c-.09-.11-.16-.19-.23-.26.61-.45,1.22-.98,1.82-1.59.6-.61,1.16-1.25,1.69-1.93.53-.68.98-1.38,1.35-2.1ZM333.54,157.19l.92.32c-.36.55-.8,1.11-1.31,1.68-.51.57-1.05,1.12-1.62,1.63-.57.51-1.14.96-1.71,1.35-.04-.08-.09-.17-.16-.26-.07-.09-.14-.19-.21-.28-.07-.09-.14-.17-.19-.22.53-.37,1.07-.79,1.61-1.26s1.04-.96,1.51-1.47c.47-.51.85-1.01,1.16-1.49ZM332.08,164.53l.9-.92.02.04v11.58h-.92v-10.7ZM334.54,171.09h12.54v.88h-12.54v-.88ZM334.82,162.31h12.44v.9h-12.44v-.9ZM335.48,168.13h10.52v.86h-10.52v-.86ZM335.84,159.35h9.86v6.84h-9.96v-.86h8.98v-5.1h-8.88v-.88ZM340.2,157.13h.96v18.14h-.96v-18.14Z"/>
          <path class="cls-26" d="M349.34,170.31h17.76v.88h-17.76v-.88ZM349.82,164.25h16.8v3.38h-.96v-2.56h-14.9v2.56h-.94v-3.38ZM354.86,157.33l.5.64c-.56.21-1.2.39-1.93.53-.73.14-1.38.25-1.97.33l-.38-.6c.37-.07.79-.15,1.26-.26.47-.11.92-.22,1.37-.34.45-.12.83-.22,1.15-.3ZM351.08,158.23l.96.28.4,6.22h-.92l-.44-6.5ZM351.66,160.01h3.58v.76h-3.58v-.76ZM351.78,162.11h3.58v.76h-3.58v-.76ZM352.94,166.73h9.88v.8h-9.88v-.8ZM357.88,169.25h.96v4.8c0,.29-.05.52-.14.67-.09.15-.27.27-.54.35-.25.08-.63.12-1.13.13s-1.16,0-1.99,0c-.03-.12-.08-.26-.15-.41s-.14-.3-.21-.43c.47.01.89.02,1.27.03.38,0,.7,0,.97,0,.27,0,.45-.01.56-.01.16,0,.27-.03.32-.08s.08-.15.08-.28v-4.78ZM359.34,160.69l.76.24c-.48.63-1.08,1.23-1.79,1.8-.71.57-1.43,1.05-2.15,1.44-.05-.08-.15-.18-.28-.3-.13-.12-.24-.21-.32-.28.71-.35,1.41-.77,2.1-1.28.69-.51,1.25-1.05,1.68-1.62ZM359.28,157.33l.76.2c-.45.61-1.02,1.2-1.71,1.75-.69.55-1.36,1.02-2.03,1.39-.07-.07-.17-.16-.3-.27-.13-.11-.25-.2-.34-.27.69-.35,1.37-.76,2.02-1.25.65-.49,1.19-1,1.6-1.55ZM355.98,161.45l.54-.48c.47.21.95.46,1.45.74s.97.57,1.41.87c.44.3.8.59,1.08.87l-.58.58c-.27-.28-.62-.57-1.05-.88-.43-.31-.9-.61-1.39-.91s-.98-.56-1.46-.79ZM356.02,158.15l.54-.52c.45.2.92.43,1.41.69.49.26.95.53,1.39.8.44.27.79.54,1.06.79l-.54.58c-.28-.25-.63-.52-1.05-.81-.42-.29-.88-.56-1.37-.83-.49-.27-.97-.5-1.44-.7ZM362.58,166.73h.24l.22-.06.6.5c-.45.36-.97.7-1.56,1.03s-1.19.63-1.82.9c-.63.27-1.24.51-1.84.71-.07-.09-.15-.19-.25-.3-.1-.11-.2-.19-.29-.26.57-.17,1.15-.39,1.74-.64.59-.25,1.14-.53,1.67-.83.53-.3.96-.58,1.29-.85v-.2ZM360.98,162.11h3.64v.76h-3.64v-.76ZM361,157.91h3.94v.78h-3.94v-.78ZM361.1,160.01h3.72v.76h-3.72v-.76ZM364.54,157.91h.92c-.04.73-.09,1.52-.14,2.36-.05.84-.11,1.66-.18,2.45-.07.79-.13,1.47-.2,2.03h-.94c.08-.57.16-1.26.23-2.06.07-.8.14-1.62.19-2.46.05-.84.09-1.61.12-2.32Z"/>
          <path class="cls-26" d="M374.42,169.77l.96.34c-.4.53-.85,1.07-1.36,1.6s-1.03,1.03-1.57,1.49-1.07.88-1.59,1.25c-.07-.05-.15-.12-.25-.2s-.2-.16-.31-.23c-.11-.07-.21-.14-.3-.19.81-.52,1.62-1.14,2.41-1.86.79-.72,1.46-1.45,2.01-2.2ZM382.5,157.17l.7.78c-.77.37-1.66.74-2.67,1.09s-2.08.69-3.21,1c-1.13.31-2.29.61-3.46.88-1.17.27-2.33.54-3.46.79-.03-.13-.07-.27-.14-.42-.07-.15-.13-.27-.18-.38,1.12-.25,2.26-.52,3.43-.81,1.17-.29,2.31-.59,3.42-.9s2.15-.64,3.11-.98,1.78-.69,2.46-1.05ZM370.68,169.25c-.01-.09-.04-.2-.07-.31s-.07-.24-.11-.37c-.04-.13-.08-.24-.12-.32.28-.03.65-.12,1.12-.29.47-.17,1-.38,1.6-.65.35-.16.85-.4,1.51-.72.66-.32,1.42-.71,2.27-1.18.85-.47,1.75-.98,2.68-1.54.93-.56,1.83-1.14,2.68-1.74l.78.62c-1.93,1.31-3.87,2.46-5.8,3.45-1.93.99-3.85,1.85-5.74,2.57v.04c-.16.04-.29.08-.4.13s-.2.1-.28.15c-.08.05-.12.11-.12.16ZM370.68,169.25l-.02-.76.8-.42,13.5-.92c-.01.13-.02.29-.02.46v.42c-2.09.15-3.89.27-5.39.38s-2.76.2-3.77.27c-1.01.07-1.83.14-2.46.19-.63.05-1.11.1-1.45.14s-.6.08-.77.11c-.17.03-.31.08-.42.13ZM371.9,165.15c-.01-.08-.04-.18-.07-.31-.03-.13-.07-.25-.11-.38s-.08-.23-.12-.31c.21-.03.45-.09.71-.18.26-.09.55-.23.87-.4.23-.12.6-.34,1.13-.66.53-.32,1.11-.7,1.76-1.15.65-.45,1.26-.92,1.83-1.41l.9.54c-1.01.79-2.04,1.5-3.07,2.13-1.03.63-2.05,1.17-3.05,1.61v.02c-.16.05-.29.11-.4.16-.11.05-.2.11-.27.17-.07.06-.11.12-.11.17ZM371.9,165.15l-.02-.76.7-.32,7.5-.42c-.03.13-.05.28-.06.45-.01.17-.03.3-.04.39-1.39.08-2.54.15-3.47.21-.93.06-1.68.11-2.25.15-.57.04-1.02.08-1.33.11-.31.03-.54.06-.69.09-.15.03-.26.06-.34.1ZM377.94,167.91h.98v5.98c0,.32-.05.56-.14.73-.09.17-.27.3-.54.39-.27.08-.64.13-1.12.15-.48.02-1.09.03-1.82.03-.03-.15-.08-.31-.15-.49s-.16-.34-.25-.49c.45.01.86.02,1.22.03.36,0,.66,0,.91,0s.42,0,.51-.02c.16-.01.27-.04.32-.09.05-.05.08-.13.08-.25v-5.98ZM381.14,170.13l.72-.5c.56.43,1.14.89,1.73,1.38.59.49,1.15.98,1.67,1.46.52.48.95.91,1.3,1.28l-.78.58c-.33-.37-.76-.81-1.27-1.3-.51-.49-1.06-1-1.65-1.51-.59-.51-1.16-.98-1.72-1.39ZM381.72,164.93l.8-.4c.52.45,1.05.94,1.59,1.47.54.53,1.04,1.04,1.49,1.55.45.51.82.95,1.1,1.34l-.82.5c-.28-.4-.65-.86-1.11-1.38-.46-.52-.96-1.05-1.49-1.59s-1.05-1.04-1.56-1.49Z"/>
        </g>
      </g>
    </g>
  </g>
  <g id="c117">
    <g id="tx__mdm2q8q54k5n-fill">
      <g class="cls-20">
        <g class="cls-20">
          <path class="cls-26" d="M269.1,123.93l.54-.7c.4.17.81.37,1.22.6s.8.46,1.17.69.67.46.91.67l-.56.76c-.24-.21-.54-.44-.91-.68-.37-.24-.76-.48-1.17-.72-.41-.24-.81-.45-1.2-.62ZM269.72,134.39c.28-.53.58-1.17.91-1.9.33-.73.65-1.51.98-2.32.33-.81.62-1.59.87-2.34l.76.54c-.24.71-.52,1.45-.83,2.23-.31.78-.63,1.55-.94,2.3-.31.75-.61,1.44-.89,2.05l-.86-.56ZM270.12,118.01l.56-.64c.41.16.84.35,1.27.58s.85.46,1.24.71.72.48.97.69l-.58.76c-.25-.23-.57-.46-.95-.71-.38-.25-.79-.49-1.24-.74-.45-.25-.87-.46-1.27-.65ZM277.16,117.09l.94.24c-.28.83-.61,1.65-.98,2.46s-.78,1.57-1.22,2.28-.89,1.33-1.36,1.88c-.07-.05-.15-.12-.25-.19-.1-.07-.2-.14-.31-.2-.11-.06-.2-.11-.28-.15.49-.53.95-1.14,1.38-1.81.43-.67.82-1.39,1.18-2.16.36-.77.66-1.55.9-2.35ZM273.82,126.95h13.5v.9h-13.5v-.9ZM276.4,122.71h.92c-.09.76-.19,1.58-.3,2.46-.11.88-.22,1.76-.35,2.65-.13.89-.25,1.72-.36,2.51-.11.79-.22,1.47-.33,2.06h-1c.13-.6.27-1.3.4-2.1.13-.8.26-1.64.38-2.53s.24-1.77.35-2.64.21-1.68.29-2.41ZM275.52,131.51h11.22v.88h-11.22v-.88ZM276.46,119.51h10.4v.92h-10.4v-.92ZM276.9,122.71h8.34v.88h-8.34v-.88ZM278.74,128.53l.62-.4c.48.37.96.81,1.45,1.3.49.49.86.93,1.11,1.32l-.66.46c-.25-.39-.62-.83-1.09-1.34-.47-.51-.95-.95-1.43-1.34ZM279.24,124.19l.62-.4c.47.33.94.73,1.41,1.19.47.46.83.87,1.07,1.23l-.64.48c-.24-.37-.59-.79-1.06-1.26-.47-.47-.93-.88-1.4-1.24ZM284.92,122.71h.92v.54c-.08,1.96-.16,3.62-.25,4.97-.09,1.35-.18,2.45-.29,3.3-.11.85-.22,1.51-.35,1.98-.13.47-.28.81-.45,1.01-.17.21-.36.36-.56.44s-.44.13-.72.14c-.28.03-.65.03-1.11,0-.46-.02-.94-.04-1.43-.07-.01-.13-.04-.28-.09-.45-.05-.17-.11-.31-.19-.43.55.05,1.05.08,1.52.09.47,0,.8,0,1,0,.17,0,.32-.02.43-.05s.22-.1.31-.21c.16-.16.3-.47.41-.93.11-.46.22-1.12.33-1.97.11-.85.2-1.95.28-3.28.08-1.33.16-2.96.24-4.88v-.22Z"/>
          <path class="cls-26" d="M289.2,123.69l.56-.7c.43.19.88.4,1.35.65.47.25.92.5,1.33.76.41.26.76.5,1.04.73l-.56.8c-.27-.23-.61-.47-1.03-.74s-.86-.53-1.33-.79c-.47-.26-.92-.5-1.36-.71ZM289.6,134.17c.33-.52.7-1.14,1.11-1.86.41-.72.81-1.48,1.22-2.27.41-.79.78-1.56,1.11-2.29l.76.6c-.31.69-.65,1.42-1.04,2.19s-.78,1.52-1.17,2.26c-.39.74-.77,1.42-1.13,2.03l-.86-.66ZM290.14,118.19l.58-.66c.41.23.85.48,1.3.77.45.29.89.58,1.3.87.41.29.75.56,1,.8l-.62.76c-.25-.24-.58-.51-.98-.82-.4-.31-.82-.61-1.27-.91-.45-.3-.88-.57-1.31-.81ZM294.52,129.49h12.76v.94h-12.76v-.94ZM295.1,120.89h11.64v.92h-11.64v-.92ZM295.68,125.15h10.5v.92h-10.5v-.92ZM296.72,117.47l.84-.36c.4.49.79,1.05,1.16,1.68.37.63.65,1.16.82,1.6l-.9.44c-.11-.31-.26-.65-.46-1.04s-.43-.79-.68-1.2c-.25-.41-.51-.79-.78-1.12ZM300.36,121.41h.96v13.86h-.96v-13.86ZM304.34,117.03l.94.38c-.23.43-.47.88-.73,1.37-.26.49-.53.95-.8,1.4-.27.45-.54.84-.81,1.17l-.76-.34c.23-.36.48-.77.75-1.24.27-.47.53-.94.78-1.43.25-.49.46-.92.63-1.31Z"/>
          <path class="cls-26" d="M309.1,123.47l.54-.72c.43.19.87.4,1.34.64.47.24.91.48,1.32.73.41.25.75.48,1,.71l-.54.82c-.27-.23-.6-.47-1.01-.73-.41-.26-.84-.52-1.3-.78-.46-.26-.91-.48-1.35-.67ZM309.76,134.33c.36-.52.76-1.14,1.21-1.87.45-.73.9-1.5,1.35-2.31s.87-1.59,1.26-2.34l.68.62c-.35.71-.73,1.45-1.16,2.24-.43.79-.86,1.55-1.29,2.3-.43.75-.85,1.42-1.25,2.02l-.8-.66ZM310.1,118.01l.54-.7c.45.19.92.4,1.41.64.49.24.94.49,1.37.75.43.26.78.5,1.06.73l-.56.84c-.27-.24-.61-.5-1.04-.77-.43-.27-.88-.54-1.36-.8-.48-.26-.95-.49-1.42-.69ZM314.94,125.83h11.92v.92h-11.92v-.92ZM315.74,134.45c-.01-.07-.04-.16-.08-.29-.04-.13-.08-.25-.13-.37s-.09-.23-.13-.32c.17-.03.37-.16.58-.4.21-.24.45-.55.7-.92.15-.17.36-.46.63-.87.27-.41.58-.89.92-1.45s.68-1.16,1.03-1.8c.35-.64.66-1.29.94-1.94l1,.38c-.47.91-.96,1.81-1.47,2.7-.51.89-1.05,1.74-1.6,2.53-.55.79-1.1,1.52-1.65,2.17v.02c-.15.07-.27.13-.37.19s-.19.12-.26.19c-.07.07-.11.13-.11.18ZM315.74,134.45l-.02-.76.66-.4,8.56-1c0,.13.01.28.04.44.03.16.05.29.06.4-1.61.2-2.96.37-4.03.5-1.07.13-1.94.25-2.61.34-.67.09-1.17.17-1.52.22-.35.05-.6.1-.77.14s-.29.08-.37.12ZM315.88,120.83h10.12v.92h-10.12v-.92ZM320.36,117.09h.96v9.32h-.96v-9.32ZM322.34,129.47l.76-.36c.49.59.98,1.22,1.46,1.91.48.69.91,1.36,1.3,2.03.39.67.69,1.26.9,1.78l-.82.42c-.21-.51-.51-1.1-.88-1.77-.37-.67-.8-1.36-1.28-2.07-.48-.71-.96-1.35-1.44-1.94Z"/>
          <path class="cls-26" d="M333.74,121.55l.88.32c-.43.77-.92,1.53-1.48,2.28-.56.75-1.15,1.45-1.77,2.11s-1.24,1.25-1.87,1.77c-.03-.07-.08-.16-.15-.27s-.15-.22-.24-.33c-.09-.11-.16-.19-.23-.26.61-.45,1.22-.98,1.82-1.59.6-.61,1.16-1.25,1.69-1.93.53-.68.98-1.38,1.35-2.1ZM333.54,117.19l.92.32c-.36.55-.8,1.11-1.31,1.68-.51.57-1.05,1.12-1.62,1.63-.57.51-1.14.96-1.71,1.35-.04-.08-.09-.17-.16-.26-.07-.09-.14-.19-.21-.28-.07-.09-.14-.17-.19-.22.53-.37,1.07-.79,1.61-1.26s1.04-.96,1.51-1.47c.47-.51.85-1.01,1.16-1.49ZM332.08,124.53l.9-.92.02.04v11.58h-.92v-10.7ZM334.54,131.09h12.54v.88h-12.54v-.88ZM334.82,122.31h12.44v.9h-12.44v-.9ZM335.48,128.13h10.52v.86h-10.52v-.86ZM335.84,119.35h9.86v6.84h-9.96v-.86h8.98v-5.1h-8.88v-.88ZM340.2,117.13h.96v18.14h-.96v-18.14Z"/>
          <path class="cls-26" d="M349.34,130.31h17.76v.88h-17.76v-.88ZM349.82,124.25h16.8v3.38h-.96v-2.56h-14.9v2.56h-.94v-3.38ZM354.86,117.33l.5.64c-.56.21-1.2.39-1.93.53-.73.14-1.38.25-1.97.33l-.38-.6c.37-.07.79-.15,1.26-.26.47-.11.92-.22,1.37-.34.45-.12.83-.22,1.15-.3ZM351.08,118.23l.96.28.4,6.22h-.92l-.44-6.5ZM351.66,120.01h3.58v.76h-3.58v-.76ZM351.78,122.11h3.58v.76h-3.58v-.76ZM352.94,126.73h9.88v.8h-9.88v-.8ZM357.88,129.25h.96v4.8c0,.29-.05.52-.14.67-.09.15-.27.27-.54.35-.25.08-.63.12-1.13.13s-1.16,0-1.99,0c-.03-.12-.08-.26-.15-.41s-.14-.3-.21-.43c.47.01.89.02,1.27.03.38,0,.7,0,.97,0,.27,0,.45-.01.56-.01.16,0,.27-.03.32-.08s.08-.15.08-.28v-4.78ZM359.34,120.69l.76.24c-.48.63-1.08,1.23-1.79,1.8-.71.57-1.43,1.05-2.15,1.44-.05-.08-.15-.18-.28-.3-.13-.12-.24-.21-.32-.28.71-.35,1.41-.77,2.1-1.28.69-.51,1.25-1.05,1.68-1.62ZM359.28,117.33l.76.2c-.45.61-1.02,1.2-1.71,1.75-.69.55-1.36,1.02-2.03,1.39-.07-.07-.17-.16-.3-.27-.13-.11-.25-.2-.34-.27.69-.35,1.37-.76,2.02-1.25.65-.49,1.19-1,1.6-1.55ZM355.98,121.45l.54-.48c.47.21.95.46,1.45.74s.97.57,1.41.87c.44.3.8.59,1.08.87l-.58.58c-.27-.28-.62-.57-1.05-.88-.43-.31-.9-.61-1.39-.91s-.98-.56-1.46-.79ZM356.02,118.15l.54-.52c.45.2.92.43,1.41.69.49.26.95.53,1.39.8.44.27.79.54,1.06.79l-.54.58c-.28-.25-.63-.52-1.05-.81-.42-.29-.88-.56-1.37-.83-.49-.27-.97-.5-1.44-.7ZM362.58,126.73h.24l.22-.06.6.5c-.45.36-.97.7-1.56,1.03s-1.19.63-1.82.9c-.63.27-1.24.51-1.84.71-.07-.09-.15-.19-.25-.3-.1-.11-.2-.19-.29-.26.57-.17,1.15-.39,1.74-.64.59-.25,1.14-.53,1.67-.83.53-.3.96-.58,1.29-.85v-.2ZM360.98,122.11h3.64v.76h-3.64v-.76ZM361,117.91h3.94v.78h-3.94v-.78ZM361.1,120.01h3.72v.76h-3.72v-.76ZM364.54,117.91h.92c-.04.73-.09,1.52-.14,2.36-.05.84-.11,1.66-.18,2.45-.07.79-.13,1.47-.2,2.03h-.94c.08-.57.16-1.26.23-2.06.07-.8.14-1.62.19-2.46.05-.84.09-1.61.12-2.32Z"/>
          <path class="cls-26" d="M374.42,129.77l.96.34c-.4.53-.85,1.07-1.36,1.6s-1.03,1.03-1.57,1.49-1.07.88-1.59,1.25c-.07-.05-.15-.12-.25-.2s-.2-.16-.31-.23c-.11-.07-.21-.14-.3-.19.81-.52,1.62-1.14,2.41-1.86.79-.72,1.46-1.45,2.01-2.2ZM382.5,117.17l.7.78c-.77.37-1.66.74-2.67,1.09s-2.08.69-3.21,1c-1.13.31-2.29.61-3.46.88-1.17.27-2.33.54-3.46.79-.03-.13-.07-.27-.14-.42-.07-.15-.13-.27-.18-.38,1.12-.25,2.26-.52,3.43-.81,1.17-.29,2.31-.59,3.42-.9s2.15-.64,3.11-.98,1.78-.69,2.46-1.05ZM370.68,129.25c-.01-.09-.04-.2-.07-.31s-.07-.24-.11-.37c-.04-.13-.08-.24-.12-.32.28-.03.65-.12,1.12-.29.47-.17,1-.38,1.6-.65.35-.16.85-.4,1.51-.72.66-.32,1.42-.71,2.27-1.18.85-.47,1.75-.98,2.68-1.54.93-.56,1.83-1.14,2.68-1.74l.78.62c-1.93,1.31-3.87,2.46-5.8,3.45-1.93.99-3.85,1.85-5.74,2.57v.04c-.16.04-.29.08-.4.13s-.2.1-.28.15c-.08.05-.12.11-.12.16ZM370.68,129.25l-.02-.76.8-.42,13.5-.92c-.01.13-.02.29-.02.46v.42c-2.09.15-3.89.27-5.39.38s-2.76.2-3.77.27c-1.01.07-1.83.14-2.46.19-.63.05-1.11.1-1.45.14s-.6.08-.77.11c-.17.03-.31.08-.42.13ZM371.9,125.15c-.01-.08-.04-.18-.07-.31-.03-.13-.07-.25-.11-.38s-.08-.23-.12-.31c.21-.03.45-.09.71-.18.26-.09.55-.23.87-.4.23-.12.6-.34,1.13-.66.53-.32,1.11-.7,1.76-1.15.65-.45,1.26-.92,1.83-1.41l.9.54c-1.01.79-2.04,1.5-3.07,2.13-1.03.63-2.05,1.17-3.05,1.61v.02c-.16.05-.29.11-.4.16-.11.05-.2.11-.27.17-.07.06-.11.12-.11.17ZM371.9,125.15l-.02-.76.7-.32,7.5-.42c-.03.13-.05.28-.06.45-.01.17-.03.3-.04.39-1.39.08-2.54.15-3.47.21-.93.06-1.68.11-2.25.15-.57.04-1.02.08-1.33.11-.31.03-.54.06-.69.09-.15.03-.26.06-.34.1ZM377.94,127.91h.98v5.98c0,.32-.05.56-.14.73-.09.17-.27.3-.54.39-.27.08-.64.13-1.12.15-.48.02-1.09.03-1.82.03-.03-.15-.08-.31-.15-.49s-.16-.34-.25-.49c.45.01.86.02,1.22.03.36,0,.66,0,.91,0s.42,0,.51-.02c.16-.01.27-.04.32-.09.05-.05.08-.13.08-.25v-5.98ZM381.14,130.13l.72-.5c.56.43,1.14.89,1.73,1.38.59.49,1.15.98,1.67,1.46.52.48.95.91,1.3,1.28l-.78.58c-.33-.37-.76-.81-1.27-1.3-.51-.49-1.06-1-1.65-1.51-.59-.51-1.16-.98-1.72-1.39ZM381.72,124.93l.8-.4c.52.45,1.05.94,1.59,1.47.54.53,1.04,1.04,1.49,1.55.45.51.82.95,1.1,1.34l-.82.5c-.28-.4-.65-.86-1.11-1.38-.46-.52-.96-1.05-1.49-1.59s-1.05-1.04-1.56-1.49Z"/>
        </g>
      </g>
    </g>
  </g>
  <g id="c116">
    <g id="tx__zp2l3kq54ikq-fill">
      <g class="cls-20">
        <g class="cls-20">
          <path class="cls-26" d="M743.92,143.68l.54-.72c.43.19.87.4,1.34.64.47.24.91.48,1.32.73.41.25.75.48,1,.71l-.54.82c-.27-.23-.6-.47-1.01-.73s-.84-.52-1.3-.78c-.46-.26-.91-.48-1.35-.67ZM744.58,154.54c.36-.52.76-1.14,1.21-1.87.45-.73.9-1.5,1.35-2.31.45-.81.87-1.59,1.26-2.34l.68.62c-.35.71-.73,1.45-1.16,2.24-.43.79-.86,1.55-1.29,2.3-.43.75-.85,1.42-1.25,2.02l-.8-.66ZM744.92,138.22l.54-.7c.45.19.92.4,1.41.64.49.24.94.49,1.37.75.43.26.78.5,1.06.73l-.56.84c-.27-.24-.61-.5-1.04-.77-.43-.27-.88-.54-1.36-.8s-.95-.49-1.42-.69ZM749.76,146.04h11.92v.92h-11.92v-.92ZM750.56,154.66c-.01-.07-.04-.16-.08-.29-.04-.13-.08-.25-.13-.37-.05-.12-.09-.23-.13-.32.17-.03.37-.16.58-.4.21-.24.45-.55.7-.92.15-.17.36-.46.63-.87.27-.41.58-.89.92-1.45.34-.56.68-1.16,1.03-1.8.35-.64.66-1.29.94-1.94l1,.38c-.47.91-.96,1.81-1.47,2.7-.51.89-1.05,1.74-1.6,2.53-.55.79-1.1,1.52-1.65,2.17v.02c-.15.07-.27.13-.37.19-.1.06-.19.12-.26.19-.07.07-.11.13-.11.18ZM750.56,154.66l-.02-.76.66-.4,8.56-1c0,.13.01.28.04.44.03.16.05.29.06.4-1.61.2-2.96.37-4.03.5-1.07.13-1.94.25-2.61.34-.67.09-1.17.17-1.52.22-.35.05-.6.1-.77.14-.17.04-.29.08-.37.12ZM750.7,141.04h10.12v.92h-10.12v-.92ZM755.18,137.3h.96v9.32h-.96v-9.32ZM757.16,149.68l.76-.36c.49.59.98,1.22,1.46,1.91.48.69.91,1.36,1.3,2.03.39.67.69,1.26.9,1.78l-.82.42c-.21-.51-.51-1.1-.88-1.77-.37-.67-.8-1.36-1.28-2.07s-.96-1.35-1.44-1.94Z"/>
          <path class="cls-26" d="M768.56,141.76l.88.32c-.43.77-.92,1.53-1.48,2.28-.56.75-1.15,1.45-1.77,2.11s-1.24,1.25-1.87,1.77c-.03-.07-.08-.16-.15-.27s-.15-.22-.24-.33c-.09-.11-.16-.19-.23-.26.61-.45,1.22-.98,1.82-1.59s1.16-1.25,1.69-1.93c.53-.68.98-1.38,1.35-2.1ZM768.36,137.4l.92.32c-.36.55-.8,1.11-1.31,1.68-.51.57-1.05,1.12-1.62,1.63-.57.51-1.14.96-1.71,1.35-.04-.08-.09-.17-.16-.26-.07-.09-.14-.19-.21-.28-.07-.09-.14-.17-.19-.22.53-.37,1.07-.79,1.61-1.26s1.04-.96,1.51-1.47c.47-.51.85-1.01,1.16-1.49ZM766.9,144.74l.9-.92.02.04v11.58h-.92v-10.7ZM769.36,151.3h12.54v.88h-12.54v-.88ZM769.64,142.52h12.44v.9h-12.44v-.9ZM770.3,148.34h10.52v.86h-10.52v-.86ZM770.66,139.56h9.86v6.84h-9.96v-.86h8.98v-5.1h-8.88v-.88ZM775.02,137.34h.96v18.14h-.96v-18.14Z"/>
          <path class="cls-26" d="M784.16,150.52h17.76v.88h-17.76v-.88ZM784.64,144.46h16.8v3.38h-.96v-2.56h-14.9v2.56h-.94v-3.38ZM789.68,137.54l.5.64c-.56.21-1.2.39-1.93.53-.73.14-1.38.25-1.97.33l-.38-.6c.37-.07.79-.15,1.26-.26.47-.11.92-.22,1.37-.34s.83-.22,1.15-.3ZM785.9,138.44l.96.28.4,6.22h-.92l-.44-6.5ZM786.48,140.22h3.58v.76h-3.58v-.76ZM786.6,142.32h3.58v.76h-3.58v-.76ZM787.76,146.94h9.88v.8h-9.88v-.8ZM792.7,149.46h.96v4.8c0,.29-.05.52-.14.67s-.27.27-.54.35c-.25.08-.63.12-1.13.13s-1.16,0-1.99,0c-.03-.12-.08-.26-.15-.41s-.14-.3-.21-.43c.47.01.89.02,1.27.03.38,0,.7,0,.97,0,.27,0,.45-.01.56-.01.16,0,.27-.03.32-.08.05-.05.08-.15.08-.28v-4.78ZM794.16,140.9l.76.24c-.48.63-1.08,1.23-1.79,1.8s-1.43,1.05-2.15,1.44c-.05-.08-.15-.18-.28-.3-.13-.12-.24-.21-.32-.28.71-.35,1.41-.77,2.1-1.28.69-.51,1.25-1.05,1.68-1.62ZM794.1,137.54l.76.2c-.45.61-1.02,1.2-1.71,1.75-.69.55-1.36,1.02-2.03,1.39-.07-.07-.17-.16-.3-.27s-.25-.2-.34-.27c.69-.35,1.37-.76,2.02-1.25.65-.49,1.19-1,1.6-1.55ZM790.8,141.66l.54-.48c.47.21.95.46,1.45.74s.97.57,1.41.87c.44.3.8.59,1.08.87l-.58.58c-.27-.28-.62-.57-1.05-.88s-.9-.61-1.39-.91-.98-.56-1.46-.79ZM790.84,138.36l.54-.52c.45.2.92.43,1.41.69.49.26.95.53,1.39.8s.79.54,1.06.79l-.54.58c-.28-.25-.63-.52-1.05-.81-.42-.29-.88-.56-1.37-.83-.49-.27-.97-.5-1.44-.7ZM797.4,146.94h.24l.22-.06.6.5c-.45.36-.97.7-1.56,1.03-.59.33-1.19.63-1.82.9-.63.27-1.24.51-1.84.71-.07-.09-.15-.19-.25-.3-.1-.11-.2-.19-.29-.26.57-.17,1.15-.39,1.74-.64.59-.25,1.14-.53,1.67-.83s.96-.58,1.29-.85v-.2ZM795.8,142.32h3.64v.76h-3.64v-.76ZM795.82,138.12h3.94v.78h-3.94v-.78ZM795.92,140.22h3.72v.76h-3.72v-.76ZM799.36,138.12h.92c-.04.73-.09,1.52-.14,2.36-.05.84-.11,1.66-.18,2.45-.07.79-.13,1.47-.2,2.03h-.94c.08-.57.16-1.26.23-2.06.07-.8.14-1.62.19-2.46.05-.84.09-1.61.12-2.32Z"/>
          <path class="cls-26" d="M809.24,149.98l.96.34c-.4.53-.85,1.07-1.36,1.6s-1.03,1.03-1.57,1.49-1.07.88-1.59,1.25c-.07-.05-.15-.12-.25-.2-.1-.08-.2-.16-.31-.23-.11-.07-.21-.14-.3-.19.81-.52,1.62-1.14,2.41-1.86.79-.72,1.46-1.45,2.01-2.2ZM817.32,137.38l.7.78c-.77.37-1.66.74-2.67,1.09-1.01.35-2.08.69-3.21,1-1.13.31-2.29.61-3.46.88-1.17.27-2.33.54-3.46.79-.03-.13-.07-.27-.14-.42-.07-.15-.13-.27-.18-.38,1.12-.25,2.26-.52,3.43-.81,1.17-.29,2.31-.59,3.42-.9s2.15-.64,3.11-.98,1.78-.69,2.46-1.05ZM805.5,149.46c-.01-.09-.04-.2-.07-.31-.03-.11-.07-.24-.11-.37-.04-.13-.08-.24-.12-.32.28-.03.65-.12,1.12-.29.47-.17,1-.38,1.6-.65.35-.16.85-.4,1.51-.72.66-.32,1.42-.71,2.27-1.18.85-.47,1.75-.98,2.68-1.54.93-.56,1.83-1.14,2.68-1.74l.78.62c-1.93,1.31-3.87,2.46-5.8,3.45-1.93.99-3.85,1.85-5.74,2.57v.04c-.16.04-.29.08-.4.13-.11.05-.2.1-.28.15-.08.05-.12.11-.12.16ZM805.5,149.46l-.02-.76.8-.42,13.5-.92c-.01.13-.02.29-.02.46v.42c-2.09.15-3.89.27-5.39.38s-2.76.2-3.77.27c-1.01.07-1.83.14-2.46.19-.63.05-1.11.1-1.45.14s-.6.08-.77.11-.31.08-.42.13ZM806.72,145.36c-.01-.08-.04-.18-.07-.31-.03-.13-.07-.25-.11-.38s-.08-.23-.12-.31c.21-.03.45-.09.71-.18.26-.09.55-.23.87-.4.23-.12.6-.34,1.13-.66s1.11-.7,1.76-1.15c.65-.45,1.26-.92,1.83-1.41l.9.54c-1.01.79-2.04,1.5-3.07,2.13-1.03.63-2.05,1.17-3.05,1.61v.02c-.16.05-.29.11-.4.16-.11.05-.2.11-.27.17-.07.06-.11.12-.11.17ZM806.72,145.36l-.02-.76.7-.32,7.5-.42c-.03.13-.05.28-.06.45-.01.17-.03.3-.04.39-1.39.08-2.54.15-3.47.21-.93.06-1.68.11-2.25.15-.57.04-1.02.08-1.33.11-.31.03-.54.06-.69.09-.15.03-.26.06-.34.1ZM812.76,148.12h.98v5.98c0,.32-.05.56-.14.73-.09.17-.27.3-.54.39-.27.08-.64.13-1.12.15-.48.02-1.09.03-1.82.03-.03-.15-.08-.31-.15-.49-.07-.18-.16-.34-.25-.49.45.01.86.02,1.22.03s.66,0,.91,0,.42,0,.51-.02c.16-.01.27-.04.32-.09.05-.05.08-.13.08-.25v-5.98ZM815.96,150.34l.72-.5c.56.43,1.14.89,1.73,1.38.59.49,1.15.98,1.67,1.46.52.48.95.91,1.3,1.28l-.78.58c-.33-.37-.76-.81-1.27-1.3-.51-.49-1.06-1-1.65-1.51-.59-.51-1.16-.98-1.72-1.39ZM816.54,145.14l.8-.4c.52.45,1.05.94,1.59,1.47.54.53,1.04,1.04,1.49,1.55.45.51.82.95,1.1,1.34l-.82.5c-.28-.4-.65-.86-1.11-1.38-.46-.52-.96-1.05-1.49-1.59-.53-.54-1.05-1.04-1.56-1.49Z"/>
        </g>
      </g>
    </g>
  </g>
  <g id="b44">
    <g id="g-root-ro_8vwthsq5blds-fill">
      <g id="ro_8vwthsq5blds-fill">
        <path class="cls-2" d="M264.82,49.79h165.53s11.82,0,11.82,12v30s0,12-11.82,12h-165.53s-11.82,0-11.82-12v-30s0-12,11.82-12"/>
      </g>
    </g>
    <g id="g-root-tx__hrjtqoq5bjta-fill">
      <g id="tx__hrjtqoq5bjta-fill">
        <g class="cls-20">
          <g class="cls-20">
            <path class="cls-12" d="M269.12,80.71h18.14v1.12h-18.14v-1.12ZM269.7,69.61h16.72v1.1h-16.72v-1.1ZM269.9,78.57c.92,0,1.95,0,3.1-.02,1.15-.01,2.37-.03,3.68-.04,1.31-.01,2.65-.03,4.02-.05,1.37-.02,2.75-.04,4.12-.07l-.06.92c-1.79.05-3.58.1-5.37.14-1.79.04-3.5.08-5.11.11-1.61.03-3.05.06-4.32.09l-.06-1.08ZM271.24,71.91h13.96v5.42h-13.96v-5.42ZM272.32,82.71l.92-.8c.4.23.81.49,1.24.79s.83.6,1.22.9c.39.3.69.58.92.83l-.96.9c-.23-.27-.53-.56-.9-.87-.37-.31-.77-.62-1.19-.93s-.84-.58-1.25-.82ZM272.52,72.85v1.3h11.38v-1.3h-11.38ZM272.52,75.07v1.32h11.38v-1.32h-11.38ZM277.48,68.05h1.32v10.72h-1.32v-10.72ZM281.12,79.41h1.28v5.46c0,.36-.05.64-.14.84-.09.2-.29.35-.6.46-.31.08-.72.13-1.24.15-.52.02-1.19.03-2,.03-.03-.17-.08-.37-.16-.59-.08-.22-.17-.42-.26-.59.43.01.82.02,1.18.03.36,0,.68,0,.95,0h.57c.16-.01.27-.05.33-.1.06-.05.09-.14.09-.26v-5.44ZM281.18,77.77l.76-.7c.55.17,1.1.39,1.67.64.57.25,1.1.52,1.61.81.51.29.93.56,1.26.81l-.78.78c-.33-.27-.75-.55-1.25-.84-.5-.29-1.04-.57-1.61-.84-.57-.27-1.13-.49-1.66-.66Z"/>
            <path class="cls-12" d="M295.4,82.61l1.02.5c-.47.36-1.06.7-1.77,1.03-.71.33-1.46.62-2.24.89-.78.27-1.52.48-2.21.64-.09-.16-.22-.34-.38-.54s-.31-.36-.46-.48c.71-.12,1.44-.28,2.2-.49s1.48-.44,2.16-.71c.68-.27,1.24-.55,1.68-.84ZM289.48,80.39h17.46v1.14h-17.46v-1.14ZM289.56,71.65h17.3v1.12h-17.3v-1.12ZM290.36,75.07h15.78v1.1h-15.78v-1.1ZM291.22,68.65l1.14-.4c.36.44.71.94,1.04,1.51.33.57.57,1.06.7,1.47l-1.2.46c-.13-.41-.36-.91-.68-1.48-.32-.57-.65-1.09-1-1.56ZM291.38,77.75h13.78v1.04h-13.78v-1.04ZM293.76,73.03l1.22-.3c.24.32.47.68.69,1.08.22.4.38.75.47,1.06l-1.28.34c-.08-.29-.22-.65-.43-1.06-.21-.41-.43-.79-.67-1.12ZM295.64,68.01h1.26v4.18h-1.26v-4.18ZM297.48,75.55h1.34v10.82h-1.34v-10.82ZM299.44,68.01h1.3v4.12h-1.3v-4.12ZM300.18,83.27l.8-.76c.64.21,1.33.45,2.08.72.75.27,1.46.53,2.14.8.68.27,1.25.51,1.7.72l-.8.88c-.44-.21-1-.46-1.67-.74-.67-.28-1.38-.56-2.13-.85-.75-.29-1.45-.54-2.12-.77ZM301.48,72.73l1.38.38c-.25.37-.51.75-.77,1.12-.26.37-.51.71-.75,1l-1.1-.36c.21-.31.44-.67.68-1.08.24-.41.43-.77.56-1.06ZM304.1,68.27l1.36.4c-.29.53-.61,1.08-.94,1.64-.33.56-.64,1.04-.92,1.44l-1.1-.38c.19-.28.38-.6.58-.97.2-.37.39-.74.57-1.11s.33-.71.45-1.02Z"/>
            <path class="cls-12" d="M309.04,74.65l.74-1c.41.17.86.38,1.33.62.47.24.92.48,1.34.73.42.25.76.48,1.03.71l-.76,1.12c-.25-.23-.59-.47-1-.74-.41-.27-.85-.53-1.32-.78-.47-.25-.92-.47-1.36-.66ZM309.72,85.17c.36-.51.76-1.12,1.21-1.84.45-.72.9-1.48,1.35-2.29s.87-1.58,1.24-2.33l.98.88c-.35.69-.73,1.43-1.15,2.2s-.84,1.53-1.27,2.26c-.43.73-.84,1.41-1.24,2.04l-1.12-.92ZM310.1,69.21l.74-.98c.44.19.9.4,1.38.64.48.24.94.49,1.37.74.43.25.79.49,1.07.72l-.78,1.14c-.27-.24-.61-.5-1.04-.77-.43-.27-.88-.54-1.35-.8-.47-.26-.94-.49-1.39-.69ZM314.96,76.57h11.94v1.28h-11.94v-1.28ZM315.84,85.63c-.01-.11-.05-.24-.1-.41s-.11-.33-.18-.5c-.07-.17-.13-.32-.18-.45.2-.04.4-.17.61-.4s.44-.53.69-.9c.13-.17.33-.47.59-.88.26-.41.55-.9.87-1.46.32-.56.64-1.16.97-1.8.33-.64.62-1.29.89-1.94l1.4.48c-.44.92-.91,1.83-1.41,2.73-.5.9-1.02,1.75-1.57,2.56-.55.81-1.09,1.53-1.62,2.17v.04c-.19.09-.34.18-.47.26s-.24.16-.34.25c-.1.09-.15.17-.15.25ZM315.84,85.63l-.04-1.06.8-.5,8.3-.94c-.01.17,0,.37.02.6.03.23.05.41.08.56-1.56.2-2.86.36-3.91.49-1.05.13-1.89.24-2.54.33-.65.09-1.15.17-1.5.22-.35.05-.62.1-.79.15-.17.05-.31.1-.42.15ZM315.86,71.55h10.22v1.28h-10.22v-1.28ZM320.2,68.01h1.34v9.38h-1.34v-9.38ZM322.3,80.53l1.06-.5c.48.57.95,1.2,1.42,1.89s.89,1.36,1.28,2.03.67,1.26.86,1.78l-1.16.6c-.19-.51-.46-1.1-.83-1.78-.37-.68-.78-1.37-1.24-2.07-.46-.7-.92-1.35-1.39-1.95Z"/>
            <path class="cls-12" d="M333.62,72.47l1.18.46c-.44.79-.95,1.56-1.53,2.33-.58.77-1.19,1.49-1.82,2.17-.63.68-1.27,1.28-1.91,1.8-.03-.09-.09-.22-.18-.38-.09-.16-.19-.32-.29-.48-.1-.16-.19-.29-.27-.4.6-.45,1.2-.97,1.79-1.56.59-.59,1.15-1.22,1.68-1.89.53-.67.98-1.36,1.35-2.05ZM333.34,68.09l1.28.48c-.37.56-.82,1.13-1.35,1.72-.53.59-1.08,1.14-1.67,1.66-.59.52-1.17.98-1.74,1.38-.05-.11-.12-.23-.21-.37s-.18-.27-.27-.4c-.09-.13-.18-.24-.26-.33.53-.35,1.07-.75,1.6-1.21.53-.46,1.03-.95,1.49-1.46.46-.51.84-1,1.13-1.47ZM331.9,75.83l1.22-1.22.04.02v11.68h-1.26v-10.48ZM334.56,81.99h12.6v1.18h-12.6v-1.18ZM334.86,73.15h12.48v1.18h-12.48v-1.18ZM335.46,79.01h10.7v1.16h-10.7v-1.16ZM335.82,70.19h10.04v7.14h-10.14v-1.16h8.84v-4.84h-8.74v-1.14ZM340.06,68.03h1.32v18.32h-1.32v-18.32Z"/>
            <path class="cls-12" d="M349.28,81.23h17.86v1.16h-17.86v-1.16ZM349.72,75.19h17v3.56h-1.34v-2.52h-14.38v2.52h-1.28v-3.56ZM354.8,68.21l.62.84c-.57.23-1.23.41-1.97.56s-1.41.26-2.01.34l-.5-.78c.39-.07.82-.16,1.29-.27.47-.11.94-.23,1.4-.36s.85-.24,1.17-.33ZM350.94,69.17l1.3.36.4,6.22h-1.26l-.44-6.58ZM351.68,70.91h3.62v.96h-3.62v-.96ZM351.78,73.03h3.62v.96h-3.62v-.96ZM352.96,77.69h9.58v1.04h-9.58v-1.04ZM357.72,80.31h1.3v4.56c0,.36-.05.63-.15.82-.1.19-.3.33-.61.44-.29.09-.7.14-1.22.15-.52,0-1.19,0-2,0-.03-.16-.09-.35-.18-.56-.09-.21-.19-.4-.28-.56.44.01.84.02,1.21.03.37,0,.69,0,.96,0s.46,0,.55,0c.16-.01.27-.04.33-.09.06-.05.09-.14.09-.27v-4.52ZM359.24,71.59l.98.3c-.48.63-1.08,1.23-1.8,1.81-.72.58-1.44,1.06-2.16,1.45-.08-.09-.2-.22-.36-.37s-.29-.28-.4-.37c.71-.33,1.4-.75,2.09-1.24.69-.49,1.24-1.02,1.65-1.58ZM359.18,68.21l.98.28c-.45.61-1.02,1.2-1.71,1.75s-1.37,1.02-2.05,1.39c-.08-.09-.2-.21-.36-.36-.16-.15-.3-.25-.42-.32.68-.35,1.35-.76,2-1.23.65-.47,1.17-.98,1.56-1.51ZM355.92,72.45l.7-.6c.45.21.93.46,1.42.74s.96.57,1.4.87.79.58,1.06.85l-.72.7c-.27-.28-.61-.57-1.04-.87-.43-.3-.88-.6-1.37-.9-.49-.3-.97-.56-1.45-.79ZM355.98,69.11l.68-.62c.45.19.92.41,1.39.68.47.27.93.53,1.36.8.43.27.78.53,1.05.78l-.7.68c-.27-.24-.61-.5-1.03-.79-.42-.29-.87-.56-1.35-.83-.48-.27-.95-.5-1.4-.7ZM362.22,77.69h.32l.28-.06.8.68c-.45.36-.97.71-1.56,1.04-.59.33-1.2.64-1.83.93-.63.29-1.25.54-1.85.75-.07-.12-.17-.25-.31-.39-.14-.14-.26-.25-.35-.33.53-.19,1.08-.41,1.65-.68s1.1-.55,1.61-.84.92-.57,1.24-.84v-.26ZM360.96,73.03h3.58v.96h-3.58v-.96ZM360.98,68.79h3.86v.96h-3.86v-.96ZM361.08,70.91h3.62v.96h-3.62v-.96ZM364.3,68.79h1.28c-.04.76-.09,1.57-.14,2.42-.05.85-.11,1.68-.18,2.49-.07.81-.13,1.5-.2,2.09h-1.3c.09-.6.17-1.31.24-2.12.07-.81.13-1.65.18-2.5.05-.85.09-1.65.12-2.38Z"/>
            <path class="cls-12" d="M371.48,74.25l.88.32c-.28.67-.66,1.34-1.14,2.01-.48.67-.99,1.2-1.52,1.59-.09-.15-.22-.31-.38-.48-.16-.17-.31-.31-.44-.4.35-.2.68-.46,1.01-.79s.63-.69.91-1.08c.28-.39.51-.78.68-1.17ZM372.86,77.87h1.2v2.02c0,.55-.05,1.1-.15,1.67-.1.57-.3,1.12-.59,1.67s-.73,1.08-1.32,1.59c-.59.51-1.37.98-2.36,1.41-.04-.09-.1-.2-.18-.33-.08-.13-.17-.25-.26-.37-.09-.12-.18-.22-.26-.3.89-.37,1.6-.78,2.13-1.22.53-.44.92-.9,1.17-1.37.25-.47.42-.94.5-1.41s.12-.92.12-1.36v-2ZM369.16,79.75h8.74v1.14h-8.74v-1.14ZM369.2,72.49h8.5v1.12h-8.5v-1.12ZM369.68,69.13l.96-.38c.27.36.52.76.75,1.2.23.44.4.83.49,1.16l-1.02.42c-.09-.33-.25-.72-.47-1.17-.22-.45-.46-.86-.71-1.23ZM372.9,82.53l.74-.84c.41.28.86.59,1.34.92.48.33.94.66,1.37.98.43.32.79.61,1.07.86l-.74.94c-.28-.25-.63-.55-1.06-.88s-.88-.68-1.36-1.03c-.48-.35-.93-.67-1.36-.95ZM372.94,68.11h1.18v9.32h-1.18v-9.32ZM375.26,74.33c.13.08.32.22.57.43.25.21.51.43.8.67.29.24.55.46.79.67.24.21.41.36.5.45l-.78.92c-.12-.15-.29-.34-.52-.58-.23-.24-.47-.49-.73-.76s-.51-.51-.74-.74c-.23-.23-.43-.4-.59-.52l.7-.54ZM375,78.13l.8-.46c.25.23.51.5.77.82.26.32.46.59.61.82l-.8.56c-.15-.25-.35-.54-.61-.87-.26-.33-.52-.62-.77-.87ZM376.26,68.75l1.16.38c-.24.44-.48.88-.72,1.33-.24.45-.47.83-.7,1.15l-.92-.34c.2-.36.41-.78.64-1.26.23-.48.41-.9.54-1.26ZM380.92,83.05l1.18.68c-.29.33-.65.67-1.08,1-.43.33-.87.64-1.34.93-.47.29-.93.53-1.38.73-.11-.13-.25-.29-.42-.46-.17-.17-.33-.32-.48-.44.44-.19.89-.42,1.34-.69.45-.27.87-.56,1.26-.87.39-.31.69-.6.92-.88ZM377.98,69.01h9.32v1.18h-9.32v-1.18ZM378.82,72.19h7.66v10.38h-7.66v-10.38ZM380.06,73.27v2.02h5.14v-2.02h-5.14ZM380.06,76.33v2.06h5.14v-2.06h-5.14ZM380.06,79.41v2.1h5.14v-2.1h-5.14ZM381.78,69.55l1.44.22c-.16.57-.33,1.14-.52,1.71-.19.57-.36,1.06-.52,1.49l-1.16-.24c.09-.29.19-.63.29-1,.1-.37.19-.75.27-1.14s.15-.73.2-1.04ZM383.12,83.77l.98-.68c.4.24.82.51,1.25.82.43.31.85.61,1.24.9.39.29.72.57.99.82l-1.06.76c-.24-.25-.55-.53-.93-.84-.38-.31-.79-.62-1.22-.93s-.85-.6-1.25-.85Z"/>
          </g>
        </g>
      </g>
    </g>
    <g id="_圖層_1">
      <g id="_圖層_1-2">
        <g id="_圖層_1-2-2" data-name="_圖層_1-2">
          <g id="_圖層_1-2-2">
            <g>
              <path class="cls-8" d="M409.1,65.24s1.07.15,1.4-1.12c.11-.44-1.03.07-1.03.07l-.36,1.05h0Z"/>
              <g>
                <path class="cls-15" d="M423.67,69.43h-6.05c-.08,0-.15-.07-.15-.15h0c0-.08.07-.15.15-.15h6.04c.08,0,.15.07.15.15h0c0,.08-.07.15-.15.15h0Z"/>
                <path class="cls-28" d="M416.6,71.3s-.06.05-.04.08c.19.25.48.4.81.4h1.02c.32,0,.62-.15.81-.4.02-.03,0-.08-.04-.08h-2.56Z"/>
                <path class="cls-1" d="M419.16,71.36s-.04,0-.05-.02l-1.23-1.83-1.23,1.83s-.05.03-.08.01c-.03-.02-.03-.05-.01-.08l1.28-1.91s.07-.03.1,0l1.28,1.91s0,.06-.01.08c0,0-.02,0-.03,0Z"/>
                <path class="cls-28" d="M422.11,71.3s-.06.05-.04.08c.19.25.48.4.81.4h1.02c.32,0,.62-.15.81-.4.02-.03,0-.08-.04-.08h-2.56,0Z"/>
                <path class="cls-1" d="M424.67,71.36s-.04,0-.05-.02l-1.23-1.83-1.23,1.83s-.05.03-.08.01c-.03-.02-.03-.05-.01-.08l1.28-1.91s.07-.03.1,0l1.28,1.91s0,.06-.01.08c0,0-.02,0-.03,0Z"/>
                <path class="cls-13" d="M420.85,69.78h-.41c-.19,0-.35-.13-.39-.31h0c-.02-.1.05-.2.15-.2h.89c.11,0,.18.1.15.21h0c-.05.19-.21.31-.39.31h0Z"/>
                <rect class="cls-13" x="420.4" y="62.78" width=".49" height="6.75" rx=".24" ry=".24"/>
              </g>
              <g>
                <path class="cls-13" d="M413.71,91.2v-.33c0-.6-.48-1.08-1.08-1.08h-7.53c-.6,0-1.08.48-1.08,1.08v.33c-.66.07-1.17.64-1.17,1.3v.67c0,.35.3.64.64.64h10.73c.35,0,.64-.3.64-.64v-.67c0-.67-.51-1.23-1.17-1.31h0,0Z"/>
                <path class="cls-1" d="M408.41,91.24h-4.11s-.04-.02-.04-.04.02-.04.04-.04h4.11s.04.02.04.04-.02.04-.04.04Z"/>
              </g>
              <path class="cls-7" d="M411.19,63.65s-.09.71-.17,1.3c-.02.16-.12.29-.27.35-.15.06-.31.03-.43-.07-.04-.03-.08-.06-.12-.09-.17-.14-.24-.36-.19-.57.13-.54.37-1.53.37-1.53l.82.61h0Z"/>
              <polygon class="cls-3" points="411.17 64.04 411.08 64.46 410.73 64.04 411.17 64.04"/>
              <path class="cls-7" d="M410.01,62.88c-.07-.2.04-.42.24-.48.21-.07.48-.16.69-.24.2-.07.38.05.48.24.11.22.24.72.29,1.09.03.21-.06.44-.26.51-.21.07-.91.08-1.1-.28-.14-.28-.23-.55-.33-.84h0Z"/>
              <path class="cls-5" d="M409.69,62.2s-.59.56-.95,1.34-2.15,1.73-1.79,2.53c.35.8-.91.7-.93,2.02-.02,1.32.35,2.01,1.26,2.11.91.1,3.74.11,3.48-.89-.26-1-2.74-3.37-1.62-4.08,1.17-.74,1.49-1.73,1.49-1.73l-.94-1.31h0Z"/>
              <path class="cls-7" d="M411.39,62.69s.16.15.41.34-.07.38-.21.35-.39-.44-.39-.44l.2-.25Z"/>
              <path class="cls-22" d="M419.25,64.31c.08.13.23.2.38.18l.54-.06c.16-.02.31-.09.42-.21l.46-.48c.16-.17.12-.43-.08-.52h0l-.98.17c-.22.04-.43.17-.6.35l-.09.1c-.11.13-.13.32-.04.46h0Z"/>
              <path class="cls-22" d="M406.24,87.4c1.01-1.59,1.7-4.02,2.96-6.37.23-.44.78-.62,1.22-.38h0c.42.22.84,1.45.62,1.87-1.41,2.66-3.41,4.05-4.27,5.5-.17.29-.7-.3-.54-.62h0Z"/>
              <path class="cls-7" d="M409.78,88.95s-.65-5.03.25-7.12l.11-6.82,2.39.87-1.99,13.11-.76-.04h0Z"/>
              <path class="cls-7" d="M410.56,88.78l.7.48c.14.12.85.35.85.35h0c.08.15-.05.23-.17.25l-2.08-.04s-.49-.1-.11-1.03c.39.17.72.29.8,0h0Z"/>
              <path class="cls-7" d="M406.79,87.99l-.12.85c-.03.18.16.91.16.91h0c-.08.14-.22.07-.3-.01l-1.06-1.79s-.17-.46.81-.64c.06.42.23.76.51.68Z"/>
              <path class="cls-27" d="M409.27,87.15c-.54.12-2.56-.49-2.74-.62-.18-.13-.08-.29.09-.58.09-.15,1.34-2.4,1.47-2.68.32-.74.81-2.04.88-2.28.07-.24-.06-.71-.15-1.27s-.83-4.8-1.01-5.45c-.29-1,.08-1.93.21-2.4.11-.39.84-1.51.84-1.51h1.47l.09-.47h2.3s.36,1.67.43,2.13c.07.46-.16,2.7-.19,2.98s-1.09,5.86-1.09,6.68-.75,4.33-.67,4.97c0,0-1.64.44-1.91.51"/>
              <path class="cls-22" d="M412.67,65.16l4.78,1.44c.17.05.31.24.32.44v.12c.03.32-.19.55-.47.49l-4.42-.8s-1.29-.05-1.03-1.37c.11-.56.81-.32.81-.32h0Z"/>
              <path class="cls-22" d="M408.44,67.17l4.04-.08c.5,0,.9-.46.89-1.01h0c0-.55-.43-.98-.93-.97l-1.98-.27-2.06.34c-.5,0-.9.46-.89,1.01h0c0,.55.43.98.93.97h0Z"/>
              <path class="cls-23" d="M409.24,65.71c1.01.31,2.02.29,3.02-.06,0,0,1.07.7.9,2.19-.05.45-.26.72-.48.92l-.32,1.55-3.3.06s-.71-2.04-.8-2.41c-.33-1.43.99-2.25.99-2.25h0Z"/>
              <path class="cls-22" d="M407.45,66.16l-.96,5.08c-.03.19.07.37.25.43l.11.04c.29.1.6-.06.68-.35l1.37-4.55s.57-1.29-.77-1.36c-.57-.03-.68.72-.68.72h0Z"/>
              <path class="cls-27" d="M411.45,64.93c.18.02.92.17.92.17,0,0,.67,1.4.77,1.98.09.59.16,1.11-.4,1.67,0,0,.08.18-.03.32-.12.14.18,1.05-.13,1.31-.31.27-.7.41-1.25.51-.55.1-1.61-.06-2.04-.08-.42-.02-.8.28-.74.2.06-.08-.17-.26.22-.94l-.38-1.52s1.06-1.93-.11-3.37c0,0,.98-.27,1.18-.31s1.12.68,1.24.75c.16.1.37.3.35-.87l.41.15h0Z"/>
              <path class="cls-22" d="M408.98,74.91c-.9-1.35-.83-2.83-1.51-3.86-.13-.2-.36-.31-.56-.24l-.33.12c-.16.06-.15.49-.06.66.29.89.69,2.03,1.87,3.48.08.15.33.25.46.19h0c.13-.05.21-.23.12-.35h0Z"/>
              <path class="cls-22" d="M419.99,63.98c-1.05,1.5-1.37,2.6-2.24,3.49-.16.17-.41.23-.59.12l-.3-.19c-.15-.09-.05-.51.07-.66.46-.82,1.21-1.66,2.52-3.04.1-.13.37-.18.49-.1h0c.11.08.14.25.05.37h0Z"/>
              <path class="cls-4" d="M411.47,62.52s.09.15.09.29-1.12.07-1.12.07l1.03-.35Z"/>
              <path class="cls-5" d="M409.42,63.86s-.18-1.1.09-1.45c.46-.61,1.05-.77,1.75-.36,0,0,.06.95-.84,1.89l-.99-.07h0Z"/>
              <path class="cls-7" d="M410.65,63.44c.11.14.29.17.39.08s.11-.27,0-.41c-.11-.14-.29-.17-.39-.08s-.11.27,0,.41Z"/>
              <g>
                <polygon class="cls-13" points="401.44 83.49 402.41 83.3 408.42 77.28 408.04 76.89 407.65 76.51 401.64 82.53 401.44 83.49"/>
                <polygon class="cls-29" points="407.3 75.29 409.65 77.63 409.36 78.22 406.72 75.57 407.3 75.29"/>
                <rect class="cls-29" x="407.7" y="75.85" width="2.35" height=".43" transform="translate(65.97 311.39) rotate(-45)"/>
                <circle class="cls-29" cx="409.79" cy="75.13" r=".54"/>
              </g>
              <path class="cls-22" d="M408.48,74.8c-.12.07-.2.21-.19.34l.03.5c0,.15.07.29.18.4l.42.44c.15.15.4.12.48-.06h0l-.11-.92c-.02-.2-.13-.41-.3-.57l-.09-.08c-.11-.11-.29-.13-.42-.05h0Z"/>
            </g>
            <path class="cls-1" d="M410.32,71.23c-.31,0-.64-.05-1-.17-.02,0-.03-.03-.02-.05,0-.02.03-.03.05-.02,2.14.69,3.3-1.04,3.31-1.06,0-.02.03-.02.05,0s.02.03,0,.05c0,.01-.84,1.26-2.39,1.26Z"/>
          </g>
        </g>
      </g>
    </g>
  </g>
  <g id="b43">
    <g id="g-root-ro_13zwaj4q533ew-fill">
      <g id="ro_13zwaj4q533ew-fill">
        <path class="cls-9" d="M700.81,68h165.38s11.81,0,11.81,12v30s0,12-11.81,12h-165.38s-11.81,0-11.81-12v-30s0-12,11.81-12"/>
      </g>
    </g>
    <g id="g-root-tx__1haqbtcq534zq-fill">
      <g id="tx__1haqbtcq534zq-fill">
        <g class="cls-20">
          <g class="cls-20">
            <path class="cls-12" d="M743.9,94.46h18.28v1.46h-18.28v-1.46Z"/>
            <path class="cls-12" d="M765.46,88.18h1.22v6c0,.76-.02,1.59-.06,2.48s-.12,1.81-.24,2.75c-.12.94-.3,1.86-.54,2.75-.24.89-.55,1.71-.92,2.46-.08-.08-.18-.17-.31-.26-.13-.09-.26-.18-.39-.26-.13-.08-.25-.14-.34-.18.36-.72.64-1.49.85-2.32.21-.83.36-1.67.47-2.54.11-.87.18-1.72.21-2.55.03-.83.05-1.61.05-2.33v-6ZM763.92,95.24c.69-.05,1.5-.12,2.41-.19.91-.07,1.89-.16,2.93-.25,1.04-.09,2.09-.19,3.16-.28l.02,1.1c-1,.11-2.01.21-3.02.32-1.01.11-1.97.21-2.88.3-.91.09-1.73.18-2.48.26l-.14-1.26ZM766.24,88.18h4.84v1.12h-4.84v-1.12ZM768.2,86.18l1.34.22c-.17.43-.34.84-.51,1.24-.17.4-.32.75-.47,1.06l-1.14-.2c.13-.33.28-.72.44-1.16.16-.44.27-.83.34-1.16ZM767.46,91.02l.88-.4c.28.41.55.86.82,1.35.27.49.47.9.62,1.25l-.94.48c-.13-.36-.33-.79-.59-1.3s-.52-.97-.79-1.38ZM767.54,97.52l.92-.4c.27.45.53.95.8,1.48.27.53.46.99.58,1.38l-.94.48c-.13-.4-.33-.88-.58-1.43-.25-.55-.51-1.06-.78-1.51ZM770.66,88.18h1.24v14.6c0,.39-.05.68-.14.89s-.28.37-.56.49c-.25.11-.61.17-1.06.2-.45.03-1,.04-1.64.04-.01-.17-.06-.38-.13-.63-.07-.25-.16-.46-.27-.63.49.01.95.02,1.37.02h.83c.24-.01.36-.14.36-.38v-14.6ZM780.12,94.82h.26l.24-.06.8.34c-.4,1.73-.99,3.21-1.77,4.44-.78,1.23-1.71,2.24-2.78,3.04-1.07.8-2.26,1.43-3.55,1.88-.04-.11-.11-.23-.21-.36-.1-.13-.2-.26-.3-.39s-.2-.23-.29-.31c1.25-.41,2.39-.97,3.41-1.68,1.02-.71,1.89-1.61,2.61-2.71.72-1.1,1.25-2.42,1.58-3.95v-.24ZM774.1,87.1h1.26v2.34c0,.48-.05.99-.14,1.52-.09.53-.27,1.06-.52,1.57-.25.51-.63.98-1.12,1.39-.05-.09-.14-.2-.26-.31-.12-.11-.24-.22-.37-.33-.13-.11-.24-.19-.33-.24.43-.36.75-.74.97-1.15.22-.41.36-.82.42-1.25.06-.43.09-.83.09-1.22v-2.32ZM773.16,94.82h7.3v1.2h-7.3v-1.2ZM774.68,95.8c.57,1.81,1.49,3.37,2.74,4.67s2.82,2.22,4.7,2.75c-.09.09-.2.21-.31.34-.11.13-.22.27-.32.4-.1.13-.18.27-.25.4-1.93-.64-3.54-1.67-4.83-3.08-1.29-1.41-2.26-3.13-2.91-5.16l1.18-.32ZM774.88,87.1h4.38v1.16h-4.38v-1.16ZM778.64,87.1h1.24v4.32c0,.27.02.45.06.55.04.1.12.15.24.15h1.16c.11,0,.24,0,.41-.03.17-.02.3-.04.41-.07.01.16.03.35.04.56.01.21.03.39.06.54-.11.04-.24.07-.41.08-.17.01-.33.02-.49.02h-1.28c-.4,0-.7-.06-.91-.18-.21-.12-.35-.31-.42-.58s-.11-.61-.11-1.04v-4.32Z"/>
            <path class="cls-12" d="M783.86,92.86l.74-1c.41.17.86.38,1.33.62.47.24.92.48,1.34.73.42.25.76.48,1.03.71l-.76,1.12c-.25-.23-.59-.47-1-.74-.41-.27-.85-.53-1.32-.78-.47-.25-.92-.47-1.36-.66ZM784.54,103.38c.36-.51.76-1.12,1.21-1.84s.9-1.48,1.35-2.29c.45-.81.87-1.58,1.24-2.33l.98.88c-.35.69-.73,1.43-1.15,2.2s-.84,1.53-1.27,2.26c-.43.73-.84,1.41-1.24,2.04l-1.12-.92ZM784.92,87.42l.74-.98c.44.19.9.4,1.38.64s.94.49,1.37.74c.43.25.79.49,1.07.72l-.78,1.14c-.27-.24-.61-.5-1.04-.77-.43-.27-.88-.54-1.35-.8-.47-.26-.94-.49-1.39-.69ZM789.78,94.78h11.94v1.28h-11.94v-1.28ZM790.66,103.84c-.01-.11-.05-.24-.1-.41-.05-.17-.11-.33-.18-.5-.07-.17-.13-.32-.18-.45.2-.04.4-.17.61-.4.21-.23.44-.53.69-.9.13-.17.33-.47.59-.88.26-.41.55-.9.87-1.46.32-.56.64-1.16.97-1.8.33-.64.62-1.29.89-1.94l1.4.48c-.44.92-.91,1.83-1.41,2.73-.5.9-1.02,1.75-1.57,2.56-.55.81-1.09,1.53-1.62,2.17v.04c-.19.09-.34.18-.47.26-.13.08-.24.16-.34.25s-.15.17-.15.25ZM790.66,103.84l-.04-1.06.8-.5,8.3-.94c-.01.17,0,.37.02.6.03.23.05.41.08.56-1.56.2-2.86.36-3.91.49-1.05.13-1.89.24-2.54.33-.65.09-1.15.17-1.5.22-.35.05-.62.1-.79.15-.17.05-.31.1-.42.15ZM790.68,89.76h10.22v1.28h-10.22v-1.28ZM795.02,86.22h1.34v9.38h-1.34v-9.38ZM797.12,98.74l1.06-.5c.48.57.95,1.2,1.42,1.89.47.69.89,1.36,1.28,2.03s.67,1.26.86,1.78l-1.16.6c-.19-.51-.46-1.1-.83-1.78-.37-.68-.78-1.37-1.24-2.07-.46-.7-.92-1.35-1.39-1.95Z"/>
            <path class="cls-12" d="M808.44,90.68l1.18.46c-.44.79-.95,1.56-1.53,2.33-.58.77-1.19,1.49-1.82,2.17-.63.68-1.27,1.28-1.91,1.8-.03-.09-.09-.22-.18-.38-.09-.16-.19-.32-.29-.48s-.19-.29-.27-.4c.6-.45,1.2-.97,1.79-1.56.59-.59,1.15-1.22,1.68-1.89.53-.67.98-1.36,1.35-2.05ZM808.16,86.3l1.28.48c-.37.56-.82,1.13-1.35,1.72s-1.08,1.14-1.67,1.66c-.59.52-1.17.98-1.74,1.38-.05-.11-.12-.23-.21-.37-.09-.14-.18-.27-.27-.4-.09-.13-.18-.24-.26-.33.53-.35,1.07-.75,1.6-1.21.53-.46,1.03-.95,1.49-1.46.46-.51.84-1,1.13-1.47ZM806.72,94.04l1.22-1.22.04.02v11.68h-1.26v-10.48ZM809.38,100.2h12.6v1.18h-12.6v-1.18ZM809.68,91.36h12.48v1.18h-12.48v-1.18ZM810.28,97.22h10.7v1.16h-10.7v-1.16ZM810.64,88.4h10.04v7.14h-10.14v-1.16h8.84v-4.84h-8.74v-1.14ZM814.88,86.24h1.32v18.32h-1.32v-18.32Z"/>
            <path class="cls-12" d="M824.1,99.44h17.86v1.16h-17.86v-1.16ZM824.54,93.4h17v3.56h-1.34v-2.52h-14.38v2.52h-1.28v-3.56ZM829.62,86.42l.62.84c-.57.23-1.23.41-1.97.56-.74.15-1.41.26-2.01.34l-.5-.78c.39-.07.82-.16,1.29-.27s.94-.23,1.4-.36.85-.24,1.17-.33ZM825.76,87.38l1.3.36.4,6.22h-1.26l-.44-6.58ZM826.5,89.12h3.62v.96h-3.62v-.96ZM826.6,91.24h3.62v.96h-3.62v-.96ZM827.78,95.9h9.58v1.04h-9.58v-1.04ZM832.54,98.52h1.3v4.56c0,.36-.05.63-.15.82-.1.19-.3.33-.61.44-.29.09-.7.14-1.22.15-.52,0-1.19,0-2,0-.03-.16-.09-.35-.18-.56-.09-.21-.19-.4-.28-.56.44.01.84.02,1.21.03s.69,0,.96,0,.46,0,.55,0c.16-.01.27-.04.33-.09.06-.05.09-.14.09-.27v-4.52ZM834.06,89.8l.98.3c-.48.63-1.08,1.23-1.8,1.81-.72.58-1.44,1.06-2.16,1.45-.08-.09-.2-.22-.36-.37-.16-.15-.29-.28-.4-.37.71-.33,1.4-.75,2.09-1.24.69-.49,1.24-1.02,1.65-1.58ZM834,86.42l.98.28c-.45.61-1.02,1.2-1.71,1.75-.69.55-1.37,1.02-2.05,1.39-.08-.09-.2-.21-.36-.36-.16-.15-.3-.25-.42-.32.68-.35,1.35-.76,2-1.23.65-.47,1.17-.98,1.56-1.51ZM830.74,90.66l.7-.6c.45.21.93.46,1.42.74s.96.57,1.4.87c.44.3.79.58,1.06.85l-.72.7c-.27-.28-.61-.57-1.04-.87-.43-.3-.88-.6-1.37-.9s-.97-.56-1.45-.79ZM830.8,87.32l.68-.62c.45.19.92.41,1.39.68.47.27.93.53,1.36.8.43.27.78.53,1.05.78l-.7.68c-.27-.24-.61-.5-1.03-.79-.42-.29-.87-.56-1.35-.83-.48-.27-.95-.5-1.4-.7ZM837.04,95.9h.32l.28-.06.8.68c-.45.36-.97.71-1.56,1.04-.59.33-1.2.64-1.83.93s-1.25.54-1.85.75c-.07-.12-.17-.25-.31-.39-.14-.14-.26-.25-.35-.33.53-.19,1.08-.41,1.65-.68.57-.27,1.1-.55,1.61-.84s.92-.57,1.24-.84v-.26ZM835.78,91.24h3.58v.96h-3.58v-.96ZM835.8,87h3.86v.96h-3.86v-.96ZM835.9,89.12h3.62v.96h-3.62v-.96ZM839.12,87h1.28c-.04.76-.09,1.57-.14,2.42s-.11,1.68-.18,2.49c-.07.81-.13,1.5-.2,2.09h-1.3c.09-.6.17-1.31.24-2.12s.13-1.65.18-2.5c.05-.85.09-1.65.12-2.38Z"/>
            <path class="cls-12" d="M846.3,92.46l.88.32c-.28.67-.66,1.34-1.14,2.01-.48.67-.99,1.2-1.52,1.59-.09-.15-.22-.31-.38-.48-.16-.17-.31-.31-.44-.4.35-.2.68-.46,1.01-.79.33-.33.63-.69.91-1.08.28-.39.51-.78.68-1.17ZM847.68,96.08h1.2v2.02c0,.55-.05,1.1-.15,1.67-.1.57-.3,1.12-.59,1.67-.29.55-.73,1.08-1.32,1.59-.59.51-1.37.98-2.36,1.41-.04-.09-.1-.2-.18-.33-.08-.13-.17-.25-.26-.37s-.18-.22-.26-.3c.89-.37,1.6-.78,2.13-1.22.53-.44.92-.9,1.17-1.37.25-.47.42-.94.5-1.41s.12-.92.12-1.36v-2ZM843.98,97.96h8.74v1.14h-8.74v-1.14ZM844.02,90.7h8.5v1.12h-8.5v-1.12ZM844.5,87.34l.96-.38c.27.36.52.76.75,1.2.23.44.4.83.49,1.16l-1.02.42c-.09-.33-.25-.72-.47-1.17-.22-.45-.46-.86-.71-1.23ZM847.72,100.74l.74-.84c.41.28.86.59,1.34.92s.94.66,1.37.98c.43.32.79.61,1.07.86l-.74.94c-.28-.25-.63-.55-1.06-.88s-.88-.68-1.36-1.03c-.48-.35-.93-.67-1.36-.95ZM847.76,86.32h1.18v9.32h-1.18v-9.32ZM850.08,92.54c.13.08.32.22.57.43.25.21.51.43.8.67.29.24.55.46.79.67.24.21.41.36.5.45l-.78.92c-.12-.15-.29-.34-.52-.58-.23-.24-.47-.49-.73-.76-.26-.27-.51-.51-.74-.74-.23-.23-.43-.4-.59-.52l.7-.54ZM849.82,96.34l.8-.46c.25.23.51.5.77.82.26.32.46.59.61.82l-.8.56c-.15-.25-.35-.54-.61-.87-.26-.33-.52-.62-.77-.87ZM851.08,86.96l1.16.38c-.24.44-.48.88-.72,1.33-.24.45-.47.83-.7,1.15l-.92-.34c.2-.36.41-.78.64-1.26.23-.48.41-.9.54-1.26ZM855.74,101.26l1.18.68c-.29.33-.65.67-1.08,1-.43.33-.87.64-1.34.93-.47.29-.93.53-1.38.73-.11-.13-.25-.29-.42-.46-.17-.17-.33-.32-.48-.44.44-.19.89-.42,1.34-.69.45-.27.87-.56,1.26-.87.39-.31.69-.6.92-.88ZM852.8,87.22h9.32v1.18h-9.32v-1.18ZM853.64,90.4h7.66v10.38h-7.66v-10.38ZM854.88,91.48v2.02h5.14v-2.02h-5.14ZM854.88,94.54v2.06h5.14v-2.06h-5.14ZM854.88,97.62v2.1h5.14v-2.1h-5.14ZM856.6,87.76l1.44.22c-.16.57-.33,1.14-.52,1.71-.19.57-.36,1.06-.52,1.49l-1.16-.24c.09-.29.19-.63.29-1,.1-.37.19-.75.27-1.14s.15-.73.2-1.04ZM857.94,101.98l.98-.68c.4.24.82.51,1.25.82.43.31.85.61,1.24.9.39.29.72.57.99.82l-1.06.76c-.24-.25-.55-.53-.93-.84-.38-.31-.79-.62-1.22-.93-.43-.31-.85-.6-1.25-.85Z"/>
          </g>
        </g>
      </g>
    </g>
    <g id="_圖層_1-2" data-name="_圖層_1">
      <g id="_圖層_1-2-3" data-name="_圖層_1-2">
        <g id="_圖層_1-2-4" data-name="_圖層_1-2">
          <g>
            <path class="cls-13" d="M726.33,105.01v-.48c0-.87-.71-1.58-1.58-1.58h-11.02c-.87,0-1.58.71-1.58,1.58v.48c-.96.11-1.7.93-1.7,1.91v.98c0,.52.43.95.95.95h15.71c.52,0,.95-.43.95-.95v-.98c0-.99-.75-1.8-1.7-1.92h0s0,0,0,0Z"/>
            <g>
              <rect class="cls-13" x="717.86" y="81.59" width="2.5" height="22.56"/>
              <path class="cls-13" d="M719.93,83.01h-1.6c-.72,0-1.36-.5-1.54-1.21h0c-.1-.39.2-.77.61-.77h3.49c.42,0,.72.4.61.81v.05c-.22.68-.83,1.13-1.54,1.13h0s0-.01,0-.01Z"/>
              <path class="cls-15" d="M730.97,85.95h-23.7c-.33,0-.61-.27-.61-.61h0c0-.33.27-.61.61-.61h23.69c.33,0,.61.27.61.61h0c0,.33-.27.61-.61.61h.01Z"/>
              <path class="cls-28" d="M703.25,93.3c-.15,0-.25.19-.15.32.74.96,1.89,1.57,3.16,1.57h4.01c1.26,0,2.41-.6,3.16-1.57.1-.12,0-.32-.15-.32h-10.03,0Z"/>
              <path class="cls-1" d="M713.29,93.36s-.04,0-.05-.02l-4.97-7.39-4.97,7.39s-.05.03-.08.01c-.02-.02-.03-.05-.01-.08l5.02-7.46s.07-.03.1,0l5.02,7.46s0,.06-.01.08c0,0-.02,0-.03,0Z"/>
              <path class="cls-28" d="M724.85,93.3c-.15,0-.25.19-.15.32.74.96,1.89,1.57,3.16,1.57h4.01c1.26,0,2.41-.6,3.16-1.57.1-.12,0-.32-.15-.32h-10.04.02Z"/>
              <path class="cls-1" d="M734.88,93.36s-.04,0-.05-.02l-4.98-7.39-4.96,7.39s-.05.03-.08.01c-.02-.02-.03-.05-.01-.08l5.01-7.46s.03-.02.05-.02h0s.04,0,.05.02l5.03,7.46s0,.06-.01.08c0,0-.02,0-.03,0Z"/>
            </g>
            <path class="cls-1" d="M718.57,105.05h-6.02s-.04-.02-.04-.04.02-.04.04-.04h6.02s.04.02.04.04-.02.04-.04.04Z"/>
          </g>
        </g>
      </g>
    </g>
  </g>
  <g id="a14">
    <g id="g-root-ro_14651e8q50cnj-stroke">
      <g id="ro_14651e8q50cnj-stroke">
        <path class="cls-16" d="M517.27,67.79h95.45s27.27,0,27.27,28.57v92.86s0,28.57-27.27,28.57h-95.45s-27.27,0-27.27-28.57v-92.86s0-28.57,27.27-28.57"/>
      </g>
    </g>
    <g>
      <g id="g-root-tx__1hhljrkq50b2l-fill">
        <g id="tx__1hhljrkq50b2l-fill">
          <g class="cls-20">
            <g class="cls-20">
              <path class="cls-30" d="M525.86,171.65l.74-1c.41.17.86.38,1.33.62.47.24.92.48,1.34.73.42.25.76.48,1.03.71l-.76,1.12c-.25-.23-.59-.47-1-.74-.41-.27-.85-.53-1.32-.78-.47-.25-.92-.47-1.36-.66ZM526.54,182.17c.36-.51.76-1.12,1.21-1.84.45-.72.9-1.48,1.35-2.29s.87-1.58,1.24-2.33l.98.88c-.35.69-.73,1.43-1.15,2.2s-.84,1.53-1.27,2.26c-.43.73-.84,1.41-1.24,2.04l-1.12-.92ZM526.92,166.21l.74-.98c.44.19.9.4,1.38.64.48.24.94.49,1.37.74.43.25.79.49,1.07.72l-.78,1.14c-.27-.24-.61-.5-1.04-.77-.43-.27-.88-.54-1.35-.8-.47-.26-.94-.49-1.39-.69ZM531.78,173.57h11.94v1.28h-11.94v-1.28ZM532.66,182.63c-.01-.11-.05-.24-.1-.41s-.11-.33-.18-.5c-.07-.17-.13-.32-.18-.45.2-.04.4-.17.61-.4s.44-.53.69-.9c.13-.17.33-.47.59-.88.26-.41.55-.9.87-1.46.32-.56.64-1.16.97-1.8.33-.64.62-1.29.89-1.94l1.4.48c-.44.92-.91,1.83-1.41,2.73-.5.9-1.02,1.75-1.57,2.56-.55.81-1.09,1.53-1.62,2.17v.04c-.19.09-.34.18-.47.26s-.24.16-.34.25c-.1.09-.15.17-.15.25ZM532.66,182.63l-.04-1.06.8-.5,8.3-.94c-.01.17,0,.37.02.6.03.23.05.41.08.56-1.56.2-2.86.36-3.91.49-1.05.13-1.89.24-2.54.33-.65.09-1.15.17-1.5.22-.35.05-.62.1-.79.15-.17.05-.31.1-.42.15ZM532.68,168.55h10.22v1.28h-10.22v-1.28ZM537.02,165.01h1.34v9.38h-1.34v-9.38ZM539.12,177.53l1.06-.5c.48.57.95,1.2,1.42,1.89s.89,1.36,1.28,2.03.67,1.26.86,1.78l-1.16.6c-.19-.51-.46-1.1-.83-1.78-.37-.68-.78-1.37-1.24-2.07-.46-.7-.92-1.35-1.39-1.95Z"/>
              <path class="cls-30" d="M550.44,169.47l1.18.46c-.44.79-.95,1.56-1.53,2.33-.58.77-1.19,1.49-1.82,2.17-.63.68-1.27,1.28-1.91,1.8-.03-.09-.09-.22-.18-.38-.09-.16-.19-.32-.29-.48-.1-.16-.19-.29-.27-.4.6-.45,1.2-.97,1.79-1.56.59-.59,1.15-1.22,1.68-1.89.53-.67.98-1.36,1.35-2.05ZM550.16,165.09l1.28.48c-.37.56-.82,1.13-1.35,1.72-.53.59-1.08,1.14-1.67,1.66-.59.52-1.17.98-1.74,1.38-.05-.11-.12-.23-.21-.37s-.18-.27-.27-.4c-.09-.13-.18-.24-.26-.33.53-.35,1.07-.75,1.6-1.21.53-.46,1.03-.95,1.49-1.46.46-.51.84-1,1.13-1.47ZM548.72,172.83l1.22-1.22.04.02v11.68h-1.26v-10.48ZM551.38,178.99h12.6v1.18h-12.6v-1.18ZM551.68,170.15h12.48v1.18h-12.48v-1.18ZM552.28,176.01h10.7v1.16h-10.7v-1.16ZM552.64,167.19h10.04v7.14h-10.14v-1.16h8.84v-4.84h-8.74v-1.14ZM556.88,165.03h1.32v18.32h-1.32v-18.32Z"/>
              <path class="cls-30" d="M566.1,178.23h17.86v1.16h-17.86v-1.16ZM566.54,172.19h17v3.56h-1.34v-2.52h-14.38v2.52h-1.28v-3.56ZM571.62,165.21l.62.84c-.57.23-1.23.41-1.97.56s-1.41.26-2.01.34l-.5-.78c.39-.07.82-.16,1.29-.27.47-.11.94-.23,1.4-.36s.85-.24,1.17-.33ZM567.76,166.17l1.3.36.4,6.22h-1.26l-.44-6.58ZM568.5,167.91h3.62v.96h-3.62v-.96ZM568.6,170.03h3.62v.96h-3.62v-.96ZM569.78,174.69h9.58v1.04h-9.58v-1.04ZM574.54,177.31h1.3v4.56c0,.36-.05.63-.15.82-.1.19-.3.33-.61.44-.29.09-.7.14-1.22.15-.52,0-1.19,0-2,0-.03-.16-.09-.35-.18-.56-.09-.21-.19-.4-.28-.56.44.01.84.02,1.21.03.37,0,.69,0,.96,0s.46,0,.55,0c.16-.01.27-.04.33-.09.06-.05.09-.14.09-.27v-4.52ZM576.06,168.59l.98.3c-.48.63-1.08,1.23-1.8,1.81-.72.58-1.44,1.06-2.16,1.45-.08-.09-.2-.22-.36-.37s-.29-.28-.4-.37c.71-.33,1.4-.75,2.09-1.24.69-.49,1.24-1.02,1.65-1.58ZM576,165.21l.98.28c-.45.61-1.02,1.2-1.71,1.75s-1.37,1.02-2.05,1.39c-.08-.09-.2-.21-.36-.36-.16-.15-.3-.25-.42-.32.68-.35,1.35-.76,2-1.23.65-.47,1.17-.98,1.56-1.51ZM572.74,169.45l.7-.6c.45.21.93.46,1.42.74s.96.57,1.4.87.79.58,1.06.85l-.72.7c-.27-.28-.61-.57-1.04-.87-.43-.3-.88-.6-1.37-.9-.49-.3-.97-.56-1.45-.79ZM572.8,166.11l.68-.62c.45.19.92.41,1.39.68.47.27.93.53,1.36.8.43.27.78.53,1.05.78l-.7.68c-.27-.24-.61-.5-1.03-.79-.42-.29-.87-.56-1.35-.83-.48-.27-.95-.5-1.4-.7ZM579.04,174.69h.32l.28-.06.8.68c-.45.36-.97.71-1.56,1.04-.59.33-1.2.64-1.83.93-.63.29-1.25.54-1.85.75-.07-.12-.17-.25-.31-.39-.14-.14-.26-.25-.35-.33.53-.19,1.08-.41,1.65-.68s1.1-.55,1.61-.84.92-.57,1.24-.84v-.26ZM577.78,170.03h3.58v.96h-3.58v-.96ZM577.8,165.79h3.86v.96h-3.86v-.96ZM577.9,167.91h3.62v.96h-3.62v-.96ZM581.12,165.79h1.28c-.04.76-.09,1.57-.14,2.42-.05.85-.11,1.68-.18,2.49-.07.81-.13,1.5-.2,2.09h-1.3c.09-.6.17-1.31.24-2.12.07-.81.13-1.65.18-2.5.05-.85.09-1.65.12-2.38Z"/>
              <path class="cls-30" d="M586.88,165.99h1.32v17.36h-1.32v-17.36ZM587.5,169.03h5.66v1.04h-5.66v-1.04ZM587.6,165.99h6.34v7.28h-6.34v-1.16h5.08v-4.98h-5.08v-1.14ZM602.58,165.99v1.14h-5.38v5h5.38v1.14h-6.66v-7.28h6.66ZM596.7,169.03h5.78v1.04h-5.78v-1.04ZM601.88,165.99h1.36v15.46c0,.48-.07.84-.2,1.09-.13.25-.36.43-.68.55-.33.11-.8.17-1.39.2-.59.03-1.34.04-2.25.04-.01-.13-.05-.28-.1-.45-.05-.17-.11-.33-.18-.5s-.14-.32-.22-.45c.48.03.93.04,1.36.04h1.78c.2-.01.34-.05.41-.12.07-.07.11-.19.11-.38v-15.48Z"/>
            </g>
          </g>
        </g>
      </g>
      <g id="_圖層_1-3" data-name="_圖層_1">
        <g id="_圖層_1-2-5" data-name="_圖層_1-2">
          <g id="_圖層_1-2-6" data-name="_圖層_1-2">
            <g>
              <path class="cls-19" d="M607.56,111.23h-30.72v-9.96h20.74c5.5,0,9.96,4.47,9.96,9.96h.01Z"/>
              <path class="cls-27" d="M584.46,154.69h-25.78v-46.44c0-3.85,3.13-7,7-7h32.01c1.99.15,3.88.34,3.84,1.52-1.78-.33-3.35-.33-3.84,1.58v37.09c0,7.31-5.93,13.23-13.23,13.23h0v.02Z"/>
              <path class="cls-24" d="M597.7,111.32s-.08-.04-.08-.08v-6.88s-.05-.8.59-1.34c.66-.55,1.79-.63,3.36-.22.04.01.07.06.06.1-.01.04-.06.07-.1.06-1.51-.39-2.59-.33-3.2.19-.58.48-.53,1.2-.53,1.21v6.88s-.04.08-.08.08Z"/>
              <path class="cls-12" d="M587.49,114.8h-20.94c-.33,0-.62-.28-.62-.62h0c0-.33.28-.62.62-.62h20.94c.33,0,.62.28.62.62h0c0,.33-.28.62-.62.62Z"/>
              <path class="cls-12" d="M587.49,121.05h-20.94c-.33,0-.62-.28-.62-.62h0c0-.33.28-.62.62-.62h20.94c.33,0,.62.28.62.62h0c0,.33-.28.62-.62.62Z"/>
              <path class="cls-12" d="M587.49,126.96h-11.98c-.33,0-.62-.28-.62-.62h0c0-.33.28-.62.62-.62h11.98c.33,0,.62.28.62.62h0c0,.33-.28.62-.62.62Z"/>
              <g>
                <polygon class="cls-29" points="586.8 147.44 583.11 145.33 579.41 147.44 579.41 137.08 586.8 137.08 586.8 147.44"/>
                <path class="cls-13" d="M587.39,139.29h0c-.41-.41-.13-1.1.44-1.1h0c.64,0,1.14-.51,1.14-1.18v-.33c0-.65-.51-1.18-1.17-1.18h0c-.56,0-.83-.7-.46-1.1h0c.46-.46.44-1.2,0-1.66l-.22-.24c-.46-.46-1.19-.47-1.63,0h0c-.41.41-1.09.13-1.09-.46h0c0-.65-.51-1.18-1.17-1.18h-.33c-.64,0-1.14.51-1.14,1.18h0c0,.57-.68.86-1.09.46h0c-.46-.46-1.19-.47-1.63,0l-.22.24c-.46.46-.44,1.2,0,1.66.41.41.13,1.1-.44,1.1h0c-.64,0-1.14.51-1.14,1.18v.33c0,.65.51,1.18,1.17,1.18h0c.56,0,.83.7.46,1.1h0c-.46.46-.44,1.2,0,1.66l.22.24c.46.46,1.19.47,1.63,0,.41-.41,1.09-.13,1.09.46s.51,1.18,1.17,1.18h.33c.64,0,1.14-.51,1.14-1.18h0c0-.57.68-.86,1.09-.46h0c.46.46,1.19.47,1.63,0l.22-.24c.46-.46.44-1.2,0-1.66h0ZM581.11,138.91c-1.12-1.13-1.12-2.97,0-4.11,1.11-1.13,2.92-1.12,4.04,0,1.12,1.12,1.12,2.97,0,4.11-1.11,1.13-2.92,1.12-4.04,0Z"/>
                <circle class="cls-29" cx="583.11" cy="136.7" r="3.14"/>
              </g>
              <path class="cls-24" d="M558.68,110.7s-.08-.04-.08-.08v-2.1c0-3.91,3.18-7.08,7.08-7.08h4.65s.08.04.08.08-.04.08-.08.08h-4.65c-3.81,0-6.92,3.1-6.92,6.92v2.1s-.04.08-.08.08Z"/>
              <g>
                <path class="cls-22" d="M595.6,130.04l-.16-.26c-.11-.16-.15-.34-.11-.53l.14-.72c.04-.26.35-.37.62-.22h0l.61,1.04c.14.22.17.5.11.78l-.11.46h0c-.43,0-.83-.21-1.06-.56h-.02Z"/>
                <polygon class="cls-19" points="597.38 133.63 601.74 133.07 599.7 126.25 595.33 126.81 597.38 133.63"/>
                <path class="cls-5" d="M608.66,124.88c-.06-.21,0-.44.11-.64.96-1.54-1.35-2.42-2.03-2.84-.72-.46,0-1.69-1.49-2.07s-1.9.42-1.97.41c-.11-.02.28,1.39.28,1.39,0,0,.75.19.83,1.63.09,1.45-.24,2.24.75,3.32.97,1.09,4.6-.26,4.6-.26-.58.04-.98-.67-1.06-.93h-.02,0Z"/>
                <path class="cls-22" d="M600.77,138.29s1.09,7.47,1.2,8.82c.04.47,6.18,8.89,6.18,8.89.74.05.89-.49.5-1.23-1.58-6.97-3.68-8.01-3.68-8.01,0,0-.74-3.4-.05-9.26l-4.15.8h.01Z"/>
                <path class="cls-7" d="M602.35,138.53c-1.71,1.41-2.53,3.64-2.2,5.89l.44,3.01,1.71,10.28.96.02s.5-4.57.56-5.07c.06-.5.37-3.59-.64-5.8l.53-9.44-1.37,1.13h0Z"/>
                <path class="cls-10" d="M602.22,157.13l-1.1.72c-.17.19-1.21.53-1.21.53h0c-.08.22.15.34.33.37l3.11-.08s.55-.14-.02-1.58c-.55.26-.9.46-1.1,0h0v.02h-.02v.02h0Z"/>
                <path class="cls-10" d="M608.15,155.88l.33,1.23c.13.21.11,1.27.11,1.27h0c.19.14.37-.04.47-.2l.91-2.78s.32-1.04-1.31-.68c.06.58,0,1.09-.5,1.14h-.01Z"/>
                <path class="cls-6" d="M604.63,130.52l-4.5.21c-1.05.32-.58,3.76-.62,4.64l.27,11.08s2.78.53,6.24-.13c-.11-4.6.48-9.03.48-9.05.42-4.01-1.87-6.77-1.87-6.77h-.01Z"/>
                <path class="cls-21" d="M603.14,122.71c.3-.06,0-.14.27.06.65.51,2.31,1.44,2.39,3.94.13,3.78.71,7.82.71,7.82-4.88,1.23-6.67.06-7.22-.86-.16-.27-.13-.49,0-1.11.33-1.66.62-2.36.92-5.13.14-1.21.4-2.43,1.86-4.15.37-.43.37-.46,1.06-.58h.02-.01Z"/>
                <path class="cls-22" d="M605.69,126.22s.63,6.67-.13,7.45-1.9-.96-1.9-.96l-.46-6.71,2.48.21h0Z"/>
                <path class="cls-7" d="M604.7,131.56c.87.28,1.48.98.97,1.99l-3.42,4.29-.56-.99,2.1-4.5.92-.78h0Z"/>
                <path class="cls-22" d="M601.7,136.84l-.32.95c-.06.19-.05.41,0,.58l.3.75c.11.27.44.33.65.15h0l.33-1.21c.06-.27.04-.57-.09-.86l-.21-.47-.68.11h.02,0Z"/>
                <path class="cls-21" d="M605.61,125.82s.74,3.97.46,4.02-3.28.15-3.87-.49l-.34-4.11s2.39-.78,3.76.57h0Z"/>
                <path class="cls-11" d="M603.21,129.27s-.04-.02-.05-.04l-.29-2.59s.02-.05.04-.05c.03,0,.05.02.05.04l.29,2.59s-.02.05-.04.05c0,0,0,0,0,0Z"/>
                <path class="cls-14" d="M603.83,150.05s-.05-.01-.06-.03l-1.53-2.27s0-.01,0-.02c0,0-.03-.03-.04-.06-.13-.16-.42-.53-.37-.96,0-.04.04-.07.08-.06.04,0,.07.04.06.08-.05.36.21.69.34.85.03.04.05.07.06.09l1.53,2.27s.01.08-.02.1c-.01,0-.03.01-.04.01Z"/>
                <path class="cls-22" d="M603.39,122.77l-.35-.91-1.27.41.22,1.09c.04.17.05.27.11.27.37-.35.78-.64,1.29-.82h0v-.02h0Z"/>
                <polygon class="cls-3" points="601.75 122.46 601.92 123.06 602.38 122.36 601.75 122.46"/>
                <path class="cls-7" d="M603.26,120.64c.05-.29-.14-.58-.44-.64-.32-.06-.72-.14-1.03-.2-.29-.05-.53.15-.64.44-.13.33-.2,1.09-.2,1.61s.19.62.48.68c.32.06,1.33-.06,1.52-.62.15-.43.22-.82.3-1.26h0Z"/>
                <path class="cls-5" d="M603.41,122.1c.5-.11.82-.63.7-1.13-.11-.42-.27-.86-.47-1.06-.61-.62-1.4-.96-2.32-.22,0,0,.09,1.18,1.27,2.27.17.16.43.22.65.19l.15-.02h0v-.02h.02,0Z"/>
                <path class="cls-7" d="M602.46,121.55c-.14.21-.37.3-.55.2s-.21-.37-.09-.58.37-.3.55-.2.21.37.09.58Z"/>
                <path class="cls-25" d="M603.77,120.17s-.04-.01-.04-.03c0,0-.12-.27-.24-.47-.01-.02,0-.05.02-.06.02-.01.05,0,.06.02.13.21.24.47.24.49.01.02,0,.05-.02.06,0,0-.01,0-.02,0Z"/>
                <path class="cls-7" d="M601.13,120.69s-.16.27-.43.63c-.14.17.24.49.43.41s.37-.75.37-.75l-.37-.28h0Z"/>
                <path class="cls-4" d="M601.14,121.82h.27s0,.41-.24.3c-.05,0-.04-.3-.04-.3h.01Z"/>
              </g>
              <g>
                <path class="cls-13" d="M549.76,149.53v-.62c0-1.12-.91-2.02-2.02-2.02h-14.1c-1.12,0-2.02.91-2.02,2.02v.62c-1.23.14-2.18,1.19-2.18,2.44v1.25c0,.67.55,1.21,1.21,1.21h20.1c.67,0,1.21-.55,1.21-1.21v-1.25c0-1.26-.96-2.31-2.18-2.45h-.01Z"/>
                <g>
                  <rect class="cls-13" x="538.94" y="119.57" width="3.19" height="28.86"/>
                  <path class="cls-13" d="M541.58,121.39h-2.06c-.93,0-1.74-.64-1.97-1.54h0c-.13-.5.26-.98.77-.98h4.46c.53,0,.92.51.77,1.03v.06c-.28.87-1.06,1.45-1.96,1.45h-.01v-.02h0Z"/>
                  <path class="cls-15" d="M555.7,125.15h-30.32c-.43,0-.77-.34-.77-.77h0c0-.43.34-.77.77-.77h30.3c.43,0,.77.34.77.77h0c0,.43-.34.77-.77.77h.02Z"/>
                  <path class="cls-28" d="M520.25,134.55c-.2,0-.32.24-.2.41.95,1.23,2.42,2,4.04,2h5.13c1.61,0,3.09-.76,4.04-2,.13-.16,0-.41-.2-.41h-12.82.01Z"/>
                  <path class="cls-1" d="M520.25,134.68s-.05,0-.07-.02c-.06-.04-.07-.12-.03-.17l6.42-9.55s.06-.06.1-.06h0s.08.02.1.06l6.43,9.55c.04.06.02.14-.03.17-.06.04-.14.02-.17-.03l-6.32-9.39-6.31,9.39s-.06.06-.1.06Z"/>
                  <path class="cls-28" d="M547.87,134.55c-.2,0-.32.24-.2.41.95,1.23,2.42,2,4.04,2h5.13c1.61,0,3.09-.76,4.04-2,.13-.16,0-.41-.2-.41h-12.84.03,0Z"/>
                  <path class="cls-1" d="M547.87,134.68s-.05,0-.07-.02c-.06-.04-.07-.12-.03-.17l6.41-9.55s.06-.06.1-.06h0s.08.02.1.06l6.43,9.55c.04.06.02.14-.03.17-.06.04-.14.02-.17-.03l-6.32-9.39-6.3,9.39s-.06.06-.1.06Z"/>
                </g>
                <path class="cls-1" d="M539.83,149.61h-7.69s-.08-.04-.08-.08.04-.08.08-.08h7.69s.08.04.08.08-.04.08-.08.08Z"/>
              </g>
              <path class="cls-27" d="M582.35,154.69h-26.7c-5.5,0-9.96-4.46-9.96-9.96h27.85c.44,5.48,3.63,8.57,8.79,9.96h.03Z"/>
              <path class="cls-24" d="M582.35,154.69s0,0-.01,0c-4.6-.81-6.76-3.48-7.77-5.58-1.09-2.27-1.09-4.38-1.09-4.4,0-.05.04-.08.08-.08h0s.08.04.08.08c0,.02,0,2.1,1.07,4.33.99,2.06,3.12,4.68,7.64,5.48.05,0,.08.05.07.1,0,.04-.04.07-.08.07Z"/>
              <path class="cls-24" d="M545.85,146.62s-.07-.02-.08-.06c-.01-.03-.28-.8-.15-1.86,0-.04.04-.07.08-.07h27.46s.08.04.08.08-.04.08-.08.08h-27.39c-.1.98.15,1.71.15,1.71.02.04,0,.09-.05.11,0,0-.02,0-.03,0Z"/>
            </g>
          </g>
        </g>
      </g>
    </g>
  </g>
</svg>