<?xml version="1.0" encoding="UTF-8"?>
<svg id="_x31_4_x5F_法律" xmlns="http://www.w3.org/2000/svg" viewBox="0 0 1130 268">
  <defs>
    <style>
      .cls-1 {
        fill: #334f73;
      }

      .cls-2 {
        fill: #3cc583;
      }

      .cls-2, .cls-3, .cls-4, .cls-5, .cls-6, .cls-7, .cls-8, .cls-9, .cls-10 {
        fill-rule: evenodd;
      }

      .cls-11 {
        fill: #802720;
      }

      .cls-3 {
        fill: #873b24;
      }

      .cls-12, .cls-4 {
        fill: #fff;
      }

      .cls-13 {
        fill: #6e80eb;
      }

      .cls-5 {
        fill: #5c3420;
      }

      .cls-14 {
        fill: #ad4c2f;
      }

      .cls-15 {
        fill: #6272d1;
      }

      .cls-16 {
        fill: #fcf0f0;
        stroke: #fd6a65;
      }

      .cls-16, .cls-17, .cls-18 {
        stroke-linejoin: round;
        stroke-width: 2px;
      }

      .cls-16, .cls-18 {
        stroke-linecap: round;
      }

      .cls-19 {
        fill: #c7cce8;
      }

      .cls-20 {
        isolation: isolate;
      }

      .cls-6 {
        fill: #e0874e;
      }

      .cls-21 {
        fill: #f9a56e;
      }

      .cls-7, .cls-22 {
        fill: #c95836;
      }

      .cls-8 {
        fill: #663a24;
      }

      .cls-23 {
        fill: #a3472c;
      }

      .cls-24 {
        fill: #0d367f;
      }

      .cls-9 {
        fill: #e0cb15;
      }

      .cls-25 {
        fill: #eff1f7;
      }

      .cls-17, .cls-18 {
        fill: none;
        stroke: #484848;
      }

      .cls-26 {
        fill: #484848;
      }

      .cls-27 {
        fill: #dee2f5;
      }

      .cls-28 {
        fill: #5664b8;
      }

      .cls-10 {
        fill: #4a2a1a;
      }

      .cls-29 {
        fill: #4453b3;
      }

      .cls-30 {
        fill: #fd6a65;
      }

      .cls-18 {
        stroke-dasharray: 5 7;
      }
    </style>
  </defs>
  <g id="g-root-cu_1haqbtcq5bl6s-stroke">
    <g id="cu_1haqbtcq5bl6s-stroke">
      <path class="cls-17" d="M490,120h-3.1c-11.54,0-20.9-9.36-20.9-20.9v-3.2c0-11.54-9.36-20.9-20.9-20.9h-3.1"/>
    </g>
  </g>
  <g id="g-root-cu_1lqjtxsq5bkeh-stroke">
    <g id="cu_1lqjtxsq5bkeh-stroke">
      <path class="cls-17" d="M641,122h3.1c3.96-.02,8.25-1.3,12.4-3.7,2.49-1.4,5.56-4.93,8.5-9.8,2.94-4.87,6.01-8.4,8.5-9.8,4.15-2.4,8.44-3.68,12.4-3.7h3.1"/>
    </g>
  </g>
  <g id="g-root-cu_1haqbtcq5bl6v-stroke">
    <g id="cu_1haqbtcq5bl6v-stroke">
      <path class="cls-18" d="M719,122v13.6c0,5.74,6.98,10.4,15.6,10.4h2.4"/>
    </g>
  </g>
  <g>
    <g id="g-root-cu_13zwaj4q5bjm5-stroke">
      <g id="cu_13zwaj4q5bjm5-stroke">
        <path class="cls-18" d="M412.18,104.79v63.21h-18"/>
      </g>
    </g>
    <g id="g-root-cu_1cvjas0q5bite-stroke">
      <g id="cu_1cvjas0q5bite-stroke">
        <path class="cls-18" d="M412.18,104.79v21h-18"/>
      </g>
    </g>
    <g id="g-root-cu_zk2seoq5bkef-stroke">
      <g id="cu_zk2seoq5bkef-stroke">
        <path class="cls-18" d="M412.18,104.79v90c0,6.63-5.37,12-12,12h-6"/>
      </g>
    </g>
  </g>
  <g id="c119">
    <g id="tx__92s1g0q54ikt-fill">
      <g class="cls-20">
        <g class="cls-20">
          <path class="cls-26" d="M268.88,212.15c.79-.16,1.7-.35,2.73-.57s2.13-.47,3.3-.74c1.17-.27,2.33-.54,3.49-.79l.12,1.24c-1.12.27-2.24.53-3.36.79s-2.19.51-3.22.75c-1.03.24-1.95.46-2.78.66l-.28-1.34ZM269.22,198.47h9.2v1.3h-9.2v-1.3ZM270.12,202.93h1.22v9.5h-1.22v-9.5ZM273.5,199.17h1.32v12.64h-1.32v-12.64ZM274.12,204.31h3.52v1.3h-3.52v-1.3ZM284.7,201.39l1.32.14c-.35,2.31-.84,4.33-1.48,6.08-.64,1.75-1.5,3.26-2.58,4.54-1.08,1.28-2.45,2.36-4.12,3.24-.04-.11-.11-.23-.2-.38-.09-.15-.19-.29-.3-.43-.11-.14-.21-.26-.3-.35,1.59-.79,2.89-1.77,3.91-2.95,1.02-1.18,1.82-2.59,2.41-4.23.59-1.64,1.03-3.53,1.34-5.66ZM280.48,197.03l1.34.22c-.24,1.24-.54,2.44-.91,3.6-.37,1.16-.78,2.24-1.23,3.24-.45,1-.96,1.89-1.52,2.66-.08-.08-.18-.18-.31-.29-.13-.11-.26-.22-.41-.33-.15-.11-.27-.19-.38-.26.56-.71,1.06-1.53,1.49-2.47.43-.94.81-1.95,1.13-3.04.32-1.09.59-2.2.8-3.33ZM280.3,201.97c.33,1.88.81,3.63,1.42,5.25s1.39,3.03,2.34,4.24c.95,1.21,2.1,2.13,3.46,2.77-.09.09-.2.2-.32.33-.12.13-.23.26-.34.41s-.2.28-.28.4c-1.4-.75-2.59-1.76-3.56-3.04-.97-1.28-1.77-2.78-2.4-4.5s-1.13-3.6-1.5-5.64l1.18-.22ZM279.76,200.75h7.56v1.26h-7.56v-1.26Z"/>
          <path class="cls-26" d="M289.04,203.71l.72-.98c.41.19.85.4,1.32.65.47.25.91.49,1.34.74.43.25.77.47,1.04.67l-.74,1.1c-.27-.2-.61-.43-1.03-.68-.42-.25-.86-.51-1.33-.78-.47-.27-.91-.51-1.32-.72ZM289.54,214.17c.37-.51.78-1.12,1.22-1.84.44-.72.89-1.48,1.34-2.29s.87-1.58,1.26-2.33l.98.88c-.35.69-.73,1.43-1.15,2.2s-.85,1.53-1.28,2.26c-.43.73-.84,1.41-1.23,2.04l-1.14-.92ZM290.26,198.23l.76-.96c.43.19.88.41,1.36.66.48.25.94.5,1.37.75.43.25.8.47,1.09.67l-.78,1.12c-.28-.21-.64-.45-1.07-.72s-.89-.54-1.37-.81c-.48-.27-.93-.51-1.36-.71ZM294.8,205.67c-.01-.09-.05-.22-.1-.38-.05-.16-.11-.32-.17-.49-.06-.17-.12-.3-.17-.41.2-.04.41-.18.63-.42.22-.24.47-.55.75-.92.15-.17.36-.46.64-.86.28-.4.6-.88.95-1.44s.71-1.16,1.07-1.8c.36-.64.69-1.29.98-1.96l1.38.44c-.48.92-1,1.83-1.55,2.74-.55.91-1.11,1.76-1.68,2.57s-1.14,1.54-1.71,2.19v.02c-.21.09-.38.18-.51.26-.13.08-.24.16-.35.24-.11.08-.16.15-.16.22ZM294.8,205.67l-.02-1.06.9-.5,9.52-.56c.01.2.05.41.1.64.05.23.1.41.14.56-1.81.13-3.33.24-4.55.32s-2.21.15-2.96.21c-.75.06-1.34.11-1.75.15-.41.04-.71.08-.9.12s-.35.08-.48.12ZM295.58,207.37h10.12v7.94h-1.36v-6.68h-7.46v6.76h-1.3v-8.02ZM296.34,213.23h8.76v1.26h-8.76v-1.26ZM301.68,200.25l1.14-.58c.55.59,1.1,1.22,1.65,1.91.55.69,1.06,1.36,1.51,2.02.45.66.81,1.25,1.08,1.77l-1.18.7c-.27-.53-.63-1.14-1.08-1.82-.45-.68-.95-1.37-1.49-2.07-.54-.7-1.08-1.34-1.63-1.93Z"/>
          <path class="cls-26" d="M309.04,203.65l.74-1c.41.17.86.38,1.33.62.47.24.92.48,1.34.73.42.25.76.48,1.03.71l-.76,1.12c-.25-.23-.59-.47-1-.74-.41-.27-.85-.53-1.32-.78-.47-.25-.92-.47-1.36-.66ZM309.72,214.17c.36-.51.76-1.12,1.21-1.84.45-.72.9-1.48,1.35-2.29s.87-1.58,1.24-2.33l.98.88c-.35.69-.73,1.43-1.15,2.2s-.84,1.53-1.27,2.26c-.43.73-.84,1.41-1.24,2.04l-1.12-.92ZM310.1,198.21l.74-.98c.44.19.9.4,1.38.64.48.24.94.49,1.37.74.43.25.79.49,1.07.72l-.78,1.14c-.27-.24-.61-.5-1.04-.77-.43-.27-.88-.54-1.35-.8-.47-.26-.94-.49-1.39-.69ZM314.96,205.57h11.94v1.28h-11.94v-1.28ZM315.84,214.63c-.01-.11-.05-.24-.1-.41s-.11-.33-.18-.5c-.07-.17-.13-.32-.18-.45.2-.04.4-.17.61-.4s.44-.53.69-.9c.13-.17.33-.47.59-.88.26-.41.55-.9.87-1.46.32-.56.64-1.16.97-1.8.33-.64.62-1.29.89-1.94l1.4.48c-.44.92-.91,1.83-1.41,2.73-.5.9-1.02,1.75-1.57,2.56-.55.81-1.09,1.53-1.62,2.17v.04c-.19.09-.34.18-.47.26s-.24.16-.34.25c-.1.09-.15.17-.15.25ZM315.84,214.63l-.04-1.06.8-.5,8.3-.94c-.01.17,0,.37.02.6.03.23.05.41.08.56-1.56.2-2.86.36-3.91.49-1.05.13-1.89.24-2.54.33-.65.09-1.15.17-1.5.22-.35.05-.62.1-.79.15-.17.05-.31.1-.42.15ZM315.86,200.55h10.22v1.28h-10.22v-1.28ZM320.2,197.01h1.34v9.38h-1.34v-9.38ZM322.3,209.53l1.06-.5c.48.57.95,1.2,1.42,1.89s.89,1.36,1.28,2.03.67,1.26.86,1.78l-1.16.6c-.19-.51-.46-1.1-.83-1.78-.37-.68-.78-1.37-1.24-2.07-.46-.7-.92-1.35-1.39-1.95Z"/>
          <path class="cls-26" d="M333.62,201.47l1.18.46c-.44.79-.95,1.56-1.53,2.33-.58.77-1.19,1.49-1.82,2.17-.63.68-1.27,1.28-1.91,1.8-.03-.09-.09-.22-.18-.38-.09-.16-.19-.32-.29-.48-.1-.16-.19-.29-.27-.4.6-.45,1.2-.97,1.79-1.56.59-.59,1.15-1.22,1.68-1.89.53-.67.98-1.36,1.35-2.05ZM333.34,197.09l1.28.48c-.37.56-.82,1.13-1.35,1.72-.53.59-1.08,1.14-1.67,1.66-.59.52-1.17.98-1.74,1.38-.05-.11-.12-.23-.21-.37s-.18-.27-.27-.4c-.09-.13-.18-.24-.26-.33.53-.35,1.07-.75,1.6-1.21.53-.46,1.03-.95,1.49-1.46.46-.51.84-1,1.13-1.47ZM331.9,204.83l1.22-1.22.04.02v11.68h-1.26v-10.48ZM334.56,210.99h12.6v1.18h-12.6v-1.18ZM334.86,202.15h12.48v1.18h-12.48v-1.18ZM335.46,208.01h10.7v1.16h-10.7v-1.16ZM335.82,199.19h10.04v7.14h-10.14v-1.16h8.84v-4.84h-8.74v-1.14ZM340.06,197.03h1.32v18.32h-1.32v-18.32Z"/>
          <path class="cls-26" d="M349.28,210.23h17.86v1.16h-17.86v-1.16ZM349.72,204.19h17v3.56h-1.34v-2.52h-14.38v2.52h-1.28v-3.56ZM354.8,197.21l.62.84c-.57.23-1.23.41-1.97.56s-1.41.26-2.01.34l-.5-.78c.39-.07.82-.16,1.29-.27.47-.11.94-.23,1.4-.36s.85-.24,1.17-.33ZM350.94,198.17l1.3.36.4,6.22h-1.26l-.44-6.58ZM351.68,199.91h3.62v.96h-3.62v-.96ZM351.78,202.03h3.62v.96h-3.62v-.96ZM352.96,206.69h9.58v1.04h-9.58v-1.04ZM357.72,209.31h1.3v4.56c0,.36-.05.63-.15.82-.1.19-.3.33-.61.44-.29.09-.7.14-1.22.15-.52,0-1.19,0-2,0-.03-.16-.09-.35-.18-.56-.09-.21-.19-.4-.28-.56.44.01.84.02,1.21.03.37,0,.69,0,.96,0s.46,0,.55,0c.16-.01.27-.04.33-.09.06-.05.09-.14.09-.27v-4.52ZM359.24,200.59l.98.3c-.48.63-1.08,1.23-1.8,1.81-.72.58-1.44,1.06-2.16,1.45-.08-.09-.2-.22-.36-.37s-.29-.28-.4-.37c.71-.33,1.4-.75,2.09-1.24.69-.49,1.24-1.02,1.65-1.58ZM359.18,197.21l.98.28c-.45.61-1.02,1.2-1.71,1.75s-1.37,1.02-2.05,1.39c-.08-.09-.2-.21-.36-.36-.16-.15-.3-.25-.42-.32.68-.35,1.35-.76,2-1.23.65-.47,1.17-.98,1.56-1.51ZM355.92,201.45l.7-.6c.45.21.93.46,1.42.74s.96.57,1.4.87.79.58,1.06.85l-.72.7c-.27-.28-.61-.57-1.04-.87-.43-.3-.88-.6-1.37-.9-.49-.3-.97-.56-1.45-.79ZM355.98,198.11l.68-.62c.45.19.92.41,1.39.68.47.27.93.53,1.36.8.43.27.78.53,1.05.78l-.7.68c-.27-.24-.61-.5-1.03-.79-.42-.29-.87-.56-1.35-.83-.48-.27-.95-.5-1.4-.7ZM362.22,206.69h.32l.28-.06.8.68c-.45.36-.97.71-1.56,1.04-.59.33-1.2.64-1.83.93-.63.29-1.25.54-1.85.75-.07-.12-.17-.25-.31-.39-.14-.14-.26-.25-.35-.33.53-.19,1.08-.41,1.65-.68s1.1-.55,1.61-.84.92-.57,1.24-.84v-.26ZM360.96,202.03h3.58v.96h-3.58v-.96ZM360.98,197.79h3.86v.96h-3.86v-.96ZM361.08,199.91h3.62v.96h-3.62v-.96ZM364.3,197.79h1.28c-.04.76-.09,1.57-.14,2.42-.05.85-.11,1.68-.18,2.49-.07.81-.13,1.5-.2,2.09h-1.3c.09-.6.17-1.31.24-2.12.07-.81.13-1.65.18-2.5.05-.85.09-1.65.12-2.38Z"/>
          <path class="cls-26" d="M374.06,209.77l1.34.48c-.39.52-.83,1.05-1.34,1.58s-1.03,1.03-1.57,1.49-1.07.87-1.59,1.23c-.08-.08-.19-.18-.34-.29-.15-.11-.29-.22-.44-.33s-.27-.19-.38-.26c.8-.49,1.59-1.09,2.37-1.78.78-.69,1.43-1.4,1.95-2.12ZM382.46,197.05l.98,1.06c-.81.37-1.74.73-2.77,1.07-1.03.34-2.13.66-3.28.96-1.15.3-2.33.58-3.52.84-1.19.26-2.36.5-3.51.71-.03-.17-.08-.37-.17-.58-.09-.21-.16-.39-.23-.54,1.12-.21,2.27-.45,3.44-.72,1.17-.27,2.32-.55,3.43-.85s2.15-.61,3.12-.94c.97-.33,1.8-.66,2.51-1.01ZM370.74,209.45c-.01-.11-.04-.24-.09-.4s-.1-.32-.16-.49c-.06-.17-.11-.31-.15-.43.31-.03.69-.12,1.14-.29.45-.17.99-.39,1.6-.67.33-.15.83-.38,1.49-.71.66-.33,1.41-.72,2.26-1.19s1.73-.98,2.64-1.55c.91-.57,1.78-1.16,2.61-1.79l1.04.88c-1.87,1.31-3.76,2.46-5.69,3.45-1.93.99-3.82,1.85-5.69,2.57v.04c-.2.07-.37.13-.5.18-.13.05-.25.12-.35.19-.1.07-.15.14-.15.21ZM370.74,209.45l-.04-1.04.98-.5,13.14-.9c-.03.19-.04.4-.04.63v.55c-2.03.15-3.77.27-5.23.38s-2.69.2-3.68.27-1.8.14-2.42.2-1.1.11-1.45.15-.61.08-.8.12c-.19.04-.34.09-.46.14ZM371.86,205.27c-.01-.09-.04-.22-.09-.38-.05-.16-.1-.32-.15-.49-.05-.17-.1-.31-.14-.43.21-.03.45-.09.72-.19.27-.1.56-.24.88-.41.23-.12.6-.34,1.13-.66.53-.32,1.11-.7,1.75-1.15.64-.45,1.25-.92,1.82-1.41l1.18.76c-.99.76-2.01,1.46-3.06,2.09-1.05.63-2.09,1.17-3.1,1.61v.04c-.19.08-.34.15-.47.21-.13.06-.24.13-.33.2-.09.07-.14.14-.14.21ZM371.86,205.27l-.02-.98.82-.42,7.5-.38c-.04.16-.07.35-.09.57-.02.22-.04.4-.05.53-1.37.08-2.52.15-3.45.21-.93.06-1.68.11-2.26.16s-1.03.09-1.35.12c-.32.03-.56.06-.71.09-.15.03-.28.06-.39.1ZM377.7,207.93h1.36v5.74c0,.39-.05.69-.16.9-.11.21-.31.37-.62.48s-.71.17-1.22.2-1.13.04-1.86.04c-.04-.2-.11-.43-.21-.68-.1-.25-.2-.47-.31-.66.41.01.8.03,1.16.04.36.01.67.02.93,0s.44-.02.53-.03c.17-.01.28-.04.33-.08.05-.04.07-.12.07-.24v-5.72ZM381,210.29l1.04-.7c.53.41,1.09.86,1.68,1.34.59.48,1.14.95,1.67,1.42.53.47.96.89,1.29,1.26l-1.12.78c-.32-.36-.74-.78-1.25-1.26-.51-.48-1.06-.97-1.63-1.47s-1.13-.96-1.68-1.37ZM381.54,205.03l1.1-.54c.51.45,1.02.95,1.55,1.48.53.53,1.02,1.05,1.47,1.56s.82.96,1.1,1.36l-1.14.68c-.27-.4-.63-.87-1.08-1.4s-.94-1.07-1.47-1.62c-.53-.55-1.04-1.05-1.53-1.52Z"/>
        </g>
      </g>
    </g>
  </g>
  <g id="c118">
    <g id="tx__hyf1owq54hs4-fill">
      <g class="cls-20">
        <g class="cls-20">
          <path class="cls-26" d="M271.34,170.81l1.28.32c-.29.79-.68,1.56-1.15,2.32-.47.76-.97,1.4-1.49,1.92-.07-.08-.17-.17-.31-.27-.14-.1-.28-.2-.42-.3-.14-.1-.26-.18-.37-.23.52-.48,1-1.05,1.43-1.71.43-.66.78-1.34,1.03-2.05ZM269.92,157.79h6.98v12.52h-6.98v-12.52ZM271.2,158.93v2.68h4.38v-2.68h-4.38ZM271.2,162.67v2.72h4.38v-2.72h-4.38ZM271.2,166.45v2.74h4.38v-2.74h-4.38ZM274.2,171.31l1.08-.52c.43.49.85,1.04,1.26,1.64.41.6.72,1.13.92,1.58l-1.14.6c-.21-.45-.52-.99-.92-1.62s-.8-1.19-1.2-1.68ZM283.18,162.31l1.08.32c-.44,1.28-.99,2.53-1.64,3.74s-1.37,2.32-2.15,3.31c-.78.99-1.58,1.82-2.41,2.49-.12-.16-.27-.34-.45-.53-.18-.19-.34-.35-.49-.47.61-.43,1.22-.96,1.81-1.61.59-.65,1.15-1.36,1.68-2.15s1.01-1.62,1.45-2.49c.44-.87.81-1.74,1.12-2.61ZM277.54,161.79h9.84v1.26h-9.84v-1.26ZM283.42,157.09h1.32v16.52c0,.43-.06.75-.18.98s-.32.39-.6.5c-.27.11-.64.18-1.12.22-.48.04-1.11.06-1.88.06-.03-.19-.08-.41-.17-.66s-.19-.47-.31-.66c.59.01,1.11.02,1.57.02h.91c.17-.01.29-.05.36-.12.07-.07.1-.18.1-.34v-16.52Z"/>
          <path class="cls-26" d="M289.92,169.83l1.16.2c-.12.88-.27,1.77-.46,2.66-.19.89-.39,1.65-.6,2.28-.08-.04-.19-.09-.33-.14-.14-.05-.28-.11-.42-.16s-.26-.09-.35-.12c.24-.61.44-1.35.6-2.2.16-.85.29-1.69.4-2.52ZM289.36,164.43c-.03-.09-.06-.22-.11-.37-.05-.15-.1-.31-.15-.46-.05-.15-.11-.28-.16-.39.17-.04.35-.16.53-.36.18-.2.37-.45.57-.76.16-.2.4-.56.72-1.09.32-.53.66-1.14,1.02-1.85.36-.71.68-1.43.96-2.16l1.22.52c-.53,1.12-1.12,2.23-1.77,3.33-.65,1.1-1.3,2.06-1.97,2.87v.02c-.17.09-.32.18-.44.25s-.22.15-.3.22-.12.15-.12.23ZM289.5,168.91c-.03-.09-.07-.21-.12-.36-.05-.15-.11-.3-.16-.47-.05-.17-.11-.3-.16-.41.21-.04.43-.18.66-.42.23-.24.49-.55.8-.92.15-.19.38-.49.69-.9.31-.41.66-.91,1.05-1.48s.78-1.19,1.17-1.85c.39-.66.75-1.33,1.07-2.01l1.16.66c-.51.91-1.05,1.81-1.63,2.71s-1.18,1.75-1.79,2.55-1.24,1.53-1.88,2.18v.04c-.16.08-.3.16-.43.23-.13.07-.23.15-.31.23s-.12.15-.12.22ZM289.36,164.43l-.02-1,.66-.4,3.56-.32c-.04.16-.07.35-.08.56-.01.21-.02.39-.02.54-.81.09-1.47.17-1.97.23s-.89.11-1.17.16-.49.09-.63.12-.25.07-.33.11ZM289.5,168.91l-.04-1,.66-.44,4.94-.64c-.03.16-.04.35-.05.56,0,.21,0,.39,0,.52-1.13.16-2.04.3-2.73.41s-1.22.21-1.59.28c-.37.07-.64.13-.81.18-.17.05-.3.09-.39.13ZM291.96,169.99l1.06-.2c.12.68.23,1.42.34,2.21.11.79.17,1.48.2,2.05l-1.1.22c-.01-.59-.07-1.28-.17-2.07-.1-.79-.21-1.53-.33-2.21ZM293.76,164.85l1.04-.28c.19.44.37.91.55,1.42s.34,1,.49,1.47c.15.47.25.89.32,1.25l-1.12.36c-.07-.36-.17-.78-.3-1.26-.13-.48-.28-.98-.45-1.5-.17-.52-.34-1.01-.53-1.46ZM293.86,169.59l.98-.3c.2.55.41,1.14.62,1.78.21.64.37,1.19.46,1.66l-1.06.34c-.08-.47-.22-1.03-.41-1.68-.19-.65-.39-1.25-.59-1.8ZM295.74,173.65h11.5v1.24h-11.5v-1.24ZM298.38,159.99l1.18.32c-.25.51-.56,1.06-.93,1.66-.37.6-.72,1.16-1.05,1.68.45.59.88,1.21,1.29,1.86.41.65.72,1.21.93,1.66l-1.12.5c-.21-.52-.54-1.14-.98-1.87-.44-.73-.93-1.44-1.46-2.13.27-.41.54-.84.81-1.29.27-.45.53-.88.76-1.3s.42-.78.57-1.09ZM296.44,158.05h10.62v1.22h-10.62v-1.22ZM296.88,168.41h9.56v1.22h-9.56v-1.22ZM301.88,159.99l1.18.34c-.27.49-.59,1.04-.97,1.64-.38.6-.74,1.15-1.07,1.66.31.39.61.79.9,1.22.29.43.57.84.82,1.23s.45.74.6,1.05l-1.12.5c-.23-.52-.57-1.14-1.03-1.86-.46-.72-.96-1.42-1.51-2.1.28-.41.56-.84.84-1.28.28-.44.54-.87.78-1.29.24-.42.43-.79.58-1.11ZM300.96,168.99h1.34v5.42h-1.34v-5.42ZM305.34,159.99l1.2.32c-.29.51-.63,1.06-1.01,1.66-.38.6-.74,1.16-1.07,1.68.32.37.63.77.94,1.2.31.43.59.84.86,1.23.27.39.48.74.64,1.05l-1.12.54c-.24-.52-.61-1.14-1.1-1.87-.49-.73-1.03-1.44-1.6-2.13.29-.4.58-.82.86-1.27.28-.45.54-.88.79-1.31.25-.43.45-.79.61-1.1Z"/>
          <path class="cls-26" d="M309.04,163.65l.74-1c.41.17.86.38,1.33.62.47.24.92.48,1.34.73.42.25.76.48,1.03.71l-.76,1.12c-.25-.23-.59-.47-1-.74-.41-.27-.85-.53-1.32-.78-.47-.25-.92-.47-1.36-.66ZM309.72,174.17c.36-.51.76-1.12,1.21-1.84.45-.72.9-1.48,1.35-2.29s.87-1.58,1.24-2.33l.98.88c-.35.69-.73,1.43-1.15,2.2s-.84,1.53-1.27,2.26c-.43.73-.84,1.41-1.24,2.04l-1.12-.92ZM310.1,158.21l.74-.98c.44.19.9.4,1.38.64.48.24.94.49,1.37.74.43.25.79.49,1.07.72l-.78,1.14c-.27-.24-.61-.5-1.04-.77-.43-.27-.88-.54-1.35-.8-.47-.26-.94-.49-1.39-.69ZM314.96,165.57h11.94v1.28h-11.94v-1.28ZM315.84,174.63c-.01-.11-.05-.24-.1-.41s-.11-.33-.18-.5c-.07-.17-.13-.32-.18-.45.2-.04.4-.17.61-.4s.44-.53.69-.9c.13-.17.33-.47.59-.88.26-.41.55-.9.87-1.46.32-.56.64-1.16.97-1.8.33-.64.62-1.29.89-1.94l1.4.48c-.44.92-.91,1.83-1.41,2.73-.5.9-1.02,1.75-1.57,2.56-.55.81-1.09,1.53-1.62,2.17v.04c-.19.09-.34.18-.47.26s-.24.16-.34.25c-.1.09-.15.17-.15.25ZM315.84,174.63l-.04-1.06.8-.5,8.3-.94c-.01.17,0,.37.02.6.03.23.05.41.08.56-1.56.2-2.86.36-3.91.49-1.05.13-1.89.24-2.54.33-.65.09-1.15.17-1.5.22-.35.05-.62.1-.79.15-.17.05-.31.1-.42.15ZM315.86,160.55h10.22v1.28h-10.22v-1.28ZM320.2,157.01h1.34v9.38h-1.34v-9.38ZM322.3,169.53l1.06-.5c.48.57.95,1.2,1.42,1.89s.89,1.36,1.28,2.03.67,1.26.86,1.78l-1.16.6c-.19-.51-.46-1.1-.83-1.78-.37-.68-.78-1.37-1.24-2.07-.46-.7-.92-1.35-1.39-1.95Z"/>
          <path class="cls-26" d="M333.62,161.47l1.18.46c-.44.79-.95,1.56-1.53,2.33-.58.77-1.19,1.49-1.82,2.17-.63.68-1.27,1.28-1.91,1.8-.03-.09-.09-.22-.18-.38-.09-.16-.19-.32-.29-.48-.1-.16-.19-.29-.27-.4.6-.45,1.2-.97,1.79-1.56.59-.59,1.15-1.22,1.68-1.89.53-.67.98-1.36,1.35-2.05ZM333.34,157.09l1.28.48c-.37.56-.82,1.13-1.35,1.72-.53.59-1.08,1.14-1.67,1.66-.59.52-1.17.98-1.74,1.38-.05-.11-.12-.23-.21-.37s-.18-.27-.27-.4c-.09-.13-.18-.24-.26-.33.53-.35,1.07-.75,1.6-1.21.53-.46,1.03-.95,1.49-1.46.46-.51.84-1,1.13-1.47ZM331.9,164.83l1.22-1.22.04.02v11.68h-1.26v-10.48ZM334.56,170.99h12.6v1.18h-12.6v-1.18ZM334.86,162.15h12.48v1.18h-12.48v-1.18ZM335.46,168.01h10.7v1.16h-10.7v-1.16ZM335.82,159.19h10.04v7.14h-10.14v-1.16h8.84v-4.84h-8.74v-1.14ZM340.06,157.03h1.32v18.32h-1.32v-18.32Z"/>
          <path class="cls-26" d="M349.28,170.23h17.86v1.16h-17.86v-1.16ZM349.72,164.19h17v3.56h-1.34v-2.52h-14.38v2.52h-1.28v-3.56ZM354.8,157.21l.62.84c-.57.23-1.23.41-1.97.56s-1.41.26-2.01.34l-.5-.78c.39-.07.82-.16,1.29-.27.47-.11.94-.23,1.4-.36s.85-.24,1.17-.33ZM350.94,158.17l1.3.36.4,6.22h-1.26l-.44-6.58ZM351.68,159.91h3.62v.96h-3.62v-.96ZM351.78,162.03h3.62v.96h-3.62v-.96ZM352.96,166.69h9.58v1.04h-9.58v-1.04ZM357.72,169.31h1.3v4.56c0,.36-.05.63-.15.82-.1.19-.3.33-.61.44-.29.09-.7.14-1.22.15-.52,0-1.19,0-2,0-.03-.16-.09-.35-.18-.56-.09-.21-.19-.4-.28-.56.44.01.84.02,1.21.03.37,0,.69,0,.96,0s.46,0,.55,0c.16-.01.27-.04.33-.09.06-.05.09-.14.09-.27v-4.52ZM359.24,160.59l.98.3c-.48.63-1.08,1.23-1.8,1.81-.72.58-1.44,1.06-2.16,1.45-.08-.09-.2-.22-.36-.37s-.29-.28-.4-.37c.71-.33,1.4-.75,2.09-1.24.69-.49,1.24-1.02,1.65-1.58ZM359.18,157.21l.98.28c-.45.61-1.02,1.2-1.71,1.75s-1.37,1.02-2.05,1.39c-.08-.09-.2-.21-.36-.36-.16-.15-.3-.25-.42-.32.68-.35,1.35-.76,2-1.23.65-.47,1.17-.98,1.56-1.51ZM355.92,161.45l.7-.6c.45.21.93.46,1.42.74s.96.57,1.4.87.79.58,1.06.85l-.72.7c-.27-.28-.61-.57-1.04-.87-.43-.3-.88-.6-1.37-.9-.49-.3-.97-.56-1.45-.79ZM355.98,158.11l.68-.62c.45.19.92.41,1.39.68.47.27.93.53,1.36.8.43.27.78.53,1.05.78l-.7.68c-.27-.24-.61-.5-1.03-.79-.42-.29-.87-.56-1.35-.83-.48-.27-.95-.5-1.4-.7ZM362.22,166.69h.32l.28-.06.8.68c-.45.36-.97.71-1.56,1.04-.59.33-1.2.64-1.83.93-.63.29-1.25.54-1.85.75-.07-.12-.17-.25-.31-.39-.14-.14-.26-.25-.35-.33.53-.19,1.08-.41,1.65-.68s1.1-.55,1.61-.84.92-.57,1.24-.84v-.26ZM360.96,162.03h3.58v.96h-3.58v-.96ZM360.98,157.79h3.86v.96h-3.86v-.96ZM361.08,159.91h3.62v.96h-3.62v-.96ZM364.3,157.79h1.28c-.04.76-.09,1.57-.14,2.42-.05.85-.11,1.68-.18,2.49-.07.81-.13,1.5-.2,2.09h-1.3c.09-.6.17-1.31.24-2.12.07-.81.13-1.65.18-2.5.05-.85.09-1.65.12-2.38Z"/>
          <path class="cls-26" d="M374.06,169.77l1.34.48c-.39.52-.83,1.05-1.34,1.58s-1.03,1.03-1.57,1.49-1.07.87-1.59,1.23c-.08-.08-.19-.18-.34-.29-.15-.11-.29-.22-.44-.33s-.27-.19-.38-.26c.8-.49,1.59-1.09,2.37-1.78.78-.69,1.43-1.4,1.95-2.12ZM382.46,157.05l.98,1.06c-.81.37-1.74.73-2.77,1.07-1.03.34-2.13.66-3.28.96-1.15.3-2.33.58-3.52.84-1.19.26-2.36.5-3.51.71-.03-.17-.08-.37-.17-.58-.09-.21-.16-.39-.23-.54,1.12-.21,2.27-.45,3.44-.72,1.17-.27,2.32-.55,3.43-.85s2.15-.61,3.12-.94c.97-.33,1.8-.66,2.51-1.01ZM370.74,169.45c-.01-.11-.04-.24-.09-.4s-.1-.32-.16-.49c-.06-.17-.11-.31-.15-.43.31-.03.69-.12,1.14-.29.45-.17.99-.39,1.6-.67.33-.15.83-.38,1.49-.71.66-.33,1.41-.72,2.26-1.19s1.73-.98,2.64-1.55c.91-.57,1.78-1.16,2.61-1.79l1.04.88c-1.87,1.31-3.76,2.46-5.69,3.45-1.93.99-3.82,1.85-5.69,2.57v.04c-.2.07-.37.13-.5.18-.13.05-.25.12-.35.19-.1.07-.15.14-.15.21ZM370.74,169.45l-.04-1.04.98-.5,13.14-.9c-.03.19-.04.4-.04.63v.55c-2.03.15-3.77.27-5.23.38s-2.69.2-3.68.27-1.8.14-2.42.2-1.1.11-1.45.15-.61.08-.8.12c-.19.04-.34.09-.46.14ZM371.86,165.27c-.01-.09-.04-.22-.09-.38-.05-.16-.1-.32-.15-.49-.05-.17-.1-.31-.14-.43.21-.03.45-.09.72-.19.27-.1.56-.24.88-.41.23-.12.6-.34,1.13-.66.53-.32,1.11-.7,1.75-1.15.64-.45,1.25-.92,1.82-1.41l1.18.76c-.99.76-2.01,1.46-3.06,2.09-1.05.63-2.09,1.17-3.1,1.61v.04c-.19.08-.34.15-.47.21-.13.06-.24.13-.33.2-.09.07-.14.14-.14.21ZM371.86,165.27l-.02-.98.82-.42,7.5-.38c-.04.16-.07.35-.09.57-.02.22-.04.4-.05.53-1.37.08-2.52.15-3.45.21-.93.06-1.68.11-2.26.16s-1.03.09-1.35.12c-.32.03-.56.06-.71.09-.15.03-.28.06-.39.1ZM377.7,167.93h1.36v5.74c0,.39-.05.69-.16.9-.11.21-.31.37-.62.48s-.71.17-1.22.2-1.13.04-1.86.04c-.04-.2-.11-.43-.21-.68-.1-.25-.2-.47-.31-.66.41.01.8.03,1.16.04.36.01.67.02.93,0s.44-.02.53-.03c.17-.01.28-.04.33-.08.05-.04.07-.12.07-.24v-5.72ZM381,170.29l1.04-.7c.53.41,1.09.86,1.68,1.34.59.48,1.14.95,1.67,1.42.53.47.96.89,1.29,1.26l-1.12.78c-.32-.36-.74-.78-1.25-1.26-.51-.48-1.06-.97-1.63-1.47s-1.13-.96-1.68-1.37ZM381.54,165.03l1.1-.54c.51.45,1.02.95,1.55,1.48.53.53,1.02,1.05,1.47,1.56s.82.96,1.1,1.36l-1.14.68c-.27-.4-.63-.87-1.08-1.4s-.94-1.07-1.47-1.62c-.53-.55-1.04-1.05-1.53-1.52Z"/>
        </g>
      </g>
    </g>
  </g>
  <g id="c117">
    <g id="tx__mdm2q8q54k5n-fill">
      <g class="cls-20">
        <g class="cls-20">
          <path class="cls-26" d="M269.04,124.05l.74-.92c.39.17.79.37,1.21.6s.81.46,1.18.69c.37.23.67.46.91.67l-.76,1.04c-.23-.21-.53-.45-.9-.7-.37-.25-.77-.5-1.18-.74-.41-.24-.81-.45-1.2-.64ZM269.64,134.27c.28-.53.58-1.16.91-1.88.33-.72.65-1.48.98-2.29.33-.81.62-1.59.89-2.35l1.02.74c-.24.71-.51,1.44-.81,2.21-.3.77-.61,1.52-.92,2.27-.31.75-.61,1.43-.89,2.06l-1.18-.76ZM270.08,118.21l.78-.92c.4.17.82.38,1.26.61.44.23.86.47,1.26.72.4.25.72.48.96.69l-.78,1.02c-.25-.21-.57-.45-.96-.71s-.8-.51-1.24-.76c-.44-.25-.87-.46-1.28-.65ZM277.06,117.01l1.3.32c-.28.84-.61,1.67-.98,2.48-.37.81-.78,1.57-1.21,2.28-.43.71-.88,1.33-1.35,1.88-.08-.07-.19-.15-.34-.24-.15-.09-.29-.19-.44-.28s-.27-.17-.38-.22c.48-.51.93-1.09,1.36-1.76.43-.67.81-1.38,1.16-2.14s.64-1.53.88-2.32ZM273.86,126.75h13.54v1.24h-13.54v-1.24ZM276.4,122.59h1.28c-.09.79-.2,1.63-.31,2.52s-.23,1.79-.35,2.68-.24,1.74-.36,2.54-.23,1.5-.34,2.1h-1.32c.13-.61.27-1.33.4-2.14.13-.81.26-1.67.38-2.56.12-.89.24-1.78.35-2.67.11-.89.2-1.71.27-2.47ZM275.7,131.25h11.14v1.18h-11.14v-1.18ZM276.54,119.33h10.38v1.24h-10.38v-1.24ZM277.02,122.59h8.12v1.18h-8.12v-1.18ZM278.78,128.61l.8-.5c.47.36.93.77,1.4,1.23s.82.88,1.06,1.25l-.82.58c-.25-.37-.61-.8-1.06-1.28-.45-.48-.91-.91-1.38-1.28ZM279.3,124.35l.78-.52c.44.32.88.7,1.32,1.13.44.43.78.82,1.02,1.15l-.82.58c-.21-.33-.54-.72-.98-1.17-.44-.45-.88-.84-1.32-1.17ZM284.72,122.59h1.26c-.01.17-.02.31-.02.42v.26c-.08,1.93-.16,3.57-.25,4.92-.09,1.35-.18,2.44-.28,3.29-.1.85-.21,1.51-.34,1.98-.13.47-.28.82-.45,1.03-.19.24-.39.4-.61.49-.22.09-.48.15-.77.19-.28.03-.65.03-1.11.02-.46-.01-.94-.03-1.43-.06-.01-.17-.05-.37-.11-.59-.06-.22-.14-.42-.25-.59.53.05,1.02.09,1.46.1.44.01.75.02.94.02s.33-.02.44-.06.21-.11.32-.22c.15-.16.28-.47.39-.93s.22-1.11.32-1.95.19-1.92.27-3.23c.08-1.31.15-2.92.22-4.81v-.28Z"/>
          <path class="cls-26" d="M289.08,123.75l.76-.96c.43.19.88.41,1.36.66.48.25.93.51,1.36.78s.77.51,1.04.74l-.78,1.08c-.27-.23-.61-.48-1.04-.75-.43-.27-.87-.55-1.34-.82s-.92-.52-1.36-.73ZM289.48,134.05c.33-.53.7-1.16,1.09-1.87.39-.71.79-1.47,1.19-2.27.4-.8.77-1.58,1.1-2.34l1.06.82c-.31.71-.64,1.44-1.01,2.21-.37.77-.74,1.52-1.13,2.25-.39.73-.75,1.41-1.1,2.04l-1.2-.84ZM290,118.37l.8-.94c.43.23.87.48,1.33.77s.9.58,1.32.87.76.56,1.01.8l-.84,1.06c-.25-.25-.59-.53-1-.84s-.85-.61-1.3-.92-.89-.57-1.32-.8ZM294.54,129.39h12.8v1.28h-12.8v-1.28ZM295.14,120.77h11.7v1.26h-11.7v-1.26ZM295.76,125.05h10.48v1.26h-10.48v-1.26ZM296.58,117.49l1.18-.48c.39.51.76,1.07,1.13,1.68.37.61.63,1.15.79,1.6l-1.24.56c-.11-.31-.26-.65-.45-1.04-.19-.39-.41-.78-.65-1.19-.24-.41-.49-.78-.76-1.13ZM300.22,121.53h1.36v13.82h-1.36v-13.82ZM304.16,116.95l1.32.48c-.23.44-.47.9-.73,1.39-.26.49-.53.95-.8,1.39-.27.44-.53.83-.77,1.18l-1.1-.42c.24-.36.49-.77.75-1.24.26-.47.51-.95.74-1.44s.43-.94.59-1.34Z"/>
          <path class="cls-26" d="M309.04,123.65l.74-1c.41.17.86.38,1.33.62.47.24.92.48,1.34.73.42.25.76.48,1.03.71l-.76,1.12c-.25-.23-.59-.47-1-.74-.41-.27-.85-.53-1.32-.78-.47-.25-.92-.47-1.36-.66ZM309.72,134.17c.36-.51.76-1.12,1.21-1.84.45-.72.9-1.48,1.35-2.29s.87-1.58,1.24-2.33l.98.88c-.35.69-.73,1.43-1.15,2.2s-.84,1.53-1.27,2.26c-.43.73-.84,1.41-1.24,2.04l-1.12-.92ZM310.1,118.21l.74-.98c.44.19.9.4,1.38.64.48.24.94.49,1.37.74.43.25.79.49,1.07.72l-.78,1.14c-.27-.24-.61-.5-1.04-.77-.43-.27-.88-.54-1.35-.8-.47-.26-.94-.49-1.39-.69ZM314.96,125.57h11.94v1.28h-11.94v-1.28ZM315.84,134.63c-.01-.11-.05-.24-.1-.41s-.11-.33-.18-.5c-.07-.17-.13-.32-.18-.45.2-.04.4-.17.61-.4s.44-.53.69-.9c.13-.17.33-.47.59-.88.26-.41.55-.9.87-1.46.32-.56.64-1.16.97-1.8.33-.64.62-1.29.89-1.94l1.4.48c-.44.92-.91,1.83-1.41,2.73-.5.9-1.02,1.75-1.57,2.56-.55.81-1.09,1.53-1.62,2.17v.04c-.19.09-.34.18-.47.26s-.24.16-.34.25c-.1.09-.15.17-.15.25ZM315.84,134.63l-.04-1.06.8-.5,8.3-.94c-.01.17,0,.37.02.6.03.23.05.41.08.56-1.56.2-2.86.36-3.91.49-1.05.13-1.89.24-2.54.33-.65.09-1.15.17-1.5.22-.35.05-.62.1-.79.15-.17.05-.31.1-.42.15ZM315.86,120.55h10.22v1.28h-10.22v-1.28ZM320.2,117.01h1.34v9.38h-1.34v-9.38ZM322.3,129.53l1.06-.5c.48.57.95,1.2,1.42,1.89s.89,1.36,1.28,2.03.67,1.26.86,1.78l-1.16.6c-.19-.51-.46-1.1-.83-1.78-.37-.68-.78-1.37-1.24-2.07-.46-.7-.92-1.35-1.39-1.95Z"/>
          <path class="cls-26" d="M333.62,121.47l1.18.46c-.44.79-.95,1.56-1.53,2.33-.58.77-1.19,1.49-1.82,2.17-.63.68-1.27,1.28-1.91,1.8-.03-.09-.09-.22-.18-.38-.09-.16-.19-.32-.29-.48-.1-.16-.19-.29-.27-.4.6-.45,1.2-.97,1.79-1.56.59-.59,1.15-1.22,1.68-1.89.53-.67.98-1.36,1.35-2.05ZM333.34,117.09l1.28.48c-.37.56-.82,1.13-1.35,1.72-.53.59-1.08,1.14-1.67,1.66-.59.52-1.17.98-1.74,1.38-.05-.11-.12-.23-.21-.37s-.18-.27-.27-.4c-.09-.13-.18-.24-.26-.33.53-.35,1.07-.75,1.6-1.21.53-.46,1.03-.95,1.49-1.46.46-.51.84-1,1.13-1.47ZM331.9,124.83l1.22-1.22.04.02v11.68h-1.26v-10.48ZM334.56,130.99h12.6v1.18h-12.6v-1.18ZM334.86,122.15h12.48v1.18h-12.48v-1.18ZM335.46,128.01h10.7v1.16h-10.7v-1.16ZM335.82,119.19h10.04v7.14h-10.14v-1.16h8.84v-4.84h-8.74v-1.14ZM340.06,117.03h1.32v18.32h-1.32v-18.32Z"/>
          <path class="cls-26" d="M349.28,130.23h17.86v1.16h-17.86v-1.16ZM349.72,124.19h17v3.56h-1.34v-2.52h-14.38v2.52h-1.28v-3.56ZM354.8,117.21l.62.84c-.57.23-1.23.41-1.97.56s-1.41.26-2.01.34l-.5-.78c.39-.07.82-.16,1.29-.27.47-.11.94-.23,1.4-.36s.85-.24,1.17-.33ZM350.94,118.17l1.3.36.4,6.22h-1.26l-.44-6.58ZM351.68,119.91h3.62v.96h-3.62v-.96ZM351.78,122.03h3.62v.96h-3.62v-.96ZM352.96,126.69h9.58v1.04h-9.58v-1.04ZM357.72,129.31h1.3v4.56c0,.36-.05.63-.15.82-.1.19-.3.33-.61.44-.29.09-.7.14-1.22.15-.52,0-1.19,0-2,0-.03-.16-.09-.35-.18-.56-.09-.21-.19-.4-.28-.56.44.01.84.02,1.21.03.37,0,.69,0,.96,0s.46,0,.55,0c.16-.01.27-.04.33-.09.06-.05.09-.14.09-.27v-4.52ZM359.24,120.59l.98.3c-.48.63-1.08,1.23-1.8,1.81-.72.58-1.44,1.06-2.16,1.45-.08-.09-.2-.22-.36-.37s-.29-.28-.4-.37c.71-.33,1.4-.75,2.09-1.24.69-.49,1.24-1.02,1.65-1.58ZM359.18,117.21l.98.28c-.45.61-1.02,1.2-1.71,1.75s-1.37,1.02-2.05,1.39c-.08-.09-.2-.21-.36-.36-.16-.15-.3-.25-.42-.32.68-.35,1.35-.76,2-1.23.65-.47,1.17-.98,1.56-1.51ZM355.92,121.45l.7-.6c.45.21.93.46,1.42.74s.96.57,1.4.87.79.58,1.06.85l-.72.7c-.27-.28-.61-.57-1.04-.87-.43-.3-.88-.6-1.37-.9-.49-.3-.97-.56-1.45-.79ZM355.98,118.11l.68-.62c.45.19.92.41,1.39.68.47.27.93.53,1.36.8.43.27.78.53,1.05.78l-.7.68c-.27-.24-.61-.5-1.03-.79-.42-.29-.87-.56-1.35-.83-.48-.27-.95-.5-1.4-.7ZM362.22,126.69h.32l.28-.06.8.68c-.45.36-.97.71-1.56,1.04-.59.33-1.2.64-1.83.93-.63.29-1.25.54-1.85.75-.07-.12-.17-.25-.31-.39-.14-.14-.26-.25-.35-.33.53-.19,1.08-.41,1.65-.68s1.1-.55,1.61-.84.92-.57,1.24-.84v-.26ZM360.96,122.03h3.58v.96h-3.58v-.96ZM360.98,117.79h3.86v.96h-3.86v-.96ZM361.08,119.91h3.62v.96h-3.62v-.96ZM364.3,117.79h1.28c-.04.76-.09,1.57-.14,2.42-.05.85-.11,1.68-.18,2.49-.07.81-.13,1.5-.2,2.09h-1.3c.09-.6.17-1.31.24-2.12.07-.81.13-1.65.18-2.5.05-.85.09-1.65.12-2.38Z"/>
          <path class="cls-26" d="M374.06,129.77l1.34.48c-.39.52-.83,1.05-1.34,1.58s-1.03,1.03-1.57,1.49-1.07.87-1.59,1.23c-.08-.08-.19-.18-.34-.29-.15-.11-.29-.22-.44-.33s-.27-.19-.38-.26c.8-.49,1.59-1.09,2.37-1.78.78-.69,1.43-1.4,1.95-2.12ZM382.46,117.05l.98,1.06c-.81.37-1.74.73-2.77,1.07-1.03.34-2.13.66-3.28.96-1.15.3-2.33.58-3.52.84-1.19.26-2.36.5-3.51.71-.03-.17-.08-.37-.17-.58-.09-.21-.16-.39-.23-.54,1.12-.21,2.27-.45,3.44-.72,1.17-.27,2.32-.55,3.43-.85s2.15-.61,3.12-.94c.97-.33,1.8-.66,2.51-1.01ZM370.74,129.45c-.01-.11-.04-.24-.09-.4s-.1-.32-.16-.49c-.06-.17-.11-.31-.15-.43.31-.03.69-.12,1.14-.29.45-.17.99-.39,1.6-.67.33-.15.83-.38,1.49-.71.66-.33,1.41-.72,2.26-1.19s1.73-.98,2.64-1.55c.91-.57,1.78-1.16,2.61-1.79l1.04.88c-1.87,1.31-3.76,2.46-5.69,3.45-1.93.99-3.82,1.85-5.69,2.57v.04c-.2.07-.37.13-.5.18-.13.05-.25.12-.35.19-.1.07-.15.14-.15.21ZM370.74,129.45l-.04-1.04.98-.5,13.14-.9c-.03.19-.04.4-.04.63v.55c-2.03.15-3.77.27-5.23.38s-2.69.2-3.68.27-1.8.14-2.42.2-1.1.11-1.45.15-.61.08-.8.12c-.19.04-.34.09-.46.14ZM371.86,125.27c-.01-.09-.04-.22-.09-.38-.05-.16-.1-.32-.15-.49-.05-.17-.1-.31-.14-.43.21-.03.45-.09.72-.19.27-.1.56-.24.88-.41.23-.12.6-.34,1.13-.66.53-.32,1.11-.7,1.75-1.15.64-.45,1.25-.92,1.82-1.41l1.18.76c-.99.76-2.01,1.46-3.06,2.09-1.05.63-2.09,1.17-3.1,1.61v.04c-.19.08-.34.15-.47.21-.13.06-.24.13-.33.2-.09.07-.14.14-.14.21ZM371.86,125.27l-.02-.98.82-.42,7.5-.38c-.04.16-.07.35-.09.57-.02.22-.04.4-.05.53-1.37.08-2.52.15-3.45.21-.93.06-1.68.11-2.26.16s-1.03.09-1.35.12c-.32.03-.56.06-.71.09-.15.03-.28.06-.39.1ZM377.7,127.93h1.36v5.74c0,.39-.05.69-.16.9-.11.21-.31.37-.62.48s-.71.17-1.22.2-1.13.04-1.86.04c-.04-.2-.11-.43-.21-.68-.1-.25-.2-.47-.31-.66.41.01.8.03,1.16.04.36.01.67.02.93,0s.44-.02.53-.03c.17-.01.28-.04.33-.08.05-.04.07-.12.07-.24v-5.72ZM381,130.29l1.04-.7c.53.41,1.09.86,1.68,1.34.59.48,1.14.95,1.67,1.42.53.47.96.89,1.29,1.26l-1.12.78c-.32-.36-.74-.78-1.25-1.26-.51-.48-1.06-.97-1.63-1.47s-1.13-.96-1.68-1.37ZM381.54,125.03l1.1-.54c.51.45,1.02.95,1.55,1.48.53.53,1.02,1.05,1.47,1.56s.82.96,1.1,1.36l-1.14.68c-.27-.4-.63-.87-1.08-1.4s-.94-1.07-1.47-1.62c-.53-.55-1.04-1.05-1.53-1.52Z"/>
        </g>
      </g>
    </g>
  </g>
  <g id="c116">
    <g id="tx__zp2l3kq54ikq-fill">
      <g class="cls-20">
        <g class="cls-20">
          <path class="cls-26" d="M743.86,143.86l.74-1c.41.17.86.38,1.33.62.47.24.92.48,1.34.73.42.25.76.48,1.03.71l-.76,1.12c-.25-.23-.59-.47-1-.74-.41-.27-.85-.53-1.32-.78-.47-.25-.92-.47-1.36-.66ZM744.54,154.38c.36-.51.76-1.12,1.21-1.84s.9-1.48,1.35-2.29c.45-.81.87-1.58,1.24-2.33l.98.88c-.35.69-.73,1.43-1.15,2.2s-.84,1.53-1.27,2.26c-.43.73-.84,1.41-1.24,2.04l-1.12-.92ZM744.92,138.42l.74-.98c.44.19.9.4,1.38.64s.94.49,1.37.74c.43.25.79.49,1.07.72l-.78,1.14c-.27-.24-.61-.5-1.04-.77-.43-.27-.88-.54-1.35-.8-.47-.26-.94-.49-1.39-.69ZM749.78,145.78h11.94v1.28h-11.94v-1.28ZM750.66,154.84c-.01-.11-.05-.24-.1-.41-.05-.17-.11-.33-.18-.5-.07-.17-.13-.32-.18-.45.2-.04.4-.17.61-.4.21-.23.44-.53.69-.9.13-.17.33-.47.59-.88.26-.41.55-.9.87-1.46.32-.56.64-1.16.97-1.8.33-.64.62-1.29.89-1.94l1.4.48c-.44.92-.91,1.83-1.41,2.73-.5.9-1.02,1.75-1.57,2.56-.55.81-1.09,1.53-1.62,2.17v.04c-.19.09-.34.18-.47.26-.13.08-.24.16-.34.25s-.15.17-.15.25ZM750.66,154.84l-.04-1.06.8-.5,8.3-.94c-.01.17,0,.37.02.6.03.23.05.41.08.56-1.56.2-2.86.36-3.91.49-1.05.13-1.89.24-2.54.33-.65.09-1.15.17-1.5.22-.35.05-.62.1-.79.15-.17.05-.31.1-.42.15ZM750.68,140.76h10.22v1.28h-10.22v-1.28ZM755.02,137.22h1.34v9.38h-1.34v-9.38ZM757.12,149.74l1.06-.5c.48.57.95,1.2,1.42,1.89.47.69.89,1.36,1.28,2.03s.67,1.26.86,1.78l-1.16.6c-.19-.51-.46-1.1-.83-1.78-.37-.68-.78-1.37-1.24-2.07-.46-.7-.92-1.35-1.39-1.95Z"/>
          <path class="cls-26" d="M768.44,141.68l1.18.46c-.44.79-.95,1.56-1.53,2.33-.58.77-1.19,1.49-1.82,2.17-.63.68-1.27,1.28-1.91,1.8-.03-.09-.09-.22-.18-.38-.09-.16-.19-.32-.29-.48s-.19-.29-.27-.4c.6-.45,1.2-.97,1.79-1.56.59-.59,1.15-1.22,1.68-1.89.53-.67.98-1.36,1.35-2.05ZM768.16,137.3l1.28.48c-.37.56-.82,1.13-1.35,1.72s-1.08,1.14-1.67,1.66c-.59.52-1.17.98-1.74,1.38-.05-.11-.12-.23-.21-.37-.09-.14-.18-.27-.27-.4-.09-.13-.18-.24-.26-.33.53-.35,1.07-.75,1.6-1.21.53-.46,1.03-.95,1.49-1.46.46-.51.84-1,1.13-1.47ZM766.72,145.04l1.22-1.22.04.02v11.68h-1.26v-10.48ZM769.38,151.2h12.6v1.18h-12.6v-1.18ZM769.68,142.36h12.48v1.18h-12.48v-1.18ZM770.28,148.22h10.7v1.16h-10.7v-1.16ZM770.64,139.4h10.04v7.14h-10.14v-1.16h8.84v-4.84h-8.74v-1.14ZM774.88,137.24h1.32v18.32h-1.32v-18.32Z"/>
          <path class="cls-26" d="M784.1,150.44h17.86v1.16h-17.86v-1.16ZM784.54,144.4h17v3.56h-1.34v-2.52h-14.38v2.52h-1.28v-3.56ZM789.62,137.42l.62.84c-.57.23-1.23.41-1.97.56-.74.15-1.41.26-2.01.34l-.5-.78c.39-.07.82-.16,1.29-.27s.94-.23,1.4-.36.85-.24,1.17-.33ZM785.76,138.38l1.3.36.4,6.22h-1.26l-.44-6.58ZM786.5,140.12h3.62v.96h-3.62v-.96ZM786.6,142.24h3.62v.96h-3.62v-.96ZM787.78,146.9h9.58v1.04h-9.58v-1.04ZM792.54,149.52h1.3v4.56c0,.36-.05.63-.15.82-.1.19-.3.33-.61.44-.29.09-.7.14-1.22.15-.52,0-1.19,0-2,0-.03-.16-.09-.35-.18-.56-.09-.21-.19-.4-.28-.56.44.01.84.02,1.21.03s.69,0,.96,0,.46,0,.55,0c.16-.01.27-.04.33-.09.06-.05.09-.14.09-.27v-4.52ZM794.06,140.8l.98.3c-.48.63-1.08,1.23-1.8,1.81-.72.58-1.44,1.06-2.16,1.45-.08-.09-.2-.22-.36-.37-.16-.15-.29-.28-.4-.37.71-.33,1.4-.75,2.09-1.24.69-.49,1.24-1.02,1.65-1.58ZM794,137.42l.98.28c-.45.61-1.02,1.2-1.71,1.75-.69.55-1.37,1.02-2.05,1.39-.08-.09-.2-.21-.36-.36-.16-.15-.3-.25-.42-.32.68-.35,1.35-.76,2-1.23.65-.47,1.17-.98,1.56-1.51ZM790.74,141.66l.7-.6c.45.21.93.46,1.42.74s.96.57,1.4.87c.44.3.79.58,1.06.85l-.72.7c-.27-.28-.61-.57-1.04-.87-.43-.3-.88-.6-1.37-.9s-.97-.56-1.45-.79ZM790.8,138.32l.68-.62c.45.19.92.41,1.39.68.47.27.93.53,1.36.8.43.27.78.53,1.05.78l-.7.68c-.27-.24-.61-.5-1.03-.79-.42-.29-.87-.56-1.35-.83-.48-.27-.95-.5-1.4-.7ZM797.04,146.9h.32l.28-.06.8.68c-.45.36-.97.71-1.56,1.04-.59.33-1.2.64-1.83.93s-1.25.54-1.85.75c-.07-.12-.17-.25-.31-.39-.14-.14-.26-.25-.35-.33.53-.19,1.08-.41,1.65-.68.57-.27,1.1-.55,1.61-.84s.92-.57,1.24-.84v-.26ZM795.78,142.24h3.58v.96h-3.58v-.96ZM795.8,138h3.86v.96h-3.86v-.96ZM795.9,140.12h3.62v.96h-3.62v-.96ZM799.12,138h1.28c-.04.76-.09,1.57-.14,2.42s-.11,1.68-.18,2.49c-.07.81-.13,1.5-.2,2.09h-1.3c.09-.6.17-1.31.24-2.12s.13-1.65.18-2.5c.05-.85.09-1.65.12-2.38Z"/>
          <path class="cls-26" d="M808.88,149.98l1.34.48c-.39.52-.83,1.05-1.34,1.58s-1.03,1.03-1.57,1.49-1.07.87-1.59,1.23c-.08-.08-.19-.18-.34-.29-.15-.11-.29-.22-.44-.33-.15-.11-.27-.19-.38-.26.8-.49,1.59-1.09,2.37-1.78.78-.69,1.43-1.4,1.95-2.12ZM817.28,137.26l.98,1.06c-.81.37-1.74.73-2.77,1.07-1.03.34-2.13.66-3.28.96-1.15.3-2.33.58-3.52.84-1.19.26-2.36.5-3.51.71-.03-.17-.08-.37-.17-.58-.09-.21-.16-.39-.23-.54,1.12-.21,2.27-.45,3.44-.72,1.17-.27,2.32-.55,3.43-.85s2.15-.61,3.12-.94c.97-.33,1.8-.66,2.51-1.01ZM805.56,149.66c-.01-.11-.04-.24-.09-.4-.05-.16-.1-.32-.16-.49-.06-.17-.11-.31-.15-.43.31-.03.69-.12,1.14-.29.45-.17.99-.39,1.6-.67.33-.15.83-.38,1.49-.71.66-.33,1.41-.72,2.26-1.19s1.73-.98,2.64-1.55c.91-.57,1.78-1.16,2.61-1.79l1.04.88c-1.87,1.31-3.76,2.46-5.69,3.45-1.93.99-3.82,1.85-5.69,2.57v.04c-.2.07-.37.13-.5.18-.13.05-.25.12-.35.19s-.15.14-.15.21ZM805.56,149.66l-.04-1.04.98-.5,13.14-.9c-.03.19-.04.4-.04.63v.55c-2.03.15-3.77.27-5.23.38s-2.69.2-3.68.27-1.8.14-2.42.2-1.1.11-1.45.15-.61.08-.8.12c-.19.04-.34.09-.46.14ZM806.68,145.48c-.01-.09-.04-.22-.09-.38-.05-.16-.1-.32-.15-.49s-.1-.31-.14-.43c.21-.03.45-.09.72-.19.27-.1.56-.24.88-.41.23-.12.6-.34,1.13-.66s1.11-.7,1.75-1.15c.64-.45,1.25-.92,1.82-1.41l1.18.76c-.99.76-2.01,1.46-3.06,2.09-1.05.63-2.09,1.17-3.1,1.61v.04c-.19.08-.34.15-.47.21-.13.06-.24.13-.33.2-.09.07-.14.14-.14.21ZM806.68,145.48l-.02-.98.82-.42,7.5-.38c-.04.16-.07.35-.09.57-.02.22-.04.4-.05.53-1.37.08-2.52.15-3.45.21-.93.06-1.68.11-2.26.16s-1.03.09-1.35.12c-.32.03-.56.06-.71.09-.15.03-.28.06-.39.1ZM812.52,148.14h1.36v5.74c0,.39-.05.69-.16.9-.11.21-.31.37-.62.48-.31.11-.71.17-1.22.2s-1.13.04-1.86.04c-.04-.2-.11-.43-.21-.68-.1-.25-.2-.47-.31-.66.41.01.8.03,1.16.04.36.01.67.02.93,0,.26,0,.44-.02.53-.03.17-.01.28-.04.33-.08.05-.04.07-.12.07-.24v-5.72ZM815.82,150.5l1.04-.7c.53.41,1.09.86,1.68,1.34.59.48,1.14.95,1.67,1.42.53.47.96.89,1.29,1.26l-1.12.78c-.32-.36-.74-.78-1.25-1.26-.51-.48-1.06-.97-1.63-1.47s-1.13-.96-1.68-1.37ZM816.36,145.24l1.1-.54c.51.45,1.02.95,1.55,1.48.53.53,1.02,1.05,1.47,1.56.45.51.82.96,1.1,1.36l-1.14.68c-.27-.4-.63-.87-1.08-1.4s-.94-1.07-1.47-1.62c-.53-.55-1.04-1.05-1.53-1.52Z"/>
        </g>
      </g>
    </g>
  </g>
  <g id="b44">
    <g id="g-root-ro_8vwthsq5blds-fill">
      <g id="ro_8vwthsq5blds-fill">
        <path class="cls-2" d="M264.82,49.79h165.53s11.82,0,11.82,12v30s0,12-11.82,12h-165.53s-11.82,0-11.82-12v-30s0-12,11.82-12"/>
      </g>
    </g>
    <g id="g-root-tx__hrjtqoq5bjta-fill">
      <g id="tx__hrjtqoq5bjta-fill">
        <g class="cls-20">
          <g class="cls-20">
            <path class="cls-12" d="M269.08,80.57h18.22v1.52h-18.22v-1.52ZM269.64,69.35h16.9v1.46h-16.9v-1.46ZM269.9,78.35c.91,0,1.94,0,3.1,0,1.16,0,2.4-.01,3.71-.02,1.31,0,2.66-.02,4.05-.03,1.39-.01,2.77-.03,4.14-.06l-.08,1.22c-1.77.04-3.56.08-5.36.13-1.8.05-3.51.08-5.14.11-1.63.03-3.08.05-4.36.06l-.06-1.4ZM271.22,71.77h14.08v5.6h-14.08v-5.6ZM272.26,82.87l1.32-1.1c.37.23.77.49,1.18.79.41.3.81.6,1.18.9s.67.58.9.83l-1.4,1.24c-.21-.27-.5-.56-.85-.88-.35-.32-.73-.63-1.14-.94-.41-.31-.8-.59-1.19-.84ZM272.98,72.97v1h10.46v-1h-10.46ZM272.98,75.13v1.04h10.46v-1.04h-10.46ZM277.22,67.93h1.86v10.74h-1.86v-10.74ZM280.8,79.33h1.84v5.24c0,.45-.06.81-.18,1.07-.12.26-.36.45-.72.57-.35.12-.79.19-1.34.22-.55.03-1.21.04-2,.04-.04-.24-.12-.52-.23-.83-.11-.31-.23-.58-.35-.81.37.01.73.02,1.08.03.35,0,.66,0,.93,0,.27,0,.46-.01.55-.01.17-.01.29-.04.34-.09.05-.05.08-.13.08-.25v-5.18ZM281.08,77.75l1.12-.9c.52.17,1.05.4,1.59.67s1.06.55,1.55.84c.49.29.9.56,1.22.81l-1.14,1.02c-.32-.28-.72-.57-1.2-.87-.48-.3-.99-.59-1.54-.87-.55-.28-1.08-.51-1.6-.7Z"/>
            <path class="cls-12" d="M295.08,82.63l1.38.66c-.47.36-1.04.71-1.72,1.05-.68.34-1.4.65-2.15.92-.75.27-1.48.48-2.17.63-.12-.21-.29-.45-.51-.72-.22-.27-.42-.49-.61-.66.68-.11,1.39-.25,2.12-.44.73-.19,1.42-.41,2.06-.66s1.17-.51,1.6-.78ZM289.38,80.21h17.66v1.58h-17.66v-1.58ZM289.46,71.35h17.52v1.52h-17.52v-1.52ZM290.26,74.89h15.98v1.48h-15.98v-1.48ZM291,68.61l1.62-.56c.33.44.65.93.96,1.48s.53,1.03.68,1.44l-1.7.62c-.13-.4-.35-.88-.64-1.44-.29-.56-.6-1.07-.92-1.54ZM291.26,77.57h14.02v1.42h-14.02v-1.42ZM293.42,73.15l1.78-.42c.21.29.42.62.61.98s.34.67.43.94l-1.84.46c-.07-.27-.19-.59-.38-.96s-.39-.71-.6-1ZM295.44,67.89h1.78v4.2h-1.78v-4.2ZM297.22,75.57h1.86v10.9h-1.86v-10.9ZM299.2,67.89h1.8v4.1h-1.8v-4.1ZM301.3,72.75l1.98.52c-.28.36-.55.7-.82,1.03-.27.33-.51.61-.74.85l-1.6-.48c.2-.28.41-.6.64-.96.23-.36.41-.68.54-.96ZM300.2,83.49l1.2-.96c.6.2,1.25.44,1.95.71s1.37.54,2.02.81c.65.27,1.19.51,1.63.72l-1.26,1.1c-.43-.21-.96-.46-1.59-.75-.63-.29-1.3-.57-2-.86-.7-.29-1.35-.54-1.95-.77ZM303.82,68.11l1.96.5c-.31.53-.62,1.07-.94,1.6-.32.53-.62.99-.9,1.38l-1.54-.48c.17-.28.35-.6.53-.95.18-.35.35-.71.5-1.07.15-.36.28-.69.39-.98Z"/>
            <path class="cls-12" d="M308.96,74.91l1-1.4c.43.16.88.35,1.36.58.48.23.93.46,1.36.71.43.25.78.48,1.06.71l-1.06,1.58c-.27-.23-.61-.47-1.03-.74-.42-.27-.87-.53-1.34-.78-.47-.25-.92-.47-1.35-.66ZM309.64,84.95c.36-.51.76-1.11,1.2-1.82.44-.71.89-1.46,1.34-2.25.45-.79.88-1.57,1.28-2.33l1.38,1.26c-.35.69-.72,1.42-1.13,2.17-.41.75-.82,1.49-1.24,2.21-.42.72-.83,1.4-1.23,2.04l-1.6-1.28ZM310.08,69.51l1.04-1.38c.43.16.88.36,1.36.6.48.24.94.49,1.38.74.44.25.8.49,1.08.72l-1.1,1.56c-.27-.24-.61-.5-1.03-.77s-.87-.54-1.35-.8c-.48-.26-.94-.48-1.38-.67ZM314.98,76.21h11.98v1.78h-11.98v-1.78ZM316.02,85.87c-.04-.13-.1-.31-.17-.54s-.15-.46-.24-.71c-.09-.25-.17-.46-.25-.63.21-.05.42-.19.62-.42s.43-.53.68-.9c.13-.17.32-.46.56-.87.24-.41.51-.89.8-1.45.29-.56.59-1.16.88-1.81s.55-1.3.78-1.95l2.04.64c-.4.92-.85,1.84-1.34,2.76-.49.92-1,1.79-1.53,2.6-.53.81-1.05,1.55-1.57,2.22v.04c-.25.13-.46.26-.63.37s-.31.23-.44.34c-.13.11-.19.22-.19.31ZM315.82,71.15h10.36v1.78h-10.36v-1.78ZM316.02,85.87l-.08-1.5,1.02-.62,7.84-.88c0,.25.01.54.04.87.03.33.05.59.08.79-1.47.19-2.7.34-3.7.47s-1.82.23-2.45.32c-.63.09-1.13.16-1.48.22s-.63.12-.82.17c-.19.05-.34.11-.45.16ZM319.98,67.91h1.9v9.46h-1.9v-9.46ZM322.2,80.63l1.54-.74c.47.59.93,1.22,1.38,1.9s.86,1.35,1.23,2.02c.37.67.64,1.27.83,1.8l-1.68.86c-.16-.53-.41-1.14-.76-1.81s-.74-1.36-1.18-2.07c-.44-.71-.89-1.36-1.36-1.96Z"/>
            <path class="cls-12" d="M333.44,72.35l1.62.68c-.44.79-.96,1.58-1.57,2.37-.61.79-1.24,1.55-1.91,2.26s-1.32,1.34-1.96,1.89c-.05-.13-.14-.32-.25-.56s-.23-.48-.36-.72c-.13-.24-.24-.44-.33-.6.57-.43,1.15-.93,1.74-1.5.59-.57,1.14-1.19,1.67-1.84.53-.65.98-1.31,1.35-1.98ZM333.08,67.95l1.8.7c-.41.6-.89,1.2-1.44,1.8-.55.6-1.12,1.17-1.73,1.7-.61.53-1.21,1-1.81,1.4-.07-.15-.16-.32-.27-.51-.11-.19-.23-.39-.36-.58s-.24-.35-.33-.47c.52-.33,1.04-.73,1.57-1.18.53-.45,1.01-.93,1.46-1.42.45-.49.82-.97,1.11-1.44ZM331.64,76.29l1.7-1.7.08.04v11.82h-1.78v-10.16ZM334.6,81.85h12.66v1.66h-12.66v-1.66ZM334.92,72.91h12.56v1.64h-12.56v-1.64ZM335.44,78.85h10.94v1.58h-10.94v-1.58ZM335.8,69.93h10.32v7.58h-10.4v-1.56h8.58v-4.44h-8.5v-1.58ZM339.86,67.91h1.82v18.54h-1.82v-18.54Z"/>
            <path class="cls-12" d="M349.18,81.11h18v1.54h-18v-1.54ZM349.58,75.09h17.28v3.86h-1.88v-2.46h-13.6v2.46h-1.8v-3.86ZM354.72,68.05l.8,1.12c-.6.24-1.28.44-2.05.6-.77.16-1.45.29-2.05.38l-.66-1.06c.39-.08.82-.18,1.31-.29s.96-.24,1.43-.38.87-.26,1.22-.37ZM350.76,69.09l1.8.46.38,6.2h-1.78l-.4-6.66ZM351.7,70.77h3.7v1.24h-3.7v-1.24ZM351.78,72.93h3.68v1.22h-3.68v-1.22ZM352.98,77.63h9.16v1.38h-9.16v-1.38ZM357.46,80.37h1.86v4.22c0,.45-.06.8-.19,1.04-.13.24-.37.43-.73.56-.36.12-.81.19-1.35.21-.54.02-1.2.03-1.99.03-.04-.24-.12-.51-.24-.8s-.25-.56-.38-.8c.39.01.76.02,1.11.03.35,0,.67,0,.94,0h.55c.16,0,.27-.02.33-.07.06-.05.09-.14.09-.27v-4.16ZM359.1,71.43l1.26.4c-.48.65-1.08,1.27-1.8,1.85s-1.45,1.06-2.18,1.45c-.09-.13-.25-.3-.46-.5-.21-.2-.39-.36-.52-.48.71-.32,1.4-.72,2.07-1.19.67-.47,1.22-.98,1.63-1.53ZM359.06,68.07l1.26.36c-.44.61-1.01,1.19-1.7,1.74s-1.37,1-2.04,1.36c-.11-.12-.27-.27-.48-.45-.21-.18-.4-.32-.56-.43.69-.32,1.36-.7,1.99-1.15.63-.45,1.14-.92,1.53-1.43ZM355.86,72.43l.9-.78c.45.21.92.46,1.4.74.48.28.94.57,1.37.86.43.29.79.57,1.07.84l-.98.88c-.25-.27-.59-.55-1.01-.85s-.87-.6-1.35-.9c-.48-.3-.95-.56-1.4-.79ZM355.94,69.05l.9-.78c.43.19.87.41,1.33.67.46.26.9.53,1.31.8s.75.52,1.02.75l-.94.88c-.25-.24-.58-.5-.98-.78-.4-.28-.83-.56-1.29-.83-.46-.27-.91-.51-1.35-.71ZM361.66,77.63h.46l.4-.1,1.08.98c-.48.36-1.01.71-1.6,1.06s-1.19.67-1.81.98-1.24.58-1.85.82c-.11-.16-.25-.34-.43-.53-.18-.19-.33-.35-.45-.47.51-.19,1.03-.42,1.56-.7s1.03-.57,1.5-.87.85-.58,1.14-.83v-.34ZM360.92,68.61h3.78v1.24h-3.78v-1.24ZM360.94,72.93h3.46v1.22h-3.46v-1.22ZM361.04,70.77h3.5v1.24h-3.5v-1.24ZM363.96,68.61h1.8c-.04.79-.09,1.62-.14,2.5-.05.88-.11,1.73-.18,2.56-.07.83-.13,1.54-.2,2.14h-1.82c.08-.63.16-1.35.23-2.18.07-.83.14-1.68.19-2.56.05-.88.09-1.7.12-2.46Z"/>
            <path class="cls-12" d="M371.18,74.31l1.16.4c-.25.67-.61,1.33-1.07,1.99s-.94,1.18-1.45,1.57c-.13-.2-.31-.42-.52-.66-.21-.24-.41-.43-.6-.56.32-.19.64-.43.95-.73s.6-.63.87-.98c.27-.35.49-.7.66-1.03ZM372.56,77.87h1.64v2.06c0,.55-.05,1.11-.15,1.69-.1.58-.3,1.15-.6,1.71s-.75,1.1-1.34,1.61c-.59.51-1.38.98-2.37,1.41-.07-.13-.15-.29-.26-.46-.11-.17-.23-.34-.36-.51-.13-.17-.25-.3-.36-.41.87-.35,1.55-.73,2.05-1.14s.88-.84,1.13-1.29c.25-.45.42-.9.5-1.35s.12-.89.12-1.3v-2.02ZM369.1,72.25h8.66v1.54h-8.66v-1.54ZM369.1,79.61h8.8v1.58h-8.8v-1.58ZM369.46,69.11l1.32-.48c.24.36.47.76.7,1.21.23.45.37.84.44,1.17l-1.38.56c-.07-.35-.2-.75-.4-1.2s-.43-.87-.68-1.26ZM372.68,68.01h1.66v9.44h-1.66v-9.44ZM372.72,82.89l1-1.16c.41.24.86.52,1.33.83.47.31.93.62,1.37.92.44.3.8.56,1.08.79l-1.04,1.32c-.27-.24-.62-.52-1.05-.84s-.88-.64-1.35-.97c-.47-.33-.91-.62-1.34-.89ZM375.42,74.37c.12.08.31.21.56.4.25.19.52.39.8.6s.54.42.77.61c.23.19.4.34.51.43l-1.04,1.22c-.13-.16-.31-.36-.53-.59s-.46-.48-.71-.73c-.25-.25-.5-.49-.73-.71-.23-.22-.43-.39-.59-.51l.96-.72ZM374.92,78.25l1.06-.68c.25.23.52.49.79.79.27.3.48.56.63.79l-1.1.76c-.13-.24-.33-.52-.59-.83-.26-.31-.52-.59-.79-.83ZM376,68.67l1.56.44c-.24.47-.48.93-.71,1.38s-.46.84-.67,1.16l-1.24-.42c.19-.36.38-.78.58-1.27.2-.49.36-.92.48-1.29ZM380.66,82.85l1.6.96c-.31.35-.67.69-1.09,1.03-.42.34-.86.66-1.32.95s-.92.55-1.37.76c-.15-.17-.34-.38-.57-.62-.23-.24-.45-.44-.65-.6.43-.2.86-.44,1.29-.71.43-.27.84-.57,1.21-.88.37-.31.67-.61.9-.89ZM377.96,68.79h9.4v1.62h-9.4v-1.62ZM378.66,72.07h8v10.5h-8v-10.5ZM380.38,73.51v1.62h4.48v-1.62h-4.48ZM380.38,76.49v1.62h4.48v-1.62h-4.48ZM380.38,79.47v1.66h4.48v-1.66h-4.48ZM381.56,69.65l2.06.26c-.2.59-.4,1.17-.61,1.75-.21.58-.4,1.08-.57,1.49l-1.6-.3c.09-.31.19-.65.28-1.02.09-.37.18-.75.26-1.14.08-.39.14-.73.18-1.04ZM382.98,83.83l1.36-.94c.39.24.79.51,1.22.82s.83.61,1.22.92.71.59.96.84l-1.46,1.02c-.23-.24-.53-.52-.9-.83-.37-.31-.77-.63-1.19-.96-.42-.33-.82-.62-1.21-.87Z"/>
          </g>
        </g>
      </g>
    </g>
    <g id="_圖層_1">
      <g id="_圖層_1-2">
        <g id="_圖層_1-2-2" data-name="_圖層_1-2">
          <g id="_圖層_1-2-2">
            <g>
              <path class="cls-8" d="M409.1,65.24s1.07.15,1.4-1.12c.11-.44-1.03.07-1.03.07l-.36,1.05h0Z"/>
              <g>
                <path class="cls-15" d="M423.67,69.43h-6.05c-.08,0-.15-.07-.15-.15h0c0-.08.07-.15.15-.15h6.04c.08,0,.15.07.15.15h0c0,.08-.07.15-.15.15h0Z"/>
                <path class="cls-28" d="M416.6,71.3s-.06.05-.04.08c.19.25.48.4.81.4h1.02c.32,0,.62-.15.81-.4.02-.03,0-.08-.04-.08h-2.56Z"/>
                <path class="cls-1" d="M419.16,71.36s-.04,0-.05-.02l-1.23-1.83-1.23,1.83s-.05.03-.08.01c-.03-.02-.03-.05-.01-.08l1.28-1.91s.07-.03.1,0l1.28,1.91s0,.06-.01.08c0,0-.02,0-.03,0Z"/>
                <path class="cls-28" d="M422.11,71.3s-.06.05-.04.08c.19.25.48.4.81.4h1.02c.32,0,.62-.15.81-.4.02-.03,0-.08-.04-.08h-2.56,0Z"/>
                <path class="cls-1" d="M424.67,71.36s-.04,0-.05-.02l-1.23-1.83-1.23,1.83s-.05.03-.08.01c-.03-.02-.03-.05-.01-.08l1.28-1.91s.07-.03.1,0l1.28,1.91s0,.06-.01.08c0,0-.02,0-.03,0Z"/>
                <path class="cls-13" d="M420.85,69.78h-.41c-.19,0-.35-.13-.39-.31h0c-.02-.1.05-.2.15-.2h.89c.11,0,.18.1.15.21h0c-.05.19-.21.31-.39.31h0Z"/>
                <rect class="cls-13" x="420.4" y="62.78" width=".49" height="6.75" rx=".24" ry=".24"/>
              </g>
              <g>
                <path class="cls-13" d="M413.71,91.2v-.33c0-.6-.48-1.08-1.08-1.08h-7.53c-.6,0-1.08.48-1.08,1.08v.33c-.66.07-1.17.64-1.17,1.3v.67c0,.35.3.64.64.64h10.73c.35,0,.64-.3.64-.64v-.67c0-.67-.51-1.23-1.17-1.31h0,0Z"/>
                <path class="cls-1" d="M408.41,91.24h-4.11s-.04-.02-.04-.04.02-.04.04-.04h4.11s.04.02.04.04-.02.04-.04.04Z"/>
              </g>
              <path class="cls-7" d="M411.19,63.65s-.09.71-.17,1.3c-.02.16-.12.29-.27.35-.15.06-.31.03-.43-.07-.04-.03-.08-.06-.12-.09-.17-.14-.24-.36-.19-.57.13-.54.37-1.53.37-1.53l.82.61h0Z"/>
              <polygon class="cls-3" points="411.17 64.04 411.08 64.46 410.73 64.04 411.17 64.04"/>
              <path class="cls-7" d="M410.01,62.88c-.07-.2.04-.42.24-.48.21-.07.48-.16.69-.24.2-.07.38.05.48.24.11.22.24.72.29,1.09.03.21-.06.44-.26.51-.21.07-.91.08-1.1-.28-.14-.28-.23-.55-.33-.84h0Z"/>
              <path class="cls-5" d="M409.69,62.2s-.59.56-.95,1.34-2.15,1.73-1.79,2.53c.35.8-.91.7-.93,2.02-.02,1.32.35,2.01,1.26,2.11.91.1,3.74.11,3.48-.89-.26-1-2.74-3.37-1.62-4.08,1.17-.74,1.49-1.73,1.49-1.73l-.94-1.31h0Z"/>
              <path class="cls-7" d="M411.39,62.69s.16.15.41.34-.07.38-.21.35-.39-.44-.39-.44l.2-.25Z"/>
              <path class="cls-22" d="M419.25,64.31c.08.13.23.2.38.18l.54-.06c.16-.02.31-.09.42-.21l.46-.48c.16-.17.12-.43-.08-.52h0l-.98.17c-.22.04-.43.17-.6.35l-.09.1c-.11.13-.13.32-.04.46h0Z"/>
              <path class="cls-22" d="M406.24,87.4c1.01-1.59,1.7-4.02,2.96-6.37.23-.44.78-.62,1.22-.38h0c.42.22.84,1.45.62,1.87-1.41,2.66-3.41,4.05-4.27,5.5-.17.29-.7-.3-.54-.62h0Z"/>
              <path class="cls-7" d="M409.78,88.95s-.65-5.03.25-7.12l.11-6.82,2.39.87-1.99,13.11-.76-.04h0Z"/>
              <path class="cls-7" d="M410.56,88.78l.7.48c.14.12.85.35.85.35h0c.08.15-.05.23-.17.25l-2.08-.04s-.49-.1-.11-1.03c.39.17.72.29.8,0h0Z"/>
              <path class="cls-7" d="M406.79,87.99l-.12.85c-.03.18.16.91.16.91h0c-.08.14-.22.07-.3-.01l-1.06-1.79s-.17-.46.81-.64c.06.42.23.76.51.68Z"/>
              <path class="cls-27" d="M409.27,87.15c-.54.12-2.56-.49-2.74-.62-.18-.13-.08-.29.09-.58.09-.15,1.34-2.4,1.47-2.68.32-.74.81-2.04.88-2.28.07-.24-.06-.71-.15-1.27s-.83-4.8-1.01-5.45c-.29-1,.08-1.93.21-2.4.11-.39.84-1.51.84-1.51h1.47l.09-.47h2.3s.36,1.67.43,2.13c.07.46-.16,2.7-.19,2.98s-1.09,5.86-1.09,6.68-.75,4.33-.67,4.97c0,0-1.64.44-1.91.51"/>
              <path class="cls-22" d="M412.67,65.16l4.78,1.44c.17.05.31.24.32.44v.12c.03.32-.19.55-.47.49l-4.42-.8s-1.29-.05-1.03-1.37c.11-.56.81-.32.81-.32h0Z"/>
              <path class="cls-22" d="M408.44,67.17l4.04-.08c.5,0,.9-.46.89-1.01h0c0-.55-.43-.98-.93-.97l-1.98-.27-2.06.34c-.5,0-.9.46-.89,1.01h0c0,.55.43.98.93.97h0Z"/>
              <path class="cls-23" d="M409.24,65.71c1.01.31,2.02.29,3.02-.06,0,0,1.07.7.9,2.19-.05.45-.26.72-.48.92l-.32,1.55-3.3.06s-.71-2.04-.8-2.41c-.33-1.43.99-2.25.99-2.25h0Z"/>
              <path class="cls-22" d="M407.45,66.16l-.96,5.08c-.03.19.07.37.25.43l.11.04c.29.1.6-.06.68-.35l1.37-4.55s.57-1.29-.77-1.36c-.57-.03-.68.72-.68.72h0Z"/>
              <path class="cls-27" d="M411.45,64.93c.18.02.92.17.92.17,0,0,.67,1.4.77,1.98.09.59.16,1.11-.4,1.67,0,0,.08.18-.03.32-.12.14.18,1.05-.13,1.31-.31.27-.7.41-1.25.51-.55.1-1.61-.06-2.04-.08-.42-.02-.8.28-.74.2.06-.08-.17-.26.22-.94l-.38-1.52s1.06-1.93-.11-3.37c0,0,.98-.27,1.18-.31s1.12.68,1.24.75c.16.1.37.3.35-.87l.41.15h0Z"/>
              <path class="cls-22" d="M408.98,74.91c-.9-1.35-.83-2.83-1.51-3.86-.13-.2-.36-.31-.56-.24l-.33.12c-.16.06-.15.49-.06.66.29.89.69,2.03,1.87,3.48.08.15.33.25.46.19h0c.13-.05.21-.23.12-.35h0Z"/>
              <path class="cls-22" d="M419.99,63.98c-1.05,1.5-1.37,2.6-2.24,3.49-.16.17-.41.23-.59.12l-.3-.19c-.15-.09-.05-.51.07-.66.46-.82,1.21-1.66,2.52-3.04.1-.13.37-.18.49-.1h0c.11.08.14.25.05.37h0Z"/>
              <path class="cls-4" d="M411.47,62.52s.09.15.09.29-1.12.07-1.12.07l1.03-.35Z"/>
              <path class="cls-5" d="M409.42,63.86s-.18-1.1.09-1.45c.46-.61,1.05-.77,1.75-.36,0,0,.06.95-.84,1.89l-.99-.07h0Z"/>
              <path class="cls-7" d="M410.65,63.44c.11.14.29.17.39.08s.11-.27,0-.41c-.11-.14-.29-.17-.39-.08s-.11.27,0,.41Z"/>
              <g>
                <polygon class="cls-13" points="401.44 83.49 402.41 83.3 408.42 77.28 408.04 76.89 407.65 76.51 401.64 82.53 401.44 83.49"/>
                <polygon class="cls-29" points="407.3 75.29 409.65 77.63 409.36 78.22 406.72 75.57 407.3 75.29"/>
                <rect class="cls-29" x="407.7" y="75.85" width="2.35" height=".43" transform="translate(65.97 311.39) rotate(-45)"/>
                <circle class="cls-29" cx="409.79" cy="75.13" r=".54"/>
              </g>
              <path class="cls-22" d="M408.48,74.8c-.12.07-.2.21-.19.34l.03.5c0,.15.07.29.18.4l.42.44c.15.15.4.12.48-.06h0l-.11-.92c-.02-.2-.13-.41-.3-.57l-.09-.08c-.11-.11-.29-.13-.42-.05h0Z"/>
            </g>
            <path class="cls-1" d="M410.32,71.23c-.31,0-.64-.05-1-.17-.02,0-.03-.03-.02-.05,0-.02.03-.03.05-.02,2.14.69,3.3-1.04,3.31-1.06,0-.02.03-.02.05,0s.02.03,0,.05c0,.01-.84,1.26-2.39,1.26Z"/>
          </g>
        </g>
      </g>
    </g>
  </g>
  <g id="b43">
    <g id="g-root-ro_13zwaj4q533ew-fill">
      <g id="ro_13zwaj4q533ew-fill">
        <path class="cls-9" d="M700.81,68h165.38s11.81,0,11.81,12v30s0,12-11.81,12h-165.38s-11.81,0-11.81-12v-30s0-12,11.81-12"/>
      </g>
    </g>
    <g id="g-root-tx__1haqbtcq534zq-fill">
      <g id="tx__1haqbtcq534zq-fill">
        <g class="cls-20">
          <g class="cls-20">
            <path class="cls-12" d="M743.84,94.16h18.4v2.08h-18.4v-2.08Z"/>
            <path class="cls-12" d="M765.18,88.12h1.68v6.02c0,.76-.02,1.6-.06,2.51s-.12,1.85-.23,2.8-.28,1.88-.5,2.79c-.22.91-.52,1.73-.89,2.48-.09-.11-.23-.22-.41-.34s-.36-.24-.55-.36c-.19-.12-.35-.21-.48-.26.33-.71.6-1.47.79-2.28.19-.81.34-1.65.43-2.51.09-.86.15-1.7.18-2.53.03-.83.04-1.59.04-2.3v-6.02ZM763.74,95.02c.72-.05,1.56-.11,2.51-.18.95-.07,1.97-.14,3.05-.23,1.08-.09,2.17-.18,3.26-.27l.02,1.5c-1.03.12-2.06.24-3.1.35s-2.03.22-2.98.31c-.95.09-1.81.18-2.6.26l-.16-1.74ZM766.34,88.12h4.52v1.52h-4.52v-1.52ZM767.86,86.06l1.92.24c-.19.47-.37.91-.55,1.34-.18.43-.34.8-.49,1.12l-1.6-.28c.13-.35.27-.75.41-1.21.14-.46.24-.86.31-1.21ZM767.2,91.16l1.18-.6c.29.43.58.89.86,1.38.28.49.49.92.64,1.28l-1.26.68c-.13-.37-.34-.82-.61-1.34-.27-.52-.54-.99-.81-1.4ZM767.24,97.68l1.22-.58c.29.45.58.95.87,1.49.29.54.5,1,.65,1.39l-1.28.7c-.15-.41-.36-.9-.63-1.46-.27-.56-.55-1.07-.83-1.54ZM770.4,88.12h1.7v14.36c0,.47-.06.83-.17,1.09-.11.26-.32.46-.63.61-.29.15-.68.24-1.17.27s-1.06.05-1.73.05c-.04-.24-.11-.52-.21-.85-.1-.33-.21-.6-.33-.83.45.01.89.02,1.32.03.43,0,.71.01.84.01.25-.01.38-.14.38-.38v-14.36ZM779.92,94.6h.36l.32-.06,1.1.42c-.39,1.81-.97,3.35-1.75,4.61-.78,1.26-1.72,2.29-2.82,3.1s-2.32,1.44-3.67,1.89c-.07-.13-.16-.3-.29-.49-.13-.19-.26-.38-.4-.57s-.27-.33-.39-.44c1.28-.37,2.43-.9,3.45-1.59,1.02-.69,1.88-1.57,2.59-2.64.71-1.07,1.21-2.38,1.5-3.91v-.32ZM773.9,87h1.74v2.6c0,.49-.04,1.01-.13,1.56-.09.55-.26,1.07-.52,1.58-.26.51-.64.95-1.15,1.32-.09-.11-.22-.24-.39-.4-.17-.16-.34-.31-.52-.46-.18-.15-.34-.25-.47-.32.44-.32.76-.67.96-1.04.2-.37.33-.75.39-1.14s.09-.77.09-1.14v-2.56ZM773.18,94.6h7.14v1.66h-7.14v-1.66ZM775.08,96.02c.59,1.65,1.5,3.08,2.74,4.27,1.24,1.19,2.76,2.06,4.56,2.59-.12.12-.26.27-.42.46s-.31.38-.45.58c-.14.2-.26.38-.35.54-1.89-.64-3.48-1.64-4.77-3-1.29-1.36-2.28-3.01-2.99-4.94l1.68-.5ZM775.02,87h4.22v1.64h-4.22v-1.64ZM778.4,87h1.74v4.12c0,.27.02.45.05.55s.11.15.23.15h.94c.12,0,.27-.01.45-.03.18-.02.33-.04.45-.07.01.21.03.47.05.76.02.29.05.54.09.74-.13.05-.29.09-.47.1-.18.01-.36.02-.55.02h-1.14c-.51,0-.89-.08-1.16-.23-.27-.15-.45-.4-.54-.73-.09-.33-.14-.77-.14-1.3v-4.08Z"/>
            <path class="cls-12" d="M783.78,93.12l1-1.4c.43.16.88.35,1.36.58.48.23.93.46,1.36.71.43.25.78.48,1.06.71l-1.06,1.58c-.27-.23-.61-.47-1.03-.74-.42-.27-.87-.53-1.34-.78s-.92-.47-1.35-.66ZM784.46,103.16c.36-.51.76-1.11,1.2-1.82.44-.71.89-1.46,1.34-2.25.45-.79.88-1.57,1.28-2.33l1.38,1.26c-.35.69-.72,1.42-1.13,2.17-.41.75-.82,1.49-1.24,2.21-.42.72-.83,1.4-1.23,2.04l-1.6-1.28ZM784.9,87.72l1.04-1.38c.43.16.88.36,1.36.6.48.24.94.49,1.38.74.44.25.8.49,1.08.72l-1.1,1.56c-.27-.24-.61-.5-1.03-.77s-.87-.54-1.35-.8c-.48-.26-.94-.48-1.38-.67ZM789.8,94.42h11.98v1.78h-11.98v-1.78ZM790.84,104.08c-.04-.13-.1-.31-.17-.54s-.15-.46-.24-.71c-.09-.25-.17-.46-.25-.63.21-.05.42-.19.62-.42.2-.23.43-.53.68-.9.13-.17.32-.46.56-.87.24-.41.51-.89.8-1.45.29-.56.59-1.16.88-1.81.29-.65.55-1.3.78-1.95l2.04.64c-.4.92-.85,1.84-1.34,2.76-.49.92-1,1.79-1.53,2.6-.53.81-1.05,1.55-1.57,2.22v.04c-.25.13-.46.26-.63.37-.17.11-.31.23-.44.34-.13.11-.19.22-.19.31ZM790.64,89.36h10.36v1.78h-10.36v-1.78ZM790.84,104.08l-.08-1.5,1.02-.62,7.84-.88c0,.25.01.54.04.87.03.33.05.59.08.79-1.47.19-2.7.34-3.7.47s-1.82.23-2.45.32c-.63.09-1.13.16-1.48.22-.35.06-.63.12-.82.17-.19.05-.34.11-.45.16ZM794.8,86.12h1.9v9.46h-1.9v-9.46ZM797.02,98.84l1.54-.74c.47.59.93,1.22,1.38,1.9.45.68.86,1.35,1.23,2.02.37.67.64,1.27.83,1.8l-1.68.86c-.16-.53-.41-1.14-.76-1.81-.35-.67-.74-1.36-1.18-2.07-.44-.71-.89-1.36-1.36-1.96Z"/>
            <path class="cls-12" d="M808.26,90.56l1.62.68c-.44.79-.96,1.58-1.57,2.37-.61.79-1.24,1.55-1.91,2.26-.67.71-1.32,1.34-1.96,1.89-.05-.13-.14-.32-.25-.56s-.23-.48-.36-.72c-.13-.24-.24-.44-.33-.6.57-.43,1.15-.93,1.74-1.5.59-.57,1.14-1.19,1.67-1.84.53-.65.98-1.31,1.35-1.98ZM807.9,86.16l1.8.7c-.41.6-.89,1.2-1.44,1.8-.55.6-1.12,1.17-1.73,1.7-.61.53-1.21,1-1.81,1.4-.07-.15-.16-.32-.27-.51-.11-.19-.23-.39-.36-.58s-.24-.35-.33-.47c.52-.33,1.04-.73,1.57-1.18.53-.45,1.01-.93,1.46-1.42.45-.49.82-.97,1.11-1.44ZM806.46,94.5l1.7-1.7.08.04v11.82h-1.78v-10.16ZM809.42,100.06h12.66v1.66h-12.66v-1.66ZM809.74,91.12h12.56v1.64h-12.56v-1.64ZM810.26,97.06h10.94v1.58h-10.94v-1.58ZM810.62,88.14h10.32v7.58h-10.4v-1.56h8.58v-4.44h-8.5v-1.58ZM814.68,86.12h1.82v18.54h-1.82v-18.54Z"/>
            <path class="cls-12" d="M824,99.32h18v1.54h-18v-1.54ZM824.4,93.3h17.28v3.86h-1.88v-2.46h-13.6v2.46h-1.8v-3.86ZM829.54,86.26l.8,1.12c-.6.24-1.28.44-2.05.6-.77.16-1.45.29-2.05.38l-.66-1.06c.39-.08.82-.18,1.31-.29.49-.11.96-.24,1.43-.38s.87-.26,1.22-.37ZM825.58,87.3l1.8.46.38,6.2h-1.78l-.4-6.66ZM826.52,88.98h3.7v1.24h-3.7v-1.24ZM826.6,91.14h3.68v1.22h-3.68v-1.22ZM827.8,95.84h9.16v1.38h-9.16v-1.38ZM832.28,98.58h1.86v4.22c0,.45-.06.8-.19,1.04-.13.24-.37.43-.73.56-.36.12-.81.19-1.35.21-.54.02-1.2.03-1.99.03-.04-.24-.12-.51-.24-.8-.12-.29-.25-.56-.38-.8.39.01.76.02,1.11.03.35,0,.67,0,.94,0h.55c.16,0,.27-.02.33-.07.06-.05.09-.14.09-.27v-4.16ZM833.92,89.64l1.26.4c-.48.65-1.08,1.27-1.8,1.85-.72.58-1.45,1.06-2.18,1.45-.09-.13-.25-.3-.46-.5-.21-.2-.39-.36-.52-.48.71-.32,1.4-.72,2.07-1.19.67-.47,1.22-.98,1.63-1.53ZM833.88,86.28l1.26.36c-.44.61-1.01,1.19-1.7,1.74s-1.37,1-2.04,1.36c-.11-.12-.27-.27-.48-.45s-.4-.32-.56-.43c.69-.32,1.36-.7,1.99-1.15.63-.45,1.14-.92,1.53-1.43ZM830.68,90.64l.9-.78c.45.21.92.46,1.4.74.48.28.94.57,1.37.86.43.29.79.57,1.07.84l-.98.88c-.25-.27-.59-.55-1.01-.85-.42-.3-.87-.6-1.35-.9-.48-.3-.95-.56-1.4-.79ZM830.76,87.26l.9-.78c.43.19.87.41,1.33.67.46.26.9.53,1.31.8s.75.52,1.02.75l-.94.88c-.25-.24-.58-.5-.98-.78s-.83-.56-1.29-.83c-.46-.27-.91-.51-1.35-.71ZM836.48,95.84h.46l.4-.1,1.08.98c-.48.36-1.01.71-1.6,1.06s-1.19.67-1.81.98c-.62.31-1.24.58-1.85.82-.11-.16-.25-.34-.43-.53s-.33-.35-.45-.47c.51-.19,1.03-.42,1.56-.7s1.03-.57,1.5-.87.85-.58,1.14-.83v-.34ZM835.74,86.82h3.78v1.24h-3.78v-1.24ZM835.76,91.14h3.46v1.22h-3.46v-1.22ZM835.86,88.98h3.5v1.24h-3.5v-1.24ZM838.78,86.82h1.8c-.04.79-.09,1.62-.14,2.5s-.11,1.73-.18,2.56c-.07.83-.13,1.54-.2,2.14h-1.82c.08-.63.16-1.35.23-2.18.07-.83.14-1.68.19-2.56.05-.88.09-1.7.12-2.46Z"/>
            <path class="cls-12" d="M846,92.52l1.16.4c-.25.67-.61,1.33-1.07,1.99s-.94,1.18-1.45,1.57c-.13-.2-.31-.42-.52-.66-.21-.24-.41-.43-.6-.56.32-.19.64-.43.95-.73.31-.3.6-.63.87-.98.27-.35.49-.7.66-1.03ZM847.38,96.08h1.64v2.06c0,.55-.05,1.11-.15,1.69s-.3,1.15-.6,1.71-.75,1.1-1.34,1.61c-.59.51-1.38.98-2.37,1.41-.07-.13-.15-.29-.26-.46-.11-.17-.23-.34-.36-.51s-.25-.3-.36-.41c.87-.35,1.55-.73,2.05-1.14s.88-.84,1.13-1.29c.25-.45.42-.9.5-1.35.08-.45.12-.89.12-1.3v-2.02ZM843.92,90.46h8.66v1.54h-8.66v-1.54ZM843.92,97.82h8.8v1.58h-8.8v-1.58ZM844.28,87.32l1.32-.48c.24.36.47.76.7,1.21.23.45.37.84.44,1.17l-1.38.56c-.07-.35-.2-.75-.4-1.2s-.43-.87-.68-1.26ZM847.5,86.22h1.66v9.44h-1.66v-9.44ZM847.54,101.1l1-1.16c.41.24.86.52,1.33.83.47.31.93.62,1.37.92.44.3.8.56,1.08.79l-1.04,1.32c-.27-.24-.62-.52-1.05-.84-.43-.32-.88-.64-1.35-.97-.47-.33-.91-.62-1.34-.89ZM850.24,92.58c.12.08.31.21.56.4.25.19.52.39.8.6.28.21.54.42.77.61.23.19.4.34.51.43l-1.04,1.22c-.13-.16-.31-.36-.53-.59-.22-.23-.46-.48-.71-.73-.25-.25-.5-.49-.73-.71-.23-.22-.43-.39-.59-.51l.96-.72ZM849.74,96.46l1.06-.68c.25.23.52.49.79.79.27.3.48.56.63.79l-1.1.76c-.13-.24-.33-.52-.59-.83-.26-.31-.52-.59-.79-.83ZM850.82,86.88l1.56.44c-.24.47-.48.93-.71,1.38s-.46.84-.67,1.16l-1.24-.42c.19-.36.38-.78.58-1.27.2-.49.36-.92.48-1.29ZM855.48,101.06l1.6.96c-.31.35-.67.69-1.09,1.03-.42.34-.86.66-1.32.95s-.92.55-1.37.76c-.15-.17-.34-.38-.57-.62-.23-.24-.45-.44-.65-.6.43-.2.86-.44,1.29-.71.43-.27.84-.57,1.21-.88.37-.31.67-.61.9-.89ZM852.78,87h9.4v1.62h-9.4v-1.62ZM853.48,90.28h8v10.5h-8v-10.5ZM855.2,91.72v1.62h4.48v-1.62h-4.48ZM855.2,94.7v1.62h4.48v-1.62h-4.48ZM855.2,97.68v1.66h4.48v-1.66h-4.48ZM856.38,87.86l2.06.26c-.2.59-.4,1.17-.61,1.75-.21.58-.4,1.08-.57,1.49l-1.6-.3c.09-.31.19-.65.28-1.02s.18-.75.26-1.14c.08-.39.14-.73.18-1.04ZM857.8,102.04l1.36-.94c.39.24.79.51,1.22.82s.83.61,1.22.92c.39.31.71.59.96.84l-1.46,1.02c-.23-.24-.53-.52-.9-.83-.37-.31-.77-.63-1.19-.96-.42-.33-.82-.62-1.21-.87Z"/>
          </g>
        </g>
      </g>
    </g>
    <g id="_圖層_1-2" data-name="_圖層_1">
      <g id="_圖層_1-2-3" data-name="_圖層_1-2">
        <g id="_圖層_1-2-4" data-name="_圖層_1-2">
          <g>
            <path class="cls-13" d="M726.33,105.01v-.48c0-.87-.71-1.58-1.58-1.58h-11.02c-.87,0-1.58.71-1.58,1.58v.48c-.96.11-1.7.93-1.7,1.91v.98c0,.52.43.95.95.95h15.71c.52,0,.95-.43.95-.95v-.98c0-.99-.75-1.8-1.7-1.92h0s0,0,0,0Z"/>
            <g>
              <rect class="cls-13" x="717.86" y="81.59" width="2.5" height="22.56"/>
              <path class="cls-13" d="M719.93,83.01h-1.6c-.72,0-1.36-.5-1.54-1.21h0c-.1-.39.2-.77.61-.77h3.49c.42,0,.72.4.61.81v.05c-.22.68-.83,1.13-1.54,1.13h0s0-.01,0-.01Z"/>
              <path class="cls-15" d="M730.97,85.95h-23.7c-.33,0-.61-.27-.61-.61h0c0-.33.27-.61.61-.61h23.69c.33,0,.61.27.61.61h0c0,.33-.27.61-.61.61h.01Z"/>
              <path class="cls-28" d="M703.25,93.3c-.15,0-.25.19-.15.32.74.96,1.89,1.57,3.16,1.57h4.01c1.26,0,2.41-.6,3.16-1.57.1-.12,0-.32-.15-.32h-10.03,0Z"/>
              <path class="cls-1" d="M713.29,93.36s-.04,0-.05-.02l-4.97-7.39-4.97,7.39s-.05.03-.08.01c-.02-.02-.03-.05-.01-.08l5.02-7.46s.07-.03.1,0l5.02,7.46s0,.06-.01.08c0,0-.02,0-.03,0Z"/>
              <path class="cls-28" d="M724.85,93.3c-.15,0-.25.19-.15.32.74.96,1.89,1.57,3.16,1.57h4.01c1.26,0,2.41-.6,3.16-1.57.1-.12,0-.32-.15-.32h-10.04.02Z"/>
              <path class="cls-1" d="M734.88,93.36s-.04,0-.05-.02l-4.98-7.39-4.96,7.39s-.05.03-.08.01c-.02-.02-.03-.05-.01-.08l5.01-7.46s.03-.02.05-.02h0s.04,0,.05.02l5.03,7.46s0,.06-.01.08c0,0-.02,0-.03,0Z"/>
            </g>
            <path class="cls-1" d="M718.57,105.05h-6.02s-.04-.02-.04-.04.02-.04.04-.04h6.02s.04.02.04.04-.02.04-.04.04Z"/>
          </g>
        </g>
      </g>
    </g>
  </g>
  <g id="a14">
    <g id="g-root-ro_14651e8q50cnj-stroke">
      <g id="ro_14651e8q50cnj-stroke">
        <path class="cls-16" d="M517.27,67.79h95.45s27.27,0,27.27,28.57v92.86s0,28.57-27.27,28.57h-95.45s-27.27,0-27.27-28.57v-92.86s0-28.57,27.27-28.57"/>
      </g>
    </g>
    <g>
      <g id="g-root-tx__1hhljrkq50b2l-fill">
        <g id="tx__1hhljrkq50b2l-fill">
          <g class="cls-20">
            <g class="cls-20">
              <path class="cls-30" d="M525.78,171.91l1-1.4c.43.16.88.35,1.36.58.48.23.93.46,1.36.71.43.25.78.48,1.06.71l-1.06,1.58c-.27-.23-.61-.47-1.03-.74-.42-.27-.87-.53-1.34-.78-.47-.25-.92-.47-1.35-.66ZM526.46,181.95c.36-.51.76-1.11,1.2-1.82.44-.71.89-1.46,1.34-2.25.45-.79.88-1.57,1.28-2.33l1.38,1.26c-.35.69-.72,1.42-1.13,2.17-.41.75-.82,1.49-1.24,2.21-.42.72-.83,1.4-1.23,2.04l-1.6-1.28ZM526.9,166.51l1.04-1.38c.43.16.88.36,1.36.6.48.24.94.49,1.38.74.44.25.8.49,1.08.72l-1.1,1.56c-.27-.24-.61-.5-1.03-.77s-.87-.54-1.35-.8c-.48-.26-.94-.48-1.38-.67ZM531.8,173.21h11.98v1.78h-11.98v-1.78ZM532.84,182.87c-.04-.13-.1-.31-.17-.54s-.15-.46-.24-.71c-.09-.25-.17-.46-.25-.63.21-.05.42-.19.62-.42s.43-.53.68-.9c.13-.17.32-.46.56-.87.24-.41.51-.89.8-1.45.29-.56.59-1.16.88-1.81s.55-1.3.78-1.95l2.04.64c-.4.92-.85,1.84-1.34,2.76-.49.92-1,1.79-1.53,2.6-.53.81-1.05,1.55-1.57,2.22v.04c-.25.13-.46.26-.63.37s-.31.23-.44.34c-.13.11-.19.22-.19.31ZM532.64,168.15h10.36v1.78h-10.36v-1.78ZM532.84,182.87l-.08-1.5,1.02-.62,7.84-.88c0,.25.01.54.04.87.03.33.05.59.08.79-1.47.19-2.7.34-3.7.47s-1.82.23-2.45.32c-.63.09-1.13.16-1.48.22s-.63.12-.82.17c-.19.05-.34.11-.45.16ZM536.8,164.91h1.9v9.46h-1.9v-9.46ZM539.02,177.63l1.54-.74c.47.59.93,1.22,1.38,1.9s.86,1.35,1.23,2.02c.37.67.64,1.27.83,1.8l-1.68.86c-.16-.53-.41-1.14-.76-1.81s-.74-1.36-1.18-2.07c-.44-.71-.89-1.36-1.36-1.96Z"/>
              <path class="cls-30" d="M550.26,169.35l1.62.68c-.44.79-.96,1.58-1.57,2.37-.61.79-1.24,1.55-1.91,2.26s-1.32,1.34-1.96,1.89c-.05-.13-.14-.32-.25-.56s-.23-.48-.36-.72c-.13-.24-.24-.44-.33-.6.57-.43,1.15-.93,1.74-1.5.59-.57,1.14-1.19,1.67-1.84.53-.65.98-1.31,1.35-1.98ZM549.9,164.95l1.8.7c-.41.6-.89,1.2-1.44,1.8-.55.6-1.12,1.17-1.73,1.7-.61.53-1.21,1-1.81,1.4-.07-.15-.16-.32-.27-.51-.11-.19-.23-.39-.36-.58s-.24-.35-.33-.47c.52-.33,1.04-.73,1.57-1.18.53-.45,1.01-.93,1.46-1.42.45-.49.82-.97,1.11-1.44ZM548.46,173.29l1.7-1.7.08.04v11.82h-1.78v-10.16ZM551.42,178.85h12.66v1.66h-12.66v-1.66ZM551.74,169.91h12.56v1.64h-12.56v-1.64ZM552.26,175.85h10.94v1.58h-10.94v-1.58ZM552.62,166.93h10.32v7.58h-10.4v-1.56h8.58v-4.44h-8.5v-1.58ZM556.68,164.91h1.82v18.54h-1.82v-18.54Z"/>
              <path class="cls-30" d="M566,178.11h18v1.54h-18v-1.54ZM566.4,172.09h17.28v3.86h-1.88v-2.46h-13.6v2.46h-1.8v-3.86ZM571.54,165.05l.8,1.12c-.6.24-1.28.44-2.05.6-.77.16-1.45.29-2.05.38l-.66-1.06c.39-.08.82-.18,1.31-.29s.96-.24,1.43-.38.87-.26,1.22-.37ZM567.58,166.09l1.8.46.38,6.2h-1.78l-.4-6.66ZM568.52,167.77h3.7v1.24h-3.7v-1.24ZM568.6,169.93h3.68v1.22h-3.68v-1.22ZM569.8,174.63h9.16v1.38h-9.16v-1.38ZM574.28,177.37h1.86v4.22c0,.45-.06.8-.19,1.04-.13.24-.37.43-.73.56-.36.12-.81.19-1.35.21-.54.02-1.2.03-1.99.03-.04-.24-.12-.51-.24-.8s-.25-.56-.38-.8c.39.01.76.02,1.11.03.35,0,.67,0,.94,0h.55c.16,0,.27-.02.33-.07.06-.05.09-.14.09-.27v-4.16ZM575.92,168.43l1.26.4c-.48.65-1.08,1.27-1.8,1.85s-1.45,1.06-2.18,1.45c-.09-.13-.25-.3-.46-.5-.21-.2-.39-.36-.52-.48.71-.32,1.4-.72,2.07-1.19.67-.47,1.22-.98,1.63-1.53ZM575.88,165.07l1.26.36c-.44.61-1.01,1.19-1.7,1.74s-1.37,1-2.04,1.36c-.11-.12-.27-.27-.48-.45-.21-.18-.4-.32-.56-.43.69-.32,1.36-.7,1.99-1.15.63-.45,1.14-.92,1.53-1.43ZM572.68,169.43l.9-.78c.45.21.92.46,1.4.74.48.28.94.57,1.37.86.43.29.79.57,1.07.84l-.98.88c-.25-.27-.59-.55-1.01-.85s-.87-.6-1.35-.9c-.48-.3-.95-.56-1.4-.79ZM572.76,166.05l.9-.78c.43.19.87.41,1.33.67.46.26.9.53,1.31.8s.75.52,1.02.75l-.94.88c-.25-.24-.58-.5-.98-.78-.4-.28-.83-.56-1.29-.83-.46-.27-.91-.51-1.35-.71ZM578.48,174.63h.46l.4-.1,1.08.98c-.48.36-1.01.71-1.6,1.06s-1.19.67-1.81.98-1.24.58-1.85.82c-.11-.16-.25-.34-.43-.53-.18-.19-.33-.35-.45-.47.51-.19,1.03-.42,1.56-.7s1.03-.57,1.5-.87.85-.58,1.14-.83v-.34ZM577.74,165.61h3.78v1.24h-3.78v-1.24ZM577.76,169.93h3.46v1.22h-3.46v-1.22ZM577.86,167.77h3.5v1.24h-3.5v-1.24ZM580.78,165.61h1.8c-.04.79-.09,1.62-.14,2.5-.05.88-.11,1.73-.18,2.56-.07.83-.13,1.54-.2,2.14h-1.82c.08-.63.16-1.35.23-2.18.07-.83.14-1.68.19-2.56.05-.88.09-1.7.12-2.46Z"/>
              <path class="cls-30" d="M586.74,165.79h1.86v17.68h-1.86v-17.68ZM587.64,168.79h5.32v1.38h-5.32v-1.38ZM587.8,165.79h6.32v7.52h-6.32v-1.54h4.54v-4.42h-4.54v-1.56ZM602.48,165.79v1.56h-4.9v4.44h4.9v1.56h-6.7v-7.56h6.7ZM596.86,168.79h5.4v1.38h-5.4v-1.38ZM601.48,165.79h1.9v15.26c0,.59-.07,1.04-.22,1.35-.15.31-.41.55-.8.71s-.9.26-1.54.29c-.64.03-1.43.05-2.36.05-.03-.17-.08-.38-.15-.61s-.16-.47-.25-.72c-.09-.25-.19-.45-.28-.61.44.01.88.02,1.31.03.43,0,.82,0,1.15,0h.7c.2-.01.34-.06.42-.13s.12-.2.12-.39v-15.24Z"/>
            </g>
          </g>
        </g>
      </g>
      <g id="_圖層_1-3" data-name="_圖層_1">
        <g id="_圖層_1-2-5" data-name="_圖層_1-2">
          <g id="_圖層_1-2-6" data-name="_圖層_1-2">
            <g>
              <path class="cls-19" d="M607.56,111.23h-30.72v-9.96h20.74c5.5,0,9.96,4.47,9.96,9.96h.01Z"/>
              <path class="cls-27" d="M584.46,154.69h-25.78v-46.44c0-3.85,3.13-7,7-7h32.01c1.99.15,3.88.34,3.84,1.52-1.78-.33-3.35-.33-3.84,1.58v37.09c0,7.31-5.93,13.23-13.23,13.23h0v.02Z"/>
              <path class="cls-24" d="M597.7,111.32s-.08-.04-.08-.08v-6.88s-.05-.8.59-1.34c.66-.55,1.79-.63,3.36-.22.04.01.07.06.06.1-.01.04-.06.07-.1.06-1.51-.39-2.59-.33-3.2.19-.58.48-.53,1.2-.53,1.21v6.88s-.04.08-.08.08Z"/>
              <path class="cls-12" d="M587.49,114.8h-20.94c-.33,0-.62-.28-.62-.62h0c0-.33.28-.62.62-.62h20.94c.33,0,.62.28.62.62h0c0,.33-.28.62-.62.62Z"/>
              <path class="cls-12" d="M587.49,121.05h-20.94c-.33,0-.62-.28-.62-.62h0c0-.33.28-.62.62-.62h20.94c.33,0,.62.28.62.62h0c0,.33-.28.62-.62.62Z"/>
              <path class="cls-12" d="M587.49,126.96h-11.98c-.33,0-.62-.28-.62-.62h0c0-.33.28-.62.62-.62h11.98c.33,0,.62.28.62.62h0c0,.33-.28.62-.62.62Z"/>
              <g>
                <polygon class="cls-29" points="586.8 147.44 583.11 145.33 579.41 147.44 579.41 137.08 586.8 137.08 586.8 147.44"/>
                <path class="cls-13" d="M587.39,139.29h0c-.41-.41-.13-1.1.44-1.1h0c.64,0,1.14-.51,1.14-1.18v-.33c0-.65-.51-1.18-1.17-1.18h0c-.56,0-.83-.7-.46-1.1h0c.46-.46.44-1.2,0-1.66l-.22-.24c-.46-.46-1.19-.47-1.63,0h0c-.41.41-1.09.13-1.09-.46h0c0-.65-.51-1.18-1.17-1.18h-.33c-.64,0-1.14.51-1.14,1.18h0c0,.57-.68.86-1.09.46h0c-.46-.46-1.19-.47-1.63,0l-.22.24c-.46.46-.44,1.2,0,1.66.41.41.13,1.1-.44,1.1h0c-.64,0-1.14.51-1.14,1.18v.33c0,.65.51,1.18,1.17,1.18h0c.56,0,.83.7.46,1.1h0c-.46.46-.44,1.2,0,1.66l.22.24c.46.46,1.19.47,1.63,0,.41-.41,1.09-.13,1.09.46s.51,1.18,1.17,1.18h.33c.64,0,1.14-.51,1.14-1.18h0c0-.57.68-.86,1.09-.46h0c.46.46,1.19.47,1.63,0l.22-.24c.46-.46.44-1.2,0-1.66h0ZM581.11,138.91c-1.12-1.13-1.12-2.97,0-4.11,1.11-1.13,2.92-1.12,4.04,0,1.12,1.12,1.12,2.97,0,4.11-1.11,1.13-2.92,1.12-4.04,0Z"/>
                <circle class="cls-29" cx="583.11" cy="136.7" r="3.14"/>
              </g>
              <path class="cls-24" d="M558.68,110.7s-.08-.04-.08-.08v-2.1c0-3.91,3.18-7.08,7.08-7.08h4.65s.08.04.08.08-.04.08-.08.08h-4.65c-3.81,0-6.92,3.1-6.92,6.92v2.1s-.04.08-.08.08Z"/>
              <g>
                <path class="cls-22" d="M595.6,130.04l-.16-.26c-.11-.16-.15-.34-.11-.53l.14-.72c.04-.26.35-.37.62-.22h0l.61,1.04c.14.22.17.5.11.78l-.11.46h0c-.43,0-.83-.21-1.06-.56h-.02Z"/>
                <polygon class="cls-19" points="597.38 133.63 601.74 133.07 599.7 126.25 595.33 126.81 597.38 133.63"/>
                <path class="cls-5" d="M608.66,124.88c-.06-.21,0-.44.11-.64.96-1.54-1.35-2.42-2.03-2.84-.72-.46,0-1.69-1.49-2.07s-1.9.42-1.97.41c-.11-.02.28,1.39.28,1.39,0,0,.75.19.83,1.63.09,1.45-.24,2.24.75,3.32.97,1.09,4.6-.26,4.6-.26-.58.04-.98-.67-1.06-.93h-.02,0Z"/>
                <path class="cls-22" d="M600.77,138.29s1.09,7.47,1.2,8.82c.04.47,6.18,8.89,6.18,8.89.74.05.89-.49.5-1.23-1.58-6.97-3.68-8.01-3.68-8.01,0,0-.74-3.4-.05-9.26l-4.15.8h.01Z"/>
                <path class="cls-7" d="M602.35,138.53c-1.71,1.41-2.53,3.64-2.2,5.89l.44,3.01,1.71,10.28.96.02s.5-4.57.56-5.07c.06-.5.37-3.59-.64-5.8l.53-9.44-1.37,1.13h0Z"/>
                <path class="cls-10" d="M602.22,157.13l-1.1.72c-.17.19-1.21.53-1.21.53h0c-.08.22.15.34.33.37l3.11-.08s.55-.14-.02-1.58c-.55.26-.9.46-1.1,0h0v.02h-.02v.02h0Z"/>
                <path class="cls-10" d="M608.15,155.88l.33,1.23c.13.21.11,1.27.11,1.27h0c.19.14.37-.04.47-.2l.91-2.78s.32-1.04-1.31-.68c.06.58,0,1.09-.5,1.14h-.01Z"/>
                <path class="cls-6" d="M604.63,130.52l-4.5.21c-1.05.32-.58,3.76-.62,4.64l.27,11.08s2.78.53,6.24-.13c-.11-4.6.48-9.03.48-9.05.42-4.01-1.87-6.77-1.87-6.77h-.01Z"/>
                <path class="cls-21" d="M603.14,122.71c.3-.06,0-.14.27.06.65.51,2.31,1.44,2.39,3.94.13,3.78.71,7.82.71,7.82-4.88,1.23-6.67.06-7.22-.86-.16-.27-.13-.49,0-1.11.33-1.66.62-2.36.92-5.13.14-1.21.4-2.43,1.86-4.15.37-.43.37-.46,1.06-.58h.02-.01Z"/>
                <path class="cls-22" d="M605.69,126.22s.63,6.67-.13,7.45-1.9-.96-1.9-.96l-.46-6.71,2.48.21h0Z"/>
                <path class="cls-7" d="M604.7,131.56c.87.28,1.48.98.97,1.99l-3.42,4.29-.56-.99,2.1-4.5.92-.78h0Z"/>
                <path class="cls-22" d="M601.7,136.84l-.32.95c-.06.19-.05.41,0,.58l.3.75c.11.27.44.33.65.15h0l.33-1.21c.06-.27.04-.57-.09-.86l-.21-.47-.68.11h.02,0Z"/>
                <path class="cls-21" d="M605.61,125.82s.74,3.97.46,4.02-3.28.15-3.87-.49l-.34-4.11s2.39-.78,3.76.57h0Z"/>
                <path class="cls-11" d="M603.21,129.27s-.04-.02-.05-.04l-.29-2.59s.02-.05.04-.05c.03,0,.05.02.05.04l.29,2.59s-.02.05-.04.05c0,0,0,0,0,0Z"/>
                <path class="cls-14" d="M603.83,150.05s-.05-.01-.06-.03l-1.53-2.27s0-.01,0-.02c0,0-.03-.03-.04-.06-.13-.16-.42-.53-.37-.96,0-.04.04-.07.08-.06.04,0,.07.04.06.08-.05.36.21.69.34.85.03.04.05.07.06.09l1.53,2.27s.01.08-.02.1c-.01,0-.03.01-.04.01Z"/>
                <path class="cls-22" d="M603.39,122.77l-.35-.91-1.27.41.22,1.09c.04.17.05.27.11.27.37-.35.78-.64,1.29-.82h0v-.02h0Z"/>
                <polygon class="cls-3" points="601.75 122.46 601.92 123.06 602.38 122.36 601.75 122.46"/>
                <path class="cls-7" d="M603.26,120.64c.05-.29-.14-.58-.44-.64-.32-.06-.72-.14-1.03-.2-.29-.05-.53.15-.64.44-.13.33-.2,1.09-.2,1.61s.19.62.48.68c.32.06,1.33-.06,1.52-.62.15-.43.22-.82.3-1.26h0Z"/>
                <path class="cls-5" d="M603.41,122.1c.5-.11.82-.63.7-1.13-.11-.42-.27-.86-.47-1.06-.61-.62-1.4-.96-2.32-.22,0,0,.09,1.18,1.27,2.27.17.16.43.22.65.19l.15-.02h0v-.02h.02,0Z"/>
                <path class="cls-7" d="M602.46,121.55c-.14.21-.37.3-.55.2s-.21-.37-.09-.58.37-.3.55-.2.21.37.09.58Z"/>
                <path class="cls-25" d="M603.77,120.17s-.04-.01-.04-.03c0,0-.12-.27-.24-.47-.01-.02,0-.05.02-.06.02-.01.05,0,.06.02.13.21.24.47.24.49.01.02,0,.05-.02.06,0,0-.01,0-.02,0Z"/>
                <path class="cls-7" d="M601.13,120.69s-.16.27-.43.63c-.14.17.24.49.43.41s.37-.75.37-.75l-.37-.28h0Z"/>
                <path class="cls-4" d="M601.14,121.82h.27s0,.41-.24.3c-.05,0-.04-.3-.04-.3h.01Z"/>
              </g>
              <g>
                <path class="cls-13" d="M549.76,149.53v-.62c0-1.12-.91-2.02-2.02-2.02h-14.1c-1.12,0-2.02.91-2.02,2.02v.62c-1.23.14-2.18,1.19-2.18,2.44v1.25c0,.67.55,1.21,1.21,1.21h20.1c.67,0,1.21-.55,1.21-1.21v-1.25c0-1.26-.96-2.31-2.18-2.45h-.01Z"/>
                <g>
                  <rect class="cls-13" x="538.94" y="119.57" width="3.19" height="28.86"/>
                  <path class="cls-13" d="M541.58,121.39h-2.06c-.93,0-1.74-.64-1.97-1.54h0c-.13-.5.26-.98.77-.98h4.46c.53,0,.92.51.77,1.03v.06c-.28.87-1.06,1.45-1.96,1.45h-.01v-.02h0Z"/>
                  <path class="cls-15" d="M555.7,125.15h-30.32c-.43,0-.77-.34-.77-.77h0c0-.43.34-.77.77-.77h30.3c.43,0,.77.34.77.77h0c0,.43-.34.77-.77.77h.02Z"/>
                  <path class="cls-28" d="M520.25,134.55c-.2,0-.32.24-.2.41.95,1.23,2.42,2,4.04,2h5.13c1.61,0,3.09-.76,4.04-2,.13-.16,0-.41-.2-.41h-12.82.01Z"/>
                  <path class="cls-1" d="M520.25,134.68s-.05,0-.07-.02c-.06-.04-.07-.12-.03-.17l6.42-9.55s.06-.06.1-.06h0s.08.02.1.06l6.43,9.55c.04.06.02.14-.03.17-.06.04-.14.02-.17-.03l-6.32-9.39-6.31,9.39s-.06.06-.1.06Z"/>
                  <path class="cls-28" d="M547.87,134.55c-.2,0-.32.24-.2.41.95,1.23,2.42,2,4.04,2h5.13c1.61,0,3.09-.76,4.04-2,.13-.16,0-.41-.2-.41h-12.84.03,0Z"/>
                  <path class="cls-1" d="M547.87,134.68s-.05,0-.07-.02c-.06-.04-.07-.12-.03-.17l6.41-9.55s.06-.06.1-.06h0s.08.02.1.06l6.43,9.55c.04.06.02.14-.03.17-.06.04-.14.02-.17-.03l-6.32-9.39-6.3,9.39s-.06.06-.1.06Z"/>
                </g>
                <path class="cls-1" d="M539.83,149.61h-7.69s-.08-.04-.08-.08.04-.08.08-.08h7.69s.08.04.08.08-.04.08-.08.08Z"/>
              </g>
              <path class="cls-27" d="M582.35,154.69h-26.7c-5.5,0-9.96-4.46-9.96-9.96h27.85c.44,5.48,3.63,8.57,8.79,9.96h.03Z"/>
              <path class="cls-24" d="M582.35,154.69s0,0-.01,0c-4.6-.81-6.76-3.48-7.77-5.58-1.09-2.27-1.09-4.38-1.09-4.4,0-.05.04-.08.08-.08h0s.08.04.08.08c0,.02,0,2.1,1.07,4.33.99,2.06,3.12,4.68,7.64,5.48.05,0,.08.05.07.1,0,.04-.04.07-.08.07Z"/>
              <path class="cls-24" d="M545.85,146.62s-.07-.02-.08-.06c-.01-.03-.28-.8-.15-1.86,0-.04.04-.07.08-.07h27.46s.08.04.08.08-.04.08-.08.08h-27.39c-.1.98.15,1.71.15,1.71.02.04,0,.09-.05.11,0,0-.02,0-.03,0Z"/>
            </g>
          </g>
        </g>
      </g>
    </g>
  </g>
</svg>