<?xml version="1.0" encoding="UTF-8"?>
<svg id="_x31_7_x5F_數學及統計" xmlns="http://www.w3.org/2000/svg" viewBox="0 0 1130 270">
  <defs>
    <style>
      .cls-1 {
        fill: #59321f;
      }

      .cls-2 {
        fill: #9c938b;
      }

      .cls-3 {
        fill: #3b1c17;
      }

      .cls-3, .cls-4, .cls-5, .cls-6, .cls-7, .cls-8, .cls-9, .cls-10, .cls-11, .cls-12, .cls-13, .cls-14, .cls-15, .cls-16, .cls-17, .cls-18 {
        fill-rule: evenodd;
      }

      .cls-19 {
        fill: #b0a69d;
      }

      .cls-20 {
        fill: #c7513a;
      }

      .cls-4, .cls-21 {
        fill: #fcb072;
      }

      .cls-5 {
        fill: #873b24;
      }

      .cls-22, .cls-8 {
        fill: #fff;
      }

      .cls-23 {
        fill: #bdb2a8;
      }

      .cls-6, .cls-24 {
        fill: #a39287;
      }

      .cls-7, .cls-25 {
        fill: #ded5cb;
      }

      .cls-26 {
        fill: #9c2d2d;
      }

      .cls-27 {
        fill: #cf7021;
      }

      .cls-28 {
        fill: #d6c6ba;
      }

      .cls-29 {
        fill: #d66e5a;
      }

      .cls-30 {
        fill: #fcf0f0;
        stroke: #fd6a65;
      }

      .cls-30, .cls-31, .cls-32 {
        stroke-linejoin: round;
        stroke-width: 2px;
      }

      .cls-30, .cls-32 {
        stroke-linecap: round;
      }

      .cls-33 {
        isolation: isolate;
      }

      .cls-34 {
        fill: #ebe0d5;
      }

      .cls-35 {
        fill: #b84b36;
      }

      .cls-36 {
        fill: #734128;
      }

      .cls-37 {
        fill: #bfab9e;
      }

      .cls-9, .cls-38 {
        fill: #c95836;
      }

      .cls-10 {
        fill: #f7a763;
      }

      .cls-11 {
        fill: #663a24;
      }

      .cls-12, .cls-39 {
        fill: #7a462b;
      }

      .cls-40 {
        fill: #bab2a9;
      }

      .cls-13 {
        fill: #e69b5c;
      }

      .cls-31, .cls-32 {
        fill: none;
        stroke: #484848;
      }

      .cls-41 {
        fill: #d68d51;
      }

      .cls-14 {
        fill: #ba5de5;
      }

      .cls-42 {
        fill: #484848;
      }

      .cls-15 {
        fill: #3cc583;
      }

      .cls-43 {
        fill: #d6573e;
      }

      .cls-16 {
        fill: #633c1d;
      }

      .cls-17 {
        fill: #4a2a1a;
      }

      .cls-18 {
        fill: #9c5937;
      }

      .cls-44 {
        fill: #e38e7d;
      }

      .cls-45 {
        fill: #fd6a65;
      }

      .cls-32 {
        stroke-dasharray: 5 7;
      }
    </style>
  </defs>
  <g id="g-root-cu_hv9mbhpvbzt2-stroke">
    <g id="cu_hv9mbhpvbzt2-stroke">
      <path class="cls-31" d="M446,123h-10c-7.18,0-13-5.82-13-13v-.1s0-18.9,0-18.9c0-7.18-5.82-13-13-13h-12"/>
    </g>
  </g>
  <g id="g-root-cu_hv9mbhpvbzt2-stroke-2" data-name="g-root-cu_hv9mbhpvbzt2-stroke">
    <g id="cu_hv9mbhpvbzt2-stroke-2" data-name="cu_hv9mbhpvbzt2-stroke">
      <path class="cls-31" d="M638,144h9.9s.1,0,.1,0c7.18,0,13-5.82,13-13v-.1s0-18.9,0-18.9c0-7.18,5.82-13,13-13h12"/>
    </g>
  </g>
  <g id="g-root-cu_dg2la5pvbxfl-stroke">
    <g id="cu_dg2la5pvbxfl-stroke">
      <path class="cls-32" d="M718,123v12c0,6.63,5.37,12,12,12h6"/>
    </g>
  </g>
  <g>
    <g id="g-root-cu_4kfl19pvby8c-stroke">
      <g id="cu_4kfl19pvby8c-stroke">
        <path class="cls-32" d="M370,105v24h-18"/>
      </g>
    </g>
    <g id="g-root-cu_4kfl19pvby8f-stroke">
      <g id="cu_4kfl19pvby8f-stroke">
        <path class="cls-32" d="M370,105v60h-18"/>
      </g>
    </g>
    <g id="g-root-cu_4m2wtpvbz0p-stroke">
      <g id="cu_4m2wtpvbz0p-stroke">
        <path class="cls-32" d="M370,105v84c0,6.63-5.37,12-12,12h-6"/>
      </g>
    </g>
  </g>
  <g id="c138">
    <g id="tx__mg2x4tpuxxqh-fill">
      <g class="cls-33">
        <g class="cls-33">
          <path class="cls-42" d="M223.06,194.76h5.6v.86h-5.6v-.86ZM229.12,205.7l.88.4c-.53.29-1.15.59-1.84.88-.69.29-1.41.56-2.15.81-.74.25-1.44.46-2.09.63-.04-.07-.1-.15-.19-.24-.09-.09-.18-.19-.27-.28-.09-.09-.18-.17-.26-.24.68-.15,1.38-.32,2.11-.53.73-.21,1.42-.43,2.08-.67.66-.24,1.24-.49,1.73-.76ZM223.5,191.62h4.62v.84h-4.62v-.84ZM225.72,197.34h12.8v8.02h-12.8v-8.02ZM226.68,198.1v1.64h10.88v-1.64h-10.88ZM226.68,200.5v1.68h10.88v-1.68h-10.88ZM226.68,202.92v1.7h10.88v-1.7h-10.88ZM234.4,192.12h.94v.62c0,.39-.06.78-.19,1.19-.13.41-.39.81-.8,1.2-.41.39-1.02.76-1.85,1.1-.83.34-1.94.64-3.34.89-.05-.12-.13-.26-.24-.41-.11-.15-.21-.27-.32-.35,1.35-.21,2.41-.47,3.19-.76.78-.29,1.36-.61,1.73-.94s.61-.67.72-1c.11-.33.16-.65.16-.94v-.6ZM231.84,190.3l.88.18c-.25.83-.6,1.62-1.04,2.37-.44.75-.91,1.4-1.42,1.93-.04-.07-.11-.13-.2-.19-.09-.06-.19-.12-.29-.18-.1-.06-.19-.11-.27-.15.52-.51.98-1.11,1.38-1.8s.72-1.41.96-2.16ZM231.42,191.74h8.32v.84h-8.32v-.84ZM234.08,206.28l.68-.58c.75.21,1.49.44,2.24.69.75.25,1.45.49,2.1.72.65.23,1.23.46,1.72.67l-.88.62c-.45-.21-.99-.44-1.61-.68-.62-.24-1.29-.48-2.01-.73-.72-.25-1.47-.48-2.24-.71ZM235.14,193.54c.33.44.8.84,1.4,1.21.6.37,1.3.67,2.1.92.8.25,1.65.42,2.54.51-.11.09-.22.22-.33.38-.11.16-.2.3-.27.42-.91-.15-1.76-.37-2.57-.67-.81-.3-1.52-.67-2.13-1.11-.61-.44-1.1-.93-1.46-1.46l.72-.2ZM239.46,191.74h.18l.16-.04.64.24c-.25.48-.52.97-.8,1.48-.28.51-.55.93-.82,1.26l-.78-.24c.23-.33.47-.73.73-1.19s.49-.9.69-1.33v-.18Z"/>
          <path class="cls-42" d="M244.84,199.4l.76.22c-.15.72-.33,1.49-.56,2.3-.23.81-.48,1.58-.76,2.3-.28.72-.57,1.32-.88,1.8-.04-.09-.09-.2-.16-.32s-.14-.24-.22-.35c-.08-.11-.15-.21-.22-.29.28-.43.55-.96.82-1.6s.51-1.32.72-2.03c.21-.71.38-1.39.5-2.03ZM243.04,197.06h7.74v.92h-7.74v-.92ZM243.3,191.82l.76-.2c.2.45.38.94.55,1.46.17.52.31,1.03.44,1.53.13.5.22.94.27,1.33l-.84.2c-.03-.39-.1-.83-.23-1.33s-.27-1.01-.44-1.53c-.17-.52-.34-1.01-.51-1.46ZM246.38,190.34h.92v18.14h-.92v-18.14ZM248.32,199.38c.11.16.26.43.45.81.19.38.4.8.63,1.26s.43.89.62,1.28c.19.39.32.68.4.85l-.76.74c-.08-.27-.2-.61-.37-1.03s-.35-.87-.55-1.34c-.2-.47-.39-.91-.56-1.3-.17-.39-.31-.68-.42-.87l.56-.4ZM249.68,191.58l.9.26c-.16.48-.34.99-.54,1.54s-.4,1.07-.59,1.57c-.19.5-.38.94-.57,1.31l-.66-.24c.16-.39.33-.84.52-1.37.19-.53.36-1.06.53-1.61.17-.55.3-1.03.41-1.46ZM250.74,203.18l10.28-1.84.18.88-10.28,1.86-.18-.9ZM251.38,197.64l.46-.66c.4.2.82.43,1.25.68s.84.52,1.22.79c.38.27.68.53.91.77l-.48.78c-.24-.24-.55-.5-.92-.78-.37-.28-.77-.56-1.19-.84s-.84-.53-1.25-.74ZM252.48,192.6l.52-.66c.4.23.8.48,1.21.77.41.29.79.58,1.14.87s.64.57.85.82l-.52.76c-.21-.25-.5-.53-.85-.84s-.74-.61-1.15-.91c-.41-.3-.81-.57-1.2-.81ZM257.56,190.34h.92v18.14h-.92v-18.14Z"/>
          <path class="cls-42" d="M266.62,196.28l.66.28c-.2.69-.45,1.42-.76,2.17-.31.75-.64,1.49-1,2.22-.36.73-.73,1.4-1.12,2.03-.39.63-.77,1.16-1.16,1.6-.05-.12-.14-.26-.26-.43-.12-.17-.23-.3-.32-.39.37-.4.75-.89,1.13-1.47s.75-1.21,1.11-1.88c.36-.67.69-1.37.98-2.08s.54-1.4.74-2.05ZM263,195.96h7.68v.92h-7.68v-.92ZM269.54,190.64l.68.76c-.56.24-1.22.46-1.98.67s-1.55.39-2.37.54c-.82.15-1.61.29-2.37.41-.01-.11-.05-.24-.12-.39s-.13-.28-.18-.37c.75-.13,1.52-.28,2.32-.44.8-.16,1.55-.34,2.26-.55.71-.21,1.29-.42,1.76-.63ZM266.58,191.84h.94v16.58h-.94v-16.58ZM267.42,197.24c.13.15.34.4.63.76s.59.75.91,1.17.62.81.89,1.18c.27.37.47.63.59.79l-.66.76c-.12-.23-.31-.54-.56-.94-.25-.4-.53-.82-.83-1.25-.3-.43-.58-.84-.85-1.21s-.47-.65-.62-.84l.5-.42ZM270.5,203.4l10.54-1.62.16.86-10.56,1.66-.14-.9ZM271.46,197.58l.6-.58c.47.24.94.53,1.43.86.49.33.94.67,1.35,1s.75.65,1,.94l-.62.66c-.25-.29-.59-.61-1.01-.96s-.87-.69-1.34-1.02c-.47-.33-.94-.63-1.41-.9ZM272.3,192.4l.62-.6c.41.24.84.52,1.27.83s.84.63,1.21.95c.37.32.68.62.92.9l-.66.66c-.23-.27-.52-.57-.89-.9-.37-.33-.77-.66-1.2-.98-.43-.32-.86-.61-1.27-.86ZM277.52,190.3h.96v18.14h-.96v-18.14Z"/>
          <path class="cls-42" d="M283.16,203.52h17.76v.88h-17.76v-.88ZM283.64,197.46h16.8v3.38h-.96v-2.56h-14.9v2.56h-.94v-3.38ZM288.68,190.54l.5.64c-.56.21-1.2.39-1.93.53s-1.38.25-1.97.33l-.38-.6c.37-.07.79-.15,1.26-.26.47-.11.92-.22,1.37-.34.45-.12.83-.22,1.15-.3ZM284.9,191.44l.96.28.4,6.22h-.92l-.44-6.5ZM285.48,193.22h3.58v.76h-3.58v-.76ZM285.6,195.32h3.58v.76h-3.58v-.76ZM286.76,199.94h9.88v.8h-9.88v-.8ZM291.7,202.46h.96v4.8c0,.29-.05.52-.14.67-.09.15-.27.27-.54.35-.25.08-.63.12-1.13.13s-1.16,0-1.99,0c-.03-.12-.08-.26-.15-.41s-.14-.3-.21-.43c.47.01.89.02,1.27.03.38,0,.7,0,.97,0,.27,0,.45-.01.56-.01.16,0,.27-.03.32-.08.05-.05.08-.15.08-.28v-4.78ZM293.16,193.9l.76.24c-.48.63-1.08,1.23-1.79,1.8s-1.43,1.05-2.15,1.44c-.05-.08-.15-.18-.28-.3-.13-.12-.24-.21-.32-.28.71-.35,1.41-.77,2.1-1.28.69-.51,1.25-1.05,1.68-1.62ZM293.1,190.54l.76.2c-.45.61-1.02,1.2-1.71,1.75-.69.55-1.36,1.02-2.03,1.39-.07-.07-.17-.16-.3-.27-.13-.11-.25-.2-.34-.27.69-.35,1.37-.76,2.02-1.25.65-.49,1.19-1,1.6-1.55ZM289.8,194.66l.54-.48c.47.21.95.46,1.45.74s.97.57,1.41.87.8.59,1.08.87l-.58.58c-.27-.28-.62-.57-1.05-.88-.43-.31-.9-.61-1.39-.91s-.98-.56-1.46-.79ZM289.84,191.36l.54-.52c.45.2.92.43,1.41.69.49.26.95.53,1.39.8.44.27.79.54,1.06.79l-.54.58c-.28-.25-.63-.52-1.05-.81-.42-.29-.88-.56-1.37-.83-.49-.27-.97-.5-1.44-.7ZM296.4,199.94h.24l.22-.06.6.5c-.45.36-.97.7-1.56,1.03-.59.33-1.19.63-1.82.9-.63.27-1.24.51-1.84.71-.07-.09-.15-.19-.25-.3-.1-.11-.2-.19-.29-.26.57-.17,1.15-.39,1.74-.64.59-.25,1.14-.53,1.67-.83.53-.3.96-.58,1.29-.85v-.2ZM294.8,195.32h3.64v.76h-3.64v-.76ZM294.82,191.12h3.94v.78h-3.94v-.78ZM294.92,193.22h3.72v.76h-3.72v-.76ZM298.36,191.12h.92c-.04.73-.09,1.52-.14,2.36-.05.84-.11,1.66-.18,2.45-.07.79-.13,1.47-.2,2.03h-.94c.08-.57.16-1.26.23-2.06.07-.8.14-1.62.19-2.46.05-.84.09-1.61.12-2.32Z"/>
          <path class="cls-42" d="M303.16,203.52h17.76v.88h-17.76v-.88ZM303.64,197.46h16.8v3.38h-.96v-2.56h-14.9v2.56h-.94v-3.38ZM308.68,190.54l.5.64c-.56.21-1.2.39-1.93.53s-1.38.25-1.97.33l-.38-.6c.37-.07.79-.15,1.26-.26.47-.11.92-.22,1.37-.34.45-.12.83-.22,1.15-.3ZM304.9,191.44l.96.28.4,6.22h-.92l-.44-6.5ZM305.48,193.22h3.58v.76h-3.58v-.76ZM305.6,195.32h3.58v.76h-3.58v-.76ZM306.76,199.94h9.88v.8h-9.88v-.8ZM311.7,202.46h.96v4.8c0,.29-.05.52-.14.67-.09.15-.27.27-.54.35-.25.08-.63.12-1.13.13s-1.16,0-1.99,0c-.03-.12-.08-.26-.15-.41s-.14-.3-.21-.43c.47.01.89.02,1.27.03.38,0,.7,0,.97,0,.27,0,.45-.01.56-.01.16,0,.27-.03.32-.08.05-.05.08-.15.08-.28v-4.78ZM313.16,193.9l.76.24c-.48.63-1.08,1.23-1.79,1.8s-1.43,1.05-2.15,1.44c-.05-.08-.15-.18-.28-.3-.13-.12-.24-.21-.32-.28.71-.35,1.41-.77,2.1-1.28.69-.51,1.25-1.05,1.68-1.62ZM313.1,190.54l.76.2c-.45.61-1.02,1.2-1.71,1.75-.69.55-1.36,1.02-2.03,1.39-.07-.07-.17-.16-.3-.27-.13-.11-.25-.2-.34-.27.69-.35,1.37-.76,2.02-1.25.65-.49,1.19-1,1.6-1.55ZM309.8,194.66l.54-.48c.47.21.95.46,1.45.74s.97.57,1.41.87.8.59,1.08.87l-.58.58c-.27-.28-.62-.57-1.05-.88-.43-.31-.9-.61-1.39-.91s-.98-.56-1.46-.79ZM309.84,191.36l.54-.52c.45.2.92.43,1.41.69.49.26.95.53,1.39.8.44.27.79.54,1.06.79l-.54.58c-.28-.25-.63-.52-1.05-.81-.42-.29-.88-.56-1.37-.83-.49-.27-.97-.5-1.44-.7ZM316.4,199.94h.24l.22-.06.6.5c-.45.36-.97.7-1.56,1.03-.59.33-1.19.63-1.82.9-.63.27-1.24.51-1.84.71-.07-.09-.15-.19-.25-.3-.1-.11-.2-.19-.29-.26.57-.17,1.15-.39,1.74-.64.59-.25,1.14-.53,1.67-.83.53-.3.96-.58,1.29-.85v-.2ZM314.8,195.32h3.64v.76h-3.64v-.76ZM314.82,191.12h3.94v.78h-3.94v-.78ZM314.92,193.22h3.72v.76h-3.72v-.76ZM318.36,191.12h.92c-.04.73-.09,1.52-.14,2.36-.05.84-.11,1.66-.18,2.45-.07.79-.13,1.47-.2,2.03h-.94c.08-.57.16-1.26.23-2.06.07-.8.14-1.62.19-2.46.05-.84.09-1.61.12-2.32Z"/>
          <path class="cls-42" d="M328.24,202.98l.96.34c-.4.53-.85,1.07-1.36,1.6s-1.03,1.03-1.57,1.49c-.54.46-1.07.88-1.59,1.25-.07-.05-.15-.12-.25-.2s-.2-.16-.31-.23c-.11-.07-.21-.14-.3-.19.81-.52,1.62-1.14,2.41-1.86.79-.72,1.46-1.45,2.01-2.2ZM336.32,190.38l.7.78c-.77.37-1.66.74-2.67,1.09-1.01.35-2.08.69-3.21,1-1.13.31-2.29.61-3.46.88s-2.33.54-3.46.79c-.03-.13-.07-.27-.14-.42s-.13-.27-.18-.38c1.12-.25,2.26-.52,3.43-.81,1.17-.29,2.31-.59,3.42-.9s2.15-.64,3.11-.98c.96-.34,1.78-.69,2.46-1.05ZM324.5,202.46c-.01-.09-.04-.2-.07-.31s-.07-.24-.11-.37c-.04-.13-.08-.24-.12-.32.28-.03.65-.12,1.12-.29.47-.17,1-.38,1.6-.65.35-.16.85-.4,1.51-.72.66-.32,1.42-.71,2.27-1.18.85-.47,1.75-.98,2.68-1.54.93-.56,1.83-1.14,2.68-1.74l.78.62c-1.93,1.31-3.87,2.46-5.8,3.45-1.93.99-3.85,1.85-5.74,2.57v.04c-.16.04-.29.08-.4.13-.11.05-.2.1-.28.15-.08.05-.12.11-.12.16ZM324.5,202.46l-.02-.76.8-.42,13.5-.92c-.01.13-.02.29-.02.46v.42c-2.09.15-3.89.27-5.39.38s-2.76.2-3.77.27c-1.01.07-1.83.14-2.46.19-.63.05-1.11.1-1.45.14s-.6.08-.77.11-.31.08-.42.13ZM325.72,198.36c-.01-.08-.04-.18-.07-.31-.03-.13-.07-.25-.11-.38s-.08-.23-.12-.31c.21-.03.45-.09.71-.18.26-.09.55-.23.87-.4.23-.12.6-.34,1.13-.66s1.11-.7,1.76-1.15c.65-.45,1.26-.92,1.83-1.41l.9.54c-1.01.79-2.04,1.5-3.07,2.13-1.03.63-2.05,1.17-3.05,1.61v.02c-.16.05-.29.11-.4.16-.11.05-.2.11-.27.17-.07.06-.11.12-.11.17ZM325.72,198.36l-.02-.76.7-.32,7.5-.42c-.03.13-.05.28-.06.45-.01.17-.03.3-.04.39-1.39.08-2.54.15-3.47.21-.93.06-1.68.11-2.25.15-.57.04-1.02.08-1.33.11-.31.03-.54.06-.69.09-.15.03-.26.06-.34.1ZM331.76,201.12h.98v5.98c0,.32-.05.56-.14.73-.09.17-.27.3-.54.39-.27.08-.64.13-1.12.15-.48.02-1.09.03-1.82.03-.03-.15-.08-.31-.15-.49-.07-.18-.16-.34-.25-.49.45.01.86.02,1.22.03.36,0,.66,0,.91,0s.42,0,.51-.02c.16-.01.27-.04.32-.09s.08-.13.08-.25v-5.98ZM334.96,203.34l.72-.5c.56.43,1.14.89,1.73,1.38.59.49,1.15.98,1.67,1.46.52.48.95.91,1.3,1.28l-.78.58c-.33-.37-.76-.81-1.27-1.3s-1.06-1-1.65-1.51c-.59-.51-1.16-.98-1.72-1.39ZM335.54,198.14l.8-.4c.52.45,1.05.94,1.59,1.47.54.53,1.04,1.04,1.49,1.55.45.51.82.95,1.1,1.34l-.82.5c-.28-.4-.65-.86-1.11-1.38-.46-.52-.96-1.05-1.49-1.59s-1.05-1.04-1.56-1.49Z"/>
        </g>
      </g>
    </g>
  </g>
  <g id="c137">
    <g id="tx__vbpxdppuxwxs-fill">
      <g class="cls-33">
        <g class="cls-33">
          <path class="cls-42" d="M223.82,168.98l.88.16c-.13.85-.3,1.72-.5,2.59-.2.87-.4,1.62-.6,2.25-.09-.05-.23-.11-.4-.18-.17-.07-.32-.11-.44-.14.25-.63.46-1.36.63-2.2.17-.84.31-1.67.43-2.48ZM223.1,163.52c-.01-.07-.04-.16-.08-.28-.04-.12-.08-.24-.12-.37-.04-.13-.08-.23-.12-.31.16-.04.34-.16.53-.36.19-.2.39-.45.59-.76.12-.15.29-.39.52-.74s.48-.76.77-1.24c.29-.48.57-.99.86-1.54s.55-1.09.79-1.64l.92.4c-.57,1.16-1.2,2.29-1.87,3.38-.67,1.09-1.36,2.05-2.05,2.88v.02c-.15.08-.27.15-.36.2-.09.05-.18.11-.26.18-.08.07-.12.13-.12.18ZM223.24,167.96c-.03-.07-.06-.16-.09-.28s-.07-.24-.12-.37c-.05-.13-.08-.23-.11-.31.19-.04.4-.18.64-.43.24-.25.51-.56.8-.93.16-.19.4-.49.72-.9s.68-.91,1.08-1.5.81-1.21,1.22-1.88.79-1.34,1.14-2.02l.88.48c-.53.92-1.1,1.84-1.69,2.75s-1.21,1.78-1.84,2.6c-.63.82-1.27,1.56-1.91,2.21v.04c-.15.07-.27.13-.37.18-.1.05-.18.11-.25.17-.07.06-.1.12-.1.19ZM223.1,163.52v-.74l.54-.32,3.58-.34c-.03.12-.04.26-.05.41s0,.28,0,.37c-.81.11-1.47.19-1.98.26-.51.07-.9.12-1.17.16s-.47.08-.6.11c-.13.03-.23.06-.31.09ZM223.24,167.96l-.02-.76.54-.38,5.36-.76c-.01.13-.02.27-.02.42s0,.27.02.38c-1.24.2-2.23.36-2.97.48s-1.31.22-1.7.29-.67.14-.84.19c-.17.05-.29.1-.37.14ZM225.92,169.06l.8-.14c.12.68.24,1.42.35,2.22.11.8.18,1.49.21,2.08l-.82.16c-.03-.57-.09-1.26-.19-2.07-.1-.81-.22-1.56-.35-2.25ZM227.7,163.96l.8-.24c.2.43.39.88.58,1.37.19.49.36.95.51,1.4.15.45.26.84.33,1.19l-.82.3c-.08-.35-.19-.75-.33-1.21-.14-.46-.3-.93-.49-1.42-.19-.49-.38-.95-.58-1.39ZM228.16,168.68l.74-.22c.24.6.47,1.26.7,1.97.23.71.39,1.33.5,1.85l-.78.26c-.11-.53-.27-1.16-.5-1.87-.23-.71-.45-1.38-.66-1.99ZM233.06,164.96h.94c-.04,1.32-.12,2.49-.24,3.51-.12,1.02-.33,1.91-.64,2.68-.31.77-.75,1.43-1.32,1.99-.57.56-1.33,1.03-2.28,1.4-.04-.08-.09-.16-.16-.25-.07-.09-.14-.17-.22-.26-.08-.09-.16-.16-.24-.21.89-.35,1.61-.77,2.14-1.28.53-.51.94-1.11,1.22-1.82.28-.71.48-1.53.59-2.48.11-.95.18-2.04.21-3.28ZM230.68,165.84c-.03-.08-.06-.18-.09-.3s-.07-.24-.11-.37c-.04-.13-.09-.24-.14-.33.17-.04.38-.2.61-.48.23-.28.48-.63.75-1.04.16-.2.39-.54.68-1.01.29-.47.62-1.03.99-1.67.37-.64.73-1.33,1.09-2.07.36-.74.69-1.48,1-2.21l1.04.36c-.48,1.04-1,2.07-1.55,3.09-.55,1.02-1.12,1.99-1.71,2.91-.59.92-1.18,1.75-1.78,2.5v.02c-.16.08-.29.15-.39.21-.1.06-.19.12-.27.19-.08.07-.12.13-.12.2ZM230.42,158.98h10.42v.92h-10.42v-.92ZM230.68,165.84l-.02-.76.68-.4,8.24-.84c0,.12,0,.26.03.43.02.17.04.3.05.39-1.55.17-2.84.32-3.88.44-1.04.12-1.88.22-2.51.3-.63.08-1.12.14-1.46.19s-.59.09-.75.13-.29.08-.38.12ZM236.32,164.58h.94v8.1c0,.24.04.39.11.46.07.07.24.1.49.1h1.72c.16,0,.28-.06.36-.18.08-.12.14-.37.17-.74s.06-.93.07-1.68c.08.07.17.13.28.18.11.05.21.1.32.13.11.03.21.07.3.11-.03.81-.08,1.44-.17,1.89-.09.45-.22.76-.41.94-.19.18-.46.27-.82.27h-1.9c-.39,0-.68-.04-.89-.13-.21-.09-.35-.24-.44-.45-.09-.21-.13-.51-.13-.9v-8.1ZM237.24,161.32l.8-.34c.35.51.71,1.05,1.08,1.64.37.59.72,1.15,1.04,1.7s.57,1.02.76,1.42l-.88.46c-.19-.41-.44-.9-.75-1.46-.31-.56-.65-1.14-1-1.74-.35-.6-.7-1.16-1.05-1.68Z"/>
          <path class="cls-42" d="M243.36,159.76h8.18v.86h-8.18v-.86ZM244.26,162.32h6.42v.84h-6.42v-.84ZM244.26,164.9h6.36v.84h-6.36v-.84ZM244.44,167.52h.88v6.7h-.88v-6.7ZM244.86,167.52h5.8v5.7h-5.8v-.88h4.9v-3.96h-4.9v-.86ZM245.82,156.66l.78-.42c.31.39.61.81.9,1.28.29.47.52.88.68,1.24l-.8.5c-.17-.36-.4-.79-.69-1.28-.29-.49-.58-.93-.87-1.32ZM251.52,163.4h9.5v.96h-9.5v-.96ZM255.7,156.68h.96v17.8h-.96v-17.8Z"/>
          <path class="cls-42" d="M263.06,160.76h5.6v.86h-5.6v-.86ZM269.12,171.7l.88.4c-.53.29-1.15.59-1.84.88-.69.29-1.41.56-2.15.81-.74.25-1.44.46-2.09.63-.04-.07-.1-.15-.19-.24-.09-.09-.18-.19-.27-.28-.09-.09-.18-.17-.26-.24.68-.15,1.38-.32,2.11-.53.73-.21,1.42-.43,2.08-.67.66-.24,1.24-.49,1.73-.76ZM263.5,157.62h4.62v.84h-4.62v-.84ZM265.72,163.34h12.8v8.02h-12.8v-8.02ZM266.68,164.1v1.64h10.88v-1.64h-10.88ZM266.68,166.5v1.68h10.88v-1.68h-10.88ZM266.68,168.92v1.7h10.88v-1.7h-10.88ZM274.4,158.12h.94v.62c0,.39-.06.78-.19,1.19-.13.41-.39.81-.8,1.2-.41.39-1.02.76-1.85,1.1-.83.34-1.94.64-3.34.89-.05-.12-.13-.26-.24-.41-.11-.15-.21-.27-.32-.35,1.35-.21,2.41-.47,3.19-.76.78-.29,1.36-.61,1.73-.94s.61-.67.72-1c.11-.33.16-.65.16-.94v-.6ZM271.84,156.3l.88.18c-.25.83-.6,1.62-1.04,2.37-.44.75-.91,1.4-1.42,1.93-.04-.07-.11-.13-.2-.19-.09-.06-.19-.12-.29-.18-.1-.06-.19-.11-.27-.15.52-.51.98-1.11,1.38-1.8s.72-1.41.96-2.16ZM271.42,157.74h8.32v.84h-8.32v-.84ZM274.08,172.28l.68-.58c.75.21,1.49.44,2.24.69.75.25,1.45.49,2.1.72.65.23,1.23.46,1.72.67l-.88.62c-.45-.21-.99-.44-1.61-.68-.62-.24-1.29-.48-2.01-.73-.72-.25-1.47-.48-2.24-.71ZM275.14,159.54c.33.44.8.84,1.4,1.21.6.37,1.3.67,2.1.92.8.25,1.65.42,2.54.51-.11.09-.22.22-.33.38-.11.16-.2.3-.27.42-.91-.15-1.76-.37-2.57-.67-.81-.3-1.52-.67-2.13-1.11-.61-.44-1.1-.93-1.46-1.46l.72-.2ZM279.46,157.74h.18l.16-.04.64.24c-.25.48-.52.97-.8,1.48-.28.51-.55.93-.82,1.26l-.78-.24c.23-.33.47-.73.73-1.19s.49-.9.69-1.33v-.18Z"/>
          <path class="cls-42" d="M283.04,159.76h7.2v.86h-7.2v-.86ZM283.84,167.52h.82v6.7h-.82v-6.7ZM283.86,162.32h5.58v.84h-5.58v-.84ZM283.86,164.9h5.58v.84h-5.58v-.84ZM284.22,167.52h5.2v5.7h-5.2v-.88h4.36v-3.96h-4.36v-.86ZM285.26,156.66l.7-.42c.31.39.6.81.88,1.28.28.47.5.88.66,1.24l-.78.5c-.13-.36-.34-.79-.63-1.28s-.56-.93-.83-1.32ZM290.2,164.76h7v.94h-7v-.94ZM290.4,157.52h8.04v.92h-8.04v-.92ZM293.2,158.08h.92v16.38h-.92v-16.38ZM298.02,157.52h.96c-.01,1.51-.02,2.93-.03,4.26s0,2.57,0,3.71c.01,1.14.05,2.17.1,3.08.05.91.12,1.7.21,2.35.09.65.21,1.16.36,1.53.15.37.34.58.57.63.05,0,.1-.12.15-.36.05-.24.09-.57.13-.99.04-.42.07-.89.1-1.41.07.07.14.14.23.22.09.08.17.15.24.21s.14.12.21.17c-.05.92-.14,1.62-.26,2.1-.12.48-.27.79-.46.94s-.41.18-.66.1c-.41-.12-.74-.47-.98-1.04-.24-.57-.43-1.35-.56-2.34-.13-.99-.22-2.15-.26-3.49-.04-1.34-.06-2.82-.06-4.45v-5.22Z"/>
          <path class="cls-42" d="M303.16,169.52h17.76v.88h-17.76v-.88ZM303.64,163.46h16.8v3.38h-.96v-2.56h-14.9v2.56h-.94v-3.38ZM308.68,156.54l.5.64c-.56.21-1.2.39-1.93.53s-1.38.25-1.97.33l-.38-.6c.37-.07.79-.15,1.26-.26.47-.11.92-.22,1.37-.34.45-.12.83-.22,1.15-.3ZM304.9,157.44l.96.28.4,6.22h-.92l-.44-6.5ZM305.48,159.22h3.58v.76h-3.58v-.76ZM305.6,161.32h3.58v.76h-3.58v-.76ZM306.76,165.94h9.88v.8h-9.88v-.8ZM311.7,168.46h.96v4.8c0,.29-.05.52-.14.67-.09.15-.27.27-.54.35-.25.08-.63.12-1.13.13s-1.16,0-1.99,0c-.03-.12-.08-.26-.15-.41s-.14-.3-.21-.43c.47.01.89.02,1.27.03.38,0,.7,0,.97,0,.27,0,.45-.01.56-.01.16,0,.27-.03.32-.08.05-.05.08-.15.08-.28v-4.78ZM313.16,159.9l.76.24c-.48.63-1.08,1.23-1.79,1.8s-1.43,1.05-2.15,1.44c-.05-.08-.15-.18-.28-.3-.13-.12-.24-.21-.32-.28.71-.35,1.41-.77,2.1-1.28.69-.51,1.25-1.05,1.68-1.62ZM313.1,156.54l.76.2c-.45.61-1.02,1.2-1.71,1.75-.69.55-1.36,1.02-2.03,1.39-.07-.07-.17-.16-.3-.27-.13-.11-.25-.2-.34-.27.69-.35,1.37-.76,2.02-1.25.65-.49,1.19-1,1.6-1.55ZM309.8,160.66l.54-.48c.47.21.95.46,1.45.74s.97.57,1.41.87.8.59,1.08.87l-.58.58c-.27-.28-.62-.57-1.05-.88-.43-.31-.9-.61-1.39-.91s-.98-.56-1.46-.79ZM309.84,157.36l.54-.52c.45.2.92.43,1.41.69.49.26.95.53,1.39.8.44.27.79.54,1.06.79l-.54.58c-.28-.25-.63-.52-1.05-.81-.42-.29-.88-.56-1.37-.83-.49-.27-.97-.5-1.44-.7ZM316.4,165.94h.24l.22-.06.6.5c-.45.36-.97.7-1.56,1.03-.59.33-1.19.63-1.82.9-.63.27-1.24.51-1.84.71-.07-.09-.15-.19-.25-.3-.1-.11-.2-.19-.29-.26.57-.17,1.15-.39,1.74-.64.59-.25,1.14-.53,1.67-.83.53-.3.96-.58,1.29-.85v-.2ZM314.8,161.32h3.64v.76h-3.64v-.76ZM314.82,157.12h3.94v.78h-3.94v-.78ZM314.92,159.22h3.72v.76h-3.72v-.76ZM318.36,157.12h.92c-.04.73-.09,1.52-.14,2.36-.05.84-.11,1.66-.18,2.45-.07.79-.13,1.47-.2,2.03h-.94c.08-.57.16-1.26.23-2.06.07-.8.14-1.62.19-2.46.05-.84.09-1.61.12-2.32Z"/>
          <path class="cls-42" d="M328.24,168.98l.96.34c-.4.53-.85,1.07-1.36,1.6s-1.03,1.03-1.57,1.49c-.54.46-1.07.88-1.59,1.25-.07-.05-.15-.12-.25-.2s-.2-.16-.31-.23c-.11-.07-.21-.14-.3-.19.81-.52,1.62-1.14,2.41-1.86.79-.72,1.46-1.45,2.01-2.2ZM336.32,156.38l.7.78c-.77.37-1.66.74-2.67,1.09-1.01.35-2.08.69-3.21,1-1.13.31-2.29.61-3.46.88s-2.33.54-3.46.79c-.03-.13-.07-.27-.14-.42s-.13-.27-.18-.38c1.12-.25,2.26-.52,3.43-.81,1.17-.29,2.31-.59,3.42-.9s2.15-.64,3.11-.98c.96-.34,1.78-.69,2.46-1.05ZM324.5,168.46c-.01-.09-.04-.2-.07-.31s-.07-.24-.11-.37c-.04-.13-.08-.24-.12-.32.28-.03.65-.12,1.12-.29.47-.17,1-.38,1.6-.65.35-.16.85-.4,1.51-.72.66-.32,1.42-.71,2.27-1.18.85-.47,1.75-.98,2.68-1.54.93-.56,1.83-1.14,2.68-1.74l.78.62c-1.93,1.31-3.87,2.46-5.8,3.45-1.93.99-3.85,1.85-5.74,2.57v.04c-.16.04-.29.08-.4.13-.11.05-.2.1-.28.15-.08.05-.12.11-.12.16ZM324.5,168.46l-.02-.76.8-.42,13.5-.92c-.01.13-.02.29-.02.46v.42c-2.09.15-3.89.27-5.39.38s-2.76.2-3.77.27c-1.01.07-1.83.14-2.46.19-.63.05-1.11.1-1.45.14s-.6.08-.77.11-.31.08-.42.13ZM325.72,164.36c-.01-.08-.04-.18-.07-.31-.03-.13-.07-.25-.11-.38s-.08-.23-.12-.31c.21-.03.45-.09.71-.18.26-.09.55-.23.87-.4.23-.12.6-.34,1.13-.66s1.11-.7,1.76-1.15c.65-.45,1.26-.92,1.83-1.41l.9.54c-1.01.79-2.04,1.5-3.07,2.13-1.03.63-2.05,1.17-3.05,1.61v.02c-.16.05-.29.11-.4.16-.11.05-.2.11-.27.17-.07.06-.11.12-.11.17ZM325.72,164.36l-.02-.76.7-.32,7.5-.42c-.03.13-.05.28-.06.45-.01.17-.03.3-.04.39-1.39.08-2.54.15-3.47.21-.93.06-1.68.11-2.25.15-.57.04-1.02.08-1.33.11-.31.03-.54.06-.69.09-.15.03-.26.06-.34.1ZM331.76,167.12h.98v5.98c0,.32-.05.56-.14.73-.09.17-.27.3-.54.39-.27.08-.64.13-1.12.15-.48.02-1.09.03-1.82.03-.03-.15-.08-.31-.15-.49-.07-.18-.16-.34-.25-.49.45.01.86.02,1.22.03.36,0,.66,0,.91,0s.42,0,.51-.02c.16-.01.27-.04.32-.09s.08-.13.08-.25v-5.98ZM334.96,169.34l.72-.5c.56.43,1.14.89,1.73,1.38.59.49,1.15.98,1.67,1.46.52.48.95.91,1.3,1.28l-.78.58c-.33-.37-.76-.81-1.27-1.3s-1.06-1-1.65-1.51c-.59-.51-1.16-.98-1.72-1.39ZM335.54,164.14l.8-.4c.52.45,1.05.94,1.59,1.47.54.53,1.04,1.04,1.49,1.55.45.51.82.95,1.1,1.34l-.82.5c-.28-.4-.65-.86-1.11-1.38-.46-.52-.96-1.05-1.49-1.59s-1.05-1.04-1.56-1.49Z"/>
        </g>
      </g>
    </g>
  </g>
  <g id="c136">
    <g id="tx__146qgjhpuxyj3-fill">
      <g class="cls-33">
        <g class="cls-33">
          <path class="cls-42" d="M263.82,132.98l.88.16c-.13.85-.3,1.72-.5,2.59-.2.87-.4,1.62-.6,2.25-.09-.05-.23-.11-.4-.18-.17-.07-.32-.11-.44-.14.25-.63.46-1.36.63-2.2.17-.84.31-1.67.43-2.48ZM263.1,127.52c-.01-.07-.04-.16-.08-.28-.04-.12-.08-.24-.12-.37-.04-.13-.08-.23-.12-.31.16-.04.34-.16.53-.36.19-.2.39-.45.59-.76.12-.15.29-.39.52-.74s.48-.76.77-1.24c.29-.48.57-.99.86-1.54s.55-1.09.79-1.64l.92.4c-.57,1.16-1.2,2.29-1.87,3.38-.67,1.09-1.36,2.05-2.05,2.88v.02c-.15.08-.27.15-.36.2-.09.05-.18.11-.26.18-.08.07-.12.13-.12.18ZM263.24,131.96c-.03-.07-.06-.16-.09-.28s-.07-.24-.12-.37c-.05-.13-.08-.23-.11-.31.19-.04.4-.18.64-.43.24-.25.51-.56.8-.93.16-.19.4-.49.72-.9s.68-.91,1.08-1.5.81-1.21,1.22-1.88.79-1.34,1.14-2.02l.88.48c-.53.92-1.1,1.84-1.69,2.75s-1.21,1.78-1.84,2.6c-.63.82-1.27,1.56-1.91,2.21v.04c-.15.07-.27.13-.37.18-.1.05-.18.11-.25.17-.07.06-.1.12-.1.19ZM263.1,127.52v-.74l.54-.32,3.58-.34c-.03.12-.04.26-.05.41s0,.28,0,.37c-.81.11-1.47.19-1.98.26-.51.07-.9.12-1.17.16s-.47.08-.6.11c-.13.03-.23.06-.31.09ZM263.24,131.96l-.02-.76.54-.38,5.36-.76c-.01.13-.02.27-.02.42s0,.27.02.38c-1.24.2-2.23.36-2.97.48s-1.31.22-1.7.29-.67.14-.84.19c-.17.05-.29.1-.37.14ZM265.92,133.06l.8-.14c.12.68.24,1.42.35,2.22.11.8.18,1.49.21,2.08l-.82.16c-.03-.57-.09-1.26-.19-2.07-.1-.81-.22-1.56-.35-2.25ZM267.7,127.96l.8-.24c.2.43.39.88.58,1.37.19.49.36.95.51,1.4.15.45.26.84.33,1.19l-.82.3c-.08-.35-.19-.75-.33-1.21-.14-.46-.3-.93-.49-1.42-.19-.49-.38-.95-.58-1.39ZM268.16,132.68l.74-.22c.24.6.47,1.26.7,1.97.23.71.39,1.33.5,1.85l-.78.26c-.11-.53-.27-1.16-.5-1.87-.23-.71-.45-1.38-.66-1.99ZM273.06,128.96h.94c-.04,1.32-.12,2.49-.24,3.51-.12,1.02-.33,1.91-.64,2.68-.31.77-.75,1.43-1.32,1.99-.57.56-1.33,1.03-2.28,1.4-.04-.08-.09-.16-.16-.25-.07-.09-.14-.17-.22-.26-.08-.09-.16-.16-.24-.21.89-.35,1.61-.77,2.14-1.28.53-.51.94-1.11,1.22-1.82.28-.71.48-1.53.59-2.48.11-.95.18-2.04.21-3.28ZM270.68,129.84c-.03-.08-.06-.18-.09-.3s-.07-.24-.11-.37c-.04-.13-.09-.24-.14-.33.17-.04.38-.2.61-.48.23-.28.48-.63.75-1.04.16-.2.39-.54.68-1.01.29-.47.62-1.03.99-1.67.37-.64.73-1.33,1.09-2.07.36-.74.69-1.48,1-2.21l1.04.36c-.48,1.04-1,2.07-1.55,3.09-.55,1.02-1.12,1.99-1.71,2.91-.59.92-1.18,1.75-1.78,2.5v.02c-.16.08-.29.15-.39.21-.1.06-.19.12-.27.19-.08.07-.12.13-.12.2ZM270.42,122.98h10.42v.92h-10.42v-.92ZM270.68,129.84l-.02-.76.68-.4,8.24-.84c0,.12,0,.26.03.43.02.17.04.3.05.39-1.55.17-2.84.32-3.88.44-1.04.12-1.88.22-2.51.3-.63.08-1.12.14-1.46.19s-.59.09-.75.13-.29.08-.38.12ZM276.32,128.58h.94v8.1c0,.24.04.39.11.46.07.07.24.1.49.1h1.72c.16,0,.28-.06.36-.18.08-.12.14-.37.17-.74s.06-.93.07-1.68c.08.07.17.13.28.18.11.05.21.1.32.13.11.03.21.07.3.11-.03.81-.08,1.44-.17,1.89-.09.45-.22.76-.41.94-.19.18-.46.27-.82.27h-1.9c-.39,0-.68-.04-.89-.13-.21-.09-.35-.24-.44-.45-.09-.21-.13-.51-.13-.9v-8.1ZM277.24,125.32l.8-.34c.35.51.71,1.05,1.08,1.64.37.59.72,1.15,1.04,1.7s.57,1.02.76,1.42l-.88.46c-.19-.41-.44-.9-.75-1.46-.31-.56-.65-1.14-1-1.74-.35-.6-.7-1.16-1.05-1.68Z"/>
          <path class="cls-42" d="M283.36,123.76h8.18v.86h-8.18v-.86ZM284.26,126.32h6.42v.84h-6.42v-.84ZM284.26,128.9h6.36v.84h-6.36v-.84ZM284.44,131.52h.88v6.7h-.88v-6.7ZM284.86,131.52h5.8v5.7h-5.8v-.88h4.9v-3.96h-4.9v-.86ZM285.82,120.66l.78-.42c.31.39.61.81.9,1.28.29.47.52.88.68,1.24l-.8.5c-.17-.36-.4-.79-.69-1.28-.29-.49-.58-.93-.87-1.32ZM291.52,127.4h9.5v.96h-9.5v-.96ZM295.7,120.68h.96v17.8h-.96v-17.8Z"/>
          <path class="cls-42" d="M303.16,133.52h17.76v.88h-17.76v-.88ZM303.64,127.46h16.8v3.38h-.96v-2.56h-14.9v2.56h-.94v-3.38ZM308.68,120.54l.5.64c-.56.21-1.2.39-1.93.53s-1.38.25-1.97.33l-.38-.6c.37-.07.79-.15,1.26-.26.47-.11.92-.22,1.37-.34.45-.12.83-.22,1.15-.3ZM304.9,121.44l.96.28.4,6.22h-.92l-.44-6.5ZM305.48,123.22h3.58v.76h-3.58v-.76ZM305.6,125.32h3.58v.76h-3.58v-.76ZM306.76,129.94h9.88v.8h-9.88v-.8ZM311.7,132.46h.96v4.8c0,.29-.05.52-.14.67-.09.15-.27.27-.54.35-.25.08-.63.12-1.13.13s-1.16,0-1.99,0c-.03-.12-.08-.26-.15-.41s-.14-.3-.21-.43c.47.01.89.02,1.27.03.38,0,.7,0,.97,0,.27,0,.45-.01.56-.01.16,0,.27-.03.32-.08.05-.05.08-.15.08-.28v-4.78ZM313.16,123.9l.76.24c-.48.63-1.08,1.23-1.79,1.8s-1.43,1.05-2.15,1.44c-.05-.08-.15-.18-.28-.3-.13-.12-.24-.21-.32-.28.71-.35,1.41-.77,2.1-1.28.69-.51,1.25-1.05,1.68-1.62ZM313.1,120.54l.76.2c-.45.61-1.02,1.2-1.71,1.75-.69.55-1.36,1.02-2.03,1.39-.07-.07-.17-.16-.3-.27-.13-.11-.25-.2-.34-.27.69-.35,1.37-.76,2.02-1.25.65-.49,1.19-1,1.6-1.55ZM309.8,124.66l.54-.48c.47.21.95.46,1.45.74s.97.57,1.41.87.8.59,1.08.87l-.58.58c-.27-.28-.62-.57-1.05-.88-.43-.31-.9-.61-1.39-.91s-.98-.56-1.46-.79ZM309.84,121.36l.54-.52c.45.2.92.43,1.41.69.49.26.95.53,1.39.8.44.27.79.54,1.06.79l-.54.58c-.28-.25-.63-.52-1.05-.81-.42-.29-.88-.56-1.37-.83-.49-.27-.97-.5-1.44-.7ZM316.4,129.94h.24l.22-.06.6.5c-.45.36-.97.7-1.56,1.03-.59.33-1.19.63-1.82.9-.63.27-1.24.51-1.84.71-.07-.09-.15-.19-.25-.3-.1-.11-.2-.19-.29-.26.57-.17,1.15-.39,1.74-.64.59-.25,1.14-.53,1.67-.83.53-.3.96-.58,1.29-.85v-.2ZM314.8,125.32h3.64v.76h-3.64v-.76ZM314.82,121.12h3.94v.78h-3.94v-.78ZM314.92,123.22h3.72v.76h-3.72v-.76ZM318.36,121.12h.92c-.04.73-.09,1.52-.14,2.36-.05.84-.11,1.66-.18,2.45-.07.79-.13,1.47-.2,2.03h-.94c.08-.57.16-1.26.23-2.06.07-.8.14-1.62.19-2.46.05-.84.09-1.61.12-2.32Z"/>
          <path class="cls-42" d="M328.24,132.98l.96.34c-.4.53-.85,1.07-1.36,1.6s-1.03,1.03-1.57,1.49c-.54.46-1.07.88-1.59,1.25-.07-.05-.15-.12-.25-.2s-.2-.16-.31-.23c-.11-.07-.21-.14-.3-.19.81-.52,1.62-1.14,2.41-1.86.79-.72,1.46-1.45,2.01-2.2ZM336.32,120.38l.7.78c-.77.37-1.66.74-2.67,1.09-1.01.35-2.08.69-3.21,1-1.13.31-2.29.61-3.46.88s-2.33.54-3.46.79c-.03-.13-.07-.27-.14-.42s-.13-.27-.18-.38c1.12-.25,2.26-.52,3.43-.81,1.17-.29,2.31-.59,3.42-.9s2.15-.64,3.11-.98c.96-.34,1.78-.69,2.46-1.05ZM324.5,132.46c-.01-.09-.04-.2-.07-.31s-.07-.24-.11-.37c-.04-.13-.08-.24-.12-.32.28-.03.65-.12,1.12-.29.47-.17,1-.38,1.6-.65.35-.16.85-.4,1.51-.72.66-.32,1.42-.71,2.27-1.18.85-.47,1.75-.98,2.68-1.54.93-.56,1.83-1.14,2.68-1.74l.78.62c-1.93,1.31-3.87,2.46-5.8,3.45-1.93.99-3.85,1.85-5.74,2.57v.04c-.16.04-.29.08-.4.13-.11.05-.2.1-.28.15-.08.05-.12.11-.12.16ZM324.5,132.46l-.02-.76.8-.42,13.5-.92c-.01.13-.02.29-.02.46v.42c-2.09.15-3.89.27-5.39.38s-2.76.2-3.77.27c-1.01.07-1.83.14-2.46.19-.63.05-1.11.1-1.45.14s-.6.08-.77.11-.31.08-.42.13ZM325.72,128.36c-.01-.08-.04-.18-.07-.31-.03-.13-.07-.25-.11-.38s-.08-.23-.12-.31c.21-.03.45-.09.71-.18.26-.09.55-.23.87-.4.23-.12.6-.34,1.13-.66s1.11-.7,1.76-1.15c.65-.45,1.26-.92,1.83-1.41l.9.54c-1.01.79-2.04,1.5-3.07,2.13-1.03.63-2.05,1.17-3.05,1.61v.02c-.16.05-.29.11-.4.16-.11.05-.2.11-.27.17-.07.06-.11.12-.11.17ZM325.72,128.36l-.02-.76.7-.32,7.5-.42c-.03.13-.05.28-.06.45-.01.17-.03.3-.04.39-1.39.08-2.54.15-3.47.21-.93.06-1.68.11-2.25.15-.57.04-1.02.08-1.33.11-.31.03-.54.06-.69.09-.15.03-.26.06-.34.1ZM331.76,131.12h.98v5.98c0,.32-.05.56-.14.73-.09.17-.27.3-.54.39-.27.08-.64.13-1.12.15-.48.02-1.09.03-1.82.03-.03-.15-.08-.31-.15-.49-.07-.18-.16-.34-.25-.49.45.01.86.02,1.22.03.36,0,.66,0,.91,0s.42,0,.51-.02c.16-.01.27-.04.32-.09s.08-.13.08-.25v-5.98ZM334.96,133.34l.72-.5c.56.43,1.14.89,1.73,1.38.59.49,1.15.98,1.67,1.46.52.48.95.91,1.3,1.28l-.78.58c-.33-.37-.76-.81-1.27-1.3s-1.06-1-1.65-1.51c-.59-.51-1.16-.98-1.72-1.39ZM335.54,128.14l.8-.4c.52.45,1.05.94,1.59,1.47.54.53,1.04,1.04,1.49,1.55.45.51.82.95,1.1,1.34l-.82.5c-.28-.4-.65-.86-1.11-1.38-.46-.52-.96-1.05-1.49-1.59s-1.05-1.04-1.56-1.49Z"/>
        </g>
      </g>
    </g>
  </g>
  <g id="c135">
    <g id="tx__1d2dgsdpuxxqe-fill">
      <g class="cls-33">
        <g class="cls-33">
          <path class="cls-42" d="M744.9,150.52h10.26v.82h-10.26v-.82ZM752.08,149.58h.84v.52c0,.41-.04.85-.12,1.3-.08.45-.25.91-.52,1.37-.27.46-.67.91-1.22,1.35-.55.44-1.28.86-2.2,1.25-.92.39-2.07.76-3.44,1.09-.05-.09-.13-.21-.23-.35-.1-.14-.19-.25-.27-.33,1.33-.29,2.44-.62,3.32-.99.88-.37,1.58-.75,2.09-1.16.51-.41.9-.82,1.15-1.24.25-.42.42-.82.49-1.21.07-.39.11-.75.11-1.08v-.52ZM745.02,141.74h1.8v.02h6.68v-.02h1.84v.82h-1.84v-.02h-6.68v.02h-1.8v-.82ZM745.84,145.92h8.8v3.08h-8.8v-3.08ZM746.38,139.66h7.78v5.22h-7.78v-5.22ZM746.48,153.22c.31-.4.62-.86.94-1.39s.63-1.07.92-1.63c.29-.56.54-1.09.74-1.58l.88.18c-.21.52-.47,1.06-.77,1.62-.3.56-.6,1.09-.91,1.6-.31.51-.59.95-.86,1.32l-.94-.12ZM746.48,153.22l.68-.58c.73.2,1.5.46,2.31.77.81.31,1.57.64,2.3.98.73.34,1.34.66,1.83.95l-.68.64c-.47-.31-1.06-.63-1.79-.98s-1.5-.68-2.31-.99c-.81-.31-1.59-.58-2.34-.79ZM746.72,146.66v1.6h7.04v-1.6h-7.04ZM747.2,140.44v3.66h6.1v-3.66h-6.1ZM749.74,138.3h.84v10.4h-.84v-10.4ZM760.58,142.92l.92.1c-.27,2.27-.68,4.25-1.25,5.95s-1.35,3.17-2.34,4.4c-.99,1.23-2.28,2.27-3.87,3.11-.04-.07-.09-.15-.16-.25-.07-.1-.14-.2-.22-.29-.08-.09-.15-.17-.2-.22,1.55-.76,2.8-1.73,3.75-2.9.95-1.17,1.69-2.58,2.22-4.21.53-1.63.91-3.53,1.15-5.69ZM757.72,138.32l.9.16c-.23,1.17-.5,2.32-.83,3.44s-.69,2.17-1.08,3.16-.83,1.86-1.31,2.62c-.05-.05-.13-.12-.22-.19s-.19-.15-.29-.22c-.1-.07-.19-.13-.27-.17.49-.73.93-1.57,1.32-2.51.39-.94.73-1.95,1.03-3.02.3-1.07.55-2.16.75-3.27ZM757.18,143.48c.25,1.85.63,3.58,1.13,5.18.5,1.6,1.15,3,1.96,4.21s1.79,2.12,2.95,2.75c-.07.05-.14.12-.23.21-.09.09-.17.18-.24.28-.07.1-.14.19-.19.27-1.2-.72-2.2-1.7-3.01-2.95-.81-1.25-1.46-2.71-1.96-4.38-.5-1.67-.89-3.48-1.17-5.43l.76-.14ZM756.9,142.42h6.22v.9h-6.22v-.9Z"/>
          <path class="cls-42" d="M765.16,151.52h17.76v.88h-17.76v-.88ZM765.64,145.46h16.8v3.38h-.96v-2.56h-14.9v2.56h-.94v-3.38ZM770.68,138.54l.5.64c-.56.21-1.2.39-1.93.53s-1.38.25-1.97.33l-.38-.6c.37-.07.79-.15,1.26-.26.47-.11.92-.22,1.37-.34.45-.12.83-.22,1.15-.3ZM766.9,139.44l.96.28.4,6.22h-.92l-.44-6.5ZM767.48,141.22h3.58v.76h-3.58v-.76ZM767.6,143.32h3.58v.76h-3.58v-.76ZM768.76,147.94h9.88v.8h-9.88v-.8ZM773.7,150.46h.96v4.8c0,.29-.05.52-.14.67-.09.15-.27.27-.54.35-.25.08-.63.12-1.13.13s-1.16,0-1.99,0c-.03-.12-.08-.26-.15-.41s-.14-.3-.21-.43c.47.01.89.02,1.27.03.38,0,.7,0,.97,0,.27,0,.45-.01.56-.01.16,0,.27-.03.32-.08.05-.05.08-.15.08-.28v-4.78ZM775.16,141.9l.76.24c-.48.63-1.08,1.23-1.79,1.8s-1.43,1.05-2.15,1.44c-.05-.08-.15-.18-.28-.3-.13-.12-.24-.21-.32-.28.71-.35,1.41-.77,2.1-1.28.69-.51,1.25-1.05,1.68-1.62ZM775.1,138.54l.76.2c-.45.61-1.02,1.2-1.71,1.75-.69.55-1.36,1.02-2.03,1.39-.07-.07-.17-.16-.3-.27-.13-.11-.25-.2-.34-.27.69-.35,1.37-.76,2.02-1.25.65-.49,1.19-1,1.6-1.55ZM771.8,142.66l.54-.48c.47.21.95.46,1.45.74s.97.57,1.41.87.8.59,1.08.87l-.58.58c-.27-.28-.62-.57-1.05-.88-.43-.31-.9-.61-1.39-.91s-.98-.56-1.46-.79ZM771.84,139.36l.54-.52c.45.2.92.43,1.41.69.49.26.95.53,1.39.8.44.27.79.54,1.06.79l-.54.58c-.28-.25-.63-.52-1.05-.81-.42-.29-.88-.56-1.37-.83-.49-.27-.97-.5-1.44-.7ZM778.4,147.94h.24l.22-.06.6.5c-.45.36-.97.7-1.56,1.03-.59.33-1.19.63-1.82.9-.63.27-1.24.51-1.84.71-.07-.09-.15-.19-.25-.3-.1-.11-.2-.19-.29-.26.57-.17,1.15-.39,1.74-.64.59-.25,1.14-.53,1.67-.83.53-.3.96-.58,1.29-.85v-.2ZM776.8,143.32h3.64v.76h-3.64v-.76ZM776.82,139.12h3.94v.78h-3.94v-.78ZM776.92,141.22h3.72v.76h-3.72v-.76ZM780.36,139.12h.92c-.04.73-.09,1.52-.14,2.36-.05.84-.11,1.66-.18,2.45-.07.79-.13,1.47-.2,2.03h-.94c.08-.57.16-1.26.23-2.06.07-.8.14-1.62.19-2.46.05-.84.09-1.61.12-2.32Z"/>
          <path class="cls-42" d="M785.16,151.52h17.76v.88h-17.76v-.88ZM785.64,145.46h16.8v3.38h-.96v-2.56h-14.9v2.56h-.94v-3.38ZM790.68,138.54l.5.64c-.56.21-1.2.39-1.93.53s-1.38.25-1.97.33l-.38-.6c.37-.07.79-.15,1.26-.26.47-.11.92-.22,1.37-.34.45-.12.83-.22,1.15-.3ZM786.9,139.44l.96.28.4,6.22h-.92l-.44-6.5ZM787.48,141.22h3.58v.76h-3.58v-.76ZM787.6,143.32h3.58v.76h-3.58v-.76ZM788.76,147.94h9.88v.8h-9.88v-.8ZM793.7,150.46h.96v4.8c0,.29-.05.52-.14.67-.09.15-.27.27-.54.35-.25.08-.63.12-1.13.13s-1.16,0-1.99,0c-.03-.12-.08-.26-.15-.41s-.14-.3-.21-.43c.47.01.89.02,1.27.03.38,0,.7,0,.97,0,.27,0,.45-.01.56-.01.16,0,.27-.03.32-.08.05-.05.08-.15.08-.28v-4.78ZM795.16,141.9l.76.24c-.48.63-1.08,1.23-1.79,1.8s-1.43,1.05-2.15,1.44c-.05-.08-.15-.18-.28-.3-.13-.12-.24-.21-.32-.28.71-.35,1.41-.77,2.1-1.28.69-.51,1.25-1.05,1.68-1.62ZM795.1,138.54l.76.2c-.45.61-1.02,1.2-1.71,1.75-.69.55-1.36,1.02-2.03,1.39-.07-.07-.17-.16-.3-.27-.13-.11-.25-.2-.34-.27.69-.35,1.37-.76,2.02-1.25.65-.49,1.19-1,1.6-1.55ZM791.8,142.66l.54-.48c.47.21.95.46,1.45.74s.97.57,1.41.87.8.59,1.08.87l-.58.58c-.27-.28-.62-.57-1.05-.88-.43-.31-.9-.61-1.39-.91s-.98-.56-1.46-.79ZM791.84,139.36l.54-.52c.45.2.92.43,1.41.69.49.26.95.53,1.39.8.44.27.79.54,1.06.79l-.54.58c-.28-.25-.63-.52-1.05-.81-.42-.29-.88-.56-1.37-.83-.49-.27-.97-.5-1.44-.7ZM798.4,147.94h.24l.22-.06.6.5c-.45.36-.97.7-1.56,1.03-.59.33-1.19.63-1.82.9-.63.27-1.24.51-1.84.71-.07-.09-.15-.19-.25-.3-.1-.11-.2-.19-.29-.26.57-.17,1.15-.39,1.74-.64.59-.25,1.14-.53,1.67-.83.53-.3.96-.58,1.29-.85v-.2ZM796.8,143.32h3.64v.76h-3.64v-.76ZM796.82,139.12h3.94v.78h-3.94v-.78ZM796.92,141.22h3.72v.76h-3.72v-.76ZM800.36,139.12h.92c-.04.73-.09,1.52-.14,2.36-.05.84-.11,1.66-.18,2.45-.07.79-.13,1.47-.2,2.03h-.94c.08-.57.16-1.26.23-2.06.07-.8.14-1.62.19-2.46.05-.84.09-1.61.12-2.32Z"/>
          <path class="cls-42" d="M810.24,150.98l.96.34c-.4.53-.85,1.07-1.36,1.6s-1.03,1.03-1.57,1.49c-.54.46-1.07.88-1.59,1.25-.07-.05-.15-.12-.25-.2s-.2-.16-.31-.23c-.11-.07-.21-.14-.3-.19.81-.52,1.62-1.14,2.41-1.86.79-.72,1.46-1.45,2.01-2.2ZM818.32,138.38l.7.78c-.77.37-1.66.74-2.67,1.09-1.01.35-2.08.69-3.21,1-1.13.31-2.29.61-3.46.88s-2.33.54-3.46.79c-.03-.13-.07-.27-.14-.42s-.13-.27-.18-.38c1.12-.25,2.26-.52,3.43-.81,1.17-.29,2.31-.59,3.42-.9s2.15-.64,3.11-.98c.96-.34,1.78-.69,2.46-1.05ZM806.5,150.46c-.01-.09-.04-.2-.07-.31s-.07-.24-.11-.37c-.04-.13-.08-.24-.12-.32.28-.03.65-.12,1.12-.29.47-.17,1-.38,1.6-.65.35-.16.85-.4,1.51-.72.66-.32,1.42-.71,2.27-1.18.85-.47,1.75-.98,2.68-1.54.93-.56,1.83-1.14,2.68-1.74l.78.62c-1.93,1.31-3.87,2.46-5.8,3.45-1.93.99-3.85,1.85-5.74,2.57v.04c-.16.04-.29.08-.4.13-.11.05-.2.1-.28.15-.08.05-.12.11-.12.16ZM806.5,150.46l-.02-.76.8-.42,13.5-.92c-.01.13-.02.29-.02.46v.42c-2.09.15-3.89.27-5.39.38s-2.76.2-3.77.27c-1.01.07-1.83.14-2.46.19-.63.05-1.11.1-1.45.14s-.6.08-.77.11-.31.08-.42.13ZM807.72,146.36c-.01-.08-.04-.18-.07-.31-.03-.13-.07-.25-.11-.38s-.08-.23-.12-.31c.21-.03.45-.09.71-.18.26-.09.55-.23.87-.4.23-.12.6-.34,1.13-.66s1.11-.7,1.76-1.15c.65-.45,1.26-.92,1.83-1.41l.9.54c-1.01.79-2.04,1.5-3.07,2.13-1.03.63-2.05,1.17-3.05,1.61v.02c-.16.05-.29.11-.4.16-.11.05-.2.11-.27.17-.07.06-.11.12-.11.17ZM807.72,146.36l-.02-.76.7-.32,7.5-.42c-.03.13-.05.28-.06.45-.01.17-.03.3-.04.39-1.39.08-2.54.15-3.47.21-.93.06-1.68.11-2.25.15-.57.04-1.02.08-1.33.11-.31.03-.54.06-.69.09-.15.03-.26.06-.34.1ZM813.76,149.12h.98v5.98c0,.32-.05.56-.14.73-.09.17-.27.3-.54.39-.27.08-.64.13-1.12.15-.48.02-1.09.03-1.82.03-.03-.15-.08-.31-.15-.49-.07-.18-.16-.34-.25-.49.45.01.86.02,1.22.03.36,0,.66,0,.91,0s.42,0,.51-.02c.16-.01.27-.04.32-.09s.08-.13.08-.25v-5.98ZM816.96,151.34l.72-.5c.56.43,1.14.89,1.73,1.38.59.49,1.15.98,1.67,1.46.52.48.95.91,1.3,1.28l-.78.58c-.33-.37-.76-.81-1.27-1.3s-1.06-1-1.65-1.51c-.59-.51-1.16-.98-1.72-1.39ZM817.54,146.14l.8-.4c.52.45,1.05.94,1.59,1.47.54.53,1.04,1.04,1.49,1.55.45.51.82.95,1.1,1.34l-.82.5c-.28-.4-.65-.86-1.11-1.38-.46-.52-.96-1.05-1.49-1.59s-1.05-1.04-1.56-1.49Z"/>
        </g>
      </g>
    </g>
  </g>
  <g id="b53">
    <g id="g-root-ro_18hk5z1pvbzsy-fill">
      <g id="ro_18hk5z1pvbzsy-fill">
        <path class="cls-14" d="M259.58,51h125.83s12.58,0,12.58,12v30s0,12-12.58,12h-125.83s-12.58,0-12.58-12v-30s0-12,12.58-12"/>
      </g>
    </g>
    <g id="g-root-tx__1q8u6gtpvbxfs-fill">
      <g id="tx__1q8u6gtpvbxfs-fill">
        <g class="cls-33">
          <g class="cls-33">
            <path class="cls-22" d="M263.66,82.04l1.12.2c-.11.87-.25,1.74-.44,2.61-.19.87-.39,1.62-.6,2.25-.11-.07-.27-.14-.5-.22s-.41-.14-.56-.18c.24-.63.44-1.36.59-2.19.15-.83.28-1.66.39-2.47ZM263.12,76.64c-.03-.09-.07-.22-.12-.38s-.11-.32-.16-.48-.1-.3-.14-.42c.16-.04.33-.16.52-.35.19-.19.38-.44.58-.75.12-.15.29-.39.51-.73.22-.34.46-.75.73-1.22.27-.47.54-.98.81-1.52s.52-1.08.73-1.63l1.24.54c-.53,1.13-1.13,2.25-1.8,3.34-.67,1.09-1.34,2.05-2.02,2.86v.02c-.17.11-.32.19-.44.26-.12.07-.22.14-.31.22-.09.08-.13.16-.13.24ZM263.26,81.12c-.03-.09-.07-.22-.12-.37-.05-.15-.11-.31-.16-.48-.05-.17-.11-.3-.16-.41.21-.04.44-.18.68-.43.24-.25.51-.56.8-.93.17-.19.42-.49.73-.91.31-.42.67-.92,1.07-1.51.4-.59.8-1.22,1.2-1.89.4-.67.77-1.35,1.1-2.03l1.18.68c-.52.92-1.08,1.83-1.68,2.74-.6.91-1.22,1.77-1.85,2.59s-1.28,1.56-1.93,2.23v.04c-.17.08-.32.16-.44.23-.12.07-.22.15-.3.23s-.12.15-.12.22ZM263.12,76.64l-.02-.96.64-.38,3.52-.32c-.03.16-.05.34-.06.54-.01.2-.02.37-.02.5-.81.09-1.47.17-1.97.23s-.89.11-1.16.16-.48.09-.61.12c-.13.03-.24.07-.32.11ZM263.26,81.12l-.06-.98.64-.44,5.28-.78c-.03.17-.04.36-.04.56s0,.37.02.5c-1.21.2-2.19.36-2.92.49-.73.13-1.29.23-1.68.3-.39.07-.67.14-.84.2-.17.06-.31.11-.4.15ZM265.8,82.18l1.04-.22c.12.68.23,1.41.34,2.2.11.79.17,1.47.2,2.04l-1.08.26c-.01-.59-.07-1.28-.16-2.07-.09-.79-.21-1.53-.34-2.21ZM267.6,77.04l1-.34c.21.43.41.88.6,1.36.19.48.35.95.5,1.4.15.45.26.85.34,1.2l-1.06.42c-.08-.35-.19-.75-.33-1.22-.14-.47-.3-.95-.48-1.44s-.37-.95-.57-1.38ZM268.02,81.76l.96-.3c.24.59.47,1.22.68,1.9.21.68.37,1.27.48,1.78l-1.02.34c-.09-.51-.25-1.11-.46-1.8-.21-.69-.43-1.33-.64-1.92ZM272.82,78.06h1.28c-.04,1.27-.12,2.4-.23,3.41-.11,1.01-.32,1.9-.62,2.67-.3.77-.73,1.45-1.29,2.02s-1.3,1.07-2.22,1.48c-.05-.12-.13-.24-.22-.37-.09-.13-.19-.25-.3-.37-.11-.12-.21-.21-.3-.28.84-.36,1.51-.79,2.02-1.29.51-.5.89-1.09,1.15-1.78.26-.69.44-1.48.54-2.39s.16-1.94.19-3.1ZM270.7,78.98c-.03-.09-.07-.22-.12-.38-.05-.16-.11-.33-.16-.51s-.11-.33-.18-.45c.19-.04.39-.2.62-.47s.48-.61.76-1.01c.15-.21.36-.55.64-1.01.28-.46.6-1.01.95-1.65.35-.64.7-1.33,1.05-2.06s.66-1.47.94-2.2l1.44.44c-.45,1.04-.95,2.07-1.5,3.1-.55,1.03-1.11,2-1.7,2.92-.59.92-1.17,1.75-1.74,2.48v.04c-.2.11-.37.2-.5.27-.13.07-.25.15-.35.24-.1.09-.15.17-.15.25ZM270.36,71.8h10.54v1.26h-10.54v-1.26ZM270.7,78.98l-.04-1.02.82-.48,8-.82c.01.17.03.37.06.59s.05.4.08.53c-1.51.17-2.77.32-3.79.44s-1.85.22-2.48.3c-.63.08-1.12.14-1.46.19-.34.05-.6.09-.77.14-.17.05-.31.09-.42.13ZM276.12,77.66h1.28v7.74c0,.25.03.42.1.49.07.07.21.11.42.11h1.5c.15,0,.26-.06.34-.18s.14-.37.17-.75.05-.95.05-1.71c.11.08.23.16.37.23.14.07.28.13.43.18.15.05.28.09.4.13-.04.88-.11,1.56-.21,2.04-.1.48-.26.81-.48,1-.22.19-.53.28-.93.28h-1.8c-.43,0-.76-.05-1-.16-.24-.11-.41-.29-.5-.55s-.14-.62-.14-1.09v-7.76ZM277.06,74.44l1.1-.48c.35.51.71,1.05,1.08,1.64.37.59.72,1.16,1.03,1.71.31.55.56,1.04.75,1.47l-1.2.58c-.17-.41-.41-.91-.72-1.48s-.64-1.16-.99-1.76c-.35-.6-.7-1.16-1.05-1.68Z"/>
            <path class="cls-22" d="M283.3,72.64h8.26v1.14h-8.26v-1.14ZM284.2,75.28h6.5v1.08h-6.5v-1.08ZM284.2,77.88h6.46v1.08h-6.46v-1.08ZM284.36,80.54h1.16v6.76h-1.16v-6.76ZM284.92,80.54h5.76v5.8h-5.76v-1.14h4.58v-3.52h-4.58v-1.14ZM285.7,69.7l1.06-.54c.29.4.58.84.87,1.31.29.47.51.89.67,1.25l-1.08.64c-.16-.36-.38-.79-.67-1.3-.29-.51-.57-.96-.85-1.36ZM291.52,76.2h9.56v1.34h-9.56v-1.34ZM295.52,69.6h1.36v17.96h-1.36v-17.96Z"/>
            <path class="cls-22" d="M303.1,82.44h17.86v1.16h-17.86v-1.16ZM303.54,76.4h17v3.56h-1.34v-2.52h-14.38v2.52h-1.28v-3.56ZM308.62,69.42l.62.84c-.57.23-1.23.41-1.97.56s-1.41.26-2.01.34l-.5-.78c.39-.07.82-.16,1.29-.27s.94-.23,1.4-.36.85-.24,1.17-.33ZM304.76,70.38l1.3.36.4,6.22h-1.26l-.44-6.58ZM305.5,72.12h3.62v.96h-3.62v-.96ZM305.6,74.24h3.62v.96h-3.62v-.96ZM306.78,78.9h9.58v1.04h-9.58v-1.04ZM311.54,81.52h1.3v4.56c0,.36-.05.63-.15.82-.1.19-.3.33-.61.44-.29.09-.7.14-1.22.15-.52,0-1.19,0-2,0-.03-.16-.09-.35-.18-.56-.09-.21-.19-.4-.28-.56.44.01.84.02,1.21.03.37,0,.69,0,.96,0s.46,0,.55,0c.16-.01.27-.04.33-.09s.09-.14.09-.27v-4.52ZM313.06,72.8l.98.3c-.48.63-1.08,1.23-1.8,1.81-.72.58-1.44,1.06-2.16,1.45-.08-.09-.2-.22-.36-.37-.16-.15-.29-.28-.4-.37.71-.33,1.4-.75,2.09-1.24.69-.49,1.24-1.02,1.65-1.58ZM313,69.42l.98.28c-.45.61-1.02,1.2-1.71,1.75-.69.55-1.37,1.02-2.05,1.39-.08-.09-.2-.21-.36-.36-.16-.15-.3-.25-.42-.32.68-.35,1.35-.76,2-1.23.65-.47,1.17-.98,1.56-1.51ZM309.74,73.66l.7-.6c.45.21.93.46,1.42.74.49.28.96.57,1.4.87.44.3.79.58,1.06.85l-.72.7c-.27-.28-.61-.57-1.04-.87-.43-.3-.88-.6-1.37-.9-.49-.3-.97-.56-1.45-.79ZM309.8,70.32l.68-.62c.45.19.92.41,1.39.68s.93.53,1.36.8c.43.27.78.53,1.05.78l-.7.68c-.27-.24-.61-.5-1.03-.79-.42-.29-.87-.56-1.35-.83-.48-.27-.95-.5-1.4-.7ZM316.04,78.9h.32l.28-.06.8.68c-.45.36-.97.71-1.56,1.04-.59.33-1.2.64-1.83.93s-1.25.54-1.85.75c-.07-.12-.17-.25-.31-.39-.14-.14-.26-.25-.35-.33.53-.19,1.08-.41,1.65-.68s1.1-.55,1.61-.84.92-.57,1.24-.84v-.26ZM314.78,74.24h3.58v.96h-3.58v-.96ZM314.8,70h3.86v.96h-3.86v-.96ZM314.9,72.12h3.62v.96h-3.62v-.96ZM318.12,70h1.28c-.04.76-.09,1.57-.14,2.42s-.11,1.68-.18,2.49-.13,1.5-.2,2.09h-1.3c.09-.6.17-1.31.24-2.12.07-.81.13-1.65.18-2.5.05-.85.09-1.65.12-2.38Z"/>
            <path class="cls-22" d="M325.3,75.46l.88.32c-.28.67-.66,1.34-1.14,2.01-.48.67-.99,1.2-1.52,1.59-.09-.15-.22-.31-.38-.48-.16-.17-.31-.31-.44-.4.35-.2.68-.46,1.01-.79.33-.33.63-.69.91-1.08.28-.39.51-.78.68-1.17ZM326.68,79.08h1.2v2.02c0,.55-.05,1.1-.15,1.67-.1.57-.3,1.12-.59,1.67-.29.55-.73,1.08-1.32,1.59-.59.51-1.37.98-2.36,1.41-.04-.09-.1-.2-.18-.33-.08-.13-.17-.25-.26-.37-.09-.12-.18-.22-.26-.3.89-.37,1.6-.78,2.13-1.22.53-.44.92-.9,1.17-1.37.25-.47.42-.94.5-1.41s.12-.92.12-1.36v-2ZM322.98,80.96h8.74v1.14h-8.74v-1.14ZM323.02,73.7h8.5v1.12h-8.5v-1.12ZM323.5,70.34l.96-.38c.27.36.52.76.75,1.2.23.44.4.83.49,1.16l-1.02.42c-.09-.33-.25-.72-.47-1.17-.22-.45-.46-.86-.71-1.23ZM326.72,83.74l.74-.84c.41.28.86.59,1.34.92s.94.66,1.37.98c.43.32.79.61,1.07.86l-.74.94c-.28-.25-.63-.55-1.06-.88-.43-.33-.88-.68-1.36-1.03-.48-.35-.93-.67-1.36-.95ZM326.76,69.32h1.18v9.32h-1.18v-9.32ZM329.08,75.54c.13.08.32.22.57.43.25.21.51.43.8.67.29.24.55.46.79.67.24.21.41.36.5.45l-.78.92c-.12-.15-.29-.34-.52-.58-.23-.24-.47-.49-.73-.76-.26-.27-.51-.51-.74-.74-.23-.23-.43-.4-.59-.52l.7-.54ZM328.82,79.34l.8-.46c.25.23.51.5.77.82.26.32.46.59.61.82l-.8.56c-.15-.25-.35-.54-.61-.87-.26-.33-.52-.62-.77-.87ZM330.08,69.96l1.16.38c-.24.44-.48.88-.72,1.33-.24.45-.47.83-.7,1.15l-.92-.34c.2-.36.41-.78.64-1.26.23-.48.41-.9.54-1.26ZM334.74,84.26l1.18.68c-.29.33-.65.67-1.08,1-.43.33-.87.64-1.34.93-.47.29-.93.53-1.38.73-.11-.13-.25-.29-.42-.46-.17-.17-.33-.32-.48-.44.44-.19.89-.42,1.34-.69.45-.27.87-.56,1.26-.87.39-.31.69-.6.92-.88ZM331.8,70.22h9.32v1.18h-9.32v-1.18ZM332.64,73.4h7.66v10.38h-7.66v-10.38ZM333.88,74.48v2.02h5.14v-2.02h-5.14ZM333.88,77.54v2.06h5.14v-2.06h-5.14ZM333.88,80.62v2.1h5.14v-2.1h-5.14ZM335.6,70.76l1.44.22c-.16.57-.33,1.14-.52,1.71-.19.57-.36,1.06-.52,1.49l-1.16-.24c.09-.29.19-.63.29-1,.1-.37.19-.75.27-1.14s.15-.73.2-1.04ZM336.94,84.98l.98-.68c.4.24.82.51,1.25.82s.85.61,1.24.9c.39.29.72.57.99.82l-1.06.76c-.24-.25-.55-.53-.93-.84-.38-.31-.79-.62-1.22-.93s-.85-.6-1.25-.85Z"/>
          </g>
        </g>
      </g>
    </g>
    <g id="_圖層_1">
      <g id="_圖層_1-2">
        <g id="_圖層_2">
          <g>
            <rect class="cls-23" x="355.08" y="66.94" width="30.96" height="22.76" transform="translate(291.59 448.74) rotate(-89.9)"/>
            <rect class="cls-25" x="354.31" y="65.95" width="30.96" height="22.76" transform="translate(291.82 446.98) rotate(-89.9)"/>
            <path class="cls-39" d="M360.91,70.18s-.04,0-.05-.02c-.03-.03-.03-.07,0-.1l.66-.66s.07-.03.1,0l.66.66s.03.07,0,.1-.07.03-.1,0l-.61-.6-.6.6s-.03.02-.05.02h0Z"/>
            <path class="cls-39" d="M378.02,85.27s-.04,0-.05-.02c-.03-.03-.03-.07,0-.1l.6-.6-.6-.61s-.03-.07,0-.1.07-.03.1,0l.66.66s.03.07,0,.1l-.66.66s-.03.02-.05.02h0Z"/>
            <path class="cls-39" d="M369.9,72.22s-.02,0-.03,0c-.03-.02-.05-.06-.03-.1l1.13-2.06s.06-.05.1-.03.05.06.03.1l-1.13,2.06s-.04.04-.06.04h0Z"/>
            <path class="cls-39" d="M371.25,72.22c-.25,0-.44-.19-.44-.44v-.25c0-.25.19-.44.44-.44s.44.19.44.44v.25c0,.25-.19.44-.44.44ZM371.25,71.23c-.17,0-.3.13-.3.3v.25c0,.17.13.3.3.3s.3-.13.3-.3v-.25c0-.17-.13-.3-.3-.3Z"/>
            <path class="cls-39" d="M369.71,71.14c-.25,0-.44-.19-.44-.44v-.25c0-.25.19-.44.44-.44s.44.19.44.44v.25c0,.25-.19.44-.44.44ZM369.71,70.16c-.17,0-.3.13-.3.3v.25c0,.17.13.3.3.3s.3-.13.3-.3v-.25c0-.17-.13-.3-.3-.3Z"/>
            <rect class="cls-21" x="361.57" y="76.1" width="3.56" height="8.45"/>
            <rect class="cls-29" x="365.13" y="79.51" width="3.56" height="5.04"/>
            <rect class="cls-21" x="368.7" y="73.81" width="3.56" height="10.73"/>
            <rect class="cls-29" x="372.26" y="77.47" width="3.56" height="7.07"/>
            <g>
              <polygon class="cls-35" points="371.47 84.59 371.47 83.33 370.23 84.59 371.47 84.59"/>
              <polygon class="cls-35" points="369.47 82.69 371.47 80.69 371.48 78.06 369.48 80.06 369.47 82.69"/>
              <polygon class="cls-22" points="369.48 84.59 370.23 84.59 371.47 83.33 371.47 80.69 369.48 82.7 369.48 84.59"/>
              <polygon class="cls-35" points="369.48 75.42 369.48 77.46 371.48 75.55 371.48 75.42 369.48 75.42"/>
              <polygon class="cls-22" points="369.48 80.06 371.47 78.06 371.47 75.55 369.48 77.46 369.48 80.06"/>
            </g>
            <path class="cls-39" d="M377.79,84.62h-16.22s-.07-.03-.07-.07v-14.27s.03-.07.07-.07.07.03.07.07v14.2h16.15s.07.03.07.07-.03.07-.07.07Z"/>
            <polygon class="cls-22" points="359.18 66.13 359.18 62.68 362.64 62.68 359.18 66.13"/>
          </g>
        </g>
      </g>
    </g>
  </g>
  <g id="b52">
    <g id="g-root-ro_qns94tpuxx4y-fill">
      <g id="ro_qns94tpuxx4y-fill">
        <path class="cls-15" d="M698.75,69h127.5s12.75,0,12.75,12v30s0,12-12.75,12h-127.5s-12.75,0-12.75-12v-30s0-12,12.75-12"/>
      </g>
    </g>
    <g id="g-root-tx__18efsjhpuxxxk-fill">
      <g id="tx__18efsjhpuxxxk-fill">
        <g class="cls-33">
          <g class="cls-33">
            <path class="cls-22" d="M752.04,98.6h1.1v.64c0,.41-.04.85-.13,1.3-.09.45-.27.91-.55,1.37s-.7.91-1.27,1.35c-.57.44-1.32.85-2.26,1.24-.94.39-2.12.73-3.53,1.04-.05-.13-.14-.29-.26-.47-.12-.18-.23-.32-.34-.43,1.33-.28,2.44-.59,3.33-.93s1.59-.7,2.11-1.09.91-.78,1.17-1.18c.26-.4.43-.79.51-1.16s.12-.73.12-1.06v-.62ZM744.9,99.44h10.34v1.02h-10.34v-1.02ZM744.92,90.62h1.84v.06h6.7v-.06h1.94v1.06h-1.94v-.06h-6.7v.06h-1.84v-1.06ZM745.8,94.88h8.88v3.22h-8.88v-3.22ZM746.28,88.54h7.96v5.42h-7.96v-5.42ZM746.32,102.26c.32-.4.65-.87.98-1.4s.65-1.08.96-1.65c.31-.57.56-1.1.76-1.61l1.14.26c-.23.53-.49,1.08-.8,1.64s-.62,1.1-.94,1.62c-.32.52-.62.97-.9,1.34l-1.2-.2ZM746.32,102.26l.9-.74c.76.2,1.56.46,2.4.77.84.31,1.64.64,2.39.97.75.33,1.39.65,1.91.96l-.88.82c-.51-.31-1.14-.64-1.89-.99-.75-.35-1.55-.69-2.39-1-.84-.31-1.65-.58-2.44-.79ZM746.96,95.78v1.42h6.52v-1.42h-6.52ZM747.36,89.52v3.48h5.76v-3.48h-5.76ZM749.62,87.22h1.08v10.48h-1.08v-10.48ZM760.44,91.96l1.22.1c-.27,2.28-.68,4.28-1.23,5.99-.55,1.71-1.33,3.19-2.33,4.42-1,1.23-2.31,2.27-3.92,3.11-.04-.09-.1-.2-.19-.33-.09-.13-.18-.25-.27-.38-.09-.13-.18-.23-.26-.31,1.55-.73,2.79-1.68,3.73-2.83.94-1.15,1.66-2.54,2.17-4.15.51-1.61.87-3.49,1.08-5.62ZM757.6,87.24l1.16.22c-.23,1.2-.5,2.38-.83,3.53s-.69,2.24-1.08,3.26c-.39,1.02-.83,1.93-1.31,2.73-.07-.08-.16-.17-.28-.28-.12-.11-.24-.21-.36-.31-.12-.1-.23-.18-.34-.23.48-.73.91-1.58,1.29-2.54.38-.96.72-1.99,1.01-3.08.29-1.09.54-2.19.74-3.3ZM757.38,92.52c.25,1.8.62,3.49,1.1,5.06.48,1.57,1.12,2.95,1.92,4.13.8,1.18,1.78,2.08,2.94,2.71-.11.08-.22.18-.33.3s-.22.25-.32.38c-.1.13-.18.26-.25.38-1.19-.73-2.18-1.73-2.98-2.99s-1.44-2.72-1.93-4.39c-.49-1.67-.87-3.47-1.15-5.42l1-.16ZM756.88,91.24h6.3v1.2h-6.3v-1.2Z"/>
            <path class="cls-22" d="M765.1,100.44h17.86v1.16h-17.86v-1.16ZM765.54,94.4h17v3.56h-1.34v-2.52h-14.38v2.52h-1.28v-3.56ZM770.62,87.42l.62.84c-.57.23-1.23.41-1.97.56s-1.41.26-2.01.34l-.5-.78c.39-.07.82-.16,1.29-.27s.94-.23,1.4-.36.85-.24,1.17-.33ZM766.76,88.38l1.3.36.4,6.22h-1.26l-.44-6.58ZM767.5,90.12h3.62v.96h-3.62v-.96ZM767.6,92.24h3.62v.96h-3.62v-.96ZM768.78,96.9h9.58v1.04h-9.58v-1.04ZM773.54,99.52h1.3v4.56c0,.36-.05.63-.15.82-.1.19-.3.33-.61.44-.29.09-.7.14-1.22.15-.52,0-1.19,0-2,0-.03-.16-.09-.35-.18-.56-.09-.21-.19-.4-.28-.56.44.01.84.02,1.21.03.37,0,.69,0,.96,0s.46,0,.55,0c.16-.01.27-.04.33-.09s.09-.14.09-.27v-4.52ZM775.06,90.8l.98.3c-.48.63-1.08,1.23-1.8,1.81-.72.58-1.44,1.06-2.16,1.45-.08-.09-.2-.22-.36-.37-.16-.15-.29-.28-.4-.37.71-.33,1.4-.75,2.09-1.24.69-.49,1.24-1.02,1.65-1.58ZM775,87.42l.98.28c-.45.61-1.02,1.2-1.71,1.75-.69.55-1.37,1.02-2.05,1.39-.08-.09-.2-.21-.36-.36-.16-.15-.3-.25-.42-.32.68-.35,1.35-.76,2-1.23.65-.47,1.17-.98,1.56-1.51ZM771.74,91.66l.7-.6c.45.21.93.46,1.42.74.49.28.96.57,1.4.87.44.3.79.58,1.06.85l-.72.7c-.27-.28-.61-.57-1.04-.87-.43-.3-.88-.6-1.37-.9-.49-.3-.97-.56-1.45-.79ZM771.8,88.32l.68-.62c.45.19.92.41,1.39.68s.93.53,1.36.8c.43.27.78.53,1.05.78l-.7.68c-.27-.24-.61-.5-1.03-.79-.42-.29-.87-.56-1.35-.83-.48-.27-.95-.5-1.4-.7ZM778.04,96.9h.32l.28-.06.8.68c-.45.36-.97.71-1.56,1.04-.59.33-1.2.64-1.83.93s-1.25.54-1.85.75c-.07-.12-.17-.25-.31-.39-.14-.14-.26-.25-.35-.33.53-.19,1.08-.41,1.65-.68s1.1-.55,1.61-.84.92-.57,1.24-.84v-.26ZM776.78,92.24h3.58v.96h-3.58v-.96ZM776.8,88h3.86v.96h-3.86v-.96ZM776.9,90.12h3.62v.96h-3.62v-.96ZM780.12,88h1.28c-.04.76-.09,1.57-.14,2.42s-.11,1.68-.18,2.49-.13,1.5-.2,2.09h-1.3c.09-.6.17-1.31.24-2.12.07-.81.13-1.65.18-2.5.05-.85.09-1.65.12-2.38Z"/>
            <path class="cls-22" d="M785.1,100.44h17.86v1.16h-17.86v-1.16ZM785.54,94.4h17v3.56h-1.34v-2.52h-14.38v2.52h-1.28v-3.56ZM790.62,87.42l.62.84c-.57.23-1.23.41-1.97.56s-1.41.26-2.01.34l-.5-.78c.39-.07.82-.16,1.29-.27s.94-.23,1.4-.36.85-.24,1.17-.33ZM786.76,88.38l1.3.36.4,6.22h-1.26l-.44-6.58ZM787.5,90.12h3.62v.96h-3.62v-.96ZM787.6,92.24h3.62v.96h-3.62v-.96ZM788.78,96.9h9.58v1.04h-9.58v-1.04ZM793.54,99.52h1.3v4.56c0,.36-.05.63-.15.82-.1.19-.3.33-.61.44-.29.09-.7.14-1.22.15-.52,0-1.19,0-2,0-.03-.16-.09-.35-.18-.56-.09-.21-.19-.4-.28-.56.44.01.84.02,1.21.03.37,0,.69,0,.96,0s.46,0,.55,0c.16-.01.27-.04.33-.09s.09-.14.09-.27v-4.52ZM795.06,90.8l.98.3c-.48.63-1.08,1.23-1.8,1.81-.72.58-1.44,1.06-2.16,1.45-.08-.09-.2-.22-.36-.37-.16-.15-.29-.28-.4-.37.71-.33,1.4-.75,2.09-1.24.69-.49,1.24-1.02,1.65-1.58ZM795,87.42l.98.28c-.45.61-1.02,1.2-1.71,1.75-.69.55-1.37,1.02-2.05,1.39-.08-.09-.2-.21-.36-.36-.16-.15-.3-.25-.42-.32.68-.35,1.35-.76,2-1.23.65-.47,1.17-.98,1.56-1.51ZM791.74,91.66l.7-.6c.45.21.93.46,1.42.74.49.28.96.57,1.4.87.44.3.79.58,1.06.85l-.72.7c-.27-.28-.61-.57-1.04-.87-.43-.3-.88-.6-1.37-.9-.49-.3-.97-.56-1.45-.79ZM791.8,88.32l.68-.62c.45.19.92.41,1.39.68s.93.53,1.36.8c.43.27.78.53,1.05.78l-.7.68c-.27-.24-.61-.5-1.03-.79-.42-.29-.87-.56-1.35-.83-.48-.27-.95-.5-1.4-.7ZM798.04,96.9h.32l.28-.06.8.68c-.45.36-.97.71-1.56,1.04-.59.33-1.2.64-1.83.93s-1.25.54-1.85.75c-.07-.12-.17-.25-.31-.39-.14-.14-.26-.25-.35-.33.53-.19,1.08-.41,1.65-.68s1.1-.55,1.61-.84.92-.57,1.24-.84v-.26ZM796.78,92.24h3.58v.96h-3.58v-.96ZM796.8,88h3.86v.96h-3.86v-.96ZM796.9,90.12h3.62v.96h-3.62v-.96ZM800.12,88h1.28c-.04.76-.09,1.57-.14,2.42s-.11,1.68-.18,2.49-.13,1.5-.2,2.09h-1.3c.09-.6.17-1.31.24-2.12.07-.81.13-1.65.18-2.5.05-.85.09-1.65.12-2.38Z"/>
            <path class="cls-22" d="M807.3,93.46l.88.32c-.28.67-.66,1.34-1.14,2.01-.48.67-.99,1.2-1.52,1.59-.09-.15-.22-.31-.38-.48-.16-.17-.31-.31-.44-.4.35-.2.68-.46,1.01-.79.33-.33.63-.69.91-1.08.28-.39.51-.78.68-1.17ZM808.68,97.08h1.2v2.02c0,.55-.05,1.1-.15,1.67-.1.57-.3,1.12-.59,1.67-.29.55-.73,1.08-1.32,1.59-.59.51-1.37.98-2.36,1.41-.04-.09-.1-.2-.18-.33-.08-.13-.17-.25-.26-.37-.09-.12-.18-.22-.26-.3.89-.37,1.6-.78,2.13-1.22.53-.44.92-.9,1.17-1.37.25-.47.42-.94.5-1.41s.12-.92.12-1.36v-2ZM804.98,98.96h8.74v1.14h-8.74v-1.14ZM805.02,91.7h8.5v1.12h-8.5v-1.12ZM805.5,88.34l.96-.38c.27.36.52.76.75,1.2.23.44.4.83.49,1.16l-1.02.42c-.09-.33-.25-.72-.47-1.17-.22-.45-.46-.86-.71-1.23ZM808.72,101.74l.74-.84c.41.28.86.59,1.34.92s.94.66,1.37.98c.43.32.79.61,1.07.86l-.74.94c-.28-.25-.63-.55-1.06-.88-.43-.33-.88-.68-1.36-1.03-.48-.35-.93-.67-1.36-.95ZM808.76,87.32h1.18v9.32h-1.18v-9.32ZM811.08,93.54c.13.08.32.22.57.43.25.21.51.43.8.67.29.24.55.46.79.67.24.21.41.36.5.45l-.78.92c-.12-.15-.29-.34-.52-.58-.23-.24-.47-.49-.73-.76-.26-.27-.51-.51-.74-.74-.23-.23-.43-.4-.59-.52l.7-.54ZM810.82,97.34l.8-.46c.25.23.51.5.77.82.26.32.46.59.61.82l-.8.56c-.15-.25-.35-.54-.61-.87-.26-.33-.52-.62-.77-.87ZM812.08,87.96l1.16.38c-.24.44-.48.88-.72,1.33-.24.45-.47.83-.7,1.15l-.92-.34c.2-.36.41-.78.64-1.26.23-.48.41-.9.54-1.26ZM816.74,102.26l1.18.68c-.29.33-.65.67-1.08,1-.43.33-.87.64-1.34.93-.47.29-.93.53-1.38.73-.11-.13-.25-.29-.42-.46-.17-.17-.33-.32-.48-.44.44-.19.89-.42,1.34-.69.45-.27.87-.56,1.26-.87.39-.31.69-.6.92-.88ZM813.8,88.22h9.32v1.18h-9.32v-1.18ZM814.64,91.4h7.66v10.38h-7.66v-10.38ZM815.88,92.48v2.02h5.14v-2.02h-5.14ZM815.88,95.54v2.06h5.14v-2.06h-5.14ZM815.88,98.62v2.1h5.14v-2.1h-5.14ZM817.6,88.76l1.44.22c-.16.57-.33,1.14-.52,1.71-.19.57-.36,1.06-.52,1.49l-1.16-.24c.09-.29.19-.63.29-1,.1-.37.19-.75.27-1.14s.15-.73.2-1.04ZM818.94,102.98l.98-.68c.4.24.82.51,1.25.82s.85.61,1.24.9c.39.29.72.57.99.82l-1.06.76c-.24-.25-.55-.53-.93-.84-.38-.31-.79-.62-1.22-.93s-.85-.6-1.25-.85Z"/>
          </g>
        </g>
      </g>
    </g>
    <g id="_圖層_1-2" data-name="_圖層_1">
      <g id="_圖層_1-2-2" data-name="_圖層_1-2">
        <g id="_圖層_1-2-3" data-name="_圖層_1-2">
          <g>
            <path class="cls-29" d="M709.73,80.83h19.44c.86,0,1.56.7,1.56,1.56v28.62c0,1-.81,1.82-1.82,1.82h-19.19v-32h.01Z"/>
            <path class="cls-20" d="M709.73,88.96v-8.13h19.44c.86,0,1.56.7,1.56,1.56v6.56h-21,0s0,.01,0,.01Z"/>
            <path class="cls-44" d="M706.4,80.83h3.33v32h-3.11c-.55,0-.98-.44-.98-.98v-30.24c0-.43.34-.76.76-.76h0Z"/>
            <path class="cls-43" d="M709.73,88.96h-4.1v-7.36c0-.43.34-.76.76-.76h3.33v8.13h0Z"/>
            <circle class="cls-35" cx="720.52" cy="98.42" r="6.73"/>
            <g>
              <path class="cls-22" d="M721.92,95.55s-2.3,6.79.9,6.88c1.56.04,2.5-.73,3.04-1.46.17-.22-.18-.41-.43-.24-.1.07-.21.14-.32.2-.49.29-1.08.51-1.7.5-2.28-.05-.59-5.9-.59-5.9h-.91v.02h0Z"/>
              <rect class="cls-22" x="717.34" y="94.85" width="7.25" height="1.29" rx=".62" ry=".62"/>
              <path class="cls-22" d="M716.58,96.56c-.27.17-.6-.14-.45-.43.32-.64.87-1.27,1.82-1.27,1.92,0,0,1.29,0,1.29,0,0-.7-.02-1.37.4h0Z"/>
              <path class="cls-22" d="M725.34,94.45c.27-.17.6.14.45.43-.32.64-.87,1.27-1.82,1.27-1.92,0,0-1.29,0-1.29,0,0,.7.02,1.37-.4h0Z"/>
              <path class="cls-22" d="M716.29,101.46s2-1.77,3.02-5.59h.89s-1.17,7-3.75,6.55c-.93-.16-.15-.96-.15-.96h0Z"/>
            </g>
            <path class="cls-26" d="M711.03,112.36s-.04-.01-.04-.04v-30.13s.01-.04.04-.04.04.01.04.04v30.13s-.01.04-.04.04Z"/>
            <path class="cls-29" d="M727.03,83.87h-13.03c-.16,0-.29-.13-.29-.29h0c0-.16.13-.29.29-.29h13.03c.16,0,.29.13.29.29h0c0,.16-.13.29-.29.29Z"/>
            <path class="cls-29" d="M718.94,85.75h-4.78c-.16,0-.29-.13-.29-.29h0c0-.16.13-.29.29-.29h4.78c.16,0,.29.13.29.29h0c0,.16-.13.29-.29.29h0Z"/>
          </g>
        </g>
      </g>
    </g>
  </g>
  <g id="a17">
    <g id="g-root-ro_924if1putq17-stroke">
      <g id="ro_924if1putq17-stroke">
        <path class="cls-30" d="M469.67,69h144s24,0,24,28.57v92.86s0,28.57-24,28.57h-144s-24,0-24-28.57v-92.86s0-28.57,24-28.57"/>
      </g>
    </g>
    <g>
      <g id="g-root-tx__mdl0sdputog9-fill">
        <g id="tx__mdl0sdputog9-fill">
          <g class="cls-33">
            <g class="cls-33">
              <path class="cls-45" d="M479.71,185.6h1.1v.64c0,.41-.04.85-.13,1.3-.09.45-.27.91-.55,1.37-.28.46-.7.91-1.27,1.35-.57.44-1.32.85-2.26,1.24s-2.12.73-3.53,1.04c-.05-.13-.14-.29-.26-.47-.12-.18-.23-.32-.34-.43,1.33-.28,2.44-.59,3.33-.93s1.59-.7,2.11-1.09.91-.78,1.17-1.18c.26-.4.43-.79.51-1.16s.12-.73.12-1.06v-.62ZM472.57,186.44h10.34v1.02h-10.34v-1.02ZM472.59,177.62h1.84v.06h6.7v-.06h1.94v1.06h-1.94v-.06h-6.7v.06h-1.84v-1.06ZM473.47,181.88h8.88v3.22h-8.88v-3.22ZM473.95,175.54h7.96v5.42h-7.96v-5.42ZM473.99,189.26c.32-.4.65-.87.98-1.4.33-.53.65-1.08.96-1.65.31-.57.56-1.1.76-1.61l1.14.26c-.23.53-.49,1.08-.8,1.64s-.62,1.1-.94,1.62c-.32.52-.62.97-.9,1.34l-1.2-.2ZM473.99,189.26l.9-.74c.76.2,1.56.46,2.4.77.84.31,1.64.64,2.39.97.75.33,1.39.65,1.91.96l-.88.82c-.51-.31-1.14-.64-1.89-.99-.75-.35-1.55-.69-2.39-1-.84-.31-1.65-.58-2.44-.79ZM474.63,182.78v1.42h6.52v-1.42h-6.52ZM475.03,176.52v3.48h5.76v-3.48h-5.76ZM477.29,174.22h1.08v10.48h-1.08v-10.48ZM488.11,178.96l1.22.1c-.27,2.28-.68,4.28-1.23,5.99-.55,1.71-1.33,3.19-2.33,4.42-1,1.23-2.31,2.27-3.92,3.11-.04-.09-.1-.2-.19-.33-.09-.13-.18-.25-.27-.38-.09-.13-.18-.23-.26-.31,1.55-.73,2.79-1.68,3.73-2.83s1.66-2.54,2.17-4.15.87-3.49,1.08-5.62ZM485.27,174.24l1.16.22c-.23,1.2-.5,2.38-.83,3.53-.33,1.15-.69,2.24-1.08,3.26s-.83,1.93-1.31,2.73c-.07-.08-.16-.17-.28-.28-.12-.11-.24-.21-.36-.31-.12-.1-.23-.18-.34-.23.48-.73.91-1.58,1.29-2.54s.72-1.99,1.01-3.08c.29-1.09.54-2.19.74-3.3ZM485.05,179.52c.25,1.8.62,3.49,1.1,5.06s1.12,2.95,1.92,4.13c.8,1.18,1.78,2.08,2.94,2.71-.11.08-.22.18-.33.3s-.22.25-.32.38c-.1.13-.18.26-.25.38-1.19-.73-2.18-1.73-2.98-2.99-.8-1.26-1.44-2.72-1.93-4.39-.49-1.67-.87-3.47-1.15-5.42l1-.16ZM484.55,178.24h6.3v1.2h-6.3v-1.2Z"/>
              <path class="cls-45" d="M492.77,187.44h17.86v1.16h-17.86v-1.16ZM493.21,181.4h17v3.56h-1.34v-2.52h-14.38v2.52h-1.28v-3.56ZM498.29,174.42l.62.84c-.57.23-1.23.41-1.97.56-.74.15-1.41.26-2.01.34l-.5-.78c.39-.07.82-.16,1.29-.27.47-.11.94-.23,1.4-.36.46-.13.85-.24,1.17-.33ZM494.43,175.38l1.3.36.4,6.22h-1.26l-.44-6.58ZM495.17,177.12h3.62v.96h-3.62v-.96ZM495.27,179.24h3.62v.96h-3.62v-.96ZM496.45,183.9h9.58v1.04h-9.58v-1.04ZM501.21,186.52h1.3v4.56c0,.36-.05.63-.15.82-.1.19-.3.33-.61.44-.29.09-.7.14-1.22.15-.52,0-1.19,0-2,0-.03-.16-.09-.35-.18-.56-.09-.21-.19-.4-.28-.56.44.01.84.02,1.21.03s.69,0,.96,0,.46,0,.55,0c.16-.01.27-.04.33-.09.06-.05.09-.14.09-.27v-4.52ZM502.73,177.8l.98.3c-.48.63-1.08,1.23-1.8,1.81-.72.58-1.44,1.06-2.16,1.45-.08-.09-.2-.22-.36-.37s-.29-.28-.4-.37c.71-.33,1.4-.75,2.09-1.24.69-.49,1.24-1.02,1.65-1.58ZM502.67,174.42l.98.28c-.45.61-1.02,1.2-1.71,1.75s-1.37,1.02-2.05,1.39c-.08-.09-.2-.21-.36-.36-.16-.15-.3-.25-.42-.32.68-.35,1.35-.76,2-1.23.65-.47,1.17-.98,1.56-1.51ZM499.41,178.66l.7-.6c.45.21.93.46,1.42.74s.96.57,1.4.87c.44.3.79.58,1.06.85l-.72.7c-.27-.28-.61-.57-1.04-.87-.43-.3-.88-.6-1.37-.9s-.97-.56-1.45-.79ZM499.47,175.32l.68-.62c.45.19.92.41,1.39.68.47.27.93.53,1.36.8.43.27.78.53,1.05.78l-.7.68c-.27-.24-.61-.5-1.03-.79-.42-.29-.87-.56-1.35-.83-.48-.27-.95-.5-1.4-.7ZM505.71,183.9h.32l.28-.06.8.68c-.45.36-.97.71-1.56,1.04-.59.33-1.2.64-1.83.93-.63.29-1.25.54-1.85.75-.07-.12-.17-.25-.31-.39-.14-.14-.26-.25-.35-.33.53-.19,1.08-.41,1.65-.68.57-.27,1.1-.55,1.61-.84.51-.29.92-.57,1.24-.84v-.26ZM504.45,179.24h3.58v.96h-3.58v-.96ZM504.47,175h3.86v.96h-3.86v-.96ZM504.57,177.12h3.62v.96h-3.62v-.96ZM507.79,175h1.28c-.04.76-.09,1.57-.14,2.42-.05.85-.11,1.68-.18,2.49s-.13,1.5-.2,2.09h-1.3c.09-.6.17-1.31.24-2.12s.13-1.65.18-2.5c.05-.85.09-1.65.12-2.38Z"/>
              <path class="cls-45" d="M517.07,175.74h1.38v2.62c0,.81-.03,1.67-.08,2.56-.05.89-.17,1.82-.35,2.77-.18.95-.45,1.92-.82,2.89s-.86,1.93-1.47,2.88c-.61.95-1.39,1.86-2.34,2.74-.05-.12-.14-.25-.26-.39-.12-.14-.24-.28-.37-.41-.13-.13-.24-.24-.35-.32,1.09-1.03,1.95-2.09,2.58-3.19.63-1.1,1.09-2.21,1.38-3.33.29-1.12.48-2.2.57-3.25.09-1.05.13-2.02.13-2.93v-2.64ZM513.49,175.2h11.28v1.3h-11.28v-1.3ZM528.43,180.94h.28l.26-.06.94.42c-.44,1.67-1.06,3.13-1.85,4.4s-1.72,2.35-2.79,3.26c-1.07.91-2.23,1.66-3.5,2.27-1.27.61-2.59,1.1-3.98,1.47-.05-.13-.12-.28-.2-.43s-.17-.3-.27-.44-.2-.26-.29-.35c1.31-.29,2.56-.72,3.77-1.28,1.21-.56,2.31-1.26,3.32-2.09,1.01-.83,1.88-1.82,2.63-2.97.75-1.15,1.31-2.45,1.68-3.92v-.28ZM517.83,180.94h10.96v1.28h-11.2l.24-1.28ZM520.15,181.68c.84,2.43,2.16,4.48,3.97,6.15,1.81,1.67,4.08,2.83,6.81,3.47-.11.09-.22.22-.33.37-.11.15-.22.31-.33.46s-.2.29-.28.41c-1.85-.49-3.49-1.22-4.91-2.19-1.42-.97-2.63-2.15-3.64-3.56-1.01-1.41-1.82-3-2.45-4.77l1.16-.34ZM524.39,175.2h1.4c-.15.69-.31,1.43-.5,2.21-.19.78-.37,1.53-.56,2.25-.19.72-.36,1.35-.52,1.9h-1.46c.19-.56.38-1.21.58-1.94.2-.73.39-1.49.58-2.26.19-.77.35-1.49.48-2.16Z"/>
              <path class="cls-45" d="M533.33,187.04l1.12.2c-.11.87-.25,1.74-.44,2.61-.19.87-.39,1.62-.6,2.25-.11-.07-.27-.14-.5-.22s-.41-.14-.56-.18c.24-.63.44-1.36.59-2.19.15-.83.28-1.66.39-2.47ZM532.79,181.64c-.03-.09-.07-.22-.12-.38-.05-.16-.11-.32-.16-.48-.05-.16-.1-.3-.14-.42.16-.04.33-.16.52-.35.19-.19.38-.44.58-.75.12-.15.29-.39.51-.73.22-.34.46-.75.73-1.22.27-.47.54-.98.81-1.52.27-.54.52-1.08.73-1.63l1.24.54c-.53,1.13-1.13,2.25-1.8,3.34-.67,1.09-1.34,2.05-2.02,2.86v.02c-.17.11-.32.19-.44.26-.12.07-.22.14-.31.22-.09.08-.13.16-.13.24ZM532.93,186.12c-.03-.09-.07-.22-.12-.37-.05-.15-.11-.31-.16-.48-.05-.17-.11-.3-.16-.41.21-.04.44-.18.68-.43.24-.25.51-.56.8-.93.17-.19.42-.49.73-.91s.67-.92,1.07-1.51.8-1.22,1.2-1.89c.4-.67.77-1.35,1.1-2.03l1.18.68c-.52.92-1.08,1.83-1.68,2.74-.6.91-1.22,1.77-1.85,2.59-.63.82-1.28,1.56-1.93,2.23v.04c-.17.08-.32.16-.44.23s-.22.15-.3.23-.12.15-.12.22ZM532.79,181.64l-.02-.96.64-.38,3.52-.32c-.03.16-.05.34-.06.54-.01.2-.02.37-.02.5-.81.09-1.47.17-1.97.23s-.89.11-1.16.16-.48.09-.61.12-.24.07-.32.11ZM532.93,186.12l-.06-.98.64-.44,5.28-.78c-.03.17-.04.36-.04.56s0,.37.02.5c-1.21.2-2.19.36-2.92.49-.73.13-1.29.23-1.68.3-.39.07-.67.14-.84.2-.17.06-.31.11-.4.15ZM535.47,187.18l1.04-.22c.12.68.23,1.41.34,2.2s.17,1.47.2,2.04l-1.08.26c-.01-.59-.07-1.28-.16-2.07-.09-.79-.21-1.53-.34-2.21ZM537.27,182.04l1-.34c.21.43.41.88.6,1.36.19.48.35.95.5,1.4.15.45.26.85.34,1.2l-1.06.42c-.08-.35-.19-.75-.33-1.22s-.3-.95-.48-1.44c-.18-.49-.37-.95-.57-1.38ZM537.69,186.76l.96-.3c.24.59.47,1.22.68,1.9.21.68.37,1.27.48,1.78l-1.02.34c-.09-.51-.25-1.11-.46-1.8-.21-.69-.43-1.33-.64-1.92ZM542.49,183.06h1.28c-.04,1.27-.12,2.4-.23,3.41-.11,1.01-.32,1.9-.62,2.67-.3.77-.73,1.45-1.29,2.02-.56.57-1.3,1.07-2.22,1.48-.05-.12-.13-.24-.22-.37-.09-.13-.19-.25-.3-.37-.11-.12-.21-.21-.3-.28.84-.36,1.51-.79,2.02-1.29s.89-1.09,1.15-1.78c.26-.69.44-1.48.54-2.39.1-.91.16-1.94.19-3.1ZM540.38,183.98c-.03-.09-.07-.22-.12-.38-.05-.16-.11-.33-.16-.51-.05-.18-.11-.33-.18-.45.19-.04.39-.2.62-.47s.48-.61.76-1.01c.15-.21.36-.55.64-1.01.28-.46.6-1.01.95-1.65.35-.64.7-1.33,1.05-2.06.35-.73.66-1.47.94-2.2l1.44.44c-.45,1.04-.95,2.07-1.5,3.1s-1.11,2-1.7,2.92-1.17,1.75-1.74,2.48v.04c-.2.11-.37.2-.5.27-.13.07-.25.15-.35.24-.1.09-.15.17-.15.25ZM540.03,176.8h10.54v1.26h-10.54v-1.26ZM540.38,183.98l-.04-1.02.82-.48,8-.82c.01.17.03.37.06.59.03.22.05.4.08.53-1.51.17-2.77.32-3.79.44-1.02.12-1.85.22-2.48.3-.63.08-1.12.14-1.46.19s-.6.09-.77.14c-.17.05-.31.09-.42.13ZM545.79,182.66h1.28v7.74c0,.25.03.42.1.49.07.07.21.11.42.11h1.5c.15,0,.26-.06.34-.18.08-.12.14-.37.17-.75.03-.38.05-.95.05-1.71.11.08.23.16.37.23s.28.13.43.18c.15.05.28.09.4.13-.04.88-.11,1.56-.21,2.04-.1.48-.26.81-.48,1-.22.19-.53.28-.93.28h-1.8c-.43,0-.76-.05-1-.16-.24-.11-.41-.29-.5-.55-.09-.26-.14-.62-.14-1.09v-7.76ZM546.73,179.44l1.1-.48c.35.51.71,1.05,1.08,1.64.37.59.72,1.16,1.03,1.71.31.55.56,1.04.75,1.47l-1.2.58c-.17-.41-.41-.91-.72-1.48-.31-.57-.64-1.16-.99-1.76-.35-.6-.7-1.16-1.05-1.68Z"/>
              <path class="cls-45" d="M552.97,177.64h8.26v1.14h-8.26v-1.14ZM553.88,180.28h6.5v1.08h-6.5v-1.08ZM553.88,182.88h6.46v1.08h-6.46v-1.08ZM554.03,185.54h1.16v6.76h-1.16v-6.76ZM554.59,185.54h5.76v5.8h-5.76v-1.14h4.58v-3.52h-4.58v-1.14ZM555.38,174.7l1.06-.54c.29.4.58.84.87,1.31.29.47.51.89.67,1.25l-1.08.64c-.16-.36-.38-.79-.67-1.3-.29-.51-.57-.96-.85-1.36ZM561.19,181.2h9.56v1.34h-9.56v-1.34ZM565.19,174.6h1.36v17.96h-1.36v-17.96Z"/>
              <path class="cls-45" d="M572.77,187.44h17.86v1.16h-17.86v-1.16ZM573.21,181.4h17v3.56h-1.34v-2.52h-14.38v2.52h-1.28v-3.56ZM578.29,174.42l.62.84c-.57.23-1.23.41-1.97.56-.74.15-1.41.26-2.01.34l-.5-.78c.39-.07.82-.16,1.29-.27.47-.11.94-.23,1.4-.36.46-.13.85-.24,1.17-.33ZM574.43,175.38l1.3.36.4,6.22h-1.26l-.44-6.58ZM575.17,177.12h3.62v.96h-3.62v-.96ZM575.27,179.24h3.62v.96h-3.62v-.96ZM576.45,183.9h9.58v1.04h-9.58v-1.04ZM581.21,186.52h1.3v4.56c0,.36-.05.63-.15.82-.1.19-.3.33-.61.44-.29.09-.7.14-1.22.15-.52,0-1.19,0-2,0-.03-.16-.09-.35-.18-.56-.09-.21-.19-.4-.28-.56.44.01.84.02,1.21.03s.69,0,.96,0,.46,0,.55,0c.16-.01.27-.04.33-.09.06-.05.09-.14.09-.27v-4.52ZM582.73,177.8l.98.3c-.48.63-1.08,1.23-1.8,1.81-.72.58-1.44,1.06-2.16,1.45-.08-.09-.2-.22-.36-.37s-.29-.28-.4-.37c.71-.33,1.4-.75,2.09-1.24.69-.49,1.24-1.02,1.65-1.58ZM582.67,174.42l.98.28c-.45.61-1.02,1.2-1.71,1.75s-1.37,1.02-2.05,1.39c-.08-.09-.2-.21-.36-.36-.16-.15-.3-.25-.42-.32.68-.35,1.35-.76,2-1.23.65-.47,1.17-.98,1.56-1.51ZM579.41,178.66l.7-.6c.45.21.93.46,1.42.74s.96.57,1.4.87c.44.3.79.58,1.06.85l-.72.7c-.27-.28-.61-.57-1.04-.87-.43-.3-.88-.6-1.37-.9s-.97-.56-1.45-.79ZM579.47,175.32l.68-.62c.45.19.92.41,1.39.68.47.27.93.53,1.36.8.43.27.78.53,1.05.78l-.7.68c-.27-.24-.61-.5-1.03-.79-.42-.29-.87-.56-1.35-.83-.48-.27-.95-.5-1.4-.7ZM585.71,183.9h.32l.28-.06.8.68c-.45.36-.97.71-1.56,1.04-.59.33-1.2.64-1.83.93-.63.29-1.25.54-1.85.75-.07-.12-.17-.25-.31-.39-.14-.14-.26-.25-.35-.33.53-.19,1.08-.41,1.65-.68.57-.27,1.1-.55,1.61-.84.51-.29.92-.57,1.24-.84v-.26ZM584.45,179.24h3.58v.96h-3.58v-.96ZM584.47,175h3.86v.96h-3.86v-.96ZM584.57,177.12h3.62v.96h-3.62v-.96ZM587.79,175h1.28c-.04.76-.09,1.57-.14,2.42-.05.85-.11,1.68-.18,2.49s-.13,1.5-.2,2.09h-1.3c.09-.6.17-1.31.24-2.12s.13-1.65.18-2.5c.05-.85.09-1.65.12-2.38Z"/>
              <path class="cls-45" d="M593.55,175.2h1.32v17.36h-1.32v-17.36ZM594.17,178.24h5.66v1.04h-5.66v-1.04ZM594.27,175.2h6.34v7.28h-6.34v-1.16h5.08v-4.98h-5.08v-1.14ZM609.25,175.2v1.14h-5.38v5h5.38v1.14h-6.66v-7.28h6.66ZM603.38,178.24h5.78v1.04h-5.78v-1.04ZM608.55,175.2h1.36v15.46c0,.48-.07.84-.2,1.09-.13.25-.36.43-.68.55-.33.11-.8.17-1.39.2-.59.03-1.34.04-2.25.04-.01-.13-.05-.28-.1-.45-.05-.17-.11-.33-.18-.5-.07-.17-.14-.32-.22-.45.48.03.93.04,1.36.04h1.78c.2-.01.34-.05.41-.12.07-.07.11-.19.11-.38v-15.48Z"/>
            </g>
          </g>
        </g>
      </g>
      <g id="_圖層_1-3" data-name="_圖層_1">
        <g id="_圖層_1-2-4" data-name="_圖層_1-2">
          <g id="_圖層_1-2-5" data-name="_圖層_1-2">
            <g>
              <g>
                <rect class="cls-25" x="544.17" y="109.07" width="41.77" height="30.7" transform="translate(253.18 611.76) rotate(-69.8)"/>
                <path class="cls-28" d="M577.99,122.71s-.02,0-.03,0l-18.77-6.91s-.07-.07-.06-.12c.02-.05.07-.07.12-.06l18.77,6.91s.07.07.06.12c-.01.04-.05.06-.09.06Z"/>
                <path class="cls-28" d="M578.86,120.41s-.02,0-.03,0l-18.78-6.94s-.07-.07-.05-.12c.02-.05.07-.07.12-.05l18.78,6.94s.07.07.05.12c-.01.04-.05.06-.09.06Z"/>
                <path class="cls-28" d="M575.52,129.42s-.02,0-.03,0l-18.78-6.92s-.07-.07-.06-.12c.02-.05.07-.07.12-.06l18.78,6.92s.07.07.06.12c-.01.04-.05.06-.09.06Z"/>
                <path class="cls-28" d="M576.37,127.11s-.02,0-.03,0l-18.77-6.91s-.07-.07-.06-.12c.02-.05.07-.07.12-.06l18.77,6.91s.07.07.06.12c-.01.04-.05.06-.09.06Z"/>
                <g>
                  <path class="cls-24" d="M562.02,110.5c-.06-.01-.11-.05-.16-.06-.05-.04-.07-.05-.11-.07l.21-.31s.05.04.07.06.06.04.1.05c.15.05.27.05.4-.01s.24-.16.36-.31l.12-.16-.07-2.82.43.16v2.32h0c.07-.1.16-.2.24-.31.07-.11.16-.21.22-.31l.93-1.19.4.15-1.9,2.32c-.07.1-.17.2-.27.28s-.2.15-.28.2c-.1.05-.21.07-.32.07s-.22,0-.36-.05h-.04.04,0Z"/>
                  <path class="cls-24" d="M565.96,109.3l2.17.81-.11.31-2.17-.81.11-.31h0ZM566.36,108.22l2.17.81-.11.31-2.17-.81.11-.31h0Z"/>
                  <path class="cls-24" d="M569.86,112.26c-.17-.06-.32-.16-.47-.27-.12-.12-.24-.26-.32-.4l.31-.2c.07.12.16.24.26.33s.21.17.36.22c.16.06.28.06.4.01s.17-.12.22-.22c.04-.06.04-.12,0-.17s-.05-.11-.07-.17c-.04-.05-.07-.11-.15-.16s-.11-.1-.17-.16c-.07-.06-.15-.12-.22-.2s-.12-.15-.17-.22-.07-.16-.1-.26c0-.1,0-.2.04-.28.04-.1.1-.17.16-.26.06-.06.16-.12.24-.16.1-.04.2-.05.32-.05s.24.04.37.07c.16.06.28.15.4.24s.2.21.26.32l-.28.2c-.06-.1-.12-.17-.21-.26s-.16-.12-.27-.17c-.16-.06-.28-.06-.38-.01s-.16.11-.2.21c0,.06-.04.11,0,.16s.05.1.07.16.07.1.15.15c.05.05.11.1.17.16.07.06.15.12.22.21.07.06.15.15.2.22s.07.17.1.27c0,.1,0,.21-.04.32-.04.1-.1.2-.16.26s-.16.12-.26.17c-.1.04-.21.06-.33.05s-.26-.04-.4-.07h0v-.04h-.02Z"/>
                  <path class="cls-24" d="M572.25,110.29l.42.15-.9,2.45-.42-.15.9-2.45h0ZM572.66,109.87c-.07-.04-.15-.07-.17-.15s-.05-.15,0-.22c.04-.07.07-.12.16-.16s.15-.04.22,0,.15.07.17.15.05.15,0,.22c-.04.07-.07.12-.16.16s-.15.04-.24,0h.01Z"/>
                  <path class="cls-24" d="M573.49,110.75l.33.12-.1.37h0c.16-.06.32-.12.48-.15.16-.04.32-.01.5.05.26.1.42.24.48.45s.04.47-.07.79l-.58,1.56-.42-.15.55-1.5c.07-.22.11-.42.07-.55s-.12-.22-.28-.28c-.12-.05-.26-.06-.37-.04-.12.04-.27.07-.43.16l-.66,1.78-.42-.15.9-2.45h0v-.04h.02,0Z"/>
                  <path class="cls-24" d="M577.32,113.47l-.04-1.31.4.15v1.09h0c.07-.04.16-.1.22-.15.07-.05.16-.1.24-.15l.63-.38.42.16-1.46.87.05,1.4-.4-.15v-1.18h0c-.07.05-.16.11-.24.16s-.17.1-.27.16l-.69.4-.42-.16,1.57-.9h-.01Z"/>
                </g>
                <path class="cls-37" d="M577.17,125.21s-.02,0-.03,0l-18.54-6.84s-.07-.07-.06-.12c.02-.05.07-.07.12-.06l18.54,6.84s.07.07.06.12c-.01.04-.05.06-.09.06Z"/>
                <path class="cls-28" d="M562.18,125.42s-.02,0-.03,0c-.05-.02-.07-.07-.06-.12l4.09-11.12s.07-.07.12-.06c.05.02.07.07.06.12l-4.09,11.12s-.05.06-.09.06Z"/>
                <path class="cls-28" d="M558.71,124.15s-.02,0-.03,0c-.05-.02-.07-.07-.06-.12l4.09-11.11s.07-.07.12-.06.07.07.06.12l-4.09,11.11s-.05.06-.09.06Z"/>
                <path class="cls-37" d="M565.45,126.64s-.02,0-.03,0c-.05-.02-.07-.07-.05-.12l4.11-11.11s.07-.07.12-.05c.05.02.07.07.05.12l-4.11,11.11s-.05.06-.09.06Z"/>
                <path class="cls-28" d="M568.75,127.85s-.02,0-.03,0c-.05-.02-.07-.07-.06-.12l4.09-11.12s.07-.07.12-.06c.05.02.07.07.06.12l-4.09,11.12s-.05.06-.09.06Z"/>
                <path class="cls-28" d="M572.03,129.05s-.02,0-.03,0c-.05-.02-.07-.07-.06-.12l4.1-11.11s.07-.07.12-.05c.05.02.07.07.06.12l-4.1,11.11s-.05.06-.09.06Z"/>
                <path class="cls-6" d="M564.41,120.4c-.07.21-.31.31-.51.24-.21-.07-.31-.31-.24-.51.07-.21.31-.31.51-.24.21.07.31.31.24.51Z"/>
                <path class="cls-6" d="M567.7,121.63c-.07.21-.31.31-.51.24-.21-.07-.31-.31-.24-.51.07-.21.31-.31.51-.24.21.07.31.31.24.51Z"/>
                <path class="cls-6" d="M560.94,119.14c-.07.21-.31.31-.51.24-.21-.07-.31-.31-.24-.51.07-.21.31-.31.51-.24.21.07.31.31.24.51Z"/>
                <path class="cls-6" d="M570.98,122.83c-.07.21-.31.31-.51.24s-.31-.31-.24-.51c.07-.21.31-.31.51-.24.21.07.31.31.24.51Z"/>
                <path class="cls-6" d="M574.26,124.05c-.07.21-.31.31-.51.24-.21-.07-.31-.31-.24-.51.07-.21.31-.31.51-.24.21.07.31.31.24.51Z"/>
                <path class="cls-43" d="M576.53,127.18c-1.96-.8-2.48-2.45-2.95-3.9-.4-1.27-.78-2.47-2.04-2.93-1.61-.59-2.65.16-3.76.95-1.2.86-2.44,1.76-4.49,1-1.8-.66-2.36-2.28-2.89-3.83-.34-1-.67-1.94-1.3-2.53l.12-.13c.67.62,1,1.58,1.35,2.6.52,1.52,1.06,3.09,2.79,3.73,1.96.72,3.17-.15,4.33-.98,1.09-.78,2.22-1.6,3.92-.97,1.34.5,1.73,1.73,2.15,3.04.47,1.49.96,3.03,2.85,3.79l-.07.16Z"/>
              </g>
              <path class="cls-29" d="M519.74,96.63h38.87c1.72,0,3.11,1.4,3.11,3.11v57.23c0,2.01-1.62,3.63-3.63,3.63h-38.38v-63.98h.02Z"/>
              <path class="cls-20" d="M519.74,112.89v-16.25h38.87c1.72,0,3.11,1.4,3.11,3.11v13.12h-41.99.01v.02h0Z"/>
              <path class="cls-44" d="M513.08,96.63h6.66v63.98h-6.22c-1.09,0-1.97-.88-1.97-1.97v-60.48c0-.85.69-1.52,1.52-1.52h0Z"/>
              <path class="cls-43" d="M519.74,112.89h-8.19v-14.72c0-.85.69-1.52,1.52-1.52h6.66v16.25h0Z"/>
              <circle class="cls-35" cx="541.32" cy="131.81" r="13.47"/>
              <g>
                <path class="cls-22" d="M544.13,126.07s-4.61,13.58,1.8,13.76c3.11.07,4.99-1.46,6.07-2.91.33-.45-.36-.82-.85-.47-.2.15-.42.27-.63.4-.98.58-2.16,1.03-3.41.99-4.57-.11-1.18-11.81-1.18-11.81h-1.81v.04h.01Z"/>
                <rect class="cls-22" x="534.97" y="124.67" width="14.49" height="2.59" rx="1.23" ry="1.23"/>
                <path class="cls-22" d="M533.44,128.08c-.55.33-1.19-.27-.9-.85.64-1.29,1.75-2.54,3.64-2.54,3.84,0,0,2.59,0,2.59,0,0-1.4-.04-2.75.81h.01Z"/>
                <path class="cls-22" d="M550.96,123.87c.55-.33,1.19.27.9.85-.64,1.29-1.75,2.54-3.64,2.54-3.84,0,0-2.59,0-2.59,0,0,1.4.04,2.75-.81h-.01Z"/>
                <path class="cls-22" d="M532.87,137.89s4-3.53,6.03-11.19h1.77s-2.34,13.99-7.49,13.11c-1.86-.32-.31-1.91-.31-1.91h0Z"/>
              </g>
              <path class="cls-26" d="M522.36,159.69c-.05,0-.09-.04-.09-.09v-60.25c0-.05.04-.09.09-.09s.09.04.09.09v60.25c0,.05-.04.09-.09.09Z"/>
              <path class="cls-29" d="M554.35,102.7h-26.05c-.32,0-.58-.26-.58-.58h0c0-.32.26-.58.58-.58h26.05c.32,0,.58.26.58.58h0c0,.32-.26.58-.58.58Z"/>
              <path class="cls-29" d="M538.18,106.46h-9.56c-.32,0-.58-.26-.58-.58h0c0-.32.26-.58.58-.58h9.56c.32,0,.58.26.58.58h0c0,.32-.26.58-.58.58h0Z"/>
              <g>
                <polygon class="cls-9" points="507.06 160.02 505.66 160.31 504.89 158.5 506.3 157.75 507.06 160.02"/>
                <path class="cls-18" d="M506.44,131.18c-2.8,3.3-2.92,1.3-2.92,1.3,0,.05-2.4,8.99-3.27,12.2-.2.74-.17,1.52.06,2.27l4.16,12.42,2.44-1.26c-.21-6.03-.93-10.42-2.39-12.15l4.76-8.66c4.06-7.05-2.82-6.12-2.82-6.12h-.01Z"/>
                <path class="cls-9" d="M508.77,132.37l.1,15.47.37,13.28,1.29-.22c.76-4.68,3.42-7.98,2.16-13.66l.55-10.57-2.02-3.8-2.4-.51h-.04Z"/>
                <path class="cls-18" d="M508.12,132.37l.47,15.45v11.38c-.04.33.22.63.56.64l2.28.06c.26,0,.47-.17.5-.43.1-.99.15-2.54.27-3.11.63-2.81,1.47-4.52.47-9.11l1.03-10.84-2.5-3.53-3.07-.51h0Z"/>
                <path class="cls-18" d="M511.76,129.22l-7.25.31c-2.01,3.7-1.64,8.35-1.64,8.35l5.33.24c2.48-.05,5.38,1.88,5.69-2.23.36-4.68-2.13-6.68-2.13-6.68h0Z"/>
                <path class="cls-17" d="M509.42,160.85s-.61,1.07-.82,1.73c-.04.11-.01.24.05.32.06.1.17.15.28.15.26,0,.53,0,.71-.04.11,0,.22-.05.31-.11.05-.05.11-.1.17-.15.31-.26.31-.53.31-.92s.06-.87.06-.87c-.47-.47-1.09-.11-1.09-.11h.01Z"/>
                <path class="cls-17" d="M505.55,160.08l-.63,1.31c-.1.28-1.02,1.25-1.02,1.25h0c.01.28.31.28.5.22l3.21-1.85s.66-.56-.79-1.65c-.45.58-.9,1.08-1.3.71h.04Z"/>
                <path class="cls-36" d="M508.39,139.14s0,0-.02,0c-.05,0-.08-.05-.07-.1.04-.21-.03-1.12-.07-1.55h-1.75s-.09-.04-.09-.09.04-.09.09-.09h1.83s.08.03.09.08c0,.06.12,1.38.07,1.67,0,.04-.04.07-.09.07Z"/>
                <path class="cls-38" d="M499.62,126.74l-1.19-.21c-.24-.05-.48,0-.69.12l-.83.5c-.28.17-.32.58-.06.81h0l1.51.17c.33.04.69-.05,1.02-.26l.51-.33-.26-.81h0Z"/>
                <path class="cls-10" d="M505.43,120.76l1.97-.74,1.7-.24h.83l3.21,1.04c1.09.5,1.62,1.73,1.24,2.87l-.69,3.67c.9,2.73.88,4.14.82,6.99-7.1,2.11-11.32-.1-11.67-.47.04-2.17,1.29-3.69,1.47-5.44.31-2.81.26-5.9,1.09-7.69h.04Z"/>
                <path class="cls-38" d="M507.47,120.02s-.94,2.5.77,2.56c1.7.06,2.56-2.54,2.56-2.54l-1.25-.51-2.07.48h-.01Z"/>
                <path class="cls-10" d="M505.84,120.6s-1.35.12-1.99,2.48c-.66,2.34-1.26,2.82-1.26,2.82l2.56.97,1.83-4.87-1.14-1.4h0Z"/>
                <path class="cls-41" d="M504.63,126.7s0,0-.01,0c-.04,0-.07-.05-.06-.09.02-.09.4-2.2.75-3.06.33-.83.28-1.25.28-1.25,0-.04.02-.08.06-.08.04,0,.08.02.08.06,0,.02.06.45-.29,1.33-.34.85-.74,3.01-.74,3.03,0,.04-.04.06-.07.06Z"/>
                <path class="cls-9" d="M511.91,131.82l-.47-6.85c-.17-1.45.79-2.38,2.01-1.96h0c.48.16.87.74.87,1.29l.1,6.63-2.5.9h0Z"/>
                <path class="cls-10" d="M511.34,122.88l-.21,4.51,3.7.2c-.33-.93.37-4.4-.99-6.03-1.51-1.8-2.5,1.35-2.5,1.35h0v-.02h0Z"/>
                <path class="cls-41" d="M510.85,127.18s0,0,0,0c-.04,0-.07-.04-.07-.08l.27-2.96.27-1.06s.05-.06.09-.05c.04.01.06.05.05.09l-.27,1.05-.27,2.95s-.04.07-.07.07Z"/>
                <g>
                  <path class="cls-2" d="M501.75,128.14l-.77,2.48-3.79-4.35.63-2.8c.04-.11.17-.15.24-.06l3.69,4.73h0Z"/>
                  <path class="cls-40" d="M498.91,122.88l1.7,2.18-1.77.87s-1.25.12-1.26.1,1.34-3.16,1.34-3.16h0Z"/>
                  <path class="cls-34" d="M503.56,124.52l-.48-.59c-1.24.11-2.55.64-3.91,1.4-1.35.74-1.54.88-1.54.88l.47.06,5.48-1.75h-.01Z"/>
                  <path class="cls-34" d="M498.88,124.03c.1-.5.12-.97.01-1.15l-.83.4-.72,2.94h.4l.15-.16c.51-.56.87-1.26,1.02-2.02h-.02Z"/>
                  <path class="cls-2" d="M497.57,126.13l-.2.04c-.11.01-.16.15-.07.24l4.09,4.93c.06.07.15.12.24.15l.37.05c.17,0,.28-.2.17-.32l-4-4.83c-.15-.17-.38-.26-.61-.22h0v-.02h.01Z"/>
                  <path class="cls-19" d="M506.41,129.8l-4.21,1.56-4.19-5.15,5-1.65c.33-.11.72,0,.93.28l2.81,3.78c.31.42.12,1.02-.36,1.2h0v-.02h.01Z"/>
                </g>
                <path class="cls-38" d="M507.42,128.51l-.85-.85c-.17-.17-.4-.27-.64-.28l-.98-.06c-.33-.01-.59.31-.5.63h0l1.14,1.02c.26.22.59.36.98.36h.63l.24-.79h-.01Z"/>
                <path class="cls-9" d="M514.43,130.92c-.05,1.52-1.35,1.5-2.65,1.14l-5.82-2.97,1.09-.85,4.72,1.52,2.66,1.15h0Z"/>
                <path class="cls-11" d="M507.09,116.47c-.4-.1-1.7,1.81.94,2.56l.16-2.45-1.1-.11h0Z"/>
                <path class="cls-9" d="M508.15,118.47s.15,1.14.27,2.07c.04.26.2.47.43.56s.5.05.69-.11c.06-.05.12-.1.17-.15.27-.22.38-.58.31-.9-.21-.87-.58-2.43-.58-2.43l-1.3.97h0Z"/>
                <polygon class="cls-5" points="508.17 119.09 508.36 119.95 509.06 118.99 508.17 119.09"/>
                <path class="cls-9" d="M509.42,116.93c-.01-.33-.31-.58-.64-.56-.36.01-.81.05-1.15.07-.33.01-.53.31-.55.64-.04.38.07,1.2.24,1.77.1.32.37.61.69.58.36-.01,1.38-.43,1.45-1.08.05-.5,0-.94-.04-1.42h0Z"/>
                <path class="cls-11" d="M510.59,118s-.37-1.57-.97-1.93c-.81-.48-1.75-.63-2.51.42,0,0,.9,1.14,3.38,1.64l.1-.12h0Z"/>
                <path class="cls-8" d="M507.44,118.6l.58-.05s.04.4-.26.38c-.27,0-.32-.33-.32-.33h0Z"/>
                <path class="cls-11" d="M510.43,117.8c.72.45.87.45,1.46,1.07.56.58,1.1,1.3,1.04,2.23-.04.53-.17.76-.32,1.3-.15.53.04.99.64,1.13-1.62.88-2.54.07-3.15-.67-.33-.42-.4-1.07-.36-1.67s.17-1.24.17-1.85.07-.61-.33-.98c.16-.12.07-.88.24-1.02,0,0,.53.58.59.48h0v-.02h.01,0Z"/>
                <path class="cls-9" d="M509.88,118.23c-.07.26-.31.43-.53.37s-.33-.32-.26-.59c.07-.26.31-.43.53-.37s.33.32.26.59Z"/>
              </g>
              <g>
                <path class="cls-4" d="M574.19,130.14h-5.43v.04h0l-26.77,27.49h0v5.43h32.2v-1.35h0v-31.58h0v-.02h0ZM568.76,137.92v19.73h-19.21l19.21-19.73Z"/>
                <g>
                  <path class="cls-13" d="M576.24,130.14h-5.43v.04h0l-26.77,27.49h0v5.43h32.2v-1.35h0v-31.58h0v-.02h0ZM570.82,137.92v19.73h-19.21l19.21-19.73h0Z"/>
                  <g>
                    <path class="cls-27" d="M546.54,162.98c-.06,0-.12-.05-.12-.12v-1.39c0-.06.05-.12.12-.12s.12.05.12.12v1.39c0,.06-.05.12-.12.12Z"/>
                    <path class="cls-27" d="M549.29,162.98c-.06,0-.12-.05-.12-.12v-1.39c0-.06.05-.12.12-.12s.12.05.12.12v1.39c0,.06-.05.12-.12.12Z"/>
                    <path class="cls-27" d="M552.02,162.98c-.06,0-.12-.05-.12-.12v-1.39c0-.06.05-.12.12-.12s.12.05.12.12v1.39c0,.06-.05.12-.12.12Z"/>
                    <path class="cls-27" d="M554.77,162.98c-.06,0-.12-.05-.12-.12v-1.39c0-.06.05-.12.12-.12s.12.05.12.12v1.39c0,.06-.05.12-.12.12Z"/>
                    <path class="cls-27" d="M557.52,162.98c-.06,0-.12-.05-.12-.12v-1.39c0-.06.05-.12.12-.12s.12.05.12.12v1.39c0,.06-.05.12-.12.12Z"/>
                    <path class="cls-27" d="M560.26,162.98c-.06,0-.12-.05-.12-.12v-1.39c0-.06.05-.12.12-.12s.12.05.12.12v1.39c0,.06-.05.12-.12.12Z"/>
                    <path class="cls-27" d="M563.03,162.98c-.06,0-.12-.05-.12-.12v-1.39c0-.06.05-.12.12-.12s.12.05.12.12v1.39c0,.06-.05.12-.12.12Z"/>
                    <path class="cls-27" d="M565.78,162.98c-.06,0-.12-.05-.12-.12v-1.39c0-.06.05-.12.12-.12s.12.05.12.12v1.39c0,.06-.05.12-.12.12Z"/>
                    <path class="cls-27" d="M568.51,162.98c-.06,0-.12-.05-.12-.12v-1.39c0-.06.05-.12.12-.12s.12.05.12.12v1.39c0,.06-.05.12-.12.12Z"/>
                    <path class="cls-27" d="M571.26,162.98c-.06,0-.12-.05-.12-.12v-1.39c0-.06.05-.12.12-.12s.12.05.12.12v1.39c0,.06-.05.12-.12.12Z"/>
                    <path class="cls-27" d="M574.01,162.98c-.06,0-.12-.05-.12-.12v-1.39c0-.06.05-.12.12-.12s.12.05.12.12v1.39c0,.06-.05.12-.12.12Z"/>
                  </g>
                </g>
                <path class="cls-41" d="M544.05,157.72h-2.06s-.07-.03-.07-.07.03-.07.07-.07h2.02l26.75-27.49s.08-.03.11,0c.03.03.03.08,0,.11l-26.77,27.51s-.03.02-.05.02Z"/>
              </g>
              <path class="cls-37" d="M569.66,116.26s-.09-.04-.09-.09l-.04-.69-.49.47s-.1.03-.13,0c-.04-.04-.03-.1,0-.13l.63-.61s.06-.03.1-.02c.03.01.06.05.06.08l.05.89c0,.05-.04.1-.09.1,0,0,0,0,0,0Z"/>
              <path class="cls-37" d="M576.83,125.42s-.09-.04-.09-.09c0-.05.04-.09.09-.1l.43-.02-.26-.41s-.01-.1.03-.13c.04-.03.1-.01.13.03l.35.55s.02.06,0,.09c-.02.03-.05.05-.08.05l-.59.02s0,0,0,0Z"/>
              <g>
                <path class="cls-9" d="M530.32,154.37s1.3-.05,3.02,3.68c.94,2.04,4.27,6.29,4.27,6.29l1.36-.56-4.25-9.2c-.37-.76-1.68-1.47-2.49-1.61l-1.1.69-.82.67h0v.04Z"/>
                <path class="cls-12" d="M538.52,162.02l-2.76.83s-2.45-2.87-3.11-5.15l-5.98,4.35-4.89-3.94s8.73-5.24,9.27-5.6c.53-.37,2.38-.79,3.34.64.97,1.42,4.17,8.88,4.17,8.88h-.04Z"/>
                <path class="cls-17" d="M538.93,163.64l1.07.79c.22.2,1.41.58,1.41.58h0c.12.24-.11.37-.31.42l-3.51-.04s-1.09-.11-.4-1.67c.64.27,1.56.42,1.72-.06h.01v-.02h0Z"/>
                <path class="cls-9" d="M527.87,154.02c.74,0,1.62-.24,1.85-.93-.5-1.8-1.59-3.96-3.08-6.38-.72-1.29-2.06-1.94-2.77-1.41h0c-.28.21-.26.77.07,1.25l4.17,7.92-.24-.45h0Z"/>
                <path class="cls-7" d="M524.85,145.13l-1.99-.67-3.07-.05-2.5,1.02c-1.15.56-1.5,6.42-1.5,6.42.36,7.31.07,7.26.5,8.75,2.11-.37,3.87-1.15,6.19-1.35,2.6-.2,4.43-2.7,3.84-5.24-.59-2.59-1.04-5.43-1.47-8.88h.01Z"/>
                <path class="cls-38" d="M522.86,144.44s.31,1.96-1.04,2.06c-1.31.07-2.02-2.11-2.02-2.11l.82-.42,2.24.47h0Z"/>
                <path class="cls-9" d="M519.15,154.49l-.16-5.98c-.05-1.64-1.1-2.82-2.23-2.49h0c-.45.12-.82,1.75-.74,2.38l.48,6.22,2.65-.12h0Z"/>
                <path class="cls-9" d="M516.52,154.61c.15,1.25,1.72,1.88,2.7,1.57l3.87-3.13-1.03-.82-3.62,1.45-1.93.92h.01Z"/>
                <path class="cls-7" d="M516.99,145.65s-1.07.69-1.4,3.98l-.07,2.21,3.79-.1s.16-5.55-.99-5.9c-1.15-.35-1.31-.2-1.31-.2h-.01Z"/>
                <path class="cls-7" d="M524.85,145.13s1.68.4,3.52,4.17c0,0-1.1,2.22-2.11,2.06,0,0-1.73-2.32-1.8-2.32s.38-3.91.38-3.91h0Z"/>
                <path class="cls-9" d="M532.55,151.79c.2.11.45.06.59-.1.33-.4.88-1.18.43-1.67-.64-.71-1.62.47-1.62,1.03s.33.59.61.74h-.01,0Z"/>
                <path class="cls-2" d="M519.4,152.08s-.08-.03-.08-.08l-.16-3.17-.34-.46s-.02-.09.02-.11c.04-.03.09-.02.11.02l.36.48s.02.03.02.04l.16,3.2s-.03.08-.08.08c0,0,0,0,0,0Z"/>
                <path class="cls-2" d="M525.28,150.14s-.06-.02-.08-.05l-.76-2.11s0-.03,0-.04l.09-.5s.05-.07.09-.07c.04,0,.07.05.07.09l-.08.47.75,2.09s0,.09-.05.1c0,0-.02,0-.03,0Z"/>
                <g>
                  <path class="cls-2" d="M529.28,151.73l1.25,2.7,3.64-5.54-1.13-3.08c-.05-.12-.21-.15-.28-.04l-3.48,5.96h0Z"/>
                  <path class="cls-40" d="M531.71,145.31l-1.59,2.75,2.13.72s1.45-.05,1.45-.07-2.01-3.38-2.01-3.38h.01,0Z"/>
                  <path class="cls-34" d="M526.68,147.91l.47-.76c1.41-.06,3,.33,4.67.99,1.64.64,1.88.77,1.88.77l-.51.15-6.49-1.15h-.02Z"/>
                  <path class="cls-34" d="M531.91,146.61c-.17-.55-.28-1.08-.21-1.31l1.03.33,1.26,3.25-.45.05-.17-.16c-.67-.56-1.19-1.31-1.46-2.16h0Z"/>
                  <path class="cls-2" d="M533.73,148.8h.22c.12,0,.21.16.12.26l-3.89,6.23c-.06.1-.15.16-.26.2l-.17.05c-.2.05-.5-.1-.5-.1l3.82-6.29c.15-.22.38-.36.66-.33h-.01.01Z"/>
                  <path class="cls-23" d="M524.23,154.32l5.03,1.13,3.98-6.5-5.96-1.13c-.4-.07-.82.11-1.02.48l-2.64,4.72c-.28.51,0,1.18.59,1.3h.01Z"/>
                </g>
                <path class="cls-3" d="M523.04,142.64c.48.4,1.45-.97.21-1.56-1.08-.51-1.25.81-1.24.83.01.04,1.03.72,1.03.72h0Z"/>
                <path class="cls-3" d="M520.23,142.04s-.17,1.34.81,1.57c.72.17,1.23-2.18,1.23-2.18l-2.04.63h.01v-.02Z"/>
                <path class="cls-9" d="M522.55,142.94s-.26,1.03-.47,1.88c-.06.22-.24.4-.5.45-.24.05-.51,0-.71-.2-.06-.06-.12-.11-.17-.16-.26-.24-.36-.58-.24-.88.28-.77.82-2.17.82-2.17l1.26,1.08h0Z"/>
                <polygon class="cls-16" points="522.45 143.63 522.24 144.18 521.74 143.53 522.45 143.63"/>
                <path class="cls-9" d="M521.09,141.53c.01-.31.28-.55.59-.53.32,0,.74.05,1.07.06.31,0,.48.28.51.59.04.37-.07,1.1-.22,1.64-.07.31-.33.56-.64.55-.32,0-1.29-.4-1.34-.99-.04-.45,0-.88.04-1.34h0v.02h0Z"/>
                <path class="cls-3" d="M519.99,142.04s.37-.99.92-1.34c.74-.45,1.62-.58,2.34.37,0,0-.58,1.61-1.61,1.3-.2-.06-.21.32-.48.36-.37.04-.17-.22-.72-.36-.07-.05-.26-.11-.45-.36h0v.02Z"/>
                <path class="cls-9" d="M520.66,142.73c.06.24.28.4.48.33s.31-.31.24-.55-.28-.4-.48-.33-.31.31-.24.55Z"/>
                <path class="cls-8" d="M522.88,142.99h-.47s0,.32.22.28.24-.28.24-.28h.01Z"/>
                <path class="cls-38" d="M521.92,152.32l1.04-.76c.21-.15.48-.22.76-.21l1.13.06c.38,0,.66.38.53.71h0l-1.36.88c-.31.2-.71.27-1.14.24l-.71-.07-.22-.85h-.02,0Z"/>
                <path class="cls-39" d="M516.27,158.95s-1.45,5.81,4.72,5.85c6.17.04,8.51-6.23,8.51-6.23l-1.75,1.34-1.29-.59-2.92-2.68-7.27,2.32h0Z"/>
                <path class="cls-9" d="M524.98,154.43s1.3-.05,3.02,3.68c.94,2.04,4.17,6.17,4.17,6.17l1.45-.42-4.25-9.2c-.37-.76-1.68-1.47-2.49-1.61l-1.1.69-.82.67h.04l-.02.02Z"/>
                <path class="cls-12" d="M533.17,162.08l-3.18.97s-2.06-2.99-2.71-5.28l-5.98,4.35-4.43-2.64s8.25-6.53,8.78-6.9,2.38-.79,3.34.64,4.17,8.88,4.17,8.88h.01v-.02h0Z"/>
                <path class="cls-17" d="M533.57,163.71l1.07.79c.22.2,1.41.58,1.41.58h0c.12.24-.11.37-.31.42l-3.51-.04s-1.09-.07-.4-1.64c.64.27,1.56.38,1.72-.1h.01v-.02h0Z"/>
                <path class="cls-1" d="M528.04,160.39s-.05-.01-.07-.03l-2.3-2.97s-.02-.09.02-.12c.04-.03.09-.02.12.02l2.3,2.97s.02.09-.02.12c-.02.01-.03.02-.05.02Z"/>
              </g>
            </g>
          </g>
        </g>
      </g>
    </g>
  </g>
</svg>