<?xml version="1.0" encoding="UTF-8"?>
<svg id="_x31_7_x5F_數學及統計" xmlns="http://www.w3.org/2000/svg" viewBox="0 0 1130 270">
  <defs>
    <style>
      .cls-1 {
        fill: #59321f;
      }

      .cls-2 {
        fill: #9c938b;
      }

      .cls-3 {
        fill: #3b1c17;
      }

      .cls-3, .cls-4, .cls-5, .cls-6, .cls-7, .cls-8, .cls-9, .cls-10, .cls-11, .cls-12, .cls-13, .cls-14, .cls-15, .cls-16, .cls-17, .cls-18 {
        fill-rule: evenodd;
      }

      .cls-19 {
        fill: #b0a69d;
      }

      .cls-20 {
        fill: #c7513a;
      }

      .cls-4, .cls-21 {
        fill: #fcb072;
      }

      .cls-5 {
        fill: #873b24;
      }

      .cls-22, .cls-8 {
        fill: #fff;
      }

      .cls-23 {
        fill: #bdb2a8;
      }

      .cls-6, .cls-24 {
        fill: #a39287;
      }

      .cls-7, .cls-25 {
        fill: #ded5cb;
      }

      .cls-26 {
        fill: #9c2d2d;
      }

      .cls-27 {
        fill: #cf7021;
      }

      .cls-28 {
        fill: #d6c6ba;
      }

      .cls-29 {
        fill: #d66e5a;
      }

      .cls-30 {
        fill: #fcf0f0;
        stroke: #fd6a65;
      }

      .cls-30, .cls-31, .cls-32 {
        stroke-linejoin: round;
        stroke-width: 2px;
      }

      .cls-30, .cls-32 {
        stroke-linecap: round;
      }

      .cls-33 {
        isolation: isolate;
      }

      .cls-34 {
        fill: #ebe0d5;
      }

      .cls-35 {
        fill: #b84b36;
      }

      .cls-36 {
        fill: #734128;
      }

      .cls-37 {
        fill: #bfab9e;
      }

      .cls-9, .cls-38 {
        fill: #c95836;
      }

      .cls-10 {
        fill: #f7a763;
      }

      .cls-11 {
        fill: #663a24;
      }

      .cls-12, .cls-39 {
        fill: #7a462b;
      }

      .cls-40 {
        fill: #bab2a9;
      }

      .cls-13 {
        fill: #e69b5c;
      }

      .cls-31, .cls-32 {
        fill: none;
        stroke: #484848;
      }

      .cls-41 {
        fill: #d68d51;
      }

      .cls-14 {
        fill: #ba5de5;
      }

      .cls-42 {
        fill: #484848;
      }

      .cls-15 {
        fill: #3cc583;
      }

      .cls-43 {
        fill: #d6573e;
      }

      .cls-16 {
        fill: #633c1d;
      }

      .cls-17 {
        fill: #4a2a1a;
      }

      .cls-18 {
        fill: #9c5937;
      }

      .cls-44 {
        fill: #e38e7d;
      }

      .cls-45 {
        fill: #fd6a65;
      }

      .cls-32 {
        stroke-dasharray: 5 7;
      }
    </style>
  </defs>
  <g id="g-root-cu_hv9mbhpvbzt2-stroke">
    <g id="cu_hv9mbhpvbzt2-stroke">
      <path class="cls-31" d="M446,123h-10c-7.18,0-13-5.82-13-13v-.1s0-18.9,0-18.9c0-7.18-5.82-13-13-13h-12"/>
    </g>
  </g>
  <g id="g-root-cu_hv9mbhpvbzt2-stroke-2" data-name="g-root-cu_hv9mbhpvbzt2-stroke">
    <g id="cu_hv9mbhpvbzt2-stroke-2" data-name="cu_hv9mbhpvbzt2-stroke">
      <path class="cls-31" d="M638,144h9.9s.1,0,.1,0c7.18,0,13-5.82,13-13v-.1s0-18.9,0-18.9c0-7.18,5.82-13,13-13h12"/>
    </g>
  </g>
  <g id="g-root-cu_dg2la5pvbxfl-stroke">
    <g id="cu_dg2la5pvbxfl-stroke">
      <path class="cls-32" d="M718,123v12c0,6.63,5.37,12,12,12h6"/>
    </g>
  </g>
  <g>
    <g id="g-root-cu_4kfl19pvby8c-stroke">
      <g id="cu_4kfl19pvby8c-stroke">
        <path class="cls-32" d="M370,105v24h-18"/>
      </g>
    </g>
    <g id="g-root-cu_4kfl19pvby8f-stroke">
      <g id="cu_4kfl19pvby8f-stroke">
        <path class="cls-32" d="M370,105v60h-18"/>
      </g>
    </g>
    <g id="g-root-cu_4m2wtpvbz0p-stroke">
      <g id="cu_4m2wtpvbz0p-stroke">
        <path class="cls-32" d="M370,105v84c0,6.63-5.37,12-12,12h-6"/>
      </g>
    </g>
  </g>
  <g id="c138">
    <g id="tx__mg2x4tpuxxqh-fill">
      <g class="cls-33">
        <g class="cls-33">
          <path class="cls-42" d="M223,194.58h5.7v1.12h-5.7v-1.12ZM229.02,205.58l1.22.56c-.55.31-1.17.61-1.87.91s-1.42.58-2.16.83c-.74.25-1.44.47-2.11.66-.07-.09-.16-.2-.28-.33-.12-.13-.24-.25-.37-.38-.13-.13-.24-.23-.35-.31.69-.15,1.4-.32,2.13-.52.73-.2,1.42-.42,2.07-.67s1.23-.5,1.72-.75ZM223.44,191.46h4.76v1.08h-4.76v-1.08ZM225.64,197.32h12.98v8.06h-12.98v-8.06ZM226.96,198.24v1.46h10.32v-1.46h-10.32ZM226.96,200.6v1.46h10.32v-1.46h-10.32ZM226.96,202.96v1.5h10.32v-1.5h-10.32ZM234.1,192.24h1.26v.66c0,.39-.07.78-.2,1.18-.13.4-.41.79-.82,1.18s-1.04.74-1.87,1.06c-.83.32-1.96.6-3.37.84-.07-.16-.17-.34-.32-.55-.15-.21-.29-.37-.42-.49,1.32-.19,2.36-.41,3.13-.67.77-.26,1.34-.54,1.71-.83.37-.29.62-.59.73-.89.11-.3.17-.59.17-.87v-.62ZM231.66,190.18l1.2.28c-.27.81-.62,1.6-1.07,2.36-.45.76-.92,1.4-1.43,1.92-.08-.07-.18-.14-.3-.23-.12-.09-.25-.17-.38-.26s-.25-.15-.36-.19c.52-.49.98-1.08,1.39-1.75.41-.67.72-1.38.95-2.13ZM231.3,191.62h8.28v1.06h-8.28v-1.06ZM233.96,206.32l.92-.76c.72.21,1.45.45,2.19.7.74.25,1.43.5,2.08.75.65.25,1.21.48,1.69.69l-1.2.8c-.43-.23-.94-.46-1.55-.71-.61-.25-1.26-.5-1.97-.75-.71-.25-1.43-.49-2.16-.72ZM235.16,193.5c.33.43.8.81,1.4,1.16.6.35,1.3.63,2.09.84.79.21,1.65.37,2.57.46-.15.12-.29.29-.44.5-.15.21-.26.41-.34.58-.95-.15-1.83-.37-2.64-.67s-1.53-.67-2.14-1.12c-.61-.45-1.11-.96-1.48-1.53l.98-.22ZM239.14,191.62h.24l.22-.08.88.32c-.25.49-.52,1-.81,1.53-.29.53-.57.97-.85,1.33l-1.06-.36c.23-.35.47-.75.73-1.22.26-.47.48-.91.65-1.34v-.18Z"/>
          <path class="cls-42" d="M244.72,199.46l1,.32c-.15.75-.33,1.53-.56,2.34s-.49,1.59-.78,2.32-.61,1.34-.94,1.82c-.04-.15-.1-.31-.19-.49-.09-.18-.18-.36-.27-.53-.09-.17-.18-.32-.26-.44.27-.4.53-.9.8-1.5.27-.6.51-1.24.72-1.91.21-.67.37-1.32.48-1.93ZM242.98,196.96h7.84v1.26h-7.84v-1.26ZM243.16,191.78l.98-.26c.2.47.38.97.55,1.5.17.53.31,1.05.42,1.55s.2.95.25,1.35l-1.08.28c-.03-.4-.1-.85-.22-1.36-.12-.51-.26-1.03-.41-1.57-.15-.54-.32-1.04-.49-1.49ZM246.24,190.26h1.24v18.3h-1.24v-18.3ZM248.44,199.48c.09.15.24.4.44.77.2.37.42.77.65,1.22.23.45.44.86.63,1.24.19.38.32.66.4.83l-.98,1c-.09-.27-.22-.61-.38-1.03-.16-.42-.34-.86-.54-1.32-.2-.46-.39-.89-.56-1.28-.17-.39-.31-.7-.42-.91l.76-.52ZM249.58,191.46l1.2.32c-.16.49-.34,1.01-.54,1.56-.2.55-.4,1.08-.59,1.59-.19.51-.38.96-.55,1.33l-.88-.3c.16-.39.33-.85.5-1.38.17-.53.34-1.08.49-1.63s.28-1.05.37-1.49ZM250.78,203.02l10.28-1.86.22,1.24-10.26,1.86-.24-1.24ZM251.32,197.68l.62-.94c.41.2.83.43,1.26.69.43.26.83.53,1.22.8s.69.53.92.77l-.68,1.06c-.23-.24-.53-.5-.9-.79-.37-.29-.77-.57-1.2-.85-.43-.28-.84-.53-1.24-.74ZM252.36,192.64l.7-.92c.39.23.78.48,1.19.77s.79.58,1.15.87c.36.29.65.57.86.82l-.72,1.02c-.2-.25-.48-.53-.83-.84-.35-.31-.74-.61-1.15-.92-.41-.31-.81-.57-1.2-.8ZM257.38,190.24h1.28v18.32h-1.28v-18.32Z"/>
          <path class="cls-42" d="M266.42,196.34l.84.36c-.2.71-.45,1.44-.74,2.2-.29.76-.62,1.51-.97,2.24-.35.73-.72,1.42-1.1,2.06-.38.64-.76,1.19-1.15,1.64-.07-.19-.17-.4-.31-.63-.14-.23-.27-.43-.39-.59.36-.4.73-.88,1.1-1.45.37-.57.73-1.18,1.08-1.84.35-.66.66-1.33.94-2.01.28-.68.51-1.34.7-1.98ZM262.9,195.88h7.78v1.26h-7.78v-1.26ZM269.48,190.52l.84,1.08c-.6.24-1.29.46-2.06.66s-1.57.38-2.39.53c-.82.15-1.62.28-2.39.39-.03-.15-.08-.32-.16-.52s-.15-.37-.22-.52c.75-.13,1.52-.28,2.31-.44s1.55-.34,2.26-.55c.71-.21,1.32-.42,1.81-.63ZM266.34,191.86h1.32v16.66h-1.32v-16.66ZM267.56,197.42c.13.15.34.39.61.72.27.33.57.7.88,1.1.31.4.6.77.87,1.11.27.34.45.59.56.75l-.84,1.04c-.12-.24-.3-.55-.54-.94s-.5-.79-.78-1.21c-.28-.42-.55-.81-.8-1.17-.25-.36-.45-.63-.6-.82l.64-.58ZM270.46,203.26l10.6-1.68.22,1.24-10.62,1.72-.2-1.28ZM271.32,197.64l.84-.78c.44.25.9.55,1.37.88.47.33.91.67,1.31,1.01s.73.65.98.93l-.88.9c-.25-.29-.58-.62-.98-.97s-.83-.7-1.29-1.04-.91-.65-1.35-.93ZM272.12,192.44l.86-.78c.41.24.83.52,1.25.84s.81.64,1.18.97c.37.33.66.63.89.91l-.92.88c-.21-.28-.5-.59-.85-.92-.35-.33-.74-.67-1.16-1-.42-.33-.84-.63-1.25-.9ZM277.32,190.22h1.34v18.3h-1.34v-18.3Z"/>
          <path class="cls-42" d="M283.1,203.44h17.86v1.16h-17.86v-1.16ZM283.54,197.4h17v3.56h-1.34v-2.52h-14.38v2.52h-1.28v-3.56ZM288.62,190.42l.62.84c-.57.23-1.23.41-1.97.56s-1.41.26-2.01.34l-.5-.78c.39-.07.82-.16,1.29-.27s.94-.23,1.4-.36.85-.24,1.17-.33ZM284.76,191.38l1.3.36.4,6.22h-1.26l-.44-6.58ZM285.5,193.12h3.62v.96h-3.62v-.96ZM285.6,195.24h3.62v.96h-3.62v-.96ZM286.78,199.9h9.58v1.04h-9.58v-1.04ZM291.54,202.52h1.3v4.56c0,.36-.05.63-.15.82-.1.19-.3.33-.61.44-.29.09-.7.14-1.22.15-.52,0-1.19,0-2,0-.03-.16-.09-.35-.18-.56-.09-.21-.19-.4-.28-.56.44.01.84.02,1.21.03.37,0,.69,0,.96,0s.46,0,.55,0c.16-.01.27-.04.33-.09s.09-.14.09-.27v-4.52ZM293.06,193.8l.98.3c-.48.63-1.08,1.23-1.8,1.81-.72.58-1.44,1.06-2.16,1.45-.08-.09-.2-.22-.36-.37-.16-.15-.29-.28-.4-.37.71-.33,1.4-.75,2.09-1.24.69-.49,1.24-1.02,1.65-1.58ZM293,190.42l.98.28c-.45.61-1.02,1.2-1.71,1.75-.69.55-1.37,1.02-2.05,1.39-.08-.09-.2-.21-.36-.36-.16-.15-.3-.25-.42-.32.68-.35,1.35-.76,2-1.23.65-.47,1.17-.98,1.56-1.51ZM289.74,194.66l.7-.6c.45.21.93.46,1.42.74.49.28.96.57,1.4.87.44.3.79.58,1.06.85l-.72.7c-.27-.28-.61-.57-1.04-.87-.43-.3-.88-.6-1.37-.9-.49-.3-.97-.56-1.45-.79ZM289.8,191.32l.68-.62c.45.19.92.41,1.39.68s.93.53,1.36.8c.43.27.78.53,1.05.78l-.7.68c-.27-.24-.61-.5-1.03-.79-.42-.29-.87-.56-1.35-.83-.48-.27-.95-.5-1.4-.7ZM296.04,199.9h.32l.28-.06.8.68c-.45.36-.97.71-1.56,1.04-.59.33-1.2.64-1.83.93s-1.25.54-1.85.75c-.07-.12-.17-.25-.31-.39-.14-.14-.26-.25-.35-.33.53-.19,1.08-.41,1.65-.68s1.1-.55,1.61-.84.92-.57,1.24-.84v-.26ZM294.78,195.24h3.58v.96h-3.58v-.96ZM294.8,191h3.86v.96h-3.86v-.96ZM294.9,193.12h3.62v.96h-3.62v-.96ZM298.12,191h1.28c-.04.76-.09,1.57-.14,2.42s-.11,1.68-.18,2.49-.13,1.5-.2,2.09h-1.3c.09-.6.17-1.31.24-2.12.07-.81.13-1.65.18-2.5.05-.85.09-1.65.12-2.38Z"/>
          <path class="cls-42" d="M303.1,203.44h17.86v1.16h-17.86v-1.16ZM303.54,197.4h17v3.56h-1.34v-2.52h-14.38v2.52h-1.28v-3.56ZM308.62,190.42l.62.84c-.57.23-1.23.41-1.97.56s-1.41.26-2.01.34l-.5-.78c.39-.07.82-.16,1.29-.27s.94-.23,1.4-.36.85-.24,1.17-.33ZM304.76,191.38l1.3.36.4,6.22h-1.26l-.44-6.58ZM305.5,193.12h3.62v.96h-3.62v-.96ZM305.6,195.24h3.62v.96h-3.62v-.96ZM306.78,199.9h9.58v1.04h-9.58v-1.04ZM311.54,202.52h1.3v4.56c0,.36-.05.63-.15.82-.1.19-.3.33-.61.44-.29.09-.7.14-1.22.15-.52,0-1.19,0-2,0-.03-.16-.09-.35-.18-.56-.09-.21-.19-.4-.28-.56.44.01.84.02,1.21.03.37,0,.69,0,.96,0s.46,0,.55,0c.16-.01.27-.04.33-.09s.09-.14.09-.27v-4.52ZM313.06,193.8l.98.3c-.48.63-1.08,1.23-1.8,1.81-.72.58-1.44,1.06-2.16,1.45-.08-.09-.2-.22-.36-.37-.16-.15-.29-.28-.4-.37.71-.33,1.4-.75,2.09-1.24.69-.49,1.24-1.02,1.65-1.58ZM313,190.42l.98.28c-.45.61-1.02,1.2-1.71,1.75-.69.55-1.37,1.02-2.05,1.39-.08-.09-.2-.21-.36-.36-.16-.15-.3-.25-.42-.32.68-.35,1.35-.76,2-1.23.65-.47,1.17-.98,1.56-1.51ZM309.74,194.66l.7-.6c.45.21.93.46,1.42.74.49.28.96.57,1.4.87.44.3.79.58,1.06.85l-.72.7c-.27-.28-.61-.57-1.04-.87-.43-.3-.88-.6-1.37-.9-.49-.3-.97-.56-1.45-.79ZM309.8,191.32l.68-.62c.45.19.92.41,1.39.68s.93.53,1.36.8c.43.27.78.53,1.05.78l-.7.68c-.27-.24-.61-.5-1.03-.79-.42-.29-.87-.56-1.35-.83-.48-.27-.95-.5-1.4-.7ZM316.04,199.9h.32l.28-.06.8.68c-.45.36-.97.71-1.56,1.04-.59.33-1.2.64-1.83.93s-1.25.54-1.85.75c-.07-.12-.17-.25-.31-.39-.14-.14-.26-.25-.35-.33.53-.19,1.08-.41,1.65-.68s1.1-.55,1.61-.84.92-.57,1.24-.84v-.26ZM314.78,195.24h3.58v.96h-3.58v-.96ZM314.8,191h3.86v.96h-3.86v-.96ZM314.9,193.12h3.62v.96h-3.62v-.96ZM318.12,191h1.28c-.04.76-.09,1.57-.14,2.42s-.11,1.68-.18,2.49-.13,1.5-.2,2.09h-1.3c.09-.6.17-1.31.24-2.12.07-.81.13-1.65.18-2.5.05-.85.09-1.65.12-2.38Z"/>
          <path class="cls-42" d="M327.88,202.98l1.34.48c-.39.52-.83,1.05-1.34,1.58s-1.03,1.03-1.57,1.49c-.54.46-1.07.87-1.59,1.23-.08-.08-.19-.18-.34-.29-.15-.11-.29-.22-.44-.33s-.27-.19-.38-.26c.8-.49,1.59-1.09,2.37-1.78.78-.69,1.43-1.4,1.95-2.12ZM336.28,190.26l.98,1.06c-.81.37-1.74.73-2.77,1.07-1.03.34-2.13.66-3.28.96-1.15.3-2.33.58-3.52.84-1.19.26-2.36.5-3.51.71-.03-.17-.08-.37-.17-.58-.09-.21-.16-.39-.23-.54,1.12-.21,2.27-.45,3.44-.72,1.17-.27,2.32-.55,3.43-.85s2.15-.61,3.12-.94c.97-.33,1.8-.66,2.51-1.01ZM324.56,202.66c-.01-.11-.04-.24-.09-.4-.05-.16-.1-.32-.16-.49-.06-.17-.11-.31-.15-.43.31-.03.69-.12,1.14-.29.45-.17.99-.39,1.6-.67.33-.15.83-.38,1.49-.71.66-.33,1.41-.72,2.26-1.19.85-.47,1.73-.98,2.64-1.55.91-.57,1.78-1.16,2.61-1.79l1.04.88c-1.87,1.31-3.76,2.46-5.69,3.45-1.93.99-3.82,1.85-5.69,2.57v.04c-.2.07-.37.13-.5.18-.13.05-.25.12-.35.19s-.15.14-.15.21ZM324.56,202.66l-.04-1.04.98-.5,13.14-.9c-.03.19-.04.4-.04.63v.55c-2.03.15-3.77.27-5.23.38s-2.69.2-3.68.27c-.99.07-1.8.14-2.42.2-.62.06-1.1.11-1.45.15-.35.04-.61.08-.8.12-.19.04-.34.09-.46.14ZM325.68,198.48c-.01-.09-.04-.22-.09-.38-.05-.16-.1-.32-.15-.49-.05-.17-.1-.31-.14-.43.21-.03.45-.09.72-.19.27-.1.56-.24.88-.41.23-.12.6-.34,1.13-.66.53-.32,1.11-.7,1.75-1.15.64-.45,1.25-.92,1.82-1.41l1.18.76c-.99.76-2.01,1.46-3.06,2.09-1.05.63-2.09,1.17-3.1,1.61v.04c-.19.08-.34.15-.47.21-.13.06-.24.13-.33.2-.09.07-.14.14-.14.21ZM325.68,198.48l-.02-.98.82-.42,7.5-.38c-.04.16-.07.35-.09.57-.02.22-.04.4-.05.53-1.37.08-2.52.15-3.45.21-.93.06-1.68.11-2.26.16s-1.03.09-1.35.12c-.32.03-.56.06-.71.09-.15.03-.28.06-.39.1ZM331.52,201.14h1.36v5.74c0,.39-.05.69-.16.9-.11.21-.31.37-.62.48s-.71.17-1.22.2-1.13.04-1.86.04c-.04-.2-.11-.43-.21-.68-.1-.25-.2-.47-.31-.66.41.01.8.03,1.16.04.36.01.67.02.93,0s.44-.02.53-.03c.17-.01.28-.04.33-.08.05-.04.07-.12.07-.24v-5.72ZM334.82,203.5l1.04-.7c.53.41,1.09.86,1.68,1.34.59.48,1.14.95,1.67,1.42.53.47.96.89,1.29,1.26l-1.12.78c-.32-.36-.74-.78-1.25-1.26-.51-.48-1.06-.97-1.63-1.47s-1.13-.96-1.68-1.37ZM335.36,198.24l1.1-.54c.51.45,1.02.95,1.55,1.48.53.53,1.02,1.05,1.47,1.56.45.51.82.96,1.1,1.36l-1.14.68c-.27-.4-.63-.87-1.08-1.4s-.94-1.07-1.47-1.62c-.53-.55-1.04-1.05-1.53-1.52Z"/>
        </g>
      </g>
    </g>
  </g>
  <g id="c137">
    <g id="tx__vbpxdppuxwxs-fill">
      <g class="cls-33">
        <g class="cls-33">
          <path class="cls-42" d="M223.66,169.04l1.12.2c-.11.87-.25,1.74-.44,2.61-.19.87-.39,1.62-.6,2.25-.11-.07-.27-.14-.5-.22s-.41-.14-.56-.18c.24-.63.44-1.36.59-2.19.15-.83.28-1.66.39-2.47ZM223.12,163.64c-.03-.09-.07-.22-.12-.38s-.11-.32-.16-.48-.1-.3-.14-.42c.16-.04.33-.16.52-.35.19-.19.38-.44.58-.75.12-.15.29-.39.51-.73.22-.34.46-.75.73-1.22.27-.47.54-.98.81-1.52s.52-1.08.73-1.63l1.24.54c-.53,1.13-1.13,2.25-1.8,3.34-.67,1.09-1.34,2.05-2.02,2.86v.02c-.17.11-.32.19-.44.26-.12.07-.22.14-.31.22-.09.08-.13.16-.13.24ZM223.26,168.12c-.03-.09-.07-.22-.12-.37-.05-.15-.11-.31-.16-.48-.05-.17-.11-.3-.16-.41.21-.04.44-.18.68-.43.24-.25.51-.56.8-.93.17-.19.42-.49.73-.91.31-.42.67-.92,1.07-1.51.4-.59.8-1.22,1.2-1.89.4-.67.77-1.35,1.1-2.03l1.18.68c-.52.92-1.08,1.83-1.68,2.74-.6.91-1.22,1.77-1.85,2.59s-1.28,1.56-1.93,2.23v.04c-.17.08-.32.16-.44.23-.12.07-.22.15-.3.23s-.12.15-.12.22ZM223.12,163.64l-.02-.96.64-.38,3.52-.32c-.03.16-.05.34-.06.54-.01.2-.02.37-.02.5-.81.09-1.47.17-1.97.23s-.89.11-1.16.16-.48.09-.61.12c-.13.03-.24.07-.32.11ZM223.26,168.12l-.06-.98.64-.44,5.28-.78c-.03.17-.04.36-.04.56s0,.37.02.5c-1.21.2-2.19.36-2.92.49-.73.13-1.29.23-1.68.3-.39.07-.67.14-.84.2-.17.06-.31.11-.4.15ZM225.8,169.18l1.04-.22c.12.68.23,1.41.34,2.2.11.79.17,1.47.2,2.04l-1.08.26c-.01-.59-.07-1.28-.16-2.07-.09-.79-.21-1.53-.34-2.21ZM227.6,164.04l1-.34c.21.43.41.88.6,1.36.19.48.35.95.5,1.4.15.45.26.85.34,1.2l-1.06.42c-.08-.35-.19-.75-.33-1.22-.14-.47-.3-.95-.48-1.44s-.37-.95-.57-1.38ZM228.02,168.76l.96-.3c.24.59.47,1.22.68,1.9.21.68.37,1.27.48,1.78l-1.02.34c-.09-.51-.25-1.11-.46-1.8-.21-.69-.43-1.33-.64-1.92ZM232.82,165.06h1.28c-.04,1.27-.12,2.4-.23,3.41-.11,1.01-.32,1.9-.62,2.67-.3.77-.73,1.45-1.29,2.02s-1.3,1.07-2.22,1.48c-.05-.12-.13-.24-.22-.37-.09-.13-.19-.25-.3-.37-.11-.12-.21-.21-.3-.28.84-.36,1.51-.79,2.02-1.29.51-.5.89-1.09,1.15-1.78.26-.69.44-1.48.54-2.39s.16-1.94.19-3.1ZM230.7,165.98c-.03-.09-.07-.22-.12-.38-.05-.16-.11-.33-.16-.51s-.11-.33-.18-.45c.19-.04.39-.2.62-.47s.48-.61.76-1.01c.15-.21.36-.55.64-1.01.28-.46.6-1.01.95-1.65.35-.64.7-1.33,1.05-2.06s.66-1.47.94-2.2l1.44.44c-.45,1.04-.95,2.07-1.5,3.1-.55,1.03-1.11,2-1.7,2.92-.59.92-1.17,1.75-1.74,2.48v.04c-.2.11-.37.2-.5.27-.13.07-.25.15-.35.24-.1.09-.15.17-.15.25ZM230.36,158.8h10.54v1.26h-10.54v-1.26ZM230.7,165.98l-.04-1.02.82-.48,8-.82c.01.17.03.37.06.59s.05.4.08.53c-1.51.17-2.77.32-3.79.44s-1.85.22-2.48.3c-.63.08-1.12.14-1.46.19-.34.05-.6.09-.77.14-.17.05-.31.09-.42.13ZM236.12,164.66h1.28v7.74c0,.25.03.42.1.49.07.07.21.11.42.11h1.5c.15,0,.26-.06.34-.18s.14-.37.17-.75.05-.95.05-1.71c.11.08.23.16.37.23.14.07.28.13.43.18.15.05.28.09.4.13-.04.88-.11,1.56-.21,2.04-.1.48-.26.81-.48,1-.22.19-.53.28-.93.28h-1.8c-.43,0-.76-.05-1-.16-.24-.11-.41-.29-.5-.55s-.14-.62-.14-1.09v-7.76ZM237.06,161.44l1.1-.48c.35.51.71,1.05,1.08,1.64.37.59.72,1.16,1.03,1.71.31.55.56,1.04.75,1.47l-1.2.58c-.17-.41-.41-.91-.72-1.48s-.64-1.16-.99-1.76c-.35-.6-.7-1.16-1.05-1.68Z"/>
          <path class="cls-42" d="M243.3,159.64h8.26v1.14h-8.26v-1.14ZM244.2,162.28h6.5v1.08h-6.5v-1.08ZM244.2,164.88h6.46v1.08h-6.46v-1.08ZM244.36,167.54h1.16v6.76h-1.16v-6.76ZM244.92,167.54h5.76v5.8h-5.76v-1.14h4.58v-3.52h-4.58v-1.14ZM245.7,156.7l1.06-.54c.29.4.58.84.87,1.31.29.47.51.89.67,1.25l-1.08.64c-.16-.36-.38-.79-.67-1.3-.29-.51-.57-.96-.85-1.36ZM251.52,163.2h9.56v1.34h-9.56v-1.34ZM255.52,156.6h1.36v17.96h-1.36v-17.96Z"/>
          <path class="cls-42" d="M263,160.58h5.7v1.12h-5.7v-1.12ZM269.02,171.58l1.22.56c-.55.31-1.17.61-1.87.91s-1.42.58-2.16.83c-.74.25-1.44.47-2.11.66-.07-.09-.16-.2-.28-.33-.12-.13-.24-.25-.37-.38-.13-.13-.24-.23-.35-.31.69-.15,1.4-.32,2.13-.52.73-.2,1.42-.42,2.07-.67s1.23-.5,1.72-.75ZM263.44,157.46h4.76v1.08h-4.76v-1.08ZM265.64,163.32h12.98v8.06h-12.98v-8.06ZM266.96,164.24v1.46h10.32v-1.46h-10.32ZM266.96,166.6v1.46h10.32v-1.46h-10.32ZM266.96,168.96v1.5h10.32v-1.5h-10.32ZM274.1,158.24h1.26v.66c0,.39-.07.78-.2,1.18-.13.4-.41.79-.82,1.18s-1.04.74-1.87,1.06c-.83.32-1.96.6-3.37.84-.07-.16-.17-.34-.32-.55-.15-.21-.29-.37-.42-.49,1.32-.19,2.36-.41,3.13-.67.77-.26,1.34-.54,1.71-.83.37-.29.62-.59.73-.89.11-.3.17-.59.17-.87v-.62ZM271.66,156.18l1.2.28c-.27.81-.62,1.6-1.07,2.36-.45.76-.92,1.4-1.43,1.92-.08-.07-.18-.14-.3-.23-.12-.09-.25-.17-.38-.26s-.25-.15-.36-.19c.52-.49.98-1.08,1.39-1.75.41-.67.72-1.38.95-2.13ZM271.3,157.62h8.28v1.06h-8.28v-1.06ZM273.96,172.32l.92-.76c.72.21,1.45.45,2.19.7.74.25,1.43.5,2.08.75.65.25,1.21.48,1.69.69l-1.2.8c-.43-.23-.94-.46-1.55-.71-.61-.25-1.26-.5-1.97-.75-.71-.25-1.43-.49-2.16-.72ZM275.16,159.5c.33.43.8.81,1.4,1.16.6.35,1.3.63,2.09.84.79.21,1.65.37,2.57.46-.15.12-.29.29-.44.5-.15.21-.26.41-.34.58-.95-.15-1.83-.37-2.64-.67s-1.53-.67-2.14-1.12c-.61-.45-1.11-.96-1.48-1.53l.98-.22ZM279.14,157.62h.24l.22-.08.88.32c-.25.49-.52,1-.81,1.53-.29.53-.57.97-.85,1.33l-1.06-.36c.23-.35.47-.75.73-1.22.26-.47.48-.91.65-1.34v-.18Z"/>
          <path class="cls-42" d="M282.98,159.64h7.22v1.14h-7.22v-1.14ZM283.78,162.28h5.64v1.08h-5.64v-1.08ZM283.78,164.88h5.66v1.08h-5.66v-1.08ZM283.78,167.54h1.08v6.76h-1.08v-6.76ZM284.3,167.54h5.14v5.8h-5.14v-1.14h4.02v-3.52h-4.02v-1.14ZM285.14,156.7l.96-.54c.28.4.56.84.83,1.31.27.47.49.89.65,1.25l-1.02.64c-.13-.36-.34-.79-.62-1.3-.28-.51-.55-.96-.8-1.36ZM290.18,164.72h6.86v1.28h-6.86v-1.28ZM290.4,157.4h7.96v1.26h-7.96v-1.26ZM292.98,158.2h1.26v16.34h-1.26v-16.34ZM297.76,157.4h1.34c-.01,1.4-.03,2.74-.04,4.03-.01,1.29-.01,2.5,0,3.63.01,1.13.04,2.17.08,3.1.04.93.1,1.74.18,2.42s.19,1.21.33,1.6c.14.39.31.61.51.66.04,0,.08-.12.12-.36.04-.24.08-.57.12-.98.04-.41.07-.87.1-1.36.08.09.17.2.27.33.1.13.2.24.3.34.1.1.18.19.25.27-.07.93-.18,1.64-.33,2.13-.15.49-.34.8-.57.93-.23.13-.49.15-.78.04-.41-.12-.74-.49-.99-1.11-.25-.62-.43-1.44-.56-2.47-.13-1.03-.21-2.22-.26-3.58-.05-1.36-.07-2.85-.07-4.48v-5.14Z"/>
          <path class="cls-42" d="M303.1,169.44h17.86v1.16h-17.86v-1.16ZM303.54,163.4h17v3.56h-1.34v-2.52h-14.38v2.52h-1.28v-3.56ZM308.62,156.42l.62.84c-.57.23-1.23.41-1.97.56s-1.41.26-2.01.34l-.5-.78c.39-.07.82-.16,1.29-.27s.94-.23,1.4-.36.85-.24,1.17-.33ZM304.76,157.38l1.3.36.4,6.22h-1.26l-.44-6.58ZM305.5,159.12h3.62v.96h-3.62v-.96ZM305.6,161.24h3.62v.96h-3.62v-.96ZM306.78,165.9h9.58v1.04h-9.58v-1.04ZM311.54,168.52h1.3v4.56c0,.36-.05.63-.15.82-.1.19-.3.33-.61.44-.29.09-.7.14-1.22.15-.52,0-1.19,0-2,0-.03-.16-.09-.35-.18-.56-.09-.21-.19-.4-.28-.56.44.01.84.02,1.21.03.37,0,.69,0,.96,0s.46,0,.55,0c.16-.01.27-.04.33-.09s.09-.14.09-.27v-4.52ZM313.06,159.8l.98.3c-.48.63-1.08,1.23-1.8,1.81-.72.58-1.44,1.06-2.16,1.45-.08-.09-.2-.22-.36-.37-.16-.15-.29-.28-.4-.37.71-.33,1.4-.75,2.09-1.24.69-.49,1.24-1.02,1.65-1.58ZM313,156.42l.98.28c-.45.61-1.02,1.2-1.71,1.75-.69.55-1.37,1.02-2.05,1.39-.08-.09-.2-.21-.36-.36-.16-.15-.3-.25-.42-.32.68-.35,1.35-.76,2-1.23.65-.47,1.17-.98,1.56-1.51ZM309.74,160.66l.7-.6c.45.21.93.46,1.42.74.49.28.96.57,1.4.87.44.3.79.58,1.06.85l-.72.7c-.27-.28-.61-.57-1.04-.87-.43-.3-.88-.6-1.37-.9-.49-.3-.97-.56-1.45-.79ZM309.8,157.32l.68-.62c.45.19.92.41,1.39.68s.93.53,1.36.8c.43.27.78.53,1.05.78l-.7.68c-.27-.24-.61-.5-1.03-.79-.42-.29-.87-.56-1.35-.83-.48-.27-.95-.5-1.4-.7ZM316.04,165.9h.32l.28-.06.8.68c-.45.36-.97.71-1.56,1.04-.59.33-1.2.64-1.83.93s-1.25.54-1.85.75c-.07-.12-.17-.25-.31-.39-.14-.14-.26-.25-.35-.33.53-.19,1.08-.41,1.65-.68s1.1-.55,1.61-.84.92-.57,1.24-.84v-.26ZM314.78,161.24h3.58v.96h-3.58v-.96ZM314.8,157h3.86v.96h-3.86v-.96ZM314.9,159.12h3.62v.96h-3.62v-.96ZM318.12,157h1.28c-.04.76-.09,1.57-.14,2.42s-.11,1.68-.18,2.49-.13,1.5-.2,2.09h-1.3c.09-.6.17-1.31.24-2.12.07-.81.13-1.65.18-2.5.05-.85.09-1.65.12-2.38Z"/>
          <path class="cls-42" d="M327.88,168.98l1.34.48c-.39.52-.83,1.05-1.34,1.58s-1.03,1.03-1.57,1.49c-.54.46-1.07.87-1.59,1.23-.08-.08-.19-.18-.34-.29-.15-.11-.29-.22-.44-.33s-.27-.19-.38-.26c.8-.49,1.59-1.09,2.37-1.78.78-.69,1.43-1.4,1.95-2.12ZM336.28,156.26l.98,1.06c-.81.37-1.74.73-2.77,1.07-1.03.34-2.13.66-3.28.96-1.15.3-2.33.58-3.52.84-1.19.26-2.36.5-3.51.71-.03-.17-.08-.37-.17-.58-.09-.21-.16-.39-.23-.54,1.12-.21,2.27-.45,3.44-.72,1.17-.27,2.32-.55,3.43-.85s2.15-.61,3.12-.94c.97-.33,1.8-.66,2.51-1.01ZM324.56,168.66c-.01-.11-.04-.24-.09-.4-.05-.16-.1-.32-.16-.49-.06-.17-.11-.31-.15-.43.31-.03.69-.12,1.14-.29.45-.17.99-.39,1.6-.67.33-.15.83-.38,1.49-.71.66-.33,1.41-.72,2.26-1.19.85-.47,1.73-.98,2.64-1.55.91-.57,1.78-1.16,2.61-1.79l1.04.88c-1.87,1.31-3.76,2.46-5.69,3.45-1.93.99-3.82,1.85-5.69,2.57v.04c-.2.07-.37.13-.5.18-.13.05-.25.12-.35.19s-.15.14-.15.21ZM324.56,168.66l-.04-1.04.98-.5,13.14-.9c-.03.19-.04.4-.04.63v.55c-2.03.15-3.77.27-5.23.38s-2.69.2-3.68.27c-.99.07-1.8.14-2.42.2-.62.06-1.1.11-1.45.15-.35.04-.61.08-.8.12-.19.04-.34.09-.46.14ZM325.68,164.48c-.01-.09-.04-.22-.09-.38-.05-.16-.1-.32-.15-.49-.05-.17-.1-.31-.14-.43.21-.03.45-.09.72-.19.27-.1.56-.24.88-.41.23-.12.6-.34,1.13-.66.53-.32,1.11-.7,1.75-1.15.64-.45,1.25-.92,1.82-1.41l1.18.76c-.99.76-2.01,1.46-3.06,2.09-1.05.63-2.09,1.17-3.1,1.61v.04c-.19.08-.34.15-.47.21-.13.06-.24.13-.33.2-.09.07-.14.14-.14.21ZM325.68,164.48l-.02-.98.82-.42,7.5-.38c-.04.16-.07.35-.09.57-.02.22-.04.4-.05.53-1.37.08-2.52.15-3.45.21-.93.06-1.68.11-2.26.16s-1.03.09-1.35.12c-.32.03-.56.06-.71.09-.15.03-.28.06-.39.1ZM331.52,167.14h1.36v5.74c0,.39-.05.69-.16.9-.11.21-.31.37-.62.48s-.71.17-1.22.2-1.13.04-1.86.04c-.04-.2-.11-.43-.21-.68-.1-.25-.2-.47-.31-.66.41.01.8.03,1.16.04.36.01.67.02.93,0s.44-.02.53-.03c.17-.01.28-.04.33-.08.05-.04.07-.12.07-.24v-5.72ZM334.82,169.5l1.04-.7c.53.41,1.09.86,1.68,1.34.59.48,1.14.95,1.67,1.42.53.47.96.89,1.29,1.26l-1.12.78c-.32-.36-.74-.78-1.25-1.26-.51-.48-1.06-.97-1.63-1.47s-1.13-.96-1.68-1.37ZM335.36,164.24l1.1-.54c.51.45,1.02.95,1.55,1.48.53.53,1.02,1.05,1.47,1.56.45.51.82.96,1.1,1.36l-1.14.68c-.27-.4-.63-.87-1.08-1.4s-.94-1.07-1.47-1.62c-.53-.55-1.04-1.05-1.53-1.52Z"/>
        </g>
      </g>
    </g>
  </g>
  <g id="c136">
    <g id="tx__146qgjhpuxyj3-fill">
      <g class="cls-33">
        <g class="cls-33">
          <path class="cls-42" d="M263.66,133.04l1.12.2c-.11.87-.25,1.74-.44,2.61-.19.87-.39,1.62-.6,2.25-.11-.07-.27-.14-.5-.22s-.41-.14-.56-.18c.24-.63.44-1.36.59-2.19.15-.83.28-1.66.39-2.47ZM263.12,127.64c-.03-.09-.07-.22-.12-.38s-.11-.32-.16-.48-.1-.3-.14-.42c.16-.04.33-.16.52-.35.19-.19.38-.44.58-.75.12-.15.29-.39.51-.73.22-.34.46-.75.73-1.22.27-.47.54-.98.81-1.52s.52-1.08.73-1.63l1.24.54c-.53,1.13-1.13,2.25-1.8,3.34-.67,1.09-1.34,2.05-2.02,2.86v.02c-.17.11-.32.19-.44.26-.12.07-.22.14-.31.22-.09.08-.13.16-.13.24ZM263.26,132.12c-.03-.09-.07-.22-.12-.37-.05-.15-.11-.31-.16-.48-.05-.17-.11-.3-.16-.41.21-.04.44-.18.68-.43.24-.25.51-.56.8-.93.17-.19.42-.49.73-.91.31-.42.67-.92,1.07-1.51.4-.59.8-1.22,1.2-1.89.4-.67.77-1.35,1.1-2.03l1.18.68c-.52.92-1.08,1.83-1.68,2.74-.6.91-1.22,1.77-1.85,2.59s-1.28,1.56-1.93,2.23v.04c-.17.08-.32.16-.44.23-.12.07-.22.15-.3.23s-.12.15-.12.22ZM263.12,127.64l-.02-.96.64-.38,3.52-.32c-.03.16-.05.34-.06.54-.01.2-.02.37-.02.5-.81.09-1.47.17-1.97.23s-.89.11-1.16.16-.48.09-.61.12c-.13.03-.24.07-.32.11ZM263.26,132.12l-.06-.98.64-.44,5.28-.78c-.03.17-.04.36-.04.56s0,.37.02.5c-1.21.2-2.19.36-2.92.49-.73.13-1.29.23-1.68.3-.39.07-.67.14-.84.2-.17.06-.31.11-.4.15ZM265.8,133.18l1.04-.22c.12.68.23,1.41.34,2.2.11.79.17,1.47.2,2.04l-1.08.26c-.01-.59-.07-1.28-.16-2.07-.09-.79-.21-1.53-.34-2.21ZM267.6,128.04l1-.34c.21.43.41.88.6,1.36.19.48.35.95.5,1.4.15.45.26.85.34,1.2l-1.06.42c-.08-.35-.19-.75-.33-1.22-.14-.47-.3-.95-.48-1.44s-.37-.95-.57-1.38ZM268.02,132.76l.96-.3c.24.59.47,1.22.68,1.9.21.68.37,1.27.48,1.78l-1.02.34c-.09-.51-.25-1.11-.46-1.8-.21-.69-.43-1.33-.64-1.92ZM272.82,129.06h1.28c-.04,1.27-.12,2.4-.23,3.41-.11,1.01-.32,1.9-.62,2.67-.3.77-.73,1.45-1.29,2.02s-1.3,1.07-2.22,1.48c-.05-.12-.13-.24-.22-.37-.09-.13-.19-.25-.3-.37-.11-.12-.21-.21-.3-.28.84-.36,1.51-.79,2.02-1.29.51-.5.89-1.09,1.15-1.78.26-.69.44-1.48.54-2.39s.16-1.94.19-3.1ZM270.7,129.98c-.03-.09-.07-.22-.12-.38-.05-.16-.11-.33-.16-.51s-.11-.33-.18-.45c.19-.04.39-.2.62-.47s.48-.61.76-1.01c.15-.21.36-.55.64-1.01.28-.46.6-1.01.95-1.65.35-.64.7-1.33,1.05-2.06s.66-1.47.94-2.2l1.44.44c-.45,1.04-.95,2.07-1.5,3.1-.55,1.03-1.11,2-1.7,2.92-.59.92-1.17,1.75-1.74,2.48v.04c-.2.11-.37.2-.5.27-.13.07-.25.15-.35.24-.1.09-.15.17-.15.25ZM270.36,122.8h10.54v1.26h-10.54v-1.26ZM270.7,129.98l-.04-1.02.82-.48,8-.82c.01.17.03.37.06.59s.05.4.08.53c-1.51.17-2.77.32-3.79.44s-1.85.22-2.48.3c-.63.08-1.12.14-1.46.19-.34.05-.6.09-.77.14-.17.05-.31.09-.42.13ZM276.12,128.66h1.28v7.74c0,.25.03.42.1.49.07.07.21.11.42.11h1.5c.15,0,.26-.06.34-.18s.14-.37.17-.75.05-.95.05-1.71c.11.08.23.16.37.23.14.07.28.13.43.18.15.05.28.09.4.13-.04.88-.11,1.56-.21,2.04-.1.48-.26.81-.48,1-.22.19-.53.28-.93.28h-1.8c-.43,0-.76-.05-1-.16-.24-.11-.41-.29-.5-.55s-.14-.62-.14-1.09v-7.76ZM277.06,125.44l1.1-.48c.35.51.71,1.05,1.08,1.64.37.59.72,1.16,1.03,1.71.31.55.56,1.04.75,1.47l-1.2.58c-.17-.41-.41-.91-.72-1.48s-.64-1.16-.99-1.76c-.35-.6-.7-1.16-1.05-1.68Z"/>
          <path class="cls-42" d="M283.3,123.64h8.26v1.14h-8.26v-1.14ZM284.2,126.28h6.5v1.08h-6.5v-1.08ZM284.2,128.88h6.46v1.08h-6.46v-1.08ZM284.36,131.54h1.16v6.76h-1.16v-6.76ZM284.92,131.54h5.76v5.8h-5.76v-1.14h4.58v-3.52h-4.58v-1.14ZM285.7,120.7l1.06-.54c.29.4.58.84.87,1.31.29.47.51.89.67,1.25l-1.08.64c-.16-.36-.38-.79-.67-1.3-.29-.51-.57-.96-.85-1.36ZM291.52,127.2h9.56v1.34h-9.56v-1.34ZM295.52,120.6h1.36v17.96h-1.36v-17.96Z"/>
          <path class="cls-42" d="M303.1,133.44h17.86v1.16h-17.86v-1.16ZM303.54,127.4h17v3.56h-1.34v-2.52h-14.38v2.52h-1.28v-3.56ZM308.62,120.42l.62.84c-.57.23-1.23.41-1.97.56s-1.41.26-2.01.34l-.5-.78c.39-.07.82-.16,1.29-.27s.94-.23,1.4-.36.85-.24,1.17-.33ZM304.76,121.38l1.3.36.4,6.22h-1.26l-.44-6.58ZM305.5,123.12h3.62v.96h-3.62v-.96ZM305.6,125.24h3.62v.96h-3.62v-.96ZM306.78,129.9h9.58v1.04h-9.58v-1.04ZM311.54,132.52h1.3v4.56c0,.36-.05.63-.15.82-.1.19-.3.33-.61.44-.29.09-.7.14-1.22.15-.52,0-1.19,0-2,0-.03-.16-.09-.35-.18-.56-.09-.21-.19-.4-.28-.56.44.01.84.02,1.21.03.37,0,.69,0,.96,0s.46,0,.55,0c.16-.01.27-.04.33-.09s.09-.14.09-.27v-4.52ZM313.06,123.8l.98.3c-.48.63-1.08,1.23-1.8,1.81-.72.58-1.44,1.06-2.16,1.45-.08-.09-.2-.22-.36-.37-.16-.15-.29-.28-.4-.37.71-.33,1.4-.75,2.09-1.24.69-.49,1.24-1.02,1.65-1.58ZM313,120.42l.98.28c-.45.61-1.02,1.2-1.71,1.75-.69.55-1.37,1.02-2.05,1.39-.08-.09-.2-.21-.36-.36-.16-.15-.3-.25-.42-.32.68-.35,1.35-.76,2-1.23.65-.47,1.17-.98,1.56-1.51ZM309.74,124.66l.7-.6c.45.21.93.46,1.42.74.49.28.96.57,1.4.87.44.3.79.58,1.06.85l-.72.7c-.27-.28-.61-.57-1.04-.87-.43-.3-.88-.6-1.37-.9-.49-.3-.97-.56-1.45-.79ZM309.8,121.32l.68-.62c.45.19.92.41,1.39.68s.93.53,1.36.8c.43.27.78.53,1.05.78l-.7.68c-.27-.24-.61-.5-1.03-.79-.42-.29-.87-.56-1.35-.83-.48-.27-.95-.5-1.4-.7ZM316.04,129.9h.32l.28-.06.8.68c-.45.36-.97.71-1.56,1.04-.59.33-1.2.64-1.83.93s-1.25.54-1.85.75c-.07-.12-.17-.25-.31-.39-.14-.14-.26-.25-.35-.33.53-.19,1.08-.41,1.65-.68s1.1-.55,1.61-.84.92-.57,1.24-.84v-.26ZM314.78,125.24h3.58v.96h-3.58v-.96ZM314.8,121h3.86v.96h-3.86v-.96ZM314.9,123.12h3.62v.96h-3.62v-.96ZM318.12,121h1.28c-.04.76-.09,1.57-.14,2.42s-.11,1.68-.18,2.49-.13,1.5-.2,2.09h-1.3c.09-.6.17-1.31.24-2.12.07-.81.13-1.65.18-2.5.05-.85.09-1.65.12-2.38Z"/>
          <path class="cls-42" d="M327.88,132.98l1.34.48c-.39.52-.83,1.05-1.34,1.58s-1.03,1.03-1.57,1.49c-.54.46-1.07.87-1.59,1.23-.08-.08-.19-.18-.34-.29-.15-.11-.29-.22-.44-.33s-.27-.19-.38-.26c.8-.49,1.59-1.09,2.37-1.78.78-.69,1.43-1.4,1.95-2.12ZM336.28,120.26l.98,1.06c-.81.37-1.74.73-2.77,1.07-1.03.34-2.13.66-3.28.96-1.15.3-2.33.58-3.52.84-1.19.26-2.36.5-3.51.71-.03-.17-.08-.37-.17-.58-.09-.21-.16-.39-.23-.54,1.12-.21,2.27-.45,3.44-.72,1.17-.27,2.32-.55,3.43-.85s2.15-.61,3.12-.94c.97-.33,1.8-.66,2.51-1.01ZM324.56,132.66c-.01-.11-.04-.24-.09-.4-.05-.16-.1-.32-.16-.49-.06-.17-.11-.31-.15-.43.31-.03.69-.12,1.14-.29.45-.17.99-.39,1.6-.67.33-.15.83-.38,1.49-.71.66-.33,1.41-.72,2.26-1.19.85-.47,1.73-.98,2.64-1.55.91-.57,1.78-1.16,2.61-1.79l1.04.88c-1.87,1.31-3.76,2.46-5.69,3.45-1.93.99-3.82,1.85-5.69,2.57v.04c-.2.07-.37.13-.5.18-.13.05-.25.12-.35.19s-.15.14-.15.21ZM324.56,132.66l-.04-1.04.98-.5,13.14-.9c-.03.19-.04.4-.04.63v.55c-2.03.15-3.77.27-5.23.38s-2.69.2-3.68.27c-.99.07-1.8.14-2.42.2-.62.06-1.1.11-1.45.15-.35.04-.61.08-.8.12-.19.04-.34.09-.46.14ZM325.68,128.48c-.01-.09-.04-.22-.09-.38-.05-.16-.1-.32-.15-.49-.05-.17-.1-.31-.14-.43.21-.03.45-.09.72-.19.27-.1.56-.24.88-.41.23-.12.6-.34,1.13-.66.53-.32,1.11-.7,1.75-1.15.64-.45,1.25-.92,1.82-1.41l1.18.76c-.99.76-2.01,1.46-3.06,2.09-1.05.63-2.09,1.17-3.1,1.61v.04c-.19.08-.34.15-.47.21-.13.06-.24.13-.33.2-.09.07-.14.14-.14.21ZM325.68,128.48l-.02-.98.82-.42,7.5-.38c-.04.16-.07.35-.09.57-.02.22-.04.4-.05.53-1.37.08-2.52.15-3.45.21-.93.06-1.68.11-2.26.16s-1.03.09-1.35.12c-.32.03-.56.06-.71.09-.15.03-.28.06-.39.1ZM331.52,131.14h1.36v5.74c0,.39-.05.69-.16.9-.11.21-.31.37-.62.48s-.71.17-1.22.2-1.13.04-1.86.04c-.04-.2-.11-.43-.21-.68-.1-.25-.2-.47-.31-.66.41.01.8.03,1.16.04.36.01.67.02.93,0s.44-.02.53-.03c.17-.01.28-.04.33-.08.05-.04.07-.12.07-.24v-5.72ZM334.82,133.5l1.04-.7c.53.41,1.09.86,1.68,1.34.59.48,1.14.95,1.67,1.42.53.47.96.89,1.29,1.26l-1.12.78c-.32-.36-.74-.78-1.25-1.26-.51-.48-1.06-.97-1.63-1.47s-1.13-.96-1.68-1.37ZM335.36,128.24l1.1-.54c.51.45,1.02.95,1.55,1.48.53.53,1.02,1.05,1.47,1.56.45.51.82.96,1.1,1.36l-1.14.68c-.27-.4-.63-.87-1.08-1.4s-.94-1.07-1.47-1.62c-.53-.55-1.04-1.05-1.53-1.52Z"/>
        </g>
      </g>
    </g>
  </g>
  <g id="c135">
    <g id="tx__1d2dgsdpuxxqe-fill">
      <g class="cls-33">
        <g class="cls-33">
          <path class="cls-42" d="M752.04,149.6h1.1v.64c0,.41-.04.85-.13,1.3-.09.45-.27.91-.55,1.37s-.7.91-1.27,1.35c-.57.44-1.32.85-2.26,1.24-.94.39-2.12.73-3.53,1.04-.05-.13-.14-.29-.26-.47-.12-.18-.23-.32-.34-.43,1.33-.28,2.44-.59,3.33-.93s1.59-.7,2.11-1.09.91-.78,1.17-1.18c.26-.4.43-.79.51-1.16s.12-.73.12-1.06v-.62ZM744.9,150.44h10.34v1.02h-10.34v-1.02ZM744.92,141.62h1.84v.06h6.7v-.06h1.94v1.06h-1.94v-.06h-6.7v.06h-1.84v-1.06ZM745.8,145.88h8.88v3.22h-8.88v-3.22ZM746.28,139.54h7.96v5.42h-7.96v-5.42ZM746.32,153.26c.32-.4.65-.87.98-1.4s.65-1.08.96-1.65c.31-.57.56-1.1.76-1.61l1.14.26c-.23.53-.49,1.08-.8,1.64s-.62,1.1-.94,1.62c-.32.52-.62.97-.9,1.34l-1.2-.2ZM746.32,153.26l.9-.74c.76.2,1.56.46,2.4.77.84.31,1.64.64,2.39.97.75.33,1.39.65,1.91.96l-.88.82c-.51-.31-1.14-.64-1.89-.99-.75-.35-1.55-.69-2.39-1-.84-.31-1.65-.58-2.44-.79ZM746.96,146.78v1.42h6.52v-1.42h-6.52ZM747.36,140.52v3.48h5.76v-3.48h-5.76ZM749.62,138.22h1.08v10.48h-1.08v-10.48ZM760.44,142.96l1.22.1c-.27,2.28-.68,4.28-1.23,5.99-.55,1.71-1.33,3.19-2.33,4.42-1,1.23-2.31,2.27-3.92,3.11-.04-.09-.1-.2-.19-.33-.09-.13-.18-.25-.27-.38-.09-.13-.18-.23-.26-.31,1.55-.73,2.79-1.68,3.73-2.83.94-1.15,1.66-2.54,2.17-4.15.51-1.61.87-3.49,1.08-5.62ZM757.6,138.24l1.16.22c-.23,1.2-.5,2.38-.83,3.53s-.69,2.24-1.08,3.26c-.39,1.02-.83,1.93-1.31,2.73-.07-.08-.16-.17-.28-.28-.12-.11-.24-.21-.36-.31-.12-.1-.23-.18-.34-.23.48-.73.91-1.58,1.29-2.54.38-.96.72-1.99,1.01-3.08.29-1.09.54-2.19.74-3.3ZM757.38,143.52c.25,1.8.62,3.49,1.1,5.06.48,1.57,1.12,2.95,1.92,4.13.8,1.18,1.78,2.08,2.94,2.71-.11.08-.22.18-.33.3s-.22.25-.32.38c-.1.13-.18.26-.25.38-1.19-.73-2.18-1.73-2.98-2.99s-1.44-2.72-1.93-4.39c-.49-1.67-.87-3.47-1.15-5.42l1-.16ZM756.88,142.24h6.3v1.2h-6.3v-1.2Z"/>
          <path class="cls-42" d="M765.1,151.44h17.86v1.16h-17.86v-1.16ZM765.54,145.4h17v3.56h-1.34v-2.52h-14.38v2.52h-1.28v-3.56ZM770.62,138.42l.62.84c-.57.23-1.23.41-1.97.56s-1.41.26-2.01.34l-.5-.78c.39-.07.82-.16,1.29-.27s.94-.23,1.4-.36.85-.24,1.17-.33ZM766.76,139.38l1.3.36.4,6.22h-1.26l-.44-6.58ZM767.5,141.12h3.62v.96h-3.62v-.96ZM767.6,143.24h3.62v.96h-3.62v-.96ZM768.78,147.9h9.58v1.04h-9.58v-1.04ZM773.54,150.52h1.3v4.56c0,.36-.05.63-.15.82-.1.19-.3.33-.61.44-.29.09-.7.14-1.22.15-.52,0-1.19,0-2,0-.03-.16-.09-.35-.18-.56-.09-.21-.19-.4-.28-.56.44.01.84.02,1.21.03.37,0,.69,0,.96,0s.46,0,.55,0c.16-.01.27-.04.33-.09s.09-.14.09-.27v-4.52ZM775.06,141.8l.98.3c-.48.63-1.08,1.23-1.8,1.81-.72.58-1.44,1.06-2.16,1.45-.08-.09-.2-.22-.36-.37-.16-.15-.29-.28-.4-.37.71-.33,1.4-.75,2.09-1.24.69-.49,1.24-1.02,1.65-1.58ZM775,138.42l.98.28c-.45.61-1.02,1.2-1.71,1.75-.69.55-1.37,1.02-2.05,1.39-.08-.09-.2-.21-.36-.36-.16-.15-.3-.25-.42-.32.68-.35,1.35-.76,2-1.23.65-.47,1.17-.98,1.56-1.51ZM771.74,142.66l.7-.6c.45.21.93.46,1.42.74.49.28.96.57,1.4.87.44.3.79.58,1.06.85l-.72.7c-.27-.28-.61-.57-1.04-.87-.43-.3-.88-.6-1.37-.9-.49-.3-.97-.56-1.45-.79ZM771.8,139.32l.68-.62c.45.19.92.41,1.39.68s.93.53,1.36.8c.43.27.78.53,1.05.78l-.7.68c-.27-.24-.61-.5-1.03-.79-.42-.29-.87-.56-1.35-.83-.48-.27-.95-.5-1.4-.7ZM778.04,147.9h.32l.28-.06.8.68c-.45.36-.97.71-1.56,1.04-.59.33-1.2.64-1.83.93s-1.25.54-1.85.75c-.07-.12-.17-.25-.31-.39-.14-.14-.26-.25-.35-.33.53-.19,1.08-.41,1.65-.68s1.1-.55,1.61-.84.92-.57,1.24-.84v-.26ZM776.78,143.24h3.58v.96h-3.58v-.96ZM776.8,139h3.86v.96h-3.86v-.96ZM776.9,141.12h3.62v.96h-3.62v-.96ZM780.12,139h1.28c-.04.76-.09,1.57-.14,2.42s-.11,1.68-.18,2.49-.13,1.5-.2,2.09h-1.3c.09-.6.17-1.31.24-2.12.07-.81.13-1.65.18-2.5.05-.85.09-1.65.12-2.38Z"/>
          <path class="cls-42" d="M785.1,151.44h17.86v1.16h-17.86v-1.16ZM785.54,145.4h17v3.56h-1.34v-2.52h-14.38v2.52h-1.28v-3.56ZM790.62,138.42l.62.84c-.57.23-1.23.41-1.97.56s-1.41.26-2.01.34l-.5-.78c.39-.07.82-.16,1.29-.27s.94-.23,1.4-.36.85-.24,1.17-.33ZM786.76,139.38l1.3.36.4,6.22h-1.26l-.44-6.58ZM787.5,141.12h3.62v.96h-3.62v-.96ZM787.6,143.24h3.62v.96h-3.62v-.96ZM788.78,147.9h9.58v1.04h-9.58v-1.04ZM793.54,150.52h1.3v4.56c0,.36-.05.63-.15.82-.1.19-.3.33-.61.44-.29.09-.7.14-1.22.15-.52,0-1.19,0-2,0-.03-.16-.09-.35-.18-.56-.09-.21-.19-.4-.28-.56.44.01.84.02,1.21.03.37,0,.69,0,.96,0s.46,0,.55,0c.16-.01.27-.04.33-.09s.09-.14.09-.27v-4.52ZM795.06,141.8l.98.3c-.48.63-1.08,1.23-1.8,1.81-.72.58-1.44,1.06-2.16,1.45-.08-.09-.2-.22-.36-.37-.16-.15-.29-.28-.4-.37.71-.33,1.4-.75,2.09-1.24.69-.49,1.24-1.02,1.65-1.58ZM795,138.42l.98.28c-.45.61-1.02,1.2-1.71,1.75-.69.55-1.37,1.02-2.05,1.39-.08-.09-.2-.21-.36-.36-.16-.15-.3-.25-.42-.32.68-.35,1.35-.76,2-1.23.65-.47,1.17-.98,1.56-1.51ZM791.74,142.66l.7-.6c.45.21.93.46,1.42.74.49.28.96.57,1.4.87.44.3.79.58,1.06.85l-.72.7c-.27-.28-.61-.57-1.04-.87-.43-.3-.88-.6-1.37-.9-.49-.3-.97-.56-1.45-.79ZM791.8,139.32l.68-.62c.45.19.92.41,1.39.68s.93.53,1.36.8c.43.27.78.53,1.05.78l-.7.68c-.27-.24-.61-.5-1.03-.79-.42-.29-.87-.56-1.35-.83-.48-.27-.95-.5-1.4-.7ZM798.04,147.9h.32l.28-.06.8.68c-.45.36-.97.71-1.56,1.04-.59.33-1.2.64-1.83.93s-1.25.54-1.85.75c-.07-.12-.17-.25-.31-.39-.14-.14-.26-.25-.35-.33.53-.19,1.08-.41,1.65-.68s1.1-.55,1.61-.84.92-.57,1.24-.84v-.26ZM796.78,143.24h3.58v.96h-3.58v-.96ZM796.8,139h3.86v.96h-3.86v-.96ZM796.9,141.12h3.62v.96h-3.62v-.96ZM800.12,139h1.28c-.04.76-.09,1.57-.14,2.42s-.11,1.68-.18,2.49-.13,1.5-.2,2.09h-1.3c.09-.6.17-1.31.24-2.12.07-.81.13-1.65.18-2.5.05-.85.09-1.65.12-2.38Z"/>
          <path class="cls-42" d="M809.88,150.98l1.34.48c-.39.52-.83,1.05-1.34,1.58s-1.03,1.03-1.57,1.49c-.54.46-1.07.87-1.59,1.23-.08-.08-.19-.18-.34-.29-.15-.11-.29-.22-.44-.33s-.27-.19-.38-.26c.8-.49,1.59-1.09,2.37-1.78.78-.69,1.43-1.4,1.95-2.12ZM818.28,138.26l.98,1.06c-.81.37-1.74.73-2.77,1.07-1.03.34-2.13.66-3.28.96-1.15.3-2.33.58-3.52.84-1.19.26-2.36.5-3.51.71-.03-.17-.08-.37-.17-.58-.09-.21-.16-.39-.23-.54,1.12-.21,2.27-.45,3.44-.72,1.17-.27,2.32-.55,3.43-.85s2.15-.61,3.12-.94c.97-.33,1.8-.66,2.51-1.01ZM806.56,150.66c-.01-.11-.04-.24-.09-.4-.05-.16-.1-.32-.16-.49-.06-.17-.11-.31-.15-.43.31-.03.69-.12,1.14-.29.45-.17.99-.39,1.6-.67.33-.15.83-.38,1.49-.71.66-.33,1.41-.72,2.26-1.19.85-.47,1.73-.98,2.64-1.55.91-.57,1.78-1.16,2.61-1.79l1.04.88c-1.87,1.31-3.76,2.46-5.69,3.45-1.93.99-3.82,1.85-5.69,2.57v.04c-.2.07-.37.13-.5.18-.13.05-.25.12-.35.19s-.15.14-.15.21ZM806.56,150.66l-.04-1.04.98-.5,13.14-.9c-.03.19-.04.4-.04.63v.55c-2.03.15-3.77.27-5.23.38s-2.69.2-3.68.27c-.99.07-1.8.14-2.42.2-.62.06-1.1.11-1.45.15-.35.04-.61.08-.8.12-.19.04-.34.09-.46.14ZM807.68,146.48c-.01-.09-.04-.22-.09-.38-.05-.16-.1-.32-.15-.49-.05-.17-.1-.31-.14-.43.21-.03.45-.09.72-.19.27-.1.56-.24.88-.41.23-.12.6-.34,1.13-.66.53-.32,1.11-.7,1.75-1.15.64-.45,1.25-.92,1.82-1.41l1.18.76c-.99.76-2.01,1.46-3.06,2.09-1.05.63-2.09,1.17-3.1,1.61v.04c-.19.08-.34.15-.47.21-.13.06-.24.13-.33.2-.09.07-.14.14-.14.21ZM807.68,146.48l-.02-.98.82-.42,7.5-.38c-.04.16-.07.35-.09.57-.02.22-.04.4-.05.53-1.37.08-2.52.15-3.45.21-.93.06-1.68.11-2.26.16s-1.03.09-1.35.12c-.32.03-.56.06-.71.09-.15.03-.28.06-.39.1ZM813.52,149.14h1.36v5.74c0,.39-.05.69-.16.9-.11.21-.31.37-.62.48s-.71.17-1.22.2-1.13.04-1.86.04c-.04-.2-.11-.43-.21-.68-.1-.25-.2-.47-.31-.66.41.01.8.03,1.16.04.36.01.67.02.93,0s.44-.02.53-.03c.17-.01.28-.04.33-.08.05-.04.07-.12.07-.24v-5.72ZM816.82,151.5l1.04-.7c.53.41,1.09.86,1.68,1.34.59.48,1.14.95,1.67,1.42.53.47.96.89,1.29,1.26l-1.12.78c-.32-.36-.74-.78-1.25-1.26-.51-.48-1.06-.97-1.63-1.47s-1.13-.96-1.68-1.37ZM817.36,146.24l1.1-.54c.51.45,1.02.95,1.55,1.48.53.53,1.02,1.05,1.47,1.56.45.51.82.96,1.1,1.36l-1.14.68c-.27-.4-.63-.87-1.08-1.4s-.94-1.07-1.47-1.62c-.53-.55-1.04-1.05-1.53-1.52Z"/>
        </g>
      </g>
    </g>
  </g>
  <g id="b53">
    <g id="g-root-ro_18hk5z1pvbzsy-fill">
      <g id="ro_18hk5z1pvbzsy-fill">
        <path class="cls-14" d="M259.58,51h125.83s12.58,0,12.58,12v30s0,12-12.58,12h-125.83s-12.58,0-12.58-12v-30s0-12,12.58-12"/>
      </g>
    </g>
    <g id="g-root-tx__1q8u6gtpvbxfs-fill">
      <g id="tx__1q8u6gtpvbxfs-fill">
        <g class="cls-33">
          <g class="cls-33">
            <path class="cls-22" d="M263.42,82.14l1.5.24c-.09.88-.22,1.76-.39,2.65-.17.89-.35,1.64-.55,2.25-.17-.09-.41-.19-.71-.3-.3-.11-.54-.19-.73-.24.24-.6.43-1.31.56-2.14.13-.83.24-1.65.32-2.46ZM263.14,76.8c-.03-.13-.08-.3-.15-.51-.07-.21-.15-.42-.22-.64-.07-.22-.14-.4-.21-.55.17-.05.35-.18.53-.37s.37-.44.57-.73c.12-.15.28-.39.48-.72.2-.33.42-.73.67-1.19.25-.46.49-.96.74-1.49.25-.53.47-1.07.67-1.6l1.7.72c-.49,1.11-1.06,2.2-1.71,3.28-.65,1.08-1.3,2.03-1.97,2.84v.04c-.23.12-.41.23-.55.32-.14.09-.27.19-.38.3s-.17.21-.17.3ZM263.28,81.38c-.03-.12-.07-.29-.14-.5-.07-.21-.14-.43-.22-.66-.08-.23-.16-.42-.24-.58.24-.05.48-.2.72-.43s.51-.54.82-.91c.16-.19.4-.49.72-.92.32-.43.67-.93,1.06-1.52s.78-1.22,1.17-1.91c.39-.69.75-1.37,1.07-2.05l1.58.96c-.49.92-1.04,1.83-1.63,2.74-.59.91-1.21,1.77-1.86,2.59-.65.82-1.3,1.56-1.95,2.23v.04c-.21.12-.4.23-.55.32-.15.09-.28.19-.39.3-.11.11-.16.21-.16.3ZM263.14,76.8l-.04-1.26.76-.5,3.5-.26c-.05.21-.09.46-.12.73-.03.27-.04.5-.04.67-.79.08-1.43.15-1.93.21-.5.06-.89.11-1.17.16-.28.05-.49.09-.63.13-.14.04-.25.08-.33.12ZM263.28,81.38l-.08-1.34.76-.54,5.16-.78c-.03.21-.04.46-.05.74,0,.28,0,.51,0,.68-1.17.21-2.12.38-2.84.51-.72.13-1.28.23-1.67.32-.39.09-.68.16-.86.22-.18.06-.32.12-.43.19ZM265.62,82.32l1.38-.32c.12.67.23,1.39.34,2.17s.17,1.46.2,2.03l-1.46.36c-.01-.57-.06-1.25-.15-2.04-.09-.79-.19-1.52-.31-2.2ZM267.46,77.14l1.32-.5c.2.43.4.89.59,1.38.19.49.36.97.51,1.42.15.45.25.85.3,1.2l-1.4.58c-.05-.36-.15-.77-.28-1.24s-.29-.95-.47-1.45c-.18-.5-.37-.96-.57-1.39ZM267.84,81.9l1.28-.44c.21.55.42,1.14.63,1.79s.36,1.2.45,1.67l-1.36.5c-.08-.48-.22-1.05-.42-1.71-.2-.66-.39-1.26-.58-1.81ZM272.46,78.2h1.8c-.04,1.2-.12,2.29-.23,3.27-.11.98-.31,1.86-.59,2.65-.28.79-.69,1.48-1.22,2.09-.53.61-1.25,1.12-2.14,1.55-.07-.16-.16-.33-.29-.51-.13-.18-.27-.36-.42-.53-.15-.17-.3-.32-.45-.44.77-.36,1.39-.79,1.85-1.28.46-.49.81-1.07,1.04-1.72.23-.65.39-1.4.48-2.24s.14-1.79.17-2.84ZM270.72,79.2c-.03-.13-.08-.31-.15-.53-.07-.22-.15-.45-.24-.7-.09-.25-.17-.45-.25-.61.23-.07.45-.23.67-.48.22-.25.46-.58.73-.98.15-.2.35-.53.62-.99.27-.46.56-1,.89-1.63.33-.63.65-1.3.97-2.02.32-.72.61-1.45.86-2.18l2.06.56c-.44,1.05-.93,2.09-1.47,3.11s-1.1,1.99-1.67,2.9c-.57.91-1.14,1.74-1.7,2.47v.04c-.27.15-.49.27-.66.38s-.33.22-.46.34-.2.23-.2.32ZM270.26,71.56h10.72v1.76h-10.72v-1.76ZM270.72,79.2l-.04-1.44,1-.62,7.68-.74c.01.25.04.53.07.84s.07.56.11.76c-1.45.16-2.67.3-3.66.41s-1.79.21-2.41.29c-.62.08-1.11.15-1.46.2-.35.05-.63.1-.82.15-.19.05-.35.1-.47.15ZM275.8,77.76h1.78v7.24c0,.28.03.46.08.54.05.08.18.12.38.12h1.14c.13,0,.23-.07.3-.2.07-.13.12-.39.15-.77.03-.38.06-.96.07-1.73.13.09.3.19.49.29s.39.19.59.26c.2.07.38.13.54.17-.04.96-.13,1.7-.27,2.23s-.34.9-.6,1.11c-.26.21-.62.32-1.07.32h-1.62c-.52,0-.92-.07-1.21-.21s-.48-.38-.59-.72-.16-.81-.16-1.41v-7.24ZM276.82,74.6l1.54-.68c.35.52.7,1.07,1.07,1.66s.7,1.16,1,1.73c.3.57.54,1.07.71,1.51l-1.66.8c-.16-.44-.38-.95-.67-1.52-.29-.57-.6-1.17-.95-1.78-.35-.61-.69-1.19-1.04-1.72Z"/>
            <path class="cls-22" d="M283.22,72.48h8.36v1.52h-8.36v-1.52ZM284.1,75.18h6.62v1.48h-6.62v-1.48ZM284.1,77.86h6.58v1.46h-6.58v-1.46ZM284.22,80.56h1.62v6.86h-1.62v-6.86ZM285.04,80.56h5.7v5.96h-5.7v-1.56h4.04v-2.86h-4.04v-1.54ZM285.52,69.76l1.46-.74c.29.41.58.86.86,1.35.28.49.5.92.66,1.29l-1.52.84c-.15-.36-.36-.8-.64-1.33-.28-.53-.55-1-.82-1.41ZM291.52,75.94h9.66v1.86h-9.66v-1.86ZM295.26,69.48h1.96v18.2h-1.96v-18.2Z"/>
            <path class="cls-22" d="M303,82.32h18v1.54h-18v-1.54ZM303.4,76.3h17.28v3.86h-1.88v-2.46h-13.6v2.46h-1.8v-3.86ZM308.54,69.26l.8,1.12c-.6.24-1.28.44-2.05.6-.77.16-1.45.29-2.05.38l-.66-1.06c.39-.08.82-.18,1.31-.29.49-.11.96-.24,1.43-.38s.87-.26,1.22-.37ZM304.58,70.3l1.8.46.38,6.2h-1.78l-.4-6.66ZM305.52,71.98h3.7v1.24h-3.7v-1.24ZM305.6,74.14h3.68v1.22h-3.68v-1.22ZM306.8,78.84h9.16v1.38h-9.16v-1.38ZM311.28,81.58h1.86v4.22c0,.45-.06.8-.19,1.04-.13.24-.37.43-.73.56-.36.12-.81.19-1.35.21-.54.02-1.2.03-1.99.03-.04-.24-.12-.51-.24-.8-.12-.29-.25-.56-.38-.8.39.01.76.02,1.11.03.35,0,.67,0,.94,0h.55c.16,0,.27-.02.33-.07.06-.05.09-.14.09-.27v-4.16ZM312.92,72.64l1.26.4c-.48.65-1.08,1.27-1.8,1.85s-1.45,1.06-2.18,1.45c-.09-.13-.25-.3-.46-.5-.21-.2-.39-.36-.52-.48.71-.32,1.4-.72,2.07-1.19.67-.47,1.22-.98,1.63-1.53ZM312.88,69.28l1.26.36c-.44.61-1.01,1.19-1.7,1.74s-1.37,1-2.04,1.36c-.11-.12-.27-.27-.48-.45s-.4-.32-.56-.43c.69-.32,1.36-.7,1.99-1.15.63-.45,1.14-.92,1.53-1.43ZM309.68,73.64l.9-.78c.45.21.92.46,1.4.74.48.28.94.57,1.37.86.43.29.79.57,1.07.84l-.98.88c-.25-.27-.59-.55-1.01-.85s-.87-.6-1.35-.9c-.48-.3-.95-.56-1.4-.79ZM309.76,70.26l.9-.78c.43.19.87.41,1.33.67.46.26.9.53,1.31.8s.75.52,1.02.75l-.94.88c-.25-.24-.58-.5-.98-.78-.4-.28-.83-.56-1.29-.83-.46-.27-.91-.51-1.35-.71ZM315.48,78.84h.46l.4-.1,1.08.98c-.48.36-1.01.71-1.6,1.06-.59.35-1.19.67-1.81.98-.62.31-1.24.58-1.85.82-.11-.16-.25-.34-.43-.53-.18-.19-.33-.35-.45-.47.51-.19,1.03-.42,1.56-.7s1.03-.57,1.5-.87.85-.58,1.14-.83v-.34ZM314.74,69.82h3.78v1.24h-3.78v-1.24ZM314.76,74.14h3.46v1.22h-3.46v-1.22ZM314.86,71.98h3.5v1.24h-3.5v-1.24ZM317.78,69.82h1.8c-.04.79-.09,1.62-.14,2.5-.05.88-.11,1.73-.18,2.56-.07.83-.13,1.54-.2,2.14h-1.82c.08-.63.16-1.35.23-2.18.07-.83.14-1.68.19-2.56.05-.88.09-1.7.12-2.46Z"/>
            <path class="cls-22" d="M325,75.52l1.16.4c-.25.67-.61,1.33-1.07,1.99s-.94,1.18-1.45,1.57c-.13-.2-.31-.42-.52-.66-.21-.24-.41-.43-.6-.56.32-.19.64-.43.95-.73.31-.3.6-.63.87-.98.27-.35.49-.7.66-1.03ZM326.38,79.08h1.64v2.06c0,.55-.05,1.11-.15,1.69s-.3,1.15-.6,1.71c-.3.56-.75,1.1-1.34,1.61-.59.51-1.38.98-2.37,1.41-.07-.13-.15-.29-.26-.46-.11-.17-.23-.34-.36-.51-.13-.17-.25-.3-.36-.41.87-.35,1.55-.73,2.05-1.14s.88-.84,1.13-1.29c.25-.45.42-.9.5-1.35s.12-.89.12-1.3v-2.02ZM322.92,73.46h8.66v1.54h-8.66v-1.54ZM322.92,80.82h8.8v1.58h-8.8v-1.58ZM323.28,70.32l1.32-.48c.24.36.47.76.7,1.21.23.45.37.84.44,1.17l-1.38.56c-.07-.35-.2-.75-.4-1.2s-.43-.87-.68-1.26ZM326.5,69.22h1.66v9.44h-1.66v-9.44ZM326.54,84.1l1-1.16c.41.24.86.52,1.33.83.47.31.93.62,1.37.92.44.3.8.56,1.08.79l-1.04,1.32c-.27-.24-.62-.52-1.05-.84-.43-.32-.88-.64-1.35-.97-.47-.33-.91-.62-1.34-.89ZM329.24,75.58c.12.08.31.21.56.4.25.19.52.39.8.6.28.21.54.42.77.61s.4.34.51.43l-1.04,1.22c-.13-.16-.31-.36-.53-.59-.22-.23-.46-.48-.71-.73s-.5-.49-.73-.71c-.23-.22-.43-.39-.59-.51l.96-.72ZM328.74,79.46l1.06-.68c.25.23.52.49.79.79.27.3.48.56.63.79l-1.1.76c-.13-.24-.33-.52-.59-.83-.26-.31-.52-.59-.79-.83ZM329.82,69.88l1.56.44c-.24.47-.48.93-.71,1.38s-.46.84-.67,1.16l-1.24-.42c.19-.36.38-.78.58-1.27.2-.49.36-.92.48-1.29ZM334.48,84.06l1.6.96c-.31.35-.67.69-1.09,1.03s-.86.66-1.32.95-.92.55-1.37.76c-.15-.17-.34-.38-.57-.62-.23-.24-.45-.44-.65-.6.43-.2.86-.44,1.29-.71.43-.27.84-.57,1.21-.88s.67-.61.9-.89ZM331.78,70h9.4v1.62h-9.4v-1.62ZM332.48,73.28h8v10.5h-8v-10.5ZM334.2,74.72v1.62h4.48v-1.62h-4.48ZM334.2,77.7v1.62h4.48v-1.62h-4.48ZM334.2,80.68v1.66h4.48v-1.66h-4.48ZM335.38,70.86l2.06.26c-.2.59-.4,1.17-.61,1.75s-.4,1.08-.57,1.49l-1.6-.3c.09-.31.19-.65.28-1.02.09-.37.18-.75.26-1.14.08-.39.14-.73.18-1.04ZM336.8,85.04l1.36-.94c.39.24.79.51,1.22.82s.83.61,1.22.92.71.59.96.84l-1.46,1.02c-.23-.24-.53-.52-.9-.83-.37-.31-.77-.63-1.19-.96-.42-.33-.82-.62-1.21-.87Z"/>
          </g>
        </g>
      </g>
    </g>
    <g id="_圖層_1">
      <g id="_圖層_1-2">
        <g id="_圖層_2">
          <g>
            <rect class="cls-23" x="355.08" y="66.94" width="30.96" height="22.76" transform="translate(291.59 448.74) rotate(-89.9)"/>
            <rect class="cls-25" x="354.31" y="65.95" width="30.96" height="22.76" transform="translate(291.82 446.98) rotate(-89.9)"/>
            <path class="cls-39" d="M360.91,70.18s-.04,0-.05-.02c-.03-.03-.03-.07,0-.1l.66-.66s.07-.03.1,0l.66.66s.03.07,0,.1-.07.03-.1,0l-.61-.6-.6.6s-.03.02-.05.02h0Z"/>
            <path class="cls-39" d="M378.02,85.27s-.04,0-.05-.02c-.03-.03-.03-.07,0-.1l.6-.6-.6-.61s-.03-.07,0-.1.07-.03.1,0l.66.66s.03.07,0,.1l-.66.66s-.03.02-.05.02h0Z"/>
            <path class="cls-39" d="M369.9,72.22s-.02,0-.03,0c-.03-.02-.05-.06-.03-.1l1.13-2.06s.06-.05.1-.03.05.06.03.1l-1.13,2.06s-.04.04-.06.04h0Z"/>
            <path class="cls-39" d="M371.25,72.22c-.25,0-.44-.19-.44-.44v-.25c0-.25.19-.44.44-.44s.44.19.44.44v.25c0,.25-.19.44-.44.44ZM371.25,71.23c-.17,0-.3.13-.3.3v.25c0,.17.13.3.3.3s.3-.13.3-.3v-.25c0-.17-.13-.3-.3-.3Z"/>
            <path class="cls-39" d="M369.71,71.14c-.25,0-.44-.19-.44-.44v-.25c0-.25.19-.44.44-.44s.44.19.44.44v.25c0,.25-.19.44-.44.44ZM369.71,70.16c-.17,0-.3.13-.3.3v.25c0,.17.13.3.3.3s.3-.13.3-.3v-.25c0-.17-.13-.3-.3-.3Z"/>
            <rect class="cls-21" x="361.57" y="76.1" width="3.56" height="8.45"/>
            <rect class="cls-29" x="365.13" y="79.51" width="3.56" height="5.04"/>
            <rect class="cls-21" x="368.7" y="73.81" width="3.56" height="10.73"/>
            <rect class="cls-29" x="372.26" y="77.47" width="3.56" height="7.07"/>
            <g>
              <polygon class="cls-35" points="371.47 84.59 371.47 83.33 370.23 84.59 371.47 84.59"/>
              <polygon class="cls-35" points="369.47 82.69 371.47 80.69 371.48 78.06 369.48 80.06 369.47 82.69"/>
              <polygon class="cls-22" points="369.48 84.59 370.23 84.59 371.47 83.33 371.47 80.69 369.48 82.7 369.48 84.59"/>
              <polygon class="cls-35" points="369.48 75.42 369.48 77.46 371.48 75.55 371.48 75.42 369.48 75.42"/>
              <polygon class="cls-22" points="369.48 80.06 371.47 78.06 371.47 75.55 369.48 77.46 369.48 80.06"/>
            </g>
            <path class="cls-39" d="M377.79,84.62h-16.22s-.07-.03-.07-.07v-14.27s.03-.07.07-.07.07.03.07.07v14.2h16.15s.07.03.07.07-.03.07-.07.07Z"/>
            <polygon class="cls-22" points="359.18 66.13 359.18 62.68 362.64 62.68 359.18 66.13"/>
          </g>
        </g>
      </g>
    </g>
  </g>
  <g id="b52">
    <g id="g-root-ro_qns94tpuxx4y-fill">
      <g id="ro_qns94tpuxx4y-fill">
        <path class="cls-15" d="M698.75,69h127.5s12.75,0,12.75,12v30s0,12-12.75,12h-127.5s-12.75,0-12.75-12v-30s0-12,12.75-12"/>
      </g>
    </g>
    <g id="g-root-tx__18efsjhpuxxxk-fill">
      <g id="tx__18efsjhpuxxxk-fill">
        <g class="cls-33">
          <g class="cls-33">
            <path class="cls-22" d="M751.98,98.62h1.5v.84c0,.41-.05.85-.15,1.31-.1.46-.3.92-.61,1.38-.31.46-.76.91-1.35,1.34-.59.43-1.38.83-2.35,1.2-.97.37-2.19.69-3.64.97-.07-.17-.18-.38-.33-.63-.15-.25-.3-.45-.45-.61,1.35-.23,2.47-.5,3.36-.82.89-.32,1.61-.66,2.15-1.01.54-.35.94-.72,1.21-1.09.27-.37.44-.74.53-1.1.09-.36.13-.69.13-1v-.78ZM744.78,90.44h1.92v.1h6.7v-.1h2.1v1.4h-2.1v-.08h-6.7v.08h-1.92v-1.4ZM744.88,99.34h10.46v1.32h-10.46v-1.32ZM745.74,94.82h9v3.4h-9v-3.4ZM746.1,102.32c.32-.41.66-.89,1.01-1.43s.69-1.1,1.02-1.67.6-1.12.81-1.64l1.52.34c-.24.56-.52,1.13-.85,1.7-.33.57-.66,1.12-1,1.65-.34.53-.66.99-.95,1.39l-1.56-.34ZM746.1,102.32l1.2-1c.81.2,1.66.45,2.54.76.88.31,1.72.63,2.52.98.8.35,1.49.67,2.06.98l-1.22,1.1c-.55-.33-1.22-.68-2.01-1.03-.79-.35-1.64-.69-2.53-1-.89-.31-1.75-.58-2.56-.79ZM746.16,88.36h8.22v5.72h-8.22v-5.72ZM747.34,95.96v1.14h5.74v-1.14h-5.74ZM747.6,89.62v3.2h5.26v-3.2h-5.26ZM749.44,87.12h1.46v10.58h-1.46v-10.58ZM760.26,92.02l1.62.14c-.24,2.28-.64,4.28-1.19,6.01-.55,1.73-1.33,3.21-2.33,4.45s-2.31,2.27-3.94,3.1c-.05-.12-.14-.27-.25-.45-.11-.18-.23-.36-.36-.54-.13-.18-.24-.32-.33-.43,1.52-.71,2.74-1.62,3.66-2.73s1.62-2.46,2.1-4.05c.48-1.59.82-3.42,1.02-5.5ZM757.4,87.1l1.6.3c-.23,1.24-.5,2.47-.83,3.68s-.69,2.36-1.09,3.44c-.4,1.08-.84,2.03-1.32,2.86-.08-.09-.2-.22-.35-.37-.15-.15-.31-.3-.48-.45-.17-.15-.31-.27-.43-.36.45-.75.86-1.61,1.23-2.58.37-.97.69-2.02.97-3.14.28-1.12.51-2.25.7-3.38ZM757.66,92.58c.25,1.73.61,3.36,1.08,4.88.47,1.52,1.09,2.86,1.86,4.01s1.73,2.05,2.88,2.69c-.12.11-.26.24-.42.41-.16.17-.31.34-.44.53-.13.19-.25.36-.34.52-1.2-.76-2.19-1.77-2.97-3.04-.78-1.27-1.41-2.73-1.88-4.39-.47-1.66-.84-3.46-1.11-5.41l1.34-.2ZM756.82,90.96h6.48v1.68h-6.48v-1.68Z"/>
            <path class="cls-22" d="M765,100.32h18v1.54h-18v-1.54ZM765.4,94.3h17.28v3.86h-1.88v-2.46h-13.6v2.46h-1.8v-3.86ZM770.54,87.26l.8,1.12c-.6.24-1.28.44-2.05.6-.77.16-1.45.29-2.05.38l-.66-1.06c.39-.08.82-.18,1.31-.29.49-.11.96-.24,1.43-.38s.87-.26,1.22-.37ZM766.58,88.3l1.8.46.38,6.2h-1.78l-.4-6.66ZM767.52,89.98h3.7v1.24h-3.7v-1.24ZM767.6,92.14h3.68v1.22h-3.68v-1.22ZM768.8,96.84h9.16v1.38h-9.16v-1.38ZM773.28,99.58h1.86v4.22c0,.45-.06.8-.19,1.04-.13.24-.37.43-.73.56-.36.12-.81.19-1.35.21-.54.02-1.2.03-1.99.03-.04-.24-.12-.51-.24-.8-.12-.29-.25-.56-.38-.8.39.01.76.02,1.11.03.35,0,.67,0,.94,0h.55c.16,0,.27-.02.33-.07.06-.05.09-.14.09-.27v-4.16ZM774.92,90.64l1.26.4c-.48.65-1.08,1.27-1.8,1.85s-1.45,1.06-2.18,1.45c-.09-.13-.25-.3-.46-.5-.21-.2-.39-.36-.52-.48.71-.32,1.4-.72,2.07-1.19.67-.47,1.22-.98,1.63-1.53ZM774.88,87.28l1.26.36c-.44.61-1.01,1.19-1.7,1.74s-1.37,1-2.04,1.36c-.11-.12-.27-.27-.48-.45s-.4-.32-.56-.43c.69-.32,1.36-.7,1.99-1.15.63-.45,1.14-.92,1.53-1.43ZM771.68,91.64l.9-.78c.45.21.92.46,1.4.74.48.28.94.57,1.37.86.43.29.79.57,1.07.84l-.98.88c-.25-.27-.59-.55-1.01-.85s-.87-.6-1.35-.9c-.48-.3-.95-.56-1.4-.79ZM771.76,88.26l.9-.78c.43.19.87.41,1.33.67.46.26.9.53,1.31.8s.75.52,1.02.75l-.94.88c-.25-.24-.58-.5-.98-.78-.4-.28-.83-.56-1.29-.83-.46-.27-.91-.51-1.35-.71ZM777.48,96.84h.46l.4-.1,1.08.98c-.48.36-1.01.71-1.6,1.06-.59.35-1.19.67-1.81.98-.62.31-1.24.58-1.85.82-.11-.16-.25-.34-.43-.53-.18-.19-.33-.35-.45-.47.51-.19,1.03-.42,1.56-.7s1.03-.57,1.5-.87.85-.58,1.14-.83v-.34ZM776.74,87.82h3.78v1.24h-3.78v-1.24ZM776.76,92.14h3.46v1.22h-3.46v-1.22ZM776.86,89.98h3.5v1.24h-3.5v-1.24ZM779.78,87.82h1.8c-.04.79-.09,1.62-.14,2.5-.05.88-.11,1.73-.18,2.56-.07.83-.13,1.54-.2,2.14h-1.82c.08-.63.16-1.35.23-2.18.07-.83.14-1.68.19-2.56.05-.88.09-1.7.12-2.46Z"/>
            <path class="cls-22" d="M785,100.32h18v1.54h-18v-1.54ZM785.4,94.3h17.28v3.86h-1.88v-2.46h-13.6v2.46h-1.8v-3.86ZM790.54,87.26l.8,1.12c-.6.24-1.28.44-2.05.6-.77.16-1.45.29-2.05.38l-.66-1.06c.39-.08.82-.18,1.31-.29.49-.11.96-.24,1.43-.38s.87-.26,1.22-.37ZM786.58,88.3l1.8.46.38,6.2h-1.78l-.4-6.66ZM787.52,89.98h3.7v1.24h-3.7v-1.24ZM787.6,92.14h3.68v1.22h-3.68v-1.22ZM788.8,96.84h9.16v1.38h-9.16v-1.38ZM793.28,99.58h1.86v4.22c0,.45-.06.8-.19,1.04-.13.24-.37.43-.73.56-.36.12-.81.19-1.35.21-.54.02-1.2.03-1.99.03-.04-.24-.12-.51-.24-.8-.12-.29-.25-.56-.38-.8.39.01.76.02,1.11.03.35,0,.67,0,.94,0h.55c.16,0,.27-.02.33-.07.06-.05.09-.14.09-.27v-4.16ZM794.92,90.64l1.26.4c-.48.65-1.08,1.27-1.8,1.85s-1.45,1.06-2.18,1.45c-.09-.13-.25-.3-.46-.5-.21-.2-.39-.36-.52-.48.71-.32,1.4-.72,2.07-1.19.67-.47,1.22-.98,1.63-1.53ZM794.88,87.28l1.26.36c-.44.61-1.01,1.19-1.7,1.74s-1.37,1-2.04,1.36c-.11-.12-.27-.27-.48-.45s-.4-.32-.56-.43c.69-.32,1.36-.7,1.99-1.15.63-.45,1.14-.92,1.53-1.43ZM791.68,91.64l.9-.78c.45.21.92.46,1.4.74.48.28.94.57,1.37.86.43.29.79.57,1.07.84l-.98.88c-.25-.27-.59-.55-1.01-.85s-.87-.6-1.35-.9c-.48-.3-.95-.56-1.4-.79ZM791.76,88.26l.9-.78c.43.19.87.41,1.33.67.46.26.9.53,1.31.8s.75.52,1.02.75l-.94.88c-.25-.24-.58-.5-.98-.78-.4-.28-.83-.56-1.29-.83-.46-.27-.91-.51-1.35-.71ZM797.48,96.84h.46l.4-.1,1.08.98c-.48.36-1.01.71-1.6,1.06-.59.35-1.19.67-1.81.98-.62.31-1.24.58-1.85.82-.11-.16-.25-.34-.43-.53-.18-.19-.33-.35-.45-.47.51-.19,1.03-.42,1.56-.7s1.03-.57,1.5-.87.85-.58,1.14-.83v-.34ZM796.74,87.82h3.78v1.24h-3.78v-1.24ZM796.76,92.14h3.46v1.22h-3.46v-1.22ZM796.86,89.98h3.5v1.24h-3.5v-1.24ZM799.78,87.82h1.8c-.04.79-.09,1.62-.14,2.5-.05.88-.11,1.73-.18,2.56-.07.83-.13,1.54-.2,2.14h-1.82c.08-.63.16-1.35.23-2.18.07-.83.14-1.68.19-2.56.05-.88.09-1.7.12-2.46Z"/>
            <path class="cls-22" d="M807,93.52l1.16.4c-.25.67-.61,1.33-1.07,1.99s-.94,1.18-1.45,1.57c-.13-.2-.31-.42-.52-.66-.21-.24-.41-.43-.6-.56.32-.19.64-.43.95-.73.31-.3.6-.63.87-.98.27-.35.49-.7.66-1.03ZM808.38,97.08h1.64v2.06c0,.55-.05,1.11-.15,1.69s-.3,1.15-.6,1.71c-.3.56-.75,1.1-1.34,1.61-.59.51-1.38.98-2.37,1.41-.07-.13-.15-.29-.26-.46-.11-.17-.23-.34-.36-.51-.13-.17-.25-.3-.36-.41.87-.35,1.55-.73,2.05-1.14s.88-.84,1.13-1.29c.25-.45.42-.9.5-1.35s.12-.89.12-1.3v-2.02ZM804.92,91.46h8.66v1.54h-8.66v-1.54ZM804.92,98.82h8.8v1.58h-8.8v-1.58ZM805.28,88.32l1.32-.48c.24.36.47.76.7,1.21.23.45.37.84.44,1.17l-1.38.56c-.07-.35-.2-.75-.4-1.2s-.43-.87-.68-1.26ZM808.5,87.22h1.66v9.44h-1.66v-9.44ZM808.54,102.1l1-1.16c.41.24.86.52,1.33.83.47.31.93.62,1.37.92.44.3.8.56,1.08.79l-1.04,1.32c-.27-.24-.62-.52-1.05-.84-.43-.32-.88-.64-1.35-.97-.47-.33-.91-.62-1.34-.89ZM811.24,93.58c.12.08.31.21.56.4.25.19.52.39.8.6.28.21.54.42.77.61s.4.34.51.43l-1.04,1.22c-.13-.16-.31-.36-.53-.59-.22-.23-.46-.48-.71-.73s-.5-.49-.73-.71c-.23-.22-.43-.39-.59-.51l.96-.72ZM810.74,97.46l1.06-.68c.25.23.52.49.79.79.27.3.48.56.63.79l-1.1.76c-.13-.24-.33-.52-.59-.83-.26-.31-.52-.59-.79-.83ZM811.82,87.88l1.56.44c-.24.47-.48.93-.71,1.38s-.46.84-.67,1.16l-1.24-.42c.19-.36.38-.78.58-1.27.2-.49.36-.92.48-1.29ZM816.48,102.06l1.6.96c-.31.35-.67.69-1.09,1.03s-.86.66-1.32.95-.92.55-1.37.76c-.15-.17-.34-.38-.57-.62-.23-.24-.45-.44-.65-.6.43-.2.86-.44,1.29-.71.43-.27.84-.57,1.21-.88s.67-.61.9-.89ZM813.78,88h9.4v1.62h-9.4v-1.62ZM814.48,91.28h8v10.5h-8v-10.5ZM816.2,92.72v1.62h4.48v-1.62h-4.48ZM816.2,95.7v1.62h4.48v-1.62h-4.48ZM816.2,98.68v1.66h4.48v-1.66h-4.48ZM817.38,88.86l2.06.26c-.2.59-.4,1.17-.61,1.75s-.4,1.08-.57,1.49l-1.6-.3c.09-.31.19-.65.28-1.02.09-.37.18-.75.26-1.14.08-.39.14-.73.18-1.04ZM818.8,103.04l1.36-.94c.39.24.79.51,1.22.82s.83.61,1.22.92.71.59.96.84l-1.46,1.02c-.23-.24-.53-.52-.9-.83-.37-.31-.77-.63-1.19-.96-.42-.33-.82-.62-1.21-.87Z"/>
          </g>
        </g>
      </g>
    </g>
    <g id="_圖層_1-2" data-name="_圖層_1">
      <g id="_圖層_1-2-2" data-name="_圖層_1-2">
        <g id="_圖層_1-2-3" data-name="_圖層_1-2">
          <g>
            <path class="cls-29" d="M709.73,80.83h19.44c.86,0,1.56.7,1.56,1.56v28.62c0,1-.81,1.82-1.82,1.82h-19.19v-32h.01Z"/>
            <path class="cls-20" d="M709.73,88.96v-8.13h19.44c.86,0,1.56.7,1.56,1.56v6.56h-21,0s0,.01,0,.01Z"/>
            <path class="cls-44" d="M706.4,80.83h3.33v32h-3.11c-.55,0-.98-.44-.98-.98v-30.24c0-.43.34-.76.76-.76h0Z"/>
            <path class="cls-43" d="M709.73,88.96h-4.1v-7.36c0-.43.34-.76.76-.76h3.33v8.13h0Z"/>
            <circle class="cls-35" cx="720.52" cy="98.42" r="6.73"/>
            <g>
              <path class="cls-22" d="M721.92,95.55s-2.3,6.79.9,6.88c1.56.04,2.5-.73,3.04-1.46.17-.22-.18-.41-.43-.24-.1.07-.21.14-.32.2-.49.29-1.08.51-1.7.5-2.28-.05-.59-5.9-.59-5.9h-.91v.02h0Z"/>
              <rect class="cls-22" x="717.34" y="94.85" width="7.25" height="1.29" rx=".62" ry=".62"/>
              <path class="cls-22" d="M716.58,96.56c-.27.17-.6-.14-.45-.43.32-.64.87-1.27,1.82-1.27,1.92,0,0,1.29,0,1.29,0,0-.7-.02-1.37.4h0Z"/>
              <path class="cls-22" d="M725.34,94.45c.27-.17.6.14.45.43-.32.64-.87,1.27-1.82,1.27-1.92,0,0-1.29,0-1.29,0,0,.7.02,1.37-.4h0Z"/>
              <path class="cls-22" d="M716.29,101.46s2-1.77,3.02-5.59h.89s-1.17,7-3.75,6.55c-.93-.16-.15-.96-.15-.96h0Z"/>
            </g>
            <path class="cls-26" d="M711.03,112.36s-.04-.01-.04-.04v-30.13s.01-.04.04-.04.04.01.04.04v30.13s-.01.04-.04.04Z"/>
            <path class="cls-29" d="M727.03,83.87h-13.03c-.16,0-.29-.13-.29-.29h0c0-.16.13-.29.29-.29h13.03c.16,0,.29.13.29.29h0c0,.16-.13.29-.29.29Z"/>
            <path class="cls-29" d="M718.94,85.75h-4.78c-.16,0-.29-.13-.29-.29h0c0-.16.13-.29.29-.29h4.78c.16,0,.29.13.29.29h0c0,.16-.13.29-.29.29h0Z"/>
          </g>
        </g>
      </g>
    </g>
  </g>
  <g id="a17">
    <g id="g-root-ro_924if1putq17-stroke">
      <g id="ro_924if1putq17-stroke">
        <path class="cls-30" d="M469.67,69h144s24,0,24,28.57v92.86s0,28.57-24,28.57h-144s-24,0-24-28.57v-92.86s0-28.57,24-28.57"/>
      </g>
    </g>
    <g>
      <g id="g-root-tx__mdl0sdputog9-fill">
        <g id="tx__mdl0sdputog9-fill">
          <g class="cls-33">
            <g class="cls-33">
              <path class="cls-45" d="M479.65,185.62h1.5v.84c0,.41-.05.85-.15,1.31-.1.46-.3.92-.61,1.38s-.76.91-1.35,1.34c-.59.43-1.38.83-2.35,1.2-.97.37-2.19.69-3.64.97-.07-.17-.18-.38-.33-.63-.15-.25-.3-.45-.45-.61,1.35-.23,2.47-.5,3.36-.82.89-.32,1.61-.66,2.15-1.01.54-.35.94-.72,1.21-1.09s.44-.74.53-1.1c.09-.36.13-.69.13-1v-.78ZM472.45,177.44h1.92v.1h6.7v-.1h2.1v1.4h-2.1v-.08h-6.7v.08h-1.92v-1.4ZM472.55,186.34h10.46v1.32h-10.46v-1.32ZM473.41,181.82h9v3.4h-9v-3.4ZM473.77,189.32c.32-.41.66-.89,1.01-1.43.35-.54.69-1.1,1.02-1.67.33-.57.6-1.12.81-1.64l1.52.34c-.24.56-.52,1.13-.85,1.7s-.66,1.12-1,1.65c-.34.53-.66.99-.95,1.39l-1.56-.34ZM473.77,189.32l1.2-1c.81.2,1.66.45,2.54.76.88.31,1.72.63,2.52.98.8.35,1.49.67,2.06.98l-1.22,1.1c-.55-.33-1.22-.68-2.01-1.03-.79-.35-1.64-.69-2.53-1-.89-.31-1.75-.58-2.56-.79ZM473.83,175.36h8.22v5.72h-8.22v-5.72ZM475.01,182.96v1.14h5.74v-1.14h-5.74ZM475.27,176.62v3.2h5.26v-3.2h-5.26ZM477.11,174.12h1.46v10.58h-1.46v-10.58ZM487.93,179.02l1.62.14c-.24,2.28-.64,4.28-1.19,6.01s-1.33,3.21-2.33,4.45-2.31,2.27-3.94,3.1c-.05-.12-.14-.27-.25-.45-.11-.18-.23-.36-.36-.54-.13-.18-.24-.32-.33-.43,1.52-.71,2.74-1.62,3.66-2.73s1.62-2.46,2.1-4.05c.48-1.59.82-3.42,1.02-5.5ZM485.07,174.1l1.6.3c-.23,1.24-.5,2.47-.83,3.68-.33,1.21-.69,2.36-1.09,3.44-.4,1.08-.84,2.03-1.32,2.86-.08-.09-.2-.22-.35-.37s-.31-.3-.48-.45c-.17-.15-.31-.27-.43-.36.45-.75.86-1.61,1.23-2.58s.69-2.02.97-3.14c.28-1.12.51-2.25.7-3.38ZM485.33,179.58c.25,1.73.61,3.36,1.08,4.88.47,1.52,1.09,2.86,1.86,4.01.77,1.15,1.73,2.05,2.88,2.69-.12.11-.26.24-.42.41-.16.17-.31.34-.44.53-.13.19-.25.36-.34.52-1.2-.76-2.19-1.77-2.97-3.04-.78-1.27-1.41-2.73-1.88-4.39-.47-1.66-.84-3.46-1.11-5.41l1.34-.2ZM484.49,177.96h6.48v1.68h-6.48v-1.68Z"/>
              <path class="cls-45" d="M492.67,187.32h18v1.54h-18v-1.54ZM493.07,181.3h17.28v3.86h-1.88v-2.46h-13.6v2.46h-1.8v-3.86ZM498.21,174.26l.8,1.12c-.6.24-1.28.44-2.05.6-.77.16-1.45.29-2.05.38l-.66-1.06c.39-.08.82-.18,1.31-.29s.96-.24,1.43-.38.87-.26,1.22-.37ZM494.25,175.3l1.8.46.38,6.2h-1.78l-.4-6.66ZM495.19,176.98h3.7v1.24h-3.7v-1.24ZM495.27,179.14h3.68v1.22h-3.68v-1.22ZM496.47,183.84h9.16v1.38h-9.16v-1.38ZM500.95,186.58h1.86v4.22c0,.45-.06.8-.19,1.04-.13.24-.37.43-.73.56-.36.12-.81.19-1.35.21-.54.02-1.2.03-1.99.03-.04-.24-.12-.51-.24-.8-.12-.29-.25-.56-.38-.8.39.01.76.02,1.11.03.35,0,.67,0,.94,0h.55c.16,0,.27-.02.33-.07.06-.05.09-.14.09-.27v-4.16ZM502.59,177.64l1.26.4c-.48.65-1.08,1.27-1.8,1.85-.72.58-1.45,1.06-2.18,1.45-.09-.13-.25-.3-.46-.5s-.39-.36-.52-.48c.71-.32,1.4-.72,2.07-1.19.67-.47,1.22-.98,1.63-1.53ZM502.55,174.28l1.26.36c-.44.61-1.01,1.19-1.7,1.74s-1.37,1-2.04,1.36c-.11-.12-.27-.27-.48-.45-.21-.18-.4-.32-.56-.43.69-.32,1.36-.7,1.99-1.15.63-.45,1.14-.92,1.53-1.43ZM499.35,178.64l.9-.78c.45.21.92.46,1.4.74.48.28.94.57,1.37.86.43.29.79.57,1.07.84l-.98.88c-.25-.27-.59-.55-1.01-.85-.42-.3-.87-.6-1.35-.9-.48-.3-.95-.56-1.4-.79ZM499.43,175.26l.9-.78c.43.19.87.41,1.33.67.46.26.9.53,1.31.8.41.27.75.52,1.02.75l-.94.88c-.25-.24-.58-.5-.98-.78s-.83-.56-1.29-.83c-.46-.27-.91-.51-1.35-.71ZM505.15,183.84h.46l.4-.1,1.08.98c-.48.36-1.01.71-1.6,1.06s-1.19.67-1.81.98c-.62.31-1.24.58-1.85.82-.11-.16-.25-.34-.43-.53s-.33-.35-.45-.47c.51-.19,1.03-.42,1.56-.7s1.03-.57,1.5-.87.85-.58,1.14-.83v-.34ZM504.41,174.82h3.78v1.24h-3.78v-1.24ZM504.43,179.14h3.46v1.22h-3.46v-1.22ZM504.53,176.98h3.5v1.24h-3.5v-1.24ZM507.45,174.82h1.8c-.04.79-.09,1.62-.14,2.5s-.11,1.73-.18,2.56c-.07.83-.13,1.54-.2,2.14h-1.82c.08-.63.16-1.35.23-2.18.07-.83.14-1.68.19-2.56s.09-1.7.12-2.46Z"/>
              <path class="cls-45" d="M516.81,175.7h1.96v2.86c0,.79-.03,1.63-.09,2.54-.06.91-.18,1.84-.37,2.81-.19.97-.47,1.94-.84,2.91-.37.97-.87,1.93-1.48,2.87-.61.94-1.39,1.83-2.32,2.67-.09-.17-.22-.36-.38-.57-.16-.21-.33-.41-.51-.6-.18-.19-.34-.34-.49-.45,1.04-.93,1.86-1.93,2.47-2.99.61-1.06,1.06-2.13,1.35-3.22.29-1.09.48-2.14.57-3.16.09-1.02.13-1.96.13-2.83v-2.84ZM513.43,175h10.98v1.84h-10.98v-1.84ZM527.93,180.72h.38l.38-.1,1.36.58c-.44,1.69-1.04,3.18-1.81,4.46s-1.67,2.39-2.71,3.32c-1.04.93-2.19,1.72-3.45,2.35s-2.6,1.15-4.03,1.55c-.08-.17-.18-.37-.3-.59-.12-.22-.25-.43-.39-.64-.14-.21-.28-.38-.41-.51,1.31-.31,2.55-.74,3.72-1.3,1.17-.56,2.24-1.25,3.21-2.08.97-.83,1.8-1.8,2.49-2.91.69-1.11,1.21-2.37,1.56-3.77v-.36ZM517.97,180.72h10.42v1.78h-10.76l.34-1.78ZM520.67,181.84c.81,2.27,2.08,4.19,3.8,5.78,1.72,1.59,3.91,2.69,6.56,3.3-.13.15-.28.32-.45.53-.17.21-.33.42-.48.65s-.28.43-.37.62c-1.83-.52-3.43-1.26-4.81-2.22-1.38-.96-2.55-2.13-3.52-3.51s-1.76-2.95-2.39-4.71l1.66-.44ZM523.95,175h2c-.15.73-.31,1.5-.48,2.3-.17.8-.35,1.57-.52,2.31-.17.74-.33,1.39-.48,1.95h-2.14c.19-.57.38-1.24.58-1.99.2-.75.39-1.53.57-2.32s.34-1.54.47-2.25Z"/>
              <path class="cls-45" d="M533.09,187.14l1.5.24c-.09.88-.22,1.76-.39,2.65s-.35,1.64-.55,2.25c-.17-.09-.41-.19-.71-.3-.3-.11-.54-.19-.73-.24.24-.6.43-1.31.56-2.14.13-.83.24-1.65.32-2.46ZM532.81,181.8c-.03-.13-.08-.3-.15-.51s-.15-.42-.22-.64c-.07-.22-.14-.4-.21-.55.17-.05.35-.18.53-.37.18-.19.37-.44.57-.73.12-.15.28-.39.48-.72.2-.33.42-.73.67-1.19.25-.46.49-.96.74-1.49.25-.53.47-1.07.67-1.6l1.7.72c-.49,1.11-1.06,2.2-1.71,3.28-.65,1.08-1.3,2.03-1.97,2.84v.04c-.23.12-.41.23-.55.32-.14.09-.27.19-.38.3s-.17.21-.17.3ZM532.95,186.38c-.03-.12-.07-.29-.14-.5-.07-.21-.14-.43-.22-.66-.08-.23-.16-.42-.24-.58.24-.05.48-.2.72-.43s.51-.54.82-.91c.16-.19.4-.49.72-.92s.67-.93,1.06-1.52.78-1.22,1.17-1.91c.39-.69.75-1.37,1.07-2.05l1.58.96c-.49.92-1.04,1.83-1.63,2.74-.59.91-1.21,1.77-1.86,2.59-.65.82-1.3,1.56-1.95,2.23v.04c-.21.12-.4.23-.55.32-.15.09-.28.19-.39.3s-.16.21-.16.3ZM532.81,181.8l-.04-1.26.76-.5,3.5-.26c-.05.21-.09.46-.12.73-.03.27-.04.5-.04.67-.79.08-1.43.15-1.93.21-.5.06-.89.11-1.17.16-.28.05-.49.09-.63.13-.14.04-.25.08-.33.12ZM532.95,186.38l-.08-1.34.76-.54,5.16-.78c-.03.21-.04.46-.05.74s0,.51,0,.68c-1.17.21-2.12.38-2.84.51-.72.13-1.28.23-1.67.32-.39.09-.68.16-.86.22-.18.06-.32.12-.43.19ZM535.29,187.32l1.38-.32c.12.67.23,1.39.34,2.17.11.78.17,1.46.2,2.03l-1.46.36c-.01-.57-.06-1.25-.15-2.04-.09-.79-.19-1.52-.31-2.2ZM537.13,182.14l1.32-.5c.2.43.4.89.59,1.38.19.49.36.97.51,1.42.15.45.25.85.3,1.2l-1.4.58c-.05-.36-.15-.77-.28-1.24-.13-.47-.29-.95-.47-1.45-.18-.5-.37-.96-.57-1.39ZM537.51,186.9l1.28-.44c.21.55.42,1.14.63,1.79s.36,1.2.45,1.67l-1.36.5c-.08-.48-.22-1.05-.42-1.71-.2-.66-.39-1.26-.58-1.81ZM542.13,183.2h1.8c-.04,1.2-.12,2.29-.23,3.27-.11.98-.31,1.86-.59,2.65s-.69,1.48-1.22,2.09-1.25,1.12-2.14,1.55c-.07-.16-.16-.33-.29-.51-.13-.18-.27-.36-.42-.53-.15-.17-.3-.32-.45-.44.77-.36,1.39-.79,1.85-1.28s.81-1.07,1.04-1.72c.23-.65.39-1.4.48-2.24.09-.84.14-1.79.17-2.84ZM540.39,184.2c-.03-.13-.08-.31-.15-.53s-.15-.45-.24-.7c-.09-.25-.17-.45-.25-.61.23-.07.45-.23.67-.48.22-.25.46-.58.73-.98.15-.2.35-.53.62-.99s.56-1,.89-1.63.65-1.3.97-2.02c.32-.72.61-1.45.86-2.18l2.06.56c-.44,1.05-.93,2.09-1.47,3.11-.54,1.02-1.1,1.99-1.67,2.9s-1.14,1.74-1.7,2.47v.04c-.27.15-.49.27-.66.38-.17.11-.33.22-.46.34-.13.12-.2.23-.2.32ZM539.93,176.56h10.72v1.76h-10.72v-1.76ZM540.39,184.2l-.04-1.44,1-.62,7.68-.74c.01.25.04.53.07.84.03.31.07.56.11.76-1.45.16-2.67.3-3.66.41-.99.11-1.79.21-2.41.29-.62.08-1.11.15-1.46.2-.35.05-.63.1-.82.15-.19.05-.35.1-.47.15ZM545.47,182.76h1.78v7.24c0,.28.03.46.08.54s.18.12.38.12h1.14c.13,0,.23-.07.3-.2.07-.13.12-.39.15-.77.03-.38.06-.96.07-1.73.13.09.3.19.49.29s.39.19.59.26.38.13.54.17c-.04.96-.13,1.7-.27,2.23-.14.53-.34.9-.6,1.11-.26.21-.62.32-1.07.32h-1.62c-.52,0-.92-.07-1.21-.21-.29-.14-.48-.38-.59-.72-.11-.34-.16-.81-.16-1.41v-7.24ZM546.49,179.6l1.54-.68c.35.52.7,1.07,1.07,1.66.37.59.7,1.16,1,1.73.3.57.54,1.07.71,1.51l-1.66.8c-.16-.44-.38-.95-.67-1.52-.29-.57-.6-1.17-.95-1.78s-.69-1.19-1.04-1.72Z"/>
              <path class="cls-45" d="M552.89,177.48h8.36v1.52h-8.36v-1.52ZM553.77,180.18h6.62v1.48h-6.62v-1.48ZM553.77,182.86h6.58v1.46h-6.58v-1.46ZM553.89,185.56h1.62v6.86h-1.62v-6.86ZM554.71,185.56h5.7v5.96h-5.7v-1.56h4.04v-2.86h-4.04v-1.54ZM555.19,174.76l1.46-.74c.29.41.58.86.86,1.35.28.49.5.92.66,1.29l-1.52.84c-.15-.36-.36-.8-.64-1.33-.28-.53-.55-1-.82-1.41ZM561.19,180.94h9.66v1.86h-9.66v-1.86ZM564.93,174.48h1.96v18.2h-1.96v-18.2Z"/>
              <path class="cls-45" d="M572.67,187.32h18v1.54h-18v-1.54ZM573.07,181.3h17.28v3.86h-1.88v-2.46h-13.6v2.46h-1.8v-3.86ZM578.21,174.26l.8,1.12c-.6.24-1.28.44-2.05.6-.77.16-1.45.29-2.05.38l-.66-1.06c.39-.08.82-.18,1.31-.29s.96-.24,1.43-.38.87-.26,1.22-.37ZM574.25,175.3l1.8.46.38,6.2h-1.78l-.4-6.66ZM575.19,176.98h3.7v1.24h-3.7v-1.24ZM575.27,179.14h3.68v1.22h-3.68v-1.22ZM576.47,183.84h9.16v1.38h-9.16v-1.38ZM580.95,186.58h1.86v4.22c0,.45-.06.8-.19,1.04-.13.24-.37.43-.73.56-.36.12-.81.19-1.35.21-.54.02-1.2.03-1.99.03-.04-.24-.12-.51-.24-.8-.12-.29-.25-.56-.38-.8.39.01.76.02,1.11.03.35,0,.67,0,.94,0h.55c.16,0,.27-.02.33-.07.06-.05.09-.14.09-.27v-4.16ZM582.59,177.64l1.26.4c-.48.65-1.08,1.27-1.8,1.85-.72.58-1.45,1.06-2.18,1.45-.09-.13-.25-.3-.46-.5s-.39-.36-.52-.48c.71-.32,1.4-.72,2.07-1.19.67-.47,1.22-.98,1.63-1.53ZM582.55,174.28l1.26.36c-.44.61-1.01,1.19-1.7,1.74s-1.37,1-2.04,1.36c-.11-.12-.27-.27-.48-.45-.21-.18-.4-.32-.56-.43.69-.32,1.36-.7,1.99-1.15.63-.45,1.14-.92,1.53-1.43ZM579.35,178.64l.9-.78c.45.21.92.46,1.4.74.48.28.94.57,1.37.86.43.29.79.57,1.07.84l-.98.88c-.25-.27-.59-.55-1.01-.85-.42-.3-.87-.6-1.35-.9-.48-.3-.95-.56-1.4-.79ZM579.43,175.26l.9-.78c.43.19.87.41,1.33.67.46.26.9.53,1.31.8.41.27.75.52,1.02.75l-.94.88c-.25-.24-.58-.5-.98-.78s-.83-.56-1.29-.83c-.46-.27-.91-.51-1.35-.71ZM585.15,183.84h.46l.4-.1,1.08.98c-.48.36-1.01.71-1.6,1.06s-1.19.67-1.81.98c-.62.31-1.24.58-1.85.82-.11-.16-.25-.34-.43-.53s-.33-.35-.45-.47c.51-.19,1.03-.42,1.56-.7s1.03-.57,1.5-.87.85-.58,1.14-.83v-.34ZM584.41,174.82h3.78v1.24h-3.78v-1.24ZM584.43,179.14h3.46v1.22h-3.46v-1.22ZM584.53,176.98h3.5v1.24h-3.5v-1.24ZM587.45,174.82h1.8c-.04.79-.09,1.62-.14,2.5s-.11,1.73-.18,2.56c-.07.83-.13,1.54-.2,2.14h-1.82c.08-.63.16-1.35.23-2.18.07-.83.14-1.68.19-2.56s.09-1.7.12-2.46Z"/>
              <path class="cls-45" d="M593.41,175h1.86v17.68h-1.86v-17.68ZM594.31,178h5.32v1.38h-5.32v-1.38ZM594.47,175h6.32v7.52h-6.32v-1.54h4.54v-4.42h-4.54v-1.56ZM609.15,175v1.56h-4.9v4.44h4.9v1.56h-6.7v-7.56h6.7ZM603.53,178h5.4v1.38h-5.4v-1.38ZM608.15,175h1.9v15.26c0,.59-.07,1.04-.22,1.35-.15.31-.41.55-.8.71s-.9.26-1.54.29c-.64.03-1.43.05-2.36.05-.03-.17-.08-.38-.15-.61-.07-.23-.16-.47-.25-.72-.09-.25-.19-.45-.28-.61.44.01.88.02,1.31.03.43,0,.82,0,1.15,0h.7c.2-.01.34-.06.42-.13s.12-.2.12-.39v-15.24Z"/>
            </g>
          </g>
        </g>
      </g>
      <g id="_圖層_1-3" data-name="_圖層_1">
        <g id="_圖層_1-2-4" data-name="_圖層_1-2">
          <g id="_圖層_1-2-5" data-name="_圖層_1-2">
            <g>
              <g>
                <rect class="cls-25" x="544.17" y="109.07" width="41.77" height="30.7" transform="translate(253.18 611.76) rotate(-69.8)"/>
                <path class="cls-28" d="M577.99,122.71s-.02,0-.03,0l-18.77-6.91s-.07-.07-.06-.12c.02-.05.07-.07.12-.06l18.77,6.91s.07.07.06.12c-.01.04-.05.06-.09.06Z"/>
                <path class="cls-28" d="M578.86,120.41s-.02,0-.03,0l-18.78-6.94s-.07-.07-.05-.12c.02-.05.07-.07.12-.05l18.78,6.94s.07.07.05.12c-.01.04-.05.06-.09.06Z"/>
                <path class="cls-28" d="M575.52,129.42s-.02,0-.03,0l-18.78-6.92s-.07-.07-.06-.12c.02-.05.07-.07.12-.06l18.78,6.92s.07.07.06.12c-.01.04-.05.06-.09.06Z"/>
                <path class="cls-28" d="M576.37,127.11s-.02,0-.03,0l-18.77-6.91s-.07-.07-.06-.12c.02-.05.07-.07.12-.06l18.77,6.91s.07.07.06.12c-.01.04-.05.06-.09.06Z"/>
                <g>
                  <path class="cls-24" d="M562.02,110.5c-.06-.01-.11-.05-.16-.06-.05-.04-.07-.05-.11-.07l.21-.31s.05.04.07.06.06.04.1.05c.15.05.27.05.4-.01s.24-.16.36-.31l.12-.16-.07-2.82.43.16v2.32h0c.07-.1.16-.2.24-.31.07-.11.16-.21.22-.31l.93-1.19.4.15-1.9,2.32c-.07.1-.17.2-.27.28s-.2.15-.28.2c-.1.05-.21.07-.32.07s-.22,0-.36-.05h-.04.04,0Z"/>
                  <path class="cls-24" d="M565.96,109.3l2.17.81-.11.31-2.17-.81.11-.31h0ZM566.36,108.22l2.17.81-.11.31-2.17-.81.11-.31h0Z"/>
                  <path class="cls-24" d="M569.86,112.26c-.17-.06-.32-.16-.47-.27-.12-.12-.24-.26-.32-.4l.31-.2c.07.12.16.24.26.33s.21.17.36.22c.16.06.28.06.4.01s.17-.12.22-.22c.04-.06.04-.12,0-.17s-.05-.11-.07-.17c-.04-.05-.07-.11-.15-.16s-.11-.1-.17-.16c-.07-.06-.15-.12-.22-.2s-.12-.15-.17-.22-.07-.16-.1-.26c0-.1,0-.2.04-.28.04-.1.1-.17.16-.26.06-.06.16-.12.24-.16.1-.04.2-.05.32-.05s.24.04.37.07c.16.06.28.15.4.24s.2.21.26.32l-.28.2c-.06-.1-.12-.17-.21-.26s-.16-.12-.27-.17c-.16-.06-.28-.06-.38-.01s-.16.11-.2.21c0,.06-.04.11,0,.16s.05.1.07.16.07.1.15.15c.05.05.11.1.17.16.07.06.15.12.22.21.07.06.15.15.2.22s.07.17.1.27c0,.1,0,.21-.04.32-.04.1-.1.2-.16.26s-.16.12-.26.17c-.1.04-.21.06-.33.05s-.26-.04-.4-.07h0v-.04h-.02Z"/>
                  <path class="cls-24" d="M572.25,110.29l.42.15-.9,2.45-.42-.15.9-2.45h0ZM572.66,109.87c-.07-.04-.15-.07-.17-.15s-.05-.15,0-.22c.04-.07.07-.12.16-.16s.15-.04.22,0,.15.07.17.15.05.15,0,.22c-.04.07-.07.12-.16.16s-.15.04-.24,0h.01Z"/>
                  <path class="cls-24" d="M573.49,110.75l.33.12-.1.37h0c.16-.06.32-.12.48-.15.16-.04.32-.01.5.05.26.1.42.24.48.45s.04.47-.07.79l-.58,1.56-.42-.15.55-1.5c.07-.22.11-.42.07-.55s-.12-.22-.28-.28c-.12-.05-.26-.06-.37-.04-.12.04-.27.07-.43.16l-.66,1.78-.42-.15.9-2.45h0v-.04h.02,0Z"/>
                  <path class="cls-24" d="M577.32,113.47l-.04-1.31.4.15v1.09h0c.07-.04.16-.1.22-.15.07-.05.16-.1.24-.15l.63-.38.42.16-1.46.87.05,1.4-.4-.15v-1.18h0c-.07.05-.16.11-.24.16s-.17.1-.27.16l-.69.4-.42-.16,1.57-.9h-.01Z"/>
                </g>
                <path class="cls-37" d="M577.17,125.21s-.02,0-.03,0l-18.54-6.84s-.07-.07-.06-.12c.02-.05.07-.07.12-.06l18.54,6.84s.07.07.06.12c-.01.04-.05.06-.09.06Z"/>
                <path class="cls-28" d="M562.18,125.42s-.02,0-.03,0c-.05-.02-.07-.07-.06-.12l4.09-11.12s.07-.07.12-.06c.05.02.07.07.06.12l-4.09,11.12s-.05.06-.09.06Z"/>
                <path class="cls-28" d="M558.71,124.15s-.02,0-.03,0c-.05-.02-.07-.07-.06-.12l4.09-11.11s.07-.07.12-.06.07.07.06.12l-4.09,11.11s-.05.06-.09.06Z"/>
                <path class="cls-37" d="M565.45,126.64s-.02,0-.03,0c-.05-.02-.07-.07-.05-.12l4.11-11.11s.07-.07.12-.05c.05.02.07.07.05.12l-4.11,11.11s-.05.06-.09.06Z"/>
                <path class="cls-28" d="M568.75,127.85s-.02,0-.03,0c-.05-.02-.07-.07-.06-.12l4.09-11.12s.07-.07.12-.06c.05.02.07.07.06.12l-4.09,11.12s-.05.06-.09.06Z"/>
                <path class="cls-28" d="M572.03,129.05s-.02,0-.03,0c-.05-.02-.07-.07-.06-.12l4.1-11.11s.07-.07.12-.05c.05.02.07.07.06.12l-4.1,11.11s-.05.06-.09.06Z"/>
                <path class="cls-6" d="M564.41,120.4c-.07.21-.31.31-.51.24-.21-.07-.31-.31-.24-.51.07-.21.31-.31.51-.24.21.07.31.31.24.51Z"/>
                <path class="cls-6" d="M567.7,121.63c-.07.21-.31.31-.51.24-.21-.07-.31-.31-.24-.51.07-.21.31-.31.51-.24.21.07.31.31.24.51Z"/>
                <path class="cls-6" d="M560.94,119.14c-.07.21-.31.31-.51.24-.21-.07-.31-.31-.24-.51.07-.21.31-.31.51-.24.21.07.31.31.24.51Z"/>
                <path class="cls-6" d="M570.98,122.83c-.07.21-.31.31-.51.24s-.31-.31-.24-.51c.07-.21.31-.31.51-.24.21.07.31.31.24.51Z"/>
                <path class="cls-6" d="M574.26,124.05c-.07.21-.31.31-.51.24-.21-.07-.31-.31-.24-.51.07-.21.31-.31.51-.24.21.07.31.31.24.51Z"/>
                <path class="cls-43" d="M576.53,127.18c-1.96-.8-2.48-2.45-2.95-3.9-.4-1.27-.78-2.47-2.04-2.93-1.61-.59-2.65.16-3.76.95-1.2.86-2.44,1.76-4.49,1-1.8-.66-2.36-2.28-2.89-3.83-.34-1-.67-1.94-1.3-2.53l.12-.13c.67.62,1,1.58,1.35,2.6.52,1.52,1.06,3.09,2.79,3.73,1.96.72,3.17-.15,4.33-.98,1.09-.78,2.22-1.6,3.92-.97,1.34.5,1.73,1.73,2.15,3.04.47,1.49.96,3.03,2.85,3.79l-.07.16Z"/>
              </g>
              <path class="cls-29" d="M519.74,96.63h38.87c1.72,0,3.11,1.4,3.11,3.11v57.23c0,2.01-1.62,3.63-3.63,3.63h-38.38v-63.98h.02Z"/>
              <path class="cls-20" d="M519.74,112.89v-16.25h38.87c1.72,0,3.11,1.4,3.11,3.11v13.12h-41.99.01v.02h0Z"/>
              <path class="cls-44" d="M513.08,96.63h6.66v63.98h-6.22c-1.09,0-1.97-.88-1.97-1.97v-60.48c0-.85.69-1.52,1.52-1.52h0Z"/>
              <path class="cls-43" d="M519.74,112.89h-8.19v-14.72c0-.85.69-1.52,1.52-1.52h6.66v16.25h0Z"/>
              <circle class="cls-35" cx="541.32" cy="131.81" r="13.47"/>
              <g>
                <path class="cls-22" d="M544.13,126.07s-4.61,13.58,1.8,13.76c3.11.07,4.99-1.46,6.07-2.91.33-.45-.36-.82-.85-.47-.2.15-.42.27-.63.4-.98.58-2.16,1.03-3.41.99-4.57-.11-1.18-11.81-1.18-11.81h-1.81v.04h.01Z"/>
                <rect class="cls-22" x="534.97" y="124.67" width="14.49" height="2.59" rx="1.23" ry="1.23"/>
                <path class="cls-22" d="M533.44,128.08c-.55.33-1.19-.27-.9-.85.64-1.29,1.75-2.54,3.64-2.54,3.84,0,0,2.59,0,2.59,0,0-1.4-.04-2.75.81h.01Z"/>
                <path class="cls-22" d="M550.96,123.87c.55-.33,1.19.27.9.85-.64,1.29-1.75,2.54-3.64,2.54-3.84,0,0-2.59,0-2.59,0,0,1.4.04,2.75-.81h-.01Z"/>
                <path class="cls-22" d="M532.87,137.89s4-3.53,6.03-11.19h1.77s-2.34,13.99-7.49,13.11c-1.86-.32-.31-1.91-.31-1.91h0Z"/>
              </g>
              <path class="cls-26" d="M522.36,159.69c-.05,0-.09-.04-.09-.09v-60.25c0-.05.04-.09.09-.09s.09.04.09.09v60.25c0,.05-.04.09-.09.09Z"/>
              <path class="cls-29" d="M554.35,102.7h-26.05c-.32,0-.58-.26-.58-.58h0c0-.32.26-.58.58-.58h26.05c.32,0,.58.26.58.58h0c0,.32-.26.58-.58.58Z"/>
              <path class="cls-29" d="M538.18,106.46h-9.56c-.32,0-.58-.26-.58-.58h0c0-.32.26-.58.58-.58h9.56c.32,0,.58.26.58.58h0c0,.32-.26.58-.58.58h0Z"/>
              <g>
                <polygon class="cls-9" points="507.06 160.02 505.66 160.31 504.89 158.5 506.3 157.75 507.06 160.02"/>
                <path class="cls-18" d="M506.44,131.18c-2.8,3.3-2.92,1.3-2.92,1.3,0,.05-2.4,8.99-3.27,12.2-.2.74-.17,1.52.06,2.27l4.16,12.42,2.44-1.26c-.21-6.03-.93-10.42-2.39-12.15l4.76-8.66c4.06-7.05-2.82-6.12-2.82-6.12h-.01Z"/>
                <path class="cls-9" d="M508.77,132.37l.1,15.47.37,13.28,1.29-.22c.76-4.68,3.42-7.98,2.16-13.66l.55-10.57-2.02-3.8-2.4-.51h-.04Z"/>
                <path class="cls-18" d="M508.12,132.37l.47,15.45v11.38c-.04.33.22.63.56.64l2.28.06c.26,0,.47-.17.5-.43.1-.99.15-2.54.27-3.11.63-2.81,1.47-4.52.47-9.11l1.03-10.84-2.5-3.53-3.07-.51h0Z"/>
                <path class="cls-18" d="M511.76,129.22l-7.25.31c-2.01,3.7-1.64,8.35-1.64,8.35l5.33.24c2.48-.05,5.38,1.88,5.69-2.23.36-4.68-2.13-6.68-2.13-6.68h0Z"/>
                <path class="cls-17" d="M509.42,160.85s-.61,1.07-.82,1.73c-.04.11-.01.24.05.32.06.1.17.15.28.15.26,0,.53,0,.71-.04.11,0,.22-.05.31-.11.05-.05.11-.1.17-.15.31-.26.31-.53.31-.92s.06-.87.06-.87c-.47-.47-1.09-.11-1.09-.11h.01Z"/>
                <path class="cls-17" d="M505.55,160.08l-.63,1.31c-.1.28-1.02,1.25-1.02,1.25h0c.01.28.31.28.5.22l3.21-1.85s.66-.56-.79-1.65c-.45.58-.9,1.08-1.3.71h.04Z"/>
                <path class="cls-36" d="M508.39,139.14s0,0-.02,0c-.05,0-.08-.05-.07-.1.04-.21-.03-1.12-.07-1.55h-1.75s-.09-.04-.09-.09.04-.09.09-.09h1.83s.08.03.09.08c0,.06.12,1.38.07,1.67,0,.04-.04.07-.09.07Z"/>
                <path class="cls-38" d="M499.62,126.74l-1.19-.21c-.24-.05-.48,0-.69.12l-.83.5c-.28.17-.32.58-.06.81h0l1.51.17c.33.04.69-.05,1.02-.26l.51-.33-.26-.81h0Z"/>
                <path class="cls-10" d="M505.43,120.76l1.97-.74,1.7-.24h.83l3.21,1.04c1.09.5,1.62,1.73,1.24,2.87l-.69,3.67c.9,2.73.88,4.14.82,6.99-7.1,2.11-11.32-.1-11.67-.47.04-2.17,1.29-3.69,1.47-5.44.31-2.81.26-5.9,1.09-7.69h.04Z"/>
                <path class="cls-38" d="M507.47,120.02s-.94,2.5.77,2.56c1.7.06,2.56-2.54,2.56-2.54l-1.25-.51-2.07.48h-.01Z"/>
                <path class="cls-10" d="M505.84,120.6s-1.35.12-1.99,2.48c-.66,2.34-1.26,2.82-1.26,2.82l2.56.97,1.83-4.87-1.14-1.4h0Z"/>
                <path class="cls-41" d="M504.63,126.7s0,0-.01,0c-.04,0-.07-.05-.06-.09.02-.09.4-2.2.75-3.06.33-.83.28-1.25.28-1.25,0-.04.02-.08.06-.08.04,0,.08.02.08.06,0,.02.06.45-.29,1.33-.34.85-.74,3.01-.74,3.03,0,.04-.04.06-.07.06Z"/>
                <path class="cls-9" d="M511.91,131.82l-.47-6.85c-.17-1.45.79-2.38,2.01-1.96h0c.48.16.87.74.87,1.29l.1,6.63-2.5.9h0Z"/>
                <path class="cls-10" d="M511.34,122.88l-.21,4.51,3.7.2c-.33-.93.37-4.4-.99-6.03-1.51-1.8-2.5,1.35-2.5,1.35h0v-.02h0Z"/>
                <path class="cls-41" d="M510.85,127.18s0,0,0,0c-.04,0-.07-.04-.07-.08l.27-2.96.27-1.06s.05-.06.09-.05c.04.01.06.05.05.09l-.27,1.05-.27,2.95s-.04.07-.07.07Z"/>
                <g>
                  <path class="cls-2" d="M501.75,128.14l-.77,2.48-3.79-4.35.63-2.8c.04-.11.17-.15.24-.06l3.69,4.73h0Z"/>
                  <path class="cls-40" d="M498.91,122.88l1.7,2.18-1.77.87s-1.25.12-1.26.1,1.34-3.16,1.34-3.16h0Z"/>
                  <path class="cls-34" d="M503.56,124.52l-.48-.59c-1.24.11-2.55.64-3.91,1.4-1.35.74-1.54.88-1.54.88l.47.06,5.48-1.75h-.01Z"/>
                  <path class="cls-34" d="M498.88,124.03c.1-.5.12-.97.01-1.15l-.83.4-.72,2.94h.4l.15-.16c.51-.56.87-1.26,1.02-2.02h-.02Z"/>
                  <path class="cls-2" d="M497.57,126.13l-.2.04c-.11.01-.16.15-.07.24l4.09,4.93c.06.07.15.12.24.15l.37.05c.17,0,.28-.2.17-.32l-4-4.83c-.15-.17-.38-.26-.61-.22h0v-.02h.01Z"/>
                  <path class="cls-19" d="M506.41,129.8l-4.21,1.56-4.19-5.15,5-1.65c.33-.11.72,0,.93.28l2.81,3.78c.31.42.12,1.02-.36,1.2h0v-.02h.01Z"/>
                </g>
                <path class="cls-38" d="M507.42,128.51l-.85-.85c-.17-.17-.4-.27-.64-.28l-.98-.06c-.33-.01-.59.31-.5.63h0l1.14,1.02c.26.22.59.36.98.36h.63l.24-.79h-.01Z"/>
                <path class="cls-9" d="M514.43,130.92c-.05,1.52-1.35,1.5-2.65,1.14l-5.82-2.97,1.09-.85,4.72,1.52,2.66,1.15h0Z"/>
                <path class="cls-11" d="M507.09,116.47c-.4-.1-1.7,1.81.94,2.56l.16-2.45-1.1-.11h0Z"/>
                <path class="cls-9" d="M508.15,118.47s.15,1.14.27,2.07c.04.26.2.47.43.56s.5.05.69-.11c.06-.05.12-.1.17-.15.27-.22.38-.58.31-.9-.21-.87-.58-2.43-.58-2.43l-1.3.97h0Z"/>
                <polygon class="cls-5" points="508.17 119.09 508.36 119.95 509.06 118.99 508.17 119.09"/>
                <path class="cls-9" d="M509.42,116.93c-.01-.33-.31-.58-.64-.56-.36.01-.81.05-1.15.07-.33.01-.53.31-.55.64-.04.38.07,1.2.24,1.77.1.32.37.61.69.58.36-.01,1.38-.43,1.45-1.08.05-.5,0-.94-.04-1.42h0Z"/>
                <path class="cls-11" d="M510.59,118s-.37-1.57-.97-1.93c-.81-.48-1.75-.63-2.51.42,0,0,.9,1.14,3.38,1.64l.1-.12h0Z"/>
                <path class="cls-8" d="M507.44,118.6l.58-.05s.04.4-.26.38c-.27,0-.32-.33-.32-.33h0Z"/>
                <path class="cls-11" d="M510.43,117.8c.72.45.87.45,1.46,1.07.56.58,1.1,1.3,1.04,2.23-.04.53-.17.76-.32,1.3-.15.53.04.99.64,1.13-1.62.88-2.54.07-3.15-.67-.33-.42-.4-1.07-.36-1.67s.17-1.24.17-1.85.07-.61-.33-.98c.16-.12.07-.88.24-1.02,0,0,.53.58.59.48h0v-.02h.01,0Z"/>
                <path class="cls-9" d="M509.88,118.23c-.07.26-.31.43-.53.37s-.33-.32-.26-.59c.07-.26.31-.43.53-.37s.33.32.26.59Z"/>
              </g>
              <g>
                <path class="cls-4" d="M574.19,130.14h-5.43v.04h0l-26.77,27.49h0v5.43h32.2v-1.35h0v-31.58h0v-.02h0ZM568.76,137.92v19.73h-19.21l19.21-19.73Z"/>
                <g>
                  <path class="cls-13" d="M576.24,130.14h-5.43v.04h0l-26.77,27.49h0v5.43h32.2v-1.35h0v-31.58h0v-.02h0ZM570.82,137.92v19.73h-19.21l19.21-19.73h0Z"/>
                  <g>
                    <path class="cls-27" d="M546.54,162.98c-.06,0-.12-.05-.12-.12v-1.39c0-.06.05-.12.12-.12s.12.05.12.12v1.39c0,.06-.05.12-.12.12Z"/>
                    <path class="cls-27" d="M549.29,162.98c-.06,0-.12-.05-.12-.12v-1.39c0-.06.05-.12.12-.12s.12.05.12.12v1.39c0,.06-.05.12-.12.12Z"/>
                    <path class="cls-27" d="M552.02,162.98c-.06,0-.12-.05-.12-.12v-1.39c0-.06.05-.12.12-.12s.12.05.12.12v1.39c0,.06-.05.12-.12.12Z"/>
                    <path class="cls-27" d="M554.77,162.98c-.06,0-.12-.05-.12-.12v-1.39c0-.06.05-.12.12-.12s.12.05.12.12v1.39c0,.06-.05.12-.12.12Z"/>
                    <path class="cls-27" d="M557.52,162.98c-.06,0-.12-.05-.12-.12v-1.39c0-.06.05-.12.12-.12s.12.05.12.12v1.39c0,.06-.05.12-.12.12Z"/>
                    <path class="cls-27" d="M560.26,162.98c-.06,0-.12-.05-.12-.12v-1.39c0-.06.05-.12.12-.12s.12.05.12.12v1.39c0,.06-.05.12-.12.12Z"/>
                    <path class="cls-27" d="M563.03,162.98c-.06,0-.12-.05-.12-.12v-1.39c0-.06.05-.12.12-.12s.12.05.12.12v1.39c0,.06-.05.12-.12.12Z"/>
                    <path class="cls-27" d="M565.78,162.98c-.06,0-.12-.05-.12-.12v-1.39c0-.06.05-.12.12-.12s.12.05.12.12v1.39c0,.06-.05.12-.12.12Z"/>
                    <path class="cls-27" d="M568.51,162.98c-.06,0-.12-.05-.12-.12v-1.39c0-.06.05-.12.12-.12s.12.05.12.12v1.39c0,.06-.05.12-.12.12Z"/>
                    <path class="cls-27" d="M571.26,162.98c-.06,0-.12-.05-.12-.12v-1.39c0-.06.05-.12.12-.12s.12.05.12.12v1.39c0,.06-.05.12-.12.12Z"/>
                    <path class="cls-27" d="M574.01,162.98c-.06,0-.12-.05-.12-.12v-1.39c0-.06.05-.12.12-.12s.12.05.12.12v1.39c0,.06-.05.12-.12.12Z"/>
                  </g>
                </g>
                <path class="cls-41" d="M544.05,157.72h-2.06s-.07-.03-.07-.07.03-.07.07-.07h2.02l26.75-27.49s.08-.03.11,0c.03.03.03.08,0,.11l-26.77,27.51s-.03.02-.05.02Z"/>
              </g>
              <path class="cls-37" d="M569.66,116.26s-.09-.04-.09-.09l-.04-.69-.49.47s-.1.03-.13,0c-.04-.04-.03-.1,0-.13l.63-.61s.06-.03.1-.02c.03.01.06.05.06.08l.05.89c0,.05-.04.1-.09.1,0,0,0,0,0,0Z"/>
              <path class="cls-37" d="M576.83,125.42s-.09-.04-.09-.09c0-.05.04-.09.09-.1l.43-.02-.26-.41s-.01-.1.03-.13c.04-.03.1-.01.13.03l.35.55s.02.06,0,.09c-.02.03-.05.05-.08.05l-.59.02s0,0,0,0Z"/>
              <g>
                <path class="cls-9" d="M530.32,154.37s1.3-.05,3.02,3.68c.94,2.04,4.27,6.29,4.27,6.29l1.36-.56-4.25-9.2c-.37-.76-1.68-1.47-2.49-1.61l-1.1.69-.82.67h0v.04Z"/>
                <path class="cls-12" d="M538.52,162.02l-2.76.83s-2.45-2.87-3.11-5.15l-5.98,4.35-4.89-3.94s8.73-5.24,9.27-5.6c.53-.37,2.38-.79,3.34.64.97,1.42,4.17,8.88,4.17,8.88h-.04Z"/>
                <path class="cls-17" d="M538.93,163.64l1.07.79c.22.2,1.41.58,1.41.58h0c.12.24-.11.37-.31.42l-3.51-.04s-1.09-.11-.4-1.67c.64.27,1.56.42,1.72-.06h.01v-.02h0Z"/>
                <path class="cls-9" d="M527.87,154.02c.74,0,1.62-.24,1.85-.93-.5-1.8-1.59-3.96-3.08-6.38-.72-1.29-2.06-1.94-2.77-1.41h0c-.28.21-.26.77.07,1.25l4.17,7.92-.24-.45h0Z"/>
                <path class="cls-7" d="M524.85,145.13l-1.99-.67-3.07-.05-2.5,1.02c-1.15.56-1.5,6.42-1.5,6.42.36,7.31.07,7.26.5,8.75,2.11-.37,3.87-1.15,6.19-1.35,2.6-.2,4.43-2.7,3.84-5.24-.59-2.59-1.04-5.43-1.47-8.88h.01Z"/>
                <path class="cls-38" d="M522.86,144.44s.31,1.96-1.04,2.06c-1.31.07-2.02-2.11-2.02-2.11l.82-.42,2.24.47h0Z"/>
                <path class="cls-9" d="M519.15,154.49l-.16-5.98c-.05-1.64-1.1-2.82-2.23-2.49h0c-.45.12-.82,1.75-.74,2.38l.48,6.22,2.65-.12h0Z"/>
                <path class="cls-9" d="M516.52,154.61c.15,1.25,1.72,1.88,2.7,1.57l3.87-3.13-1.03-.82-3.62,1.45-1.93.92h.01Z"/>
                <path class="cls-7" d="M516.99,145.65s-1.07.69-1.4,3.98l-.07,2.21,3.79-.1s.16-5.55-.99-5.9c-1.15-.35-1.31-.2-1.31-.2h-.01Z"/>
                <path class="cls-7" d="M524.85,145.13s1.68.4,3.52,4.17c0,0-1.1,2.22-2.11,2.06,0,0-1.73-2.32-1.8-2.32s.38-3.91.38-3.91h0Z"/>
                <path class="cls-9" d="M532.55,151.79c.2.11.45.06.59-.1.33-.4.88-1.18.43-1.67-.64-.71-1.62.47-1.62,1.03s.33.59.61.74h-.01,0Z"/>
                <path class="cls-2" d="M519.4,152.08s-.08-.03-.08-.08l-.16-3.17-.34-.46s-.02-.09.02-.11c.04-.03.09-.02.11.02l.36.48s.02.03.02.04l.16,3.2s-.03.08-.08.08c0,0,0,0,0,0Z"/>
                <path class="cls-2" d="M525.28,150.14s-.06-.02-.08-.05l-.76-2.11s0-.03,0-.04l.09-.5s.05-.07.09-.07c.04,0,.07.05.07.09l-.08.47.75,2.09s0,.09-.05.1c0,0-.02,0-.03,0Z"/>
                <g>
                  <path class="cls-2" d="M529.28,151.73l1.25,2.7,3.64-5.54-1.13-3.08c-.05-.12-.21-.15-.28-.04l-3.48,5.96h0Z"/>
                  <path class="cls-40" d="M531.71,145.31l-1.59,2.75,2.13.72s1.45-.05,1.45-.07-2.01-3.38-2.01-3.38h.01,0Z"/>
                  <path class="cls-34" d="M526.68,147.91l.47-.76c1.41-.06,3,.33,4.67.99,1.64.64,1.88.77,1.88.77l-.51.15-6.49-1.15h-.02Z"/>
                  <path class="cls-34" d="M531.91,146.61c-.17-.55-.28-1.08-.21-1.31l1.03.33,1.26,3.25-.45.05-.17-.16c-.67-.56-1.19-1.31-1.46-2.16h0Z"/>
                  <path class="cls-2" d="M533.73,148.8h.22c.12,0,.21.16.12.26l-3.89,6.23c-.06.1-.15.16-.26.2l-.17.05c-.2.05-.5-.1-.5-.1l3.82-6.29c.15-.22.38-.36.66-.33h-.01.01Z"/>
                  <path class="cls-23" d="M524.23,154.32l5.03,1.13,3.98-6.5-5.96-1.13c-.4-.07-.82.11-1.02.48l-2.64,4.72c-.28.51,0,1.18.59,1.3h.01Z"/>
                </g>
                <path class="cls-3" d="M523.04,142.64c.48.4,1.45-.97.21-1.56-1.08-.51-1.25.81-1.24.83.01.04,1.03.72,1.03.72h0Z"/>
                <path class="cls-3" d="M520.23,142.04s-.17,1.34.81,1.57c.72.17,1.23-2.18,1.23-2.18l-2.04.63h.01v-.02Z"/>
                <path class="cls-9" d="M522.55,142.94s-.26,1.03-.47,1.88c-.06.22-.24.4-.5.45-.24.05-.51,0-.71-.2-.06-.06-.12-.11-.17-.16-.26-.24-.36-.58-.24-.88.28-.77.82-2.17.82-2.17l1.26,1.08h0Z"/>
                <polygon class="cls-16" points="522.45 143.63 522.24 144.18 521.74 143.53 522.45 143.63"/>
                <path class="cls-9" d="M521.09,141.53c.01-.31.28-.55.59-.53.32,0,.74.05,1.07.06.31,0,.48.28.51.59.04.37-.07,1.1-.22,1.64-.07.31-.33.56-.64.55-.32,0-1.29-.4-1.34-.99-.04-.45,0-.88.04-1.34h0v.02h0Z"/>
                <path class="cls-3" d="M519.99,142.04s.37-.99.92-1.34c.74-.45,1.62-.58,2.34.37,0,0-.58,1.61-1.61,1.3-.2-.06-.21.32-.48.36-.37.04-.17-.22-.72-.36-.07-.05-.26-.11-.45-.36h0v.02Z"/>
                <path class="cls-9" d="M520.66,142.73c.06.24.28.4.48.33s.31-.31.24-.55-.28-.4-.48-.33-.31.31-.24.55Z"/>
                <path class="cls-8" d="M522.88,142.99h-.47s0,.32.22.28.24-.28.24-.28h.01Z"/>
                <path class="cls-38" d="M521.92,152.32l1.04-.76c.21-.15.48-.22.76-.21l1.13.06c.38,0,.66.38.53.71h0l-1.36.88c-.31.2-.71.27-1.14.24l-.71-.07-.22-.85h-.02,0Z"/>
                <path class="cls-39" d="M516.27,158.95s-1.45,5.81,4.72,5.85c6.17.04,8.51-6.23,8.51-6.23l-1.75,1.34-1.29-.59-2.92-2.68-7.27,2.32h0Z"/>
                <path class="cls-9" d="M524.98,154.43s1.3-.05,3.02,3.68c.94,2.04,4.17,6.17,4.17,6.17l1.45-.42-4.25-9.2c-.37-.76-1.68-1.47-2.49-1.61l-1.1.69-.82.67h.04l-.02.02Z"/>
                <path class="cls-12" d="M533.17,162.08l-3.18.97s-2.06-2.99-2.71-5.28l-5.98,4.35-4.43-2.64s8.25-6.53,8.78-6.9,2.38-.79,3.34.64,4.17,8.88,4.17,8.88h.01v-.02h0Z"/>
                <path class="cls-17" d="M533.57,163.71l1.07.79c.22.2,1.41.58,1.41.58h0c.12.24-.11.37-.31.42l-3.51-.04s-1.09-.07-.4-1.64c.64.27,1.56.38,1.72-.1h.01v-.02h0Z"/>
                <path class="cls-1" d="M528.04,160.39s-.05-.01-.07-.03l-2.3-2.97s-.02-.09.02-.12c.04-.03.09-.02.12.02l2.3,2.97s.02.09-.02.12c-.02.01-.03.02-.05.02Z"/>
              </g>
            </g>
          </g>
        </g>
      </g>
    </g>
  </g>
</svg>