<?xml version="1.0" encoding="UTF-8"?>
<svg id="_x32_7_x5F_環境保護" xmlns="http://www.w3.org/2000/svg" viewBox="0 0 1130 262">
  <defs>
    <style>
      .cls-1 {
        fill: #c1cfb2;
      }

      .cls-1, .cls-2, .cls-3, .cls-4, .cls-5, .cls-6, .cls-7, .cls-8, .cls-9, .cls-10, .cls-11 {
        fill-rule: evenodd;
      }

      .cls-2 {
        fill: #7c8c6b;
      }

      .cls-3 {
        fill: #1eabda;
      }

      .cls-12 {
        fill: #386b44;
      }

      .cls-13, .cls-4 {
        fill: #fff;
      }

      .cls-14 {
        fill: #fcf0f0;
        stroke: #fd6a65;
      }

      .cls-14, .cls-15, .cls-16 {
        stroke-linejoin: round;
        stroke-width: 2px;
      }

      .cls-14, .cls-16 {
        stroke-linecap: round;
      }

      .cls-17 {
        fill: #e2f0d4;
      }

      .cls-18, .cls-19 {
        isolation: isolate;
      }

      .cls-20, .cls-10 {
        fill: #633c1d;
      }

      .cls-21 {
        fill: #b4d691;
      }

      .cls-5, .cls-22 {
        fill: #e3633d;
      }

      .cls-6, .cls-23 {
        fill: #c95836;
      }

      .cls-7, .cls-24 {
        fill: #f5cd7d;
      }

      .cls-25, .cls-11 {
        fill: #458554;
      }

      .cls-8 {
        fill: #572a22;
      }

      .cls-26 {
        fill: #b5cf96;
      }

      .cls-9 {
        fill: #8c9e78;
      }

      .cls-15, .cls-16 {
        fill: none;
        stroke: #484848;
      }

      .cls-27 {
        fill: #484848;
      }

      .cls-28 {
        fill: #2a5241;
      }

      .cls-29 {
        fill: #97b870;
      }

      .cls-30 {
        fill: #fd6a65;
      }

      .cls-16 {
        stroke-dasharray: 5 7;
      }

      .cls-19 {
        mix-blend-mode: multiply;
        opacity: .7;
      }

      .cls-31 {
        fill: #b58e3e;
      }
    </style>
  </defs>
  <g id="g-root-cu_qvwc71nngl58-stroke">
    <g id="cu_qvwc71nngl58-stroke">
      <path class="cls-15" d="M536.02,120.5h13.6c5.74,0,10.4-4.66,10.4-10.4v-.1s0-24.1,0-24.1c0-5.74,4.66-10.4,10.4-10.4h13.6"/>
    </g>
  </g>
  <g>
    <g id="g-root-cu_4pfanxnngl55-stroke">
      <g id="cu_4pfanxnngl55-stroke">
        <path class="cls-16" d="M615.2,101.5v66h18"/>
      </g>
    </g>
    <g id="g-root-cu_9lsjhnnglxf-stroke">
      <g id="cu_9lsjhnnglxf-stroke">
        <path class="cls-16" d="M615.2,101.5v90c0,6.63,4.4,12,9.82,12h.08s8.1,0,8.1,0"/>
      </g>
    </g>
    <g id="g-root-cu_4pfanxnngl55-stroke-2" data-name="g-root-cu_4pfanxnngl55-stroke">
      <g id="cu_4pfanxnngl55-stroke-2" data-name="cu_4pfanxnngl55-stroke">
        <path class="cls-16" d="M615.2,100.91v29.63h18"/>
      </g>
    </g>
  </g>
  <g id="c240">
    <g id="tx__dfg14tnngnb9-fill">
      <g class="cls-18">
        <g class="cls-18">
          <path class="cls-27" d="M641.18,209.36h17.74v.94h-17.74v-.94ZM645.16,193.18l.96.22c-.28,1.03-.62,2.02-1.02,2.99-.4.97-.84,1.87-1.32,2.7-.48.83-.99,1.57-1.52,2.21-.07-.05-.15-.12-.26-.19-.11-.07-.22-.15-.33-.22-.11-.07-.21-.12-.29-.15.56-.61,1.08-1.32,1.55-2.12.47-.8.9-1.66,1.27-2.59.37-.93.69-1.88.96-2.85ZM643.3,202.7h14.02v.94h-14.02v-.94ZM644.22,196.86h13.8v.94h-13.8v-.94ZM649.56,192.82h1v17.02h-1v-17.02Z"/>
          <path class="cls-27" d="M661.64,197.22c-.03-.07-.06-.16-.09-.27s-.07-.23-.1-.36c-.03-.13-.08-.22-.13-.29.15-.03.31-.09.49-.19.18-.1.36-.23.55-.39.15-.12.38-.33.71-.64s.68-.67,1.06-1.09c.38-.42.73-.85,1.05-1.29l.92.38c-.6.71-1.22,1.38-1.87,2.01-.65.63-1.28,1.17-1.91,1.61v.02c-.13.07-.25.12-.34.17-.09.05-.17.1-.24.16-.07.06-.1.12-.1.17ZM662.98,206.38l.82.32c-.19.57-.42,1.21-.7,1.9-.28.69-.59,1.27-.94,1.74l-.82-.42c.24-.31.46-.66.66-1.07.2-.41.39-.83.56-1.26.17-.43.31-.84.42-1.21ZM662.5,197.98h.86v3.28c0,.48-.03,1-.08,1.55-.05.55-.17,1.1-.34,1.63s-.44,1.02-.8,1.46c-.04-.05-.1-.12-.18-.2s-.16-.16-.25-.23c-.09-.07-.16-.13-.23-.17.31-.4.53-.83.68-1.3.15-.47.24-.94.28-1.41.04-.47.06-.92.06-1.33v-3.28ZM661.64,197.22l-.02-.68.6-.36,6.88-.44c.03.11.06.24.09.39s.06.28.09.37c-1.31.09-2.4.18-3.28.25s-1.59.13-2.14.18c-.55.05-.97.09-1.26.12-.29.03-.51.06-.65.09-.14.03-.24.05-.31.08ZM663.08,197.98h5.48v.84h-5.48v-.84ZM663.46,202.9c.64-.13,1.39-.31,2.25-.52.86-.21,1.76-.43,2.69-.66l.06.64c-.81.24-1.62.47-2.41.7-.79.23-1.54.43-2.23.62l-.36-.78ZM663.86,200.14l.4-.54c.4.12.82.26,1.26.42.44.16.86.32,1.27.47s.74.3,1.01.45l-.38.6c-.28-.13-.62-.28-1.03-.45-.41-.17-.83-.33-1.27-.5-.44-.17-.86-.32-1.26-.45ZM665.72,206.54h.96v2.7c0,.24.09.4.26.47s.57.11,1.2.11h4.62c.33,0,.58-.04.75-.13.17-.09.28-.28.35-.59.07-.31.11-.77.14-1.38.12.08.26.15.42.21.16.06.31.1.44.13-.03.71-.1,1.25-.23,1.63-.13.38-.33.64-.6.79-.27.15-.67.22-1.19.22h-4.68c-.64,0-1.14-.04-1.49-.12-.35-.08-.6-.22-.74-.43-.14-.21-.21-.5-.21-.89v-2.72ZM668.14,197.98h.88v6.5c0,.27-.03.46-.1.59s-.21.23-.42.31c-.2.08-.49.13-.87.14-.38.01-.87.02-1.47.02-.03-.12-.07-.25-.14-.39-.07-.14-.13-.26-.2-.37h2c.13-.01.22-.04.26-.08s.06-.11.06-.22v-6.5ZM666.92,194.28l.72-.38c.35.31.7.65,1.05,1.04.35.39.68.76.99,1.13.31.37.55.7.74.99l-.74.48c-.17-.31-.41-.65-.72-1.02-.31-.37-.64-.76-.99-1.15-.35-.39-.7-.76-1.05-1.09ZM668.98,205.94l.66-.44c.39.39.79.81,1.22,1.28s.76.85,1,1.16l-.64.56c-.25-.33-.59-.74-1.02-1.23-.43-.49-.83-.93-1.22-1.33ZM671.62,199.46h.92v4.36c0,.23.06.38.19.45.13.07.41.11.85.11h3.3c.23,0,.4-.03.51-.1.11-.07.2-.21.25-.44.05-.23.09-.57.1-1.02.11.07.24.13.41.18.17.05.31.1.43.14-.04.56-.11.99-.21,1.3s-.26.52-.47.63-.52.17-.92.17h-3.42c-.51,0-.9-.04-1.19-.11-.29-.07-.48-.21-.59-.42-.11-.21-.16-.5-.16-.87v-4.38ZM671.64,192.96h.92v3.78c0,.29.04.49.12.6.08.11.25.16.52.16h3.56c.2,0,.44,0,.73-.03.29-.02.51-.04.67-.05.03.12.05.26.06.42.01.16.03.29.04.4-.13.03-.34.05-.61.06-.27.01-.56.02-.85.02h-3.62c-.41,0-.73-.05-.95-.16-.22-.11-.37-.27-.46-.5-.09-.23-.13-.54-.13-.94v-3.76ZM672.1,201.24h5.4v.84h-5.4v-.84ZM672.14,194.6h5.38v.84h-5.38v-.84ZM675.76,206.52l.86-.24c.23.39.45.8.67,1.24.22.44.42.87.61,1.28.19.41.33.78.44,1.1l-.9.32c-.11-.32-.25-.69-.44-1.12-.19-.43-.39-.87-.6-1.32s-.43-.87-.64-1.26Z"/>
          <path class="cls-27" d="M689.58,192.9h1.04c-.01.53-.04,1.24-.09,2.13s-.15,1.88-.32,2.99c-.17,1.11-.43,2.26-.8,3.45-.37,1.19-.87,2.37-1.52,3.54-.65,1.17-1.47,2.26-2.46,3.28-.99,1.02-2.2,1.89-3.63,2.61-.08-.12-.19-.25-.34-.39-.15-.14-.29-.26-.42-.35,1.41-.69,2.61-1.53,3.58-2.51.97-.98,1.77-2.03,2.39-3.16.62-1.13,1.1-2.27,1.45-3.43.35-1.16.6-2.27.76-3.33.16-1.06.26-2.01.3-2.85s.06-1.5.06-1.98ZM690.46,195.4c.04.21.1.64.19,1.28.09.64.24,1.41.46,2.32.22.91.53,1.88.92,2.92.39,1.04.91,2.07,1.54,3.1.63,1.03,1.41,1.98,2.33,2.85s2.01,1.6,3.28,2.17c-.13.09-.27.22-.4.37s-.23.3-.3.43c-1.29-.6-2.41-1.35-3.35-2.26-.94-.91-1.73-1.89-2.36-2.96s-1.15-2.14-1.56-3.22-.72-2.09-.95-3.04c-.23-.95-.39-1.77-.49-2.46s-.18-1.17-.23-1.42l.92-.08Z"/>
          <path class="cls-27" d="M714.9,196.86l1,.3c-.88,2.41-1.98,4.5-3.3,6.25-1.32,1.75-2.9,3.24-4.73,4.46-1.83,1.22-3.96,2.24-6.37,3.05-.04-.07-.1-.16-.17-.27-.07-.11-.15-.23-.23-.35s-.15-.21-.22-.28c2.39-.75,4.48-1.7,6.28-2.87,1.8-1.17,3.34-2.6,4.61-4.29,1.27-1.69,2.32-3.69,3.13-6ZM701.1,196.44h17.94v.94h-17.94v-.94ZM705,196.9c.8,2.13,1.87,4.07,3.21,5.82,1.34,1.75,2.93,3.24,4.77,4.48s3.92,2.17,6.24,2.78c-.07.07-.14.15-.23.26-.09.11-.17.21-.25.32-.08.11-.15.21-.2.3-2.36-.65-4.47-1.62-6.32-2.91-1.85-1.29-3.45-2.84-4.8-4.66s-2.45-3.85-3.3-6.09l.88-.3ZM708.62,193.02l.96-.3c.33.48.66,1.01.98,1.6s.56,1.09.72,1.5l-1.02.34c-.15-.41-.38-.92-.69-1.51-.31-.59-.63-1.14-.95-1.63Z"/>
          <path class="cls-27" d="M721.18,206.02h17.76v.88h-17.76v-.88ZM721.66,199.96h16.8v3.38h-.96v-2.56h-14.9v2.56h-.94v-3.38ZM726.7,193.04l.5.64c-.56.21-1.2.39-1.93.53-.73.14-1.38.25-1.97.33l-.38-.6c.37-.07.79-.15,1.26-.26.47-.11.92-.22,1.37-.34s.83-.22,1.15-.3ZM722.92,193.94l.96.28.4,6.22h-.92l-.44-6.5ZM723.5,195.72h3.58v.76h-3.58v-.76ZM723.62,197.82h3.58v.76h-3.58v-.76ZM724.78,202.44h9.88v.8h-9.88v-.8ZM729.72,204.96h.96v4.8c0,.29-.05.52-.14.67s-.27.27-.54.35c-.25.08-.63.12-1.13.13s-1.16,0-1.99,0c-.03-.12-.08-.26-.15-.41s-.14-.3-.21-.43c.47.01.89.02,1.27.03.38,0,.7,0,.97,0,.27,0,.45-.01.56-.01.16,0,.27-.03.32-.08.05-.05.08-.15.08-.28v-4.78ZM731.18,196.4l.76.24c-.48.63-1.08,1.23-1.79,1.8s-1.43,1.05-2.15,1.44c-.05-.08-.15-.18-.28-.3-.13-.12-.24-.21-.32-.28.71-.35,1.41-.77,2.1-1.28.69-.51,1.25-1.05,1.68-1.62ZM731.12,193.04l.76.2c-.45.61-1.02,1.2-1.71,1.75-.69.55-1.36,1.02-2.03,1.39-.07-.07-.17-.16-.3-.27s-.25-.2-.34-.27c.69-.35,1.37-.76,2.02-1.25.65-.49,1.19-1,1.6-1.55ZM727.82,197.16l.54-.48c.47.21.95.46,1.45.74s.97.57,1.41.87c.44.3.8.59,1.08.87l-.58.58c-.27-.28-.62-.57-1.05-.88s-.9-.61-1.39-.91-.98-.56-1.46-.79ZM727.86,193.86l.54-.52c.45.2.92.43,1.41.69.49.26.95.53,1.39.8s.79.54,1.06.79l-.54.58c-.28-.25-.63-.52-1.05-.81-.42-.29-.88-.56-1.37-.83-.49-.27-.97-.5-1.44-.7ZM734.42,202.44h.24l.22-.06.6.5c-.45.36-.97.7-1.56,1.03-.59.33-1.19.63-1.82.9-.63.27-1.24.51-1.84.71-.07-.09-.15-.19-.25-.3-.1-.11-.2-.19-.29-.26.57-.17,1.15-.39,1.74-.64.59-.25,1.14-.53,1.67-.83s.96-.58,1.29-.85v-.2ZM732.82,197.82h3.64v.76h-3.64v-.76ZM732.84,193.62h3.94v.78h-3.94v-.78ZM732.94,195.72h3.72v.76h-3.72v-.76ZM736.38,193.62h.92c-.04.73-.09,1.52-.14,2.36-.05.84-.11,1.66-.18,2.45-.07.79-.13,1.47-.2,2.03h-.94c.08-.57.16-1.26.23-2.06.07-.8.14-1.62.19-2.46.05-.84.09-1.61.12-2.32Z"/>
          <path class="cls-27" d="M746.26,205.48l.96.34c-.4.53-.85,1.07-1.36,1.6s-1.03,1.03-1.57,1.49-1.07.88-1.59,1.25c-.07-.05-.15-.12-.25-.2-.1-.08-.2-.16-.31-.23-.11-.07-.21-.14-.3-.19.81-.52,1.62-1.14,2.41-1.86.79-.72,1.46-1.45,2.01-2.2ZM754.34,192.88l.7.78c-.77.37-1.66.74-2.67,1.09-1.01.35-2.08.69-3.21,1-1.13.31-2.29.61-3.46.88-1.17.27-2.33.54-3.46.79-.03-.13-.07-.27-.14-.42-.07-.15-.13-.27-.18-.38,1.12-.25,2.26-.52,3.43-.81,1.17-.29,2.31-.59,3.42-.9s2.15-.64,3.11-.98,1.78-.69,2.46-1.05ZM742.52,204.96c-.01-.09-.04-.2-.07-.31-.03-.11-.07-.24-.11-.37-.04-.13-.08-.24-.12-.32.28-.03.65-.12,1.12-.29.47-.17,1-.38,1.6-.65.35-.16.85-.4,1.51-.72.66-.32,1.42-.71,2.27-1.18.85-.47,1.75-.98,2.68-1.54.93-.56,1.83-1.14,2.68-1.74l.78.62c-1.93,1.31-3.87,2.46-5.8,3.45-1.93.99-3.85,1.85-5.74,2.57v.04c-.16.04-.29.08-.4.13-.11.05-.2.1-.28.15-.08.05-.12.11-.12.16ZM742.52,204.96l-.02-.76.8-.42,13.5-.92c-.01.13-.02.29-.02.46v.42c-2.09.15-3.89.27-5.39.38s-2.76.2-3.77.27c-1.01.07-1.83.14-2.46.19-.63.05-1.11.1-1.45.14s-.6.08-.77.11-.31.08-.42.13ZM743.74,200.86c-.01-.08-.04-.18-.07-.31-.03-.13-.07-.25-.11-.38s-.08-.23-.12-.31c.21-.03.45-.09.71-.18.26-.09.55-.23.87-.4.23-.12.6-.34,1.13-.66s1.11-.7,1.76-1.15c.65-.45,1.26-.92,1.83-1.41l.9.54c-1.01.79-2.04,1.5-3.07,2.13-1.03.63-2.05,1.17-3.05,1.61v.02c-.16.05-.29.11-.4.16-.11.05-.2.11-.27.17-.07.06-.11.12-.11.17ZM743.74,200.86l-.02-.76.7-.32,7.5-.42c-.03.13-.05.28-.06.45-.01.17-.03.3-.04.39-1.39.08-2.54.15-3.47.21-.93.06-1.68.11-2.25.15-.57.04-1.02.08-1.33.11-.31.03-.54.06-.69.09-.15.03-.26.06-.34.1ZM749.78,203.62h.98v5.98c0,.32-.05.56-.14.73-.09.17-.27.3-.54.39-.27.08-.64.13-1.12.15-.48.02-1.09.03-1.82.03-.03-.15-.08-.31-.15-.49-.07-.18-.16-.34-.25-.49.45.01.86.02,1.22.03s.66,0,.91,0,.42,0,.51-.02c.16-.01.27-.04.32-.09.05-.05.08-.13.08-.25v-5.98ZM752.98,205.84l.72-.5c.56.43,1.14.89,1.73,1.38.59.49,1.15.98,1.67,1.46.52.48.95.91,1.3,1.28l-.78.58c-.33-.37-.76-.81-1.27-1.3-.51-.49-1.06-1-1.65-1.51-.59-.51-1.16-.98-1.72-1.39ZM753.56,200.64l.8-.4c.52.45,1.05.94,1.59,1.47.54.53,1.04,1.04,1.49,1.55.45.51.82.95,1.1,1.34l-.82.5c-.28-.4-.65-.86-1.11-1.38-.46-.52-.96-1.05-1.49-1.59-.53-.54-1.05-1.04-1.56-1.49Z"/>
        </g>
      </g>
    </g>
  </g>
  <g id="c239">
    <g id="tx__hv9j99nngmj0-fill">
      <g class="cls-18">
        <g class="cls-18">
          <path class="cls-27" d="M647.08,162.08h.22l.18-.06.62.26c-.33,1.71-.82,3.24-1.45,4.6s-1.36,2.54-2.19,3.55c-.83,1.01-1.72,1.84-2.68,2.49-.05-.08-.13-.17-.22-.27-.09-.1-.19-.2-.29-.29-.1-.09-.19-.16-.27-.2.95-.61,1.82-1.39,2.63-2.33.81-.94,1.51-2.04,2.1-3.3.59-1.26,1.04-2.66,1.35-4.21v-.24ZM641.6,162.08h5.76v.96h-5.76v-.96ZM649.52,156.88h1.02v16.64c0,.39-.06.68-.17.87-.11.19-.3.34-.55.43-.24.08-.59.13-1.04.16-.45.03-1.05.04-1.8.04-.01-.09-.04-.2-.09-.33-.05-.13-.09-.25-.14-.38-.05-.13-.1-.24-.15-.33.59.01,1.11.02,1.58.02s.77,0,.92-.02c.15-.01.25-.05.32-.1s.1-.17.1-.34v-16.66ZM650.46,161.48c.44,1.07.98,2.13,1.62,3.18s1.35,2.05,2.13,2.98c.78.93,1.61,1.77,2.5,2.5.89.73,1.79,1.33,2.71,1.78-.07.07-.14.15-.23.25-.09.1-.17.2-.26.31-.09.11-.16.2-.23.28-.92-.49-1.82-1.13-2.71-1.91-.89-.78-1.72-1.66-2.5-2.64-.78-.98-1.49-2.02-2.13-3.12-.64-1.1-1.19-2.22-1.66-3.37l.76-.24ZM656.54,160.74l.88.6c-.44.53-.93,1.1-1.46,1.69-.53.59-1.07,1.16-1.61,1.71s-1.05,1.03-1.53,1.44l-.64-.52c.45-.43.95-.93,1.49-1.5s1.06-1.16,1.57-1.76c.51-.6.94-1.15,1.3-1.66Z"/>
          <path class="cls-27" d="M661.14,173.12h17.78v.94h-17.78v-.94ZM662.4,163.38h15.26v.96h-15.26v-.96ZM669.48,156.9h1v16.76h-1v-16.76Z"/>
          <path class="cls-27" d="M685.82,156.88l.92.28c-.45,1.12-.98,2.21-1.57,3.28-.59,1.07-1.23,2.07-1.92,3-.69.93-1.39,1.77-2.11,2.5-.04-.07-.1-.16-.17-.28-.07-.12-.15-.23-.22-.34s-.15-.2-.23-.28c.71-.67,1.38-1.43,2.03-2.3.65-.87,1.25-1.8,1.82-2.8.57-1,1.05-2.02,1.45-3.06ZM683.62,161.82l.9-.92.04.02v14.02h-.94v-13.12ZM685.98,166.62h13.12v.9h-13.12v-.9ZM689.56,168.7l.88.3c-.33.56-.71,1.14-1.13,1.74-.42.6-.84,1.17-1.27,1.72s-.84,1.04-1.24,1.48c-.04-.05-.11-.12-.2-.19-.09-.07-.19-.14-.3-.21-.11-.07-.19-.13-.26-.18.6-.63,1.22-1.36,1.85-2.2.63-.84,1.19-1.66,1.67-2.46ZM687.56,157.8h10.26v6.06h-10.26v-6.06ZM688.5,158.68v4.26h8.36v-4.26h-8.36ZM692.16,163.54h.96v11.46h-.96v-11.46ZM694.52,169.12l.74-.42c.48.48.96,1,1.45,1.57.49.57.94,1.12,1.35,1.66.41.54.75,1.02,1,1.43l-.8.52c-.25-.43-.59-.92-1-1.47-.41-.55-.86-1.12-1.33-1.7-.47-.58-.94-1.11-1.41-1.59Z"/>
          <path class="cls-27" d="M700.66,167.72c.76-.24,1.69-.54,2.8-.9,1.11-.36,2.23-.74,3.36-1.14l.14.92c-1.05.36-2.11.72-3.16,1.09-1.05.37-2,.7-2.84,1.01l-.3-.98ZM700.92,160.98h6.06v.94h-6.06v-.94ZM703.7,156.82h.92v16.84c0,.32-.05.56-.14.73s-.25.29-.46.37c-.2.08-.49.13-.86.15-.37.02-.87.02-1.5,0-.01-.11-.05-.25-.12-.42-.07-.17-.13-.33-.2-.48.48.01.9.02,1.27.02s.61,0,.73-.02c.12,0,.21-.02.27-.07.06-.05.09-.14.09-.29v-16.84ZM707.3,159.6h11.84v.9h-11.84v-.9ZM707.54,167.02h11.46v.92h-11.46v-.92ZM708.3,163.46h9.86v.9h-9.86v-.9ZM709.24,169.22l.72-.42c.28.36.57.75.86,1.18s.57.84.83,1.24c.26.4.47.75.63,1.06l-.76.52c-.15-.31-.35-.67-.61-1.08-.26-.41-.53-.84-.82-1.29-.29-.45-.57-.85-.85-1.21ZM715.42,164.98h.94v8.68c0,.35-.05.61-.14.79-.09.18-.27.32-.54.41-.24.08-.6.13-1.07.15-.47.02-1.09.03-1.85.03-.03-.15-.07-.31-.13-.5s-.13-.35-.21-.48c.64.01,1.2.02,1.67.02s.8,0,.97-.02c.15,0,.24-.03.29-.09.05-.06.07-.16.07-.31v-8.68ZM712.76,156.92h.92v7.08h-.92v-7.08Z"/>
          <path class="cls-27" d="M721.18,170.02h17.76v.88h-17.76v-.88ZM721.66,163.96h16.8v3.38h-.96v-2.56h-14.9v2.56h-.94v-3.38ZM726.7,157.04l.5.64c-.56.21-1.2.39-1.93.53-.73.14-1.38.25-1.97.33l-.38-.6c.37-.07.79-.15,1.26-.26.47-.11.92-.22,1.37-.34s.83-.22,1.15-.3ZM722.92,157.94l.96.28.4,6.22h-.92l-.44-6.5ZM723.5,159.72h3.58v.76h-3.58v-.76ZM723.62,161.82h3.58v.76h-3.58v-.76ZM724.78,166.44h9.88v.8h-9.88v-.8ZM729.72,168.96h.96v4.8c0,.29-.05.52-.14.67s-.27.27-.54.35c-.25.08-.63.12-1.13.13s-1.16,0-1.99,0c-.03-.12-.08-.26-.15-.41s-.14-.3-.21-.43c.47.01.89.02,1.27.03.38,0,.7,0,.97,0,.27,0,.45-.01.56-.01.16,0,.27-.03.32-.08.05-.05.08-.15.08-.28v-4.78ZM731.18,160.4l.76.24c-.48.63-1.08,1.23-1.79,1.8s-1.43,1.05-2.15,1.44c-.05-.08-.15-.18-.28-.3-.13-.12-.24-.21-.32-.28.71-.35,1.41-.77,2.1-1.28.69-.51,1.25-1.05,1.68-1.62ZM731.12,157.04l.76.2c-.45.61-1.02,1.2-1.71,1.75-.69.55-1.36,1.02-2.03,1.39-.07-.07-.17-.16-.3-.27s-.25-.2-.34-.27c.69-.35,1.37-.76,2.02-1.25.65-.49,1.19-1,1.6-1.55ZM727.82,161.16l.54-.48c.47.21.95.46,1.45.74s.97.57,1.41.87c.44.3.8.59,1.08.87l-.58.58c-.27-.28-.62-.57-1.05-.88s-.9-.61-1.39-.91-.98-.56-1.46-.79ZM727.86,157.86l.54-.52c.45.2.92.43,1.41.69.49.26.95.53,1.39.8s.79.54,1.06.79l-.54.58c-.28-.25-.63-.52-1.05-.81-.42-.29-.88-.56-1.37-.83-.49-.27-.97-.5-1.44-.7ZM734.42,166.44h.24l.22-.06.6.5c-.45.36-.97.7-1.56,1.03-.59.33-1.19.63-1.82.9-.63.27-1.24.51-1.84.71-.07-.09-.15-.19-.25-.3-.1-.11-.2-.19-.29-.26.57-.17,1.15-.39,1.74-.64.59-.25,1.14-.53,1.67-.83s.96-.58,1.29-.85v-.2ZM732.82,161.82h3.64v.76h-3.64v-.76ZM732.84,157.62h3.94v.78h-3.94v-.78ZM732.94,159.72h3.72v.76h-3.72v-.76ZM736.38,157.62h.92c-.04.73-.09,1.52-.14,2.36-.05.84-.11,1.66-.18,2.45-.07.79-.13,1.47-.2,2.03h-.94c.08-.57.16-1.26.23-2.06.07-.8.14-1.62.19-2.46.05-.84.09-1.61.12-2.32Z"/>
          <path class="cls-27" d="M746.26,169.48l.96.34c-.4.53-.85,1.07-1.36,1.6s-1.03,1.03-1.57,1.49-1.07.88-1.59,1.25c-.07-.05-.15-.12-.25-.2-.1-.08-.2-.16-.31-.23-.11-.07-.21-.14-.3-.19.81-.52,1.62-1.14,2.41-1.86.79-.72,1.46-1.45,2.01-2.2ZM754.34,156.88l.7.78c-.77.37-1.66.74-2.67,1.09-1.01.35-2.08.69-3.21,1-1.13.31-2.29.61-3.46.88-1.17.27-2.33.54-3.46.79-.03-.13-.07-.27-.14-.42-.07-.15-.13-.27-.18-.38,1.12-.25,2.26-.52,3.43-.81,1.17-.29,2.31-.59,3.42-.9s2.15-.64,3.11-.98,1.78-.69,2.46-1.05ZM742.52,168.96c-.01-.09-.04-.2-.07-.31-.03-.11-.07-.24-.11-.37-.04-.13-.08-.24-.12-.32.28-.03.65-.12,1.12-.29.47-.17,1-.38,1.6-.65.35-.16.85-.4,1.51-.72.66-.32,1.42-.71,2.27-1.18.85-.47,1.75-.98,2.68-1.54.93-.56,1.83-1.14,2.68-1.74l.78.62c-1.93,1.31-3.87,2.46-5.8,3.45-1.93.99-3.85,1.85-5.74,2.57v.04c-.16.04-.29.08-.4.13-.11.05-.2.1-.28.15-.08.05-.12.11-.12.16ZM742.52,168.96l-.02-.76.8-.42,13.5-.92c-.01.13-.02.29-.02.46v.42c-2.09.15-3.89.27-5.39.38s-2.76.2-3.77.27c-1.01.07-1.83.14-2.46.19-.63.05-1.11.1-1.45.14s-.6.08-.77.11-.31.08-.42.13ZM743.74,164.86c-.01-.08-.04-.18-.07-.31-.03-.13-.07-.25-.11-.38s-.08-.23-.12-.31c.21-.03.45-.09.71-.18.26-.09.55-.23.87-.4.23-.12.6-.34,1.13-.66s1.11-.7,1.76-1.15c.65-.45,1.26-.92,1.83-1.41l.9.54c-1.01.79-2.04,1.5-3.07,2.13-1.03.63-2.05,1.17-3.05,1.61v.02c-.16.05-.29.11-.4.16-.11.05-.2.11-.27.17-.07.06-.11.12-.11.17ZM743.74,164.86l-.02-.76.7-.32,7.5-.42c-.03.13-.05.28-.06.45-.01.17-.03.3-.04.39-1.39.08-2.54.15-3.47.21-.93.06-1.68.11-2.25.15-.57.04-1.02.08-1.33.11-.31.03-.54.06-.69.09-.15.03-.26.06-.34.1ZM749.78,167.62h.98v5.98c0,.32-.05.56-.14.73-.09.17-.27.3-.54.39-.27.08-.64.13-1.12.15-.48.02-1.09.03-1.82.03-.03-.15-.08-.31-.15-.49-.07-.18-.16-.34-.25-.49.45.01.86.02,1.22.03s.66,0,.91,0,.42,0,.51-.02c.16-.01.27-.04.32-.09.05-.05.08-.13.08-.25v-5.98ZM752.98,169.84l.72-.5c.56.43,1.14.89,1.73,1.38.59.49,1.15.98,1.67,1.46.52.48.95.91,1.3,1.28l-.78.58c-.33-.37-.76-.81-1.27-1.3-.51-.49-1.06-1-1.65-1.51-.59-.51-1.16-.98-1.72-1.39ZM753.56,164.64l.8-.4c.52.45,1.05.94,1.59,1.47.54.53,1.04,1.04,1.49,1.55.45.51.82.95,1.1,1.34l-.82.5c-.28-.4-.65-.86-1.11-1.38-.46-.52-.96-1.05-1.49-1.59-.53-.54-1.05-1.04-1.56-1.49Z"/>
        </g>
      </g>
    </g>
  </g>
  <g id="c238">
    <g id="tx__qqwji5nnglqb-fill">
      <g class="cls-18">
        <g class="cls-18">
          <path class="cls-27" d="M640.7,135.84c.71-.2,1.54-.46,2.51-.77s1.96-.64,2.97-.99l.12.88c-.95.32-1.89.64-2.82.96-.93.32-1.78.61-2.54.86l-.24-.94ZM640.92,122.3h5.36v.9h-5.36v-.9ZM641.16,128.12h4.84v.9h-4.84v-.9ZM643.22,122.76h.88v12.52l-.88.28v-12.8ZM652.34,132.34l.72.34c-.48.51-1.08,1.01-1.79,1.5-.71.49-1.46.93-2.24,1.32-.78.39-1.54.7-2.27.94-.07-.11-.16-.23-.27-.37-.11-.14-.22-.25-.31-.33.73-.21,1.49-.49,2.27-.84.78-.35,1.51-.74,2.2-1.19.69-.45,1.25-.9,1.69-1.37ZM646.88,126.84h12v.84h-12v-.84ZM647.8,121.54h10.4v4.08h-10.4v-4.08ZM648.36,129h9.16v3.98h-9.16v-3.98ZM649.04,138.9c-.03-.12-.08-.26-.17-.43-.09-.17-.17-.3-.25-.39.12-.07.25-.19.4-.36.15-.17.22-.45.22-.82v-2.1l.84-.22v3.32c-.2.13-.37.25-.51.36-.14.11-.26.22-.37.33-.11.11-.16.22-.16.31ZM648.66,122.34v2.5h2.28v-2.5h-2.28ZM649.04,138.9l-.02-.74.5-.4,4.22-1.06v.38c0,.15,0,.27.02.36-.97.28-1.76.5-2.35.67-.59.17-1.05.3-1.36.39-.31.09-.54.17-.68.23-.14.06-.25.12-.33.17ZM649.26,129.82v2.34h7.34v-2.34h-7.34ZM651.72,122.34v2.5h2.38v-2.5h-2.38ZM653.5,132.5c.31.85.73,1.65,1.28,2.4.55.75,1.2,1.39,1.97,1.93.77.54,1.62.94,2.55,1.21-.11.08-.22.2-.34.35s-.21.3-.28.43c-1.45-.47-2.69-1.25-3.71-2.34-1.02-1.09-1.77-2.35-2.25-3.78l.78-.2ZM657.86,133.4l.7.6c-.52.36-1.1.72-1.74,1.09-.64.37-1.23.68-1.76.93l-.56-.48c.35-.19.73-.41,1.14-.66.41-.25.82-.51,1.22-.77.4-.26.73-.5,1-.71ZM654.88,122.34v2.5h2.42v-2.5h-2.42Z"/>
          <path class="cls-27" d="M660.82,135.16c.51-.16,1.08-.36,1.71-.59s1.31-.48,2.02-.75,1.42-.54,2.13-.82l.2.9c-1.01.4-2.02.79-3.01,1.18-.99.39-1.9.74-2.71,1.06l-.34-.98ZM661.14,125.76h5.38v.92h-5.38v-.92ZM663.48,121.02h.96v13.4h-.96v-13.4ZM670.78,133.5h.94c-.07.8-.19,1.5-.38,2.11s-.47,1.13-.84,1.56c-.37.43-.87.8-1.48,1.11-.61.31-1.39.57-2.32.78-.03-.08-.07-.17-.13-.27-.06-.1-.12-.19-.19-.28s-.14-.16-.22-.23c.87-.17,1.59-.39,2.16-.65s1.03-.58,1.37-.95c.34-.37.59-.82.76-1.34.17-.52.28-1.13.33-1.84ZM667.38,126.08h11.04v.88h-11.04v-.88ZM667.98,122.44h9.92v.86h-9.92v-.86ZM668.42,128.22h8.88v5.52h-8.88v-5.52ZM669.34,129.02v1.58h7.02v-1.58h-7.02ZM669.34,131.34v1.62h7.02v-1.62h-7.02ZM669.66,123.8l.84-.2c.15.33.3.7.45,1.1.15.4.26.75.33,1.04l-.86.26c-.07-.29-.17-.65-.31-1.06-.14-.41-.29-.79-.45-1.14ZM671.88,120.9l.88-.2c.17.31.34.64.5,1.01.16.37.29.68.38.95l-.94.26c-.09-.28-.21-.61-.36-.98-.15-.37-.3-.72-.46-1.04ZM673.72,133.52h.94v3.66c0,.37.07.59.2.66.15.05.38.08.7.08h1.2c.16,0,.32,0,.48-.02.16-.01.29-.03.38-.04.2-.07.33-.23.4-.48.03-.15.05-.37.06-.68.01-.31.03-.68.04-1.12.09.09.22.17.38.24s.31.13.44.18c-.01.41-.03.81-.06,1.19-.03.38-.07.64-.14.79-.13.31-.36.51-.68.6-.13.05-.32.09-.56.11-.24.02-.46.03-.66.03h-1.4c-.21,0-.44-.02-.68-.06-.24-.04-.43-.11-.58-.2-.17-.09-.29-.24-.36-.43-.07-.19-.1-.53-.1-1.01v-3.5ZM675.1,123.66l.92.28c-.19.44-.39.9-.61,1.38-.22.48-.43.89-.63,1.22l-.78-.26c.2-.36.4-.79.61-1.3s.37-.95.49-1.32Z"/>
          <path class="cls-27" d="M681.08,125.26h5.6v.86h-5.6v-.86ZM687.14,136.2l.88.4c-.53.29-1.15.59-1.84.88-.69.29-1.41.56-2.15.81-.74.25-1.44.46-2.09.63-.04-.07-.1-.15-.19-.24-.09-.09-.18-.19-.27-.28-.09-.09-.18-.17-.26-.24.68-.15,1.38-.32,2.11-.53.73-.21,1.42-.43,2.08-.67.66-.24,1.24-.49,1.73-.76ZM681.52,122.12h4.62v.84h-4.62v-.84ZM683.74,127.84h12.8v8.02h-12.8v-8.02ZM684.7,128.6v1.64h10.88v-1.64h-10.88ZM684.7,131v1.68h10.88v-1.68h-10.88ZM684.7,133.42v1.7h10.88v-1.7h-10.88ZM692.42,122.62h.94v.62c0,.39-.06.78-.19,1.19-.13.41-.39.81-.8,1.2-.41.39-1.02.76-1.85,1.1-.83.34-1.94.64-3.34.89-.05-.12-.13-.26-.24-.41-.11-.15-.21-.27-.32-.35,1.35-.21,2.41-.47,3.19-.76.78-.29,1.36-.61,1.73-.94.37-.33.61-.67.72-1,.11-.33.16-.65.16-.94v-.6ZM689.86,120.8l.88.18c-.25.83-.6,1.62-1.04,2.37-.44.75-.91,1.4-1.42,1.93-.04-.07-.11-.13-.2-.19-.09-.06-.19-.12-.29-.18-.1-.06-.19-.11-.27-.15.52-.51.98-1.11,1.38-1.8s.72-1.41.96-2.16ZM689.44,122.24h8.32v.84h-8.32v-.84ZM692.1,136.78l.68-.58c.75.21,1.49.44,2.24.69.75.25,1.45.49,2.1.72.65.23,1.23.46,1.72.67l-.88.62c-.45-.21-.99-.44-1.61-.68-.62-.24-1.29-.48-2.01-.73-.72-.25-1.47-.48-2.24-.71ZM693.16,124.04c.33.44.8.84,1.4,1.21.6.37,1.3.67,2.1.92.8.25,1.65.42,2.54.51-.11.09-.22.22-.33.38-.11.16-.2.3-.27.42-.91-.15-1.76-.37-2.57-.67-.81-.3-1.52-.67-2.13-1.11-.61-.44-1.1-.93-1.46-1.46l.72-.2ZM697.48,122.24h.18l.16-.04.64.24c-.25.48-.52.97-.8,1.48-.28.51-.55.93-.82,1.26l-.78-.24c.23-.33.47-.73.73-1.19.26-.46.49-.9.69-1.33v-.18Z"/>
          <path class="cls-27" d="M700.9,127.12l.56-.68c.39.2.8.43,1.23.68.43.25.85.5,1.24.74.39.24.72.46.99.66l-.58.78c-.25-.2-.58-.43-.97-.68-.39-.25-.81-.52-1.24-.79s-.84-.51-1.23-.71ZM701.4,138.1c.32-.52.67-1.14,1.04-1.86.37-.72.75-1.48,1.12-2.29.37-.81.72-1.58,1.04-2.31l.76.56c-.28.69-.6,1.43-.96,2.2-.36.77-.72,1.53-1.09,2.27s-.72,1.41-1.05,2.01l-.86-.58ZM701.88,121.72l.6-.64c.37.23.77.47,1.2.74.43.27.83.53,1.21.8s.7.5.95.7l-.58.78c-.25-.21-.57-.46-.96-.73s-.79-.56-1.21-.85c-.42-.29-.82-.56-1.21-.8ZM706.88,121.74h.96v5.48c0,.85-.03,1.78-.1,2.78-.07,1-.19,2.02-.37,3.06-.18,1.04-.45,2.06-.8,3.05-.35.99-.82,1.91-1.41,2.75-.05-.07-.13-.13-.23-.2-.1-.07-.2-.13-.3-.19-.1-.06-.19-.1-.27-.13.57-.81,1.03-1.69,1.36-2.64.33-.95.58-1.91.75-2.9.17-.99.28-1.96.33-2.91.05-.95.08-1.84.08-2.67v-5.48ZM707.24,121.74h11.7v.92h-11.7v-.92ZM710.18,133.34l.9.26c-.23.49-.49.99-.79,1.49s-.61.98-.93,1.43c-.32.45-.64.85-.96,1.2-.05-.07-.13-.13-.23-.19-.1-.06-.2-.12-.3-.19-.1-.07-.19-.12-.27-.16.49-.51.97-1.1,1.43-1.77.46-.67.84-1.36,1.15-2.07ZM709.26,125.3h8.8v6.74h-8.8v-6.74ZM710.16,126.14v2.12h6.98v-2.12h-6.98ZM710.16,129.06v2.16h6.98v-2.16h-6.98ZM713.1,131.54h.94v6.3c0,.28-.04.5-.12.65s-.23.26-.46.33c-.23.08-.56.13-.99.15-.43.02-.99.02-1.67.01-.03-.12-.07-.26-.12-.42-.05-.16-.11-.31-.18-.44.55.01,1.03.02,1.44.02h.82c.23-.01.34-.12.34-.32v-6.28ZM713.12,123.14l1.04.26c-.16.44-.33.88-.5,1.33-.17.45-.34.83-.5,1.15l-.76-.24c.12-.36.25-.78.4-1.25.15-.47.25-.89.32-1.25ZM715.84,133.58l.84-.34c.29.41.6.86.92,1.33.32.47.62.93.9,1.37.28.44.51.82.68,1.14l-.9.44c-.16-.33-.38-.73-.66-1.18-.28-.45-.57-.92-.88-1.41-.31-.49-.61-.94-.9-1.35Z"/>
          <path class="cls-27" d="M721.18,134.02h17.76v.88h-17.76v-.88ZM721.66,127.96h16.8v3.38h-.96v-2.56h-14.9v2.56h-.94v-3.38ZM726.7,121.04l.5.64c-.56.21-1.2.39-1.93.53-.73.14-1.38.25-1.97.33l-.38-.6c.37-.07.79-.15,1.26-.26.47-.11.92-.22,1.37-.34s.83-.22,1.15-.3ZM722.92,121.94l.96.28.4,6.22h-.92l-.44-6.5ZM723.5,123.72h3.58v.76h-3.58v-.76ZM723.62,125.82h3.58v.76h-3.58v-.76ZM724.78,130.44h9.88v.8h-9.88v-.8ZM729.72,132.96h.96v4.8c0,.29-.05.52-.14.67s-.27.27-.54.35c-.25.08-.63.12-1.13.13s-1.16,0-1.99,0c-.03-.12-.08-.26-.15-.41s-.14-.3-.21-.43c.47.01.89.02,1.27.03.38,0,.7,0,.97,0,.27,0,.45-.01.56-.01.16,0,.27-.03.32-.08.05-.05.08-.15.08-.28v-4.78ZM731.18,124.4l.76.24c-.48.63-1.08,1.23-1.79,1.8s-1.43,1.05-2.15,1.44c-.05-.08-.15-.18-.28-.3-.13-.12-.24-.21-.32-.28.71-.35,1.41-.77,2.1-1.28.69-.51,1.25-1.05,1.68-1.62ZM731.12,121.04l.76.2c-.45.61-1.02,1.2-1.71,1.75-.69.55-1.36,1.02-2.03,1.39-.07-.07-.17-.16-.3-.27s-.25-.2-.34-.27c.69-.35,1.37-.76,2.02-1.25.65-.49,1.19-1,1.6-1.55ZM727.82,125.16l.54-.48c.47.21.95.46,1.45.74s.97.57,1.41.87c.44.3.8.59,1.08.87l-.58.58c-.27-.28-.62-.57-1.05-.88s-.9-.61-1.39-.91-.98-.56-1.46-.79ZM727.86,121.86l.54-.52c.45.2.92.43,1.41.69.49.26.95.53,1.39.8s.79.54,1.06.79l-.54.58c-.28-.25-.63-.52-1.05-.81-.42-.29-.88-.56-1.37-.83-.49-.27-.97-.5-1.44-.7ZM734.42,130.44h.24l.22-.06.6.5c-.45.36-.97.7-1.56,1.03-.59.33-1.19.63-1.82.9-.63.27-1.24.51-1.84.71-.07-.09-.15-.19-.25-.3-.1-.11-.2-.19-.29-.26.57-.17,1.15-.39,1.74-.64.59-.25,1.14-.53,1.67-.83s.96-.58,1.29-.85v-.2ZM732.82,125.82h3.64v.76h-3.64v-.76ZM732.84,121.62h3.94v.78h-3.94v-.78ZM732.94,123.72h3.72v.76h-3.72v-.76ZM736.38,121.62h.92c-.04.73-.09,1.52-.14,2.36-.05.84-.11,1.66-.18,2.45-.07.79-.13,1.47-.2,2.03h-.94c.08-.57.16-1.26.23-2.06.07-.8.14-1.62.19-2.46.05-.84.09-1.61.12-2.32Z"/>
          <path class="cls-27" d="M746.26,133.48l.96.34c-.4.53-.85,1.07-1.36,1.6s-1.03,1.03-1.57,1.49-1.07.88-1.59,1.25c-.07-.05-.15-.12-.25-.2-.1-.08-.2-.16-.31-.23-.11-.07-.21-.14-.3-.19.81-.52,1.62-1.14,2.41-1.86.79-.72,1.46-1.45,2.01-2.2ZM754.34,120.88l.7.78c-.77.37-1.66.74-2.67,1.09-1.01.35-2.08.69-3.21,1-1.13.31-2.29.61-3.46.88-1.17.27-2.33.54-3.46.79-.03-.13-.07-.27-.14-.42-.07-.15-.13-.27-.18-.38,1.12-.25,2.26-.52,3.43-.81,1.17-.29,2.31-.59,3.42-.9s2.15-.64,3.11-.98,1.78-.69,2.46-1.05ZM742.52,132.96c-.01-.09-.04-.2-.07-.31-.03-.11-.07-.24-.11-.37-.04-.13-.08-.24-.12-.32.28-.03.65-.12,1.12-.29.47-.17,1-.38,1.6-.65.35-.16.85-.4,1.51-.72.66-.32,1.42-.71,2.27-1.18.85-.47,1.75-.98,2.68-1.54.93-.56,1.83-1.14,2.68-1.74l.78.62c-1.93,1.31-3.87,2.46-5.8,3.45-1.93.99-3.85,1.85-5.74,2.57v.04c-.16.04-.29.08-.4.13-.11.05-.2.1-.28.15-.08.05-.12.11-.12.16ZM742.52,132.96l-.02-.76.8-.42,13.5-.92c-.01.13-.02.29-.02.46v.42c-2.09.15-3.89.27-5.39.38s-2.76.2-3.77.27c-1.01.07-1.83.14-2.46.19-.63.05-1.11.1-1.45.14s-.6.08-.77.11-.31.08-.42.13ZM743.74,128.86c-.01-.08-.04-.18-.07-.31-.03-.13-.07-.25-.11-.38s-.08-.23-.12-.31c.21-.03.45-.09.71-.18.26-.09.55-.23.87-.4.23-.12.6-.34,1.13-.66s1.11-.7,1.76-1.15c.65-.45,1.26-.92,1.83-1.41l.9.54c-1.01.79-2.04,1.5-3.07,2.13-1.03.63-2.05,1.17-3.05,1.61v.02c-.16.05-.29.11-.4.16-.11.05-.2.11-.27.17-.07.06-.11.12-.11.17ZM743.74,128.86l-.02-.76.7-.32,7.5-.42c-.03.13-.05.28-.06.45-.01.17-.03.3-.04.39-1.39.08-2.54.15-3.47.21-.93.06-1.68.11-2.25.15-.57.04-1.02.08-1.33.11-.31.03-.54.06-.69.09-.15.03-.26.06-.34.1ZM749.78,131.62h.98v5.98c0,.32-.05.56-.14.73-.09.17-.27.3-.54.39-.27.08-.64.13-1.12.15-.48.02-1.09.03-1.82.03-.03-.15-.08-.31-.15-.49-.07-.18-.16-.34-.25-.49.45.01.86.02,1.22.03s.66,0,.91,0,.42,0,.51-.02c.16-.01.27-.04.32-.09.05-.05.08-.13.08-.25v-5.98ZM752.98,133.84l.72-.5c.56.43,1.14.89,1.73,1.38.59.49,1.15.98,1.67,1.46.52.48.95.91,1.3,1.28l-.78.58c-.33-.37-.76-.81-1.27-1.3-.51-.49-1.06-1-1.65-1.51-.59-.51-1.16-.98-1.72-1.39ZM753.56,128.64l.8-.4c.52.45,1.05.94,1.59,1.47.54.53,1.04,1.04,1.49,1.55.45.51.82.95,1.1,1.34l-.82.5c-.28-.4-.65-.86-1.11-1.38-.46-.52-.96-1.05-1.49-1.59-.53-.54-1.05-1.04-1.56-1.49Z"/>
        </g>
      </g>
    </g>
  </g>
  <g id="b100">
    <g id="g-root-ro_1lt0la5nngkxz-fill">
      <g id="ro_1lt0la5nngkxz-fill">
        <path class="cls-3" d="M595.96,50h167.12s11.94,0,11.94,12v30s0,12-11.94,12h-167.12s-11.94,0-11.94-12v-30s0-12,11.94-12"/>
      </g>
    </g>
    <g id="g-root-tx__4ik2ppnnglxp-fill">
      <g id="tx__4ik2ppnnglxp-fill">
        <g class="cls-18">
          <g class="cls-18">
            <path class="cls-13" d="M640.62,82.62c.72-.19,1.56-.43,2.53-.73.97-.3,1.96-.61,2.97-.93l.16,1.2c-.93.29-1.87.59-2.81.9-.94.31-1.8.58-2.57.82l-.28-1.26ZM640.86,69.14h5.38v1.22h-5.38v-1.22ZM641.06,74.96h4.92v1.2h-4.92v-1.2ZM643,69.82h1.2v12.4l-1.2.34v-12.74ZM652.2,79.32l.96.44c-.48.51-1.07,1.01-1.78,1.5-.71.49-1.45.93-2.23,1.32-.78.39-1.54.7-2.29.94-.08-.15-.2-.31-.35-.5-.15-.19-.3-.34-.43-.46.73-.2,1.49-.47,2.27-.8.78-.33,1.51-.71,2.19-1.13s1.23-.86,1.66-1.31ZM646.86,73.72h12.08v1.1h-12.08v-1.1ZM647.72,68.44h10.54v4.2h-10.54v-4.2ZM648.26,75.98h9.38v4.1h-9.38v-4.1ZM648.98,85.98c-.04-.15-.11-.32-.22-.53-.11-.21-.21-.37-.3-.49.13-.07.28-.19.43-.37.15-.18.23-.46.23-.85v-2l1.12-.28v3.38c-.25.15-.46.28-.63.4s-.31.25-.44.38c-.13.13-.19.25-.19.36ZM648.88,69.44v2.2h2v-2.2h-2ZM648.98,85.98l-.06-.94.58-.46,4.2-1c-.01.15-.02.32-.02.52s0,.37.02.5c-.96.25-1.74.46-2.33.62-.59.16-1.05.29-1.36.38-.31.09-.54.17-.69.23-.15.06-.26.11-.34.15ZM649.46,77.02v2.02h6.92v-2.02h-6.92ZM651.86,69.44v2.2h2.1v-2.2h-2.1ZM653.7,79.52c.31.83.72,1.6,1.25,2.31.53.71,1.16,1.33,1.91,1.84.75.51,1.58.9,2.5,1.17-.13.11-.28.26-.45.47-.17.21-.29.4-.37.57-1.45-.48-2.68-1.26-3.68-2.33s-1.74-2.33-2.22-3.77l1.06-.26ZM657.76,80.4l.92.8c-.53.35-1.12.69-1.75,1.04-.63.35-1.21.63-1.73.86l-.68-.62c.33-.19.7-.4,1.1-.65s.79-.5,1.18-.75.71-.48.96-.68ZM654.94,69.44v2.2h2.14v-2.2h-2.14Z"/>
            <path class="cls-13" d="M660.74,81.98c.51-.16,1.09-.36,1.74-.59.65-.23,1.35-.49,2.08-.76.73-.27,1.47-.54,2.2-.81l.26,1.22c-1.01.41-2.03.82-3.05,1.22-1.02.4-1.95.76-2.79,1.08l-.44-1.36ZM661.06,72.64h5.54v1.26h-5.54v-1.26ZM663.3,67.96h1.3v13.4h-1.3v-13.4ZM670.54,80.52h1.28c-.07.79-.19,1.48-.37,2.09-.18.61-.46,1.13-.83,1.57-.37.44-.87.82-1.5,1.14-.63.32-1.41.59-2.36.82-.04-.11-.1-.23-.17-.36-.07-.13-.16-.26-.25-.39s-.19-.23-.3-.31c.87-.17,1.58-.39,2.14-.64.56-.25,1-.56,1.33-.92.33-.36.57-.79.72-1.28s.26-1.07.31-1.72ZM667.36,72.9h11.16v1.16h-11.16v-1.16ZM667.98,69.24h10v1.14h-10v-1.14ZM668.36,75.18h9.06v5.66h-9.06v-5.66ZM669.58,70.86l1.12-.24c.15.32.29.67.44,1.05.15.38.25.71.32.99l-1.18.32c-.05-.28-.15-.62-.28-1.02s-.27-.77-.42-1.1ZM669.6,76.14v1.4h6.54v-1.4h-6.54ZM669.6,78.46v1.4h6.54v-1.4h-6.54ZM671.8,67.86l1.24-.24c.16.29.32.62.47.99.15.37.28.68.37.95l-1.3.34c-.08-.28-.19-.61-.34-.99-.15-.38-.29-.73-.44-1.05ZM673.66,80.54h1.28v3.5c0,.35.05.55.16.6.12.05.32.08.6.08h1.04c.15,0,.29,0,.43,0s.24-.02.31-.05c.19-.05.31-.2.38-.44.03-.15.04-.37.05-.66,0-.29.02-.65.03-1.08.13.12.31.23.52.33.21.1.41.18.58.23-.03.41-.06.81-.09,1.18-.03.37-.08.64-.15.8-.15.32-.39.53-.72.62-.15.05-.34.09-.58.12-.24.03-.45.04-.64.04h-1.38c-.23,0-.47-.03-.72-.08-.25-.05-.46-.13-.62-.24-.17-.12-.3-.28-.37-.49-.07-.21-.11-.57-.11-1.09v-3.36ZM675.02,70.66l1.24.32c-.19.43-.39.86-.6,1.3-.21.44-.41.82-.6,1.14l-1.04-.28c.17-.35.36-.76.55-1.23s.34-.89.45-1.25Z"/>
            <path class="cls-13" d="M681.02,72.08h5.7v1.12h-5.7v-1.12ZM687.04,83.08l1.22.56c-.55.31-1.17.61-1.87.91-.7.3-1.42.58-2.16.83-.74.25-1.44.47-2.11.66-.07-.09-.16-.2-.28-.33-.12-.13-.24-.25-.37-.38-.13-.13-.24-.23-.35-.31.69-.15,1.4-.32,2.13-.52.73-.2,1.42-.42,2.07-.67s1.23-.5,1.72-.75ZM681.46,68.96h4.76v1.08h-4.76v-1.08ZM683.66,74.82h12.98v8.06h-12.98v-8.06ZM684.98,75.74v1.46h10.32v-1.46h-10.32ZM684.98,78.1v1.46h10.32v-1.46h-10.32ZM684.98,80.46v1.5h10.32v-1.5h-10.32ZM692.12,69.74h1.26v.66c0,.39-.07.78-.2,1.18-.13.4-.41.79-.82,1.18s-1.04.74-1.87,1.06c-.83.32-1.96.6-3.37.84-.07-.16-.17-.34-.32-.55-.15-.21-.29-.37-.42-.49,1.32-.19,2.36-.41,3.13-.67.77-.26,1.34-.54,1.71-.83.37-.29.62-.59.73-.89.11-.3.17-.59.17-.87v-.62ZM689.68,67.68l1.2.28c-.27.81-.62,1.6-1.07,2.36-.45.76-.92,1.4-1.43,1.92-.08-.07-.18-.14-.3-.23-.12-.09-.25-.17-.38-.26-.13-.09-.25-.15-.36-.19.52-.49.98-1.08,1.39-1.75.41-.67.72-1.38.95-2.13ZM689.32,69.12h8.28v1.06h-8.28v-1.06ZM691.98,83.82l.92-.76c.72.21,1.45.45,2.19.7.74.25,1.43.5,2.08.75.65.25,1.21.48,1.69.69l-1.2.8c-.43-.23-.94-.46-1.55-.71-.61-.25-1.26-.5-1.97-.75-.71-.25-1.43-.49-2.16-.72ZM693.18,71c.33.43.8.81,1.4,1.16s1.3.63,2.09.84c.79.21,1.65.37,2.57.46-.15.12-.29.29-.44.5-.15.21-.26.41-.34.58-.95-.15-1.83-.37-2.64-.67s-1.53-.67-2.14-1.12c-.61-.45-1.11-.96-1.48-1.53l.98-.22ZM697.16,69.12h.24l.22-.08.88.32c-.25.49-.52,1-.81,1.53-.29.53-.57.97-.85,1.33l-1.06-.36c.23-.35.47-.75.73-1.22.26-.47.48-.91.65-1.34v-.18Z"/>
            <path class="cls-13" d="M700.82,74.28l.76-.94c.39.2.79.42,1.22.67.43.25.84.49,1.23.72.39.23.72.44.97.63l-.78,1.08c-.25-.2-.58-.43-.97-.68-.39-.25-.8-.51-1.23-.77s-.83-.5-1.2-.71ZM701.26,85.02c.31-.53.64-1.16,1-1.87.36-.71.72-1.47,1.09-2.28.37-.81.7-1.58.99-2.33l1.08.76c-.28.71-.59,1.44-.92,2.2-.33.76-.68,1.51-1.03,2.25-.35.74-.69,1.42-1.01,2.03l-1.2-.76ZM701.8,68.9l.8-.94c.36.23.75.47,1.18.73.43.26.83.52,1.22.77.39.25.71.48.96.68l-.82,1.06c-.24-.2-.55-.44-.94-.71-.39-.27-.79-.55-1.22-.83s-.82-.53-1.18-.76ZM706.82,68.7h1.3v5.48c0,.87-.03,1.81-.09,2.83-.06,1.02-.18,2.06-.37,3.11-.19,1.05-.46,2.08-.81,3.09-.35,1.01-.83,1.93-1.43,2.77-.07-.08-.17-.17-.31-.26-.14-.09-.28-.18-.42-.27-.14-.09-.26-.15-.37-.19.56-.8,1.01-1.67,1.35-2.62.34-.95.59-1.91.75-2.89.16-.98.27-1.95.32-2.9.05-.95.08-1.84.08-2.67v-5.48ZM707.28,68.7h11.72v1.22h-11.72v-1.22ZM710.14,80.38l1.22.34c-.23.49-.49.99-.78,1.49-.29.5-.59.98-.9,1.43-.31.45-.61.85-.92,1.2-.07-.07-.17-.14-.3-.23-.13-.09-.27-.17-.41-.26-.14-.09-.26-.16-.37-.21.47-.49.92-1.07,1.36-1.74.44-.67.81-1.34,1.1-2.02ZM709.36,72.34h8.84v6.86h-8.84v-6.86ZM713.04,78.66h1.28v5.96c0,.35-.04.62-.13.81-.09.19-.26.34-.53.43-.25.09-.6.15-1.04.18-.44.03-1,.03-1.68.02-.03-.17-.07-.37-.14-.58-.07-.21-.15-.41-.24-.58.51.01.96.02,1.36.02h.78c.23-.01.34-.12.34-.32v-5.94ZM710.58,73.4v1.84h6.38v-1.84h-6.38ZM710.58,76.26v1.88h6.38v-1.88h-6.38ZM713.06,70.26l1.46.32c-.19.44-.38.88-.58,1.33-.2.45-.39.82-.56,1.13l-1.06-.32c.13-.35.27-.75.41-1.22s.25-.88.33-1.24ZM715.8,80.7l1.16-.46c.28.41.57.85.87,1.32.3.47.58.92.84,1.37.26.45.47.83.63,1.15l-1.22.56c-.16-.33-.37-.73-.62-1.18s-.52-.92-.81-1.41c-.29-.49-.57-.94-.85-1.35Z"/>
            <path class="cls-13" d="M721.12,80.94h17.86v1.16h-17.86v-1.16ZM721.56,74.9h17v3.56h-1.34v-2.52h-14.38v2.52h-1.28v-3.56ZM726.64,67.92l.62.84c-.57.23-1.23.41-1.97.56-.74.15-1.41.26-2.01.34l-.5-.78c.39-.07.82-.16,1.29-.27s.94-.23,1.4-.36.85-.24,1.17-.33ZM722.78,68.88l1.3.36.4,6.22h-1.26l-.44-6.58ZM723.52,70.62h3.62v.96h-3.62v-.96ZM723.62,72.74h3.62v.96h-3.62v-.96ZM724.8,77.4h9.58v1.04h-9.58v-1.04ZM729.56,80.02h1.3v4.56c0,.36-.05.63-.15.82-.1.19-.3.33-.61.44-.29.09-.7.14-1.22.15-.52,0-1.19,0-2,0-.03-.16-.09-.35-.18-.56-.09-.21-.19-.4-.28-.56.44.01.84.02,1.21.03s.69,0,.96,0,.46,0,.55,0c.16-.01.27-.04.33-.09.06-.05.09-.14.09-.27v-4.52ZM731.08,71.3l.98.3c-.48.63-1.08,1.23-1.8,1.81-.72.58-1.44,1.06-2.16,1.45-.08-.09-.2-.22-.36-.37-.16-.15-.29-.28-.4-.37.71-.33,1.4-.75,2.09-1.24.69-.49,1.24-1.02,1.65-1.58ZM731.02,67.92l.98.28c-.45.61-1.02,1.2-1.71,1.75-.69.55-1.37,1.02-2.05,1.39-.08-.09-.2-.21-.36-.36-.16-.15-.3-.25-.42-.32.68-.35,1.35-.76,2-1.23.65-.47,1.17-.98,1.56-1.51ZM727.76,72.16l.7-.6c.45.21.93.46,1.42.74s.96.57,1.4.87c.44.3.79.58,1.06.85l-.72.7c-.27-.28-.61-.57-1.04-.87-.43-.3-.88-.6-1.37-.9s-.97-.56-1.45-.79ZM727.82,68.82l.68-.62c.45.19.92.41,1.39.68.47.27.93.53,1.36.8.43.27.78.53,1.05.78l-.7.68c-.27-.24-.61-.5-1.03-.79-.42-.29-.87-.56-1.35-.83-.48-.27-.95-.5-1.4-.7ZM734.06,77.4h.32l.28-.06.8.68c-.45.36-.97.71-1.56,1.04-.59.33-1.2.64-1.83.93s-1.25.54-1.85.75c-.07-.12-.17-.25-.31-.39-.14-.14-.26-.25-.35-.33.53-.19,1.08-.41,1.65-.68.57-.27,1.1-.55,1.61-.84s.92-.57,1.24-.84v-.26ZM732.8,72.74h3.58v.96h-3.58v-.96ZM732.82,68.5h3.86v.96h-3.86v-.96ZM732.92,70.62h3.62v.96h-3.62v-.96ZM736.14,68.5h1.28c-.04.76-.09,1.57-.14,2.42s-.11,1.68-.18,2.49c-.07.81-.13,1.5-.2,2.09h-1.3c.09-.6.17-1.31.24-2.12s.13-1.65.18-2.5c.05-.85.09-1.65.12-2.38Z"/>
            <path class="cls-13" d="M743.32,73.96l.88.32c-.28.67-.66,1.34-1.14,2.01-.48.67-.99,1.2-1.52,1.59-.09-.15-.22-.31-.38-.48-.16-.17-.31-.31-.44-.4.35-.2.68-.46,1.01-.79.33-.33.63-.69.91-1.08.28-.39.51-.78.68-1.17ZM744.7,77.58h1.2v2.02c0,.55-.05,1.1-.15,1.67-.1.57-.3,1.12-.59,1.67-.29.55-.73,1.08-1.32,1.59-.59.51-1.37.98-2.36,1.41-.04-.09-.1-.2-.18-.33-.08-.13-.17-.25-.26-.37s-.18-.22-.26-.3c.89-.37,1.6-.78,2.13-1.22.53-.44.92-.9,1.17-1.37.25-.47.42-.94.5-1.41s.12-.92.12-1.36v-2ZM741,79.46h8.74v1.14h-8.74v-1.14ZM741.04,72.2h8.5v1.12h-8.5v-1.12ZM741.52,68.84l.96-.38c.27.36.52.76.75,1.2.23.44.4.83.49,1.16l-1.02.42c-.09-.33-.25-.72-.47-1.17-.22-.45-.46-.86-.71-1.23ZM744.74,82.24l.74-.84c.41.28.86.59,1.34.92s.94.66,1.37.98c.43.32.79.61,1.07.86l-.74.94c-.28-.25-.63-.55-1.06-.88s-.88-.68-1.36-1.03c-.48-.35-.93-.67-1.36-.95ZM744.78,67.82h1.18v9.32h-1.18v-9.32ZM747.1,74.04c.13.08.32.22.57.43.25.21.51.43.8.67.29.24.55.46.79.67.24.21.41.36.5.45l-.78.92c-.12-.15-.29-.34-.52-.58-.23-.24-.47-.49-.73-.76-.26-.27-.51-.51-.74-.74-.23-.23-.43-.4-.59-.52l.7-.54ZM746.84,77.84l.8-.46c.25.23.51.5.77.82.26.32.46.59.61.82l-.8.56c-.15-.25-.35-.54-.61-.87-.26-.33-.52-.62-.77-.87ZM748.1,68.46l1.16.38c-.24.44-.48.88-.72,1.33-.24.45-.47.83-.7,1.15l-.92-.34c.2-.36.41-.78.64-1.26.23-.48.41-.9.54-1.26ZM752.76,82.76l1.18.68c-.29.33-.65.67-1.08,1-.43.33-.87.64-1.34.93-.47.29-.93.53-1.38.73-.11-.13-.25-.29-.42-.46-.17-.17-.33-.32-.48-.44.44-.19.89-.42,1.34-.69.45-.27.87-.56,1.26-.87.39-.31.69-.6.92-.88ZM749.82,68.72h9.32v1.18h-9.32v-1.18ZM750.66,71.9h7.66v10.38h-7.66v-10.38ZM751.9,72.98v2.02h5.14v-2.02h-5.14ZM751.9,76.04v2.06h5.14v-2.06h-5.14ZM751.9,79.12v2.1h5.14v-2.1h-5.14ZM753.62,69.26l1.44.22c-.16.57-.33,1.14-.52,1.71-.19.57-.36,1.06-.52,1.49l-1.16-.24c.09-.29.19-.63.29-1,.1-.37.19-.75.27-1.14s.15-.73.2-1.04ZM754.96,83.48l.98-.68c.4.24.82.51,1.25.82.43.31.85.61,1.24.9.39.29.72.57.99.82l-1.06.76c-.24-.25-.55-.53-.93-.84-.38-.31-.79-.62-1.22-.93-.43-.31-.85-.6-1.25-.85Z"/>
          </g>
        </g>
      </g>
    </g>
    <g id="_圖層_1">
      <g class="cls-18">
        <g id="_圖層_1-2">
          <g>
            <path class="cls-22" d="M604.42,74.3c-.22-.43-.6-.53-.6-.53l-1.7,5.2.59,2.64c-.79-.13-1.28.39-1.28.39,0,0,1.4,1.67,2.34,3.33.67,1.17,1.78,2.07,3.1,2.4.08.02.16.04.26.05.86.17,1.59.74,1.98,1.51l4.69-1.67-.47-1.64c-.42-1.48-1.47-2.72-2.87-3.37l-1.16-.54c-.69-.32-1.2-.92-1.4-1.64l-.56-1.97.04-.34c.1-.66-.23-1.32-.81-1.67l.04-.2c.13-.71-.15-1.45-.74-1.89l-.07-.04c-.04-1.08-.92-1.4-.92-1.4"/>
            <polygon class="cls-24" points="613.8 88.97 613.8 87.62 608.2 89.64 608.67 90.79 613.8 88.97 613.8 88.97"/>
            <polygon class="cls-24" points="608.67 90.79 609.28 92.29 613.8 90.9 613.8 88.97 608.67 90.79"/>
            <g>
              <path class="cls-20" d="M607.52,84.41c-1.21,0-2.36-.58-3.13-1.58-.61-.78-1.23-1.19-1.84-1.21-.66-.03-1.08.4-1.08.41l-.05-.05s.44-.46,1.14-.43c.63.03,1.27.45,1.89,1.24.83,1.08,2.11,1.65,3.42,1.54.04,0,.08,0,.12-.01s.08-.01.12-.01v.07s-.07,0-.11.01c-.04,0-.09.01-.13.01-.12,0-.23.02-.34.02h0Z"/>
              <path class="cls-20" d="M604.26,81.02l-.53-2.14.77-3.39c.08-.47.05-.87-.11-1.17l.06-.03c.16.32.2.73.12,1.22l-.77,3.37.53,2.12-.07.02h0Z"/>
              <path class="cls-20" d="M605.55,80.71l-.57-1.99h0s.7-3.67.7-3.67c.06-.27.09-.51.08-.72h.07c0,.22-.02.46-.08.74l-.7,3.66.56,1.97-.07.02h0Z"/>
              <polygon class="cls-20" points="606.76 80.44 606.17 78.42 606.54 76.45 606.61 76.46 606.25 78.42 606.82 80.43 606.76 80.44"/>
            </g>
            <path class="cls-31" d="M608.67,90.82s-.03,0-.03-.02c0-.02,0-.04.02-.05l5.13-1.82s.04,0,.05.02,0,.04-.02.05l-5.13,1.82h-.01Z"/>
          </g>
          <g>
            <path class="cls-22" d="M625.39,74.3c.22-.43.6-.53.6-.53l1.7,5.2-.59,2.64c.79-.13,1.28.39,1.28.39,0,0-1.4,1.67-2.34,3.33-.68,1.17-1.78,2.07-3.1,2.4-.08.02-.16.04-.26.05-.86.17-1.59.74-1.98,1.51l-4.69-1.67.47-1.64c.42-1.48,1.47-2.72,2.87-3.37l1.16-.54c.69-.32,1.2-.92,1.4-1.64l.56-1.97-.04-.34c-.1-.66.23-1.32.81-1.67l-.04-.2c-.13-.71.15-1.45.74-1.89l.07-.04c.04-1.08.92-1.4.92-1.4"/>
            <polygon class="cls-24" points="616.02 88.97 616.02 87.62 621.62 89.64 621.15 90.79 616.02 88.97 616.02 88.97"/>
            <polygon class="cls-24" points="621.15 90.79 620.54 92.29 616.02 90.9 616.02 88.97 621.15 90.79"/>
            <g>
              <path class="cls-20" d="M622.29,84.41c-.12,0-.23,0-.34-.02-.04,0-.08,0-.12-.01s-.08-.01-.12-.01v-.07s.09,0,.13.01.08.01.12.01c1.31.12,2.59-.46,3.42-1.54.62-.8,1.26-1.21,1.89-1.24.69-.03,1.12.41,1.14.43l-.05.05s-.42-.44-1.08-.41c-.61.03-1.23.44-1.84,1.21-.78,1-1.93,1.58-3.14,1.58h0Z"/>
              <path class="cls-20" d="M625.56,81.01l-.07-.02.53-2.12-.77-3.37c-.08-.49-.05-.9.12-1.22l.06.03c-.15.3-.19.7-.11,1.18l.77,3.39h0s-.53,2.14-.53,2.14h0Z"/>
              <path class="cls-20" d="M624.26,80.7l-.07-.02.56-1.97-.7-3.66c-.07-.25-.09-.5-.08-.74h.07c0,.24.02.47.08.72l.7,3.67h0s-.57,1.99-.57,1.99h0Z"/>
              <polygon class="cls-20" points="623.07 80.45 623 80.43 623.58 78.42 623.21 76.47 623.28 76.45 623.65 78.42 623.65 78.43 623.07 80.45"/>
            </g>
            <path class="cls-31" d="M621.15,90.82h-.01l-5.13-1.82s-.03-.02-.02-.05c0-.02.02-.03.05-.02l5.13,1.82s.03.02.02.05c0,.01-.02.02-.03.02h0Z"/>
          </g>
          <g>
            <circle class="cls-17" cx="614.91" cy="68.74" r="8.45"/>
            <path class="cls-26" d="M621.8,63.85c-.38-.06-4.21-.61-4.89,1.4-.71,2.12-2.49,1.77-1.88,3.96s2.31,3.46,4.42,3.18c2.44-.33-2.23,3.29-.39,3.69,4.07-2.23,5.74-7.81,2.73-12.23h0Z"/>
            <path class="cls-26" d="M610.31,61.66s3.68-.22,3.84,1.13c.15,1.34-.78,1.12-2,1.89-1.22.78-1.76.16-2.46,1.34-.7,1.18-2.95.58-2.95.58,0,0,.48-2.92,3.56-4.93h0s0,0,0,0Z"/>
            <path class="cls-26" d="M606.64,70.29s2.71-.58,3.71,1.33,1.77,1.13,2.4,1.98c.18.24.16.55.05.88-.45,1.26-1.99,1.74-3.09.98-1.12-.77-2.44-2.27-3.05-5.17h-.01Z"/>
            <g class="cls-19">
              <path class="cls-21" d="M622.15,72.99c-2.35,4.03-7.47,5.39-11.5,3.04,8.92-.57,11.45-8.79,8.46-14.59,4.03,2.35,5.39,7.52,3.05,11.55h0Z"/>
            </g>
            <g>
              <path class="cls-28" d="M614.91,77.18v-.07c4.62,0,8.37-3.75,8.37-8.37s-3.76-8.37-8.37-8.37h-.04v-.07h.04c2.26,0,4.38.88,5.97,2.47,1.59,1.59,2.47,3.71,2.47,5.97s-.88,4.38-2.47,5.97c-1.6,1.59-3.72,2.47-5.97,2.47Z"/>
              <path class="cls-28" d="M606.54,68.74h-.07c0-1.85.59-3.61,1.71-5.09,1.08-1.43,2.61-2.49,4.32-3l.02.07c-3.52,1.05-5.97,4.35-5.97,8.02Z"/>
            </g>
          </g>
        </g>
      </g>
    </g>
  </g>
  <g id="a27">
    <g id="g-root-ro_znshx9nnf8xt-stroke">
      <g id="ro_znshx9nnf8xt-stroke">
        <path class="cls-14" d="M378.98,51.5h132s24,0,24,28.57v92.86s0,28.57-24,28.57h-132s-24,0-24-28.57v-92.86s0-28.57,24-28.57"/>
      </g>
    </g>
    <g>
      <g id="g-root-tx__1lu9jgdnnf8y7-fill">
        <g id="tx__1lu9jgdnnf8y7-fill">
          <g class="cls-18">
            <g class="cls-18">
              <path class="cls-30" d="M385.58,170.62c.72-.19,1.56-.43,2.53-.73.97-.3,1.96-.61,2.97-.93l.16,1.2c-.93.29-1.87.59-2.81.9-.94.31-1.8.58-2.57.82l-.28-1.26ZM385.82,157.14h5.38v1.22h-5.38v-1.22ZM386.02,162.96h4.92v1.2h-4.92v-1.2ZM387.96,157.82h1.2v12.4l-1.2.34v-12.74ZM397.16,167.32l.96.44c-.48.51-1.07,1.01-1.78,1.5-.71.49-1.45.93-2.23,1.32-.78.39-1.54.7-2.29.94-.08-.15-.2-.31-.35-.5-.15-.19-.3-.34-.43-.46.73-.2,1.49-.47,2.27-.8.78-.33,1.51-.71,2.19-1.13s1.23-.86,1.66-1.31ZM391.82,161.72h12.08v1.1h-12.08v-1.1ZM392.68,156.44h10.54v4.2h-10.54v-4.2ZM393.22,163.98h9.38v4.1h-9.38v-4.1ZM393.94,173.98c-.04-.15-.11-.32-.22-.53-.11-.21-.21-.37-.3-.49.13-.07.28-.19.43-.37.15-.18.23-.46.23-.85v-2l1.12-.28v3.38c-.25.15-.46.28-.63.4s-.31.25-.44.38c-.13.13-.19.25-.19.36ZM393.84,157.44v2.2h2v-2.2h-2ZM393.94,173.98l-.06-.94.58-.46,4.2-1c-.01.15-.02.32-.02.52s0,.37.02.5c-.96.25-1.74.46-2.33.62-.59.16-1.05.29-1.36.38-.31.09-.54.17-.69.23-.15.06-.26.11-.34.15ZM394.42,165.02v2.02h6.92v-2.02h-6.92ZM396.82,157.44v2.2h2.1v-2.2h-2.1ZM398.66,167.52c.31.83.72,1.6,1.25,2.31.53.71,1.16,1.33,1.91,1.84.75.51,1.58.9,2.5,1.17-.13.11-.28.26-.45.47-.17.21-.29.4-.37.57-1.45-.48-2.68-1.26-3.68-2.33s-1.74-2.33-2.22-3.77l1.06-.26ZM402.72,168.4l.92.8c-.53.35-1.12.69-1.75,1.04-.63.35-1.21.63-1.73.86l-.68-.62c.33-.19.7-.4,1.1-.65s.79-.5,1.18-.75.71-.48.96-.68ZM399.9,157.44v2.2h2.14v-2.2h-2.14Z"/>
              <path class="cls-30" d="M405.7,169.98c.51-.16,1.09-.36,1.74-.59.65-.23,1.35-.49,2.08-.76.73-.27,1.47-.54,2.2-.81l.26,1.22c-1.01.41-2.03.82-3.05,1.22-1.02.4-1.95.76-2.79,1.08l-.44-1.36ZM406.02,160.64h5.54v1.26h-5.54v-1.26ZM408.26,155.96h1.3v13.4h-1.3v-13.4ZM415.5,168.52h1.28c-.07.79-.19,1.48-.37,2.09-.18.61-.46,1.13-.83,1.57-.37.44-.87.82-1.5,1.14-.63.32-1.41.59-2.36.82-.04-.11-.1-.23-.17-.36-.07-.13-.16-.26-.25-.39s-.19-.23-.3-.31c.87-.17,1.58-.39,2.14-.64.56-.25,1-.56,1.33-.92.33-.36.57-.79.72-1.28s.26-1.07.31-1.72ZM412.32,160.9h11.16v1.16h-11.16v-1.16ZM412.94,157.24h10v1.14h-10v-1.14ZM413.32,163.18h9.06v5.66h-9.06v-5.66ZM414.54,158.86l1.12-.24c.15.32.29.67.44,1.05.15.38.25.71.32.99l-1.18.32c-.05-.28-.15-.62-.28-1.02s-.27-.77-.42-1.1ZM414.56,164.14v1.4h6.54v-1.4h-6.54ZM414.56,166.46v1.4h6.54v-1.4h-6.54ZM416.76,155.86l1.24-.24c.16.29.32.62.47.99.15.37.28.68.37.95l-1.3.34c-.08-.28-.19-.61-.34-.99-.15-.38-.29-.73-.44-1.05ZM418.62,168.54h1.28v3.5c0,.35.05.55.16.6.12.05.32.08.6.08h1.04c.15,0,.29,0,.43,0s.24-.02.31-.05c.19-.05.31-.2.38-.44.03-.15.04-.37.05-.66,0-.29.02-.65.03-1.08.13.12.31.23.52.33.21.1.41.18.58.23-.03.41-.06.81-.09,1.18-.03.37-.08.64-.15.8-.15.32-.39.53-.72.62-.15.05-.34.09-.58.12-.24.03-.45.04-.64.04h-1.38c-.23,0-.47-.03-.72-.08-.25-.05-.46-.13-.62-.24-.17-.12-.3-.28-.37-.49-.07-.21-.11-.57-.11-1.09v-3.36ZM419.98,158.66l1.24.32c-.19.43-.39.86-.6,1.3-.21.44-.41.82-.6,1.14l-1.04-.28c.17-.35.36-.76.55-1.23s.34-.89.45-1.25Z"/>
              <path class="cls-30" d="M430.6,155.8l1.26.38c-.45,1.13-.98,2.24-1.58,3.32-.6,1.08-1.24,2.1-1.93,3.05-.69.95-1.4,1.8-2.13,2.55-.04-.11-.11-.24-.2-.41-.09-.17-.19-.33-.29-.5-.1-.17-.2-.3-.29-.41.69-.64,1.35-1.39,1.98-2.24.63-.85,1.22-1.77,1.77-2.75.55-.98,1.02-1.98,1.41-2.99ZM428.44,160.88l1.26-1.26.02.02v14.38h-1.28v-13.14ZM434.28,167.74l1.22.38c-.32.56-.68,1.14-1.08,1.74-.4.6-.8,1.18-1.21,1.73-.41.55-.8,1.04-1.19,1.47-.08-.07-.18-.15-.3-.25-.12-.1-.25-.2-.39-.29-.14-.09-.26-.17-.37-.22.59-.61,1.18-1.33,1.78-2.15.6-.82,1.11-1.62,1.54-2.41ZM431.06,165.48h13.04v1.22h-13.04v-1.22ZM432.56,156.68h10.34v6.28h-10.34v-6.28ZM433.84,157.9v3.84h7.74v-3.84h-7.74ZM437,162.56h1.34v11.52h-1.34v-11.52ZM439.54,168.3l1.02-.56c.44.47.89.97,1.35,1.52.46.55.89,1.08,1.28,1.61.39.53.71,1,.95,1.41l-1.1.7c-.23-.43-.53-.91-.92-1.46-.39-.55-.8-1.1-1.25-1.66-.45-.56-.89-1.08-1.33-1.56Z"/>
              <path class="cls-30" d="M445.82,159.14h7.02v1.14h-7.02v-1.14ZM446.64,161.78h5.52v1.08h-5.52v-1.08ZM446.64,164.38h5.52v1.08h-5.52v-1.08ZM446.64,167.04h1.16v6.76h-1.16v-6.76ZM447.22,167.04h4.96v5.8h-4.96v-1.14h3.78v-3.52h-3.78v-1.14ZM448.08,156.2l1-.54c.31.4.6.84.89,1.31.29.47.52.89.69,1.25l-1.08.64c-.15-.36-.36-.79-.65-1.3-.29-.51-.57-.96-.85-1.36ZM455.12,158.86l1.12.3c-.32.95-.75,1.86-1.28,2.73-.53.87-1.1,1.62-1.7,2.23-.05-.08-.13-.18-.22-.31-.09-.13-.19-.25-.3-.38-.11-.13-.2-.22-.28-.29.57-.53,1.09-1.17,1.55-1.92.46-.75.83-1.53,1.11-2.36ZM461.78,168.3h.26l.24-.06.78.42c-.44.79-1.02,1.48-1.73,2.09-.71.61-1.52,1.13-2.41,1.56-.89.43-1.84.79-2.83,1.08-.99.29-1.99.52-2.99.69-.05-.16-.14-.35-.26-.56-.12-.21-.23-.39-.34-.52.95-.13,1.89-.32,2.83-.57.94-.25,1.83-.55,2.67-.92.84-.37,1.59-.8,2.24-1.3s1.17-1.08,1.54-1.73v-.18ZM452.96,157h4.14v1.08h-4.14v-1.08ZM453.2,168.3h8.86v1h-8.86v-1ZM455.52,160.64h8.08v.92h-8.08v6.3h-1.16v-6.56l.64-.66h.52ZM455.96,169.14c.53.65,1.24,1.24,2.11,1.76.87.52,1.86.96,2.95,1.31s2.23.62,3.4.79c-.15.13-.29.31-.44.52-.15.21-.26.39-.34.54-1.2-.21-2.36-.53-3.48-.94-1.12-.41-2.13-.92-3.04-1.52-.91-.6-1.66-1.29-2.26-2.08l1.1-.38ZM454.96,166.5h9.08v.92h-9.08v-.92ZM454.98,162.64h8.08v.84h-8.08v-.84ZM454.98,164.54h8.08v.84h-8.08v-.84ZM456.32,155.74h1.2v3.48h-1.2v-3.48ZM457.94,159.26l1.18-.32c.15.32.29.68.43,1.07.14.39.25.72.33.99l-1.26.38c-.05-.28-.15-.62-.28-1.02-.13-.4-.27-.77-.4-1.1ZM458.4,161.08h1.18v5.82h-1.18v-5.82ZM459.68,155.74h1.22v3.48h-1.22v-3.48ZM460.1,157.02h3.92v1.08h-3.92v-1.08Z"/>
              <path class="cls-30" d="M466.08,168.94h17.86v1.16h-17.86v-1.16ZM466.52,162.9h17v3.56h-1.34v-2.52h-14.38v2.52h-1.28v-3.56ZM471.6,155.92l.62.84c-.57.23-1.23.41-1.97.56-.74.15-1.41.26-2.01.34l-.5-.78c.39-.07.82-.16,1.29-.27s.94-.23,1.4-.36.85-.24,1.17-.33ZM467.74,156.88l1.3.36.4,6.22h-1.26l-.44-6.58ZM468.48,158.62h3.62v.96h-3.62v-.96ZM468.58,160.74h3.62v.96h-3.62v-.96ZM469.76,165.4h9.58v1.04h-9.58v-1.04ZM474.52,168.02h1.3v4.56c0,.36-.05.63-.15.82-.1.19-.3.33-.61.44-.29.09-.7.14-1.22.15-.52,0-1.19,0-2,0-.03-.16-.09-.35-.18-.56-.09-.21-.19-.4-.28-.56.44.01.84.02,1.21.03s.69,0,.96,0,.46,0,.55,0c.16-.01.27-.04.33-.09.06-.05.09-.14.09-.27v-4.52ZM476.04,159.3l.98.3c-.48.63-1.08,1.23-1.8,1.81-.72.58-1.44,1.06-2.16,1.45-.08-.09-.2-.22-.36-.37-.16-.15-.29-.28-.4-.37.71-.33,1.4-.75,2.09-1.24.69-.49,1.24-1.02,1.65-1.58ZM475.98,155.92l.98.28c-.45.61-1.02,1.2-1.71,1.75-.69.55-1.37,1.02-2.05,1.39-.08-.09-.2-.21-.36-.36-.16-.15-.3-.25-.42-.32.68-.35,1.35-.76,2-1.23.65-.47,1.17-.98,1.56-1.51ZM472.72,160.16l.7-.6c.45.21.93.46,1.42.74s.96.57,1.4.87c.44.3.79.58,1.06.85l-.72.7c-.27-.28-.61-.57-1.04-.87-.43-.3-.88-.6-1.37-.9s-.97-.56-1.45-.79ZM472.78,156.82l.68-.62c.45.19.92.41,1.39.68.47.27.93.53,1.36.8.43.27.78.53,1.05.78l-.7.68c-.27-.24-.61-.5-1.03-.79-.42-.29-.87-.56-1.35-.83-.48-.27-.95-.5-1.4-.7ZM479.02,165.4h.32l.28-.06.8.68c-.45.36-.97.71-1.56,1.04-.59.33-1.2.64-1.83.93s-1.25.54-1.85.75c-.07-.12-.17-.25-.31-.39-.14-.14-.26-.25-.35-.33.53-.19,1.08-.41,1.65-.68.57-.27,1.1-.55,1.61-.84s.92-.57,1.24-.84v-.26ZM477.76,160.74h3.58v.96h-3.58v-.96ZM477.78,156.5h3.86v.96h-3.86v-.96ZM477.88,158.62h3.62v.96h-3.62v-.96ZM481.1,156.5h1.28c-.04.76-.09,1.57-.14,2.42s-.11,1.68-.18,2.49c-.07.81-.13,1.5-.2,2.09h-1.3c.09-.6.17-1.31.24-2.12s.13-1.65.18-2.5c.05-.85.09-1.65.12-2.38Z"/>
              <path class="cls-30" d="M486.86,156.7h1.32v17.36h-1.32v-17.36ZM487.48,159.74h5.66v1.04h-5.66v-1.04ZM487.58,156.7h6.34v7.28h-6.34v-1.16h5.08v-4.98h-5.08v-1.14ZM502.56,156.7v1.14h-5.38v5h5.38v1.14h-6.66v-7.28h6.66ZM496.68,159.74h5.78v1.04h-5.78v-1.04ZM501.86,156.7h1.36v15.46c0,.48-.07.84-.2,1.09-.13.25-.36.43-.68.55-.33.11-.8.17-1.39.2-.59.03-1.34.04-2.25.04-.01-.13-.05-.28-.1-.45-.05-.17-.11-.33-.18-.5-.07-.17-.14-.32-.22-.45.48.03.93.04,1.36.04h1.78c.2-.01.34-.05.41-.12.07-.07.11-.19.11-.38v-15.48Z"/>
            </g>
          </g>
        </g>
      </g>
      <g id="_圖層_1-2" data-name="_圖層_1">
        <g class="cls-18">
          <g id="_圖層_1-2-2" data-name="_圖層_1-2">
            <path class="cls-4" d="M460.91,79.81c.77,0,1.25-.82.9-1.49-.65-1.27-1.83-2.87-3.56-2.8-1.78.08-2.88,1.37-3.45,2.3-.28.45-.88.63-1.34.38-.6-.33-1.49-.64-2.6-.65-.56,0-1.1.16-1.58.4-.98.49-.63,1.94.45,1.94l11.17-.06h0Z"/>
            <path class="cls-4" d="M399.05,109.87c-.79,0-1.32-.83-.95-1.54.68-1.33,1.89-3.01,3.69-2.93,1.87.06,3.02,1.4,3.61,2.36.3.49.92.64,1.4.39.63-.34,1.56-.69,2.7-.7.59,0,1.15.16,1.67.4,1.02.5.68,2.03-.45,2.03h-11.66,0Z"/>
            <g>
              <path class="cls-1" d="M447.66,87.4s-8.09,2.26-9.46,7.89l5.82,1.13s.69-6.68,3.93-8.03l-.29-.98h0Z"/>
              <g>
                <path class="cls-6" d="M481.84,109.43c1.04-.26,2.08.18,2.55,1.44l1.13,6.52-1.25-.33-1.56-4.73-.84-2.9h-.03,0Z"/>
                <path class="cls-23" d="M484.23,117.08l.56,1.05c.11.21.29.39.51.46l.87.35c.29.14.6-.11.59-.45h0l-.78-1.28c-.18-.28-.45-.51-.79-.63l-.55-.2-.4.69h-.01Z"/>
                <path class="cls-7" d="M477.76,101.86c1.59.25,6.26,7.02,6.42,7.73.19.79,1.4,5.39,1.4,5.39l-2.35.38s-1.56-3.83-1.87-4.11-4.64-4.44-4.64-4.44l1.02-4.93h.01Z"/>
              </g>
              <path class="cls-6" d="M465.86,98.28c-1.1.26-2.19-.21-2.67-1.56l-1.07-6.91,1.32.38,1.57,5.03.84,3.09h0v-.03h.01Z"/>
              <path class="cls-23" d="M463.43,90.17l-.58-1.14c-.11-.23-.31-.4-.53-.49l-.9-.39c-.31-.15-.64.09-.64.46h0l.8,1.38c.19.29.46.55.82.68l.58.21.44-.73h.01Z"/>
              <path class="cls-7" d="M470.05,106.36c-1.67-.29-6.51-7.51-6.66-8.28-.19-.84-1.4-5.73-1.4-5.73l2.47-.35s1.59,4.08,1.91,4.39,4.84,4.78,4.84,4.78l-1.15,5.19h0Z"/>
              <path class="cls-8" d="M471.3,98.01s-.73-.93.34-1.76c1.05-.83,1.05,1.33,1.02,1.37s-1.38.4-1.38.4h.03Z"/>
              <path class="cls-8" d="M474.31,98.37s-.21,1.1-1.05,1.05c-.83-.04-.66-2.45-.66-2.45l1.71,1.39h.01Z"/>
              <path class="cls-6" d="M471.65,98.72s0,1.2-.03,2.21c0,.26.16.51.41.64s.58.14.83,0c.08-.04.18-.08.24-.14.35-.19.55-.54.53-.9-.09-.94-.28-2.63-.28-2.63l-1.71.83h0Z"/>
              <polygon class="cls-10" points="471.55 99.49 471.64 100.16 472.39 99.59 471.55 99.49"/>
              <path class="cls-6" d="M473.81,97.52c.08-.34-.11-.69-.45-.78-.35-.09-.82-.21-1.18-.31-.34-.08-.64.14-.78.45-.18.39-.33,1.23-.38,1.86-.03.35.16.74.49.82.35.09,1.53.04,1.81-.59.21-.48.33-.95.45-1.44h.04Z"/>
              <path class="cls-8" d="M474.46,98.6s.33-1.33-.16-1.88c-.64-.75-1.54-1.22-2.66-.45,0,0-.6.28,1.22.73.23.05-.21,1.15.06,1.27.39.18.89.29,1.53.35h0v-.03h.01Z"/>
              <path class="cls-6" d="M473.85,98.97c-.18.24-.45.33-.65.19s-.23-.44-.05-.68.45-.33.65-.19.23.44.05.68Z"/>
              <path class="cls-5" d="M472.76,144.06s1.53-9.74-.33-13.61l1.13-13.23-6.13.43,3.64,26.5,1.71-.09h-.01Z"/>
              <path class="cls-8" d="M470.98,143.67l-.89.89c-.24.23-1.56.65-1.56.65h0c-.14.26.14.43.34.45l3.86-.08s.89-.19.11-1.91c-.71.31-1.69.54-1.87,0h0Z"/>
              <path class="cls-9" d="M467.01,119.68l1.29,11.24,1.78,11.22h4.49s-.41-1.96-.35-2.58c.05-.63.25-6.5-1.08-9.21l.19-11.01-6.32.31h0v.03Z"/>
              <path class="cls-2" d="M473.18,130.39l.19-11.01-2.14.11-.15,8.06c-.03,1.49.18,3.01.53,4.49.71,2.93.56,7.02.53,7.52-.05.63.35,2.58.35,2.58h2.14s-.41-1.96-.35-2.58.25-6.5-1.08-9.21h0v.03h-.01Z"/>
              <path class="cls-5" d="M486.84,142.5s-1.99-9.68-5.12-12.75l-3.61-12.84-5.69,2.26,12.88,23.93,1.54-.58h0Z"/>
              <path class="cls-8" d="M485.3,142.8l-.21,1.24c-.05.31-.83,1.43-.83,1.43h0c.06.29.38.25.56.16l3.06-2.35s.59-.68-1.13-1.56c-.38.66-.97,1.4-1.44,1.08h0v-.03h-.01Z"/>
              <path class="cls-9" d="M471.98,119.6l5.99,11.83,5.67,10.07,4.29-1.37s-1.07-1.73-1.24-2.32c-.18-.58-2.04-6.22-4.29-8.35l-3.86-11.53-6.53,1.68h-.03Z"/>
              <path class="cls-9" d="M476.19,110.7l-8.4.64c-1.37.49-.82,8.38-.82,8.38l5.52.25c2.57-.05,5.59,1.96,5.91-2.32.38-4.88-2.22-6.95-2.22-6.95h.01Z"/>
              <path class="cls-2" d="M478.63,118.21s-5.71.55-7.52-1.89l7.46-.64s.18,1.91.05,2.53h.01Z"/>
              <path class="cls-7" d="M468.03,101.14l2.91-.53,2.51-.25,4.09,1.23c1.1.49.79,1.53.43,2.67l.43,3.65c.93,2.75.98,4.8.93,7.65-4.49,1.84-11.36,1.63-12.87-.41.05-5.71-.05-7.81,1.57-14.01h.01Z"/>
              <path class="cls-23" d="M470.94,100.61s-.94,2.53.79,2.6c1.71.05,2.58-2.58,2.58-2.58l-1.27-.51-2.09.49h-.01Z"/>
              <path class="cls-31" d="M478.69,108.53s-.07-.02-.08-.05l-1.22-1.88s-.02-.06-.01-.09l.16-.48c.02-.05.07-.08.13-.06.05.02.08.07.06.13l-.15.43,1.19,1.84s.02.11-.03.14c-.02.01-.04.02-.05.02Z"/>
              <path class="cls-31" d="M467.2,104.7s-.01,0-.02,0c-.05,0-.09-.06-.08-.12.03-.16.29-.89.32-.97.02-.05.08-.08.13-.06.05.02.08.08.06.13-.11.32-.29.83-.31.94,0,.05-.05.08-.1.08Z"/>
              <g>
                <g>
                  <path class="cls-11" d="M447.95,88.36s.4-.44.97.68c.56,1.13,1.07,6.67,6.33,4.6l1.76-.75-1.64-3.32s-3.36,3.46-5.29-1.08c-.8-1.91-2.06-1.23-2.46-1.18l.33,1.04h.01Z"/>
                  <path class="cls-11" d="M460.28,86.22l-1.44.6.4.95.98-.41c.33-.15.74.06.9.48l.68,1.66c.18.41.03.84-.29.98l-.98.41.4.95,1.44-.6c.51-.21.71-.88.45-1.48l-1.17-2.78c-.25-.6-.88-.94-1.38-.74h0Z"/>
                  <path class="cls-11" d="M458.81,94.68l-2.47.55c-1.62.35-3.21-.66-3.57-2.27l-.11-5.86s.54-.45.55-.45l3.65-.51c-.11.18,1.89-.28,1.91-.25l2.32,5.24c.35,1.62-.66,3.21-2.27,3.57h0v-.03h0Z"/>
                </g>
                <path class="cls-12" d="M458.76,85.83c.08.43-1.2,1.04-2.88,1.42-1.68.35-3.11.31-3.2-.11s1.32-.9,3-1.25c1.68-.35,3-.45,3.1-.04h-.01Z"/>
              </g>
              <path class="cls-4" d="M471.33,98.37l.6.15s-.09.49-.43.38c-.33-.11-.19-.53-.19-.53h.01Z"/>
            </g>
            <circle class="cls-17" cx="435.3" cy="120.51" r="25.56"/>
            <path class="cls-26" d="M456.15,105.71c-1.14-.19-12.74-1.86-14.79,4.25-2.14,6.42-7.52,5.34-5.68,11.98,1.84,6.63,6.99,10.48,13.38,9.63,7.37-.99-6.73,9.96-1.17,11.16,12.32-6.75,17.36-23.63,8.25-37.02h0Z"/>
            <path class="cls-26" d="M421.38,99.08s11.15-.65,11.63,3.41c.46,4.06-2.37,3.39-6.06,5.73-3.69,2.36-5.33.48-7.44,4.05-2.11,3.57-8.92,1.76-8.92,1.76,0,0,1.44-8.84,10.79-14.92h-.01v-.03h.01Z"/>
            <path class="cls-26" d="M410.26,125.21s8.21-1.76,11.21,4.03,5.34,3.42,7.27,5.99c.54.73.49,1.67.15,2.66-1.37,3.83-6.03,5.28-9.36,2.97-3.39-2.32-7.37-6.86-9.24-15.65h-.04Z"/>
            <g class="cls-19">
              <path class="cls-21" d="M457.19,133.37c-7.1,12.19-22.61,16.3-34.8,9.21,26.99-1.73,34.65-26.61,25.6-44.15,12.19,7.1,16.32,22.76,9.22,34.95h-.01Z"/>
            </g>
            <g>
              <path class="cls-29" d="M435.4,88.02s3.19-10.53-11.33-12.23c0,0-.73,10.66,11.33,12.23Z"/>
              <path class="cls-29" d="M435.31,87.94s-3.4-9.96,10.41-12.06c0,0,1.04,10.15-10.41,12.06h0Z"/>
              <path class="cls-28" d="M435.36,95.06c-.06,0-.11-.05-.11-.11v-8.7c0-.06.05-.11.11-.11s.11.05.11.11v8.7c0,.06-.05.11-.11.11Z"/>
            </g>
            <g>
              <path class="cls-25" d="M444.97,110.16c-2.51-.08-4.62.79-6.22,1.86-2.35,1.56-3.65,3.52-3.69,3.56h0c-1.25,1.44-3.86,5.71-4.23,6.31-.63.88-1.19,1.56-1.74,2.08-1.1.88-2.46,1.25-4.28,1.22-3.04-.06-5.15-2.17-5.1-5.08.03-3.22,2.37-5.32,5.79-5.24,1.74.04,3.46,1.62,5.07,3.35,1.05-1.22,2.55-2.88,3.46-3.91-1.4-1.59-4.53-4.53-8.72-4.64-6.2-.16-10.42,3.95-10.48,10.22-.06,6.1,4.1,10.65,9.92,10.79,2.04.05,3.96-.53,5.68-1.69l.83-.63c.87-.71,1.68-1.57,2.46-2.61.01-.03.49-.71.77-1.19l.16-.21c1.53-2.87,5.15-6.2,5.15-6.2,1.07-1.05,2.42-2.23,3.81-2.63.04,0,.09,0,.15-.03.28-.06.58-.11.87-.09,3.42.08,5.71,2.3,5.67,5.53-.03,2.91-2.4,4.79-5.22,4.79s-.23,0-.33,0c-.64-.05-1.23-.23-1.77-.49l1-1.62-6.72.56,1.61,7.19,1.05-1.76c1.54,1.07,3.17,1.59,5.09,1.63,2.91.06,5.43-.98,7.25-2.81,1.81-1.82,2.88-4.43,2.93-7.49.06-6.27-4.06-10.55-10.26-10.75h.04v-.03h-.01Z"/>
              <path class="cls-28" d="M441.2,128.1s-.03,0-.05-.01c-.04-.03-.06-.09-.03-.13l2.72-4.25-6.52.56c-.05,0-.1-.03-.1-.09,0-.05.03-.1.09-.1l6.71-.58s.07.01.09.05c.02.03.02.07,0,.1l-2.82,4.41s-.05.04-.08.04Z"/>
            </g>
            <path class="cls-28" d="M410.26,125.79s-.09-.03-.1-.08c0-.03-.62-2.92-.43-6.81.18-3.6,1.12-8.82,4.54-13.26,6.55-8.49,14.77-10.06,14.85-10.07.06-.01.11.03.12.09s-.03.11-.09.12c-.08.01-8.23,1.57-14.72,9.99-3.38,4.39-4.31,9.57-4.49,13.13-.2,3.87.42,6.73.42,6.76.01.06-.02.11-.08.13,0,0-.02,0-.02,0Z"/>
            <path class="cls-28" d="M436.31,85.74s-.06-.01-.08-.03c-.04-.04-.04-.12,0-.16l8.43-8.47s.12-.04.16,0c.04.04.04.12,0,.16l-8.43,8.47s-.05.03-.08.03Z"/>
            <path class="cls-28" d="M433.63,85.3s-.06-.01-.08-.03c-2.54-2.38-8.45-7.94-8.51-8.18-.02-.06.02-.12.08-.14.05-.01.11.01.13.06.21.32,5.16,5,8.45,8.09.05.04.05.11,0,.16-.02.02-.05.04-.08.04Z"/>
            <path class="cls-28" d="M435.3,146.17c-.06,0-.11-.05-.11-.11s.05-.11.11-.11c14.03,0,25.45-11.42,25.45-25.45s-11.42-25.45-25.45-25.45c-.7,0-1.43.03-2.22.1-.06,0-.11-.04-.12-.1,0-.06.04-.11.1-.12.8-.07,1.53-.1,2.24-.1,6.86,0,13.3,2.67,18.15,7.52s7.52,11.29,7.52,18.15-2.67,13.3-7.52,18.15c-4.85,4.85-11.29,7.52-18.15,7.52Z"/>
          </g>
        </g>
      </g>
    </g>
  </g>
</svg>