<?xml version="1.0" encoding="UTF-8"?>
<svg id="_x32_7_x5F_環境保護" xmlns="http://www.w3.org/2000/svg" viewBox="0 0 1130 262">
  <defs>
    <style>
      .cls-1 {
        fill: #c1cfb2;
      }

      .cls-1, .cls-2, .cls-3, .cls-4, .cls-5, .cls-6, .cls-7, .cls-8, .cls-9, .cls-10, .cls-11 {
        fill-rule: evenodd;
      }

      .cls-2 {
        fill: #7c8c6b;
      }

      .cls-3 {
        fill: #1eabda;
      }

      .cls-12 {
        fill: #386b44;
      }

      .cls-13, .cls-4 {
        fill: #fff;
      }

      .cls-14 {
        fill: #fcf0f0;
        stroke: #fd6a65;
      }

      .cls-14, .cls-15, .cls-16 {
        stroke-linejoin: round;
        stroke-width: 2px;
      }

      .cls-14, .cls-16 {
        stroke-linecap: round;
      }

      .cls-17 {
        fill: #e2f0d4;
      }

      .cls-18, .cls-19 {
        isolation: isolate;
      }

      .cls-20, .cls-10 {
        fill: #633c1d;
      }

      .cls-21 {
        fill: #b4d691;
      }

      .cls-5, .cls-22 {
        fill: #e3633d;
      }

      .cls-6, .cls-23 {
        fill: #c95836;
      }

      .cls-7, .cls-24 {
        fill: #f5cd7d;
      }

      .cls-25, .cls-11 {
        fill: #458554;
      }

      .cls-8 {
        fill: #572a22;
      }

      .cls-26 {
        fill: #b5cf96;
      }

      .cls-9 {
        fill: #8c9e78;
      }

      .cls-15, .cls-16 {
        fill: none;
        stroke: #484848;
      }

      .cls-27 {
        fill: #484848;
      }

      .cls-28 {
        fill: #2a5241;
      }

      .cls-29 {
        fill: #97b870;
      }

      .cls-30 {
        fill: #fd6a65;
      }

      .cls-16 {
        stroke-dasharray: 5 7;
      }

      .cls-19 {
        mix-blend-mode: multiply;
        opacity: .7;
      }

      .cls-31 {
        fill: #b58e3e;
      }
    </style>
  </defs>
  <g id="g-root-cu_qvwc71nngl58-stroke">
    <g id="cu_qvwc71nngl58-stroke">
      <path class="cls-15" d="M536.02,120.5h13.6c5.74,0,10.4-4.66,10.4-10.4v-.1s0-24.1,0-24.1c0-5.74,4.66-10.4,10.4-10.4h13.6"/>
    </g>
  </g>
  <g>
    <g id="g-root-cu_4pfanxnngl55-stroke">
      <g id="cu_4pfanxnngl55-stroke">
        <path class="cls-16" d="M615.2,101.5v66h18"/>
      </g>
    </g>
    <g id="g-root-cu_9lsjhnnglxf-stroke">
      <g id="cu_9lsjhnnglxf-stroke">
        <path class="cls-16" d="M615.2,101.5v90c0,6.63,4.4,12,9.82,12h.08s8.1,0,8.1,0"/>
      </g>
    </g>
    <g id="g-root-cu_4pfanxnngl55-stroke-2" data-name="g-root-cu_4pfanxnngl55-stroke">
      <g id="cu_4pfanxnngl55-stroke-2" data-name="cu_4pfanxnngl55-stroke">
        <path class="cls-16" d="M615.2,100.91v29.63h18"/>
      </g>
    </g>
  </g>
  <g id="c240">
    <g id="tx__dfg14tnngnb9-fill">
      <g class="cls-18">
        <g class="cls-18">
          <path class="cls-27" d="M641.14,209.1h17.84v1.32h-17.84v-1.32ZM644.9,193.08l1.36.3c-.28,1.03-.62,2.03-1.02,3-.4.97-.84,1.88-1.32,2.73s-.99,1.59-1.54,2.23c-.08-.09-.19-.19-.34-.28-.15-.09-.3-.19-.45-.29-.15-.1-.29-.18-.41-.23.56-.6,1.07-1.3,1.53-2.09s.88-1.65,1.25-2.56c.37-.91.69-1.85.94-2.81ZM643.3,202.52h14.02v1.3h-14.02v-1.3ZM644.2,196.66h13.84v1.32h-13.84v-1.32ZM649.36,192.74h1.4v17.02h-1.4v-17.02Z"/>
          <path class="cls-27" d="M661.6,197.28c-.03-.08-.06-.19-.1-.34-.04-.15-.09-.3-.14-.45s-.11-.28-.16-.39c.16-.01.33-.07.5-.17.17-.1.36-.24.56-.41.13-.11.36-.3.67-.59.31-.29.66-.63,1.03-1.04.37-.41.71-.82,1.02-1.25l1.22.44c-.59.71-1.21,1.37-1.87,2s-1.3,1.15-1.91,1.56v.04c-.17.07-.31.13-.41.2-.1.07-.19.14-.28.21-.09.07-.13.14-.13.19ZM662.82,206.3l1.14.44c-.19.6-.42,1.25-.69,1.94-.27.69-.58,1.29-.91,1.78l-1.16-.6c.24-.31.46-.66.66-1.07.2-.41.38-.83.55-1.27.17-.44.3-.85.41-1.22ZM662.38,197.9h1.16v3.24c0,.49-.03,1.03-.09,1.6s-.18,1.14-.37,1.69c-.19.55-.46,1.05-.82,1.49-.07-.08-.16-.17-.27-.27-.11-.1-.23-.2-.35-.29-.12-.09-.23-.16-.32-.2.32-.4.55-.83.7-1.3.15-.47.24-.94.29-1.41.05-.47.07-.92.07-1.33v-3.22ZM661.6,197.28l-.02-.88.7-.4,6.7-.46c.03.15.06.31.11.5s.08.34.11.46c-1.28.11-2.35.2-3.22.28s-1.57.14-2.12.19c-.55.05-.97.09-1.26.12-.29.03-.51.07-.66.1-.15.03-.26.06-.34.09ZM663.14,197.9h5.3v1.04h-5.3v-1.04ZM663.48,202.84c.61-.13,1.33-.31,2.16-.52.83-.21,1.69-.43,2.58-.66l.12.78c-.77.25-1.54.5-2.29.74-.75.24-1.46.47-2.13.68l-.44-1.02ZM663.86,200.26l.52-.68c.37.11.76.24,1.17.4.41.16.8.32,1.18.47s.7.3.97.43l-.52.76c-.25-.13-.57-.28-.95-.44s-.78-.32-1.19-.49c-.41-.17-.81-.32-1.18-.45ZM665.6,206.5h1.3v2.54c0,.24.08.4.25.47.17.07.56.11,1.17.11h4.26c.33,0,.58-.04.74-.13.16-.09.27-.28.34-.59.07-.31.11-.76.14-1.36.16.09.35.18.57.27.22.09.42.15.61.19-.05.73-.15,1.3-.29,1.7-.14.4-.36.68-.67.83s-.75.23-1.32.23h-4.44c-.69,0-1.24-.05-1.63-.14-.39-.09-.66-.26-.81-.51-.15-.25-.22-.6-.22-1.05v-2.56ZM667.94,197.9h1.18v6.46c0,.29-.04.52-.12.68s-.23.29-.46.38c-.23.08-.53.13-.92.15-.39.02-.87.03-1.44.03-.03-.16-.08-.33-.17-.51-.09-.18-.16-.34-.23-.47.44.01.83.02,1.17.02h.67c.13-.01.22-.04.26-.08s.06-.11.06-.2v-6.46ZM666.82,194.24l.94-.5c.33.32.67.68,1.02,1.07.35.39.67.78.97,1.15s.54.71.73,1l-1,.58c-.17-.29-.41-.63-.7-1.02-.29-.39-.61-.78-.95-1.18-.34-.4-.68-.77-1.01-1.1ZM668.88,205.98l.92-.58c.37.37.77.79,1.18,1.25.41.46.74.84.98,1.15l-.94.7c-.24-.32-.56-.72-.97-1.2-.41-.48-.8-.92-1.17-1.32ZM671.44,192.88h1.26v3.72c0,.29.04.49.12.6.08.11.25.16.52.16h3.38c.23,0,.49-.01.79-.03.3-.02.54-.04.73-.07.01.17.03.36.05.57s.04.38.07.53c-.15.04-.37.07-.67.08-.3.01-.61.02-.93.02h-3.46c-.49,0-.87-.06-1.13-.18-.26-.12-.45-.32-.56-.59s-.17-.64-.17-1.11v-3.7ZM671.44,199.4h1.26v4.26c0,.24.06.4.18.47.12.07.39.11.82.11h3.04c.23,0,.39-.03.5-.1.11-.07.19-.2.24-.41.05-.21.09-.52.1-.93.13.09.31.18.53.26.22.08.42.14.59.18-.04.56-.12.99-.25,1.3-.13.31-.31.52-.56.64-.25.12-.58.18-1.01.18h-3.28c-.57,0-1.02-.05-1.33-.14-.31-.09-.53-.26-.65-.51-.12-.25-.18-.6-.18-1.05v-4.26ZM672.14,201.04h5.48v1.08h-5.48v-1.08ZM672.16,194.4h5.46v1.08h-5.46v-1.08ZM675.68,206.54l1.16-.32c.21.37.43.78.64,1.23s.41.88.6,1.29c.19.41.33.77.42,1.08l-1.22.42c-.11-.32-.25-.69-.42-1.11s-.36-.86-.57-1.31c-.21-.45-.41-.88-.61-1.28Z"/>
          <path class="cls-27" d="M689.3,192.8h1.48c-.03.57-.06,1.31-.11,2.22-.05.91-.15,1.92-.32,3.03-.17,1.11-.43,2.27-.8,3.46s-.87,2.37-1.5,3.54c-.63,1.17-1.44,2.26-2.43,3.28-.99,1.02-2.19,1.9-3.62,2.65-.12-.16-.28-.34-.48-.53s-.4-.36-.6-.51c1.4-.71,2.58-1.54,3.54-2.51.96-.97,1.74-2.01,2.35-3.12.61-1.11,1.08-2.24,1.41-3.38.33-1.14.58-2.23.73-3.28.15-1.05.25-1.99.28-2.83s.06-1.51.07-2.02ZM690.58,195.28c.04.23.1.66.19,1.3.09.64.24,1.41.45,2.31.21.9.52,1.86.91,2.88.39,1.02.9,2.03,1.53,3.04.63,1.01,1.4,1.94,2.33,2.81.93.87,2.02,1.59,3.29,2.16-.19.15-.37.33-.55.54-.18.21-.32.41-.43.6-1.31-.61-2.43-1.38-3.38-2.29s-1.74-1.91-2.38-2.98-1.16-2.15-1.57-3.23c-.41-1.08-.72-2.1-.94-3.06-.22-.96-.38-1.79-.49-2.49-.11-.7-.18-1.18-.22-1.45l1.26-.14Z"/>
          <path class="cls-27" d="M714.64,196.9l1.38.4c-.87,2.41-1.96,4.5-3.27,6.26-1.31,1.76-2.89,3.24-4.73,4.45-1.84,1.21-3.97,2.21-6.4,3.01-.04-.11-.11-.24-.21-.4s-.21-.32-.32-.48c-.11-.16-.22-.29-.31-.38,2.39-.71,4.47-1.63,6.26-2.76,1.79-1.13,3.31-2.53,4.56-4.19,1.25-1.66,2.27-3.63,3.04-5.91ZM701.04,196.3h18.04v1.3h-18.04v-1.3ZM705.3,196.96c.77,2.08,1.81,3.97,3.11,5.68,1.3,1.71,2.86,3.16,4.69,4.36,1.83,1.2,3.9,2.1,6.22,2.7-.09.09-.2.21-.32.36-.12.15-.23.3-.34.45-.11.15-.19.3-.26.43-2.39-.67-4.5-1.63-6.33-2.9-1.83-1.27-3.41-2.8-4.74-4.6-1.33-1.8-2.42-3.83-3.27-6.08l1.24-.4ZM708.52,193.04l1.38-.42c.32.47.63.99.94,1.58s.53,1.09.68,1.5l-1.46.48c-.13-.41-.35-.92-.64-1.51-.29-.59-.59-1.14-.9-1.63Z"/>
          <path class="cls-27" d="M721.12,205.94h17.86v1.16h-17.86v-1.16ZM721.56,199.9h17v3.56h-1.34v-2.52h-14.38v2.52h-1.28v-3.56ZM726.64,192.92l.62.84c-.57.23-1.23.41-1.97.56-.74.15-1.41.26-2.01.34l-.5-.78c.39-.07.82-.16,1.29-.27s.94-.23,1.4-.36.85-.24,1.17-.33ZM722.78,193.88l1.3.36.4,6.22h-1.26l-.44-6.58ZM723.52,195.62h3.62v.96h-3.62v-.96ZM723.62,197.74h3.62v.96h-3.62v-.96ZM724.8,202.4h9.58v1.04h-9.58v-1.04ZM729.56,205.02h1.3v4.56c0,.36-.05.63-.15.82-.1.19-.3.33-.61.44-.29.09-.7.14-1.22.15-.52,0-1.19,0-2,0-.03-.16-.09-.35-.18-.56-.09-.21-.19-.4-.28-.56.44.01.84.02,1.21.03s.69,0,.96,0,.46,0,.55,0c.16-.01.27-.04.33-.09.06-.05.09-.14.09-.27v-4.52ZM731.08,196.3l.98.3c-.48.63-1.08,1.23-1.8,1.81-.72.58-1.44,1.06-2.16,1.45-.08-.09-.2-.22-.36-.37-.16-.15-.29-.28-.4-.37.71-.33,1.4-.75,2.09-1.24.69-.49,1.24-1.02,1.65-1.58ZM731.02,192.92l.98.28c-.45.61-1.02,1.2-1.71,1.75-.69.55-1.37,1.02-2.05,1.39-.08-.09-.2-.21-.36-.36-.16-.15-.3-.25-.42-.32.68-.35,1.35-.76,2-1.23.65-.47,1.17-.98,1.56-1.51ZM727.76,197.16l.7-.6c.45.21.93.46,1.42.74s.96.57,1.4.87c.44.3.79.58,1.06.85l-.72.7c-.27-.28-.61-.57-1.04-.87-.43-.3-.88-.6-1.37-.9s-.97-.56-1.45-.79ZM727.82,193.82l.68-.62c.45.19.92.41,1.39.68.47.27.93.53,1.36.8.43.27.78.53,1.05.78l-.7.68c-.27-.24-.61-.5-1.03-.79-.42-.29-.87-.56-1.35-.83-.48-.27-.95-.5-1.4-.7ZM734.06,202.4h.32l.28-.06.8.68c-.45.36-.97.71-1.56,1.04-.59.33-1.2.64-1.83.93s-1.25.54-1.85.75c-.07-.12-.17-.25-.31-.39-.14-.14-.26-.25-.35-.33.53-.19,1.08-.41,1.65-.68.57-.27,1.1-.55,1.61-.84s.92-.57,1.24-.84v-.26ZM732.8,197.74h3.58v.96h-3.58v-.96ZM732.82,193.5h3.86v.96h-3.86v-.96ZM732.92,195.62h3.62v.96h-3.62v-.96ZM736.14,193.5h1.28c-.04.76-.09,1.57-.14,2.42s-.11,1.68-.18,2.49c-.07.81-.13,1.5-.2,2.09h-1.3c.09-.6.17-1.31.24-2.12s.13-1.65.18-2.5c.05-.85.09-1.65.12-2.38Z"/>
          <path class="cls-27" d="M745.9,205.48l1.34.48c-.39.52-.83,1.05-1.34,1.58s-1.03,1.03-1.57,1.49-1.07.87-1.59,1.23c-.08-.08-.19-.18-.34-.29-.15-.11-.29-.22-.44-.33-.15-.11-.27-.19-.38-.26.8-.49,1.59-1.09,2.37-1.78.78-.69,1.43-1.4,1.95-2.12ZM754.3,192.76l.98,1.06c-.81.37-1.74.73-2.77,1.07-1.03.34-2.13.66-3.28.96-1.15.3-2.33.58-3.52.84-1.19.26-2.36.5-3.51.71-.03-.17-.08-.37-.17-.58-.09-.21-.16-.39-.23-.54,1.12-.21,2.27-.45,3.44-.72,1.17-.27,2.32-.55,3.43-.85s2.15-.61,3.12-.94c.97-.33,1.8-.66,2.51-1.01ZM742.58,205.16c-.01-.11-.04-.24-.09-.4-.05-.16-.1-.32-.16-.49-.06-.17-.11-.31-.15-.43.31-.03.69-.12,1.14-.29.45-.17.99-.39,1.6-.67.33-.15.83-.38,1.49-.71.66-.33,1.41-.72,2.26-1.19s1.73-.98,2.64-1.55c.91-.57,1.78-1.16,2.61-1.79l1.04.88c-1.87,1.31-3.76,2.46-5.69,3.45-1.93.99-3.82,1.85-5.69,2.57v.04c-.2.07-.37.13-.5.18-.13.05-.25.12-.35.19s-.15.14-.15.21ZM742.58,205.16l-.04-1.04.98-.5,13.14-.9c-.03.19-.04.4-.04.63v.55c-2.03.15-3.77.27-5.23.38s-2.69.2-3.68.27-1.8.14-2.42.2-1.1.11-1.45.15-.61.08-.8.12c-.19.04-.34.09-.46.14ZM743.7,200.98c-.01-.09-.04-.22-.09-.38-.05-.16-.1-.32-.15-.49s-.1-.31-.14-.43c.21-.03.45-.09.72-.19.27-.1.56-.24.88-.41.23-.12.6-.34,1.13-.66s1.11-.7,1.75-1.15c.64-.45,1.25-.92,1.82-1.41l1.18.76c-.99.76-2.01,1.46-3.06,2.09-1.05.63-2.09,1.17-3.1,1.61v.04c-.19.08-.34.15-.47.21-.13.06-.24.13-.33.2-.09.07-.14.14-.14.21ZM743.7,200.98l-.02-.98.82-.42,7.5-.38c-.04.16-.07.35-.09.57-.02.22-.04.4-.05.53-1.37.08-2.52.15-3.45.21-.93.06-1.68.11-2.26.16s-1.03.09-1.35.12c-.32.03-.56.06-.71.09-.15.03-.28.06-.39.1ZM749.54,203.64h1.36v5.74c0,.39-.05.69-.16.9-.11.21-.31.37-.62.48-.31.11-.71.17-1.22.2s-1.13.04-1.86.04c-.04-.2-.11-.43-.21-.68-.1-.25-.2-.47-.31-.66.41.01.8.03,1.16.04.36.01.67.02.93,0,.26,0,.44-.02.53-.03.17-.01.28-.04.33-.08.05-.04.07-.12.07-.24v-5.72ZM752.84,206l1.04-.7c.53.41,1.09.86,1.68,1.34.59.48,1.14.95,1.67,1.42.53.47.96.89,1.29,1.26l-1.12.78c-.32-.36-.74-.78-1.25-1.26-.51-.48-1.06-.97-1.63-1.47s-1.13-.96-1.68-1.37ZM753.38,200.74l1.1-.54c.51.45,1.02.95,1.55,1.48.53.53,1.02,1.05,1.47,1.56.45.51.82.96,1.1,1.36l-1.14.68c-.27-.4-.63-.87-1.08-1.4s-.94-1.07-1.47-1.62c-.53-.55-1.04-1.05-1.53-1.52Z"/>
        </g>
      </g>
    </g>
  </g>
  <g id="c239">
    <g id="tx__hv9j99nngmj0-fill">
      <g class="cls-18">
        <g class="cls-18">
          <path class="cls-27" d="M646.74,161.9h.28l.26-.06.86.34c-.32,1.75-.79,3.32-1.41,4.71-.62,1.39-1.34,2.61-2.15,3.64-.81,1.03-1.69,1.88-2.64,2.55-.07-.11-.17-.23-.3-.37-.13-.14-.27-.27-.41-.4-.14-.13-.26-.22-.37-.27.93-.61,1.79-1.39,2.58-2.34s1.46-2.05,2.03-3.31c.57-1.26.99-2.65,1.27-4.17v-.32ZM641.48,161.9h5.68v1.34h-5.68v-1.34ZM649.34,156.78h1.42v16.42c0,.47-.06.82-.18,1.06s-.33.42-.62.54c-.28.12-.67.2-1.16.24s-1.12.06-1.88.06c-.03-.13-.07-.29-.13-.47s-.12-.36-.19-.54c-.07-.18-.13-.34-.2-.47.57.03,1.1.04,1.57.04s.78,0,.93-.02c.16,0,.27-.03.34-.09.07-.06.1-.18.1-.35v-16.42ZM650.66,161.34c.43,1.08.95,2.14,1.56,3.19.61,1.05,1.3,2.03,2.06,2.95.76.92,1.58,1.75,2.46,2.48.88.73,1.8,1.32,2.76,1.76-.11.09-.22.21-.35.36-.13.15-.25.29-.36.44-.11.15-.21.29-.29.42-.97-.52-1.9-1.17-2.78-1.96-.88-.79-1.7-1.68-2.46-2.67-.76-.99-1.45-2.06-2.06-3.19-.61-1.13-1.14-2.29-1.58-3.48l1.04-.3ZM656.42,160.54l1.2.86c-.45.53-.95,1.09-1.5,1.68-.55.59-1.09,1.15-1.64,1.68-.55.53-1.06,1-1.54,1.4l-.92-.72c.47-.41.97-.9,1.51-1.47.54-.57,1.06-1.15,1.57-1.75.51-.6.95-1.16,1.32-1.68Z"/>
          <path class="cls-27" d="M661.1,172.84h17.88v1.32h-17.88v-1.32ZM662.36,163.22h15.34v1.3h-15.34v-1.3ZM669.28,156.8h1.4v16.88h-1.4v-16.88Z"/>
          <path class="cls-27" d="M685.64,156.8l1.26.38c-.45,1.13-.98,2.24-1.58,3.32-.6,1.08-1.24,2.1-1.93,3.05-.69.95-1.4,1.8-2.13,2.55-.04-.11-.11-.24-.2-.41-.09-.17-.19-.33-.29-.5-.1-.17-.2-.3-.29-.41.69-.64,1.35-1.39,1.98-2.24.63-.85,1.22-1.77,1.77-2.75.55-.98,1.02-1.98,1.41-2.99ZM683.48,161.88l1.26-1.26.02.02v14.38h-1.28v-13.14ZM689.32,168.74l1.22.38c-.32.56-.68,1.14-1.08,1.74-.4.6-.8,1.18-1.21,1.73-.41.55-.8,1.04-1.19,1.47-.08-.07-.18-.15-.3-.25-.12-.1-.25-.2-.39-.29-.14-.09-.26-.17-.37-.22.59-.61,1.18-1.33,1.78-2.15.6-.82,1.11-1.62,1.54-2.41ZM686.1,166.48h13.04v1.22h-13.04v-1.22ZM687.6,157.68h10.34v6.28h-10.34v-6.28ZM688.88,158.9v3.84h7.74v-3.84h-7.74ZM692.04,163.56h1.34v11.52h-1.34v-11.52ZM694.58,169.3l1.02-.56c.44.47.89.97,1.35,1.52.46.55.89,1.08,1.28,1.61.39.53.71,1,.95,1.41l-1.1.7c-.23-.43-.53-.91-.92-1.46-.39-.55-.8-1.1-1.25-1.66-.45-.56-.89-1.08-1.33-1.56Z"/>
          <path class="cls-27" d="M700.6,167.44c.77-.21,1.72-.49,2.83-.84,1.11-.35,2.24-.71,3.39-1.08l.18,1.24c-1.05.35-2.11.7-3.17,1.05-1.06.35-2.02.67-2.87.95l-.36-1.32ZM700.88,160.8h6.08v1.26h-6.08v-1.26ZM703.54,156.74h1.26v16.62c0,.39-.05.68-.15.88s-.27.35-.51.46c-.23.11-.54.18-.93.21-.39.03-.9.05-1.53.05-.03-.16-.08-.36-.15-.61-.07-.25-.16-.46-.25-.63.44.01.84.02,1.2.02s.6,0,.72-.02c.12,0,.21-.03.26-.08.05-.05.08-.15.08-.28v-16.62ZM707.26,159.4h11.94v1.22h-11.94v-1.22ZM707.5,166.88h11.56v1.24h-11.56v-1.24ZM708.28,163.22h9.98v1.24h-9.98v-1.24ZM709.06,169.36l1.02-.56c.27.36.54.75.83,1.17.29.42.56.83.82,1.23.26.4.48.75.65,1.04l-1.1.7c-.15-.31-.34-.67-.59-1.08s-.51-.84-.8-1.28c-.29-.44-.56-.85-.83-1.22ZM715.26,165.02h1.28v8.42c0,.41-.05.73-.16.94s-.31.38-.6.5c-.28.09-.66.15-1.15.18-.49.03-1.1.04-1.85.04-.03-.19-.08-.4-.16-.65-.08-.25-.17-.46-.26-.65.59.01,1.11.02,1.58.03s.78,0,.94,0c.15-.01.25-.05.3-.1s.08-.15.08-.3v-8.4ZM712.62,156.84h1.26v7.12h-1.26v-7.12Z"/>
          <path class="cls-27" d="M721.12,169.94h17.86v1.16h-17.86v-1.16ZM721.56,163.9h17v3.56h-1.34v-2.52h-14.38v2.52h-1.28v-3.56ZM726.64,156.92l.62.84c-.57.23-1.23.41-1.97.56-.74.15-1.41.26-2.01.34l-.5-.78c.39-.07.82-.16,1.29-.27s.94-.23,1.4-.36.85-.24,1.17-.33ZM722.78,157.88l1.3.36.4,6.22h-1.26l-.44-6.58ZM723.52,159.62h3.62v.96h-3.62v-.96ZM723.62,161.74h3.62v.96h-3.62v-.96ZM724.8,166.4h9.58v1.04h-9.58v-1.04ZM729.56,169.02h1.3v4.56c0,.36-.05.63-.15.82-.1.19-.3.33-.61.44-.29.09-.7.14-1.22.15-.52,0-1.19,0-2,0-.03-.16-.09-.35-.18-.56-.09-.21-.19-.4-.28-.56.44.01.84.02,1.21.03s.69,0,.96,0,.46,0,.55,0c.16-.01.27-.04.33-.09.06-.05.09-.14.09-.27v-4.52ZM731.08,160.3l.98.3c-.48.63-1.08,1.23-1.8,1.81-.72.58-1.44,1.06-2.16,1.45-.08-.09-.2-.22-.36-.37-.16-.15-.29-.28-.4-.37.71-.33,1.4-.75,2.09-1.24.69-.49,1.24-1.02,1.65-1.58ZM731.02,156.92l.98.28c-.45.61-1.02,1.2-1.71,1.75-.69.55-1.37,1.02-2.05,1.39-.08-.09-.2-.21-.36-.36-.16-.15-.3-.25-.42-.32.68-.35,1.35-.76,2-1.23.65-.47,1.17-.98,1.56-1.51ZM727.76,161.16l.7-.6c.45.21.93.46,1.42.74s.96.57,1.4.87c.44.3.79.58,1.06.85l-.72.7c-.27-.28-.61-.57-1.04-.87-.43-.3-.88-.6-1.37-.9s-.97-.56-1.45-.79ZM727.82,157.82l.68-.62c.45.19.92.41,1.39.68.47.27.93.53,1.36.8.43.27.78.53,1.05.78l-.7.68c-.27-.24-.61-.5-1.03-.79-.42-.29-.87-.56-1.35-.83-.48-.27-.95-.5-1.4-.7ZM734.06,166.4h.32l.28-.06.8.68c-.45.36-.97.71-1.56,1.04-.59.33-1.2.64-1.83.93s-1.25.54-1.85.75c-.07-.12-.17-.25-.31-.39-.14-.14-.26-.25-.35-.33.53-.19,1.08-.41,1.65-.68.57-.27,1.1-.55,1.61-.84s.92-.57,1.24-.84v-.26ZM732.8,161.74h3.58v.96h-3.58v-.96ZM732.82,157.5h3.86v.96h-3.86v-.96ZM732.92,159.62h3.62v.96h-3.62v-.96ZM736.14,157.5h1.28c-.04.76-.09,1.57-.14,2.42s-.11,1.68-.18,2.49c-.07.81-.13,1.5-.2,2.09h-1.3c.09-.6.17-1.31.24-2.12s.13-1.65.18-2.5c.05-.85.09-1.65.12-2.38Z"/>
          <path class="cls-27" d="M745.9,169.48l1.34.48c-.39.52-.83,1.05-1.34,1.58s-1.03,1.03-1.57,1.49-1.07.87-1.59,1.23c-.08-.08-.19-.18-.34-.29-.15-.11-.29-.22-.44-.33-.15-.11-.27-.19-.38-.26.8-.49,1.59-1.09,2.37-1.78.78-.69,1.43-1.4,1.95-2.12ZM754.3,156.76l.98,1.06c-.81.37-1.74.73-2.77,1.07-1.03.34-2.13.66-3.28.96-1.15.3-2.33.58-3.52.84-1.19.26-2.36.5-3.51.71-.03-.17-.08-.37-.17-.58-.09-.21-.16-.39-.23-.54,1.12-.21,2.27-.45,3.44-.72,1.17-.27,2.32-.55,3.43-.85s2.15-.61,3.12-.94c.97-.33,1.8-.66,2.51-1.01ZM742.58,169.16c-.01-.11-.04-.24-.09-.4-.05-.16-.1-.32-.16-.49-.06-.17-.11-.31-.15-.43.31-.03.69-.12,1.14-.29.45-.17.99-.39,1.6-.67.33-.15.83-.38,1.49-.71.66-.33,1.41-.72,2.26-1.19s1.73-.98,2.64-1.55c.91-.57,1.78-1.16,2.61-1.79l1.04.88c-1.87,1.31-3.76,2.46-5.69,3.45-1.93.99-3.82,1.85-5.69,2.57v.04c-.2.07-.37.13-.5.18-.13.05-.25.12-.35.19s-.15.14-.15.21ZM742.58,169.16l-.04-1.04.98-.5,13.14-.9c-.03.19-.04.4-.04.63v.55c-2.03.15-3.77.27-5.23.38s-2.69.2-3.68.27-1.8.14-2.42.2-1.1.11-1.45.15-.61.08-.8.12c-.19.04-.34.09-.46.14ZM743.7,164.98c-.01-.09-.04-.22-.09-.38-.05-.16-.1-.32-.15-.49s-.1-.31-.14-.43c.21-.03.45-.09.72-.19.27-.1.56-.24.88-.41.23-.12.6-.34,1.13-.66s1.11-.7,1.75-1.15c.64-.45,1.25-.92,1.82-1.41l1.18.76c-.99.76-2.01,1.46-3.06,2.09-1.05.63-2.09,1.17-3.1,1.61v.04c-.19.08-.34.15-.47.21-.13.06-.24.13-.33.2-.09.07-.14.14-.14.21ZM743.7,164.98l-.02-.98.82-.42,7.5-.38c-.04.16-.07.35-.09.57-.02.22-.04.4-.05.53-1.37.08-2.52.15-3.45.21-.93.06-1.68.11-2.26.16s-1.03.09-1.35.12c-.32.03-.56.06-.71.09-.15.03-.28.06-.39.1ZM749.54,167.64h1.36v5.74c0,.39-.05.69-.16.9-.11.21-.31.37-.62.48-.31.11-.71.17-1.22.2s-1.13.04-1.86.04c-.04-.2-.11-.43-.21-.68-.1-.25-.2-.47-.31-.66.41.01.8.03,1.16.04.36.01.67.02.93,0,.26,0,.44-.02.53-.03.17-.01.28-.04.33-.08.05-.04.07-.12.07-.24v-5.72ZM752.84,170l1.04-.7c.53.41,1.09.86,1.68,1.34.59.48,1.14.95,1.67,1.42.53.47.96.89,1.29,1.26l-1.12.78c-.32-.36-.74-.78-1.25-1.26-.51-.48-1.06-.97-1.63-1.47s-1.13-.96-1.68-1.37ZM753.38,164.74l1.1-.54c.51.45,1.02.95,1.55,1.48.53.53,1.02,1.05,1.47,1.56.45.51.82.96,1.1,1.36l-1.14.68c-.27-.4-.63-.87-1.08-1.4s-.94-1.07-1.47-1.62c-.53-.55-1.04-1.05-1.53-1.52Z"/>
        </g>
      </g>
    </g>
  </g>
  <g id="c238">
    <g id="tx__qqwji5nnglqb-fill">
      <g class="cls-18">
        <g class="cls-18">
          <path class="cls-27" d="M640.62,135.62c.72-.19,1.56-.43,2.53-.73.97-.3,1.96-.61,2.97-.93l.16,1.2c-.93.29-1.87.59-2.81.9-.94.31-1.8.58-2.57.82l-.28-1.26ZM640.86,122.14h5.38v1.22h-5.38v-1.22ZM641.06,127.96h4.92v1.2h-4.92v-1.2ZM643,122.82h1.2v12.4l-1.2.34v-12.74ZM652.2,132.32l.96.44c-.48.51-1.07,1.01-1.78,1.5-.71.49-1.45.93-2.23,1.32-.78.39-1.54.7-2.29.94-.08-.15-.2-.31-.35-.5-.15-.19-.3-.34-.43-.46.73-.2,1.49-.47,2.27-.8.78-.33,1.51-.71,2.19-1.13s1.23-.86,1.66-1.31ZM646.86,126.72h12.08v1.1h-12.08v-1.1ZM647.72,121.44h10.54v4.2h-10.54v-4.2ZM648.26,128.98h9.38v4.1h-9.38v-4.1ZM648.98,138.98c-.04-.15-.11-.32-.22-.53-.11-.21-.21-.37-.3-.49.13-.07.28-.19.43-.37.15-.18.23-.46.23-.85v-2l1.12-.28v3.38c-.25.15-.46.28-.63.4s-.31.25-.44.38c-.13.13-.19.25-.19.36ZM648.88,122.44v2.2h2v-2.2h-2ZM648.98,138.98l-.06-.94.58-.46,4.2-1c-.01.15-.02.32-.02.52s0,.37.02.5c-.96.25-1.74.46-2.33.62-.59.16-1.05.29-1.36.38-.31.09-.54.17-.69.23-.15.06-.26.11-.34.15ZM649.46,130.02v2.02h6.92v-2.02h-6.92ZM651.86,122.44v2.2h2.1v-2.2h-2.1ZM653.7,132.52c.31.83.72,1.6,1.25,2.31.53.71,1.16,1.33,1.91,1.84.75.51,1.58.9,2.5,1.17-.13.11-.28.26-.45.47-.17.21-.29.4-.37.57-1.45-.48-2.68-1.26-3.68-2.33s-1.74-2.33-2.22-3.77l1.06-.26ZM657.76,133.4l.92.8c-.53.35-1.12.69-1.75,1.04-.63.35-1.21.63-1.73.86l-.68-.62c.33-.19.7-.4,1.1-.65s.79-.5,1.18-.75.71-.48.96-.68ZM654.94,122.44v2.2h2.14v-2.2h-2.14Z"/>
          <path class="cls-27" d="M660.74,134.98c.51-.16,1.09-.36,1.74-.59.65-.23,1.35-.49,2.08-.76.73-.27,1.47-.54,2.2-.81l.26,1.22c-1.01.41-2.03.82-3.05,1.22-1.02.4-1.95.76-2.79,1.08l-.44-1.36ZM661.06,125.64h5.54v1.26h-5.54v-1.26ZM663.3,120.96h1.3v13.4h-1.3v-13.4ZM670.54,133.52h1.28c-.07.79-.19,1.48-.37,2.09-.18.61-.46,1.13-.83,1.57-.37.44-.87.82-1.5,1.14-.63.32-1.41.59-2.36.82-.04-.11-.1-.23-.17-.36-.07-.13-.16-.26-.25-.39s-.19-.23-.3-.31c.87-.17,1.58-.39,2.14-.64.56-.25,1-.56,1.33-.92.33-.36.57-.79.72-1.28s.26-1.07.31-1.72ZM667.36,125.9h11.16v1.16h-11.16v-1.16ZM667.98,122.24h10v1.14h-10v-1.14ZM668.36,128.18h9.06v5.66h-9.06v-5.66ZM669.58,123.86l1.12-.24c.15.32.29.67.44,1.05.15.38.25.71.32.99l-1.18.32c-.05-.28-.15-.62-.28-1.02s-.27-.77-.42-1.1ZM669.6,129.14v1.4h6.54v-1.4h-6.54ZM669.6,131.46v1.4h6.54v-1.4h-6.54ZM671.8,120.86l1.24-.24c.16.29.32.62.47.99.15.37.28.68.37.95l-1.3.34c-.08-.28-.19-.61-.34-.99-.15-.38-.29-.73-.44-1.05ZM673.66,133.54h1.28v3.5c0,.35.05.55.16.6.12.05.32.08.6.08h1.04c.15,0,.29,0,.43,0s.24-.02.31-.05c.19-.05.31-.2.38-.44.03-.15.04-.37.05-.66,0-.29.02-.65.03-1.08.13.12.31.23.52.33.21.1.41.18.58.23-.03.41-.06.81-.09,1.18-.03.37-.08.64-.15.8-.15.32-.39.53-.72.62-.15.05-.34.09-.58.12-.24.03-.45.04-.64.04h-1.38c-.23,0-.47-.03-.72-.08-.25-.05-.46-.13-.62-.24-.17-.12-.3-.28-.37-.49-.07-.21-.11-.57-.11-1.09v-3.36ZM675.02,123.66l1.24.32c-.19.43-.39.86-.6,1.3-.21.44-.41.82-.6,1.14l-1.04-.28c.17-.35.36-.76.55-1.23s.34-.89.45-1.25Z"/>
          <path class="cls-27" d="M681.02,125.08h5.7v1.12h-5.7v-1.12ZM687.04,136.08l1.22.56c-.55.31-1.17.61-1.87.91-.7.3-1.42.58-2.16.83-.74.25-1.44.47-2.11.66-.07-.09-.16-.2-.28-.33-.12-.13-.24-.25-.37-.38-.13-.13-.24-.23-.35-.31.69-.15,1.4-.32,2.13-.52.73-.2,1.42-.42,2.07-.67s1.23-.5,1.72-.75ZM681.46,121.96h4.76v1.08h-4.76v-1.08ZM683.66,127.82h12.98v8.06h-12.98v-8.06ZM684.98,128.74v1.46h10.32v-1.46h-10.32ZM684.98,131.1v1.46h10.32v-1.46h-10.32ZM684.98,133.46v1.5h10.32v-1.5h-10.32ZM692.12,122.74h1.26v.66c0,.39-.07.78-.2,1.18-.13.4-.41.79-.82,1.18s-1.04.74-1.87,1.06c-.83.32-1.96.6-3.37.84-.07-.16-.17-.34-.32-.55-.15-.21-.29-.37-.42-.49,1.32-.19,2.36-.41,3.13-.67.77-.26,1.34-.54,1.71-.83.37-.29.62-.59.73-.89.11-.3.17-.59.17-.87v-.62ZM689.68,120.68l1.2.28c-.27.81-.62,1.6-1.07,2.36-.45.76-.92,1.4-1.43,1.92-.08-.07-.18-.14-.3-.23-.12-.09-.25-.17-.38-.26-.13-.09-.25-.15-.36-.19.52-.49.98-1.08,1.39-1.75.41-.67.72-1.38.95-2.13ZM689.32,122.12h8.28v1.06h-8.28v-1.06ZM691.98,136.82l.92-.76c.72.21,1.45.45,2.19.7.74.25,1.43.5,2.08.75.65.25,1.21.48,1.69.69l-1.2.8c-.43-.23-.94-.46-1.55-.71-.61-.25-1.26-.5-1.97-.75-.71-.25-1.43-.49-2.16-.72ZM693.18,124c.33.43.8.81,1.4,1.16s1.3.63,2.09.84c.79.21,1.65.37,2.57.46-.15.12-.29.29-.44.5-.15.21-.26.41-.34.58-.95-.15-1.83-.37-2.64-.67s-1.53-.67-2.14-1.12c-.61-.45-1.11-.96-1.48-1.53l.98-.22ZM697.16,122.12h.24l.22-.08.88.32c-.25.49-.52,1-.81,1.53-.29.53-.57.97-.85,1.33l-1.06-.36c.23-.35.47-.75.73-1.22.26-.47.48-.91.65-1.34v-.18Z"/>
          <path class="cls-27" d="M700.82,127.28l.76-.94c.39.2.79.42,1.22.67.43.25.84.49,1.23.72.39.23.72.44.97.63l-.78,1.08c-.25-.2-.58-.43-.97-.68-.39-.25-.8-.51-1.23-.77s-.83-.5-1.2-.71ZM701.26,138.02c.31-.53.64-1.16,1-1.87.36-.71.72-1.47,1.09-2.28.37-.81.7-1.58.99-2.33l1.08.76c-.28.71-.59,1.44-.92,2.2-.33.76-.68,1.51-1.03,2.25-.35.74-.69,1.42-1.01,2.03l-1.2-.76ZM701.8,121.9l.8-.94c.36.23.75.47,1.18.73.43.26.83.52,1.22.77.39.25.71.48.96.68l-.82,1.06c-.24-.2-.55-.44-.94-.71-.39-.27-.79-.55-1.22-.83s-.82-.53-1.18-.76ZM706.82,121.7h1.3v5.48c0,.87-.03,1.81-.09,2.83-.06,1.02-.18,2.06-.37,3.11-.19,1.05-.46,2.08-.81,3.09-.35,1.01-.83,1.93-1.43,2.77-.07-.08-.17-.17-.31-.26-.14-.09-.28-.18-.42-.27-.14-.09-.26-.15-.37-.19.56-.8,1.01-1.67,1.35-2.62.34-.95.59-1.91.75-2.89.16-.98.27-1.95.32-2.9.05-.95.08-1.84.08-2.67v-5.48ZM707.28,121.7h11.72v1.22h-11.72v-1.22ZM710.14,133.38l1.22.34c-.23.49-.49.99-.78,1.49-.29.5-.59.98-.9,1.43-.31.45-.61.85-.92,1.2-.07-.07-.17-.14-.3-.23-.13-.09-.27-.17-.41-.26-.14-.09-.26-.16-.37-.21.47-.49.92-1.07,1.36-1.74.44-.67.81-1.34,1.1-2.02ZM709.36,125.34h8.84v6.86h-8.84v-6.86ZM713.04,131.66h1.28v5.96c0,.35-.04.62-.13.81-.09.19-.26.34-.53.43-.25.09-.6.15-1.04.18-.44.03-1,.03-1.68.02-.03-.17-.07-.37-.14-.58-.07-.21-.15-.41-.24-.58.51.01.96.02,1.36.02h.78c.23-.01.34-.12.34-.32v-5.94ZM710.58,126.4v1.84h6.38v-1.84h-6.38ZM710.58,129.26v1.88h6.38v-1.88h-6.38ZM713.06,123.26l1.46.32c-.19.44-.38.88-.58,1.33-.2.45-.39.82-.56,1.13l-1.06-.32c.13-.35.27-.75.41-1.22s.25-.88.33-1.24ZM715.8,133.7l1.16-.46c.28.41.57.85.87,1.32.3.47.58.92.84,1.37.26.45.47.83.63,1.15l-1.22.56c-.16-.33-.37-.73-.62-1.18s-.52-.92-.81-1.41c-.29-.49-.57-.94-.85-1.35Z"/>
          <path class="cls-27" d="M721.12,133.94h17.86v1.16h-17.86v-1.16ZM721.56,127.9h17v3.56h-1.34v-2.52h-14.38v2.52h-1.28v-3.56ZM726.64,120.92l.62.84c-.57.23-1.23.41-1.97.56-.74.15-1.41.26-2.01.34l-.5-.78c.39-.07.82-.16,1.29-.27s.94-.23,1.4-.36.85-.24,1.17-.33ZM722.78,121.88l1.3.36.4,6.22h-1.26l-.44-6.58ZM723.52,123.62h3.62v.96h-3.62v-.96ZM723.62,125.74h3.62v.96h-3.62v-.96ZM724.8,130.4h9.58v1.04h-9.58v-1.04ZM729.56,133.02h1.3v4.56c0,.36-.05.63-.15.82-.1.19-.3.33-.61.44-.29.09-.7.14-1.22.15-.52,0-1.19,0-2,0-.03-.16-.09-.35-.18-.56-.09-.21-.19-.4-.28-.56.44.01.84.02,1.21.03s.69,0,.96,0,.46,0,.55,0c.16-.01.27-.04.33-.09.06-.05.09-.14.09-.27v-4.52ZM731.08,124.3l.98.3c-.48.63-1.08,1.23-1.8,1.81-.72.58-1.44,1.06-2.16,1.45-.08-.09-.2-.22-.36-.37-.16-.15-.29-.28-.4-.37.71-.33,1.4-.75,2.09-1.24.69-.49,1.24-1.02,1.65-1.58ZM731.02,120.92l.98.28c-.45.61-1.02,1.2-1.71,1.75-.69.55-1.37,1.02-2.05,1.39-.08-.09-.2-.21-.36-.36-.16-.15-.3-.25-.42-.32.68-.35,1.35-.76,2-1.23.65-.47,1.17-.98,1.56-1.51ZM727.76,125.16l.7-.6c.45.21.93.46,1.42.74s.96.57,1.4.87c.44.3.79.58,1.06.85l-.72.7c-.27-.28-.61-.57-1.04-.87-.43-.3-.88-.6-1.37-.9s-.97-.56-1.45-.79ZM727.82,121.82l.68-.62c.45.19.92.41,1.39.68.47.27.93.53,1.36.8.43.27.78.53,1.05.78l-.7.68c-.27-.24-.61-.5-1.03-.79-.42-.29-.87-.56-1.35-.83-.48-.27-.95-.5-1.4-.7ZM734.06,130.4h.32l.28-.06.8.68c-.45.36-.97.71-1.56,1.04-.59.33-1.2.64-1.83.93s-1.25.54-1.85.75c-.07-.12-.17-.25-.31-.39-.14-.14-.26-.25-.35-.33.53-.19,1.08-.41,1.65-.68.57-.27,1.1-.55,1.61-.84s.92-.57,1.24-.84v-.26ZM732.8,125.74h3.58v.96h-3.58v-.96ZM732.82,121.5h3.86v.96h-3.86v-.96ZM732.92,123.62h3.62v.96h-3.62v-.96ZM736.14,121.5h1.28c-.04.76-.09,1.57-.14,2.42s-.11,1.68-.18,2.49c-.07.81-.13,1.5-.2,2.09h-1.3c.09-.6.17-1.31.24-2.12s.13-1.65.18-2.5c.05-.85.09-1.65.12-2.38Z"/>
          <path class="cls-27" d="M745.9,133.48l1.34.48c-.39.52-.83,1.05-1.34,1.58s-1.03,1.03-1.57,1.49-1.07.87-1.59,1.23c-.08-.08-.19-.18-.34-.29-.15-.11-.29-.22-.44-.33-.15-.11-.27-.19-.38-.26.8-.49,1.59-1.09,2.37-1.78.78-.69,1.43-1.4,1.95-2.12ZM754.3,120.76l.98,1.06c-.81.37-1.74.73-2.77,1.07-1.03.34-2.13.66-3.28.96-1.15.3-2.33.58-3.52.84-1.19.26-2.36.5-3.51.71-.03-.17-.08-.37-.17-.58-.09-.21-.16-.39-.23-.54,1.12-.21,2.27-.45,3.44-.72,1.17-.27,2.32-.55,3.43-.85s2.15-.61,3.12-.94c.97-.33,1.8-.66,2.51-1.01ZM742.58,133.16c-.01-.11-.04-.24-.09-.4-.05-.16-.1-.32-.16-.49-.06-.17-.11-.31-.15-.43.31-.03.69-.12,1.14-.29.45-.17.99-.39,1.6-.67.33-.15.83-.38,1.49-.71.66-.33,1.41-.72,2.26-1.19s1.73-.98,2.64-1.55c.91-.57,1.78-1.16,2.61-1.79l1.04.88c-1.87,1.31-3.76,2.46-5.69,3.45-1.93.99-3.82,1.85-5.69,2.57v.04c-.2.07-.37.13-.5.18-.13.05-.25.12-.35.19s-.15.14-.15.21ZM742.58,133.16l-.04-1.04.98-.5,13.14-.9c-.03.19-.04.4-.04.63v.55c-2.03.15-3.77.27-5.23.38s-2.69.2-3.68.27-1.8.14-2.42.2-1.1.11-1.45.15-.61.08-.8.12c-.19.04-.34.09-.46.14ZM743.7,128.98c-.01-.09-.04-.22-.09-.38-.05-.16-.1-.32-.15-.49s-.1-.31-.14-.43c.21-.03.45-.09.72-.19.27-.1.56-.24.88-.41.23-.12.6-.34,1.13-.66s1.11-.7,1.75-1.15c.64-.45,1.25-.92,1.82-1.41l1.18.76c-.99.76-2.01,1.46-3.06,2.09-1.05.63-2.09,1.17-3.1,1.61v.04c-.19.08-.34.15-.47.21-.13.06-.24.13-.33.2-.09.07-.14.14-.14.21ZM743.7,128.98l-.02-.98.82-.42,7.5-.38c-.04.16-.07.35-.09.57-.02.22-.04.4-.05.53-1.37.08-2.52.15-3.45.21-.93.06-1.68.11-2.26.16s-1.03.09-1.35.12c-.32.03-.56.06-.71.09-.15.03-.28.06-.39.1ZM749.54,131.64h1.36v5.74c0,.39-.05.69-.16.9-.11.21-.31.37-.62.48-.31.11-.71.17-1.22.2s-1.13.04-1.86.04c-.04-.2-.11-.43-.21-.68-.1-.25-.2-.47-.31-.66.41.01.8.03,1.16.04.36.01.67.02.93,0,.26,0,.44-.02.53-.03.17-.01.28-.04.33-.08.05-.04.07-.12.07-.24v-5.72ZM752.84,134l1.04-.7c.53.41,1.09.86,1.68,1.34.59.48,1.14.95,1.67,1.42.53.47.96.89,1.29,1.26l-1.12.78c-.32-.36-.74-.78-1.25-1.26-.51-.48-1.06-.97-1.63-1.47s-1.13-.96-1.68-1.37ZM753.38,128.74l1.1-.54c.51.45,1.02.95,1.55,1.48.53.53,1.02,1.05,1.47,1.56.45.51.82.96,1.1,1.36l-1.14.68c-.27-.4-.63-.87-1.08-1.4s-.94-1.07-1.47-1.62c-.53-.55-1.04-1.05-1.53-1.52Z"/>
        </g>
      </g>
    </g>
  </g>
  <g id="b100">
    <g id="g-root-ro_1lt0la5nngkxz-fill">
      <g id="ro_1lt0la5nngkxz-fill">
        <path class="cls-3" d="M595.96,50h167.12s11.94,0,11.94,12v30s0,12-11.94,12h-167.12s-11.94,0-11.94-12v-30s0-12,11.94-12"/>
      </g>
    </g>
    <g id="g-root-tx__4ik2ppnnglxp-fill">
      <g id="tx__4ik2ppnnglxp-fill">
        <g class="cls-18">
          <g class="cls-18">
            <path class="cls-13" d="M640.5,82.28c.73-.16,1.59-.38,2.57-.65s1.98-.56,2.99-.85l.2,1.64c-.93.29-1.87.58-2.81.85-.94.27-1.8.52-2.59.75l-.36-1.74ZM640.76,68.88h5.42v1.7h-5.42v-1.7ZM640.92,74.72h5.04v1.66h-5.04v-1.66ZM642.68,69.92h1.66v12.24l-1.66.42v-12.66ZM652,79.3l1.3.58c-.48.52-1.07,1.02-1.77,1.5-.7.48-1.44.91-2.22,1.3-.78.39-1.55.7-2.31.94-.11-.2-.27-.43-.48-.69-.21-.26-.41-.47-.58-.63.73-.17,1.48-.41,2.25-.72s1.48-.66,2.15-1.05,1.22-.8,1.66-1.23ZM646.84,73.52h12.18v1.52h-12.18v-1.52ZM647.62,68.3h10.74v4.38h-10.74v-4.38ZM648.1,75.96h9.72v4.26h-9.72v-4.26ZM648.86,86.12c-.04-.19-.13-.41-.26-.68-.13-.27-.26-.48-.38-.64.16-.08.32-.22.49-.42.17-.2.25-.5.25-.9v-1.8l1.54-.38v3.44c-.33.17-.61.33-.83.48-.22.15-.41.3-.57.46s-.24.31-.24.44ZM648.86,86.12l-.1-1.28.72-.54,4.12-.88c-.01.21-.02.45-.02.72s0,.49.02.68c-.95.23-1.71.41-2.29.56s-1.03.26-1.36.35c-.33.09-.57.16-.72.22-.15.06-.28.12-.37.17ZM649.18,69.62v1.74h1.62v-1.74h-1.62ZM649.8,77.32v1.56h6.24v-1.56h-6.24ZM652.08,69.62v1.74h1.66v-1.74h-1.66ZM654.02,79.58c.28.77.67,1.49,1.18,2.15.51.66,1.12,1.23,1.83,1.71.71.48,1.52.84,2.43,1.08-.2.17-.41.4-.63.69-.22.29-.39.54-.51.77-1.45-.48-2.66-1.25-3.62-2.31-.96-1.06-1.69-2.32-2.2-3.77l1.52-.32ZM657.62,80.38l1.26,1.14c-.57.32-1.16.64-1.77.95-.61.31-1.16.57-1.67.77l-.92-.88c.32-.17.67-.37,1.05-.6.38-.23.75-.46,1.12-.71.37-.25.68-.47.93-.67ZM655.04,69.62v1.74h1.7v-1.74h-1.7Z"/>
            <path class="cls-13" d="M660.6,81.72c.53-.16,1.14-.36,1.82-.59.68-.23,1.4-.49,2.16-.77.76-.28,1.52-.56,2.28-.84l.38,1.74c-1.04.41-2.08.83-3.13,1.25s-2.01.8-2.89,1.15l-.62-1.94ZM660.92,72.46h5.78v1.78h-5.78v-1.78ZM663.02,67.86h1.84v13.42h-1.84v-13.42ZM670.2,80.54h1.78c-.07.76-.19,1.44-.37,2.05-.18.61-.45,1.14-.82,1.6s-.87.86-1.51,1.2c-.64.34-1.45.62-2.42.85-.05-.15-.13-.31-.24-.49-.11-.18-.23-.36-.36-.54-.13-.18-.26-.32-.38-.43.85-.16,1.55-.36,2.09-.61.54-.25.96-.54,1.27-.88.31-.34.53-.74.67-1.19.14-.45.24-.97.29-1.56ZM667.36,72.62h11.28v1.6h-11.28v-1.6ZM667.96,68.98h10.16v1.54h-10.16v-1.54ZM668.26,75.08h9.36v5.9h-9.36v-5.9ZM669.48,70.96l1.54-.32c.13.29.27.62.4.97s.23.66.28.93l-1.6.4c-.05-.27-.14-.59-.26-.96-.12-.37-.24-.71-.36-1.02ZM669.98,76.34v1.1h5.82v-1.1h-5.82ZM669.98,78.6v1.12h5.82v-1.12h-5.82ZM671.68,67.82l1.76-.34c.16.29.31.62.46.99.15.37.25.68.32.95l-1.84.44c-.07-.27-.17-.59-.3-.98s-.27-.74-.4-1.06ZM673.58,80.56h1.76v3.26c0,.29.05.47.14.52.09.07.25.1.46.1h.78c.12,0,.23,0,.33-.02.1-.01.18-.03.25-.04.13-.05.23-.19.3-.42.03-.13.04-.34.05-.62s.02-.61.03-1c.16.15.39.29.68.44s.56.26.8.34c-.01.4-.04.78-.09,1.14-.05.36-.1.62-.17.78-.17.35-.44.58-.8.7-.15.05-.34.09-.58.12-.24.03-.45.04-.64.04h-1.34c-.24,0-.5-.03-.77-.09-.27-.06-.5-.16-.67-.31-.19-.13-.32-.32-.4-.57-.08-.25-.12-.65-.12-1.21v-3.16ZM674.88,70.68l1.74.34c-.2.41-.39.82-.58,1.21-.19.39-.37.73-.54,1.01l-1.46-.34c.15-.32.3-.69.47-1.12.17-.43.29-.79.37-1.1Z"/>
            <path class="cls-13" d="M680.92,71.82h5.9v1.48h-5.9v-1.48ZM686.86,82.88l1.74.78c-.55.33-1.17.66-1.88.98-.71.32-1.44.61-2.19.87s-1.47.48-2.15.67c-.09-.12-.22-.27-.39-.45-.17-.18-.34-.36-.52-.53-.18-.17-.34-.31-.49-.42.69-.13,1.4-.3,2.13-.5s1.42-.42,2.07-.65c.65-.23,1.21-.48,1.68-.75ZM681.36,68.72h4.96v1.42h-4.96v-1.42ZM683.56,74.78h13.2v8.12h-13.2v-8.12ZM685.38,75.98v1.12h9.48v-1.12h-9.48ZM685.38,78.26v1.14h9.48v-1.14h-9.48ZM685.38,80.54v1.16h9.48v-1.16h-9.48ZM691.66,69.92h1.74v.74c0,.36-.07.74-.22,1.13-.15.39-.43.77-.86,1.14-.43.37-1.06.7-1.91,1.01-.85.31-1.98.55-3.39.74-.09-.21-.24-.46-.43-.75-.19-.29-.38-.51-.55-.67,1.27-.13,2.28-.31,3.03-.52s1.31-.44,1.68-.68c.37-.24.61-.49.73-.75.12-.26.18-.5.18-.73v-.66ZM689.42,67.54l1.68.36c-.27.84-.63,1.64-1.1,2.4s-.97,1.4-1.5,1.92c-.09-.11-.23-.22-.4-.34-.17-.12-.35-.24-.54-.35-.19-.11-.35-.21-.48-.29.53-.45,1-1.01,1.4-1.67s.71-1.34.94-2.03ZM689.18,68.9h8.16v1.42h-8.16v-1.42ZM691.78,83.84l1.26-1c.72.23,1.44.47,2.16.74.72.27,1.4.53,2.05.79.65.26,1.2.5,1.67.73l-1.7,1.04c-.41-.23-.91-.47-1.49-.73s-1.21-.53-1.89-.8c-.68-.27-1.37-.53-2.06-.77ZM693.2,70.94c.33.4.8.75,1.4,1.06s1.3.55,2.09.74c.79.19,1.66.31,2.59.38-.19.17-.38.41-.58.71-.2.3-.35.57-.46.81-1-.15-1.91-.37-2.73-.66-.82-.29-1.54-.67-2.15-1.13s-1.11-1-1.5-1.63l1.34-.28ZM696.7,68.9h.3l.28-.08,1.3.42c-.25.53-.54,1.08-.85,1.63-.31.55-.62,1.02-.91,1.39l-1.48-.54c.23-.33.47-.74.73-1.21.26-.47.47-.92.63-1.35v-.26Z"/>
            <path class="cls-13" d="M700.68,74.54l1.1-1.34c.35.17.73.38,1.16.61.43.23.84.46,1.23.69.39.23.72.43.97.62l-1.12,1.52c-.24-.19-.55-.4-.94-.65s-.79-.5-1.21-.76c-.42-.26-.82-.49-1.19-.69ZM701.04,84.88c.28-.53.59-1.16.94-1.87.35-.71.69-1.47,1.04-2.26s.67-1.58.96-2.35l1.54,1.04c-.27.71-.56,1.44-.87,2.2-.31.76-.63,1.5-.95,2.23-.32.73-.64,1.41-.96,2.05l-1.7-1.04ZM701.66,69.14l1.1-1.32c.35.19.73.41,1.16.66.43.25.83.5,1.22.74.39.24.71.45.96.64l-1.14,1.52c-.24-.2-.55-.43-.94-.69-.39-.26-.79-.53-1.2-.81s-.8-.53-1.16-.74ZM706.72,68.62h1.84v5.52c0,.88-.03,1.84-.1,2.88-.07,1.04-.19,2.1-.38,3.19-.19,1.09-.46,2.14-.82,3.16-.36,1.02-.83,1.94-1.42,2.77-.12-.11-.28-.22-.47-.35-.19-.13-.39-.25-.59-.38-.2-.13-.38-.22-.54-.27.57-.79,1.02-1.65,1.35-2.58.33-.93.57-1.89.73-2.88.16-.99.27-1.95.32-2.9.05-.95.08-1.83.08-2.64v-5.52ZM707.3,68.62h11.8v1.72h-11.8v-1.72ZM710.06,80.42l1.68.48c-.2.48-.44.97-.72,1.48s-.57.99-.86,1.45c-.29.46-.58.86-.86,1.21-.11-.11-.25-.22-.43-.33-.18-.11-.37-.23-.56-.34-.19-.11-.36-.2-.49-.27.41-.48.82-1.05,1.23-1.71.41-.66.74-1.32,1.01-1.97ZM709.52,72.38h8.9v7.08h-8.9v-7.08ZM712.94,78.8h1.8v5.52c0,.43-.05.76-.15,1.01-.1.25-.3.44-.61.57-.31.13-.69.21-1.15.24-.46.03-1.01.03-1.65.02-.04-.23-.11-.49-.2-.8-.09-.31-.19-.58-.3-.82.41.01.81.02,1.18.02h.74c.23,0,.34-.1.34-.3v-5.46ZM711.2,73.78v1.46h5.46v-1.46h-5.46ZM711.2,76.56v1.48h5.46v-1.48h-5.46ZM712.96,70.46l2.1.4c-.21.45-.44.9-.68,1.33-.24.43-.45.8-.64,1.11l-1.52-.44c.13-.35.27-.75.41-1.2.14-.45.25-.85.33-1.2ZM715.74,80.88l1.64-.64c.25.4.51.84.78,1.31.27.47.52.93.76,1.37.24.44.44.83.6,1.16l-1.76.78c-.12-.35-.3-.75-.53-1.21s-.48-.93-.74-1.42c-.26-.49-.51-.94-.75-1.35Z"/>
            <path class="cls-13" d="M721.02,80.82h18v1.54h-18v-1.54ZM721.42,74.8h17.28v3.86h-1.88v-2.46h-13.6v2.46h-1.8v-3.86ZM726.56,67.76l.8,1.12c-.6.24-1.28.44-2.05.6-.77.16-1.45.29-2.05.38l-.66-1.06c.39-.08.82-.18,1.31-.29.49-.11.96-.24,1.43-.38s.87-.26,1.22-.37ZM722.6,68.8l1.8.46.38,6.2h-1.78l-.4-6.66ZM723.54,70.48h3.7v1.24h-3.7v-1.24ZM723.62,72.64h3.68v1.22h-3.68v-1.22ZM724.82,77.34h9.16v1.38h-9.16v-1.38ZM729.3,80.08h1.86v4.22c0,.45-.06.8-.19,1.04-.13.24-.37.43-.73.56-.36.12-.81.19-1.35.21-.54.02-1.2.03-1.99.03-.04-.24-.12-.51-.24-.8-.12-.29-.25-.56-.38-.8.39.01.76.02,1.11.03.35,0,.67,0,.94,0h.55c.16,0,.27-.02.33-.07.06-.05.09-.14.09-.27v-4.16ZM730.94,71.14l1.26.4c-.48.65-1.08,1.27-1.8,1.85-.72.58-1.45,1.06-2.18,1.45-.09-.13-.25-.3-.46-.5-.21-.2-.39-.36-.52-.48.71-.32,1.4-.72,2.07-1.19.67-.47,1.22-.98,1.63-1.53ZM730.9,67.78l1.26.36c-.44.61-1.01,1.19-1.7,1.74s-1.37,1-2.04,1.36c-.11-.12-.27-.27-.48-.45s-.4-.32-.56-.43c.69-.32,1.36-.7,1.99-1.15.63-.45,1.14-.92,1.53-1.43ZM727.7,72.14l.9-.78c.45.21.92.46,1.4.74.48.28.94.57,1.37.86.43.29.79.57,1.07.84l-.98.88c-.25-.27-.59-.55-1.01-.85-.42-.3-.87-.6-1.35-.9-.48-.3-.95-.56-1.4-.79ZM727.78,68.76l.9-.78c.43.19.87.41,1.33.67.46.26.9.53,1.31.8s.75.52,1.02.75l-.94.88c-.25-.24-.58-.5-.98-.78s-.83-.56-1.29-.83c-.46-.27-.91-.51-1.35-.71ZM733.5,77.34h.46l.4-.1,1.08.98c-.48.36-1.01.71-1.6,1.06s-1.19.67-1.81.98c-.62.31-1.24.58-1.85.82-.11-.16-.25-.34-.43-.53s-.33-.35-.45-.47c.51-.19,1.03-.42,1.56-.7s1.03-.57,1.5-.87.85-.58,1.14-.83v-.34ZM732.76,68.32h3.78v1.24h-3.78v-1.24ZM732.78,72.64h3.46v1.22h-3.46v-1.22ZM732.88,70.48h3.5v1.24h-3.5v-1.24ZM735.8,68.32h1.8c-.04.79-.09,1.62-.14,2.5s-.11,1.73-.18,2.56c-.07.83-.13,1.54-.2,2.14h-1.82c.08-.63.16-1.35.23-2.18.07-.83.14-1.68.19-2.56.05-.88.09-1.7.12-2.46Z"/>
            <path class="cls-13" d="M743.02,74.02l1.16.4c-.25.67-.61,1.33-1.07,1.99s-.94,1.18-1.45,1.57c-.13-.2-.31-.42-.52-.66-.21-.24-.41-.43-.6-.56.32-.19.64-.43.95-.73.31-.3.6-.63.87-.98.27-.35.49-.7.66-1.03ZM744.4,77.58h1.64v2.06c0,.55-.05,1.11-.15,1.69s-.3,1.15-.6,1.71-.75,1.1-1.34,1.61c-.59.51-1.38.98-2.37,1.41-.07-.13-.15-.29-.26-.46-.11-.17-.23-.34-.36-.51s-.25-.3-.36-.41c.87-.35,1.55-.73,2.05-1.14s.88-.84,1.13-1.29c.25-.45.42-.9.5-1.35.08-.45.12-.89.12-1.3v-2.02ZM740.94,71.96h8.66v1.54h-8.66v-1.54ZM740.94,79.32h8.8v1.58h-8.8v-1.58ZM741.3,68.82l1.32-.48c.24.36.47.76.7,1.21.23.45.37.84.44,1.17l-1.38.56c-.07-.35-.2-.75-.4-1.2s-.43-.87-.68-1.26ZM744.52,67.72h1.66v9.44h-1.66v-9.44ZM744.56,82.6l1-1.16c.41.24.86.52,1.33.83.47.31.93.62,1.37.92.44.3.8.56,1.08.79l-1.04,1.32c-.27-.24-.62-.52-1.05-.84-.43-.32-.88-.64-1.35-.97-.47-.33-.91-.62-1.34-.89ZM747.26,74.08c.12.08.31.21.56.4.25.19.52.39.8.6.28.21.54.42.77.61.23.19.4.34.51.43l-1.04,1.22c-.13-.16-.31-.36-.53-.59-.22-.23-.46-.48-.71-.73-.25-.25-.5-.49-.73-.71-.23-.22-.43-.39-.59-.51l.96-.72ZM746.76,77.96l1.06-.68c.25.23.52.49.79.79.27.3.48.56.63.79l-1.1.76c-.13-.24-.33-.52-.59-.83-.26-.31-.52-.59-.79-.83ZM747.84,68.38l1.56.44c-.24.47-.48.93-.71,1.38s-.46.84-.67,1.16l-1.24-.42c.19-.36.38-.78.58-1.27.2-.49.36-.92.48-1.29ZM752.5,82.56l1.6.96c-.31.35-.67.69-1.09,1.03-.42.34-.86.66-1.32.95s-.92.55-1.37.76c-.15-.17-.34-.38-.57-.62-.23-.24-.45-.44-.65-.6.43-.2.86-.44,1.29-.71.43-.27.84-.57,1.21-.88.37-.31.67-.61.9-.89ZM749.8,68.5h9.4v1.62h-9.4v-1.62ZM750.5,71.78h8v10.5h-8v-10.5ZM752.22,73.22v1.62h4.48v-1.62h-4.48ZM752.22,76.2v1.62h4.48v-1.62h-4.48ZM752.22,79.18v1.66h4.48v-1.66h-4.48ZM753.4,69.36l2.06.26c-.2.59-.4,1.17-.61,1.75-.21.58-.4,1.08-.57,1.49l-1.6-.3c.09-.31.19-.65.28-1.02s.18-.75.26-1.14c.08-.39.14-.73.18-1.04ZM754.82,83.54l1.36-.94c.39.24.79.51,1.22.82s.83.61,1.22.92c.39.31.71.59.96.84l-1.46,1.02c-.23-.24-.53-.52-.9-.83-.37-.31-.77-.63-1.19-.96-.42-.33-.82-.62-1.21-.87Z"/>
          </g>
        </g>
      </g>
    </g>
    <g id="_圖層_1">
      <g class="cls-18">
        <g id="_圖層_1-2">
          <g>
            <path class="cls-22" d="M604.42,74.3c-.22-.43-.6-.53-.6-.53l-1.7,5.2.59,2.64c-.79-.13-1.28.39-1.28.39,0,0,1.4,1.67,2.34,3.33.67,1.17,1.78,2.07,3.1,2.4.08.02.16.04.26.05.86.17,1.59.74,1.98,1.51l4.69-1.67-.47-1.64c-.42-1.48-1.47-2.72-2.87-3.37l-1.16-.54c-.69-.32-1.2-.92-1.4-1.64l-.56-1.97.04-.34c.1-.66-.23-1.32-.81-1.67l.04-.2c.13-.71-.15-1.45-.74-1.89l-.07-.04c-.04-1.08-.92-1.4-.92-1.4"/>
            <polygon class="cls-24" points="613.8 88.97 613.8 87.62 608.2 89.64 608.67 90.79 613.8 88.97 613.8 88.97"/>
            <polygon class="cls-24" points="608.67 90.79 609.28 92.29 613.8 90.9 613.8 88.97 608.67 90.79"/>
            <g>
              <path class="cls-20" d="M607.52,84.41c-1.21,0-2.36-.58-3.13-1.58-.61-.78-1.23-1.19-1.84-1.21-.66-.03-1.08.4-1.08.41l-.05-.05s.44-.46,1.14-.43c.63.03,1.27.45,1.89,1.24.83,1.08,2.11,1.65,3.42,1.54.04,0,.08,0,.12-.01s.08-.01.12-.01v.07s-.07,0-.11.01c-.04,0-.09.01-.13.01-.12,0-.23.02-.34.02h0Z"/>
              <path class="cls-20" d="M604.26,81.02l-.53-2.14.77-3.39c.08-.47.05-.87-.11-1.17l.06-.03c.16.32.2.73.12,1.22l-.77,3.37.53,2.12-.07.02h0Z"/>
              <path class="cls-20" d="M605.55,80.71l-.57-1.99h0s.7-3.67.7-3.67c.06-.27.09-.51.08-.72h.07c0,.22-.02.46-.08.74l-.7,3.66.56,1.97-.07.02h0Z"/>
              <polygon class="cls-20" points="606.76 80.44 606.17 78.42 606.54 76.45 606.61 76.46 606.25 78.42 606.82 80.43 606.76 80.44"/>
            </g>
            <path class="cls-31" d="M608.67,90.82s-.03,0-.03-.02c0-.02,0-.04.02-.05l5.13-1.82s.04,0,.05.02,0,.04-.02.05l-5.13,1.82h-.01Z"/>
          </g>
          <g>
            <path class="cls-22" d="M625.39,74.3c.22-.43.6-.53.6-.53l1.7,5.2-.59,2.64c.79-.13,1.28.39,1.28.39,0,0-1.4,1.67-2.34,3.33-.68,1.17-1.78,2.07-3.1,2.4-.08.02-.16.04-.26.05-.86.17-1.59.74-1.98,1.51l-4.69-1.67.47-1.64c.42-1.48,1.47-2.72,2.87-3.37l1.16-.54c.69-.32,1.2-.92,1.4-1.64l.56-1.97-.04-.34c-.1-.66.23-1.32.81-1.67l-.04-.2c-.13-.71.15-1.45.74-1.89l.07-.04c.04-1.08.92-1.4.92-1.4"/>
            <polygon class="cls-24" points="616.02 88.97 616.02 87.62 621.62 89.64 621.15 90.79 616.02 88.97 616.02 88.97"/>
            <polygon class="cls-24" points="621.15 90.79 620.54 92.29 616.02 90.9 616.02 88.97 621.15 90.79"/>
            <g>
              <path class="cls-20" d="M622.29,84.41c-.12,0-.23,0-.34-.02-.04,0-.08,0-.12-.01s-.08-.01-.12-.01v-.07s.09,0,.13.01.08.01.12.01c1.31.12,2.59-.46,3.42-1.54.62-.8,1.26-1.21,1.89-1.24.69-.03,1.12.41,1.14.43l-.05.05s-.42-.44-1.08-.41c-.61.03-1.23.44-1.84,1.21-.78,1-1.93,1.58-3.14,1.58h0Z"/>
              <path class="cls-20" d="M625.56,81.01l-.07-.02.53-2.12-.77-3.37c-.08-.49-.05-.9.12-1.22l.06.03c-.15.3-.19.7-.11,1.18l.77,3.39h0s-.53,2.14-.53,2.14h0Z"/>
              <path class="cls-20" d="M624.26,80.7l-.07-.02.56-1.97-.7-3.66c-.07-.25-.09-.5-.08-.74h.07c0,.24.02.47.08.72l.7,3.67h0s-.57,1.99-.57,1.99h0Z"/>
              <polygon class="cls-20" points="623.07 80.45 623 80.43 623.58 78.42 623.21 76.47 623.28 76.45 623.65 78.42 623.65 78.43 623.07 80.45"/>
            </g>
            <path class="cls-31" d="M621.15,90.82h-.01l-5.13-1.82s-.03-.02-.02-.05c0-.02.02-.03.05-.02l5.13,1.82s.03.02.02.05c0,.01-.02.02-.03.02h0Z"/>
          </g>
          <g>
            <circle class="cls-17" cx="614.91" cy="68.74" r="8.45"/>
            <path class="cls-26" d="M621.8,63.85c-.38-.06-4.21-.61-4.89,1.4-.71,2.12-2.49,1.77-1.88,3.96s2.31,3.46,4.42,3.18c2.44-.33-2.23,3.29-.39,3.69,4.07-2.23,5.74-7.81,2.73-12.23h0Z"/>
            <path class="cls-26" d="M610.31,61.66s3.68-.22,3.84,1.13c.15,1.34-.78,1.12-2,1.89-1.22.78-1.76.16-2.46,1.34-.7,1.18-2.95.58-2.95.58,0,0,.48-2.92,3.56-4.93h0s0,0,0,0Z"/>
            <path class="cls-26" d="M606.64,70.29s2.71-.58,3.71,1.33,1.77,1.13,2.4,1.98c.18.24.16.55.05.88-.45,1.26-1.99,1.74-3.09.98-1.12-.77-2.44-2.27-3.05-5.17h-.01Z"/>
            <g class="cls-19">
              <path class="cls-21" d="M622.15,72.99c-2.35,4.03-7.47,5.39-11.5,3.04,8.92-.57,11.45-8.79,8.46-14.59,4.03,2.35,5.39,7.52,3.05,11.55h0Z"/>
            </g>
            <g>
              <path class="cls-28" d="M614.91,77.18v-.07c4.62,0,8.37-3.75,8.37-8.37s-3.76-8.37-8.37-8.37h-.04v-.07h.04c2.26,0,4.38.88,5.97,2.47,1.59,1.59,2.47,3.71,2.47,5.97s-.88,4.38-2.47,5.97c-1.6,1.59-3.72,2.47-5.97,2.47Z"/>
              <path class="cls-28" d="M606.54,68.74h-.07c0-1.85.59-3.61,1.71-5.09,1.08-1.43,2.61-2.49,4.32-3l.02.07c-3.52,1.05-5.97,4.35-5.97,8.02Z"/>
            </g>
          </g>
        </g>
      </g>
    </g>
  </g>
  <g id="a27">
    <g id="g-root-ro_znshx9nnf8xt-stroke">
      <g id="ro_znshx9nnf8xt-stroke">
        <path class="cls-14" d="M378.98,51.5h132s24,0,24,28.57v92.86s0,28.57-24,28.57h-132s-24,0-24-28.57v-92.86s0-28.57,24-28.57"/>
      </g>
    </g>
    <g>
      <g id="g-root-tx__1lu9jgdnnf8y7-fill">
        <g id="tx__1lu9jgdnnf8y7-fill">
          <g class="cls-18">
            <g class="cls-18">
              <path class="cls-30" d="M385.46,170.28c.73-.16,1.59-.38,2.57-.65s1.98-.56,2.99-.85l.2,1.64c-.93.29-1.87.58-2.81.85-.94.27-1.8.52-2.59.75l-.36-1.74ZM385.72,156.88h5.42v1.7h-5.42v-1.7ZM385.88,162.72h5.04v1.66h-5.04v-1.66ZM387.64,157.92h1.66v12.24l-1.66.42v-12.66ZM396.96,167.3l1.3.58c-.48.52-1.07,1.02-1.77,1.5-.7.48-1.44.91-2.22,1.3-.78.39-1.55.7-2.31.94-.11-.2-.27-.43-.48-.69-.21-.26-.41-.47-.58-.63.73-.17,1.48-.41,2.25-.72s1.48-.66,2.15-1.05,1.22-.8,1.66-1.23ZM391.8,161.52h12.18v1.52h-12.18v-1.52ZM392.58,156.3h10.74v4.38h-10.74v-4.38ZM393.06,163.96h9.72v4.26h-9.72v-4.26ZM393.82,174.12c-.04-.19-.13-.41-.26-.68-.13-.27-.26-.48-.38-.64.16-.08.32-.22.49-.42.17-.2.25-.5.25-.9v-1.8l1.54-.38v3.44c-.33.17-.61.33-.83.48-.22.15-.41.3-.57.46s-.24.31-.24.44ZM393.82,174.12l-.1-1.28.72-.54,4.12-.88c-.01.21-.02.45-.02.72s0,.49.02.68c-.95.23-1.71.41-2.29.56s-1.03.26-1.36.35c-.33.09-.57.16-.72.22-.15.06-.28.12-.37.17ZM394.14,157.62v1.74h1.62v-1.74h-1.62ZM394.76,165.32v1.56h6.24v-1.56h-6.24ZM397.04,157.62v1.74h1.66v-1.74h-1.66ZM398.98,167.58c.28.77.67,1.49,1.18,2.15.51.66,1.12,1.23,1.83,1.71.71.48,1.52.84,2.43,1.08-.2.17-.41.4-.63.69-.22.29-.39.54-.51.77-1.45-.48-2.66-1.25-3.62-2.31-.96-1.06-1.69-2.32-2.2-3.77l1.52-.32ZM402.58,168.38l1.26,1.14c-.57.32-1.16.64-1.77.95-.61.31-1.16.57-1.67.77l-.92-.88c.32-.17.67-.37,1.05-.6.38-.23.75-.46,1.12-.71.37-.25.68-.47.93-.67ZM400,157.62v1.74h1.7v-1.74h-1.7Z"/>
              <path class="cls-30" d="M405.56,169.72c.53-.16,1.14-.36,1.82-.59.68-.23,1.4-.49,2.16-.77.76-.28,1.52-.56,2.28-.84l.38,1.74c-1.04.41-2.08.83-3.13,1.25s-2.01.8-2.89,1.15l-.62-1.94ZM405.88,160.46h5.78v1.78h-5.78v-1.78ZM407.98,155.86h1.84v13.42h-1.84v-13.42ZM415.16,168.54h1.78c-.07.76-.19,1.44-.37,2.05-.18.61-.45,1.14-.82,1.6s-.87.86-1.51,1.2c-.64.34-1.45.62-2.42.85-.05-.15-.13-.31-.24-.49-.11-.18-.23-.36-.36-.54-.13-.18-.26-.32-.38-.43.85-.16,1.55-.36,2.09-.61.54-.25.96-.54,1.27-.88.31-.34.53-.74.67-1.19.14-.45.24-.97.29-1.56ZM412.32,160.62h11.28v1.6h-11.28v-1.6ZM412.92,156.98h10.16v1.54h-10.16v-1.54ZM413.22,163.08h9.36v5.9h-9.36v-5.9ZM414.44,158.96l1.54-.32c.13.29.27.62.4.97s.23.66.28.93l-1.6.4c-.05-.27-.14-.59-.26-.96-.12-.37-.24-.71-.36-1.02ZM414.94,164.34v1.1h5.82v-1.1h-5.82ZM414.94,166.6v1.12h5.82v-1.12h-5.82ZM416.64,155.82l1.76-.34c.16.29.31.62.46.99.15.37.25.68.32.95l-1.84.44c-.07-.27-.17-.59-.3-.98s-.27-.74-.4-1.06ZM418.54,168.56h1.76v3.26c0,.29.05.47.14.52.09.07.25.1.46.1h.78c.12,0,.23,0,.33-.02.1-.01.18-.03.25-.04.13-.05.23-.19.3-.42.03-.13.04-.34.05-.62s.02-.61.03-1c.16.15.39.29.68.44s.56.26.8.34c-.01.4-.04.78-.09,1.14-.05.36-.1.62-.17.78-.17.35-.44.58-.8.7-.15.05-.34.09-.58.12-.24.03-.45.04-.64.04h-1.34c-.24,0-.5-.03-.77-.09-.27-.06-.5-.16-.67-.31-.19-.13-.32-.32-.4-.57-.08-.25-.12-.65-.12-1.21v-3.16ZM419.84,158.68l1.74.34c-.2.41-.39.82-.58,1.21-.19.39-.37.73-.54,1.01l-1.46-.34c.15-.32.3-.69.47-1.12.17-.43.29-.79.37-1.1Z"/>
              <path class="cls-30" d="M430.32,155.66l1.76.58c-.44,1.12-.96,2.24-1.56,3.35s-1.25,2.16-1.94,3.13c-.69.97-1.41,1.84-2.14,2.6-.07-.16-.16-.36-.28-.6-.12-.24-.25-.48-.39-.72s-.26-.44-.37-.6c.65-.63,1.28-1.35,1.89-2.17.61-.82,1.17-1.71,1.69-2.66s.97-1.92,1.34-2.91ZM428.22,160.98l1.78-1.78.02.02v14.9h-1.8v-13.14ZM433.94,167.8l1.72.52c-.29.57-.63,1.16-1,1.76-.37.6-.75,1.17-1.14,1.71s-.76,1.02-1.12,1.45c-.11-.09-.25-.21-.43-.35-.18-.14-.36-.27-.55-.39-.19-.12-.35-.22-.5-.3.55-.59,1.09-1.28,1.64-2.07.55-.79,1.01-1.57,1.38-2.33ZM431.22,165.26h12.96v1.72h-12.96v-1.72ZM432.64,156.54h10.44v6.6h-10.44v-6.6ZM434.42,158.2v3.24h6.78v-3.24h-6.78ZM436.8,162.58h1.9v11.6h-1.9v-11.6ZM439.64,168.56l1.42-.78c.41.45.83.95,1.24,1.48s.8,1.05,1.15,1.55c.35.5.64.96.85,1.37l-1.52.92c-.2-.41-.47-.88-.82-1.41-.35-.53-.72-1.06-1.13-1.61-.41-.55-.8-1.05-1.19-1.52Z"/>
              <path class="cls-30" d="M445.72,158.98h7.24v1.52h-7.24v-1.52ZM446.52,167.06h1.58v6.86h-1.58v-6.86ZM446.54,161.68h5.74v1.48h-5.74v-1.48ZM446.54,164.36h5.74v1.46h-5.74v-1.46ZM447.32,167.06h5.02v5.96h-5.02v-1.56h3.42v-2.86h-3.42v-1.54ZM447.9,156.26l1.4-.74c.29.41.58.86.86,1.35.28.49.49.92.64,1.29l-1.48.84c-.15-.36-.36-.8-.63-1.33-.27-.53-.54-1-.79-1.41ZM454.96,158.82l1.52.44c-.35.95-.79,1.87-1.34,2.78-.55.91-1.13,1.67-1.74,2.28-.05-.12-.14-.27-.27-.44-.13-.17-.25-.35-.38-.53-.13-.18-.24-.32-.35-.43.53-.51,1.03-1.12,1.48-1.84s.81-1.47,1.08-2.26ZM461.6,168.22h.34l.32-.08,1.1.56c-.45.81-1.03,1.53-1.74,2.14-.71.61-1.5,1.14-2.39,1.58-.89.44-1.84.81-2.85,1.1-1.01.29-2.05.53-3.1.7-.07-.23-.18-.49-.34-.79-.16-.3-.31-.54-.46-.73.97-.12,1.93-.29,2.86-.52.93-.23,1.81-.51,2.63-.86.82-.35,1.54-.76,2.17-1.24.63-.48,1.11-1.02,1.46-1.62v-.24ZM453.02,156.74h4.18v1.44h-4.18v-1.44ZM453.36,168.22h8.6v1.32h-8.6v-1.32ZM455.86,160.44h7.8v1.2h-7.8v6.2h-1.56v-6.6l.76-.8h.8ZM456.44,169.28c.49.6,1.15,1.13,1.97,1.59.82.46,1.75.84,2.8,1.15,1.05.31,2.15.53,3.31.66-.2.17-.4.41-.6.71-.2.3-.35.56-.46.79-1.23-.2-2.38-.5-3.46-.89s-2.05-.88-2.92-1.47c-.87-.59-1.6-1.27-2.2-2.04l1.56-.5ZM455.16,162.5h7.96v1.02h-7.96v-1.02ZM455.16,164.38h7.96v1.02h-7.96v-1.02ZM455.16,166.32h8.94v1.16h-8.94v-1.16ZM456.06,155.62h1.68v3.58h-1.68v-3.58ZM457.86,159.28l1.66-.42c.13.32.27.67.41,1.06.14.39.24.71.31.98l-1.74.52c-.05-.28-.14-.62-.27-1.02-.13-.4-.25-.77-.37-1.12ZM458.36,161.08h1.6v5.8h-1.6v-5.8ZM459.56,155.62h1.68v3.58h-1.68v-3.58ZM460.06,156.72h4.06v1.46h-4.06v-1.46Z"/>
              <path class="cls-30" d="M465.98,168.82h18v1.54h-18v-1.54ZM466.38,162.8h17.28v3.86h-1.88v-2.46h-13.6v2.46h-1.8v-3.86ZM471.52,155.76l.8,1.12c-.6.24-1.28.44-2.05.6-.77.16-1.45.29-2.05.38l-.66-1.06c.39-.08.82-.18,1.31-.29.49-.11.96-.24,1.43-.38s.87-.26,1.22-.37ZM467.56,156.8l1.8.46.38,6.2h-1.78l-.4-6.66ZM468.5,158.48h3.7v1.24h-3.7v-1.24ZM468.58,160.64h3.68v1.22h-3.68v-1.22ZM469.78,165.34h9.16v1.38h-9.16v-1.38ZM474.26,168.08h1.86v4.22c0,.45-.06.8-.19,1.04-.13.24-.37.43-.73.56-.36.12-.81.19-1.35.21-.54.02-1.2.03-1.99.03-.04-.24-.12-.51-.24-.8-.12-.29-.25-.56-.38-.8.39.01.76.02,1.11.03.35,0,.67,0,.94,0h.55c.16,0,.27-.02.33-.07.06-.05.09-.14.09-.27v-4.16ZM475.9,159.14l1.26.4c-.48.65-1.08,1.27-1.8,1.85-.72.58-1.45,1.06-2.18,1.45-.09-.13-.25-.3-.46-.5-.21-.2-.39-.36-.52-.48.71-.32,1.4-.72,2.07-1.19.67-.47,1.22-.98,1.63-1.53ZM475.86,155.78l1.26.36c-.44.61-1.01,1.19-1.7,1.74s-1.37,1-2.04,1.36c-.11-.12-.27-.27-.48-.45s-.4-.32-.56-.43c.69-.32,1.36-.7,1.99-1.15.63-.45,1.14-.92,1.53-1.43ZM472.66,160.14l.9-.78c.45.21.92.46,1.4.74.48.28.94.57,1.37.86.43.29.79.57,1.07.84l-.98.88c-.25-.27-.59-.55-1.01-.85-.42-.3-.87-.6-1.35-.9-.48-.3-.95-.56-1.4-.79ZM472.74,156.76l.9-.78c.43.19.87.41,1.33.67.46.26.9.53,1.31.8s.75.52,1.02.75l-.94.88c-.25-.24-.58-.5-.98-.78s-.83-.56-1.29-.83c-.46-.27-.91-.51-1.35-.71ZM478.46,165.34h.46l.4-.1,1.08.98c-.48.36-1.01.71-1.6,1.06s-1.19.67-1.81.98c-.62.31-1.24.58-1.85.82-.11-.16-.25-.34-.43-.53s-.33-.35-.45-.47c.51-.19,1.03-.42,1.56-.7s1.03-.57,1.5-.87.85-.58,1.14-.83v-.34ZM477.72,156.32h3.78v1.24h-3.78v-1.24ZM477.74,160.64h3.46v1.22h-3.46v-1.22ZM477.84,158.48h3.5v1.24h-3.5v-1.24ZM480.76,156.32h1.8c-.04.79-.09,1.62-.14,2.5s-.11,1.73-.18,2.56c-.07.83-.13,1.54-.2,2.14h-1.82c.08-.63.16-1.35.23-2.18.07-.83.14-1.68.19-2.56.05-.88.09-1.7.12-2.46Z"/>
              <path class="cls-30" d="M486.72,156.5h1.86v17.68h-1.86v-17.68ZM487.62,159.5h5.32v1.38h-5.32v-1.38ZM487.78,156.5h6.32v7.52h-6.32v-1.54h4.54v-4.42h-4.54v-1.56ZM502.46,156.5v1.56h-4.9v4.44h4.9v1.56h-6.7v-7.56h6.7ZM496.84,159.5h5.4v1.38h-5.4v-1.38ZM501.46,156.5h1.9v15.26c0,.59-.07,1.04-.22,1.35-.15.31-.41.55-.8.71s-.9.26-1.54.29c-.64.03-1.43.05-2.36.05-.03-.17-.08-.38-.15-.61-.07-.23-.16-.47-.25-.72-.09-.25-.19-.45-.28-.61.44.01.88.02,1.31.03s.82,0,1.15,0h.7c.2-.01.34-.06.42-.13s.12-.2.12-.39v-15.24Z"/>
            </g>
          </g>
        </g>
      </g>
      <g id="_圖層_1-2" data-name="_圖層_1">
        <g class="cls-18">
          <g id="_圖層_1-2-2" data-name="_圖層_1-2">
            <path class="cls-4" d="M460.91,79.81c.77,0,1.25-.82.9-1.49-.65-1.27-1.83-2.87-3.56-2.8-1.78.08-2.88,1.37-3.45,2.3-.28.45-.88.63-1.34.38-.6-.33-1.49-.64-2.6-.65-.56,0-1.1.16-1.58.4-.98.49-.63,1.94.45,1.94l11.17-.06h0Z"/>
            <path class="cls-4" d="M399.05,109.87c-.79,0-1.32-.83-.95-1.54.68-1.33,1.89-3.01,3.69-2.93,1.87.06,3.02,1.4,3.61,2.36.3.49.92.64,1.4.39.63-.34,1.56-.69,2.7-.7.59,0,1.15.16,1.67.4,1.02.5.68,2.03-.45,2.03h-11.66,0Z"/>
            <g>
              <path class="cls-1" d="M447.66,87.4s-8.09,2.26-9.46,7.89l5.82,1.13s.69-6.68,3.93-8.03l-.29-.98h0Z"/>
              <g>
                <path class="cls-6" d="M481.84,109.43c1.04-.26,2.08.18,2.55,1.44l1.13,6.52-1.25-.33-1.56-4.73-.84-2.9h-.03,0Z"/>
                <path class="cls-23" d="M484.23,117.08l.56,1.05c.11.21.29.39.51.46l.87.35c.29.14.6-.11.59-.45h0l-.78-1.28c-.18-.28-.45-.51-.79-.63l-.55-.2-.4.69h-.01Z"/>
                <path class="cls-7" d="M477.76,101.86c1.59.25,6.26,7.02,6.42,7.73.19.79,1.4,5.39,1.4,5.39l-2.35.38s-1.56-3.83-1.87-4.11-4.64-4.44-4.64-4.44l1.02-4.93h.01Z"/>
              </g>
              <path class="cls-6" d="M465.86,98.28c-1.1.26-2.19-.21-2.67-1.56l-1.07-6.91,1.32.38,1.57,5.03.84,3.09h0v-.03h.01Z"/>
              <path class="cls-23" d="M463.43,90.17l-.58-1.14c-.11-.23-.31-.4-.53-.49l-.9-.39c-.31-.15-.64.09-.64.46h0l.8,1.38c.19.29.46.55.82.68l.58.21.44-.73h.01Z"/>
              <path class="cls-7" d="M470.05,106.36c-1.67-.29-6.51-7.51-6.66-8.28-.19-.84-1.4-5.73-1.4-5.73l2.47-.35s1.59,4.08,1.91,4.39,4.84,4.78,4.84,4.78l-1.15,5.19h0Z"/>
              <path class="cls-8" d="M471.3,98.01s-.73-.93.34-1.76c1.05-.83,1.05,1.33,1.02,1.37s-1.38.4-1.38.4h.03Z"/>
              <path class="cls-8" d="M474.31,98.37s-.21,1.1-1.05,1.05c-.83-.04-.66-2.45-.66-2.45l1.71,1.39h.01Z"/>
              <path class="cls-6" d="M471.65,98.72s0,1.2-.03,2.21c0,.26.16.51.41.64s.58.14.83,0c.08-.04.18-.08.24-.14.35-.19.55-.54.53-.9-.09-.94-.28-2.63-.28-2.63l-1.71.83h0Z"/>
              <polygon class="cls-10" points="471.55 99.49 471.64 100.16 472.39 99.59 471.55 99.49"/>
              <path class="cls-6" d="M473.81,97.52c.08-.34-.11-.69-.45-.78-.35-.09-.82-.21-1.18-.31-.34-.08-.64.14-.78.45-.18.39-.33,1.23-.38,1.86-.03.35.16.74.49.82.35.09,1.53.04,1.81-.59.21-.48.33-.95.45-1.44h.04Z"/>
              <path class="cls-8" d="M474.46,98.6s.33-1.33-.16-1.88c-.64-.75-1.54-1.22-2.66-.45,0,0-.6.28,1.22.73.23.05-.21,1.15.06,1.27.39.18.89.29,1.53.35h0v-.03h.01Z"/>
              <path class="cls-6" d="M473.85,98.97c-.18.24-.45.33-.65.19s-.23-.44-.05-.68.45-.33.65-.19.23.44.05.68Z"/>
              <path class="cls-5" d="M472.76,144.06s1.53-9.74-.33-13.61l1.13-13.23-6.13.43,3.64,26.5,1.71-.09h-.01Z"/>
              <path class="cls-8" d="M470.98,143.67l-.89.89c-.24.23-1.56.65-1.56.65h0c-.14.26.14.43.34.45l3.86-.08s.89-.19.11-1.91c-.71.31-1.69.54-1.87,0h0Z"/>
              <path class="cls-9" d="M467.01,119.68l1.29,11.24,1.78,11.22h4.49s-.41-1.96-.35-2.58c.05-.63.25-6.5-1.08-9.21l.19-11.01-6.32.31h0v.03Z"/>
              <path class="cls-2" d="M473.18,130.39l.19-11.01-2.14.11-.15,8.06c-.03,1.49.18,3.01.53,4.49.71,2.93.56,7.02.53,7.52-.05.63.35,2.58.35,2.58h2.14s-.41-1.96-.35-2.58.25-6.5-1.08-9.21h0v.03h-.01Z"/>
              <path class="cls-5" d="M486.84,142.5s-1.99-9.68-5.12-12.75l-3.61-12.84-5.69,2.26,12.88,23.93,1.54-.58h0Z"/>
              <path class="cls-8" d="M485.3,142.8l-.21,1.24c-.05.31-.83,1.43-.83,1.43h0c.06.29.38.25.56.16l3.06-2.35s.59-.68-1.13-1.56c-.38.66-.97,1.4-1.44,1.08h0v-.03h-.01Z"/>
              <path class="cls-9" d="M471.98,119.6l5.99,11.83,5.67,10.07,4.29-1.37s-1.07-1.73-1.24-2.32c-.18-.58-2.04-6.22-4.29-8.35l-3.86-11.53-6.53,1.68h-.03Z"/>
              <path class="cls-9" d="M476.19,110.7l-8.4.64c-1.37.49-.82,8.38-.82,8.38l5.52.25c2.57-.05,5.59,1.96,5.91-2.32.38-4.88-2.22-6.95-2.22-6.95h.01Z"/>
              <path class="cls-2" d="M478.63,118.21s-5.71.55-7.52-1.89l7.46-.64s.18,1.91.05,2.53h.01Z"/>
              <path class="cls-7" d="M468.03,101.14l2.91-.53,2.51-.25,4.09,1.23c1.1.49.79,1.53.43,2.67l.43,3.65c.93,2.75.98,4.8.93,7.65-4.49,1.84-11.36,1.63-12.87-.41.05-5.71-.05-7.81,1.57-14.01h.01Z"/>
              <path class="cls-23" d="M470.94,100.61s-.94,2.53.79,2.6c1.71.05,2.58-2.58,2.58-2.58l-1.27-.51-2.09.49h-.01Z"/>
              <path class="cls-31" d="M478.69,108.53s-.07-.02-.08-.05l-1.22-1.88s-.02-.06-.01-.09l.16-.48c.02-.05.07-.08.13-.06.05.02.08.07.06.13l-.15.43,1.19,1.84s.02.11-.03.14c-.02.01-.04.02-.05.02Z"/>
              <path class="cls-31" d="M467.2,104.7s-.01,0-.02,0c-.05,0-.09-.06-.08-.12.03-.16.29-.89.32-.97.02-.05.08-.08.13-.06.05.02.08.08.06.13-.11.32-.29.83-.31.94,0,.05-.05.08-.1.08Z"/>
              <g>
                <g>
                  <path class="cls-11" d="M447.95,88.36s.4-.44.97.68c.56,1.13,1.07,6.67,6.33,4.6l1.76-.75-1.64-3.32s-3.36,3.46-5.29-1.08c-.8-1.91-2.06-1.23-2.46-1.18l.33,1.04h.01Z"/>
                  <path class="cls-11" d="M460.28,86.22l-1.44.6.4.95.98-.41c.33-.15.74.06.9.48l.68,1.66c.18.41.03.84-.29.98l-.98.41.4.95,1.44-.6c.51-.21.71-.88.45-1.48l-1.17-2.78c-.25-.6-.88-.94-1.38-.74h0Z"/>
                  <path class="cls-11" d="M458.81,94.68l-2.47.55c-1.62.35-3.21-.66-3.57-2.27l-.11-5.86s.54-.45.55-.45l3.65-.51c-.11.18,1.89-.28,1.91-.25l2.32,5.24c.35,1.62-.66,3.21-2.27,3.57h0v-.03h0Z"/>
                </g>
                <path class="cls-12" d="M458.76,85.83c.08.43-1.2,1.04-2.88,1.42-1.68.35-3.11.31-3.2-.11s1.32-.9,3-1.25c1.68-.35,3-.45,3.1-.04h-.01Z"/>
              </g>
              <path class="cls-4" d="M471.33,98.37l.6.15s-.09.49-.43.38c-.33-.11-.19-.53-.19-.53h.01Z"/>
            </g>
            <circle class="cls-17" cx="435.3" cy="120.51" r="25.56"/>
            <path class="cls-26" d="M456.15,105.71c-1.14-.19-12.74-1.86-14.79,4.25-2.14,6.42-7.52,5.34-5.68,11.98,1.84,6.63,6.99,10.48,13.38,9.63,7.37-.99-6.73,9.96-1.17,11.16,12.32-6.75,17.36-23.63,8.25-37.02h0Z"/>
            <path class="cls-26" d="M421.38,99.08s11.15-.65,11.63,3.41c.46,4.06-2.37,3.39-6.06,5.73-3.69,2.36-5.33.48-7.44,4.05-2.11,3.57-8.92,1.76-8.92,1.76,0,0,1.44-8.84,10.79-14.92h-.01v-.03h.01Z"/>
            <path class="cls-26" d="M410.26,125.21s8.21-1.76,11.21,4.03,5.34,3.42,7.27,5.99c.54.73.49,1.67.15,2.66-1.37,3.83-6.03,5.28-9.36,2.97-3.39-2.32-7.37-6.86-9.24-15.65h-.04Z"/>
            <g class="cls-19">
              <path class="cls-21" d="M457.19,133.37c-7.1,12.19-22.61,16.3-34.8,9.21,26.99-1.73,34.65-26.61,25.6-44.15,12.19,7.1,16.32,22.76,9.22,34.95h-.01Z"/>
            </g>
            <g>
              <path class="cls-29" d="M435.4,88.02s3.19-10.53-11.33-12.23c0,0-.73,10.66,11.33,12.23Z"/>
              <path class="cls-29" d="M435.31,87.94s-3.4-9.96,10.41-12.06c0,0,1.04,10.15-10.41,12.06h0Z"/>
              <path class="cls-28" d="M435.36,95.06c-.06,0-.11-.05-.11-.11v-8.7c0-.06.05-.11.11-.11s.11.05.11.11v8.7c0,.06-.05.11-.11.11Z"/>
            </g>
            <g>
              <path class="cls-25" d="M444.97,110.16c-2.51-.08-4.62.79-6.22,1.86-2.35,1.56-3.65,3.52-3.69,3.56h0c-1.25,1.44-3.86,5.71-4.23,6.31-.63.88-1.19,1.56-1.74,2.08-1.1.88-2.46,1.25-4.28,1.22-3.04-.06-5.15-2.17-5.1-5.08.03-3.22,2.37-5.32,5.79-5.24,1.74.04,3.46,1.62,5.07,3.35,1.05-1.22,2.55-2.88,3.46-3.91-1.4-1.59-4.53-4.53-8.72-4.64-6.2-.16-10.42,3.95-10.48,10.22-.06,6.1,4.1,10.65,9.92,10.79,2.04.05,3.96-.53,5.68-1.69l.83-.63c.87-.71,1.68-1.57,2.46-2.61.01-.03.49-.71.77-1.19l.16-.21c1.53-2.87,5.15-6.2,5.15-6.2,1.07-1.05,2.42-2.23,3.81-2.63.04,0,.09,0,.15-.03.28-.06.58-.11.87-.09,3.42.08,5.71,2.3,5.67,5.53-.03,2.91-2.4,4.79-5.22,4.79s-.23,0-.33,0c-.64-.05-1.23-.23-1.77-.49l1-1.62-6.72.56,1.61,7.19,1.05-1.76c1.54,1.07,3.17,1.59,5.09,1.63,2.91.06,5.43-.98,7.25-2.81,1.81-1.82,2.88-4.43,2.93-7.49.06-6.27-4.06-10.55-10.26-10.75h.04v-.03h-.01Z"/>
              <path class="cls-28" d="M441.2,128.1s-.03,0-.05-.01c-.04-.03-.06-.09-.03-.13l2.72-4.25-6.52.56c-.05,0-.1-.03-.1-.09,0-.05.03-.1.09-.1l6.71-.58s.07.01.09.05c.02.03.02.07,0,.1l-2.82,4.41s-.05.04-.08.04Z"/>
            </g>
            <path class="cls-28" d="M410.26,125.79s-.09-.03-.1-.08c0-.03-.62-2.92-.43-6.81.18-3.6,1.12-8.82,4.54-13.26,6.55-8.49,14.77-10.06,14.85-10.07.06-.01.11.03.12.09s-.03.11-.09.12c-.08.01-8.23,1.57-14.72,9.99-3.38,4.39-4.31,9.57-4.49,13.13-.2,3.87.42,6.73.42,6.76.01.06-.02.11-.08.13,0,0-.02,0-.02,0Z"/>
            <path class="cls-28" d="M436.31,85.74s-.06-.01-.08-.03c-.04-.04-.04-.12,0-.16l8.43-8.47s.12-.04.16,0c.04.04.04.12,0,.16l-8.43,8.47s-.05.03-.08.03Z"/>
            <path class="cls-28" d="M433.63,85.3s-.06-.01-.08-.03c-2.54-2.38-8.45-7.94-8.51-8.18-.02-.06.02-.12.08-.14.05-.01.11.01.13.06.21.32,5.16,5,8.45,8.09.05.04.05.11,0,.16-.02.02-.05.04-.08.04Z"/>
            <path class="cls-28" d="M435.3,146.17c-.06,0-.11-.05-.11-.11s.05-.11.11-.11c14.03,0,25.45-11.42,25.45-25.45s-11.42-25.45-25.45-25.45c-.7,0-1.43.03-2.22.1-.06,0-.11-.04-.12-.1,0-.06.04-.11.1-.12.8-.07,1.53-.1,2.24-.1,6.86,0,13.3,2.67,18.15,7.52s7.52,11.29,7.52,18.15-2.67,13.3-7.52,18.15c-4.85,4.85-11.29,7.52-18.15,7.52Z"/>
          </g>
        </g>
      </g>
    </g>
  </g>
</svg>