<?xml version="1.0" encoding="UTF-8"?>
<svg id="_x33__x5F_外語" xmlns="http://www.w3.org/2000/svg" viewBox="0 0 1130 450">
  <defs>
    <style>
      .cls-1 {
        stroke: #cf7021;
        stroke-width: 1.3px;
      }

      .cls-1, .cls-2, .cls-3, .cls-4, .cls-5, .cls-6, .cls-7, .cls-8 {
        stroke-linecap: round;
        stroke-linejoin: round;
      }

      .cls-1, .cls-2, .cls-3, .cls-5, .cls-6, .cls-7, .cls-8 {
        fill: none;
      }

      .cls-9 {
        fill: #7d6451;
      }

      .cls-9, .cls-10, .cls-11, .cls-12, .cls-13, .cls-14, .cls-15, .cls-16, .cls-17, .cls-18, .cls-19, .cls-20, .cls-21, .cls-22, .cls-23, .cls-24 {
        fill-rule: evenodd;
      }

      .cls-10 {
        fill: #3d2213;
      }

      .cls-25 {
        fill: #302218;
      }

      .cls-2 {
        stroke: #1f1406;
        stroke-width: 2.2px;
      }

      .cls-11 {
        fill: #c9c1b8;
      }

      .cls-26 {
        fill: #29ba8c;
      }

      .cls-27 {
        fill: #2cc796;
      }

      .cls-28 {
        opacity: .3;
      }

      .cls-28, .cls-29, .cls-13 {
        fill: #fff;
      }

      .cls-28, .cls-30, .cls-31 {
        isolation: isolate;
      }

      .cls-32 {
        fill: #fdffff;
      }

      .cls-12, .cls-33 {
        fill: #1f1406;
      }

      .cls-30 {
        mix-blend-mode: multiply;
        opacity: .2;
      }

      .cls-30, .cls-34 {
        fill: #ffac66;
      }

      .cls-35 {
        fill: #edb07e;
      }

      .cls-3 {
        stroke: #fff;
        stroke-width: .6px;
      }

      .cls-14 {
        fill: #e0d7cd;
      }

      .cls-4 {
        fill: #fcf0f0;
        stroke: #fd6a65;
      }

      .cls-4, .cls-7, .cls-8 {
        stroke-width: 2px;
      }

      .cls-15 {
        fill: #fad0b9;
      }

      .cls-36 {
        fill: #a69f97;
      }

      .cls-16 {
        fill: #a12a2a;
      }

      .cls-17 {
        fill: #f2ceac;
      }

      .cls-37 {
        fill: #73727d;
      }

      .cls-38 {
        fill: #f0e3d7;
      }

      .cls-18 {
        fill: #e0885c;
      }

      .cls-39 {
        fill: #cfc6bc;
      }

      .cls-5 {
        stroke: #b0664a;
      }

      .cls-5, .cls-6 {
        stroke-width: 1.2px;
      }

      .cls-40 {
        fill: #bab2a9;
      }

      .cls-41, .cls-21 {
        fill: #36261b;
      }

      .cls-19, .cls-42 {
        fill: #db7e5a;
      }

      .cls-43 {
        fill: #e69b5c;
      }

      .cls-20 {
        fill: #ba5de5;
      }

      .cls-44 {
        fill: #484848;
      }

      .cls-45 {
        fill: #f6faf3;
      }

      .cls-6 {
        stroke: #34686b;
      }

      .cls-22 {
        fill: #ede0d5;
      }

      .cls-23 {
        fill: #6e4616;
      }

      .cls-7, .cls-8 {
        stroke: #484848;
      }

      .cls-46 {
        fill: #7d5638;
      }

      .cls-24 {
        fill: #b86f4b;
      }

      .cls-47 {
        fill: #fd6a65;
      }

      .cls-8 {
        stroke-dasharray: 5 7;
      }
    </style>
  </defs>
  <g id="g-root-cu_1cvi8ya1cwe8zv-stroke">
    <g id="cu_1cvi8ya1cwe8zv-stroke">
      <path class="cls-7" d="M611.5,220h-3.5c-12.98,0-23.5-10.52-23.5-23.5v-98c0-12.98-10.52-23.5-23.5-23.5h-3.5"/>
    </g>
  </g>
  <g>
    <g id="g-root-cu_v4upjm1cwe87d-stroke">
      <g id="cu_v4upjm1cwe87d-stroke">
        <path class="cls-8" d="M527.5,102v34h-18"/>
      </g>
    </g>
    <g id="g-root-cu_hte76a1cwe9sc-stroke">
      <g id="cu_hte76a1cwe9sc-stroke">
        <path class="cls-8" d="M527.5,102v70h-18"/>
      </g>
    </g>
    <g id="g-root-cu_ddkp1u1cweakm-stroke">
      <g id="cu_ddkp1u1cweakm-stroke">
        <path class="cls-8" d="M527.5,102v106h-18"/>
      </g>
    </g>
    <g id="g-root-cu_8ydo0i1cwe874-stroke">
      <g id="cu_8ydo0i1cwe874-stroke">
        <path class="cls-8" d="M527.5,102v142h-18"/>
      </g>
    </g>
    <g id="g-root-cu_8ydo0i1cwe876-stroke">
      <g id="cu_8ydo0i1cwe876-stroke">
        <path class="cls-8" d="M527.5,102v178h-18"/>
      </g>
    </g>
    <g id="g-root-cu_1lse7de1cweadq-stroke">
      <g id="cu_1lse7de1cweadq-stroke">
        <path class="cls-8" d="M527.5,102v250h-18"/>
      </g>
    </g>
    <g id="g-root-cu_1hd76c21cwe808-stroke">
      <g id="cu_1hd76c21cwe808-stroke">
        <path class="cls-8" d="M527.5,102v275.6c0,5.74-6.98,10.4-15.6,10.4h-6.4"/>
      </g>
    </g>
    <g id="g-root-cu_1uo17ma1cwe9l0-stroke">
      <g id="cu_1uo17ma1cwe9l0-stroke">
        <path class="cls-8" d="M527.5,102v214h-18"/>
      </g>
    </g>
  </g>
  <g id="c46">
    <g id="tx__v6q4sy1cwbfnw-fill">
      <g class="cls-31">
        <g class="cls-31">
          <path class="cls-44" d="M382.56,393.44h17.9v1.22h-17.9v-1.22ZM383.12,378.54h16.84v1.26h-16.84v-1.26ZM384,383.08h5.86v1.16h-4.54v5.46h-1.32v-6.62ZM384.8,388.52h5.06v5.66h-1.28v-4.48h-3.78v-1.18ZM389.86,379.12v4.48h-1.3v-4.48h1.3ZM393.02,379.14h1.28v4.46h-1.28v-4.46ZM393.02,383.04h5.96v6.62h-1.36v-5.44h-4.6v-1.18ZM393.02,388.5h5.32v1.18h-4.04v4.52h-1.28v-5.7Z"/>
          <path class="cls-44" d="M402.3,383.8l.74-.98c.39.19.8.39,1.23.62.43.23.84.46,1.23.69s.71.44.98.63l-.78,1.08c-.25-.2-.57-.42-.96-.66-.39-.24-.79-.48-1.22-.73s-.83-.46-1.22-.65ZM402.72,394.58c.28-.52.58-1.14.91-1.85.33-.71.66-1.46.99-2.25.33-.79.63-1.55.9-2.28l1.06.7c-.24.69-.51,1.42-.81,2.18s-.61,1.5-.93,2.22c-.32.72-.63,1.39-.92,2l-1.2-.72ZM403.18,378.4l.8-.94c.36.19.75.41,1.16.66.41.25.81.5,1.18.75.37.25.67.48.9.69l-.82,1.08c-.23-.23-.52-.47-.89-.74s-.75-.53-1.16-.79c-.41-.26-.8-.5-1.17-.71ZM409.74,377.68h1.28v7.02c0,1.31-.06,2.6-.19,3.88-.13,1.28-.4,2.51-.82,3.68-.42,1.17-1.08,2.27-1.97,3.3-.08-.09-.19-.19-.32-.29-.13-.1-.27-.2-.41-.29-.14-.09-.26-.17-.37-.22.85-.95,1.48-1.97,1.87-3.06.39-1.09.65-2.23.76-3.42s.17-2.38.17-3.58v-7.02ZM407.02,383.42l1.02-.32c.21.49.42,1.03.61,1.6s.37,1.13.52,1.67.27,1.02.35,1.45l-1.08.4c-.07-.44-.17-.94-.32-1.49-.15-.55-.32-1.12-.51-1.7s-.39-1.12-.59-1.61ZM411.28,383.48l.94-.32c.2.47.39.97.57,1.5s.34,1.05.48,1.56c.14.51.24.96.31,1.36l-1,.36c-.07-.4-.17-.86-.3-1.37-.13-.51-.29-1.04-.46-1.58s-.35-1.04-.54-1.51ZM414.06,377.94h1.28v17.2h-1.28v-17.2ZM415.32,383.24l.94-.4c.31.49.6,1.02.88,1.59.28.57.53,1.12.75,1.66.22.54.4,1.02.53,1.45l-1.02.46c-.12-.43-.29-.92-.51-1.47-.22-.55-.47-1.12-.74-1.7s-.55-1.11-.83-1.59ZM418.46,377.66h1.28v17.9h-1.28v-17.9Z"/>
          <path class="cls-44" d="M422.42,380.64h7.28v1.14h-7.28v-1.14ZM423.24,383.28h5.8v1.08h-5.8v-1.08ZM423.24,385.88h5.8v1.08h-5.8v-1.08ZM423.24,388.54h1.18v6.76h-1.18v-6.76ZM423.82,388.54h5.34v5.8h-5.34v-1.14h4.14v-3.52h-4.14v-1.14ZM424.7,377.7l1.04-.54c.29.4.59.84.88,1.31.29.47.52.89.68,1.25l-1.1.64c-.16-.36-.38-.79-.66-1.3-.28-.51-.56-.96-.84-1.36ZM429.54,385.72h11.16v1.14h-11.16v-1.14ZM430.06,378.08h10.22v1.16h-10.22v-1.16ZM430.52,381.42h8.26v4.8h-1.28v-3.64h-6.98v-1.16ZM430.68,388.36h8.76v7.14h-1.3v-5.92h-6.2v5.98h-1.26v-7.2ZM431.32,393.46h7.5v1.2h-7.5v-1.2ZM433.6,378.54l1.32.14c-.13.8-.29,1.66-.46,2.59-.17.93-.35,1.82-.52,2.68-.17.86-.33,1.6-.48,2.23h-1.32c.13-.48.27-1.04.4-1.67.13-.63.26-1.3.39-1.99.13-.69.25-1.38.37-2.06.12-.68.22-1.32.3-1.92Z"/>
          <path class="cls-44" d="M442.62,380.28h17.88v1.2h-17.88v-1.2ZM445.36,389.3h12.36v6.2h-1.36v-5.04h-9.68v5.1h-1.32v-6.26ZM445.54,383.2h11.96v1.12h-11.96v-1.12ZM445.54,386.2h11.96v1.1h-11.96v-1.1ZM446.2,393.52h10.68v1.14h-10.68v-1.14ZM449.82,377.62l1.28-.4c.39.41.78.88,1.17,1.4.39.52.68.98.87,1.38l-1.34.46c-.17-.39-.45-.85-.83-1.39-.38-.54-.76-1.02-1.15-1.45Z"/>
          <path class="cls-44" d="M462.6,390.44h17.86v1.16h-17.86v-1.16ZM463.04,384.4h17v3.56h-1.34v-2.52h-14.38v2.52h-1.28v-3.56ZM468.12,377.42l.62.84c-.57.23-1.23.41-1.97.56-.74.15-1.41.26-2.01.34l-.5-.78c.39-.07.82-.16,1.29-.27s.94-.23,1.4-.36.85-.24,1.17-.33ZM464.26,378.38l1.3.36.4,6.22h-1.26l-.44-6.58ZM465,380.12h3.62v.96h-3.62v-.96ZM465.1,382.24h3.62v.96h-3.62v-.96ZM466.28,386.9h9.58v1.04h-9.58v-1.04ZM471.04,389.52h1.3v4.56c0,.36-.05.63-.15.82-.1.19-.3.33-.61.44-.29.09-.7.14-1.22.15-.52,0-1.19,0-2,0-.03-.16-.09-.35-.18-.56-.09-.21-.19-.4-.28-.56.44.01.84.02,1.21.03s.69,0,.96,0,.46,0,.55,0c.16-.01.27-.04.33-.09.06-.05.09-.14.09-.27v-4.52ZM472.56,380.8l.98.3c-.48.63-1.08,1.23-1.8,1.81-.72.58-1.44,1.06-2.16,1.45-.08-.09-.2-.22-.36-.37-.16-.15-.29-.28-.4-.37.71-.33,1.4-.75,2.09-1.24.69-.49,1.24-1.02,1.65-1.58ZM472.5,377.42l.98.28c-.45.61-1.02,1.2-1.71,1.75-.69.55-1.37,1.02-2.05,1.39-.08-.09-.2-.21-.36-.36-.16-.15-.3-.25-.42-.32.68-.35,1.35-.76,2-1.23.65-.47,1.17-.98,1.56-1.51ZM469.24,381.66l.7-.6c.45.21.93.46,1.42.74s.96.57,1.4.87c.44.3.79.58,1.06.85l-.72.7c-.27-.28-.61-.57-1.04-.87-.43-.3-.88-.6-1.37-.9s-.97-.56-1.45-.79ZM469.3,378.32l.68-.62c.45.19.92.41,1.39.68.47.27.93.53,1.36.8.43.27.78.53,1.05.78l-.7.68c-.27-.24-.61-.5-1.03-.79-.42-.29-.87-.56-1.35-.83-.48-.27-.95-.5-1.4-.7ZM475.54,386.9h.32l.28-.06.8.68c-.45.36-.97.71-1.56,1.04-.59.33-1.2.64-1.83.93s-1.25.54-1.85.75c-.07-.12-.17-.25-.31-.39-.14-.14-.26-.25-.35-.33.53-.19,1.08-.41,1.65-.68.57-.27,1.1-.55,1.61-.84s.92-.57,1.24-.84v-.26ZM474.28,382.24h3.58v.96h-3.58v-.96ZM474.3,378h3.86v.96h-3.86v-.96ZM474.4,380.12h3.62v.96h-3.62v-.96ZM477.62,378h1.28c-.04.76-.09,1.57-.14,2.42s-.11,1.68-.18,2.49c-.07.81-.13,1.5-.2,2.09h-1.3c.09-.6.17-1.31.24-2.12s.13-1.65.18-2.5c.05-.85.09-1.65.12-2.38Z"/>
          <path class="cls-44" d="M487.38,389.98l1.34.48c-.39.52-.83,1.05-1.34,1.58s-1.03,1.03-1.57,1.49-1.07.87-1.59,1.23c-.08-.08-.19-.18-.34-.29-.15-.11-.29-.22-.44-.33-.15-.11-.27-.19-.38-.26.8-.49,1.59-1.09,2.37-1.78.78-.69,1.43-1.4,1.95-2.12ZM495.78,377.26l.98,1.06c-.81.37-1.74.73-2.77,1.07-1.03.34-2.13.66-3.28.96-1.15.3-2.33.58-3.52.84-1.19.26-2.36.5-3.51.71-.03-.17-.08-.37-.17-.58-.09-.21-.16-.39-.23-.54,1.12-.21,2.27-.45,3.44-.72,1.17-.27,2.32-.55,3.43-.85s2.15-.61,3.12-.94c.97-.33,1.8-.66,2.51-1.01ZM484.06,389.66c-.01-.11-.04-.24-.09-.4-.05-.16-.1-.32-.16-.49-.06-.17-.11-.31-.15-.43.31-.03.69-.12,1.14-.29.45-.17.99-.39,1.6-.67.33-.15.83-.38,1.49-.71.66-.33,1.41-.72,2.26-1.19s1.73-.98,2.64-1.55c.91-.57,1.78-1.16,2.61-1.79l1.04.88c-1.87,1.31-3.76,2.46-5.69,3.45-1.93.99-3.82,1.85-5.69,2.57v.04c-.2.07-.37.13-.5.18-.13.05-.25.12-.35.19s-.15.14-.15.21ZM484.06,389.66l-.04-1.04.98-.5,13.14-.9c-.03.19-.04.4-.04.63v.55c-2.03.15-3.77.27-5.23.38s-2.69.2-3.68.27-1.8.14-2.42.2-1.1.11-1.45.15-.61.08-.8.12c-.19.04-.34.09-.46.14ZM485.18,385.48c-.01-.09-.04-.22-.09-.38-.05-.16-.1-.32-.15-.49s-.1-.31-.14-.43c.21-.03.45-.09.72-.19.27-.1.56-.24.88-.41.23-.12.6-.34,1.13-.66s1.11-.7,1.75-1.15c.64-.45,1.25-.92,1.82-1.41l1.18.76c-.99.76-2.01,1.46-3.06,2.09-1.05.63-2.09,1.17-3.1,1.61v.04c-.19.08-.34.15-.47.21-.13.06-.24.13-.33.2-.09.07-.14.14-.14.21ZM485.18,385.48l-.02-.98.82-.42,7.5-.38c-.04.16-.07.35-.09.57-.02.22-.04.4-.05.53-1.37.08-2.52.15-3.45.21-.93.06-1.68.11-2.26.16s-1.03.09-1.35.12c-.32.03-.56.06-.71.09-.15.03-.28.06-.39.1ZM491.02,388.14h1.36v5.74c0,.39-.05.69-.16.9-.11.21-.31.37-.62.48-.31.11-.71.17-1.22.2s-1.13.04-1.86.04c-.04-.2-.11-.43-.21-.68-.1-.25-.2-.47-.31-.66.41.01.8.03,1.16.04.36.01.67.02.93,0,.26,0,.44-.02.53-.03.17-.01.28-.04.33-.08.05-.04.07-.12.07-.24v-5.72ZM494.32,390.5l1.04-.7c.53.41,1.09.86,1.68,1.34.59.48,1.14.95,1.67,1.42.53.47.96.89,1.29,1.26l-1.12.78c-.32-.36-.74-.78-1.25-1.26-.51-.48-1.06-.97-1.63-1.47s-1.13-.96-1.68-1.37ZM494.86,385.24l1.1-.54c.51.45,1.02.95,1.55,1.48.53.53,1.02,1.05,1.47,1.56.45.51.82.96,1.1,1.36l-1.14.68c-.27-.4-.63-.87-1.08-1.4s-.94-1.07-1.47-1.62c-.53-.55-1.04-1.05-1.53-1.52Z"/>
        </g>
      </g>
    </g>
  </g>
  <g id="c45">
    <g id="tx__1lt0ogi1cwbfnv-fill">
      <g class="cls-31">
        <g class="cls-31">
          <path class="cls-44" d="M382.34,342.3h9.74v1.18h-9.74v-1.18ZM383.04,342.42h1.22v13.3c0,.59.11,1,.33,1.24.22.24.6.36,1.15.36h4.58c.29,0,.62-.01.97-.04.35-.03.63-.06.83-.1.01.11.03.24.06.39.03.15.05.3.07.44.02.14.04.26.05.35-.16.04-.43.07-.8.09-.37.02-.78.03-1.22.03h-4.48c-.65,0-1.18-.09-1.59-.27s-.7-.48-.89-.89-.28-.97-.28-1.66v-13.24ZM385.04,350.78h3.08v5.08h-3.08v-5.08ZM385.7,344.88h5.18v4.52h-5.18v-4.52ZM385.84,351.7v3.24h1.44v-3.24h-1.44ZM386.76,345.8v2.66h3.02v-2.66h-3.02ZM388.74,350.82h3.18v5.04h-3.18v-5.04ZM389.56,351.74v3.2h1.5v-3.2h-1.5ZM394.22,341.2l1.24.2c-.25,1.65-.6,3.21-1.05,4.68-.45,1.47-1,2.7-1.65,3.7-.08-.07-.19-.14-.33-.23-.14-.09-.28-.17-.42-.26-.14-.09-.26-.16-.37-.21.44-.63.83-1.36,1.16-2.19.33-.83.61-1.73.84-2.7.23-.97.42-1.96.58-2.99ZM395.42,346.96h1.22v1.38c0,.79-.04,1.64-.11,2.57s-.24,1.89-.49,2.89c-.25,1-.63,1.99-1.14,2.96-.51.97-1.19,1.9-2.06,2.78-.07-.11-.15-.22-.26-.34-.11-.12-.22-.24-.34-.36-.12-.12-.23-.21-.32-.28.81-.81,1.45-1.67,1.92-2.57.47-.9.81-1.8,1.04-2.71.23-.91.37-1.78.44-2.63s.1-1.62.1-2.33v-1.36ZM394,344.48h5.88v1.26h-5.88v-1.26ZM396.56,349.58c.21,1.41.48,2.65.81,3.72.33,1.07.75,2.01,1.26,2.84.51.83,1.16,1.61,1.93,2.34-.16.12-.32.28-.49.48s-.29.39-.37.58c-.83-.83-1.51-1.7-2.06-2.62-.55-.92-.99-1.96-1.33-3.12s-.62-2.49-.85-4l1.1-.22ZM399.54,344.48h.22l.18-.06.88.28c-.12.59-.26,1.19-.41,1.82-.15.63-.31,1.22-.47,1.79-.16.57-.33,1.07-.5,1.51l-1.04-.34c.15-.4.29-.87.44-1.41s.28-1.1.4-1.68c.12-.58.22-1.13.3-1.65v-.26Z"/>
          <path class="cls-44" d="M402.3,347.8l.74-.98c.39.19.8.39,1.23.62.43.23.84.46,1.23.69s.71.44.98.63l-.78,1.08c-.25-.2-.57-.42-.96-.66-.39-.24-.79-.48-1.22-.73s-.83-.46-1.22-.65ZM402.72,358.58c.28-.52.58-1.14.91-1.85.33-.71.66-1.46.99-2.25.33-.79.63-1.55.9-2.28l1.06.7c-.24.69-.51,1.42-.81,2.18s-.61,1.5-.93,2.22c-.32.72-.63,1.39-.92,2l-1.2-.72ZM403.18,342.4l.8-.94c.36.19.75.41,1.16.66.41.25.81.5,1.18.75.37.25.67.48.9.69l-.82,1.08c-.23-.23-.52-.47-.89-.74s-.75-.53-1.16-.79c-.41-.26-.8-.5-1.17-.71ZM409.74,341.68h1.28v7.02c0,1.31-.06,2.6-.19,3.88-.13,1.28-.4,2.51-.82,3.68-.42,1.17-1.08,2.27-1.97,3.3-.08-.09-.19-.19-.32-.29-.13-.1-.27-.2-.41-.29-.14-.09-.26-.17-.37-.22.85-.95,1.48-1.97,1.87-3.06.39-1.09.65-2.23.76-3.42s.17-2.38.17-3.58v-7.02ZM407.02,347.42l1.02-.32c.21.49.42,1.03.61,1.6s.37,1.13.52,1.67.27,1.02.35,1.45l-1.08.4c-.07-.44-.17-.94-.32-1.49-.15-.55-.32-1.12-.51-1.7s-.39-1.12-.59-1.61ZM411.28,347.48l.94-.32c.2.47.39.97.57,1.5s.34,1.05.48,1.56c.14.51.24.96.31,1.36l-1,.36c-.07-.4-.17-.86-.3-1.37-.13-.51-.29-1.04-.46-1.58s-.35-1.04-.54-1.51ZM414.06,341.94h1.28v17.2h-1.28v-17.2ZM415.32,347.24l.94-.4c.31.49.6,1.02.88,1.59.28.57.53,1.12.75,1.66.22.54.4,1.02.53,1.45l-1.02.46c-.12-.43-.29-.92-.51-1.47-.22-.55-.47-1.12-.74-1.7s-.55-1.11-.83-1.59ZM418.46,341.66h1.28v17.9h-1.28v-17.9Z"/>
          <path class="cls-44" d="M422.42,344.64h7.28v1.14h-7.28v-1.14ZM423.24,347.28h5.8v1.08h-5.8v-1.08ZM423.24,349.88h5.8v1.08h-5.8v-1.08ZM423.24,352.54h1.18v6.76h-1.18v-6.76ZM423.82,352.54h5.34v5.8h-5.34v-1.14h4.14v-3.52h-4.14v-1.14ZM424.7,341.7l1.04-.54c.29.4.59.84.88,1.31.29.47.52.89.68,1.25l-1.1.64c-.16-.36-.38-.79-.66-1.3-.28-.51-.56-.96-.84-1.36ZM429.54,349.72h11.16v1.14h-11.16v-1.14ZM430.06,342.08h10.22v1.16h-10.22v-1.16ZM430.52,345.42h8.26v4.8h-1.28v-3.64h-6.98v-1.16ZM430.68,352.36h8.76v7.14h-1.3v-5.92h-6.2v5.98h-1.26v-7.2ZM431.32,357.46h7.5v1.2h-7.5v-1.2ZM433.6,342.54l1.32.14c-.13.8-.29,1.66-.46,2.59-.17.93-.35,1.82-.52,2.68-.17.86-.33,1.6-.48,2.23h-1.32c.13-.48.27-1.04.4-1.67.13-.63.26-1.3.39-1.99.13-.69.25-1.38.37-2.06.12-.68.22-1.32.3-1.92Z"/>
          <path class="cls-44" d="M442.62,344.28h17.88v1.2h-17.88v-1.2ZM445.36,353.3h12.36v6.2h-1.36v-5.04h-9.68v5.1h-1.32v-6.26ZM445.54,347.2h11.96v1.12h-11.96v-1.12ZM445.54,350.2h11.96v1.1h-11.96v-1.1ZM446.2,357.52h10.68v1.14h-10.68v-1.14ZM449.82,341.62l1.28-.4c.39.41.78.88,1.17,1.4.39.52.68.98.87,1.38l-1.34.46c-.17-.39-.45-.85-.83-1.39-.38-.54-.76-1.02-1.15-1.45Z"/>
          <path class="cls-44" d="M462.6,354.44h17.86v1.16h-17.86v-1.16ZM463.04,348.4h17v3.56h-1.34v-2.52h-14.38v2.52h-1.28v-3.56ZM468.12,341.42l.62.84c-.57.23-1.23.41-1.97.56-.74.15-1.41.26-2.01.34l-.5-.78c.39-.07.82-.16,1.29-.27s.94-.23,1.4-.36.85-.24,1.17-.33ZM464.26,342.38l1.3.36.4,6.22h-1.26l-.44-6.58ZM465,344.12h3.62v.96h-3.62v-.96ZM465.1,346.24h3.62v.96h-3.62v-.96ZM466.28,350.9h9.58v1.04h-9.58v-1.04ZM471.04,353.52h1.3v4.56c0,.36-.05.63-.15.82-.1.19-.3.33-.61.44-.29.09-.7.14-1.22.15-.52,0-1.19,0-2,0-.03-.16-.09-.35-.18-.56-.09-.21-.19-.4-.28-.56.44.01.84.02,1.21.03s.69,0,.96,0,.46,0,.55,0c.16-.01.27-.04.33-.09.06-.05.09-.14.09-.27v-4.52ZM472.56,344.8l.98.3c-.48.63-1.08,1.23-1.8,1.81-.72.58-1.44,1.06-2.16,1.45-.08-.09-.2-.22-.36-.37-.16-.15-.29-.28-.4-.37.71-.33,1.4-.75,2.09-1.24.69-.49,1.24-1.02,1.65-1.58ZM472.5,341.42l.98.28c-.45.61-1.02,1.2-1.71,1.75-.69.55-1.37,1.02-2.05,1.39-.08-.09-.2-.21-.36-.36-.16-.15-.3-.25-.42-.32.68-.35,1.35-.76,2-1.23.65-.47,1.17-.98,1.56-1.51ZM469.24,345.66l.7-.6c.45.21.93.46,1.42.74s.96.57,1.4.87c.44.3.79.58,1.06.85l-.72.7c-.27-.28-.61-.57-1.04-.87-.43-.3-.88-.6-1.37-.9s-.97-.56-1.45-.79ZM469.3,342.32l.68-.62c.45.19.92.41,1.39.68.47.27.93.53,1.36.8.43.27.78.53,1.05.78l-.7.68c-.27-.24-.61-.5-1.03-.79-.42-.29-.87-.56-1.35-.83-.48-.27-.95-.5-1.4-.7ZM475.54,350.9h.32l.28-.06.8.68c-.45.36-.97.71-1.56,1.04-.59.33-1.2.64-1.83.93s-1.25.54-1.85.75c-.07-.12-.17-.25-.31-.39-.14-.14-.26-.25-.35-.33.53-.19,1.08-.41,1.65-.68.57-.27,1.1-.55,1.61-.84s.92-.57,1.24-.84v-.26ZM474.28,346.24h3.58v.96h-3.58v-.96ZM474.3,342h3.86v.96h-3.86v-.96ZM474.4,344.12h3.62v.96h-3.62v-.96ZM477.62,342h1.28c-.04.76-.09,1.57-.14,2.42s-.11,1.68-.18,2.49c-.07.81-.13,1.5-.2,2.09h-1.3c.09-.6.17-1.31.24-2.12s.13-1.65.18-2.5c.05-.85.09-1.65.12-2.38Z"/>
          <path class="cls-44" d="M487.38,353.98l1.34.48c-.39.52-.83,1.05-1.34,1.58s-1.03,1.03-1.57,1.49-1.07.87-1.59,1.23c-.08-.08-.19-.18-.34-.29-.15-.11-.29-.22-.44-.33-.15-.11-.27-.19-.38-.26.8-.49,1.59-1.09,2.37-1.78.78-.69,1.43-1.4,1.95-2.12ZM495.78,341.26l.98,1.06c-.81.37-1.74.73-2.77,1.07-1.03.34-2.13.66-3.28.96-1.15.3-2.33.58-3.52.84-1.19.26-2.36.5-3.51.71-.03-.17-.08-.37-.17-.58-.09-.21-.16-.39-.23-.54,1.12-.21,2.27-.45,3.44-.72,1.17-.27,2.32-.55,3.43-.85s2.15-.61,3.12-.94c.97-.33,1.8-.66,2.51-1.01ZM484.06,353.66c-.01-.11-.04-.24-.09-.4-.05-.16-.1-.32-.16-.49-.06-.17-.11-.31-.15-.43.31-.03.69-.12,1.14-.29.45-.17.99-.39,1.6-.67.33-.15.83-.38,1.49-.71.66-.33,1.41-.72,2.26-1.19s1.73-.98,2.64-1.55c.91-.57,1.78-1.16,2.61-1.79l1.04.88c-1.87,1.31-3.76,2.46-5.69,3.45-1.93.99-3.82,1.85-5.69,2.57v.04c-.2.07-.37.13-.5.18-.13.05-.25.12-.35.19s-.15.14-.15.21ZM484.06,353.66l-.04-1.04.98-.5,13.14-.9c-.03.19-.04.4-.04.63v.55c-2.03.15-3.77.27-5.23.38s-2.69.2-3.68.27-1.8.14-2.42.2-1.1.11-1.45.15-.61.08-.8.12c-.19.04-.34.09-.46.14ZM485.18,349.48c-.01-.09-.04-.22-.09-.38-.05-.16-.1-.32-.15-.49s-.1-.31-.14-.43c.21-.03.45-.09.72-.19.27-.1.56-.24.88-.41.23-.12.6-.34,1.13-.66s1.11-.7,1.75-1.15c.64-.45,1.25-.92,1.82-1.41l1.18.76c-.99.76-2.01,1.46-3.06,2.09-1.05.63-2.09,1.17-3.1,1.61v.04c-.19.08-.34.15-.47.21-.13.06-.24.13-.33.2-.09.07-.14.14-.14.21ZM485.18,349.48l-.02-.98.82-.42,7.5-.38c-.04.16-.07.35-.09.57-.02.22-.04.4-.05.53-1.37.08-2.52.15-3.45.21-.93.06-1.68.11-2.26.16s-1.03.09-1.35.12c-.32.03-.56.06-.71.09-.15.03-.28.06-.39.1ZM491.02,352.14h1.36v5.74c0,.39-.05.69-.16.9-.11.21-.31.37-.62.48-.31.11-.71.17-1.22.2s-1.13.04-1.86.04c-.04-.2-.11-.43-.21-.68-.1-.25-.2-.47-.31-.66.41.01.8.03,1.16.04.36.01.67.02.93,0,.26,0,.44-.02.53-.03.17-.01.28-.04.33-.08.05-.04.07-.12.07-.24v-5.72ZM494.32,354.5l1.04-.7c.53.41,1.09.86,1.68,1.34.59.48,1.14.95,1.67,1.42.53.47.96.89,1.29,1.26l-1.12.78c-.32-.36-.74-.78-1.25-1.26-.51-.48-1.06-.97-1.63-1.47s-1.13-.96-1.68-1.37ZM494.86,349.24l1.1-.54c.51.45,1.02.95,1.55,1.48.53.53,1.02,1.05,1.47,1.56.45.51.82.96,1.1,1.36l-1.14.68c-.27-.4-.63-.87-1.08-1.4s-.94-1.07-1.47-1.62c-.53-.55-1.04-1.05-1.53-1.52Z"/>
        </g>
      </g>
    </g>
  </g>
  <g id="c44">
    <g id="tx__qp17f61cwbhfu-fill">
      <g class="cls-31">
        <g class="cls-31">
          <path class="cls-44" d="M383.72,306.82h1.24v6.04c0,.79-.02,1.64-.07,2.55-.05.91-.13,1.85-.25,2.82-.12.97-.3,1.91-.54,2.82-.24.91-.55,1.76-.94,2.53-.07-.09-.16-.19-.29-.29-.13-.1-.26-.2-.39-.29-.13-.09-.25-.16-.36-.2.36-.73.65-1.52.87-2.36.22-.84.38-1.71.48-2.6.1-.89.17-1.76.2-2.61s.05-1.64.05-2.37v-6.04ZM384.42,306.82h16.1v1.14h-16.1v-1.14ZM388.64,308.16l1.14.34c-.52,1.04-1.14,2.05-1.87,3.03-.73.98-1.46,1.81-2.21,2.49-.07-.07-.15-.15-.26-.26-.11-.11-.22-.22-.34-.33s-.23-.2-.32-.27c.76-.61,1.48-1.36,2.16-2.25s1.25-1.8,1.7-2.75ZM387.34,318.82l1.1.4c-.25.68-.57,1.37-.96,2.08-.39.71-.87,1.29-1.46,1.76l-1.04-.66c.56-.41,1.04-.95,1.44-1.62s.71-1.32.92-1.96ZM387.3,311.4l1.16-1.16.02.02v7.4h-1.18v-6.26ZM391.82,308.14l1.14.32c-.43.96-.95,1.9-1.57,2.81-.62.91-1.24,1.69-1.87,2.33-.07-.07-.16-.15-.27-.25-.11-.1-.23-.2-.36-.29-.13-.09-.24-.17-.33-.22.64-.59,1.25-1.3,1.83-2.14s1.06-1.69,1.43-2.56ZM389.72,318.86h1.22v2.9c0,.21.06.35.19.42.13.07.41.1.85.1h3.14c.23,0,.4-.04.52-.12.12-.08.21-.25.26-.5s.09-.64.1-1.16c.15.09.33.18.55.27.22.09.41.15.57.19-.04.65-.12,1.16-.24,1.52-.12.36-.31.61-.57.74-.26.13-.62.2-1.07.2h-3.36c-.57,0-1.02-.05-1.33-.14-.31-.09-.53-.26-.65-.5-.12-.24-.18-.57-.18-1v-2.92ZM390.74,311.06l1.16-1v7.6h-1.16v-6.6ZM390.82,305.24l1.14-.4c.29.36.58.76.86,1.21.28.45.48.84.6,1.17l-1.2.48c-.12-.35-.31-.75-.57-1.21-.26-.46-.54-.88-.83-1.25ZM391.06,316.12h9.12v.92h-9.12v-.92ZM391.82,309.98h8.02v.92h-8.68l.66-.92ZM391.44,312.06h7.86v.82h-7.86v-.82ZM391.44,314.06h7.92v.82h-7.92v-.82ZM391.46,318.24l.78-.78c.4.19.81.39,1.24.62s.83.46,1.21.7c.38.24.69.47.93.68l-.82.86c-.24-.21-.55-.45-.92-.7-.37-.25-.77-.5-1.19-.75s-.83-.46-1.23-.63ZM394.26,308.48l.94-.46c.25.27.5.56.75.88.25.32.44.6.57.84l-1.02.52c-.11-.25-.28-.55-.51-.89-.23-.34-.48-.64-.73-.89ZM395.12,310.4h1.18v6.1h-1.18v-6.1ZM396.52,319.1l1.02-.5c.39.37.78.79,1.17,1.25.39.46.75.91,1.06,1.36.31.45.56.85.73,1.21l-1.08.58c-.16-.36-.4-.77-.71-1.23-.31-.46-.66-.92-1.03-1.38-.37-.46-.76-.89-1.16-1.29Z"/>
          <path class="cls-44" d="M404.6,306.64h1.32v7.28c0,.75-.03,1.55-.09,2.41s-.18,1.73-.37,2.6c-.19.87-.46,1.71-.82,2.52-.36.81-.84,1.54-1.44,2.21-.05-.09-.15-.2-.28-.31s-.27-.22-.4-.33c-.13-.11-.25-.19-.34-.24.55-.63.98-1.31,1.31-2.04.33-.73.57-1.49.73-2.27.16-.78.26-1.56.31-2.33.05-.77.07-1.51.07-2.22v-7.28ZM405.24,316.12h13.16v1.26h-13.16v-1.26ZM405.36,306.64h13.06v1.3h-13.06v-1.3ZM405.36,311.32h13.02v1.28h-13.02v-1.28ZM410.92,307.12h1.34v16.26h-1.34v-16.26ZM417.86,306.64h1.32v15.02c0,.45-.07.8-.2,1.04s-.36.42-.68.54c-.32.11-.78.17-1.38.2-.6.03-1.37.03-2.32.02-.03-.17-.09-.39-.19-.64-.1-.25-.2-.47-.29-.66.49.01.96.02,1.4.02h1.82c.19-.01.32-.06.4-.13.08-.07.12-.2.12-.39v-15.02Z"/>
          <path class="cls-44" d="M426.24,305.22l1.32.24c-.28,1.27-.62,2.48-1.02,3.64-.4,1.16-.86,2.24-1.37,3.24s-1.08,1.88-1.69,2.64c-.08-.08-.19-.17-.33-.28s-.28-.21-.43-.32c-.15-.11-.27-.19-.38-.24.63-.71,1.19-1.53,1.68-2.46.49-.93.93-1.95,1.3-3.05.37-1.1.68-2.24.92-3.41ZM430.48,308.32h.24l.28-.06.92.28c-.35,2.64-.92,4.93-1.71,6.87-.79,1.94-1.76,3.57-2.9,4.9-1.14,1.33-2.42,2.39-3.83,3.19-.07-.12-.17-.25-.3-.39-.13-.14-.27-.28-.42-.41-.15-.13-.28-.23-.4-.3,1.41-.73,2.67-1.71,3.77-2.94s2.02-2.73,2.77-4.51,1.27-3.88,1.58-6.29v-.34ZM424.16,312.58l.9-.82c.51.4,1.03.85,1.58,1.34.55.49,1.06.98,1.53,1.47.47.49.86.92,1.15,1.31l-.96.92c-.28-.39-.65-.83-1.12-1.33-.47-.5-.97-1-1.51-1.51s-1.06-.97-1.57-1.38ZM425.96,308.32h4.94v1.28h-4.94v-1.28ZM433.8,305.24h1.38v18.3h-1.38v-18.3ZM434.66,312.1l1.02-.8c.59.44,1.2.93,1.85,1.48.65.55,1.26,1.08,1.83,1.61.57.53,1.04,1,1.4,1.43l-1.08.94c-.35-.43-.8-.92-1.37-1.47-.57-.55-1.17-1.11-1.8-1.66-.63-.55-1.25-1.06-1.85-1.53Z"/>
          <path class="cls-44" d="M442.42,308.64h7.28v1.14h-7.28v-1.14ZM443.24,311.28h5.8v1.08h-5.8v-1.08ZM443.24,313.88h5.8v1.08h-5.8v-1.08ZM443.24,316.54h1.18v6.76h-1.18v-6.76ZM443.82,316.54h5.34v5.8h-5.34v-1.14h4.14v-3.52h-4.14v-1.14ZM444.7,305.7l1.04-.54c.29.4.59.84.88,1.31.29.47.52.89.68,1.25l-1.1.64c-.16-.36-.38-.79-.66-1.3-.28-.51-.56-.96-.84-1.36ZM449.54,313.72h11.16v1.14h-11.16v-1.14ZM450.06,306.08h10.22v1.16h-10.22v-1.16ZM450.52,309.42h8.26v4.8h-1.28v-3.64h-6.98v-1.16ZM450.68,316.36h8.76v7.14h-1.3v-5.92h-6.2v5.98h-1.26v-7.2ZM451.32,321.46h7.5v1.2h-7.5v-1.2ZM453.6,306.54l1.32.14c-.13.8-.29,1.66-.46,2.59-.17.93-.35,1.82-.52,2.68-.17.86-.33,1.6-.48,2.23h-1.32c.13-.48.27-1.04.4-1.67.13-.63.26-1.3.39-1.99.13-.69.25-1.38.37-2.06.12-.68.22-1.32.3-1.92Z"/>
          <path class="cls-44" d="M462.6,318.44h17.86v1.16h-17.86v-1.16ZM463.04,312.4h17v3.56h-1.34v-2.52h-14.38v2.52h-1.28v-3.56ZM468.12,305.42l.62.84c-.57.23-1.23.41-1.97.56-.74.15-1.41.26-2.01.34l-.5-.78c.39-.07.82-.16,1.29-.27s.94-.23,1.4-.36.85-.24,1.17-.33ZM464.26,306.38l1.3.36.4,6.22h-1.26l-.44-6.58ZM465,308.12h3.62v.96h-3.62v-.96ZM465.1,310.24h3.62v.96h-3.62v-.96ZM466.28,314.9h9.58v1.04h-9.58v-1.04ZM471.04,317.52h1.3v4.56c0,.36-.05.63-.15.82-.1.19-.3.33-.61.44-.29.09-.7.14-1.22.15-.52,0-1.19,0-2,0-.03-.16-.09-.35-.18-.56-.09-.21-.19-.4-.28-.56.44.01.84.02,1.21.03s.69,0,.96,0,.46,0,.55,0c.16-.01.27-.04.33-.09.06-.05.09-.14.09-.27v-4.52ZM472.56,308.8l.98.3c-.48.63-1.08,1.23-1.8,1.81-.72.58-1.44,1.06-2.16,1.45-.08-.09-.2-.22-.36-.37-.16-.15-.29-.28-.4-.37.71-.33,1.4-.75,2.09-1.24.69-.49,1.24-1.02,1.65-1.58ZM472.5,305.42l.98.28c-.45.61-1.02,1.2-1.71,1.75-.69.55-1.37,1.02-2.05,1.39-.08-.09-.2-.21-.36-.36-.16-.15-.3-.25-.42-.32.68-.35,1.35-.76,2-1.23.65-.47,1.17-.98,1.56-1.51ZM469.24,309.66l.7-.6c.45.21.93.46,1.42.74s.96.57,1.4.87c.44.3.79.58,1.06.85l-.72.7c-.27-.28-.61-.57-1.04-.87-.43-.3-.88-.6-1.37-.9s-.97-.56-1.45-.79ZM469.3,306.32l.68-.62c.45.19.92.41,1.39.68.47.27.93.53,1.36.8.43.27.78.53,1.05.78l-.7.68c-.27-.24-.61-.5-1.03-.79-.42-.29-.87-.56-1.35-.83-.48-.27-.95-.5-1.4-.7ZM475.54,314.9h.32l.28-.06.8.68c-.45.36-.97.71-1.56,1.04-.59.33-1.2.64-1.83.93s-1.25.54-1.85.75c-.07-.12-.17-.25-.31-.39-.14-.14-.26-.25-.35-.33.53-.19,1.08-.41,1.65-.68.57-.27,1.1-.55,1.61-.84s.92-.57,1.24-.84v-.26ZM474.28,310.24h3.58v.96h-3.58v-.96ZM474.3,306h3.86v.96h-3.86v-.96ZM474.4,308.12h3.62v.96h-3.62v-.96ZM477.62,306h1.28c-.04.76-.09,1.57-.14,2.42s-.11,1.68-.18,2.49c-.07.81-.13,1.5-.2,2.09h-1.3c.09-.6.17-1.31.24-2.12s.13-1.65.18-2.5c.05-.85.09-1.65.12-2.38Z"/>
          <path class="cls-44" d="M487.38,317.98l1.34.48c-.39.52-.83,1.05-1.34,1.58s-1.03,1.03-1.57,1.49-1.07.87-1.59,1.23c-.08-.08-.19-.18-.34-.29-.15-.11-.29-.22-.44-.33-.15-.11-.27-.19-.38-.26.8-.49,1.59-1.09,2.37-1.78.78-.69,1.43-1.4,1.95-2.12ZM495.78,305.26l.98,1.06c-.81.37-1.74.73-2.77,1.07-1.03.34-2.13.66-3.28.96-1.15.3-2.33.58-3.52.84-1.19.26-2.36.5-3.51.71-.03-.17-.08-.37-.17-.58-.09-.21-.16-.39-.23-.54,1.12-.21,2.27-.45,3.44-.72,1.17-.27,2.32-.55,3.43-.85s2.15-.61,3.12-.94c.97-.33,1.8-.66,2.51-1.01ZM484.06,317.66c-.01-.11-.04-.24-.09-.4-.05-.16-.1-.32-.16-.49-.06-.17-.11-.31-.15-.43.31-.03.69-.12,1.14-.29.45-.17.99-.39,1.6-.67.33-.15.83-.38,1.49-.71.66-.33,1.41-.72,2.26-1.19s1.73-.98,2.64-1.55c.91-.57,1.78-1.16,2.61-1.79l1.04.88c-1.87,1.31-3.76,2.46-5.69,3.45-1.93.99-3.82,1.85-5.69,2.57v.04c-.2.07-.37.13-.5.18-.13.05-.25.12-.35.19s-.15.14-.15.21ZM484.06,317.66l-.04-1.04.98-.5,13.14-.9c-.03.19-.04.4-.04.63v.55c-2.03.15-3.77.27-5.23.38s-2.69.2-3.68.27-1.8.14-2.42.2-1.1.11-1.45.15-.61.08-.8.12c-.19.04-.34.09-.46.14ZM485.18,313.48c-.01-.09-.04-.22-.09-.38-.05-.16-.1-.32-.15-.49s-.1-.31-.14-.43c.21-.03.45-.09.72-.19.27-.1.56-.24.88-.41.23-.12.6-.34,1.13-.66s1.11-.7,1.75-1.15c.64-.45,1.25-.92,1.82-1.41l1.18.76c-.99.76-2.01,1.46-3.06,2.09-1.05.63-2.09,1.17-3.1,1.61v.04c-.19.08-.34.15-.47.21-.13.06-.24.13-.33.2-.09.07-.14.14-.14.21ZM485.18,313.48l-.02-.98.82-.42,7.5-.38c-.04.16-.07.35-.09.57-.02.22-.04.4-.05.53-1.37.08-2.52.15-3.45.21-.93.06-1.68.11-2.26.16s-1.03.09-1.35.12c-.32.03-.56.06-.71.09-.15.03-.28.06-.39.1ZM491.02,316.14h1.36v5.74c0,.39-.05.69-.16.9-.11.21-.31.37-.62.48-.31.11-.71.17-1.22.2s-1.13.04-1.86.04c-.04-.2-.11-.43-.21-.68-.1-.25-.2-.47-.31-.66.41.01.8.03,1.16.04.36.01.67.02.93,0,.26,0,.44-.02.53-.03.17-.01.28-.04.33-.08.05-.04.07-.12.07-.24v-5.72ZM494.32,318.5l1.04-.7c.53.41,1.09.86,1.68,1.34.59.48,1.14.95,1.67,1.42.53.47.96.89,1.29,1.26l-1.12.78c-.32-.36-.74-.78-1.25-1.26-.51-.48-1.06-.97-1.63-1.47s-1.13-.96-1.68-1.37ZM494.86,313.24l1.1-.54c.51.45,1.02.95,1.55,1.48.53.53,1.02,1.05,1.47,1.56.45.51.82.96,1.1,1.36l-1.14.68c-.27-.4-.63-.87-1.08-1.4s-.94-1.07-1.47-1.62c-.53-.55-1.04-1.05-1.53-1.52Z"/>
        </g>
      </g>
    </g>
  </g>
  <g id="c43">
    <g id="tx__1hbbr2q1cwbhft-fill">
      <g class="cls-31">
        <g class="cls-31">
          <path class="cls-44" d="M426.24,269.22l1.32.24c-.28,1.27-.62,2.48-1.02,3.64-.4,1.16-.86,2.24-1.37,3.24s-1.08,1.88-1.69,2.64c-.08-.08-.19-.17-.33-.28s-.28-.21-.43-.32c-.15-.11-.27-.19-.38-.24.63-.71,1.19-1.53,1.68-2.46.49-.93.93-1.95,1.3-3.05.37-1.1.68-2.24.92-3.41ZM430.48,272.32h.24l.28-.06.92.28c-.35,2.64-.92,4.93-1.71,6.87-.79,1.94-1.76,3.57-2.9,4.9-1.14,1.33-2.42,2.39-3.83,3.19-.07-.12-.17-.25-.3-.39-.13-.14-.27-.28-.42-.41-.15-.13-.28-.23-.4-.3,1.41-.73,2.67-1.71,3.77-2.94s2.02-2.73,2.77-4.51,1.27-3.88,1.58-6.29v-.34ZM424.16,276.58l.9-.82c.51.4,1.03.85,1.58,1.34.55.49,1.06.98,1.53,1.47.47.49.86.92,1.15,1.31l-.96.92c-.28-.39-.65-.83-1.12-1.33-.47-.5-.97-1-1.51-1.51s-1.06-.97-1.57-1.38ZM425.96,272.32h4.94v1.28h-4.94v-1.28ZM433.8,269.24h1.38v18.3h-1.38v-18.3ZM434.66,276.1l1.02-.8c.59.44,1.2.93,1.85,1.48.65.55,1.26,1.08,1.83,1.61.57.53,1.04,1,1.4,1.43l-1.08.94c-.35-.43-.8-.92-1.37-1.47-.57-.55-1.17-1.11-1.8-1.66-.63-.55-1.25-1.06-1.85-1.53Z"/>
          <path class="cls-44" d="M442.42,272.64h7.28v1.14h-7.28v-1.14ZM443.24,275.28h5.8v1.08h-5.8v-1.08ZM443.24,277.88h5.8v1.08h-5.8v-1.08ZM443.24,280.54h1.18v6.76h-1.18v-6.76ZM443.82,280.54h5.34v5.8h-5.34v-1.14h4.14v-3.52h-4.14v-1.14ZM444.7,269.7l1.04-.54c.29.4.59.84.88,1.31.29.47.52.89.68,1.25l-1.1.64c-.16-.36-.38-.79-.66-1.3-.28-.51-.56-.96-.84-1.36ZM449.54,277.72h11.16v1.14h-11.16v-1.14ZM450.06,270.08h10.22v1.16h-10.22v-1.16ZM450.52,273.42h8.26v4.8h-1.28v-3.64h-6.98v-1.16ZM450.68,280.36h8.76v7.14h-1.3v-5.92h-6.2v5.98h-1.26v-7.2ZM451.32,285.46h7.5v1.2h-7.5v-1.2ZM453.6,270.54l1.32.14c-.13.8-.29,1.66-.46,2.59-.17.93-.35,1.82-.52,2.68-.17.86-.33,1.6-.48,2.23h-1.32c.13-.48.27-1.04.4-1.67.13-.63.26-1.3.39-1.99.13-.69.25-1.38.37-2.06.12-.68.22-1.32.3-1.92Z"/>
          <path class="cls-44" d="M462.6,282.44h17.86v1.16h-17.86v-1.16ZM463.04,276.4h17v3.56h-1.34v-2.52h-14.38v2.52h-1.28v-3.56ZM468.12,269.42l.62.84c-.57.23-1.23.41-1.97.56-.74.15-1.41.26-2.01.34l-.5-.78c.39-.07.82-.16,1.29-.27s.94-.23,1.4-.36.85-.24,1.17-.33ZM464.26,270.38l1.3.36.4,6.22h-1.26l-.44-6.58ZM465,272.12h3.62v.96h-3.62v-.96ZM465.1,274.24h3.62v.96h-3.62v-.96ZM466.28,278.9h9.58v1.04h-9.58v-1.04ZM471.04,281.52h1.3v4.56c0,.36-.05.63-.15.82-.1.19-.3.33-.61.44-.29.09-.7.14-1.22.15-.52,0-1.19,0-2,0-.03-.16-.09-.35-.18-.56-.09-.21-.19-.4-.28-.56.44.01.84.02,1.21.03s.69,0,.96,0,.46,0,.55,0c.16-.01.27-.04.33-.09.06-.05.09-.14.09-.27v-4.52ZM472.56,272.8l.98.3c-.48.63-1.08,1.23-1.8,1.81-.72.58-1.44,1.06-2.16,1.45-.08-.09-.2-.22-.36-.37-.16-.15-.29-.28-.4-.37.71-.33,1.4-.75,2.09-1.24.69-.49,1.24-1.02,1.65-1.58ZM472.5,269.42l.98.28c-.45.61-1.02,1.2-1.71,1.75-.69.55-1.37,1.02-2.05,1.39-.08-.09-.2-.21-.36-.36-.16-.15-.3-.25-.42-.32.68-.35,1.35-.76,2-1.23.65-.47,1.17-.98,1.56-1.51ZM469.24,273.66l.7-.6c.45.21.93.46,1.42.74s.96.57,1.4.87c.44.3.79.58,1.06.85l-.72.7c-.27-.28-.61-.57-1.04-.87-.43-.3-.88-.6-1.37-.9s-.97-.56-1.45-.79ZM469.3,270.32l.68-.62c.45.19.92.41,1.39.68.47.27.93.53,1.36.8.43.27.78.53,1.05.78l-.7.68c-.27-.24-.61-.5-1.03-.79-.42-.29-.87-.56-1.35-.83-.48-.27-.95-.5-1.4-.7ZM475.54,278.9h.32l.28-.06.8.68c-.45.36-.97.71-1.56,1.04-.59.33-1.2.64-1.83.93s-1.25.54-1.85.75c-.07-.12-.17-.25-.31-.39-.14-.14-.26-.25-.35-.33.53-.19,1.08-.41,1.65-.68.57-.27,1.1-.55,1.61-.84s.92-.57,1.24-.84v-.26ZM474.28,274.24h3.58v.96h-3.58v-.96ZM474.3,270h3.86v.96h-3.86v-.96ZM474.4,272.12h3.62v.96h-3.62v-.96ZM477.62,270h1.28c-.04.76-.09,1.57-.14,2.42s-.11,1.68-.18,2.49c-.07.81-.13,1.5-.2,2.09h-1.3c.09-.6.17-1.31.24-2.12s.13-1.65.18-2.5c.05-.85.09-1.65.12-2.38Z"/>
          <path class="cls-44" d="M487.38,281.98l1.34.48c-.39.52-.83,1.05-1.34,1.58s-1.03,1.03-1.57,1.49-1.07.87-1.59,1.23c-.08-.08-.19-.18-.34-.29-.15-.11-.29-.22-.44-.33-.15-.11-.27-.19-.38-.26.8-.49,1.59-1.09,2.37-1.78.78-.69,1.43-1.4,1.95-2.12ZM495.78,269.26l.98,1.06c-.81.37-1.74.73-2.77,1.07-1.03.34-2.13.66-3.28.96-1.15.3-2.33.58-3.52.84-1.19.26-2.36.5-3.51.71-.03-.17-.08-.37-.17-.58-.09-.21-.16-.39-.23-.54,1.12-.21,2.27-.45,3.44-.72,1.17-.27,2.32-.55,3.43-.85s2.15-.61,3.12-.94c.97-.33,1.8-.66,2.51-1.01ZM484.06,281.66c-.01-.11-.04-.24-.09-.4-.05-.16-.1-.32-.16-.49-.06-.17-.11-.31-.15-.43.31-.03.69-.12,1.14-.29.45-.17.99-.39,1.6-.67.33-.15.83-.38,1.49-.71.66-.33,1.41-.72,2.26-1.19s1.73-.98,2.64-1.55c.91-.57,1.78-1.16,2.61-1.79l1.04.88c-1.87,1.31-3.76,2.46-5.69,3.45-1.93.99-3.82,1.85-5.69,2.57v.04c-.2.07-.37.13-.5.18-.13.05-.25.12-.35.19s-.15.14-.15.21ZM484.06,281.66l-.04-1.04.98-.5,13.14-.9c-.03.19-.04.4-.04.63v.55c-2.03.15-3.77.27-5.23.38s-2.69.2-3.68.27-1.8.14-2.42.2-1.1.11-1.45.15-.61.08-.8.12c-.19.04-.34.09-.46.14ZM485.18,277.48c-.01-.09-.04-.22-.09-.38-.05-.16-.1-.32-.15-.49s-.1-.31-.14-.43c.21-.03.45-.09.72-.19.27-.1.56-.24.88-.41.23-.12.6-.34,1.13-.66s1.11-.7,1.75-1.15c.64-.45,1.25-.92,1.82-1.41l1.18.76c-.99.76-2.01,1.46-3.06,2.09-1.05.63-2.09,1.17-3.1,1.61v.04c-.19.08-.34.15-.47.21-.13.06-.24.13-.33.2-.09.07-.14.14-.14.21ZM485.18,277.48l-.02-.98.82-.42,7.5-.38c-.04.16-.07.35-.09.57-.02.22-.04.4-.05.53-1.37.08-2.52.15-3.45.21-.93.06-1.68.11-2.26.16s-1.03.09-1.35.12c-.32.03-.56.06-.71.09-.15.03-.28.06-.39.1ZM491.02,280.14h1.36v5.74c0,.39-.05.69-.16.9-.11.21-.31.37-.62.48-.31.11-.71.17-1.22.2s-1.13.04-1.86.04c-.04-.2-.11-.43-.21-.68-.1-.25-.2-.47-.31-.66.41.01.8.03,1.16.04.36.01.67.02.93,0,.26,0,.44-.02.53-.03.17-.01.28-.04.33-.08.05-.04.07-.12.07-.24v-5.72ZM494.32,282.5l1.04-.7c.53.41,1.09.86,1.68,1.34.59.48,1.14.95,1.67,1.42.53.47.96.89,1.29,1.26l-1.12.78c-.32-.36-.74-.78-1.25-1.26-.51-.48-1.06-.97-1.63-1.47s-1.13-.96-1.68-1.37ZM494.86,277.24l1.1-.54c.51.45,1.02.95,1.55,1.48.53.53,1.02,1.05,1.47,1.56.45.51.82.96,1.1,1.36l-1.14.68c-.27-.4-.63-.87-1.08-1.4s-.94-1.07-1.47-1.62c-.53-.55-1.04-1.05-1.53-1.52Z"/>
        </g>
      </g>
    </g>
  </g>
  <g id="c42">
    <g id="tx__4hb7pu1cwbf9c-fill">
      <g class="cls-31">
        <g class="cls-31">
          <path class="cls-44" d="M383.72,234.82h1.24v6.04c0,.79-.02,1.64-.07,2.55-.05.91-.13,1.85-.25,2.82-.12.97-.3,1.91-.54,2.82-.24.91-.55,1.76-.94,2.53-.07-.09-.16-.19-.29-.29-.13-.1-.26-.2-.39-.29-.13-.09-.25-.16-.36-.2.36-.73.65-1.52.87-2.36.22-.84.38-1.71.48-2.6.1-.89.17-1.76.2-2.61s.05-1.64.05-2.37v-6.04ZM384.42,234.82h16.1v1.14h-16.1v-1.14ZM388.64,236.16l1.14.34c-.52,1.04-1.14,2.05-1.87,3.03-.73.98-1.46,1.81-2.21,2.49-.07-.07-.15-.15-.26-.26-.11-.11-.22-.22-.34-.33s-.23-.2-.32-.27c.76-.61,1.48-1.36,2.16-2.25s1.25-1.8,1.7-2.75ZM387.34,246.82l1.1.4c-.25.68-.57,1.37-.96,2.08-.39.71-.87,1.29-1.46,1.76l-1.04-.66c.56-.41,1.04-.95,1.44-1.62s.71-1.32.92-1.96ZM387.3,239.4l1.16-1.16.02.02v7.4h-1.18v-6.26ZM391.82,236.14l1.14.32c-.43.96-.95,1.9-1.57,2.81-.62.91-1.24,1.69-1.87,2.33-.07-.07-.16-.15-.27-.25-.11-.1-.23-.2-.36-.29-.13-.09-.24-.17-.33-.22.64-.59,1.25-1.3,1.83-2.14s1.06-1.69,1.43-2.56ZM389.72,246.86h1.22v2.9c0,.21.06.35.19.42.13.07.41.1.85.1h3.14c.23,0,.4-.04.52-.12.12-.08.21-.25.26-.5s.09-.64.1-1.16c.15.09.33.18.55.27.22.09.41.15.57.19-.04.65-.12,1.16-.24,1.52-.12.36-.31.61-.57.74-.26.13-.62.2-1.07.2h-3.36c-.57,0-1.02-.05-1.33-.14-.31-.09-.53-.26-.65-.5-.12-.24-.18-.57-.18-1v-2.92ZM390.74,239.06l1.16-1v7.6h-1.16v-6.6ZM390.82,233.24l1.14-.4c.29.36.58.76.86,1.21.28.45.48.84.6,1.17l-1.2.48c-.12-.35-.31-.75-.57-1.21-.26-.46-.54-.88-.83-1.25ZM391.06,244.12h9.12v.92h-9.12v-.92ZM391.82,237.98h8.02v.92h-8.68l.66-.92ZM391.44,240.06h7.86v.82h-7.86v-.82ZM391.44,242.06h7.92v.82h-7.92v-.82ZM391.46,246.24l.78-.78c.4.19.81.39,1.24.62s.83.46,1.21.7c.38.24.69.47.93.68l-.82.86c-.24-.21-.55-.45-.92-.7-.37-.25-.77-.5-1.19-.75s-.83-.46-1.23-.63ZM394.26,236.48l.94-.46c.25.27.5.56.75.88.25.32.44.6.57.84l-1.02.52c-.11-.25-.28-.55-.51-.89-.23-.34-.48-.64-.73-.89ZM395.12,238.4h1.18v6.1h-1.18v-6.1ZM396.52,247.1l1.02-.5c.39.37.78.79,1.17,1.25.39.46.75.91,1.06,1.36.31.45.56.85.73,1.21l-1.08.58c-.16-.36-.4-.77-.71-1.23-.31-.46-.66-.92-1.03-1.38-.37-.46-.76-.89-1.16-1.29Z"/>
          <path class="cls-44" d="M404.6,234.64h1.32v7.28c0,.75-.03,1.55-.09,2.41s-.18,1.73-.37,2.6c-.19.87-.46,1.71-.82,2.52-.36.81-.84,1.54-1.44,2.21-.05-.09-.15-.2-.28-.31s-.27-.22-.4-.33c-.13-.11-.25-.19-.34-.24.55-.63.98-1.31,1.31-2.04.33-.73.57-1.49.73-2.27.16-.78.26-1.56.31-2.33.05-.77.07-1.51.07-2.22v-7.28ZM405.24,244.12h13.16v1.26h-13.16v-1.26ZM405.36,234.64h13.06v1.3h-13.06v-1.3ZM405.36,239.32h13.02v1.28h-13.02v-1.28ZM410.92,235.12h1.34v16.26h-1.34v-16.26ZM417.86,234.64h1.32v15.02c0,.45-.07.8-.2,1.04s-.36.42-.68.54c-.32.11-.78.17-1.38.2-.6.03-1.37.03-2.32.02-.03-.17-.09-.39-.19-.64-.1-.25-.2-.47-.29-.66.49.01.96.02,1.4.02h1.82c.19-.01.32-.06.4-.13.08-.07.12-.2.12-.39v-15.02Z"/>
          <path class="cls-44" d="M425.1,234.62h12.96v16.62h-1.4v-15.28h-10.18v15.38h-1.38v-16.72ZM425.98,248.7h11.3v1.34h-11.3v-1.34ZM426.02,241.58h11.22v1.32h-11.22v-1.32Z"/>
          <path class="cls-44" d="M442.42,236.64h7.28v1.14h-7.28v-1.14ZM443.24,239.28h5.8v1.08h-5.8v-1.08ZM443.24,241.88h5.8v1.08h-5.8v-1.08ZM443.24,244.54h1.18v6.76h-1.18v-6.76ZM443.82,244.54h5.34v5.8h-5.34v-1.14h4.14v-3.52h-4.14v-1.14ZM444.7,233.7l1.04-.54c.29.4.59.84.88,1.31.29.47.52.89.68,1.25l-1.1.64c-.16-.36-.38-.79-.66-1.3-.28-.51-.56-.96-.84-1.36ZM449.54,241.72h11.16v1.14h-11.16v-1.14ZM450.06,234.08h10.22v1.16h-10.22v-1.16ZM450.52,237.42h8.26v4.8h-1.28v-3.64h-6.98v-1.16ZM450.68,244.36h8.76v7.14h-1.3v-5.92h-6.2v5.98h-1.26v-7.2ZM451.32,249.46h7.5v1.2h-7.5v-1.2ZM453.6,234.54l1.32.14c-.13.8-.29,1.66-.46,2.59-.17.93-.35,1.82-.52,2.68-.17.86-.33,1.6-.48,2.23h-1.32c.13-.48.27-1.04.4-1.67.13-.63.26-1.3.39-1.99.13-.69.25-1.38.37-2.06.12-.68.22-1.32.3-1.92Z"/>
          <path class="cls-44" d="M462.6,246.44h17.86v1.16h-17.86v-1.16ZM463.04,240.4h17v3.56h-1.34v-2.52h-14.38v2.52h-1.28v-3.56ZM468.12,233.42l.62.84c-.57.23-1.23.41-1.97.56-.74.15-1.41.26-2.01.34l-.5-.78c.39-.07.82-.16,1.29-.27s.94-.23,1.4-.36.85-.24,1.17-.33ZM464.26,234.38l1.3.36.4,6.22h-1.26l-.44-6.58ZM465,236.12h3.62v.96h-3.62v-.96ZM465.1,238.24h3.62v.96h-3.62v-.96ZM466.28,242.9h9.58v1.04h-9.58v-1.04ZM471.04,245.52h1.3v4.56c0,.36-.05.63-.15.82-.1.19-.3.33-.61.44-.29.09-.7.14-1.22.15-.52,0-1.19,0-2,0-.03-.16-.09-.35-.18-.56-.09-.21-.19-.4-.28-.56.44.01.84.02,1.21.03s.69,0,.96,0,.46,0,.55,0c.16-.01.27-.04.33-.09.06-.05.09-.14.09-.27v-4.52ZM472.56,236.8l.98.3c-.48.63-1.08,1.23-1.8,1.81-.72.58-1.44,1.06-2.16,1.45-.08-.09-.2-.22-.36-.37-.16-.15-.29-.28-.4-.37.71-.33,1.4-.75,2.09-1.24.69-.49,1.24-1.02,1.65-1.58ZM472.5,233.42l.98.28c-.45.61-1.02,1.2-1.71,1.75-.69.55-1.37,1.02-2.05,1.39-.08-.09-.2-.21-.36-.36-.16-.15-.3-.25-.42-.32.68-.35,1.35-.76,2-1.23.65-.47,1.17-.98,1.56-1.51ZM469.24,237.66l.7-.6c.45.21.93.46,1.42.74s.96.57,1.4.87c.44.3.79.58,1.06.85l-.72.7c-.27-.28-.61-.57-1.04-.87-.43-.3-.88-.6-1.37-.9s-.97-.56-1.45-.79ZM469.3,234.32l.68-.62c.45.19.92.41,1.39.68.47.27.93.53,1.36.8.43.27.78.53,1.05.78l-.7.68c-.27-.24-.61-.5-1.03-.79-.42-.29-.87-.56-1.35-.83-.48-.27-.95-.5-1.4-.7ZM475.54,242.9h.32l.28-.06.8.68c-.45.36-.97.71-1.56,1.04-.59.33-1.2.64-1.83.93s-1.25.54-1.85.75c-.07-.12-.17-.25-.31-.39-.14-.14-.26-.25-.35-.33.53-.19,1.08-.41,1.65-.68.57-.27,1.1-.55,1.61-.84s.92-.57,1.24-.84v-.26ZM474.28,238.24h3.58v.96h-3.58v-.96ZM474.3,234h3.86v.96h-3.86v-.96ZM474.4,236.12h3.62v.96h-3.62v-.96ZM477.62,234h1.28c-.04.76-.09,1.57-.14,2.42s-.11,1.68-.18,2.49c-.07.81-.13,1.5-.2,2.09h-1.3c.09-.6.17-1.31.24-2.12s.13-1.65.18-2.5c.05-.85.09-1.65.12-2.38Z"/>
          <path class="cls-44" d="M487.38,245.98l1.34.48c-.39.52-.83,1.05-1.34,1.58s-1.03,1.03-1.57,1.49-1.07.87-1.59,1.23c-.08-.08-.19-.18-.34-.29-.15-.11-.29-.22-.44-.33-.15-.11-.27-.19-.38-.26.8-.49,1.59-1.09,2.37-1.78.78-.69,1.43-1.4,1.95-2.12ZM495.78,233.26l.98,1.06c-.81.37-1.74.73-2.77,1.07-1.03.34-2.13.66-3.28.96-1.15.3-2.33.58-3.52.84-1.19.26-2.36.5-3.51.71-.03-.17-.08-.37-.17-.58-.09-.21-.16-.39-.23-.54,1.12-.21,2.27-.45,3.44-.72,1.17-.27,2.32-.55,3.43-.85s2.15-.61,3.12-.94c.97-.33,1.8-.66,2.51-1.01ZM484.06,245.66c-.01-.11-.04-.24-.09-.4-.05-.16-.1-.32-.16-.49-.06-.17-.11-.31-.15-.43.31-.03.69-.12,1.14-.29.45-.17.99-.39,1.6-.67.33-.15.83-.38,1.49-.71.66-.33,1.41-.72,2.26-1.19s1.73-.98,2.64-1.55c.91-.57,1.78-1.16,2.61-1.79l1.04.88c-1.87,1.31-3.76,2.46-5.69,3.45-1.93.99-3.82,1.85-5.69,2.57v.04c-.2.07-.37.13-.5.18-.13.05-.25.12-.35.19s-.15.14-.15.21ZM484.06,245.66l-.04-1.04.98-.5,13.14-.9c-.03.19-.04.4-.04.63v.55c-2.03.15-3.77.27-5.23.38s-2.69.2-3.68.27-1.8.14-2.42.2-1.1.11-1.45.15-.61.08-.8.12c-.19.04-.34.09-.46.14ZM485.18,241.48c-.01-.09-.04-.22-.09-.38-.05-.16-.1-.32-.15-.49s-.1-.31-.14-.43c.21-.03.45-.09.72-.19.27-.1.56-.24.88-.41.23-.12.6-.34,1.13-.66s1.11-.7,1.75-1.15c.64-.45,1.25-.92,1.82-1.41l1.18.76c-.99.76-2.01,1.46-3.06,2.09-1.05.63-2.09,1.17-3.1,1.61v.04c-.19.08-.34.15-.47.21-.13.06-.24.13-.33.2-.09.07-.14.14-.14.21ZM485.18,241.48l-.02-.98.82-.42,7.5-.38c-.04.16-.07.35-.09.57-.02.22-.04.4-.05.53-1.37.08-2.52.15-3.45.21-.93.06-1.68.11-2.26.16s-1.03.09-1.35.12c-.32.03-.56.06-.71.09-.15.03-.28.06-.39.1ZM491.02,244.14h1.36v5.74c0,.39-.05.69-.16.9-.11.21-.31.37-.62.48-.31.11-.71.17-1.22.2s-1.13.04-1.86.04c-.04-.2-.11-.43-.21-.68-.1-.25-.2-.47-.31-.66.41.01.8.03,1.16.04.36.01.67.02.93,0,.26,0,.44-.02.53-.03.17-.01.28-.04.33-.08.05-.04.07-.12.07-.24v-5.72ZM494.32,246.5l1.04-.7c.53.41,1.09.86,1.68,1.34.59.48,1.14.95,1.67,1.42.53.47.96.89,1.29,1.26l-1.12.78c-.32-.36-.74-.78-1.25-1.26-.51-.48-1.06-.97-1.63-1.47s-1.13-.96-1.68-1.37ZM494.86,241.24l1.1-.54c.51.45,1.02.95,1.55,1.48.53.53,1.02,1.05,1.47,1.56.45.51.82.96,1.1,1.36l-1.14.68c-.27-.4-.63-.87-1.08-1.4s-.94-1.07-1.47-1.62c-.53-.55-1.04-1.05-1.53-1.52Z"/>
        </g>
      </g>
    </g>
  </g>
  <g id="c41">
    <g id="tx__m7yr4i1cwbg1z-fill">
      <g class="cls-31">
        <g class="cls-31">
          <path class="cls-44" d="M425.1,198.62h12.96v16.62h-1.4v-15.28h-10.18v15.38h-1.38v-16.72ZM425.98,212.7h11.3v1.34h-11.3v-1.34ZM426.02,205.58h11.22v1.32h-11.22v-1.32Z"/>
          <path class="cls-44" d="M442.42,200.64h7.28v1.14h-7.28v-1.14ZM443.24,203.28h5.8v1.08h-5.8v-1.08ZM443.24,205.88h5.8v1.08h-5.8v-1.08ZM443.24,208.54h1.18v6.76h-1.18v-6.76ZM443.82,208.54h5.34v5.8h-5.34v-1.14h4.14v-3.52h-4.14v-1.14ZM444.7,197.7l1.04-.54c.29.4.59.84.88,1.31.29.47.52.89.68,1.25l-1.1.64c-.16-.36-.38-.79-.66-1.3-.28-.51-.56-.96-.84-1.36ZM449.54,205.72h11.16v1.14h-11.16v-1.14ZM450.06,198.08h10.22v1.16h-10.22v-1.16ZM450.52,201.42h8.26v4.8h-1.28v-3.64h-6.98v-1.16ZM450.68,208.36h8.76v7.14h-1.3v-5.92h-6.2v5.98h-1.26v-7.2ZM451.32,213.46h7.5v1.2h-7.5v-1.2ZM453.6,198.54l1.32.14c-.13.8-.29,1.66-.46,2.59-.17.93-.35,1.82-.52,2.68-.17.86-.33,1.6-.48,2.23h-1.32c.13-.48.27-1.04.4-1.67.13-.63.26-1.3.39-1.99.13-.69.25-1.38.37-2.06.12-.68.22-1.32.3-1.92Z"/>
          <path class="cls-44" d="M462.6,210.44h17.86v1.16h-17.86v-1.16ZM463.04,204.4h17v3.56h-1.34v-2.52h-14.38v2.52h-1.28v-3.56ZM468.12,197.42l.62.84c-.57.23-1.23.41-1.97.56-.74.15-1.41.26-2.01.34l-.5-.78c.39-.07.82-.16,1.29-.27s.94-.23,1.4-.36.85-.24,1.17-.33ZM464.26,198.38l1.3.36.4,6.22h-1.26l-.44-6.58ZM465,200.12h3.62v.96h-3.62v-.96ZM465.1,202.24h3.62v.96h-3.62v-.96ZM466.28,206.9h9.58v1.04h-9.58v-1.04ZM471.04,209.52h1.3v4.56c0,.36-.05.63-.15.82-.1.19-.3.33-.61.44-.29.09-.7.14-1.22.15-.52,0-1.19,0-2,0-.03-.16-.09-.35-.18-.56-.09-.21-.19-.4-.28-.56.44.01.84.02,1.21.03s.69,0,.96,0,.46,0,.55,0c.16-.01.27-.04.33-.09.06-.05.09-.14.09-.27v-4.52ZM472.56,200.8l.98.3c-.48.63-1.08,1.23-1.8,1.81-.72.58-1.44,1.06-2.16,1.45-.08-.09-.2-.22-.36-.37-.16-.15-.29-.28-.4-.37.71-.33,1.4-.75,2.09-1.24.69-.49,1.24-1.02,1.65-1.58ZM472.5,197.42l.98.28c-.45.61-1.02,1.2-1.71,1.75-.69.55-1.37,1.02-2.05,1.39-.08-.09-.2-.21-.36-.36-.16-.15-.3-.25-.42-.32.68-.35,1.35-.76,2-1.23.65-.47,1.17-.98,1.56-1.51ZM469.24,201.66l.7-.6c.45.21.93.46,1.42.74s.96.57,1.4.87c.44.3.79.58,1.06.85l-.72.7c-.27-.28-.61-.57-1.04-.87-.43-.3-.88-.6-1.37-.9s-.97-.56-1.45-.79ZM469.3,198.32l.68-.62c.45.19.92.41,1.39.68.47.27.93.53,1.36.8.43.27.78.53,1.05.78l-.7.68c-.27-.24-.61-.5-1.03-.79-.42-.29-.87-.56-1.35-.83-.48-.27-.95-.5-1.4-.7ZM475.54,206.9h.32l.28-.06.8.68c-.45.36-.97.71-1.56,1.04-.59.33-1.2.64-1.83.93s-1.25.54-1.85.75c-.07-.12-.17-.25-.31-.39-.14-.14-.26-.25-.35-.33.53-.19,1.08-.41,1.65-.68.57-.27,1.1-.55,1.61-.84s.92-.57,1.24-.84v-.26ZM474.28,202.24h3.58v.96h-3.58v-.96ZM474.3,198h3.86v.96h-3.86v-.96ZM474.4,200.12h3.62v.96h-3.62v-.96ZM477.62,198h1.28c-.04.76-.09,1.57-.14,2.42s-.11,1.68-.18,2.49c-.07.81-.13,1.5-.2,2.09h-1.3c.09-.6.17-1.31.24-2.12s.13-1.65.18-2.5c.05-.85.09-1.65.12-2.38Z"/>
          <path class="cls-44" d="M487.38,209.98l1.34.48c-.39.52-.83,1.05-1.34,1.58s-1.03,1.03-1.57,1.49-1.07.87-1.59,1.23c-.08-.08-.19-.18-.34-.29-.15-.11-.29-.22-.44-.33-.15-.11-.27-.19-.38-.26.8-.49,1.59-1.09,2.37-1.78.78-.69,1.43-1.4,1.95-2.12ZM495.78,197.26l.98,1.06c-.81.37-1.74.73-2.77,1.07-1.03.34-2.13.66-3.28.96-1.15.3-2.33.58-3.52.84-1.19.26-2.36.5-3.51.71-.03-.17-.08-.37-.17-.58-.09-.21-.16-.39-.23-.54,1.12-.21,2.27-.45,3.44-.72,1.17-.27,2.32-.55,3.43-.85s2.15-.61,3.12-.94c.97-.33,1.8-.66,2.51-1.01ZM484.06,209.66c-.01-.11-.04-.24-.09-.4-.05-.16-.1-.32-.16-.49-.06-.17-.11-.31-.15-.43.31-.03.69-.12,1.14-.29.45-.17.99-.39,1.6-.67.33-.15.83-.38,1.49-.71.66-.33,1.41-.72,2.26-1.19s1.73-.98,2.64-1.55c.91-.57,1.78-1.16,2.61-1.79l1.04.88c-1.87,1.31-3.76,2.46-5.69,3.45-1.93.99-3.82,1.85-5.69,2.57v.04c-.2.07-.37.13-.5.18-.13.05-.25.12-.35.19s-.15.14-.15.21ZM484.06,209.66l-.04-1.04.98-.5,13.14-.9c-.03.19-.04.4-.04.63v.55c-2.03.15-3.77.27-5.23.38s-2.69.2-3.68.27-1.8.14-2.42.2-1.1.11-1.45.15-.61.08-.8.12c-.19.04-.34.09-.46.14ZM485.18,205.48c-.01-.09-.04-.22-.09-.38-.05-.16-.1-.32-.15-.49s-.1-.31-.14-.43c.21-.03.45-.09.72-.19.27-.1.56-.24.88-.41.23-.12.6-.34,1.13-.66s1.11-.7,1.75-1.15c.64-.45,1.25-.92,1.82-1.41l1.18.76c-.99.76-2.01,1.46-3.06,2.09-1.05.63-2.09,1.17-3.1,1.61v.04c-.19.08-.34.15-.47.21-.13.06-.24.13-.33.2-.09.07-.14.14-.14.21ZM485.18,205.48l-.02-.98.82-.42,7.5-.38c-.04.16-.07.35-.09.57-.02.22-.04.4-.05.53-1.37.08-2.52.15-3.45.21-.93.06-1.68.11-2.26.16s-1.03.09-1.35.12c-.32.03-.56.06-.71.09-.15.03-.28.06-.39.1ZM491.02,208.14h1.36v5.74c0,.39-.05.69-.16.9-.11.21-.31.37-.62.48-.31.11-.71.17-1.22.2s-1.13.04-1.86.04c-.04-.2-.11-.43-.21-.68-.1-.25-.2-.47-.31-.66.41.01.8.03,1.16.04.36.01.67.02.93,0,.26,0,.44-.02.53-.03.17-.01.28-.04.33-.08.05-.04.07-.12.07-.24v-5.72ZM494.32,210.5l1.04-.7c.53.41,1.09.86,1.68,1.34.59.48,1.14.95,1.67,1.42.53.47.96.89,1.29,1.26l-1.12.78c-.32-.36-.74-.78-1.25-1.26-.51-.48-1.06-.97-1.63-1.47s-1.13-.96-1.68-1.37ZM494.86,205.24l1.1-.54c.51.45,1.02.95,1.55,1.48.53.53,1.02,1.05,1.47,1.56.45.51.82.96,1.1,1.36l-1.14.68c-.27-.4-.63-.87-1.08-1.4s-.94-1.07-1.47-1.62c-.53-.55-1.04-1.05-1.53-1.52Z"/>
        </g>
      </g>
    </g>
  </g>
  <g id="c40">
    <g id="tx__1ha2swi1cwbf9q-fill">
      <g class="cls-31">
        <g class="cls-31">
          <path class="cls-44" d="M383.72,162.82h1.24v6.04c0,.79-.02,1.64-.07,2.55-.05.91-.13,1.85-.25,2.82-.12.97-.3,1.91-.54,2.82-.24.91-.55,1.76-.94,2.53-.07-.09-.16-.19-.29-.29-.13-.1-.26-.2-.39-.29-.13-.09-.25-.16-.36-.2.36-.73.65-1.52.87-2.36.22-.84.38-1.71.48-2.6.1-.89.17-1.76.2-2.61s.05-1.64.05-2.37v-6.04ZM384.42,162.82h16.1v1.14h-16.1v-1.14ZM388.64,164.16l1.14.34c-.52,1.04-1.14,2.05-1.87,3.03-.73.98-1.46,1.81-2.21,2.49-.07-.07-.15-.15-.26-.26-.11-.11-.22-.22-.34-.33s-.23-.2-.32-.27c.76-.61,1.48-1.36,2.16-2.25s1.25-1.8,1.7-2.75ZM387.34,174.82l1.1.4c-.25.68-.57,1.37-.96,2.08-.39.71-.87,1.29-1.46,1.76l-1.04-.66c.56-.41,1.04-.95,1.44-1.62s.71-1.32.92-1.96ZM387.3,167.4l1.16-1.16.02.02v7.4h-1.18v-6.26ZM391.82,164.14l1.14.32c-.43.96-.95,1.9-1.57,2.81-.62.91-1.24,1.69-1.87,2.33-.07-.07-.16-.15-.27-.25-.11-.1-.23-.2-.36-.29-.13-.09-.24-.17-.33-.22.64-.59,1.25-1.3,1.83-2.14s1.06-1.69,1.43-2.56ZM389.72,174.86h1.22v2.9c0,.21.06.35.19.42.13.07.41.1.85.1h3.14c.23,0,.4-.04.52-.12.12-.08.21-.25.26-.5s.09-.64.1-1.16c.15.09.33.18.55.27.22.09.41.15.57.19-.04.65-.12,1.16-.24,1.52-.12.36-.31.61-.57.74-.26.13-.62.2-1.07.2h-3.36c-.57,0-1.02-.05-1.33-.14-.31-.09-.53-.26-.65-.5-.12-.24-.18-.57-.18-1v-2.92ZM390.74,167.06l1.16-1v7.6h-1.16v-6.6ZM390.82,161.24l1.14-.4c.29.36.58.76.86,1.21.28.45.48.84.6,1.17l-1.2.48c-.12-.35-.31-.75-.57-1.21-.26-.46-.54-.88-.83-1.25ZM391.06,172.12h9.12v.92h-9.12v-.92ZM391.82,165.98h8.02v.92h-8.68l.66-.92ZM391.44,168.06h7.86v.82h-7.86v-.82ZM391.44,170.06h7.92v.82h-7.92v-.82ZM391.46,174.24l.78-.78c.4.19.81.39,1.24.62s.83.46,1.21.7c.38.24.69.47.93.68l-.82.86c-.24-.21-.55-.45-.92-.7-.37-.25-.77-.5-1.19-.75s-.83-.46-1.23-.63ZM394.26,164.48l.94-.46c.25.27.5.56.75.88.25.32.44.6.57.84l-1.02.52c-.11-.25-.28-.55-.51-.89-.23-.34-.48-.64-.73-.89ZM395.12,166.4h1.18v6.1h-1.18v-6.1ZM396.52,175.1l1.02-.5c.39.37.78.79,1.17,1.25.39.46.75.91,1.06,1.36.31.45.56.85.73,1.21l-1.08.58c-.16-.36-.4-.77-.71-1.23-.31-.46-.66-.92-1.03-1.38-.37-.46-.76-.89-1.16-1.29Z"/>
          <path class="cls-44" d="M404.6,162.64h1.32v7.28c0,.75-.03,1.55-.09,2.41s-.18,1.73-.37,2.6c-.19.87-.46,1.71-.82,2.52-.36.81-.84,1.54-1.44,2.21-.05-.09-.15-.2-.28-.31s-.27-.22-.4-.33c-.13-.11-.25-.19-.34-.24.55-.63.98-1.31,1.31-2.04.33-.73.57-1.49.73-2.27.16-.78.26-1.56.31-2.33.05-.77.07-1.51.07-2.22v-7.28ZM405.24,172.12h13.16v1.26h-13.16v-1.26ZM405.36,162.64h13.06v1.3h-13.06v-1.3ZM405.36,167.32h13.02v1.28h-13.02v-1.28ZM410.92,163.12h1.34v16.26h-1.34v-16.26ZM417.86,162.64h1.32v15.02c0,.45-.07.8-.2,1.04s-.36.42-.68.54c-.32.11-.78.17-1.38.2-.6.03-1.37.03-2.32.02-.03-.17-.09-.39-.19-.64-.1-.25-.2-.47-.29-.66.49.01.96.02,1.4.02h1.82c.19-.01.32-.06.4-.13.08-.07.12-.2.12-.39v-15.02Z"/>
          <path class="cls-44" d="M430.72,165.44h1.36v5.48c0,.68-.06,1.35-.17,2.01-.11.66-.34,1.31-.68,1.94-.34.63-.84,1.23-1.51,1.8-.67.57-1.54,1.1-2.61,1.6s-2.41.94-4.01,1.33c-.05-.11-.13-.23-.22-.36-.09-.13-.19-.27-.29-.41-.1-.14-.2-.26-.29-.35,1.55-.35,2.83-.74,3.86-1.18,1.03-.44,1.85-.91,2.46-1.42.61-.51,1.07-1.03,1.37-1.58.3-.55.5-1.11.59-1.68.09-.57.14-1.15.14-1.72v-5.46ZM422.46,172.42h18.08v1.28h-18.08v-1.28ZM423,163.28h7.96v1.2h-7.96v-1.2ZM424.76,167.42h13.6v5.6h-1.34v-4.4h-10.98v4.4h-1.28v-5.6ZM426.84,161.24h1.36v5.26h-1.36v-5.26ZM431.8,175.2l.64-.98c.68.29,1.4.61,2.15.96.75.35,1.5.71,2.23,1.09.73.38,1.42.75,2.05,1.12.63.37,1.17.7,1.61,1.01l-.68,1.14c-.44-.32-.97-.67-1.6-1.04-.63-.37-1.3-.76-2.03-1.15-.73-.39-1.47-.78-2.22-1.15-.75-.37-1.47-.71-2.15-1ZM431.98,163.28h8.14v1.18h-8.14v-1.18ZM435.04,161.24h1.34v5.24h-1.34v-5.24Z"/>
          <path class="cls-44" d="M442.42,164.64h7.28v1.14h-7.28v-1.14ZM443.24,167.28h5.8v1.08h-5.8v-1.08ZM443.24,169.88h5.8v1.08h-5.8v-1.08ZM443.24,172.54h1.18v6.76h-1.18v-6.76ZM443.82,172.54h5.34v5.8h-5.34v-1.14h4.14v-3.52h-4.14v-1.14ZM444.7,161.7l1.04-.54c.29.4.59.84.88,1.31.29.47.52.89.68,1.25l-1.1.64c-.16-.36-.38-.79-.66-1.3-.28-.51-.56-.96-.84-1.36ZM449.54,169.72h11.16v1.14h-11.16v-1.14ZM450.06,162.08h10.22v1.16h-10.22v-1.16ZM450.52,165.42h8.26v4.8h-1.28v-3.64h-6.98v-1.16ZM450.68,172.36h8.76v7.14h-1.3v-5.92h-6.2v5.98h-1.26v-7.2ZM451.32,177.46h7.5v1.2h-7.5v-1.2ZM453.6,162.54l1.32.14c-.13.8-.29,1.66-.46,2.59-.17.93-.35,1.82-.52,2.68-.17.86-.33,1.6-.48,2.23h-1.32c.13-.48.27-1.04.4-1.67.13-.63.26-1.3.39-1.99.13-.69.25-1.38.37-2.06.12-.68.22-1.32.3-1.92Z"/>
          <path class="cls-44" d="M462.6,174.44h17.86v1.16h-17.86v-1.16ZM463.04,168.4h17v3.56h-1.34v-2.52h-14.38v2.52h-1.28v-3.56ZM468.12,161.42l.62.84c-.57.23-1.23.41-1.97.56-.74.15-1.41.26-2.01.34l-.5-.78c.39-.07.82-.16,1.29-.27s.94-.23,1.4-.36.85-.24,1.17-.33ZM464.26,162.38l1.3.36.4,6.22h-1.26l-.44-6.58ZM465,164.12h3.62v.96h-3.62v-.96ZM465.1,166.24h3.62v.96h-3.62v-.96ZM466.28,170.9h9.58v1.04h-9.58v-1.04ZM471.04,173.52h1.3v4.56c0,.36-.05.63-.15.82-.1.19-.3.33-.61.44-.29.09-.7.14-1.22.15-.52,0-1.19,0-2,0-.03-.16-.09-.35-.18-.56-.09-.21-.19-.4-.28-.56.44.01.84.02,1.21.03s.69,0,.96,0,.46,0,.55,0c.16-.01.27-.04.33-.09.06-.05.09-.14.09-.27v-4.52ZM472.56,164.8l.98.3c-.48.63-1.08,1.23-1.8,1.81-.72.58-1.44,1.06-2.16,1.45-.08-.09-.2-.22-.36-.37-.16-.15-.29-.28-.4-.37.71-.33,1.4-.75,2.09-1.24.69-.49,1.24-1.02,1.65-1.58ZM472.5,161.42l.98.28c-.45.61-1.02,1.2-1.71,1.75-.69.55-1.37,1.02-2.05,1.39-.08-.09-.2-.21-.36-.36-.16-.15-.3-.25-.42-.32.68-.35,1.35-.76,2-1.23.65-.47,1.17-.98,1.56-1.51ZM469.24,165.66l.7-.6c.45.21.93.46,1.42.74s.96.57,1.4.87c.44.3.79.58,1.06.85l-.72.7c-.27-.28-.61-.57-1.04-.87-.43-.3-.88-.6-1.37-.9s-.97-.56-1.45-.79ZM469.3,162.32l.68-.62c.45.19.92.41,1.39.68.47.27.93.53,1.36.8.43.27.78.53,1.05.78l-.7.68c-.27-.24-.61-.5-1.03-.79-.42-.29-.87-.56-1.35-.83-.48-.27-.95-.5-1.4-.7ZM475.54,170.9h.32l.28-.06.8.68c-.45.36-.97.71-1.56,1.04-.59.33-1.2.64-1.83.93s-1.25.54-1.85.75c-.07-.12-.17-.25-.31-.39-.14-.14-.26-.25-.35-.33.53-.19,1.08-.41,1.65-.68.57-.27,1.1-.55,1.61-.84s.92-.57,1.24-.84v-.26ZM474.28,166.24h3.58v.96h-3.58v-.96ZM474.3,162h3.86v.96h-3.86v-.96ZM474.4,164.12h3.62v.96h-3.62v-.96ZM477.62,162h1.28c-.04.76-.09,1.57-.14,2.42s-.11,1.68-.18,2.49c-.07.81-.13,1.5-.2,2.09h-1.3c.09-.6.17-1.31.24-2.12s.13-1.65.18-2.5c.05-.85.09-1.65.12-2.38Z"/>
          <path class="cls-44" d="M487.38,173.98l1.34.48c-.39.52-.83,1.05-1.34,1.58s-1.03,1.03-1.57,1.49-1.07.87-1.59,1.23c-.08-.08-.19-.18-.34-.29-.15-.11-.29-.22-.44-.33-.15-.11-.27-.19-.38-.26.8-.49,1.59-1.09,2.37-1.78.78-.69,1.43-1.4,1.95-2.12ZM495.78,161.26l.98,1.06c-.81.37-1.74.73-2.77,1.07-1.03.34-2.13.66-3.28.96-1.15.3-2.33.58-3.52.84-1.19.26-2.36.5-3.51.71-.03-.17-.08-.37-.17-.58-.09-.21-.16-.39-.23-.54,1.12-.21,2.27-.45,3.44-.72,1.17-.27,2.32-.55,3.43-.85s2.15-.61,3.12-.94c.97-.33,1.8-.66,2.51-1.01ZM484.06,173.66c-.01-.11-.04-.24-.09-.4-.05-.16-.1-.32-.16-.49-.06-.17-.11-.31-.15-.43.31-.03.69-.12,1.14-.29.45-.17.99-.39,1.6-.67.33-.15.83-.38,1.49-.71.66-.33,1.41-.72,2.26-1.19s1.73-.98,2.64-1.55c.91-.57,1.78-1.16,2.61-1.79l1.04.88c-1.87,1.31-3.76,2.46-5.69,3.45-1.93.99-3.82,1.85-5.69,2.57v.04c-.2.07-.37.13-.5.18-.13.05-.25.12-.35.19s-.15.14-.15.21ZM484.06,173.66l-.04-1.04.98-.5,13.14-.9c-.03.19-.04.4-.04.63v.55c-2.03.15-3.77.27-5.23.38s-2.69.2-3.68.27-1.8.14-2.42.2-1.1.11-1.45.15-.61.08-.8.12c-.19.04-.34.09-.46.14ZM485.18,169.48c-.01-.09-.04-.22-.09-.38-.05-.16-.1-.32-.15-.49s-.1-.31-.14-.43c.21-.03.45-.09.72-.19.27-.1.56-.24.88-.41.23-.12.6-.34,1.13-.66s1.11-.7,1.75-1.15c.64-.45,1.25-.92,1.82-1.41l1.18.76c-.99.76-2.01,1.46-3.06,2.09-1.05.63-2.09,1.17-3.1,1.61v.04c-.19.08-.34.15-.47.21-.13.06-.24.13-.33.2-.09.07-.14.14-.14.21ZM485.18,169.48l-.02-.98.82-.42,7.5-.38c-.04.16-.07.35-.09.57-.02.22-.04.4-.05.53-1.37.08-2.52.15-3.45.21-.93.06-1.68.11-2.26.16s-1.03.09-1.35.12c-.32.03-.56.06-.71.09-.15.03-.28.06-.39.1ZM491.02,172.14h1.36v5.74c0,.39-.05.69-.16.9-.11.21-.31.37-.62.48-.31.11-.71.17-1.22.2s-1.13.04-1.86.04c-.04-.2-.11-.43-.21-.68-.1-.25-.2-.47-.31-.66.41.01.8.03,1.16.04.36.01.67.02.93,0,.26,0,.44-.02.53-.03.17-.01.28-.04.33-.08.05-.04.07-.12.07-.24v-5.72ZM494.32,174.5l1.04-.7c.53.41,1.09.86,1.68,1.34.59.48,1.14.95,1.67,1.42.53.47.96.89,1.29,1.26l-1.12.78c-.32-.36-.74-.78-1.25-1.26-.51-.48-1.06-.97-1.63-1.47s-1.13-.96-1.68-1.37ZM494.86,169.24l1.1-.54c.51.45,1.02.95,1.55,1.48.53.53,1.02,1.05,1.47,1.56.45.51.82.96,1.1,1.36l-1.14.68c-.27-.4-.63-.87-1.08-1.4s-.94-1.07-1.47-1.62c-.53-.55-1.04-1.05-1.53-1.52Z"/>
        </g>
      </g>
    </g>
  </g>
  <g id="c39">
    <g id="tx__4pfdua1cwa1ol-fill">
      <g class="cls-31">
        <g class="cls-31">
          <path class="cls-44" d="M430.72,129.44h1.36v5.48c0,.68-.06,1.35-.17,2.01-.11.66-.34,1.31-.68,1.94-.34.63-.84,1.23-1.51,1.8-.67.57-1.54,1.1-2.61,1.6s-2.41.94-4.01,1.33c-.05-.11-.13-.23-.22-.36-.09-.13-.19-.27-.29-.41-.1-.14-.2-.26-.29-.35,1.55-.35,2.83-.74,3.86-1.18,1.03-.44,1.85-.91,2.46-1.42.61-.51,1.07-1.03,1.37-1.58.3-.55.5-1.11.59-1.68.09-.57.14-1.15.14-1.72v-5.46ZM422.46,136.42h18.08v1.28h-18.08v-1.28ZM423,127.28h7.96v1.2h-7.96v-1.2ZM424.76,131.42h13.6v5.6h-1.34v-4.4h-10.98v4.4h-1.28v-5.6ZM426.84,125.24h1.36v5.26h-1.36v-5.26ZM431.8,139.2l.64-.98c.68.29,1.4.61,2.15.96.75.35,1.5.71,2.23,1.09.73.38,1.42.75,2.05,1.12.63.37,1.17.7,1.61,1.01l-.68,1.14c-.44-.32-.97-.67-1.6-1.04-.63-.37-1.3-.76-2.03-1.15-.73-.39-1.47-.78-2.22-1.15-.75-.37-1.47-.71-2.15-1ZM431.98,127.28h8.14v1.18h-8.14v-1.18ZM435.04,125.24h1.34v5.24h-1.34v-5.24Z"/>
          <path class="cls-44" d="M442.42,128.64h7.28v1.14h-7.28v-1.14ZM443.24,131.28h5.8v1.08h-5.8v-1.08ZM443.24,133.88h5.8v1.08h-5.8v-1.08ZM443.24,136.54h1.18v6.76h-1.18v-6.76ZM443.82,136.54h5.34v5.8h-5.34v-1.14h4.14v-3.52h-4.14v-1.14ZM444.7,125.7l1.04-.54c.29.4.59.84.88,1.31.29.47.52.89.68,1.25l-1.1.64c-.16-.36-.38-.79-.66-1.3-.28-.51-.56-.96-.84-1.36ZM449.54,133.72h11.16v1.14h-11.16v-1.14ZM450.06,126.08h10.22v1.16h-10.22v-1.16ZM450.52,129.42h8.26v4.8h-1.28v-3.64h-6.98v-1.16ZM450.68,136.36h8.76v7.14h-1.3v-5.92h-6.2v5.98h-1.26v-7.2ZM451.32,141.46h7.5v1.2h-7.5v-1.2ZM453.6,126.54l1.32.14c-.13.8-.29,1.66-.46,2.59-.17.93-.35,1.82-.52,2.68-.17.86-.33,1.6-.48,2.23h-1.32c.13-.48.27-1.04.4-1.67.13-.63.26-1.3.39-1.99.13-.69.25-1.38.37-2.06.12-.68.22-1.32.3-1.92Z"/>
          <path class="cls-44" d="M462.6,138.44h17.86v1.16h-17.86v-1.16ZM463.04,132.4h17v3.56h-1.34v-2.52h-14.38v2.52h-1.28v-3.56ZM468.12,125.42l.62.84c-.57.23-1.23.41-1.97.56-.74.15-1.41.26-2.01.34l-.5-.78c.39-.07.82-.16,1.29-.27s.94-.23,1.4-.36.85-.24,1.17-.33ZM464.26,126.38l1.3.36.4,6.22h-1.26l-.44-6.58ZM465,128.12h3.62v.96h-3.62v-.96ZM465.1,130.24h3.62v.96h-3.62v-.96ZM466.28,134.9h9.58v1.04h-9.58v-1.04ZM471.04,137.52h1.3v4.56c0,.36-.05.63-.15.82-.1.19-.3.33-.61.44-.29.09-.7.14-1.22.15-.52,0-1.19,0-2,0-.03-.16-.09-.35-.18-.56-.09-.21-.19-.4-.28-.56.44.01.84.02,1.21.03s.69,0,.96,0,.46,0,.55,0c.16-.01.27-.04.33-.09.06-.05.09-.14.09-.27v-4.52ZM472.56,128.8l.98.3c-.48.63-1.08,1.23-1.8,1.81-.72.58-1.44,1.06-2.16,1.45-.08-.09-.2-.22-.36-.37-.16-.15-.29-.28-.4-.37.71-.33,1.4-.75,2.09-1.24.69-.49,1.24-1.02,1.65-1.58ZM472.5,125.42l.98.28c-.45.61-1.02,1.2-1.71,1.75-.69.55-1.37,1.02-2.05,1.39-.08-.09-.2-.21-.36-.36-.16-.15-.3-.25-.42-.32.68-.35,1.35-.76,2-1.23.65-.47,1.17-.98,1.56-1.51ZM469.24,129.66l.7-.6c.45.21.93.46,1.42.74s.96.57,1.4.87c.44.3.79.58,1.06.85l-.72.7c-.27-.28-.61-.57-1.04-.87-.43-.3-.88-.6-1.37-.9s-.97-.56-1.45-.79ZM469.3,126.32l.68-.62c.45.19.92.41,1.39.68.47.27.93.53,1.36.8.43.27.78.53,1.05.78l-.7.68c-.27-.24-.61-.5-1.03-.79-.42-.29-.87-.56-1.35-.83-.48-.27-.95-.5-1.4-.7ZM475.54,134.9h.32l.28-.06.8.68c-.45.36-.97.71-1.56,1.04-.59.33-1.2.64-1.83.93s-1.25.54-1.85.75c-.07-.12-.17-.25-.31-.39-.14-.14-.26-.25-.35-.33.53-.19,1.08-.41,1.65-.68.57-.27,1.1-.55,1.61-.84s.92-.57,1.24-.84v-.26ZM474.28,130.24h3.58v.96h-3.58v-.96ZM474.3,126h3.86v.96h-3.86v-.96ZM474.4,128.12h3.62v.96h-3.62v-.96ZM477.62,126h1.28c-.04.76-.09,1.57-.14,2.42s-.11,1.68-.18,2.49c-.07.81-.13,1.5-.2,2.09h-1.3c.09-.6.17-1.31.24-2.12s.13-1.65.18-2.5c.05-.85.09-1.65.12-2.38Z"/>
          <path class="cls-44" d="M487.38,137.98l1.34.48c-.39.52-.83,1.05-1.34,1.58s-1.03,1.03-1.57,1.49-1.07.87-1.59,1.23c-.08-.08-.19-.18-.34-.29-.15-.11-.29-.22-.44-.33-.15-.11-.27-.19-.38-.26.8-.49,1.59-1.09,2.37-1.78.78-.69,1.43-1.4,1.95-2.12ZM495.78,125.26l.98,1.06c-.81.37-1.74.73-2.77,1.07-1.03.34-2.13.66-3.28.96-1.15.3-2.33.58-3.52.84-1.19.26-2.36.5-3.51.71-.03-.17-.08-.37-.17-.58-.09-.21-.16-.39-.23-.54,1.12-.21,2.27-.45,3.44-.72,1.17-.27,2.32-.55,3.43-.85s2.15-.61,3.12-.94c.97-.33,1.8-.66,2.51-1.01ZM484.06,137.66c-.01-.11-.04-.24-.09-.4-.05-.16-.1-.32-.16-.49-.06-.17-.11-.31-.15-.43.31-.03.69-.12,1.14-.29.45-.17.99-.39,1.6-.67.33-.15.83-.38,1.49-.71.66-.33,1.41-.72,2.26-1.19s1.73-.98,2.64-1.55c.91-.57,1.78-1.16,2.61-1.79l1.04.88c-1.87,1.31-3.76,2.46-5.69,3.45-1.93.99-3.82,1.85-5.69,2.57v.04c-.2.07-.37.13-.5.18-.13.05-.25.12-.35.19s-.15.14-.15.21ZM484.06,137.66l-.04-1.04.98-.5,13.14-.9c-.03.19-.04.4-.04.63v.55c-2.03.15-3.77.27-5.23.38s-2.69.2-3.68.27-1.8.14-2.42.2-1.1.11-1.45.15-.61.08-.8.12c-.19.04-.34.09-.46.14ZM485.18,133.48c-.01-.09-.04-.22-.09-.38-.05-.16-.1-.32-.15-.49s-.1-.31-.14-.43c.21-.03.45-.09.72-.19.27-.1.56-.24.88-.41.23-.12.6-.34,1.13-.66s1.11-.7,1.75-1.15c.64-.45,1.25-.92,1.82-1.41l1.18.76c-.99.76-2.01,1.46-3.06,2.09-1.05.63-2.09,1.17-3.1,1.61v.04c-.19.08-.34.15-.47.21-.13.06-.24.13-.33.2-.09.07-.14.14-.14.21ZM485.18,133.48l-.02-.98.82-.42,7.5-.38c-.04.16-.07.35-.09.57-.02.22-.04.4-.05.53-1.37.08-2.52.15-3.45.21-.93.06-1.68.11-2.26.16s-1.03.09-1.35.12c-.32.03-.56.06-.71.09-.15.03-.28.06-.39.1ZM491.02,136.14h1.36v5.74c0,.39-.05.69-.16.9-.11.21-.31.37-.62.48-.31.11-.71.17-1.22.2s-1.13.04-1.86.04c-.04-.2-.11-.43-.21-.68-.1-.25-.2-.47-.31-.66.41.01.8.03,1.16.04.36.01.67.02.93,0,.26,0,.44-.02.53-.03.17-.01.28-.04.33-.08.05-.04.07-.12.07-.24v-5.72ZM494.32,138.5l1.04-.7c.53.41,1.09.86,1.68,1.34.59.48,1.14.95,1.67,1.42.53.47.96.89,1.29,1.26l-1.12.78c-.32-.36-.74-.78-1.25-1.26-.51-.48-1.06-.97-1.63-1.47s-1.13-.96-1.68-1.37ZM494.86,133.24l1.1-.54c.51.45,1.02.95,1.55,1.48.53.53,1.02,1.05,1.47,1.56.45.51.82.96,1.1,1.36l-1.14.68c-.27-.4-.63-.87-1.08-1.4s-.94-1.07-1.47-1.62c-.53-.55-1.04-1.05-1.53-1.52Z"/>
        </g>
      </g>
    </g>
  </g>
  <g id="a3">
    <g id="g-root-ro_dgow4shjfqbp-stroke">
      <g id="ro_dgow4shjfqbp-stroke">
        <path class="cls-4" d="M639.77,126.5h95.45s27.27,0,27.27,28.57v92.86s0,28.57-27.27,28.57h-95.45s-27.27,0-27.27-28.57v-92.86s0-28.57,27.27-28.57"/>
      </g>
    </g>
    <g>
      <g id="_圖層_1">
        <g id="_圖層_1-2">
          <g id="_圖層_1-2-2" data-name="_圖層_1-2">
            <g>
              <g>
                <path class="cls-22" d="M671.26,187.73c0,.63-4.85,1.12-10.83,1.12s-10.83-.5-10.83-1.12,4.85-1.12,10.83-1.12,10.83.5,10.83,1.12Z"/>
                <g>
                  <path class="cls-14" d="M653.7,167.3c-2.38,1.41-2.45,8.56-2.86,11-.18,1.13.49,5.19,1.05,6.18.18.32,2.77.14,3.12.18,1.49.27,8.49.38,9.41-.64.91-1.02-1.62-3.46-1.45-4.66.91-6.29-2.63-12.34-2.63-12.34,0,0-4.07-1.23-6.64.29h0Z"/>
                  <path class="cls-11" d="M660.92,181.13s-4.8-.75-6.15-6.06c-.56-2.22-.22-3.78-.73-3.93-.95-.29-2.33,1.47-2.33,1.47,0,0-1.34,5.54-.73,7.21s9,2.69,9,2.69l.96-1.37h-.03.02Z"/>
                  <path class="cls-14" d="M660.33,167s4.53.43,7.48,8.81l-3.02.63-4.49-3.58.03-5.86h0Z"/>
                  <path class="cls-12" d="M658.05,187.43s-3.02-.18-2.82-1.31c.21-1.13,3.35-.18,3.35-.18l-.53,1.5h0Z"/>
                  <path class="cls-18" d="M659.48,164.88s-.31,1.67-.54,3.05c-.07.38-.32.67-.67.79s-.74.05-1.03-.21c-.1-.08-.18-.15-.27-.24-.39-.34-.54-.86-.4-1.37.38-1.27,1.03-3.58,1.03-3.58l1.89,1.52h0v.03h0Z"/>
                  <path class="cls-12" d="M660.78,162.64s1.17.88-.14,1.86.14-1.86.14-1.86h0Z"/>
                  <path class="cls-18" d="M660.96,164.07c.08-.43-.01-.88-.29-1.25s-.66-.59-1.1-.64h0c-.85-.1-1.63.47-1.79,1.31-.08.49-.18,1.02-.27,1.47-.05.31,0,.64.21.89.18.25.47.42.78.46.29.03.61.07.88.11.63.08,1.2-.34,1.31-.96.08-.42.17-.93.25-1.41h.02Z"/>
                  <path class="cls-12" d="M658.73,163.02s-.14,1.49-1.27,1.25c0,0-.27-1.42-.18-2.09.15-1.27,2.69-.95,3.57-.18.88.77.05,1.55-2.11,1.03h0Z"/>
                  <path class="cls-18" d="M657.49,163.68c.22,0,.39.22.4.49s-.17.5-.38.5-.39-.22-.4-.49c0-.27.17-.5.38-.5h0Z"/>
                  <path class="cls-12" d="M659.55,163.16s2.8.4,2.44-.95c-.34-1.27-2.8.67-3.11.15l.66.81h.01,0Z"/>
                  <path class="cls-15" d="M660.04,165.47l-.79-.08s-.03.54.34.54.43-.46.43-.46h.01,0Z"/>
                  <path class="cls-18" d="M661.56,174.46s-1.05-1.28-1.86-.49c-.81.79.66,2.87,1.45,2.44.79-.42.4-1.94.4-1.94h.01Z"/>
                  <path class="cls-12" d="M661.03,177.92l1.35-.03c.56,0,1.12-.43,1.27-.95l1.12-3.92c.15-.5-.18-.91-.74-.89l-1.35.03c-.56,0-1.12.43-1.27.95l-1.12,3.92c-.15.5.18.91.74.89h0Z"/>
                  <path class="cls-18" d="M664.79,174.42s-1.79-1.44-2.44-.4.99,2.06,1.63,1.92.78-1.52.78-1.52h.02Z"/>
                  <path class="cls-18" d="M664.79,174.42s3.82.31,3.54,1.57c-.27,1.25-1.5,2.63-4.34-.05-2.84-2.66.78-1.52.78-1.52h.02Z"/>
                  <path class="cls-23" d="M662.66,179.84s5.59-2.93,7.21,1.05c1.38,3.4-8.46,5.93-11.32,6.59-.43.1-.89-.11-1.1-.53l-1.17-2.44,6.37-4.68h0Z"/>
                  <path class="cls-23" d="M654.52,186.06s-5.97-2.02-4.21-5.94c1.76-3.9,13.23,4.07,13.23,4.07l-.96,2.54c-.15.42-.59.66-1.02.57l-7.03-1.25h-.01Z"/>
                  <path class="cls-12" d="M662.98,185.6s3.01.34,2.76,1.45c-.25,1.11-3.35.03-3.35.03l.59-1.49h0Z"/>
                  <path class="cls-14" d="M654.2,167.04s-3.85,1.03-3.92,7.75c-.05,6.72,6.48,2.69,6.48,2.69l-.39-2.47-.56-.05c-1.27-.1-2.22-1.2-2.09-2.47l.47-5.48h0v.02h.01Z"/>
                  <path class="cls-18" d="M660.32,173.68s-4.02.35-5.44,2.3-.25,2.5.39,2.45,4.48-2.97,4.48-2.97l.59-1.77h-.02Z"/>
                  <path class="cls-24" d="M659.2,166.4l-.14.73-.81-1.06c.29.25.71.29.95.32h0Z"/>
                </g>
              </g>
              <g>
                <rect class="cls-46" x="673.09" y="164.88" width="35.83" height="63.37" rx="2.3" ry="2.3"/>
                <rect class="cls-38" x="674.29" y="167.69" width="33.37" height="57.41" rx=".34" ry=".34"/>
                <polygon class="cls-28" points="688.62 167.63 674.29 201.07 674.29 204.67 690.37 167.63 688.62 167.63"/>
                <path class="cls-28" d="M693.85,167.63l-19.56,45.68v11.39c0,.18.15.35.34.35h6.61l24.65-57.41h-12.04.01-.01Z"/>
              </g>
              <path class="cls-41" d="M726.41,179.05l2.76,3.19s-5.38,2.05-9.23-.18l2.18-3.29,4.29.31h0v-.02h0Z"/>
              <path class="cls-19" d="M723.91,198.1l.35,17.24.63,14.85,1.45-.07c.78-5.12,3.76-8.41,2.24-14.92l.81-10.72-2.73-5.49-2.76-.91h0v.02h0Z"/>
              <path class="cls-19" d="M728.01,195.93l-7.9-.46c-2.5,3.85-2.57,8.8-2.57,8.8,0,0-.93,9.84-.85,10.27l1.55,15.56,1.44.18c.57-4.17,2.96-8.49,1.28-14.64l2.4-10.37c2.69.22,5.69,2.65,6.38-1.81.79-5.1-1.74-7.55-1.74-7.55h0Z"/>
              <path class="cls-10" d="M718.26,230.09l-1.31.96c-.25.22-.57.35-.91.39l-.34.03c-.15,0-.29.11-.32.27h0c-.05.21.1.4.31.43l3.8-.18s.88-.21.22-1.89h-1.45v-.02h.02,0Z"/>
              <path class="cls-10" d="M725,229.61s-.34,1.28-.38,2.05c0,.14.05.27.15.35s.24.14.38.11c.27-.05.59-.11.78-.15.11,0,.22-.08.31-.18.05-.05.1-.11.15-.21.25-.32.17-.63.05-1.06-.11-.46-.18-.96-.18-.96-.64-.46-1.23.03-1.23.03h-.01Z"/>
              <path class="cls-9" d="M728.89,195.39s1.31,3.19,1.57,6.64c.24,3.44-.85,7.96-.73,9.23.11,1.27.24,8.68-.31,10.72-.55,2.05-.85,4.64-.85,4.64h-4.88l-.42-13.02.56-7.81-.49.07-1.86,9.44s.56,5.84.17,7.96c-.4,2.11-.59,3.12-.59,3.12,0,0-4.18.57-4.18-.07s-.95-12.1-.95-12.1l1.52-13.09.66-1.34,10.72-4.42h.05l.02.02h0Z"/>
              <line class="cls-6" x1="722.75" y1="203.76" x2="722.87" y2="200.81"/>
              <path class="cls-17" d="M723.14,182.7c-.57.08-1.6.42-2.45.86-2.15,1.12-2.48,2.69-4.66,7.84-.17.39-1.12,4.78-.96,5.22.66,1.87,2.08,2.09,3.19.85,2.16-2.41,3.4-10.68,3.4-10.68l1.5-4.09h-.01Z"/>
              <path class="cls-17" d="M727.8,195.84c-.1,1.53,1.53,2.62,2.89,1.86,1.05-.59,1.94-1.77,1.79-4.12-.31-4.98-.99-8.56-2.87-9.59-1.89-1.03-2.28,3.46-1.77,4.7.34.81.14,4.61-.03,7.16h-.01Z"/>
              <path class="cls-17" d="M723.14,182.7l1.83-.18.93.07,3.51,1.34c1.18.63,1.7,2.02,1.23,3.28l-.35,5.06c.86,3.09-.89,2.23-.38,6.22-5.05,1.73-11.28,4.6-12.84,2.23.38-6.32,3.53-14.02,6.05-18.02h.02,0Z"/>
              <path class="cls-42" d="M731.26,186.18s-3.78.91-5.44.18-4.38-3.18-4.38-3.18c.82-.32,1.59-.57,2.28-.61h2.16l3.37,1.2s1.41.42,1.98,2.4h.03,0Z"/>
              <path class="cls-13" d="M726.79,186.6c.22-1.02.7-2.97,1.18-3.29l1.06.38c-.17.46-.73,2.02-.86,2.94-.47.01-.95.01-1.37-.03h-.01Z"/>
              <path class="cls-21" d="M722.34,178.38s-1.37,1.81.42,3.6,2.09.57,2.96.07c.99-.57,1.35-1.86.75-2.86-.24-.4-.56-.78-.95-.99-.91-.53-2.58.32-3.19.18h0Z"/>
              <path class="cls-19" d="M723.59,180.37s.11,1.47.22,2.7c.03.32.22.61.53.74s.64.1.91-.08c.08-.07.17-.11.25-.18.38-.25.54-.71.46-1.14-.21-1.13-.59-3.19-.59-3.19l-1.77,1.17h0Z"/>
              <polygon class="cls-16" points="723.69 181.91 723.75 182.62 724.61 181.81 723.69 181.91"/>
              <path class="cls-19" d="M713.35,194.29s1.27,1.77.25,2.33c-1.02.56-1.89-1.05-1.74-1.66s1.49-.66,1.49-.66h0Z"/>
              <g>
                <path class="cls-26" d="M717.07,196.64l-1.37,2.96-4-6.08,1.25-3.4c.05-.14.24-.15.31-.03l3.82,6.54h0Z"/>
                <path class="cls-40" d="M714.41,189.59l1.76,3.01-2.34.79s-1.59-.05-1.59-.08,2.2-3.72,2.2-3.72h-.02Z"/>
                <path class="cls-39" d="M719.93,192.44l-.5-.82c-1.55-.07-3.29.38-5.12,1.1-1.81.7-2.06.85-2.06.85l.57.17,7.12-1.27h0v-.02h-.01Z"/>
                <path class="cls-39" d="M714.18,191.02c.21-.61.32-1.18.22-1.44l-1.12.38-1.41,3.54.49.05.21-.17c.74-.63,1.3-1.44,1.6-2.37h.01Z"/>
                <path class="cls-27" d="M712.19,193.42h-.24c-.14,0-.22.17-.15.29l4.28,6.84c.07.1.17.18.29.22l.46.11c.22.07.4-.18.29-.38l-4.18-6.71c-.15-.25-.42-.39-.71-.38h-.02Z"/>
                <path class="cls-26" d="M722.62,199.47l-5.52,1.23-4.36-7.15,6.54-1.21c.46-.08.89.11,1.12.53l2.89,5.17c.32.57,0,1.28-.66,1.44h-.01Z"/>
              </g>
              <path class="cls-42" d="M728.24,194.86l-5.83.14s-.59,1.62,1.76,1.77c1.3.08,2.94.11,4.17.11s1.34-.74.98-1.42h0c-.21-.38-.64-.63-1.1-.61h.01Z"/>
              <path class="cls-19" d="M723.48,196.49s-1.89,1.09-2.33,0c-.43-1.06,1.23-1.79,1.83-1.57s.5,1.53.5,1.53h0v.02h0Z"/>
              <path class="cls-19" d="M725.37,178.68c-.08-.42-.5-.7-.93-.61-.46.1-1.03.22-1.49.31-.42.08-.63.49-.61.93,0,.5.32,1.52.61,2.23.17.4.57.71.99.63.46-.1,1.73-.81,1.69-1.63-.03-.64-.15-1.21-.29-1.84h.01Z"/>
              <path class="cls-21" d="M726.69,179.51s-.38-1.63-1.2-1.99c-1.12-.47-2.38-.49-3.21.98,0,0,.73,2.47,4.41,1.02h0Z"/>
              <path class="cls-19" d="M726.17,180.26c-.05.35-.34.61-.63.56s-.49-.35-.43-.71c.05-.35.34-.61.63-.56s.49.35.43.71h0Z"/>
              <path class="cls-13" d="M723.34,181.26l.78-.27s.17.53-.22.61-.56-.35-.56-.35h0v.02h0Z"/>
              <circle class="cls-41" cx="726.39" cy="178.02" r=".91"/>
              <path class="cls-5" d="M728.29,193.95c0-.17.1-2.5.08-3.21,0-.71,0-2.57.1-2.89"/>
              <line class="cls-5" x1="719.3" y1="191.13" x2="720.3" y2="188.4"/>
              <path class="cls-10" d="M725.92,182.23c-.15.27-1.86.79-2.2.18v.59s.79.74,2.31-.14l-.14-.66h0v.02h.02Z"/>
              <g>
                <path class="cls-3" d="M723.52,179.84s.73-.22,1.3-.21"/>
                <path class="cls-3" d="M723.54,179.88s.15.82.66.71c.89-.21.56-.95.56-.95"/>
                <path class="cls-3" d="M722.14,180.3s.47-.27,1.03-.34"/>
                <path class="cls-3" d="M723.17,179.94s.25.75-.24.96c-.61.27-.78-.59-.78-.59"/>
                <path class="cls-29" d="M723.58,180.01s-.17-.07-.38.1v-.17s.07.03.34-.08l.05.17h0v-.02h-.01Z"/>
              </g>
              <rect class="cls-26" x="683.29" y="184.76" width="18.73" height="13.26" rx="4.92" ry="4.92"/>
              <path class="cls-29" d="M689.54,192.58v-3.37c0-.71.7-1.2,1.37-.96l5.7,2.05c.56.21.56.99,0,1.18l-5.7,2.05c-.66.24-1.37-.25-1.37-.96h0v.03h0Z"/>
              <g>
                <path class="cls-39" d="M702.18,205.08l-8.91-.08c-2.77-.03-5.02-2.33-4.98-5.1h0c.03-2.77,2.33-5.02,5.1-4.98l8.91.08c2.77.03,5.02,2.33,4.98,5.1h0c-.03,2.77-2.33,5.02-5.1,4.98Z"/>
                <polygon class="cls-39" points="699.55 204.91 705.26 209.28 704.75 203.34 699.55 204.91"/>
                <path class="cls-45" d="M693.19,200.6h0c-.49-.03-.86-.47-.81-.96h0c.03-.49.47-.86.96-.81h0c.49.03.86.47.81.96h0c-.03.49-.47.86-.96.81Z"/>
                <path class="cls-45" d="M697.75,200.67h0c-.49-.03-.86-.47-.81-.96h0c.03-.49.47-.86.96-.81h0c.49.03.86.47.81.96h0c-.03.49-.47.86-.96.81Z"/>
                <path class="cls-45" d="M702.33,200.72h0c-.49-.03-.86-.47-.81-.96h0c.03-.49.47-.86.96-.81h0c.49.03.86.47.81.96h0c-.03.49-.47.86-.96.81Z"/>
              </g>
              <g>
                <g>
                  <rect class="cls-34" x="704.82" y="150.05" width="18.54" height="23.32"/>
                  <rect class="cls-42" x="706.35" y="152.16" width="2.96" height=".99"/>
                  <rect class="cls-42" x="706.35" y="155.81" width="2.96" height=".99"/>
                  <rect class="cls-42" x="717.75" y="155.81" width="1.73" height=".99"/>
                  <rect class="cls-42" x="709.92" y="155.81" width="1.73" height=".99"/>
                  <rect class="cls-42" x="720.33" y="155.81" width="1.49" height=".99"/>
                  <rect class="cls-42" x="719.58" y="163.07" width="2.24" height=".99"/>
                  <rect class="cls-42" x="706.35" y="159.45" width="4.17" height=".99"/>
                  <rect class="cls-42" x="706.35" y="163.07" width="2.96" height=".99"/>
                  <rect class="cls-42" x="706.35" y="166.72" width="1.86" height=".99"/>
                  <rect class="cls-42" x="712.21" y="166.72" width="4.54" height=".99"/>
                  <rect class="cls-42" x="706.35" y="169.71" width="11.23" height=".99"/>
                  <rect class="cls-42" x="718.87" y="152.16" width="2.96" height=".99"/>
                  <rect class="cls-42" x="719.06" y="159.45" width="2.76" height=".99"/>
                  <rect class="cls-42" x="720.65" y="166.72" width="1.17" height=".99"/>
                  <rect class="cls-42" x="718.87" y="169.71" width="2.96" height=".99"/>
                  <rect class="cls-42" x="710.77" y="152.16" width="6.18" height=".99"/>
                  <path class="cls-25" d="M712.34,163.46l-1.12,3.8h-2.44l4.14-13.4h3.02l4.21,13.4h-2.54l-1.17-3.8h-4.12.01ZM716.04,161.62l-1.02-3.29c-.25-.81-.46-1.73-.66-2.5h-.03c-.18.78-.39,1.7-.61,2.5l-.99,3.29h3.33-.01Z"/>
                </g>
                <rect class="cls-39" x="691.98" y="153.91" width="18.54" height="23.32"/>
                <polygon class="cls-25" points="705.33 158.86 696.16 158.86 696.16 158.01 704.82 158.01 705.33 158.86"/>
                <path class="cls-25" d="M697.23,158.19s1.67,5.76,8.13,6.02l.43-1.18s-4.54.74-7.64-5.05l-.95.18h0v.02h.02Z"/>
                <path class="cls-25" d="M705.89,158.01s-1.76,5.97-8.21,6.23l-.43-1.18s4.49.74,7.58-5.05h1.09-.02Z"/>
                <rect class="cls-25" x="700.76" y="164.61" width="1.1" height="6.5"/>
                <rect class="cls-25" x="698.56" y="165.86" width="5.51" height="1.06"/>
                <rect class="cls-25" x="698.56" y="168.59" width="5.51" height="1.06"/>
                <rect class="cls-36" x="693.51" y="156.03" width="2.96" height=".99"/>
                <rect class="cls-36" x="693.51" y="159.68" width="2.96" height=".99"/>
                <rect class="cls-36" x="705.81" y="159.68" width=".85" height=".99"/>
                <rect class="cls-36" x="707.49" y="159.68" width="1.49" height=".99"/>
                <rect class="cls-36" x="705.17" y="166.95" width="1.49" height=".99"/>
                <rect class="cls-36" x="703.69" y="170.6" width="1.49" height=".99"/>
                <rect class="cls-36" x="707.49" y="166.95" width="1.49" height=".99"/>
                <rect class="cls-36" x="693.51" y="163.31" width="1.27" height=".99"/>
                <rect class="cls-36" x="695.53" y="163.31" width=".93" height=".99"/>
                <rect class="cls-36" x="693.51" y="166.95" width="2.96" height=".99"/>
                <rect class="cls-36" x="693.51" y="170.59" width="5.05" height=".99"/>
                <rect class="cls-36" x="693.51" y="173.58" width="11.23" height=".99"/>
                <rect class="cls-36" x="706.03" y="156.03" width="2.96" height=".99"/>
                <rect class="cls-36" x="706.24" y="163.31" width="2.76" height=".99"/>
                <rect class="cls-36" x="706.03" y="170.59" width="2.96" height=".99"/>
                <rect class="cls-36" x="706.03" y="173.58" width="2.96" height=".99"/>
                <rect class="cls-36" x="697.94" y="156.03" width="6.18" height=".99"/>
                <path class="cls-25" d="M702.55,148.21h-2.69c-.59,0-1.05.49-1.05,1.1h0v2.11c0,.27.21.49.47.49h.21c.25,0,.47-.22.47-.49v-1.53c0-.31.25-.56.54-.56h2.06v-1.1h0v-.02h0Z"/>
                <path class="cls-25" d="M701.96,147.15c.46.38,1.37,1.17,1.73,1.47.08.07.07.18,0,.25l-1.73,1.41c-.1.08-.25,0-.25-.14v-.74s.03-.11.08-.14l.54-.31s.07-.07.08-.11h0c.03-.15-.15-.25-.25-.15l-.18.17c-.1.1-.27.01-.27-.11v-1.45c0-.14.15-.22.25-.14h.01Z"/>
                <path class="cls-25" d="M713.39,177.99h2.69c.59,0,1.05-.49,1.05-1.1h0v-2.11c0-.27-.21-.49-.47-.49h-.21c-.25,0-.47.22-.47.49v1.52c0,.32-.25.57-.56.57h-2.05v1.1h0v.02h.01Z"/>
                <path class="cls-25" d="M714,179.05c-.46-.38-1.37-1.17-1.73-1.47-.08-.07-.07-.18,0-.25l1.73-1.41c.1-.08.25,0,.25.14v.74c0,.07-.03.11-.08.15l-.54.31s-.07.07-.08.1h0c-.03.15.15.25.25.15l.18-.17c.1-.1.27-.01.27.11v1.45c0,.14-.15.22-.25.14h-.01Z"/>
              </g>
              <g>
                <g>
                  <path class="cls-43" d="M648.75,185h29.78c1.27,0,2.3,1.03,2.3,2.3v40.44c0,1.47-1.2,2.66-2.66,2.66h-29.42v-45.42h0v.02Z"/>
                  <path class="cls-35" d="M643.62,185h5.13v45.42h-4.8c-.81,0-1.45-.66-1.45-1.45v-42.84c0-.63.5-1.13,1.13-1.13h-.01Z"/>
                  <g>
                    <path class="cls-29" d="M659.9,215.77h1.98l3.09,9.48h-1.77l-.74-2.57h-3.19l-.74,2.57h-1.7l3.09-9.48h0ZM659.65,221.36h2.41l-.34-1.17c-.31-.99-.57-2.09-.86-3.12h-.05c-.25,1.06-.54,2.13-.85,3.12l-.34,1.17h.02,0Z"/>
                    <path class="cls-29" d="M665.87,223.34c0-1.52,1.27-2.31,4.18-2.63-.03-.75-.34-1.38-1.3-1.38s-1.37.32-1.99.7l-.61-1.12c.78-.49,1.79-.93,2.93-.93,1.77,0,2.65,1.09,2.65,3.08v4.22h-1.37l-.11-.78h-.05c-.64.54-1.37.96-2.2.96-1.25,0-2.09-.85-2.09-2.09h-.03v-.02h-.01ZM670.05,223.34v-1.59c-1.94.25-2.58.75-2.58,1.47s.43.91,1.03.91,1.02-.29,1.55-.78h0v-.02Z"/>
                  </g>
                  <polygon class="cls-32" points="672.96 206.65 672.96 206.65 672.96 193.73 672.96 193.73 672.96 193.57 672.96 193.51 672.96 192.03 672.13 192.03 671.49 192.03 671.47 192.03 666.06 192.03 665.84 192.03 665.6 192.03 664.19 192.03 663.75 192.03 658.11 192.03 658.09 192.03 657.45 192.03 656.62 192.03 656.62 193.1 656.62 193.1 656.62 193.73 656.62 193.73 656.62 199.14 656.62 199.14 656.62 201.23 656.62 201.23 656.62 206.65 656.62 206.65 656.62 207.28 656.62 208.35 657.46 208.35 657.45 208.35 658.09 208.35 658.11 208.35 658.11 208.35 663.75 208.35 664.19 208.35 665.6 208.35 665.84 208.35 666.06 208.35 671.47 208.35 671.49 208.35 671.49 208.35 672.13 208.35 672.13 208.35 672.96 208.35 672.96 206.87 672.96 206.82 672.96 206.65"/>
                  <g>
                    <rect class="cls-37" x="658.72" y="193.93" width="12.5" height="12.5"/>
                    <rect class="cls-42" x="664.18" y="193.93" width="1.6" height="12.5"/>
                    <rect class="cls-42" x="658.72" y="199.39" width="12.5" height="1.6"/>
                    <polygon class="cls-42" points="659.85 206.44 658.72 206.44 658.72 205.31 670.09 193.93 671.22 193.93 671.22 195.08 659.85 206.44"/>
                    <polygon class="cls-42" points="670.09 206.44 671.22 206.44 671.22 205.31 659.85 193.93 658.72 193.93 658.72 195.08 670.09 206.44"/>
                    <rect class="cls-32" x="664.18" y="201.01" width=".34" height="5.42"/>
                    <rect class="cls-32" x="665.59" y="200.77" width=".34" height="5.67"/>
                    <rect class="cls-32" x="664.18" y="193.93" width=".34" height="5.67"/>
                    <rect class="cls-32" x="665.59" y="193.93" width=".34" height="5.67"/>
                    <polygon class="cls-32" points="658.72 205.62 658.72 205.14 662.94 201.03 663.41 201.01 658.72 205.62"/>
                    <polygon class="cls-32" points="659.83 206.44 659.34 206.44 664.24 201.67 664.38 202.01 659.83 206.44"/>
                    <polygon class="cls-32" points="671.22 205.62 671.22 205.14 667 201.03 666.51 201.01 671.22 205.62"/>
                    <polygon class="cls-32" points="670.09 206.44 670.58 206.44 665.7 201.67 665.6 202.05 670.09 206.44"/>
                    <polygon class="cls-32" points="671.22 194.77 671.22 195.25 667 199.37 666.51 199.37 671.22 194.77"/>
                    <polygon class="cls-32" points="670.09 193.93 670.58 193.93 665.7 198.72 665.76 198.19 670.09 193.93"/>
                    <polygon class="cls-32" points="658.72 194.77 658.72 195.25 662.94 199.37 663.41 199.37 658.72 194.77"/>
                    <polygon class="cls-32" points="659.83 193.93 659.34 193.93 664.24 198.72 664.31 198.33 659.83 193.93"/>
                    <rect class="cls-32" x="658.8" y="199.3" width="5.7" height=".34"/>
                    <rect class="cls-32" x="665.63" y="199.3" width="5.59" height=".34"/>
                    <rect class="cls-32" x="658.8" y="200.77" width="5.7" height=".34"/>
                    <rect class="cls-32" x="665.63" y="200.77" width="5.59" height=".34"/>
                  </g>
                </g>
                <line class="cls-1" x1="650.74" y1="186.92" x2="650.74" y2="229.68"/>
              </g>
              <path class="cls-2" d="M688.23,184.76h9.24s3.4.11,4.39,3.43"/>
              <line class="cls-2" x1="693.37" y1="194.91" x2="701.25" y2="194.91"/>
              <line class="cls-2" x1="672.96" y1="192.03" x2="672.96" y2="207.7"/>
            </g>
          </g>
        </g>
      </g>
      <g id="g-root-tx__v7cfjghjfr4b-fill">
        <g id="tx__v7cfjghjfr4b-fill">
          <g class="cls-31">
            <g class="cls-31">
              <path class="cls-47" d="M651.86,237.6l1.88.34c-.27,1.27-.6,2.5-.99,3.7-.39,1.2-.84,2.31-1.35,3.33-.51,1.02-1.06,1.92-1.66,2.69-.11-.12-.26-.26-.46-.41-.2-.15-.4-.3-.61-.45-.21-.15-.38-.26-.53-.34.6-.69,1.14-1.51,1.61-2.44.47-.93.89-1.95,1.24-3.04.35-1.09.64-2.22.87-3.38ZM656.14,240.62h.36l.36-.08,1.36.4c-.33,2.67-.88,4.99-1.65,6.98-.77,1.99-1.72,3.65-2.85,5-1.13,1.35-2.43,2.42-3.9,3.22-.09-.16-.24-.34-.43-.55-.19-.21-.39-.41-.6-.6-.21-.19-.39-.34-.55-.43,1.43-.71,2.68-1.66,3.77-2.86,1.09-1.2,1.98-2.67,2.67-4.42.69-1.75,1.18-3.81,1.46-6.2v-.46ZM650.06,245.18l1.26-1.16c.48.4.98.84,1.51,1.33.53.49,1.03.97,1.5,1.46.47.49.86.92,1.15,1.29l-1.34,1.34c-.28-.39-.65-.83-1.11-1.32-.46-.49-.95-1-1.47-1.52-.52-.52-1.02-.99-1.5-1.42ZM651.9,240.62h4.9v1.78h-4.9v-1.78ZM659.52,237.62h2v18.56h-2v-18.56ZM660.74,244.78l1.46-1.12c.52.45,1.08.95,1.69,1.5.61.55,1.18,1.09,1.72,1.62s.98,1.01,1.33,1.44l-1.6,1.3c-.32-.43-.74-.92-1.26-1.48s-1.07-1.13-1.66-1.7c-.59-.57-1.15-1.09-1.68-1.56Z"/>
              <path class="cls-47" d="M668.28,240.98h7.52v1.52h-7.52v-1.52ZM669.1,249.06h1.62v6.86h-1.62v-6.86ZM669.12,243.68h6v1.48h-6v-1.48ZM669.12,246.36h6v1.46h-6v-1.46ZM669.92,249.06h5.32v5.96h-5.32v-1.56h3.66v-2.86h-3.66v-1.54ZM670.5,238.26l1.46-.74c.29.41.58.86.87,1.35.29.49.5.92.65,1.29l-1.54.84c-.13-.36-.34-.8-.62-1.33-.28-.53-.55-1-.82-1.41ZM675.54,246.02h11.26v1.58h-11.26v-1.58ZM676.06,238.42h10.28v1.58h-10.28v-1.58ZM676.54,241.8h8.46v4.9h-1.76v-3.34h-6.7v-1.56ZM676.62,248.82h9v7.3h-1.82v-5.66h-5.42v5.74h-1.76v-7.38ZM677.5,253.74h7.26v1.64h-7.26v-1.64ZM679.34,239.06l1.84.16c-.12.8-.26,1.66-.43,2.57-.17.91-.33,1.8-.49,2.65-.16.85-.31,1.59-.46,2.22h-1.86c.12-.49.24-1.05.37-1.67.13-.62.25-1.27.38-1.96.13-.69.25-1.37.36-2.05.11-.68.21-1.32.29-1.92Z"/>
              <path class="cls-47" d="M688.5,250.82h18v1.54h-18v-1.54ZM688.9,244.8h17.28v3.86h-1.88v-2.46h-13.6v2.46h-1.8v-3.86ZM694.04,237.76l.8,1.12c-.6.24-1.28.44-2.05.6-.77.16-1.45.29-2.05.38l-.66-1.06c.39-.08.82-.18,1.31-.29.49-.11.96-.24,1.43-.38s.87-.26,1.22-.37ZM690.08,238.8l1.8.46.38,6.2h-1.78l-.4-6.66ZM691.02,240.48h3.7v1.24h-3.7v-1.24ZM691.1,242.64h3.68v1.22h-3.68v-1.22ZM692.3,247.34h9.16v1.38h-9.16v-1.38ZM696.78,250.08h1.86v4.22c0,.45-.06.8-.19,1.04-.13.24-.37.43-.73.56-.36.12-.81.19-1.35.21-.54.02-1.2.03-1.99.03-.04-.24-.12-.51-.24-.8-.12-.29-.25-.56-.38-.8.39.01.76.02,1.11.03.35,0,.67,0,.94,0h.55c.16,0,.27-.02.33-.07.06-.05.09-.14.09-.27v-4.16ZM698.42,241.14l1.26.4c-.48.65-1.08,1.27-1.8,1.85-.72.58-1.45,1.06-2.18,1.45-.09-.13-.25-.3-.46-.5-.21-.2-.39-.36-.52-.48.71-.32,1.4-.72,2.07-1.19.67-.47,1.22-.98,1.63-1.53ZM698.38,237.78l1.26.36c-.44.61-1.01,1.19-1.7,1.74s-1.37,1-2.04,1.36c-.11-.12-.27-.27-.48-.45s-.4-.32-.56-.43c.69-.32,1.36-.7,1.99-1.15.63-.45,1.14-.92,1.53-1.43ZM695.18,242.14l.9-.78c.45.21.92.46,1.4.74.48.28.94.57,1.37.86.43.29.79.57,1.07.84l-.98.88c-.25-.27-.59-.55-1.01-.85-.42-.3-.87-.6-1.35-.9-.48-.3-.95-.56-1.4-.79ZM695.26,238.76l.9-.78c.43.19.87.41,1.33.67.46.26.9.53,1.31.8s.75.52,1.02.75l-.94.88c-.25-.24-.58-.5-.98-.78s-.83-.56-1.29-.83c-.46-.27-.91-.51-1.35-.71ZM700.98,247.34h.46l.4-.1,1.08.98c-.48.36-1.01.71-1.6,1.06s-1.19.67-1.81.98c-.62.31-1.24.58-1.85.82-.11-.16-.25-.34-.43-.53s-.33-.35-.45-.47c.51-.19,1.03-.42,1.56-.7s1.03-.57,1.5-.87.85-.58,1.14-.83v-.34ZM700.24,238.32h3.78v1.24h-3.78v-1.24ZM700.26,242.64h3.46v1.22h-3.46v-1.22ZM700.36,240.48h3.5v1.24h-3.5v-1.24ZM703.28,238.32h1.8c-.04.79-.09,1.62-.14,2.5s-.11,1.73-.18,2.56c-.07.83-.13,1.54-.2,2.14h-1.82c.08-.63.16-1.35.23-2.18.07-.83.14-1.68.19-2.56.05-.88.09-1.7.12-2.46Z"/>
              <path class="cls-47" d="M709.24,238.5h1.86v17.68h-1.86v-17.68ZM710.14,241.5h5.32v1.38h-5.32v-1.38ZM710.3,238.5h6.32v7.52h-6.32v-1.54h4.54v-4.42h-4.54v-1.56ZM724.98,238.5v1.56h-4.9v4.44h4.9v1.56h-6.7v-7.56h6.7ZM719.36,241.5h5.4v1.38h-5.4v-1.38ZM723.98,238.5h1.9v15.26c0,.59-.07,1.04-.22,1.35-.15.31-.41.55-.8.71s-.9.26-1.54.29c-.64.03-1.43.05-2.36.05-.03-.17-.08-.38-.15-.61-.07-.23-.16-.47-.25-.72-.09-.25-.19-.45-.28-.61.44.01.88.02,1.31.03s.82,0,1.15,0h.7c.2-.01.34-.06.42-.13s.12-.2.12-.39v-15.24Z"/>
            </g>
          </g>
        </g>
      </g>
    </g>
  </g>
  <g id="b11">
    <g id="g-root-ro_1d0i1n61cwcv0n-fill">
      <g id="ro_1d0i1n61cwcv0n-fill">
        <path class="cls-20" d="M379.38,48h166.25s11.88,0,11.88,12v30s0,12-11.88,12h-166.25s-11.88,0-11.88-12v-30s0-12,11.88-12"/>
      </g>
    </g>
    <g id="g-root-tx__hx51oy1cwctmt-fill">
      <g id="tx__hx51oy1cwctmt-fill">
        <g class="cls-31">
          <g class="cls-31">
            <path class="cls-29" d="M385.86,66.1l1.88.34c-.27,1.27-.6,2.5-.99,3.7-.39,1.2-.84,2.31-1.35,3.33-.51,1.02-1.06,1.92-1.66,2.69-.11-.12-.26-.26-.46-.41-.2-.15-.4-.3-.61-.45-.21-.15-.38-.26-.53-.34.6-.69,1.14-1.51,1.61-2.44.47-.93.89-1.95,1.24-3.04.35-1.09.64-2.22.87-3.38ZM390.14,69.12h.36l.36-.08,1.36.4c-.33,2.67-.88,4.99-1.65,6.98-.77,1.99-1.72,3.65-2.85,5-1.13,1.35-2.43,2.42-3.9,3.22-.09-.16-.24-.34-.43-.55-.19-.21-.39-.41-.6-.6-.21-.19-.39-.34-.55-.43,1.43-.71,2.68-1.66,3.77-2.86,1.09-1.2,1.98-2.67,2.67-4.42.69-1.75,1.18-3.81,1.46-6.2v-.46ZM384.06,73.68l1.26-1.16c.48.4.98.84,1.51,1.33.53.49,1.03.97,1.5,1.46.47.49.86.92,1.15,1.29l-1.34,1.34c-.28-.39-.65-.83-1.11-1.32-.46-.49-.95-1-1.47-1.52-.52-.52-1.02-.99-1.5-1.42ZM385.9,69.12h4.9v1.78h-4.9v-1.78ZM393.52,66.12h2v18.56h-2v-18.56ZM394.74,73.28l1.46-1.12c.52.45,1.08.95,1.69,1.5.61.55,1.18,1.09,1.72,1.62s.98,1.01,1.33,1.44l-1.6,1.3c-.32-.43-.74-.92-1.26-1.48s-1.07-1.13-1.66-1.7c-.59-.57-1.15-1.09-1.68-1.56Z"/>
            <path class="cls-29" d="M403.04,67.02h16.92v17.72h-1.88v-16.02h-13.24v16.02h-1.8v-17.72ZM404.18,82.14h14.92v1.72h-14.92v-1.72ZM405.56,79.02c.76-.11,1.66-.24,2.69-.39s2.1-.32,3.19-.51l.04,1.3c-1,.17-2,.35-2.99.53-.99.18-1.9.34-2.71.49l-.22-1.42ZM405.78,71.08h11.46v1.38h-11.46v-1.38ZM406.4,73.56h4.48v3.84h-4.48v-3.84ZM407.68,74.62v1.72h1.86v-1.72h-1.86ZM415.1,73.22l1.48.3c-.49,1.84-1.22,3.44-2.19,4.81-.97,1.37-2.12,2.49-3.47,3.37-.07-.11-.17-.23-.3-.38-.13-.15-.27-.29-.4-.44-.13-.15-.26-.26-.38-.34,1.32-.76,2.42-1.76,3.3-3,.88-1.24,1.53-2.68,1.96-4.32ZM411.46,69.14h1.58c.05,1.33.14,2.62.27,3.87.13,1.25.3,2.37.52,3.36.22.99.49,1.8.8,2.41s.68.96,1.09,1.04c.13.04.24-.13.33-.5s.16-.87.21-1.5c.11.11.23.22.38.34.15.12.3.23.45.32.15.09.28.17.39.24-.15,1.15-.42,1.93-.83,2.35s-.9.51-1.49.27c-.67-.17-1.22-.62-1.66-1.35s-.79-1.65-1.06-2.77-.48-2.37-.63-3.76c-.15-1.39-.27-2.83-.35-4.32ZM413.98,69.7l.86-.88c.36.17.74.38,1.14.63s.71.48.92.69l-.9.96c-.21-.23-.51-.47-.9-.74-.39-.27-.76-.49-1.12-.66Z"/>
            <path class="cls-29" d="M422.28,69.48h7.52v1.52h-7.52v-1.52ZM423.1,77.56h1.62v6.86h-1.62v-6.86ZM423.12,72.18h6v1.48h-6v-1.48ZM423.12,74.86h6v1.46h-6v-1.46ZM423.92,77.56h5.32v5.96h-5.32v-1.56h3.66v-2.86h-3.66v-1.54ZM424.5,66.76l1.46-.74c.29.41.58.86.87,1.35.29.49.5.92.65,1.29l-1.54.84c-.13-.36-.34-.8-.62-1.33-.28-.53-.55-1-.82-1.41ZM429.54,74.52h11.26v1.58h-11.26v-1.58ZM430.06,66.92h10.28v1.58h-10.28v-1.58ZM430.54,70.3h8.46v4.9h-1.76v-3.34h-6.7v-1.56ZM430.62,77.32h9v7.3h-1.82v-5.66h-5.42v5.74h-1.76v-7.38ZM431.5,82.24h7.26v1.64h-7.26v-1.64ZM433.34,67.56l1.84.16c-.12.8-.26,1.66-.43,2.57-.17.91-.33,1.8-.49,2.65-.16.85-.31,1.59-.46,2.22h-1.86c.12-.49.24-1.05.37-1.67.13-.62.25-1.27.38-1.96.13-.69.25-1.37.36-2.05.11-.68.21-1.32.29-1.92Z"/>
            <path class="cls-29" d="M455.7,70.44l1.96.54c-.83,2.44-1.9,4.54-3.21,6.3-1.31,1.76-2.89,3.24-4.73,4.43-1.84,1.19-3.98,2.17-6.42,2.93-.08-.15-.19-.33-.32-.56s-.28-.45-.43-.67-.3-.4-.43-.55c2.39-.64,4.46-1.5,6.22-2.58,1.76-1.08,3.25-2.43,4.46-4.04s2.18-3.55,2.9-5.8ZM442.46,69.58h18.18v1.84h-18.18v-1.84ZM447.2,70.56c.73,2.01,1.73,3.84,2.99,5.47,1.26,1.63,2.79,3.02,4.58,4.17,1.79,1.15,3.85,2.01,6.17,2.58-.13.13-.28.31-.45.52-.17.21-.32.43-.47.64-.15.21-.27.41-.36.6-2.41-.67-4.53-1.62-6.35-2.86-1.82-1.24-3.37-2.75-4.66-4.53-1.29-1.78-2.35-3.8-3.19-6.05l1.74-.54ZM449.86,66.54l2-.6c.29.48.58,1.01.87,1.58.29.57.49,1.07.61,1.5l-2.1.66c-.11-.41-.29-.92-.56-1.51-.27-.59-.54-1.14-.82-1.63Z"/>
            <path class="cls-29" d="M462.5,79.32h18v1.54h-18v-1.54ZM462.9,73.3h17.28v3.86h-1.88v-2.46h-13.6v2.46h-1.8v-3.86ZM468.04,66.26l.8,1.12c-.6.24-1.28.44-2.05.6-.77.16-1.45.29-2.05.38l-.66-1.06c.39-.08.82-.18,1.31-.29.49-.11.96-.24,1.43-.38s.87-.26,1.22-.37ZM464.08,67.3l1.8.46.38,6.2h-1.78l-.4-6.66ZM465.02,68.98h3.7v1.24h-3.7v-1.24ZM465.1,71.14h3.68v1.22h-3.68v-1.22ZM466.3,75.84h9.16v1.38h-9.16v-1.38ZM470.78,78.58h1.86v4.22c0,.45-.06.8-.19,1.04-.13.24-.37.43-.73.56-.36.12-.81.19-1.35.21-.54.02-1.2.03-1.99.03-.04-.24-.12-.51-.24-.8-.12-.29-.25-.56-.38-.8.39.01.76.02,1.11.03.35,0,.67,0,.94,0h.55c.16,0,.27-.02.33-.07.06-.05.09-.14.09-.27v-4.16ZM472.42,69.64l1.26.4c-.48.65-1.08,1.27-1.8,1.85-.72.58-1.45,1.06-2.18,1.45-.09-.13-.25-.3-.46-.5-.21-.2-.39-.36-.52-.48.71-.32,1.4-.72,2.07-1.19.67-.47,1.22-.98,1.63-1.53ZM472.38,66.28l1.26.36c-.44.61-1.01,1.19-1.7,1.74s-1.37,1-2.04,1.36c-.11-.12-.27-.27-.48-.45s-.4-.32-.56-.43c.69-.32,1.36-.7,1.99-1.15.63-.45,1.14-.92,1.53-1.43ZM469.18,70.64l.9-.78c.45.21.92.46,1.4.74.48.28.94.57,1.37.86.43.29.79.57,1.07.84l-.98.88c-.25-.27-.59-.55-1.01-.85-.42-.3-.87-.6-1.35-.9-.48-.3-.95-.56-1.4-.79ZM469.26,67.26l.9-.78c.43.19.87.41,1.33.67.46.26.9.53,1.31.8s.75.52,1.02.75l-.94.88c-.25-.24-.58-.5-.98-.78s-.83-.56-1.29-.83c-.46-.27-.91-.51-1.35-.71ZM474.98,75.84h.46l.4-.1,1.08.98c-.48.36-1.01.71-1.6,1.06s-1.19.67-1.81.98c-.62.31-1.24.58-1.85.82-.11-.16-.25-.34-.43-.53s-.33-.35-.45-.47c.51-.19,1.03-.42,1.56-.7s1.03-.57,1.5-.87.85-.58,1.14-.83v-.34ZM474.24,66.82h3.78v1.24h-3.78v-1.24ZM474.26,71.14h3.46v1.22h-3.46v-1.22ZM474.36,68.98h3.5v1.24h-3.5v-1.24ZM477.28,66.82h1.8c-.04.79-.09,1.62-.14,2.5s-.11,1.73-.18,2.56c-.07.83-.13,1.54-.2,2.14h-1.82c.08-.63.16-1.35.23-2.18.07-.83.14-1.68.19-2.56.05-.88.09-1.7.12-2.46Z"/>
            <path class="cls-29" d="M484.5,72.52l1.16.4c-.25.67-.61,1.33-1.07,1.99s-.94,1.18-1.45,1.57c-.13-.2-.31-.42-.52-.66-.21-.24-.41-.43-.6-.56.32-.19.64-.43.95-.73.31-.3.6-.63.87-.98.27-.35.49-.7.66-1.03ZM485.88,76.08h1.64v2.06c0,.55-.05,1.11-.15,1.69s-.3,1.15-.6,1.71-.75,1.1-1.34,1.61c-.59.51-1.38.98-2.37,1.41-.07-.13-.15-.29-.26-.46-.11-.17-.23-.34-.36-.51s-.25-.3-.36-.41c.87-.35,1.55-.73,2.05-1.14s.88-.84,1.13-1.29c.25-.45.42-.9.5-1.35.08-.45.12-.89.12-1.3v-2.02ZM482.42,70.46h8.66v1.54h-8.66v-1.54ZM482.42,77.82h8.8v1.58h-8.8v-1.58ZM482.78,67.32l1.32-.48c.24.36.47.76.7,1.21.23.45.37.84.44,1.17l-1.38.56c-.07-.35-.2-.75-.4-1.2s-.43-.87-.68-1.26ZM486,66.22h1.66v9.44h-1.66v-9.44ZM486.04,81.1l1-1.16c.41.24.86.52,1.33.83.47.31.93.62,1.37.92.44.3.8.56,1.08.79l-1.04,1.32c-.27-.24-.62-.52-1.05-.84-.43-.32-.88-.64-1.35-.97-.47-.33-.91-.62-1.34-.89ZM488.74,72.58c.12.08.31.21.56.4.25.19.52.39.8.6.28.21.54.42.77.61.23.19.4.34.51.43l-1.04,1.22c-.13-.16-.31-.36-.53-.59-.22-.23-.46-.48-.71-.73-.25-.25-.5-.49-.73-.71-.23-.22-.43-.39-.59-.51l.96-.72ZM488.24,76.46l1.06-.68c.25.23.52.49.79.79.27.3.48.56.63.79l-1.1.76c-.13-.24-.33-.52-.59-.83-.26-.31-.52-.59-.79-.83ZM489.32,66.88l1.56.44c-.24.47-.48.93-.71,1.38s-.46.84-.67,1.16l-1.24-.42c.19-.36.38-.78.58-1.27.2-.49.36-.92.48-1.29ZM493.98,81.06l1.6.96c-.31.35-.67.69-1.09,1.03-.42.34-.86.66-1.32.95s-.92.55-1.37.76c-.15-.17-.34-.38-.57-.62-.23-.24-.45-.44-.65-.6.43-.2.86-.44,1.29-.71.43-.27.84-.57,1.21-.88.37-.31.67-.61.9-.89ZM491.28,67h9.4v1.62h-9.4v-1.62ZM491.98,70.28h8v10.5h-8v-10.5ZM493.7,71.72v1.62h4.48v-1.62h-4.48ZM493.7,74.7v1.62h4.48v-1.62h-4.48ZM493.7,77.68v1.66h4.48v-1.66h-4.48ZM494.88,67.86l2.06.26c-.2.59-.4,1.17-.61,1.75-.21.58-.4,1.08-.57,1.49l-1.6-.3c.09-.31.19-.65.28-1.02s.18-.75.26-1.14c.08-.39.14-.73.18-1.04ZM496.3,82.04l1.36-.94c.39.24.79.51,1.22.82s.83.61,1.22.92c.39.31.71.59.96.84l-1.46,1.02c-.23-.24-.53-.52-.9-.83-.37-.31-.77-.63-1.19-.96-.42-.33-.82-.62-1.21-.87Z"/>
          </g>
        </g>
      </g>
    </g>
    <g id="_圖層_1-2" data-name="_圖層_1">
      <g id="_圖層_1-2-3" data-name="_圖層_1-2">
        <g id="_圖層_1-2-4" data-name="_圖層_1-2">
          <g class="cls-31">
            <g id="_圖層_1-2-2">
              <g>
                <g>
                  <circle class="cls-35" cx="528.27" cy="75.53" r="12.62"/>
                  <path class="cls-43" d="M538.56,68.22c-.56-.09-6.29-.92-7.3,2.1-1.06,3.17-3.72,2.64-2.81,5.92.91,3.28,3.45,5.18,6.61,4.75,3.64-.49-3.33,4.92-.58,5.51,6.08-3.33,8.57-11.67,4.08-18.28h0Z"/>
                  <path class="cls-43" d="M521.39,64.96s5.51-.32,5.74,1.68c.23,2.01-1.17,1.67-2.99,2.83-1.82,1.17-2.63.24-3.67,2-1.04,1.77-4.41.87-4.41.87,0,0,.71-4.37,5.33-7.37h0s0-.01,0-.01h0Z"/>
                  <path class="cls-43" d="M515.91,77.86s4.06-.87,5.54,1.99c1.48,2.85,2.64,1.69,3.59,2.96.27.36.24.82.07,1.31-.67,1.89-2.98,2.61-4.62,1.47-1.67-1.15-3.64-3.39-4.56-7.73h-.02Z"/>
                  <path class="cls-30" d="M539.08,81.89c-3.5,6.02-11.17,8.05-17.19,4.55,13.33-.86,17.11-13.14,12.64-21.8,6.02,3.5,8.06,11.24,4.55,17.26h0s0,0,0,0Z"/>
                </g>
                <path class="cls-27" d="M521.58,69.58l2.01,1.97v-8.53c0-1.15-.95-2.1-2.1-2.1h-7.13c-1.15.03-2.1.95-2.1,2.1v4.45c0,1.15.95,2.1,2.1,2.1h7.22s0,0,0,0Z"/>
                <g>
                  <path class="cls-29" d="M516.7,65.52h-.26c-.93,0-1.7-.78-1.7-1.7s.78-1.7,1.7-1.7h.99c.19,0,.34.15.34.34s-.15.34-.34.34h-.99c-.55,0-1.01.46-1.01,1.01s.46,1.01,1.01,1.01h.26c.19,0,.34.15.34.34s-.15.34-.34.34h0Z"/>
                  <path class="cls-29" d="M517.43,68.24h-.99c-.93,0-1.7-.78-1.7-1.7s.78-1.7,1.7-1.7h.26c.19,0,.34.15.34.34s-.15.34-.34.34h-.26c-.55,0-1.01.46-1.01,1.01s.46,1.01,1.01,1.01h.99c.19,0,.34.15.34.34s-.15.34-.34.34Z"/>
                  <path class="cls-29" d="M520.48,68.24c-.19,0-.34-.15-.34-.34v-1.66c0-.38-.32-.71-.71-.71h-.59v2.37c0,.19-.15.34-.34.34s-.34-.15-.34-.34v-2.72c0-.19.15-.34.34-.34h.93c.77,0,1.4.63,1.4,1.4v1.66c0,.19-.15.34-.34.34Z"/>
                </g>
                <path class="cls-27" d="M534.96,81.51l-2.02-1.97v8.5c0,1.15.95,2.1,2.1,2.1h7.13c1.15,0,2.1-.95,2.1-2.1v-4.45c0-1.15-.95-2.1-2.1-2.1h-7.22v.03h0s0,0,0,0Z"/>
                <g>
                  <path class="cls-29" d="M536.46,88.21h-1.2c-.19,0-.34-.15-.34-.34v-4.61c0-.19.15-.34.34-.34h1.2c1.46,0,2.65,1.19,2.65,2.65s-1.19,2.65-2.65,2.65ZM535.6,87.52h.86c1.08,0,1.96-.88,1.96-1.96s-.88-1.96-1.96-1.96h-.86v3.92Z"/>
                  <path class="cls-29" d="M541.03,88.13c-.64,0-1.2-.29-1.5-.79-.32-.53-.26-1.16.15-1.65.44-.54,1.23-.62,1.77-.46.48.14.8.46.84.85v.04c0,.33-.14.59-.39.72,0,0-.02,0-.04.02-.19.07-.41.07-1.02.07s-.34-.15-.34-.34.15-.34.34-.34c.36,0,.63,0,.74-.02,0-.01.01-.04.02-.08-.02-.1-.16-.2-.34-.25-.33-.1-.81-.04-1.04.24h0c-.23.27-.26.58-.09.85.17.28.6.56,1.26.41.19-.04.37.07.41.26s-.07.37-.26.41c-.17.04-.33.05-.49.05h0s0,0,0,0Z"/>
                </g>
                <polygon class="cls-26" points="521.58 69.58 523.6 69.58 523.6 71.55 521.58 69.58"/>
                <polygon class="cls-26" points="534.95 81.5 532.94 81.5 532.94 79.55 534.95 81.5"/>
                <path class="cls-33" d="M523.6,69.63h-6.56s-.05-.02-.05-.05.02-.05.05-.05h6.56s.05.02.05.05-.02.05-.05.05Z"/>
                <path class="cls-33" d="M539.4,81.55h-6.46s-.05-.02-.05-.05.02-.05.05-.05h6.46s.05.02.05.05-.02.05-.05.05Z"/>
              </g>
            </g>
          </g>
        </g>
      </g>
    </g>
  </g>
</svg>