<?xml version="1.0" encoding="UTF-8"?>
<svg id="_x38__x5F_社會" xmlns="http://www.w3.org/2000/svg" viewBox="0 0 1130 270">
  <defs>
    <style>
      .cls-1, .cls-2, .cls-3, .cls-4, .cls-5, .cls-6, .cls-7, .cls-8, .cls-9, .cls-10, .cls-11, .cls-12 {
        fill-rule: evenodd;
      }

      .cls-1, .cls-13 {
        fill: #29ba8c;
      }

      .cls-2, .cls-14 {
        fill: #7d5638;
      }

      .cls-15 {
        fill: #7db3a2;
      }

      .cls-16 {
        stroke: #1f1406;
        stroke-width: 2.2px;
      }

      .cls-16, .cls-17, .cls-18, .cls-19, .cls-20, .cls-21, .cls-22, .cls-23, .cls-24, .cls-25, .cls-26 {
        stroke-linejoin: round;
      }

      .cls-16, .cls-17, .cls-18, .cls-19, .cls-20, .cls-21, .cls-22, .cls-24, .cls-25, .cls-26 {
        stroke-linecap: round;
      }

      .cls-16, .cls-17, .cls-19, .cls-27, .cls-20, .cls-21, .cls-22, .cls-23, .cls-24, .cls-25, .cls-26 {
        fill: none;
      }

      .cls-28 {
        fill: #7d7469;
      }

      .cls-3, .cls-29 {
        fill: #24a37b;
      }

      .cls-30 {
        fill: #55cfa7;
      }

      .cls-31, .cls-4 {
        fill: #fff;
      }

      .cls-32 {
        fill: #b0d6c9;
      }

      .cls-33 {
        fill: #edb07e;
      }

      .cls-5, .cls-34 {
        fill: #ffac66;
      }

      .cls-17, .cls-27 {
        stroke-width: 1.8px;
      }

      .cls-17, .cls-20 {
        stroke: #1f8c6a;
      }

      .cls-35 {
        fill: #ede0d5;
      }

      .cls-18 {
        fill: #fcf0f0;
        stroke: #fd6a65;
      }

      .cls-18, .cls-19, .cls-23, .cls-25, .cls-26 {
        stroke-width: 2px;
      }

      .cls-36 {
        isolation: isolate;
      }

      .cls-6 {
        fill: #a12a2a;
      }

      .cls-19 {
        stroke: #36261b;
      }

      .cls-27 {
        stroke: #e69b5c;
        stroke-miterlimit: 10;
      }

      .cls-37 {
        fill: #faf3ed;
      }

      .cls-38 {
        fill: #d1c1b8;
      }

      .cls-39 {
        fill: #dbcfc5;
      }

      .cls-40 {
        fill: #1f1406;
      }

      .cls-41 {
        fill: #6e6964;
      }

      .cls-21 {
        stroke: #c9c1b8;
      }

      .cls-42 {
        fill: #1f8c6a;
      }

      .cls-22 {
        stroke: #301b0f;
        stroke-width: 1.2px;
      }

      .cls-7 {
        fill: #4e88e7;
      }

      .cls-43, .cls-11 {
        fill: #30230f;
      }

      .cls-44, .cls-10 {
        fill: #36261b;
      }

      .cls-8, .cls-45 {
        fill: #db7e5a;
      }

      .cls-46 {
        fill: #e69b5c;
      }

      .cls-47 {
        fill: #e0d6cd;
      }

      .cls-23, .cls-26 {
        stroke: #484848;
      }

      .cls-9 {
        fill: #ba5de5;
      }

      .cls-48 {
        fill: #484848;
      }

      .cls-49, .cls-12 {
        fill: #f5f5f5;
      }

      .cls-24 {
        stroke: #855b46;
        stroke-width: .7px;
      }

      .cls-25 {
        stroke: #bd8163;
      }

      .cls-50 {
        fill: #99938b;
      }

      .cls-51 {
        fill: #bd8163;
      }

      .cls-52 {
        fill: #fd6a65;
      }

      .cls-26 {
        stroke-dasharray: 5 7;
      }

      .cls-53 {
        fill: #9c7f6c;
      }
    </style>
  </defs>
  <g>
    <g id="g-root-cu_mdladbht6x3f-stroke">
      <g id="cu_mdladbht6x3f-stroke">
        <path class="cls-26" d="M353,104v24h-18"/>
      </g>
    </g>
    <g id="g-root-cu_hye9bzht6upy-stroke">
      <g id="cu_hye9bzht6upy-stroke">
        <path class="cls-26" d="M353,104v60h-18"/>
      </g>
    </g>
    <g id="g-root-cu_hye9bzht6uq0-stroke">
      <g id="cu_hye9bzht6uq0-stroke">
        <path class="cls-26" d="M353,104v84c0,6.63-5.37,12-12,12h-6"/>
      </g>
    </g>
  </g>
  <g id="g-root-cu_dikr7jht6via-stroke">
    <g id="cu_dikr7jht6via-stroke">
      <path class="cls-26" d="M660,122v12c0,6.63,5.37,12,12,12h6"/>
    </g>
  </g>
  <g id="g-root-cu_v98am7ht6wao-stroke">
    <g id="cu_v98am7ht6wao-stroke">
      <path class="cls-23" d="M582,122h3.1c3.96-.02,8.25-1.3,12.4-3.7,2.49-1.4,5.56-4.93,8.5-9.8,2.94-4.87,6.01-8.4,8.5-9.8,4.15-2.4,8.44-3.68,12.4-3.7h3.1"/>
    </g>
  </g>
  <g id="g-root-cu_zp1sqnht6vid-stroke">
    <g id="cu_zp1sqnht6vid-stroke">
      <path class="cls-23" d="M431,122h-3.1c-11.54,0-20.9-9.36-20.9-20.9v-3.2c0-11.54-9.36-20.9-20.9-20.9h-3.1"/>
    </g>
  </g>
  <g id="c82">
    <g id="tx__htegn3ht5h51-fill">
      <g class="cls-36">
        <g class="cls-36">
          <path class="cls-48" d="M686.72,148.84c.53-.2,1.14-.44,1.83-.72s1.42-.58,2.19-.91c.77-.33,1.55-.65,2.34-.97l.28,1.2c-1.07.48-2.13.96-3.2,1.45-1.07.49-2.04.92-2.92,1.29l-.52-1.34ZM687.08,140.08h5.94v1.28h-5.94v-1.28ZM689.54,135.46h1.26v12.92h-1.26v-12.92ZM692.42,143.52l10.84-4.58.5,1.16-10.84,4.6-.5-1.18ZM694.6,137.08h1.3v13.48c0,.35.04.62.12.81s.23.33.46.4c.23.07.57.11,1.02.11h5c.4,0,.7-.08.9-.24.2-.16.34-.45.43-.87.09-.42.15-1.02.19-1.79.16.12.36.23.59.32.23.09.44.15.63.18-.07.92-.18,1.64-.34,2.17-.16.53-.42.9-.79,1.12-.37.22-.9.33-1.59.33h-5.04c-.73,0-1.31-.07-1.73-.22s-.72-.41-.89-.78-.26-.9-.26-1.58v-13.44ZM698.78,135.22h1.26v13.92h-1.26v-13.92ZM702.9,139.42h-.22l.58-.48,1.02.34-.06.26c-.07.95-.15,1.96-.26,3.03-.11,1.07-.23,2.11-.36,3.12-.13,1.01-.29,1.89-.48,2.65l-1.1-.32c.11-.53.21-1.15.3-1.85s.18-1.44.25-2.21.14-1.55.19-2.33.1-1.52.14-2.21Z"/>
          <path class="cls-48" d="M706.74,150.08c.53-.16,1.14-.34,1.82-.55s1.4-.44,2.17-.69c.77-.25,1.53-.51,2.29-.76l.24,1.28c-1.08.36-2.16.73-3.24,1.1s-2.06.71-2.94,1l-.34-1.38ZM706.96,136.62h6.16v1.26h-6.16v-1.26ZM707.16,142.42h5.68v1.26h-5.68v-1.26ZM709.48,137.12h1.3v12.42l-1.3.26v-12.68ZM712.32,151.66h12.98v1.24h-12.98v-1.24ZM713.88,147.54h10.76v1.22h-10.76v-1.22ZM714.14,136.18h10.2v8.88h-10.2v-8.88ZM715.38,137.36v2.68h7.68v-2.68h-7.68ZM715.38,141.16v2.74h7.68v-2.74h-7.68ZM718.62,136.76h1.18v7.72h.1v7.74h-1.36v-7.74h.08v-7.72Z"/>
          <path class="cls-48" d="M727.1,148.44h17.86v1.16h-17.86v-1.16ZM727.54,142.4h17v3.56h-1.34v-2.52h-14.38v2.52h-1.28v-3.56ZM732.62,135.42l.62.84c-.57.23-1.23.41-1.97.56-.74.15-1.41.26-2.01.34l-.5-.78c.39-.07.82-.16,1.29-.27s.94-.23,1.4-.36.85-.24,1.17-.33ZM728.76,136.38l1.3.36.4,6.22h-1.26l-.44-6.58ZM729.5,138.12h3.62v.96h-3.62v-.96ZM729.6,140.24h3.62v.96h-3.62v-.96ZM730.78,144.9h9.58v1.04h-9.58v-1.04ZM735.54,147.52h1.3v4.56c0,.36-.05.63-.15.82-.1.19-.3.33-.61.44-.29.09-.7.14-1.22.15-.52,0-1.19,0-2,0-.03-.16-.09-.35-.18-.56-.09-.21-.19-.4-.28-.56.44.01.84.02,1.21.03s.69,0,.96,0,.46,0,.55,0c.16-.01.27-.04.33-.09.06-.05.09-.14.09-.27v-4.52ZM737.06,138.8l.98.3c-.48.63-1.08,1.23-1.8,1.81-.72.58-1.44,1.06-2.16,1.45-.08-.09-.2-.22-.36-.37-.16-.15-.29-.28-.4-.37.71-.33,1.4-.75,2.09-1.24.69-.49,1.24-1.02,1.65-1.58ZM737,135.42l.98.28c-.45.61-1.02,1.2-1.71,1.75-.69.55-1.37,1.02-2.05,1.39-.08-.09-.2-.21-.36-.36-.16-.15-.3-.25-.42-.32.68-.35,1.35-.76,2-1.23.65-.47,1.17-.98,1.56-1.51ZM733.74,139.66l.7-.6c.45.21.93.46,1.42.74s.96.57,1.4.87c.44.3.79.58,1.06.85l-.72.7c-.27-.28-.61-.57-1.04-.87-.43-.3-.88-.6-1.37-.9s-.97-.56-1.45-.79ZM733.8,136.32l.68-.62c.45.19.92.41,1.39.68.47.27.93.53,1.36.8.43.27.78.53,1.05.78l-.7.68c-.27-.24-.61-.5-1.03-.79-.42-.29-.87-.56-1.35-.83-.48-.27-.95-.5-1.4-.7ZM740.04,144.9h.32l.28-.06.8.68c-.45.36-.97.71-1.56,1.04-.59.33-1.2.64-1.83.93s-1.25.54-1.85.75c-.07-.12-.17-.25-.31-.39-.14-.14-.26-.25-.35-.33.53-.19,1.08-.41,1.65-.68.57-.27,1.1-.55,1.61-.84s.92-.57,1.24-.84v-.26ZM738.78,140.24h3.58v.96h-3.58v-.96ZM738.8,136h3.86v.96h-3.86v-.96ZM738.9,138.12h3.62v.96h-3.62v-.96ZM742.12,136h1.28c-.04.76-.09,1.57-.14,2.42s-.11,1.68-.18,2.49c-.07.81-.13,1.5-.2,2.09h-1.3c.09-.6.17-1.31.24-2.12s.13-1.65.18-2.5c.05-.85.09-1.65.12-2.38Z"/>
          <path class="cls-48" d="M751.88,147.98l1.34.48c-.39.52-.83,1.05-1.34,1.58s-1.03,1.03-1.57,1.49-1.07.87-1.59,1.23c-.08-.08-.19-.18-.34-.29-.15-.11-.29-.22-.44-.33-.15-.11-.27-.19-.38-.26.8-.49,1.59-1.09,2.37-1.78.78-.69,1.43-1.4,1.95-2.12ZM760.28,135.26l.98,1.06c-.81.37-1.74.73-2.77,1.07-1.03.34-2.13.66-3.28.96-1.15.3-2.33.58-3.52.84-1.19.26-2.36.5-3.51.71-.03-.17-.08-.37-.17-.58-.09-.21-.16-.39-.23-.54,1.12-.21,2.27-.45,3.44-.72,1.17-.27,2.32-.55,3.43-.85s2.15-.61,3.12-.94c.97-.33,1.8-.66,2.51-1.01ZM748.56,147.66c-.01-.11-.04-.24-.09-.4-.05-.16-.1-.32-.16-.49-.06-.17-.11-.31-.15-.43.31-.03.69-.12,1.14-.29.45-.17.99-.39,1.6-.67.33-.15.83-.38,1.49-.71.66-.33,1.41-.72,2.26-1.19s1.73-.98,2.64-1.55c.91-.57,1.78-1.16,2.61-1.79l1.04.88c-1.87,1.31-3.76,2.46-5.69,3.45-1.93.99-3.82,1.85-5.69,2.57v.04c-.2.07-.37.13-.5.18-.13.05-.25.12-.35.19s-.15.14-.15.21ZM748.56,147.66l-.04-1.04.98-.5,13.14-.9c-.03.19-.04.4-.04.63v.55c-2.03.15-3.77.27-5.23.38s-2.69.2-3.68.27-1.8.14-2.42.2-1.1.11-1.45.15-.61.08-.8.12c-.19.04-.34.09-.46.14ZM749.68,143.48c-.01-.09-.04-.22-.09-.38-.05-.16-.1-.32-.15-.49s-.1-.31-.14-.43c.21-.03.45-.09.72-.19.27-.1.56-.24.88-.41.23-.12.6-.34,1.13-.66s1.11-.7,1.75-1.15c.64-.45,1.25-.92,1.82-1.41l1.18.76c-.99.76-2.01,1.46-3.06,2.09-1.05.63-2.09,1.17-3.1,1.61v.04c-.19.08-.34.15-.47.21-.13.06-.24.13-.33.2-.09.07-.14.14-.14.21ZM749.68,143.48l-.02-.98.82-.42,7.5-.38c-.04.16-.07.35-.09.57-.02.22-.04.4-.05.53-1.37.08-2.52.15-3.45.21-.93.06-1.68.11-2.26.16s-1.03.09-1.35.12c-.32.03-.56.06-.71.09-.15.03-.28.06-.39.1ZM755.52,146.14h1.36v5.74c0,.39-.05.69-.16.9-.11.21-.31.37-.62.48-.31.11-.71.17-1.22.2s-1.13.04-1.86.04c-.04-.2-.11-.43-.21-.68-.1-.25-.2-.47-.31-.66.41.01.8.03,1.16.04.36.01.67.02.93,0,.26,0,.44-.02.53-.03.17-.01.28-.04.33-.08.05-.04.07-.12.07-.24v-5.72ZM758.82,148.5l1.04-.7c.53.41,1.09.86,1.68,1.34.59.48,1.14.95,1.67,1.42.53.47.96.89,1.29,1.26l-1.12.78c-.32-.36-.74-.78-1.25-1.26-.51-.48-1.06-.97-1.63-1.47s-1.13-.96-1.68-1.37ZM759.36,143.24l1.1-.54c.51.45,1.02.95,1.55,1.48.53.53,1.02,1.05,1.47,1.56.45.51.82.96,1.1,1.36l-1.14.68c-.27-.4-.63-.87-1.08-1.4s-.94-1.07-1.47-1.62c-.53-.55-1.04-1.05-1.53-1.52Z"/>
        </g>
      </g>
    </g>
  </g>
  <g id="c263">
    <g id="tx__v48hxbht5ipw-fill">
      <g class="cls-36">
        <g class="cls-36">
          <path class="cls-48" d="M216.28,189.3h1.48c-.03.57-.06,1.31-.11,2.22-.05.91-.15,1.92-.32,3.03-.17,1.11-.43,2.27-.8,3.46s-.87,2.37-1.5,3.54c-.63,1.17-1.44,2.26-2.43,3.28-.99,1.02-2.19,1.9-3.62,2.65-.12-.16-.28-.34-.48-.53s-.4-.36-.6-.51c1.4-.71,2.58-1.54,3.54-2.51.96-.97,1.74-2.01,2.35-3.12.61-1.11,1.08-2.24,1.41-3.38.33-1.14.58-2.23.73-3.28.15-1.05.25-1.99.28-2.83s.06-1.51.07-2.02ZM217.56,191.78c.04.23.1.66.19,1.3.09.64.24,1.41.45,2.31.21.9.52,1.86.91,2.88.39,1.02.9,2.03,1.53,3.04.63,1.01,1.4,1.94,2.33,2.81.93.87,2.02,1.59,3.29,2.16-.19.15-.37.33-.55.54-.18.21-.32.41-.43.6-1.31-.61-2.43-1.38-3.38-2.29s-1.74-1.91-2.38-2.98-1.16-2.15-1.57-3.23c-.41-1.08-.72-2.1-.94-3.06-.22-.96-.38-1.79-.49-2.49-.11-.7-.18-1.18-.22-1.45l1.26-.14Z"/>
          <path class="cls-48" d="M241.62,193.4l1.38.4c-.87,2.41-1.96,4.5-3.27,6.26-1.31,1.76-2.89,3.24-4.73,4.45-1.84,1.21-3.97,2.21-6.4,3.01-.04-.11-.11-.24-.21-.4s-.21-.32-.32-.48c-.11-.16-.22-.29-.31-.38,2.39-.71,4.47-1.63,6.26-2.76,1.79-1.13,3.31-2.53,4.56-4.19,1.25-1.66,2.27-3.63,3.04-5.91ZM228.02,192.8h18.04v1.3h-18.04v-1.3ZM232.28,193.46c.77,2.08,1.81,3.97,3.11,5.68,1.3,1.71,2.86,3.16,4.69,4.36,1.83,1.2,3.9,2.1,6.22,2.7-.09.09-.2.21-.32.36-.12.15-.23.3-.34.45-.11.15-.19.3-.26.43-2.39-.67-4.5-1.63-6.33-2.9-1.83-1.27-3.41-2.8-4.74-4.6-1.33-1.8-2.42-3.83-3.27-6.08l1.24-.4ZM235.5,189.54l1.38-.42c.32.47.63.99.94,1.58s.53,1.09.68,1.5l-1.46.48c-.13-.41-.35-.92-.64-1.51-.29-.59-.59-1.14-.9-1.63Z"/>
          <path class="cls-48" d="M253.94,192.68h.28l.24-.04.74.5c-.47,1.16-1.08,2.27-1.84,3.34-.76,1.07-1.59,2.04-2.48,2.92-.89.88-1.79,1.62-2.68,2.22-.03-.13-.08-.28-.16-.45-.08-.17-.16-.33-.24-.48-.08-.15-.15-.27-.22-.35.84-.52,1.68-1.17,2.51-1.95.83-.78,1.59-1.64,2.27-2.57.68-.93,1.21-1.88,1.58-2.84v-.3ZM248.1,192.68h6.26v1.24h-6.26v-1.24ZM250.24,189.82l1.02-.6c.39.4.77.84,1.14,1.33.37.49.65.91.84,1.27l-1.08.7c-.19-.39-.46-.83-.82-1.34-.36-.51-.73-.96-1.1-1.36ZM251.08,198.42l1.3-1.56v10.7h-1.3v-9.14ZM252.34,197.16c.15.12.36.32.65.61.29.29.6.6.93.93.33.33.64.64.92.92.28.28.48.49.6.64l-.84,1.1c-.16-.21-.37-.48-.64-.8-.27-.32-.55-.65-.86-1-.31-.35-.6-.67-.88-.98-.28-.31-.51-.55-.68-.72l.8-.7ZM254.64,205.44h11.54v1.32h-11.54v-1.32ZM255.6,195.56h10.14v1.28h-10.14v-1.28ZM260.04,189.14h1.36v16.96h-1.36v-16.96Z"/>
          <path class="cls-48" d="M276.9,189.16l1.18.46c-.68.91-1.53,1.73-2.55,2.46s-2.13,1.38-3.32,1.94c-1.19.56-2.4,1.04-3.63,1.44-.04-.09-.11-.21-.2-.34-.09-.13-.19-.26-.3-.39-.11-.13-.2-.24-.28-.33,1.21-.33,2.4-.75,3.55-1.26,1.15-.51,2.21-1.09,3.17-1.76.96-.67,1.75-1.41,2.38-2.22ZM270.3,194.98h13.4v4.98h-13.4v-4.98ZM271.48,195.92v3.1h11v-3.1h-11ZM271.5,200.98h11.22v6.5h-1.36v-5.52h-8.54v5.58h-1.32v-6.56ZM272.3,203.4h9.64v1h-9.64v-1ZM272.3,205.86h9.66v.98h-9.66v-.98ZM272.78,196.54l.98-.34c.27.35.52.73.75,1.16s.4.81.51,1.14l-1.04.4c-.08-.33-.23-.72-.46-1.16-.23-.44-.47-.84-.74-1.2ZM273.56,192.9h6.96v.98h-6.96v-.98ZM276.38,195.32h1.14v4.18h-1.14v-4.18ZM277.64,189.82c.47.49,1.03.96,1.69,1.41.66.45,1.38.86,2.16,1.25.78.39,1.59.73,2.43,1.04.84.31,1.66.55,2.46.74-.15.12-.3.28-.47.49-.17.21-.3.4-.41.57-.8-.21-1.62-.49-2.45-.84-.83-.35-1.65-.74-2.45-1.19-.8-.45-1.54-.92-2.22-1.43-.68-.51-1.27-1.03-1.78-1.58l1.04-.46ZM280.08,196.12l1.16.4c-.23.43-.46.86-.71,1.29-.25.43-.48.8-.69,1.09l-.94-.34c.2-.35.42-.75.65-1.22s.41-.87.53-1.22Z"/>
          <path class="cls-48" d="M288.1,202.44h17.86v1.16h-17.86v-1.16ZM288.54,196.4h17v3.56h-1.34v-2.52h-14.38v2.52h-1.28v-3.56ZM293.62,189.42l.62.84c-.57.23-1.23.41-1.97.56-.74.15-1.41.26-2.01.34l-.5-.78c.39-.07.82-.16,1.29-.27s.94-.23,1.4-.36.85-.24,1.17-.33ZM289.76,190.38l1.3.36.4,6.22h-1.26l-.44-6.58ZM290.5,192.12h3.62v.96h-3.62v-.96ZM290.6,194.24h3.62v.96h-3.62v-.96ZM291.78,198.9h9.58v1.04h-9.58v-1.04ZM296.54,201.52h1.3v4.56c0,.36-.05.63-.15.82-.1.19-.3.33-.61.44-.29.09-.7.14-1.22.15-.52,0-1.19,0-2,0-.03-.16-.09-.35-.18-.56-.09-.21-.19-.4-.28-.56.44.01.84.02,1.21.03s.69,0,.96,0,.46,0,.55,0c.16-.01.27-.04.33-.09.06-.05.09-.14.09-.27v-4.52ZM298.06,192.8l.98.3c-.48.63-1.08,1.23-1.8,1.81-.72.58-1.44,1.06-2.16,1.45-.08-.09-.2-.22-.36-.37-.16-.15-.29-.28-.4-.37.71-.33,1.4-.75,2.09-1.24.69-.49,1.24-1.02,1.65-1.58ZM298,189.42l.98.28c-.45.61-1.02,1.2-1.71,1.75-.69.55-1.37,1.02-2.05,1.39-.08-.09-.2-.21-.36-.36-.16-.15-.3-.25-.42-.32.68-.35,1.35-.76,2-1.23.65-.47,1.17-.98,1.56-1.51ZM294.74,193.66l.7-.6c.45.21.93.46,1.42.74s.96.57,1.4.87c.44.3.79.58,1.06.85l-.72.7c-.27-.28-.61-.57-1.04-.87-.43-.3-.88-.6-1.37-.9s-.97-.56-1.45-.79ZM294.8,190.32l.68-.62c.45.19.92.41,1.39.68.47.27.93.53,1.36.8.43.27.78.53,1.05.78l-.7.68c-.27-.24-.61-.5-1.03-.79-.42-.29-.87-.56-1.35-.83-.48-.27-.95-.5-1.4-.7ZM301.04,198.9h.32l.28-.06.8.68c-.45.36-.97.71-1.56,1.04-.59.33-1.2.64-1.83.93s-1.25.54-1.85.75c-.07-.12-.17-.25-.31-.39-.14-.14-.26-.25-.35-.33.53-.19,1.08-.41,1.65-.68.57-.27,1.1-.55,1.61-.84s.92-.57,1.24-.84v-.26ZM299.78,194.24h3.58v.96h-3.58v-.96ZM299.8,190h3.86v.96h-3.86v-.96ZM299.9,192.12h3.62v.96h-3.62v-.96ZM303.12,190h1.28c-.04.76-.09,1.57-.14,2.42s-.11,1.68-.18,2.49c-.07.81-.13,1.5-.2,2.09h-1.3c.09-.6.17-1.31.24-2.12s.13-1.65.18-2.5c.05-.85.09-1.65.12-2.38Z"/>
          <path class="cls-48" d="M312.88,201.98l1.34.48c-.39.52-.83,1.05-1.34,1.58s-1.03,1.03-1.57,1.49-1.07.87-1.59,1.23c-.08-.08-.19-.18-.34-.29-.15-.11-.29-.22-.44-.33-.15-.11-.27-.19-.38-.26.8-.49,1.59-1.09,2.37-1.78.78-.69,1.43-1.4,1.95-2.12ZM321.28,189.26l.98,1.06c-.81.37-1.74.73-2.77,1.07-1.03.34-2.13.66-3.28.96-1.15.3-2.33.58-3.52.84-1.19.26-2.36.5-3.51.71-.03-.17-.08-.37-.17-.58-.09-.21-.16-.39-.23-.54,1.12-.21,2.27-.45,3.44-.72,1.17-.27,2.32-.55,3.43-.85s2.15-.61,3.12-.94c.97-.33,1.8-.66,2.51-1.01ZM309.56,201.66c-.01-.11-.04-.24-.09-.4-.05-.16-.1-.32-.16-.49-.06-.17-.11-.31-.15-.43.31-.03.69-.12,1.14-.29.45-.17.99-.39,1.6-.67.33-.15.83-.38,1.49-.71.66-.33,1.41-.72,2.26-1.19s1.73-.98,2.64-1.55c.91-.57,1.78-1.16,2.61-1.79l1.04.88c-1.87,1.31-3.76,2.46-5.69,3.45-1.93.99-3.82,1.85-5.69,2.57v.04c-.2.07-.37.13-.5.18-.13.05-.25.12-.35.19s-.15.14-.15.21ZM309.56,201.66l-.04-1.04.98-.5,13.14-.9c-.03.19-.04.4-.04.63v.55c-2.03.15-3.77.27-5.23.38s-2.69.2-3.68.27-1.8.14-2.42.2-1.1.11-1.45.15-.61.08-.8.12c-.19.04-.34.09-.46.14ZM310.68,197.48c-.01-.09-.04-.22-.09-.38-.05-.16-.1-.32-.15-.49s-.1-.31-.14-.43c.21-.03.45-.09.72-.19.27-.1.56-.24.88-.41.23-.12.6-.34,1.13-.66s1.11-.7,1.75-1.15c.64-.45,1.25-.92,1.82-1.41l1.18.76c-.99.76-2.01,1.46-3.06,2.09-1.05.63-2.09,1.17-3.1,1.61v.04c-.19.08-.34.15-.47.21-.13.06-.24.13-.33.2-.09.07-.14.14-.14.21ZM310.68,197.48l-.02-.98.82-.42,7.5-.38c-.04.16-.07.35-.09.57-.02.22-.04.4-.05.53-1.37.08-2.52.15-3.45.21-.93.06-1.68.11-2.26.16s-1.03.09-1.35.12c-.32.03-.56.06-.71.09-.15.03-.28.06-.39.1ZM316.52,200.14h1.36v5.74c0,.39-.05.69-.16.9-.11.21-.31.37-.62.48-.31.11-.71.17-1.22.2s-1.13.04-1.86.04c-.04-.2-.11-.43-.21-.68-.1-.25-.2-.47-.31-.66.41.01.8.03,1.16.04.36.01.67.02.93,0,.26,0,.44-.02.53-.03.17-.01.28-.04.33-.08.05-.04.07-.12.07-.24v-5.72ZM319.82,202.5l1.04-.7c.53.41,1.09.86,1.68,1.34.59.48,1.14.95,1.67,1.42.53.47.96.89,1.29,1.26l-1.12.78c-.32-.36-.74-.78-1.25-1.26-.51-.48-1.06-.97-1.63-1.47s-1.13-.96-1.68-1.37ZM320.36,197.24l1.1-.54c.51.45,1.02.95,1.55,1.48.53.53,1.02,1.05,1.47,1.56.45.51.82.96,1.1,1.36l-1.14.68c-.27-.4-.63-.87-1.08-1.4s-.94-1.07-1.47-1.62c-.53-.55-1.04-1.05-1.53-1.52Z"/>
        </g>
      </g>
    </g>
  </g>
  <g id="c258">
    <g id="tx__zk201rht5hxn-fill">
      <g class="cls-36">
        <g class="cls-36">
          <path class="cls-48" d="M212.7,160.48l1.04.62c-.37.69-.85,1.4-1.42,2.13s-1.19,1.41-1.84,2.04c-.65.63-1.3,1.16-1.94,1.59-.11-.17-.25-.36-.42-.57-.17-.21-.34-.37-.5-.49.61-.36,1.25-.83,1.9-1.41s1.26-1.21,1.82-1.89,1.01-1.35,1.36-2.02ZM213.96,153.3l1.12.76c-.51.75-1.1,1.49-1.78,2.24-.68.75-1.41,1.45-2.2,2.12-.79.67-1.59,1.28-2.4,1.84-.11-.15-.25-.31-.43-.49-.18-.18-.34-.32-.49-.43.81-.53,1.61-1.14,2.38-1.81.77-.67,1.49-1.37,2.15-2.1.66-.73,1.21-1.44,1.65-2.13ZM208.26,154.16l.94-.78c1.09.81,1.97,1.65,2.62,2.5.65.85,1.14,1.73,1.47,2.63.33.9.54,1.81.65,2.74.11.93.16,1.86.16,2.81,0,1.01-.03,1.95-.1,2.82-.07.87-.18,1.63-.35,2.28-.17.65-.4,1.18-.69,1.58-.15.2-.32.36-.53.47-.21.11-.44.19-.71.23-.41.07-.86.1-1.33.11-.47,0-.96,0-1.47-.03-.01-.21-.06-.44-.14-.68-.08-.24-.19-.46-.32-.66.6.05,1.14.08,1.61.08s.85-.01,1.13-.04c.17-.03.32-.07.44-.14.12-.07.23-.16.32-.28.29-.39.5-1.1.63-2.13s.19-2.24.19-3.63c0-.91-.05-1.79-.16-2.66-.11-.87-.31-1.71-.62-2.53-.31-.82-.76-1.62-1.36-2.4s-1.39-1.54-2.38-2.29ZM216.32,154.8h1.36v13.98c0,.36.04.64.11.83s.21.33.42.4c.21.07.51.11.91.11h4.44c.39,0,.68-.1.87-.29.19-.19.33-.53.41-1.02.08-.49.15-1.18.2-2.09.17.12.38.23.62.34.24.11.46.19.66.24-.08,1.01-.2,1.82-.36,2.43-.16.61-.42,1.04-.78,1.3-.36.26-.88.39-1.56.39h-4.56c-.69,0-1.24-.07-1.64-.22-.4-.15-.68-.41-.85-.8-.17-.39-.25-.93-.25-1.64v-13.96ZM216.82,154.8h7.54v1.3h-7.54v-1.3ZM223.62,154.8h1.32v7.24c0,.4-.06.71-.17.94s-.33.4-.65.52c-.33.11-.81.17-1.43.19-.62.02-1.38.03-2.29.03-.03-.21-.08-.44-.17-.69-.09-.25-.17-.46-.25-.65.49.01.96.02,1.39.03.43,0,.81,0,1.12,0s.53,0,.65-.02c.2-.01.33-.04.39-.09.06-.05.09-.15.09-.31v-7.2Z"/>
          <path class="cls-48" d="M227.96,167.36c.84-.11,1.84-.24,3-.4s2.35-.33,3.58-.5v1.08c-1.15.19-2.28.37-3.4.55-1.12.18-2.13.34-3.02.47l-.16-1.2ZM228.7,160.78h6.06v1.18h-6.06v-1.18ZM229.04,154.08h16.14v5.04h-16.14v-5.04ZM229.16,163.8h5.64v1.12h-5.64v-1.12ZM234.26,159.52h1.3v5.48c0,.76-.07,1.47-.21,2.13s-.4,1.27-.78,1.83c-.38.56-.93,1.07-1.65,1.54-.72.47-1.67.87-2.84,1.22-.09-.15-.22-.32-.38-.52-.16-.2-.31-.36-.44-.48,1.09-.32,1.97-.68,2.63-1.09.66-.41,1.16-.85,1.5-1.34.34-.49.57-1.01.69-1.56.12-.55.18-1.14.18-1.75v-5.46ZM230.32,155.22v2.76h3.58v-2.76h-3.58ZM235.14,155.22v2.76h3.7v-2.76h-3.7ZM238.44,159.5h1.36v12.06h-1.36v-12.06ZM239.16,166.94h6.94v1.26h-6.94v-1.26ZM239.18,163.8h6.02v1.16h-6.02v-1.16ZM239.2,160.78h6.46v1.18h-6.46v-1.18ZM240.08,155.22v2.76h3.74v-2.76h-3.74Z"/>
          <path class="cls-48" d="M248.68,154.08h5.1v1.22h-3.82v16.26h-1.28v-17.48ZM253.4,154.08h.24l.2-.06.9.56c-.2.56-.42,1.15-.67,1.78s-.5,1.25-.75,1.88-.51,1.21-.76,1.76c.8.87,1.33,1.67,1.59,2.42.26.75.39,1.44.39,2.08,0,.53-.06,1-.19,1.41-.13.41-.34.71-.63.91-.15.11-.31.19-.49.25-.18.06-.37.11-.57.15-.23.01-.47.02-.73.02s-.51,0-.75-.02c-.01-.17-.05-.38-.11-.61s-.14-.44-.25-.61c.25.01.49.02.72.02h.62c.25,0,.49-.07.7-.2.16-.11.27-.3.34-.57.07-.27.1-.56.1-.87,0-.57-.13-1.21-.4-1.92-.27-.71-.8-1.47-1.6-2.3.2-.47.4-.96.6-1.47.2-.51.39-1.03.58-1.54.19-.51.36-1,.51-1.46.15-.46.29-.87.41-1.23v-.38ZM257.7,157.34h1.32c-.04,1.51-.12,2.96-.25,4.37-.13,1.41-.37,2.72-.72,3.95-.35,1.23-.89,2.34-1.6,3.33-.71.99-1.68,1.84-2.89,2.53-.09-.16-.23-.34-.4-.53-.17-.19-.35-.34-.52-.45,1.16-.63,2.07-1.4,2.74-2.33.67-.93,1.16-1.96,1.48-3.11.32-1.15.53-2.37.63-3.68.1-1.31.17-2.67.21-4.08ZM254.38,156.62h11.62v1.28h-11.62v-1.28ZM258.26,161.06h5.68v1.24h-5.68v-1.24ZM259.04,153.58l1.22-.28c.19.47.38.98.57,1.53.19.55.34,1.02.43,1.39l-1.28.36c-.08-.39-.21-.86-.4-1.43-.19-.57-.37-1.09-.54-1.57ZM263.48,161.06h1.32v.64c-.05,1.57-.11,2.9-.18,3.99-.07,1.09-.14,1.98-.22,2.69-.08.71-.17,1.26-.28,1.66-.11.4-.24.69-.4.86-.16.21-.35.36-.56.45-.21.09-.47.14-.76.17-.29.03-.7.04-1.21.03s-1.04-.02-1.57-.05c-.01-.2-.05-.42-.12-.67-.07-.25-.16-.46-.28-.65.56.05,1.08.09,1.57.1.49.01.83.02,1.03.02.35,0,.6-.09.76-.26.15-.17.27-.56.38-1.16.11-.6.2-1.51.29-2.73.09-1.22.16-2.83.23-4.83v-.26Z"/>
          <path class="cls-48" d="M267.86,159.92l.72-.98c.41.19.85.4,1.32.65.47.25.91.49,1.34.74.43.25.77.47,1.04.67l-.74,1.1c-.27-.2-.61-.43-1.03-.68-.42-.25-.86-.51-1.33-.78-.47-.27-.91-.51-1.32-.72ZM268.36,170.38c.37-.51.78-1.12,1.22-1.84s.89-1.48,1.34-2.29.87-1.58,1.26-2.33l.98.88c-.35.69-.73,1.43-1.15,2.2-.42.77-.85,1.53-1.28,2.26-.43.73-.84,1.41-1.23,2.04l-1.14-.92ZM269.08,154.44l.76-.96c.43.19.88.41,1.36.66.48.25.94.5,1.37.75.43.25.8.47,1.09.67l-.78,1.12c-.28-.21-.64-.45-1.07-.72-.43-.27-.89-.54-1.37-.81s-.93-.51-1.36-.71ZM273.62,161.88c-.01-.09-.05-.22-.1-.38s-.11-.32-.17-.49c-.06-.17-.12-.3-.17-.41.2-.04.41-.18.63-.42.22-.24.47-.55.75-.92.15-.17.36-.46.64-.86.28-.4.6-.88.95-1.44.35-.56.71-1.16,1.07-1.8.36-.64.69-1.29.98-1.96l1.38.44c-.48.92-1,1.83-1.55,2.74-.55.91-1.11,1.76-1.68,2.57-.57.81-1.14,1.54-1.71,2.19v.02c-.21.09-.38.18-.51.26-.13.08-.24.16-.35.24-.11.08-.16.15-.16.22ZM273.62,161.88l-.02-1.06.9-.5,9.52-.56c.01.2.05.41.1.64.05.23.1.41.14.56-1.81.13-3.33.24-4.55.32-1.22.08-2.21.15-2.96.21-.75.06-1.34.11-1.75.15-.41.04-.71.08-.9.12-.19.04-.35.08-.48.12ZM274.4,163.58h10.12v7.94h-1.36v-6.68h-7.46v6.76h-1.3v-8.02ZM275.16,169.44h8.76v1.26h-8.76v-1.26ZM280.5,156.46l1.14-.58c.55.59,1.1,1.22,1.65,1.91.55.69,1.06,1.36,1.51,2.02.45.66.81,1.25,1.08,1.77l-1.18.7c-.27-.53-.63-1.14-1.08-1.82-.45-.68-.95-1.37-1.49-2.07-.54-.7-1.08-1.34-1.63-1.93Z"/>
          <path class="cls-48" d="M288.1,166.44h17.86v1.16h-17.86v-1.16ZM288.54,160.4h17v3.56h-1.34v-2.52h-14.38v2.52h-1.28v-3.56ZM293.62,153.42l.62.84c-.57.23-1.23.41-1.97.56-.74.15-1.41.26-2.01.34l-.5-.78c.39-.07.82-.16,1.29-.27s.94-.23,1.4-.36.85-.24,1.17-.33ZM289.76,154.38l1.3.36.4,6.22h-1.26l-.44-6.58ZM290.5,156.12h3.62v.96h-3.62v-.96ZM290.6,158.24h3.62v.96h-3.62v-.96ZM291.78,162.9h9.58v1.04h-9.58v-1.04ZM296.54,165.52h1.3v4.56c0,.36-.05.63-.15.82-.1.19-.3.33-.61.44-.29.09-.7.14-1.22.15-.52,0-1.19,0-2,0-.03-.16-.09-.35-.18-.56-.09-.21-.19-.4-.28-.56.44.01.84.02,1.21.03s.69,0,.96,0,.46,0,.55,0c.16-.01.27-.04.33-.09.06-.05.09-.14.09-.27v-4.52ZM298.06,156.8l.98.3c-.48.63-1.08,1.23-1.8,1.81-.72.58-1.44,1.06-2.16,1.45-.08-.09-.2-.22-.36-.37-.16-.15-.29-.28-.4-.37.71-.33,1.4-.75,2.09-1.24.69-.49,1.24-1.02,1.65-1.58ZM298,153.42l.98.28c-.45.61-1.02,1.2-1.71,1.75-.69.55-1.37,1.02-2.05,1.39-.08-.09-.2-.21-.36-.36-.16-.15-.3-.25-.42-.32.68-.35,1.35-.76,2-1.23.65-.47,1.17-.98,1.56-1.51ZM294.74,157.66l.7-.6c.45.21.93.46,1.42.74s.96.57,1.4.87c.44.3.79.58,1.06.85l-.72.7c-.27-.28-.61-.57-1.04-.87-.43-.3-.88-.6-1.37-.9s-.97-.56-1.45-.79ZM294.8,154.32l.68-.62c.45.19.92.41,1.39.68.47.27.93.53,1.36.8.43.27.78.53,1.05.78l-.7.68c-.27-.24-.61-.5-1.03-.79-.42-.29-.87-.56-1.35-.83-.48-.27-.95-.5-1.4-.7ZM301.04,162.9h.32l.28-.06.8.68c-.45.36-.97.71-1.56,1.04-.59.33-1.2.64-1.83.93s-1.25.54-1.85.75c-.07-.12-.17-.25-.31-.39-.14-.14-.26-.25-.35-.33.53-.19,1.08-.41,1.65-.68.57-.27,1.1-.55,1.61-.84s.92-.57,1.24-.84v-.26ZM299.78,158.24h3.58v.96h-3.58v-.96ZM299.8,154h3.86v.96h-3.86v-.96ZM299.9,156.12h3.62v.96h-3.62v-.96ZM303.12,154h1.28c-.04.76-.09,1.57-.14,2.42s-.11,1.68-.18,2.49c-.07.81-.13,1.5-.2,2.09h-1.3c.09-.6.17-1.31.24-2.12s.13-1.65.18-2.5c.05-.85.09-1.65.12-2.38Z"/>
          <path class="cls-48" d="M312.88,165.98l1.34.48c-.39.52-.83,1.05-1.34,1.58s-1.03,1.03-1.57,1.49-1.07.87-1.59,1.23c-.08-.08-.19-.18-.34-.29-.15-.11-.29-.22-.44-.33-.15-.11-.27-.19-.38-.26.8-.49,1.59-1.09,2.37-1.78.78-.69,1.43-1.4,1.95-2.12ZM321.28,153.26l.98,1.06c-.81.37-1.74.73-2.77,1.07-1.03.34-2.13.66-3.28.96-1.15.3-2.33.58-3.52.84-1.19.26-2.36.5-3.51.71-.03-.17-.08-.37-.17-.58-.09-.21-.16-.39-.23-.54,1.12-.21,2.27-.45,3.44-.72,1.17-.27,2.32-.55,3.43-.85s2.15-.61,3.12-.94c.97-.33,1.8-.66,2.51-1.01ZM309.56,165.66c-.01-.11-.04-.24-.09-.4-.05-.16-.1-.32-.16-.49-.06-.17-.11-.31-.15-.43.31-.03.69-.12,1.14-.29.45-.17.99-.39,1.6-.67.33-.15.83-.38,1.49-.71.66-.33,1.41-.72,2.26-1.19s1.73-.98,2.64-1.55c.91-.57,1.78-1.16,2.61-1.79l1.04.88c-1.87,1.31-3.76,2.46-5.69,3.45-1.93.99-3.82,1.85-5.69,2.57v.04c-.2.07-.37.13-.5.18-.13.05-.25.12-.35.19s-.15.14-.15.21ZM309.56,165.66l-.04-1.04.98-.5,13.14-.9c-.03.19-.04.4-.04.63v.55c-2.03.15-3.77.27-5.23.38s-2.69.2-3.68.27-1.8.14-2.42.2-1.1.11-1.45.15-.61.08-.8.12c-.19.04-.34.09-.46.14ZM310.68,161.48c-.01-.09-.04-.22-.09-.38-.05-.16-.1-.32-.15-.49s-.1-.31-.14-.43c.21-.03.45-.09.72-.19.27-.1.56-.24.88-.41.23-.12.6-.34,1.13-.66s1.11-.7,1.75-1.15c.64-.45,1.25-.92,1.82-1.41l1.18.76c-.99.76-2.01,1.46-3.06,2.09-1.05.63-2.09,1.17-3.1,1.61v.04c-.19.08-.34.15-.47.21-.13.06-.24.13-.33.2-.09.07-.14.14-.14.21ZM310.68,161.48l-.02-.98.82-.42,7.5-.38c-.04.16-.07.35-.09.57-.02.22-.04.4-.05.53-1.37.08-2.52.15-3.45.21-.93.06-1.68.11-2.26.16s-1.03.09-1.35.12c-.32.03-.56.06-.71.09-.15.03-.28.06-.39.1ZM316.52,164.14h1.36v5.74c0,.39-.05.69-.16.9-.11.21-.31.37-.62.48-.31.11-.71.17-1.22.2s-1.13.04-1.86.04c-.04-.2-.11-.43-.21-.68-.1-.25-.2-.47-.31-.66.41.01.8.03,1.16.04.36.01.67.02.93,0,.26,0,.44-.02.53-.03.17-.01.28-.04.33-.08.05-.04.07-.12.07-.24v-5.72ZM319.82,166.5l1.04-.7c.53.41,1.09.86,1.68,1.34.59.48,1.14.95,1.67,1.42.53.47.96.89,1.29,1.26l-1.12.78c-.32-.36-.74-.78-1.25-1.26-.51-.48-1.06-.97-1.63-1.47s-1.13-.96-1.68-1.37ZM320.36,161.24l1.1-.54c.51.45,1.02.95,1.55,1.48.53.53,1.02,1.05,1.47,1.56.45.51.82.96,1.1,1.36l-1.14.68c-.27-.4-.63-.87-1.08-1.4s-.94-1.07-1.47-1.62c-.53-.55-1.04-1.05-1.53-1.52Z"/>
        </g>
      </g>
    </g>
  </g>
  <g id="c81">
    <g id="tx__1cviif3ht5gcq-fill">
      <g class="cls-36">
        <g class="cls-36">
          <path class="cls-48" d="M253.94,120.68h.28l.24-.04.74.5c-.47,1.16-1.08,2.27-1.84,3.34-.76,1.07-1.59,2.04-2.48,2.92-.89.88-1.79,1.62-2.68,2.22-.03-.13-.08-.28-.16-.45-.08-.17-.16-.33-.24-.48-.08-.15-.15-.27-.22-.35.84-.52,1.68-1.17,2.51-1.95.83-.78,1.59-1.64,2.27-2.57.68-.93,1.21-1.88,1.58-2.84v-.3ZM248.1,120.68h6.26v1.24h-6.26v-1.24ZM250.24,117.82l1.02-.6c.39.4.77.84,1.14,1.33.37.49.65.91.84,1.27l-1.08.7c-.19-.39-.46-.83-.82-1.34-.36-.51-.73-.96-1.1-1.36ZM251.08,126.42l1.3-1.56v10.7h-1.3v-9.14ZM252.34,125.16c.15.12.36.32.65.61.29.29.6.6.93.93.33.33.64.64.92.92.28.28.48.49.6.64l-.84,1.1c-.16-.21-.37-.48-.64-.8-.27-.32-.55-.65-.86-1-.31-.35-.6-.67-.88-.98-.28-.31-.51-.55-.68-.72l.8-.7ZM254.64,133.44h11.54v1.32h-11.54v-1.32ZM255.6,123.56h10.14v1.28h-10.14v-1.28ZM260.04,117.14h1.36v16.96h-1.36v-16.96Z"/>
          <path class="cls-48" d="M276.9,117.16l1.18.46c-.68.91-1.53,1.73-2.55,2.46s-2.13,1.38-3.32,1.94c-1.19.56-2.4,1.04-3.63,1.44-.04-.09-.11-.21-.2-.34-.09-.13-.19-.26-.3-.39-.11-.13-.2-.24-.28-.33,1.21-.33,2.4-.75,3.55-1.26,1.15-.51,2.21-1.09,3.17-1.76.96-.67,1.75-1.41,2.38-2.22ZM270.3,122.98h13.4v4.98h-13.4v-4.98ZM271.48,123.92v3.1h11v-3.1h-11ZM271.5,128.98h11.22v6.5h-1.36v-5.52h-8.54v5.58h-1.32v-6.56ZM272.3,131.4h9.64v1h-9.64v-1ZM272.3,133.86h9.66v.98h-9.66v-.98ZM272.78,124.54l.98-.34c.27.35.52.73.75,1.16s.4.81.51,1.14l-1.04.4c-.08-.33-.23-.72-.46-1.16-.23-.44-.47-.84-.74-1.2ZM273.56,120.9h6.96v.98h-6.96v-.98ZM276.38,123.32h1.14v4.18h-1.14v-4.18ZM277.64,117.82c.47.49,1.03.96,1.69,1.41.66.45,1.38.86,2.16,1.25.78.39,1.59.73,2.43,1.04.84.31,1.66.55,2.46.74-.15.12-.3.28-.47.49-.17.21-.3.4-.41.57-.8-.21-1.62-.49-2.45-.84-.83-.35-1.65-.74-2.45-1.19-.8-.45-1.54-.92-2.22-1.43-.68-.51-1.27-1.03-1.78-1.58l1.04-.46ZM280.08,124.12l1.16.4c-.23.43-.46.86-.71,1.29-.25.43-.48.8-.69,1.09l-.94-.34c.2-.35.42-.75.65-1.22s.41-.87.53-1.22Z"/>
          <path class="cls-48" d="M288.1,130.44h17.86v1.16h-17.86v-1.16ZM288.54,124.4h17v3.56h-1.34v-2.52h-14.38v2.52h-1.28v-3.56ZM293.62,117.42l.62.84c-.57.23-1.23.41-1.97.56-.74.15-1.41.26-2.01.34l-.5-.78c.39-.07.82-.16,1.29-.27s.94-.23,1.4-.36.85-.24,1.17-.33ZM289.76,118.38l1.3.36.4,6.22h-1.26l-.44-6.58ZM290.5,120.12h3.62v.96h-3.62v-.96ZM290.6,122.24h3.62v.96h-3.62v-.96ZM291.78,126.9h9.58v1.04h-9.58v-1.04ZM296.54,129.52h1.3v4.56c0,.36-.05.63-.15.82-.1.19-.3.33-.61.44-.29.09-.7.14-1.22.15-.52,0-1.19,0-2,0-.03-.16-.09-.35-.18-.56-.09-.21-.19-.4-.28-.56.44.01.84.02,1.21.03s.69,0,.96,0,.46,0,.55,0c.16-.01.27-.04.33-.09.06-.05.09-.14.09-.27v-4.52ZM298.06,120.8l.98.3c-.48.63-1.08,1.23-1.8,1.81-.72.58-1.44,1.06-2.16,1.45-.08-.09-.2-.22-.36-.37-.16-.15-.29-.28-.4-.37.71-.33,1.4-.75,2.09-1.24.69-.49,1.24-1.02,1.65-1.58ZM298,117.42l.98.28c-.45.61-1.02,1.2-1.71,1.75-.69.55-1.37,1.02-2.05,1.39-.08-.09-.2-.21-.36-.36-.16-.15-.3-.25-.42-.32.68-.35,1.35-.76,2-1.23.65-.47,1.17-.98,1.56-1.51ZM294.74,121.66l.7-.6c.45.21.93.46,1.42.74s.96.57,1.4.87c.44.3.79.58,1.06.85l-.72.7c-.27-.28-.61-.57-1.04-.87-.43-.3-.88-.6-1.37-.9s-.97-.56-1.45-.79ZM294.8,118.32l.68-.62c.45.19.92.41,1.39.68.47.27.93.53,1.36.8.43.27.78.53,1.05.78l-.7.68c-.27-.24-.61-.5-1.03-.79-.42-.29-.87-.56-1.35-.83-.48-.27-.95-.5-1.4-.7ZM301.04,126.9h.32l.28-.06.8.68c-.45.36-.97.71-1.56,1.04-.59.33-1.2.64-1.83.93s-1.25.54-1.85.75c-.07-.12-.17-.25-.31-.39-.14-.14-.26-.25-.35-.33.53-.19,1.08-.41,1.65-.68.57-.27,1.1-.55,1.61-.84s.92-.57,1.24-.84v-.26ZM299.78,122.24h3.58v.96h-3.58v-.96ZM299.8,118h3.86v.96h-3.86v-.96ZM299.9,120.12h3.62v.96h-3.62v-.96ZM303.12,118h1.28c-.04.76-.09,1.57-.14,2.42s-.11,1.68-.18,2.49c-.07.81-.13,1.5-.2,2.09h-1.3c.09-.6.17-1.31.24-2.12s.13-1.65.18-2.5c.05-.85.09-1.65.12-2.38Z"/>
          <path class="cls-48" d="M312.88,129.98l1.34.48c-.39.52-.83,1.05-1.34,1.58s-1.03,1.03-1.57,1.49-1.07.87-1.59,1.23c-.08-.08-.19-.18-.34-.29-.15-.11-.29-.22-.44-.33-.15-.11-.27-.19-.38-.26.8-.49,1.59-1.09,2.37-1.78.78-.69,1.43-1.4,1.95-2.12ZM321.28,117.26l.98,1.06c-.81.37-1.74.73-2.77,1.07-1.03.34-2.13.66-3.28.96-1.15.3-2.33.58-3.52.84-1.19.26-2.36.5-3.51.71-.03-.17-.08-.37-.17-.58-.09-.21-.16-.39-.23-.54,1.12-.21,2.27-.45,3.44-.72,1.17-.27,2.32-.55,3.43-.85s2.15-.61,3.12-.94c.97-.33,1.8-.66,2.51-1.01ZM309.56,129.66c-.01-.11-.04-.24-.09-.4-.05-.16-.1-.32-.16-.49-.06-.17-.11-.31-.15-.43.31-.03.69-.12,1.14-.29.45-.17.99-.39,1.6-.67.33-.15.83-.38,1.49-.71.66-.33,1.41-.72,2.26-1.19s1.73-.98,2.64-1.55c.91-.57,1.78-1.16,2.61-1.79l1.04.88c-1.87,1.31-3.76,2.46-5.69,3.45-1.93.99-3.82,1.85-5.69,2.57v.04c-.2.07-.37.13-.5.18-.13.05-.25.12-.35.19s-.15.14-.15.21ZM309.56,129.66l-.04-1.04.98-.5,13.14-.9c-.03.19-.04.4-.04.63v.55c-2.03.15-3.77.27-5.23.38s-2.69.2-3.68.27-1.8.14-2.42.2-1.1.11-1.45.15-.61.08-.8.12c-.19.04-.34.09-.46.14ZM310.68,125.48c-.01-.09-.04-.22-.09-.38-.05-.16-.1-.32-.15-.49s-.1-.31-.14-.43c.21-.03.45-.09.72-.19.27-.1.56-.24.88-.41.23-.12.6-.34,1.13-.66s1.11-.7,1.75-1.15c.64-.45,1.25-.92,1.82-1.41l1.18.76c-.99.76-2.01,1.46-3.06,2.09-1.05.63-2.09,1.17-3.1,1.61v.04c-.19.08-.34.15-.47.21-.13.06-.24.13-.33.2-.09.07-.14.14-.14.21ZM310.68,125.48l-.02-.98.82-.42,7.5-.38c-.04.16-.07.35-.09.57-.02.22-.04.4-.05.53-1.37.08-2.52.15-3.45.21-.93.06-1.68.11-2.26.16s-1.03.09-1.35.12c-.32.03-.56.06-.71.09-.15.03-.28.06-.39.1ZM316.52,128.14h1.36v5.74c0,.39-.05.69-.16.9-.11.21-.31.37-.62.48-.31.11-.71.17-1.22.2s-1.13.04-1.86.04c-.04-.2-.11-.43-.21-.68-.1-.25-.2-.47-.31-.66.41.01.8.03,1.16.04.36.01.67.02.93,0,.26,0,.44-.02.53-.03.17-.01.28-.04.33-.08.05-.04.07-.12.07-.24v-5.72ZM319.82,130.5l1.04-.7c.53.41,1.09.86,1.68,1.34.59.48,1.14.95,1.67,1.42.53.47.96.89,1.29,1.26l-1.12.78c-.32-.36-.74-.78-1.25-1.26-.51-.48-1.06-.97-1.63-1.47s-1.13-.96-1.68-1.37ZM320.36,125.24l1.1-.54c.51.45,1.02.95,1.55,1.48.53.53,1.02,1.05,1.47,1.56.45.51.82.96,1.1,1.36l-1.14.68c-.27-.4-.63-.87-1.08-1.4s-.94-1.07-1.47-1.62c-.53-.55-1.04-1.05-1.53-1.52Z"/>
        </g>
      </g>
    </g>
  </g>
  <g id="b23">
    <g id="g-root-ro_1lqj1kvht5ipt-fill">
      <g id="ro_1lqj1kvht5ipt-fill">
        <path class="cls-9" d="M642.58,68h125.83s12.58,0,12.58,12v30s0,12-12.58,12h-125.83s-12.58,0-12.58-12v-30s0-12,12.58-12"/>
      </g>
    </g>
    <g id="g-root-tx__1um61trht5h5b-fill">
      <g id="tx__1um61trht5h5b-fill">
        <g class="cls-36">
          <g class="cls-36">
            <path class="cls-31" d="M686.58,99.52c.53-.2,1.15-.44,1.86-.73.71-.29,1.46-.59,2.25-.92.79-.33,1.58-.66,2.37-.99l.42,1.68c-1.05.51-2.12,1.01-3.2,1.51-1.08.5-2.06.94-2.94,1.33l-.76-1.88ZM686.98,90.86h6.1v1.78h-6.1v-1.78ZM689.28,86.36h1.78v13.12h-1.78v-13.12ZM692.42,94.28l10.6-4.48.7,1.6-10.58,4.56-.72-1.68ZM694.5,88.02h1.82v13.2c0,.37.03.66.1.85.07.19.21.32.43.39.22.07.54.1.97.1h4.42c.37,0,.66-.07.85-.22.19-.15.34-.41.43-.8s.16-.95.2-1.68c.21.15.48.29.81.42.33.13.62.23.87.28-.08.93-.22,1.67-.42,2.2s-.5.92-.91,1.15-.98.35-1.71.35h-4.66c-.81,0-1.46-.09-1.93-.26-.47-.17-.8-.48-.99-.93-.19-.45-.28-1.07-.28-1.87v-13.18ZM698.56,86.12h1.78v14h-1.78v-14ZM702.54,90.32h-.22l.7-.52,1.44.46-.1.3c-.04.93-.11,1.93-.2,3-.09,1.07-.2,2.11-.32,3.13-.12,1.02-.27,1.92-.44,2.71l-1.54-.44c.09-.53.17-1.15.24-1.85.07-.7.13-1.44.19-2.23.06-.79.11-1.57.15-2.35.04-.78.07-1.52.1-2.21Z"/>
            <path class="cls-31" d="M706.6,100.78c.56-.15,1.19-.33,1.9-.54.71-.21,1.45-.45,2.24-.7.79-.25,1.57-.51,2.36-.76l.32,1.8c-1.09.37-2.2.75-3.32,1.12s-2.13.71-3.04,1.02l-.46-1.94ZM706.82,87.38h6.42v1.76h-6.42v-1.76ZM707.02,93.16h5.92v1.74h-5.92v-1.74ZM709.2,88.08h1.8v12.34l-1.8.32v-12.66ZM712.46,102.32h12.94v1.72h-12.94v-1.72ZM713.94,98.2h10.8v1.72h-10.8v-1.72ZM714.12,87h10.36v9.14h-10.36v-9.14ZM715.84,88.62v2.18h6.84v-2.18h-6.84ZM715.84,92.32v2.2h6.84v-2.2h-6.84ZM718.48,87.74h1.62v7.62h.14v7.74h-1.92v-7.74h.16v-7.62Z"/>
            <path class="cls-31" d="M727,99.32h18v1.54h-18v-1.54ZM727.4,93.3h17.28v3.86h-1.88v-2.46h-13.6v2.46h-1.8v-3.86ZM732.54,86.26l.8,1.12c-.6.24-1.28.44-2.05.6-.77.16-1.45.29-2.05.38l-.66-1.06c.39-.08.82-.18,1.31-.29.49-.11.96-.24,1.43-.38s.87-.26,1.22-.37ZM728.58,87.3l1.8.46.38,6.2h-1.78l-.4-6.66ZM729.52,88.98h3.7v1.24h-3.7v-1.24ZM729.6,91.14h3.68v1.22h-3.68v-1.22ZM730.8,95.84h9.16v1.38h-9.16v-1.38ZM735.28,98.58h1.86v4.22c0,.45-.06.8-.19,1.04-.13.24-.37.43-.73.56-.36.12-.81.19-1.35.21-.54.02-1.2.03-1.99.03-.04-.24-.12-.51-.24-.8-.12-.29-.25-.56-.38-.8.39.01.76.02,1.11.03.35,0,.67,0,.94,0h.55c.16,0,.27-.02.33-.07.06-.05.09-.14.09-.27v-4.16ZM736.92,89.64l1.26.4c-.48.65-1.08,1.27-1.8,1.85-.72.58-1.45,1.06-2.18,1.45-.09-.13-.25-.3-.46-.5-.21-.2-.39-.36-.52-.48.71-.32,1.4-.72,2.07-1.19.67-.47,1.22-.98,1.63-1.53ZM736.88,86.28l1.26.36c-.44.61-1.01,1.19-1.7,1.74s-1.37,1-2.04,1.36c-.11-.12-.27-.27-.48-.45s-.4-.32-.56-.43c.69-.32,1.36-.7,1.99-1.15.63-.45,1.14-.92,1.53-1.43ZM733.68,90.64l.9-.78c.45.21.92.46,1.4.74.48.28.94.57,1.37.86.43.29.79.57,1.07.84l-.98.88c-.25-.27-.59-.55-1.01-.85-.42-.3-.87-.6-1.35-.9-.48-.3-.95-.56-1.4-.79ZM733.76,87.26l.9-.78c.43.19.87.41,1.33.67.46.26.9.53,1.31.8s.75.52,1.02.75l-.94.88c-.25-.24-.58-.5-.98-.78s-.83-.56-1.29-.83c-.46-.27-.91-.51-1.35-.71ZM739.48,95.84h.46l.4-.1,1.08.98c-.48.36-1.01.71-1.6,1.06s-1.19.67-1.81.98c-.62.31-1.24.58-1.85.82-.11-.16-.25-.34-.43-.53s-.33-.35-.45-.47c.51-.19,1.03-.42,1.56-.7s1.03-.57,1.5-.87.85-.58,1.14-.83v-.34ZM738.74,86.82h3.78v1.24h-3.78v-1.24ZM738.76,91.14h3.46v1.22h-3.46v-1.22ZM738.86,88.98h3.5v1.24h-3.5v-1.24ZM741.78,86.82h1.8c-.04.79-.09,1.62-.14,2.5s-.11,1.73-.18,2.56c-.07.83-.13,1.54-.2,2.14h-1.82c.08-.63.16-1.35.23-2.18.07-.83.14-1.68.19-2.56.05-.88.09-1.7.12-2.46Z"/>
            <path class="cls-31" d="M749,92.52l1.16.4c-.25.67-.61,1.33-1.07,1.99s-.94,1.18-1.45,1.57c-.13-.2-.31-.42-.52-.66-.21-.24-.41-.43-.6-.56.32-.19.64-.43.95-.73.31-.3.6-.63.87-.98.27-.35.49-.7.66-1.03ZM750.38,96.08h1.64v2.06c0,.55-.05,1.11-.15,1.69s-.3,1.15-.6,1.71-.75,1.1-1.34,1.61c-.59.51-1.38.98-2.37,1.41-.07-.13-.15-.29-.26-.46-.11-.17-.23-.34-.36-.51s-.25-.3-.36-.41c.87-.35,1.55-.73,2.05-1.14s.88-.84,1.13-1.29c.25-.45.42-.9.5-1.35.08-.45.12-.89.12-1.3v-2.02ZM746.92,90.46h8.66v1.54h-8.66v-1.54ZM746.92,97.82h8.8v1.58h-8.8v-1.58ZM747.28,87.32l1.32-.48c.24.36.47.76.7,1.21.23.45.37.84.44,1.17l-1.38.56c-.07-.35-.2-.75-.4-1.2s-.43-.87-.68-1.26ZM750.5,86.22h1.66v9.44h-1.66v-9.44ZM750.54,101.1l1-1.16c.41.24.86.52,1.33.83.47.31.93.62,1.37.92.44.3.8.56,1.08.79l-1.04,1.32c-.27-.24-.62-.52-1.05-.84-.43-.32-.88-.64-1.35-.97-.47-.33-.91-.62-1.34-.89ZM753.24,92.58c.12.08.31.21.56.4.25.19.52.39.8.6.28.21.54.42.77.61.23.19.4.34.51.43l-1.04,1.22c-.13-.16-.31-.36-.53-.59-.22-.23-.46-.48-.71-.73-.25-.25-.5-.49-.73-.71-.23-.22-.43-.39-.59-.51l.96-.72ZM752.74,96.46l1.06-.68c.25.23.52.49.79.79.27.3.48.56.63.79l-1.1.76c-.13-.24-.33-.52-.59-.83-.26-.31-.52-.59-.79-.83ZM753.82,86.88l1.56.44c-.24.47-.48.93-.71,1.38s-.46.84-.67,1.16l-1.24-.42c.19-.36.38-.78.58-1.27.2-.49.36-.92.48-1.29ZM758.48,101.06l1.6.96c-.31.35-.67.69-1.09,1.03-.42.34-.86.66-1.32.95s-.92.55-1.37.76c-.15-.17-.34-.38-.57-.62-.23-.24-.45-.44-.65-.6.43-.2.86-.44,1.29-.71.43-.27.84-.57,1.21-.88.37-.31.67-.61.9-.89ZM755.78,87h9.4v1.62h-9.4v-1.62ZM756.48,90.28h8v10.5h-8v-10.5ZM758.2,91.72v1.62h4.48v-1.62h-4.48ZM758.2,94.7v1.62h4.48v-1.62h-4.48ZM758.2,97.68v1.66h4.48v-1.66h-4.48ZM759.38,87.86l2.06.26c-.2.59-.4,1.17-.61,1.75-.21.58-.4,1.08-.57,1.49l-1.6-.3c.09-.31.19-.65.28-1.02s.18-.75.26-1.14c.08-.39.14-.73.18-1.04ZM760.8,102.04l1.36-.94c.39.24.79.51,1.22.82s.83.61,1.22.92c.39.31.71.59.96.84l-1.46,1.02c-.23-.24-.53-.52-.9-.83-.37-.31-.77-.63-1.19-.96-.42-.33-.82-.62-1.21-.87Z"/>
          </g>
        </g>
      </g>
    </g>
    <g id="_圖層_1">
      <g id="_圖層_1-2">
        <g id="_圖層_1-2-2" data-name="_圖層_1-2">
          <g id="_圖層_1-2-2">
            <g id="_圖層_1-2-2-2" data-name="_圖層_1-2-2">
              <g id="_圖層_2">
                <g id="Icon_Set">
                  <rect class="cls-35" x="647.17" y="82.83" width="31.89" height="24.34"/>
                  <path class="cls-49" d="M665.43,86.07h-4.62c-6.47,0-11.71,4-11.71,8.93s5.25,8.93,11.71,8.93h4.62c6.48,0,11.7-4,11.7-8.93s-5.25-8.93-11.7-8.93Z"/>
                  <rect class="cls-45" x="648.88" y="84.63" width="2.63" height=".11"/>
                  <rect class="cls-45" x="648.88" y="86.16" width="2.63" height=".11"/>
                  <rect class="cls-45" x="674.97" y="103.64" width="2.62" height=".11"/>
                  <rect class="cls-45" x="674.97" y="105.17" width="2.62" height=".11"/>
                  <path class="cls-15" d="M653.9,93.6c.43,1.5,1.86,2.44,3.19,3.27.67.42,1.35.83,2.12,1.02.77.18,1.64.1,2.23-.43.79-.7.84-1.94.52-2.97-.32-1.02-.93-1.91-1.26-2.93-.42-1.25-.33-2.79.11-4.12h-.05c-3.06,0-5.83.99-7.72,2.55.26.3.45.67.51,1.04.18.84.06,1.74.3,2.57h.03s0,0,0,0h0Z"/>
                  <path class="cls-13" d="M664.98,91.4c.37.56.91,1.02,1.13,1.66.29.84-.05,1.79.22,2.65.21.65.78,1.18,1.45,1.32.67.14,1.42-.1,1.86-.62.62-.72.65-1.77.51-2.71-.14-.94-.43-1.88-.3-2.82.11-.77.61-1.58,1.25-2.18-1.62-.79-3.59-1.26-5.69-1.26h-.52c-.19.35-.33.73-.43,1.1-.22.96-.03,2.01.51,2.84h0v.03h.01Z"/>
                  <path class="cls-30" d="M672.99,98.86c-.03.4.01.79.11,1.2,1.42-1.15,2.37-2.63,2.6-4.26-.51.11-1.01.32-1.43.64-.75.59-1.23,1.48-1.29,2.42h.01,0Z"/>
                  <path class="cls-29" d="M656.28,101.8c1.37.5,2.9.77,4.51.77h4.62c1.62,0,3.16-.27,4.51-.77-1.43-1.12-3.95-1.86-6.84-1.86s-5.39.75-6.84,1.86h.03,0Z"/>
                </g>
              </g>
              <path class="cls-40" d="M650.19,107.22h-3.02s-.05-.02-.05-.05v-16.42s.02-.05.05-.05.05.02.05.05v16.36h2.97s.05.02.05.05-.02.05-.05.05Z"/>
              <path class="cls-40" d="M679.06,105.26s-.05-.02-.05-.05v-22.32h-8.66s-.05-.02-.05-.05.02-.05.05-.05h8.72s.05.02.05.05v22.37s-.02.05-.05.05h0Z"/>
            </g>
          </g>
        </g>
      </g>
    </g>
  </g>
  <g id="b21">
    <g id="g-root-ro_1qbcce7ht6vic-fill">
      <g id="ro_1qbcce7ht6vic-fill">
        <path class="cls-7" d="M245.5,50h125s12.5,0,12.5,12v30s0,12-12.5,12h-125s-12.5,0-12.5-12v-30s0-12,12.5-12"/>
      </g>
    </g>
    <g id="g-root-tx__90vttrht6wi2-fill">
      <g id="tx__90vttrht6wi2-fill">
        <g class="cls-36">
          <g class="cls-36">
            <path class="cls-31" d="M253.6,71.52h.4l.32-.08,1.02.72c-.48,1.2-1.1,2.36-1.86,3.47-.76,1.11-1.6,2.12-2.51,3.02-.91.9-1.83,1.65-2.75,2.25-.05-.17-.12-.38-.21-.63-.09-.25-.18-.49-.28-.73s-.2-.42-.29-.54c.84-.48,1.66-1.1,2.47-1.86.81-.76,1.54-1.59,2.19-2.5.65-.91,1.15-1.83,1.5-2.76v-.36ZM248,71.52h6.18v1.72h-6.18v-1.72ZM250.02,68.86l1.46-.8c.37.39.74.82,1.09,1.3.35.48.62.91.81,1.28l-1.56.92c-.16-.37-.41-.81-.76-1.32-.35-.51-.69-.97-1.04-1.38ZM250.78,77.8l1.86-2.2v11.06h-1.86v-8.86ZM252.56,76.12c.15.11.36.3.65.57s.59.57.92.89.63.62.9.89c.27.27.48.47.61.59l-1.18,1.58c-.16-.24-.37-.52-.64-.85-.27-.33-.55-.66-.84-1.01-.29-.35-.57-.67-.84-.97-.27-.3-.49-.55-.68-.75l1.1-.94ZM254.72,84.1h11.56v1.86h-11.56v-1.86ZM255.62,74.26h10.2v1.84h-10.2v-1.84ZM259.82,68.14h1.92v16.86h-1.92v-16.86Z"/>
            <path class="cls-31" d="M276.74,68l1.68.6c-.72.93-1.6,1.77-2.64,2.52-1.04.75-2.17,1.4-3.38,1.97-1.21.57-2.45,1.04-3.72,1.43-.07-.12-.16-.27-.28-.46-.12-.19-.25-.37-.38-.56s-.26-.33-.38-.44c1.23-.32,2.42-.72,3.58-1.21,1.16-.49,2.22-1.05,3.17-1.7.95-.65,1.74-1.36,2.35-2.15ZM270.16,73.88h13.68v5.24h-13.68v-5.24ZM271.32,79.94h11.54v6.66h-1.94v-5.38h-7.74v5.46h-1.86v-6.74ZM271.76,75.1v2.8h10.4v-2.8h-10.4ZM272.4,82.34h9.32v1.28h-9.32v-1.28ZM272.4,84.76h9.34v1.3h-9.34v-1.3ZM272.76,75.64l1.32-.42c.23.35.44.73.63,1.14s.32.77.39,1.08l-1.4.48c-.07-.32-.19-.69-.36-1.12s-.37-.81-.58-1.16ZM273.5,71.72h7.04v1.28h-7.04v-1.28ZM276.14,74.3h1.56v4.2h-1.56v-4.2ZM277.92,68.78c.45.45,1,.89,1.65,1.31.65.42,1.35.81,2.12,1.17.77.36,1.57.68,2.4.96.83.28,1.66.51,2.47.7-.2.16-.42.39-.65.68-.23.29-.42.55-.55.78-.81-.23-1.64-.51-2.48-.85-.84-.34-1.65-.73-2.43-1.16-.78-.43-1.51-.9-2.18-1.41s-1.27-1.03-1.79-1.58l1.44-.6ZM279.7,75.14l1.6.44c-.23.43-.45.85-.67,1.27-.22.42-.42.78-.61,1.07l-1.3-.42c.16-.32.34-.71.54-1.16.2-.45.35-.85.44-1.2Z"/>
            <path class="cls-31" d="M288,81.32h18v1.54h-18v-1.54ZM288.4,75.3h17.28v3.86h-1.88v-2.46h-13.6v2.46h-1.8v-3.86ZM293.54,68.26l.8,1.12c-.6.24-1.28.44-2.05.6-.77.16-1.45.29-2.05.38l-.66-1.06c.39-.08.82-.18,1.31-.29.49-.11.96-.24,1.43-.38s.87-.26,1.22-.37ZM289.58,69.3l1.8.46.38,6.2h-1.78l-.4-6.66ZM290.52,70.98h3.7v1.24h-3.7v-1.24ZM290.6,73.14h3.68v1.22h-3.68v-1.22ZM291.8,77.84h9.16v1.38h-9.16v-1.38ZM296.28,80.58h1.86v4.22c0,.45-.06.8-.19,1.04-.13.24-.37.43-.73.56-.36.12-.81.19-1.35.21-.54.02-1.2.03-1.99.03-.04-.24-.12-.51-.24-.8-.12-.29-.25-.56-.38-.8.39.01.76.02,1.11.03.35,0,.67,0,.94,0h.55c.16,0,.27-.02.33-.07.06-.05.09-.14.09-.27v-4.16ZM297.92,71.64l1.26.4c-.48.65-1.08,1.27-1.8,1.85-.72.58-1.45,1.06-2.18,1.45-.09-.13-.25-.3-.46-.5-.21-.2-.39-.36-.52-.48.71-.32,1.4-.72,2.07-1.19.67-.47,1.22-.98,1.63-1.53ZM297.88,68.28l1.26.36c-.44.61-1.01,1.19-1.7,1.74s-1.37,1-2.04,1.36c-.11-.12-.27-.27-.48-.45s-.4-.32-.56-.43c.69-.32,1.36-.7,1.99-1.15.63-.45,1.14-.92,1.53-1.43ZM294.68,72.64l.9-.78c.45.21.92.46,1.4.74.48.28.94.57,1.37.86.43.29.79.57,1.07.84l-.98.88c-.25-.27-.59-.55-1.01-.85-.42-.3-.87-.6-1.35-.9-.48-.3-.95-.56-1.4-.79ZM294.76,69.26l.9-.78c.43.19.87.41,1.33.67.46.26.9.53,1.31.8s.75.52,1.02.75l-.94.88c-.25-.24-.58-.5-.98-.78s-.83-.56-1.29-.83c-.46-.27-.91-.51-1.35-.71ZM300.48,77.84h.46l.4-.1,1.08.98c-.48.36-1.01.71-1.6,1.06s-1.19.67-1.81.98c-.62.31-1.24.58-1.85.82-.11-.16-.25-.34-.43-.53s-.33-.35-.45-.47c.51-.19,1.03-.42,1.56-.7s1.03-.57,1.5-.87.85-.58,1.14-.83v-.34ZM299.74,68.82h3.78v1.24h-3.78v-1.24ZM299.76,73.14h3.46v1.22h-3.46v-1.22ZM299.86,70.98h3.5v1.24h-3.5v-1.24ZM302.78,68.82h1.8c-.04.79-.09,1.62-.14,2.5s-.11,1.73-.18,2.56c-.07.83-.13,1.54-.2,2.14h-1.82c.08-.63.16-1.35.23-2.18.07-.83.14-1.68.19-2.56.05-.88.09-1.7.12-2.46Z"/>
            <path class="cls-31" d="M310,74.52l1.16.4c-.25.67-.61,1.33-1.07,1.99s-.94,1.18-1.45,1.57c-.13-.2-.31-.42-.52-.66-.21-.24-.41-.43-.6-.56.32-.19.64-.43.95-.73.31-.3.6-.63.87-.98.27-.35.49-.7.66-1.03ZM311.38,78.08h1.64v2.06c0,.55-.05,1.11-.15,1.69s-.3,1.15-.6,1.71-.75,1.1-1.34,1.61c-.59.51-1.38.98-2.37,1.41-.07-.13-.15-.29-.26-.46-.11-.17-.23-.34-.36-.51s-.25-.3-.36-.41c.87-.35,1.55-.73,2.05-1.14s.88-.84,1.13-1.29c.25-.45.42-.9.5-1.35.08-.45.12-.89.12-1.3v-2.02ZM307.92,72.46h8.66v1.54h-8.66v-1.54ZM307.92,79.82h8.8v1.58h-8.8v-1.58ZM308.28,69.32l1.32-.48c.24.36.47.76.7,1.21.23.45.37.84.44,1.17l-1.38.56c-.07-.35-.2-.75-.4-1.2s-.43-.87-.68-1.26ZM311.5,68.22h1.66v9.44h-1.66v-9.44ZM311.54,83.1l1-1.16c.41.24.86.52,1.33.83.47.31.93.62,1.37.92.44.3.8.56,1.08.79l-1.04,1.32c-.27-.24-.62-.52-1.05-.84-.43-.32-.88-.64-1.35-.97-.47-.33-.91-.62-1.34-.89ZM314.24,74.58c.12.08.31.21.56.4.25.19.52.39.8.6.28.21.54.42.77.61.23.19.4.34.51.43l-1.04,1.22c-.13-.16-.31-.36-.53-.59-.22-.23-.46-.48-.71-.73-.25-.25-.5-.49-.73-.71-.23-.22-.43-.39-.59-.51l.96-.72ZM313.74,78.46l1.06-.68c.25.23.52.49.79.79.27.3.48.56.63.79l-1.1.76c-.13-.24-.33-.52-.59-.83-.26-.31-.52-.59-.79-.83ZM314.82,68.88l1.56.44c-.24.47-.48.93-.71,1.38s-.46.84-.67,1.16l-1.24-.42c.19-.36.38-.78.58-1.27.2-.49.36-.92.48-1.29ZM319.48,83.06l1.6.96c-.31.35-.67.69-1.09,1.03-.42.34-.86.66-1.32.95s-.92.55-1.37.76c-.15-.17-.34-.38-.57-.62-.23-.24-.45-.44-.65-.6.43-.2.86-.44,1.29-.71.43-.27.84-.57,1.21-.88.37-.31.67-.61.9-.89ZM316.78,69h9.4v1.62h-9.4v-1.62ZM317.48,72.28h8v10.5h-8v-10.5ZM319.2,73.72v1.62h4.48v-1.62h-4.48ZM319.2,76.7v1.62h4.48v-1.62h-4.48ZM319.2,79.68v1.66h4.48v-1.66h-4.48ZM320.38,69.86l2.06.26c-.2.59-.4,1.17-.61,1.75-.21.58-.4,1.08-.57,1.49l-1.6-.3c.09-.31.19-.65.28-1.02s.18-.75.26-1.14c.08-.39.14-.73.18-1.04ZM321.8,84.04l1.36-.94c.39.24.79.51,1.22.82s.83.61,1.22.92c.39.31.71.59.96.84l-1.46,1.02c-.23-.24-.53-.52-.9-.83-.37-.31-.77-.63-1.19-.96-.42-.33-.82-.62-1.21-.87Z"/>
          </g>
        </g>
      </g>
    </g>
    <g id="_圖層_1-2" data-name="_圖層_1">
      <g id="_圖層_1-2-3" data-name="_圖層_1-2">
        <g id="_圖層_1-2-4" data-name="_圖層_1-2">
          <g id="_圖層_1-2-2-3" data-name="_圖層_1-2-2">
            <g id="_圖層_1-2-2-4" data-name="_圖層_1-2-2">
              <g id="_圖層_1-2-2-2">
                <g>
                  <g>
                    <path class="cls-44" d="M365.2,73.33l-.68-1.88h-1.8s-1.8,0-1.8,0l-.68,1.88c-.2.55.21,1.13.8,1.14.56.01,1.14-.03,1.69-.1.55.07,1.13.11,1.69.1.59-.01.99-.59.8-1.14Z"/>
                    <path class="cls-10" d="M363.04,69.19s1.78-.03,1.7,1.98-2.61-.02-2.61-.02l.91-1.96h0Z"/>
                    <path class="cls-10" d="M363.35,69.35s-.35,1.87-.97,2.14c-.32.13-.21.61-.44.85-.41.42-1.43-.76-1.43-1.35,0-.86.18-1.22,1.09-1.76.56-.33,1.21-.74,1.75.13h0Z"/>
                    <path class="cls-45" d="M358.74,80.93l-1.87-.18s-1.23,3.63.94,3.82l.94-3.65h0Z"/>
                    <path class="cls-45" d="M366.85,80.93l1.87-.18s1.23,3.63-.94,3.82l-.94-3.65h0Z"/>
                    <ellipse class="cls-45" cx="362.59" cy="71.68" rx="1.93" ry="2.37"/>
                    <polygon class="cls-8" points="362 73.31 363.41 73.31 363.7 75.96 362.75 76.43 361.74 75.96 362 73.31"/>
                    <g>
                      <path class="cls-5" d="M361.89,74.9s-2.51.12-3.78,1.77c-.72.94-1.35,2.33-1.68,4.47l3.66.59,1.79-6.83h0Z"/>
                      <path class="cls-5" d="M363.61,74.91h0l1.79,6.83,3.66-.59c-.33-2.14-.96-3.53-1.68-4.47-1.27-1.66-3.78-1.77-3.78-1.77h0Z"/>
                      <path class="cls-34" d="M367.36,81.73c-.3-1.45-.53-5.48-2.23-6.41-.11-.06-1.45-.46-1.5-.41-.16.18-.49.46-.89.55-.39-.09-.73-.37-.89-.55-.05-.05-1.39.35-1.5.41-1.71.94-1.92,4.97-2.23,6.41-.14.67-.94,2.94-.51,3.53.14.19,1.47.05,1.74.08.54.07,1.98.18,3.39.21,1.42-.03,2.85-.14,3.39-.21.26-.04,1.6.11,1.74-.08.43-.59-.37-2.86-.51-3.53Z"/>
                    </g>
                    <rect class="cls-46" x="366.66" y="77.74" width=".08" height="2.91" transform="translate(-8 97.61) rotate(-15)"/>
                    <line class="cls-27" x1="358.36" y1="80.57" x2="359.12" y2="77.76"/>
                    <path class="cls-8" d="M360.53,71.28c.16-.06.34.05.43.24s.02.41-.13.47-.34-.05-.43-.24-.02-.41.13-.47h0Z"/>
                    <path class="cls-8" d="M364.64,71.28c.15.07.21.27.13.47-.08.2-.27.31-.43.24s-.21-.27-.13-.47.27-.31.43-.24h0Z"/>
                    <path class="cls-4" d="M362.23,72.94h.85s-.03.3-.41.32-.44-.32-.44-.32h0Z"/>
                    <path class="cls-10" d="M361.11,69.74s2.31,2.72,3.25,1.89c.94-.83-.58-2.06-.58-2.06,0,0-1.15-.96-2.67.16Z"/>
                    <path class="cls-10" d="M361.74,70.1l-1.09,1.17s-.28-.91.33-1.39c.62-.47.75.21.75.21h0Z"/>
                  </g>
                  <g>
                    <path class="cls-10" d="M342.66,70.14s.37,1.26-.64,1.44c0,0-.69-1.08-.83-1.67-.27-1.09,1.92-1.63,2.88-1.29s.53,1.28-1.42,1.52h0Z"/>
                    <path class="cls-10" d="M343.87,70.14c-1.96-.25-2.39-1.18-1.42-1.52.96-.34,3.15.2,2.88,1.29-.14.59-.83,1.67-.83,1.67-1.01-.17-.64-1.44-.64-1.44h0Z"/>
                    <path class="cls-45" d="M339.38,80.78l-1.87-.18s-1.23,3.63.94,3.82l.94-3.65h0Z"/>
                    <path class="cls-45" d="M347.49,80.78l1.87-.18s1.23,3.63-.94,3.82l-.94-3.65h0Z"/>
                    <ellipse class="cls-45" cx="343.23" cy="71.54" rx="1.93" ry="2.37"/>
                    <polygon class="cls-8" points="342.65 73.17 344.05 73.17 344.34 75.82 343.39 76.29 342.38 75.82 342.65 73.17"/>
                    <g>
                      <path class="cls-1" d="M342.53,74.76s-2.51.12-3.78,1.77c-.72.94-1.35,2.33-1.68,4.47l3.66.59,1.79-6.83h0Z"/>
                      <path class="cls-1" d="M344.25,74.76h0l1.79,6.83,3.66-.59c-.33-2.14-.96-3.53-1.68-4.47-1.27-1.66-3.78-1.77-3.78-1.77h0Z"/>
                      <path class="cls-13" d="M348.01,81.59c-.3-1.45-.53-5.48-2.23-6.41-.11-.06-1.45-.46-1.5-.41-.16.18-.49.46-.89.55-.39-.09-.73-.37-.89-.55-.05-.05-1.39.35-1.5.41-1.71.94-1.92,4.97-2.23,6.41-.14.67-.94,2.94-.51,3.53.14.19,1.47.05,1.74.08.54.07,1.98.18,3.39.21,1.42-.03,2.85-.14,3.39-.21.26-.04,1.6.11,1.74-.08.43-.59-.37-2.86-.51-3.53Z"/>
                    </g>
                    <line class="cls-17" x1="347.73" y1="80.43" x2="346.98" y2="77.62"/>
                    <path class="cls-42" d="M339,80.47h0s-.04-.03-.03-.05l.75-2.81s.03-.04.05-.03c.02,0,.04.03.03.05l-.75,2.81s-.02.03-.04.03h0Z"/>
                    <path class="cls-8" d="M341.17,71.14c.16-.06.34.05.43.24s.02.41-.13.47-.34-.05-.43-.24-.02-.41.13-.47h0Z"/>
                    <path class="cls-8" d="M345.28,71.14c.15.07.21.27.13.47s-.27.31-.43.24-.21-.27-.13-.47.27-.31.43-.24h0Z"/>
                    <path class="cls-4" d="M342.87,72.79h.85s-.03.3-.41.32c-.39.01-.44-.32-.44-.32h0Z"/>
                    <path class="cls-10" d="M344.8,69.38s1.23.36.48,1.57c-.76,1.22-.48-1.57-.48-1.57h0Z"/>
                    <path class="cls-10" d="M341.63,69.38s.27,2.78-.48,1.57c-.75-1.21.48-1.57.48-1.57h0Z"/>
                    <path class="cls-10" d="M341.63,70.05s3.43,1.18,3.3-.16c-.12-1.24-2.27-.7-2.48-1.28l-.65,1.14-.16.29h0Z"/>
                  </g>
                  <g>
                    <path class="cls-45" d="M348.46,81.02l-2.15-.21s-1.41,4.18,1.07,4.4l1.07-4.2h0Z"/>
                    <path class="cls-45" d="M357.79,81.02l2.15-.21s1.41,4.18-1.07,4.4l-1.07-4.2h0Z"/>
                    <ellipse class="cls-45" cx="352.88" cy="70.39" rx="2.22" ry="2.73"/>
                    <polygon class="cls-8" points="352.22 72.26 353.83 72.26 354.16 75.31 353.07 75.85 351.91 75.31 352.22 72.26"/>
                    <g>
                      <path class="cls-12" d="M352.08,74.09s-2.89.13-4.34,2.04c-.83,1.08-1.55,2.68-1.94,5.14l4.22.68,2.06-7.86h0Z"/>
                      <path class="cls-12" d="M354.06,74.1h0l2.06,7.86,4.22-.68c-.38-2.46-1.11-4.06-1.94-5.14-1.46-1.9-4.34-2.04-4.34-2.04h0Z"/>
                      <path class="cls-49" d="M358.38,81.95c-.35-1.67-.6-6.3-2.56-7.38-.12-.07-1.67-.53-1.73-.47-.19.21-.57.53-1.02.63-.45-.11-.84-.43-1.02-.63-.06-.06-1.6.4-1.73.47-1.96,1.08-2.21,5.71-2.56,7.38-.16.77-1.08,3.39-.59,4.06.16.22,1.7.05,2,.09.62.09,2.27.21,3.9.24,1.63-.03,3.28-.16,3.9-.24.3-.04,1.83.13,2-.09.49-.67-.42-3.29-.59-4.06h0Z"/>
                    </g>
                    <path class="cls-51" d="M358.07,80.66s-.04-.01-.05-.03l-.87-3.23s0-.05.03-.05c.02,0,.05,0,.05.03l.87,3.23s0,.05-.03.05h-.01,0Z"/>
                    <path class="cls-51" d="M348.03,80.66h-.01s-.04-.03-.03-.05l.86-3.23s.03-.04.05-.03c.02,0,.04.03.03.05l-.86,3.23s-.02.03-.05.03h0Z"/>
                    <path class="cls-8" d="M350.52,69.92c.18-.07.4.05.49.28s.02.47-.15.54-.4-.05-.49-.28-.02-.47.15-.54h0Z"/>
                    <path class="cls-8" d="M355.25,69.92c.17.08.24.32.15.54s-.32.36-.49.28-.24-.32-.15-.54c.09-.23.31-.35.49-.28h0Z"/>
                    <path class="cls-4" d="M352.47,71.84h.98s-.03.35-.48.37-.51-.37-.51-.37Z"/>
                    <path class="cls-10" d="M354.35,67.29c-.51-.33-1.02-.54-1.47-.48-.44-.06-.96.15-1.47.48-.77.5-1.39,2.4-1.39,2.4.57.25,1.07.33,1.51.3.27-.02.57-1.2.79-1.54.14,0,.32,0,.56-.02.23.03.41.03.56.02.22.34.52,1.52.79,1.54.43.03.94-.05,1.51-.3,0,0-.62-1.9-1.39-2.4h0Z"/>
                  </g>
                </g>
              </g>
            </g>
          </g>
        </g>
      </g>
    </g>
  </g>
  <g id="a8">
    <g id="g-root-ro_24czjht5gr0-stroke">
      <g id="ro_24czjht5gr0-stroke">
        <path class="cls-18" d="M459.85,68h95.45s27.27,0,27.27,28.57v92.86s0,28.57-27.27,28.57h-95.45s-27.27,0-27.27-28.57v-92.86s0-28.57,27.27-28.57"/>
      </g>
    </g>
    <g>
      <g id="g-root-tx__m8leinht5hj6-fill">
        <g id="tx__m8leinht5hj6-fill">
          <g class="cls-36">
            <g class="cls-36">
              <path class="cls-52" d="M474.17,172.52h.4l.32-.08,1.02.72c-.48,1.2-1.1,2.36-1.86,3.47-.76,1.11-1.6,2.12-2.51,3.02-.91.9-1.83,1.65-2.75,2.25-.05-.17-.12-.38-.21-.63-.09-.25-.18-.49-.28-.73s-.2-.42-.29-.54c.84-.48,1.66-1.1,2.47-1.86.81-.76,1.54-1.59,2.19-2.5.65-.91,1.15-1.83,1.5-2.76v-.36ZM468.57,172.52h6.18v1.72h-6.18v-1.72ZM470.59,169.86l1.46-.8c.37.39.74.82,1.09,1.3.35.48.62.91.81,1.28l-1.56.92c-.16-.37-.41-.81-.76-1.32-.35-.51-.69-.97-1.04-1.38ZM471.35,178.8l1.86-2.2v11.06h-1.86v-8.86ZM473.13,177.12c.15.11.36.3.65.57s.59.57.92.89.63.62.9.89c.27.27.48.47.61.59l-1.18,1.58c-.16-.24-.37-.52-.64-.85-.27-.33-.55-.66-.84-1.01-.29-.35-.57-.67-.84-.97-.27-.3-.49-.55-.68-.75l1.1-.94ZM475.29,185.1h11.56v1.86h-11.56v-1.86ZM476.19,175.26h10.2v1.84h-10.2v-1.84ZM480.39,169.14h1.92v16.86h-1.92v-16.86Z"/>
              <path class="cls-52" d="M497.31,169l1.68.6c-.72.93-1.6,1.77-2.64,2.52-1.04.75-2.17,1.4-3.38,1.97-1.21.57-2.45,1.04-3.72,1.43-.07-.12-.16-.27-.28-.46-.12-.19-.25-.37-.38-.56s-.26-.33-.38-.44c1.23-.32,2.42-.72,3.58-1.21,1.16-.49,2.22-1.05,3.17-1.7.95-.65,1.74-1.36,2.35-2.15ZM490.73,174.88h13.68v5.24h-13.68v-5.24ZM491.89,180.94h11.54v6.66h-1.94v-5.38h-7.74v5.46h-1.86v-6.74ZM492.33,176.1v2.8h10.4v-2.8h-10.4ZM492.97,183.34h9.32v1.28h-9.32v-1.28ZM492.97,185.76h9.34v1.3h-9.34v-1.3ZM493.33,176.64l1.32-.42c.23.35.44.73.63,1.14s.32.77.39,1.08l-1.4.48c-.07-.32-.19-.69-.36-1.12s-.37-.81-.58-1.16ZM494.07,172.72h7.04v1.28h-7.04v-1.28ZM496.71,175.3h1.56v4.2h-1.56v-4.2ZM498.49,169.78c.45.45,1,.89,1.65,1.31.65.42,1.35.81,2.12,1.17.77.36,1.57.68,2.4.96.83.28,1.66.51,2.47.7-.2.16-.42.39-.65.68-.23.29-.42.55-.55.78-.81-.23-1.64-.51-2.48-.85-.84-.34-1.65-.73-2.43-1.16-.78-.43-1.51-.9-2.18-1.41s-1.27-1.03-1.79-1.58l1.44-.6ZM500.27,176.14l1.6.44c-.23.43-.45.85-.67,1.27-.22.42-.42.78-.61,1.07l-1.3-.42c.16-.32.34-.71.54-1.16.2-.45.35-.85.44-1.2Z"/>
              <path class="cls-52" d="M508.57,182.32h18v1.54h-18v-1.54ZM508.97,176.3h17.28v3.86h-1.88v-2.46h-13.6v2.46h-1.8v-3.86ZM514.11,169.26l.8,1.12c-.6.24-1.28.44-2.05.6-.77.16-1.45.29-2.05.38l-.66-1.06c.39-.08.82-.18,1.31-.29.49-.11.96-.24,1.43-.38s.87-.26,1.22-.37ZM510.15,170.3l1.8.46.38,6.2h-1.78l-.4-6.66ZM511.09,171.98h3.7v1.24h-3.7v-1.24ZM511.17,174.14h3.68v1.22h-3.68v-1.22ZM512.37,178.84h9.16v1.38h-9.16v-1.38ZM516.85,181.58h1.86v4.22c0,.45-.06.8-.19,1.04-.13.24-.37.43-.73.56-.36.12-.81.19-1.35.21-.54.02-1.2.03-1.99.03-.04-.24-.12-.51-.24-.8-.12-.29-.25-.56-.38-.8.39.01.76.02,1.11.03.35,0,.67,0,.94,0h.55c.16,0,.27-.02.33-.07.06-.05.09-.14.09-.27v-4.16ZM518.49,172.64l1.26.4c-.48.65-1.08,1.27-1.8,1.85-.72.58-1.45,1.06-2.18,1.45-.09-.13-.25-.3-.46-.5-.21-.2-.39-.36-.52-.48.71-.32,1.4-.72,2.07-1.19.67-.47,1.22-.98,1.63-1.53ZM518.45,169.28l1.26.36c-.44.61-1.01,1.19-1.7,1.74s-1.37,1-2.04,1.36c-.11-.12-.27-.27-.48-.45s-.4-.32-.56-.43c.69-.32,1.36-.7,1.99-1.15.63-.45,1.14-.92,1.53-1.43ZM515.25,173.64l.9-.78c.45.21.92.46,1.4.74.48.28.94.57,1.37.86.43.29.79.57,1.07.84l-.98.88c-.25-.27-.59-.55-1.01-.85-.42-.3-.87-.6-1.35-.9-.48-.3-.95-.56-1.4-.79ZM515.33,170.26l.9-.78c.43.19.87.41,1.33.67.46.26.9.53,1.31.8s.75.52,1.02.75l-.94.88c-.25-.24-.58-.5-.98-.78s-.83-.56-1.29-.83c-.46-.27-.91-.51-1.35-.71ZM521.05,178.84h.46l.4-.1,1.08.98c-.48.36-1.01.71-1.6,1.06s-1.19.67-1.81.98c-.62.31-1.24.58-1.85.82-.11-.16-.25-.34-.43-.53s-.33-.35-.45-.47c.51-.19,1.03-.42,1.56-.7s1.03-.57,1.5-.87.85-.58,1.14-.83v-.34ZM520.31,169.82h3.78v1.24h-3.78v-1.24ZM520.33,174.14h3.46v1.22h-3.46v-1.22ZM520.43,171.98h3.5v1.24h-3.5v-1.24ZM523.35,169.82h1.8c-.04.79-.09,1.62-.14,2.5s-.11,1.73-.18,2.56c-.07.83-.13,1.54-.2,2.14h-1.82c.08-.63.16-1.35.23-2.18.07-.83.14-1.68.19-2.56.05-.88.09-1.7.12-2.46Z"/>
              <path class="cls-52" d="M529.31,170h1.86v17.68h-1.86v-17.68ZM530.21,173h5.32v1.38h-5.32v-1.38ZM530.37,170h6.32v7.52h-6.32v-1.54h4.54v-4.42h-4.54v-1.56ZM545.05,170v1.56h-4.9v4.44h4.9v1.56h-6.7v-7.56h6.7ZM539.43,173h5.4v1.38h-5.4v-1.38ZM544.05,170h1.9v15.26c0,.59-.07,1.04-.22,1.35-.15.31-.41.55-.8.71s-.9.26-1.54.29c-.64.03-1.43.05-2.36.05-.03-.17-.08-.38-.15-.61-.07-.23-.16-.47-.25-.72-.09-.25-.19-.45-.28-.61.44.01.88.02,1.31.03s.82,0,1.15,0h.7c.2-.01.34-.06.42-.13s.12-.2.12-.39v-15.24Z"/>
            </g>
          </g>
        </g>
      </g>
      <g id="_圖層_1-3" data-name="_圖層_1">
        <g id="_圖層_1-2-5" data-name="_圖層_1-2">
          <g id="_圖層_1-2-6" data-name="_圖層_1-2">
            <g>
              <path class="cls-38" d="M498.32,111.67h0c-.66-.68-.2-1.85.74-1.85h0c1.06,0,1.93-.88,1.93-1.98v-.56c0-1.09-.88-1.98-1.94-1.99h0c-.95,0-1.41-1.17-.75-1.85h0c.75-.76.75-2.01,0-2.79l-.39-.4c-.75-.76-1.99-.79-2.74,0h0c-.66.68-1.81.19-1.81-.76h0c0-1.09-.88-1.98-1.94-1.99h-.55c-1.06,0-1.93.88-1.93,1.96h0c0,.97-1.15,1.45-1.81.75h0c-.76-.76-1.99-.79-2.74,0l-.39.4c-.75.76-.75,2.01,0,2.79.66.68.2,1.85-.74,1.85h0c-1.06,0-1.93.88-1.93,1.98v.56c0,1.09.88,1.98,1.94,1.99h0c.95,0,1.41,1.17.75,1.85h0c-.75.76-.75,2.03,0,2.79l.39.4c.76.76,1.99.79,2.74,0,.66-.68,1.81-.19,1.81.76s.88,1.98,1.94,1.99h.55c1.06,0,1.93-.88,1.93-1.96h0c0-.97,1.15-1.45,1.81-.75h0c.75.76,1.99.79,2.74,0l.39-.39c.75-.76.75-2.03,0-2.79h0ZM487.75,110.99c-1.89-1.92-1.89-5.01-.03-6.93s4.93-1.89,6.8.03c1.89,1.92,1.89,5.01.03,6.93s-4.93,1.89-6.8-.03h0Z"/>
              <path class="cls-29" d="M481.8,123.59s-3.55-12.11-13.91-13.96l10.08,14.34s-5.81-7.42-15.39-1.82c0,0,10.3,1.52,14.42,6.04,0,0,2.23,3.87,3.25,4.03,6.28.91,1.54-8.62,1.54-8.62h0,0Z"/>
              <g>
                <rect class="cls-35" x="479.12" y="113.69" width="50.41" height="35.95"/>
                <rect class="cls-15" x="479.12" y="110.05" width="50.41" height="5.15"/>
                <circle class="cls-31" cx="482.07" cy="112.63" r=".94"/>
                <circle class="cls-31" cx="484.85" cy="112.62" r=".94"/>
                <circle class="cls-31" cx="487.63" cy="112.62" r=".94"/>
              </g>
              <path class="cls-45" d="M510.66,140.81c3.2-4.43,5.14-6.62,8.28-11.15l2.86.45c-4.9,10.02-4.73,13.89-8.6,16.64-8.09-1.6-1.51,1.53-2.53-5.94h0Z"/>
              <path class="cls-45" d="M519.93,132.55l3.44-1.09c.69-.21,1.26-.68,1.65-1.3l1.53-2.49c.53-.86.04-2-.97-2.2h0l-4.24,1.62c-.95.36-1.75,1.11-2.3,2.08l-.9,1.64,1.79,1.74h0Z"/>
              <path class="cls-8" d="M510.64,131.17l2.98,9.63c.46.16,1.18,5.09-.99,6.43h0c-1.53,1-3.59.05-3.8-1.76l-1.7-7.28-.29-5.46,3.8-1.55h0v-.02h0Z"/>
              <path class="cls-12" d="M505.8,122.37s2.51.44,5.95,10.32l-4.56,7.1-1.39-17.41h0Z"/>
              <path class="cls-12" d="M501.97,120.44c-1.67,2.53-3.63.66-4.28-.23-.1-.14-2.88.9-3.1,1.05-3.51,2.43-3.97,12.85-4.59,16.61-.29,1.74-1.93,7.63-1.05,9.14.29.5,3.04.11,3.58.21,2.3.4,12.57,1.2,13.97-.36,1.4-1.56.35-4.47.63-6.33,1.41-9.72-1.3-18.16-1.3-18.16l-3.85-1.93h-.02,0Z"/>
              <path class="cls-8" d="M503.1,116.37s-.56,3.21-1.04,5.89c-.13.71-.63,1.3-1.31,1.53s-1.43.09-1.99-.38c-.18-.15-.35-.3-.51-.45-.74-.65-1.04-1.67-.76-2.63.69-2.43,1.98-6.89,1.98-6.89l3.64,2.91h0v.02h0Z"/>
              <path class="cls-10" d="M503.21,110.96s2.69.79,1.05,3.41c-1.65,2.64-1.05-3.41-1.05-3.41h0Z"/>
              <path class="cls-8" d="M503.95,112.91c-.15-.84-.65-1.58-1.36-2.04-.71-.46-1.59-.62-2.43-.4h0c-1.6.39-2.63,1.98-2.33,3.59.18.94.36,1.96.53,2.84.11.61.46,1.14.99,1.46.51.33,1.14.45,1.73.29.55-.14,1.14-.28,1.67-.41,1.18-.29,1.92-1.45,1.71-2.64-.15-.83-.33-1.79-.5-2.69h0Z"/>
              <path class="cls-10" d="M499.53,113.17s.8,2.75-1.39,3.13c0,0-1.49-2.36-1.8-3.64-.58-2.38,4.18-3.54,6.28-2.8,2.1.74,1.17,2.78-3.09,3.32h0Z"/>
              <path class="cls-8" d="M498.01,115.11c.39-.16.86.11,1.06.61s.05,1.01-.33,1.18-.86-.11-1.06-.61-.05-1.01.33-1.18h0Z"/>
              <path class="cls-10" d="M504.46,115.57c.11-.27,1.31,3.7-1.21,4.08-2.51.38-3.71-.53-4.54-5.13,0,0,1.4,2.73,2.9,2.66,3.11-.13,2.71-1.31,2.85-1.62h0Z"/>
              <path class="cls-10" d="M501.08,112.85s5.3-1.19,3.71-3.39c-1.47-2.04-4.56,3.15-5.46,2.4l1.75.99h0Z"/>
              <path class="cls-4" d="M503.81,116.55l-1.47.4s.3.99.99.71c.69-.28.49-1.12.49-1.12h0Z"/>
              <path class="cls-12" d="M507.55,132.55c-2,5.32-17.6,1.66-15.91-.89,2.36-3.56-1.03,2.46-1.66,6.22-.29,1.74-2.01,10.06-1.14,11.58.29.5,18.67.13,18.67.13-.69-4.65.28-11.79.04-13.66-.62-4.8,0-3.39,0-3.39h-.03.02,0Z"/>
              <path class="cls-8" d="M484.91,134.55l-.58,9.98c0,2.15,1.06,4.24,2.96,5.24l7.89-.08-4.77-5.25.19-11.47-5.69,1.56h0v.02h0Z"/>
              <path class="cls-12" d="M497.59,119.73s-6.5.3-9.78,4.59c-1.86,2.43-3.5,6.03-4.36,11.57l9.48,1.53,4.64-17.68h0Z"/>
              <line class="cls-25" x1="490.62" y1="136.69" x2="491.66" y2="130.56"/>
              <path class="cls-25" d="M507.55,135.51s-.05-1.82-.53-5.49"/>
              <rect class="cls-31" x="479.06" y="146.52" width="53.5" height="1.11"/>
              <rect class="cls-14" x="479.06" y="146.52" width="27.84" height="1.11"/>
              <circle class="cls-14" cx="507.14" cy="147.06" r="1.04"/>
              <g>
                <path class="cls-8" d="M530.22,140.77s3.26-.94,4.59-2.1c1.31-1.18-.13-1.53-.58-1.49s-4.07,2.43-4.07,2.43l.06,1.16h0Z"/>
                <path class="cls-8" d="M530.88,140.63s-1.58.55-1.79-.35c-.2-.9,1.17-1.2,1.58-.95s.2,1.3.2,1.3h0Z"/>
                <path class="cls-2" d="M535.94,138.59s-1.19,2.84-1.16,3.41c.09,1.11.64,1.94.64,1.94l5.14.62c1.47.18,2.64-.99,2.46-2.44v-.03c0-.14-.03-.28-.04-.41-.06-.65-.23-2.61-.23-2.61-1.89-1.03-3.79-.39-6.3-1.38l-.53.9h0Z"/>
                <path class="cls-2" d="M524.94,149.6c.36-.62,1.67-5.95,2.73-8.14.29-.61.81-.99,1.43-1.04l6.42-.5,1.38,4.44-7.11-.24c-.45,1.82-1.86,4.21-3.51,6.23l-1.34-.75h-.03,0Z"/>
                <polygon class="cls-8" points="535.38 133.89 531.38 131.31 531.33 132.9 534.52 135.69 535.38 133.89"/>
                <path class="cls-8" d="M531.86,133.13s-2.74-.64-2.25-1.6,1.87-.4,2.05.1c.18.5.21,1.51.21,1.51h0Z"/>
                <path class="cls-8" d="M538.14,127.86s.25,1.04.45,1.9c.05.23.23.41.45.48s.48,0,.64-.18l.16-.16c.23-.23.31-.58.2-.88-.28-.8-.79-2.23-.79-2.23l-1.15,1.04h0v.02h.02Z"/>
                <path class="cls-8" d="M539.83,126.81c.09-.3-.08-.62-.38-.7-.33-.1-.73-.21-1.05-.3-.3-.09-.58.1-.71.39-.16.34-.33,1.08-.38,1.64-.03.31.13.65.44.74.33.1,1.38.06,1.66-.48.2-.41.33-.83.45-1.26h0v-.02h-.03Z"/>
                <path class="cls-10" d="M540.38,127.78s.33-1.17-.09-1.69c-.55-.68-1.35-1.12-2.4-.46,0,0-.4,1.84,2.48,2.15h0Z"/>
                <path class="cls-5" d="M538.67,129.92l2.04-.08c.59-.11,1.35-.64,1.62-.1.23.46.48,1.14.69,2.04v1.06c-.38.58-.33,2.28-.54,2.94-.56,1.74,1.54,1.26.28,3.26-2.61-.25-5.79,1.94-6.55-.06.09-.39-.51-3.89-.45-4.24.8-3.93.14-2.58,2.07-4.45.23-.23.53-.35.84-.36h-.02Z"/>
                <path class="cls-44" d="M539.68,126.31s1.03-1.6,1.8-.58-.58,1.92-1.59,1.51c-1.03-.41-.19-.94-.19-.94h-.02Z"/>
                <path class="cls-6" d="M538.3,128.61l.08.31s.35,0,.46-.29l-.54-.03h0Z"/>
                <path class="cls-44" d="M539.24,126.83s-.54.49-.36.99c.19.56.36.96.7,1.29,1.23,1.17-1.47,2.93,1.16,3.89,2.63.97,2.91-.24,2.68-1.8-.15-1.03-1.26-1.52-1.31-2.1-.08-1.2-1.08-1.29-.97-2,.11-.7-1.09-1.17-1.09-1.17l-.83.91h.03v-.02h0Z"/>
                <path class="cls-8" d="M539.32,127.98c-.15.21-.44.28-.59.15s-.19-.4-.03-.61.44-.28.59-.15c.18.13.19.4.03.61Z"/>
                <path class="cls-46" d="M535.19,139.41s.35-.74.2-.96.36-.16.35-.8.04-2.94.04-2.94l.91-.81s.45,5.21,1.84,5.79c-1.05.7-2.23.23-3.34-.3h0Z"/>
                <path class="cls-5" d="M538.26,130.04c-3.4,1.55-3.32,3.55-4.51,6.73-.11.29-.69,1.04-.1,1.71,1.34,1.49,2.4-.86,3.18-2.53.66-1.4,1.66-2.78,1.66-2.78l-.23-3.15h0v.02Z"/>
                <path class="cls-24" d="M540.05,125.91s-.25,1.11.73,1.3"/>
                <g>
                  <path class="cls-10" d="M530.88,133.37l-1.82.8c-.19.09-.41-.03-.48-.25l-1.19-3.74c-.08-.23.03-.48.23-.56l1.82-.8c.19-.09.41.03.48.25l1.19,3.74c.08.23-.03.48-.23.56h0Z"/>
                  <polygon class="cls-4" points="530.88 132.75 528.78 133.68 527.55 129.87 529.67 128.96 530.88 132.75"/>
                </g>
                <path class="cls-8" d="M531.05,132.22l-.68-.18c-.16-.05-.27-.21-.23-.38h0c.04-.16.21-.27.38-.23l.68.18c.16.05.27.21.23.38h0c-.04.16-.21.27-.38.23Z"/>
              </g>
              <g>
                <path class="cls-37" d="M517.9,160.73h16.31v-6.89h-16.31c1.58,0,1.58,6.89,0,6.89h0Z"/>
                <path class="cls-30" d="M517.98,154.03h16.24v-.83h-16.24c-.23,0-.41.19-.41.41h0c0,.23.19.41.41.41h0v.02h0Z"/>
                <path class="cls-30" d="M518,161.14h16.22v-.9h-16.22c-.25,0-.45.2-.45.45h0c0,.25.2.45.45.45h0Z"/>
                <path class="cls-30" d="M529.87,153.2h16.87c.36,0,.36,7.95,0,7.95h-16.87c1.9,0,1.9-7.95,0-7.95h0Z"/>
                <path class="cls-13" d="M530.98,153.2h19.06c1.39,0,2.53,1.14,2.53,2.53v2.9c0,1.39-1.14,2.53-2.53,2.53h-19.06c1.9,0,1.9-7.95,0-7.95h0Z"/>
                <line class="cls-21" x1="529.87" y1="155" x2="519.64" y2="155"/>
                <line class="cls-21" x1="529.87" y1="156.59" x2="519.64" y2="156.59"/>
                <line class="cls-21" x1="529.87" y1="158.19" x2="519.64" y2="158.19"/>
                <line class="cls-21" x1="529.87" y1="159.8" x2="519.64" y2="159.8"/>
                <g>
                  <rect class="cls-50" x="519.64" y="148.34" width="1.69" height="4.4"/>
                  <g>
                    <path class="cls-37" d="M520.49,152.46h15.82v-3.9h-15.82c-.19,1.41-.19,2.73,0,3.9h0Z"/>
                    <path class="cls-50" d="M520.05,148.77h16.24v-.83h-16.24c-.23,0-.41.19-.41.41h0c0,.23.19.41.41.41h0v.02h0Z"/>
                    <path class="cls-50" d="M520.08,153.2h16.22v-.89h-16.22c-.25,0-.45.2-.45.45h0c0,.25.2.45.45.45h0v-.02h0Z"/>
                    <path class="cls-28" d="M532.24,147.92h18.71c.66,0,1.21.16,1.21.83-1.12,1.03-1.31,2.69,0,3.53,0,.66-.54.89-1.21.89h-18.71v-5.26h0Z"/>
                    <path class="cls-47" d="M532.24,148.77h19.92c-.79,1.24-.74,2.41,0,3.53h-19.92c-.2-1.2-.23-2.39,0-3.53Z"/>
                    <line class="cls-21" x1="531.55" y1="149.71" x2="521.33" y2="149.71"/>
                    <line class="cls-21" x1="531.55" y1="151.32" x2="521.33" y2="151.32"/>
                  </g>
                </g>
                <g>
                  <path class="cls-37" d="M524.72,147.63h11v-4.64h-11c1.06,0,1.06,4.64,0,4.64h0Z"/>
                  <path class="cls-33" d="M524.77,143.16h10.97v-.56h-10.97c-.15,0-.28.13-.28.28h0c0,.15.13.28.28.28h0Z"/>
                  <path class="cls-33" d="M524.79,147.94h10.94v-.61h-10.94c-.16,0-.3.14-.3.3h0c0,.16.14.3.3.3h0Z"/>
                  <path class="cls-33" d="M532.79,142.56h11.38c.24,0,.24,5.36,0,5.36h-11.38c1.3,0,1.3-5.36,0-5.36Z"/>
                  <path class="cls-46" d="M533.56,142.56h12.87c.95,0,1.71.76,1.71,1.71v1.96c0,.95-.76,1.71-1.71,1.71h-12.87c1.3,0,1.3-5.36,0-5.36h0Z"/>
                  <line class="cls-21" x1="532.79" y1="143.77" x2="525.9" y2="143.77"/>
                  <line class="cls-21" x1="532.79" y1="144.86" x2="525.9" y2="144.86"/>
                  <line class="cls-21" x1="532.79" y1="145.93" x2="525.9" y2="145.93"/>
                  <line class="cls-21" x1="532.79" y1="147.01" x2="525.9" y2="147.01"/>
                </g>
              </g>
              <g>
                <path class="cls-50" d="M475.27,132.99c-.03.49.28.89.66.9.39,0,.71-.36.74-.84.03-.49-.28-.89-.66-.9s-.71.36-.74.84Z"/>
                <g>
                  <rect class="cls-44" x="466.92" y="147.7" width="14.53" height="2.76" rx="1.35" ry="1.35"/>
                  <path class="cls-10" d="M464.8,162.06h0c-.15-.06-.21-.23-.15-.36l5.14-12.74c.06-.15.23-.21.36-.15h0c.15.06.21.23.15.36l-5.14,12.74c-.06.15-.23.21-.36.15h0Z"/>
                  <path class="cls-10" d="M475.63,162.06h0c.15-.06.21-.23.15-.36l-5.14-12.74c-.06-.15-.23-.21-.36-.15h0c-.15.06-.21.23-.15.36l5.14,12.74c.06.15.23.21.36.15h0Z"/>
                  <path class="cls-10" d="M482.25,162.06h0c.15-.06.21-.23.15-.36l-5.14-12.74c-.06-.15-.23-.21-.36-.15h0c-.15.06-.21.23-.15.36l5.14,12.74c.06.15.23.21.36.15h0Z"/>
                  <path class="cls-10" d="M471.66,162.06h0c-.15-.06-.21-.23-.15-.36l5.14-12.74c.06-.15.23-.21.36-.15h0c.15.06.21.23.15.36l-5.14,12.74c-.06.15-.23.21-.36.15h0Z"/>
                </g>
                <path class="cls-43" d="M479.35,145.69h1.56c1.39.04,2.51,1.05,2.5,2.31l-.06,5.49-.64-.31.06-5.1c0-.99-.86-1.76-1.94-1.79h-1.49v-.61h0Z"/>
                <path class="cls-43" d="M475.5,146.82l5.15.09c.4,0,.73-.31.74-.71h0c0-.4-.31-.73-.71-.74l-5.15-.09c-.4,0-.73.31-.74.71h0c0,.4.31.73.71.74h0Z"/>
                <path class="cls-43" d="M474.24,140.33c0,.18-.15.33-.33.33s-.33-.15-.33-.33.15-.33.33-.33.33.15.33.33Z"/>
                <path class="cls-43" d="M474.43,141.93c0,.18-.15.33-.33.33s-.33-.15-.33-.33.15-.33.33-.33.33.15.33.33Z"/>
                <path class="cls-43" d="M474.62,143.73c0,.18-.15.33-.33.33s-.33-.15-.33-.33.15-.33.33-.33.33.15.33.33Z"/>
                <path class="cls-8" d="M478.1,138.87l1.09,4.09c.18.06-.46,1.74-1.34,2.27l-.3.86-.24-.99-.1-1.93-.63-3.7,1.51-.62h0v.02h0Z"/>
                <path class="cls-1" d="M476.01,135.39s1.59.18,3.01,4.59l-2.54,1.35-.48-5.95h0Z"/>
                <polygon class="cls-8" points="481.75 161.06 482.84 160.84 482.89 159.19 481.66 159.4 481.75 161.06"/>
                <path class="cls-2" d="M477.14,143.68s1.23,3.04,1.16,3.66c-.14,1.16-.81,2.01-.81,2.01l-5.85.34c-1.67.1-2.95-1.19-2.69-2.71v-.03c.03-.14.05-.29.06-.45.09-.68.36-2.73.36-2.73,1.84.96,5.13,1.18,8,.29l-.25-.39h.04Z"/>
                <path class="cls-1" d="M474.48,134.63c-.66,1-1.11.24-1.36-.11-.04-.06-1.47.39-1.55.45-1.39.96-1.56,5.09-1.82,6.57-.11.69-.76,3.01-.41,3.61.11.2,1.2.05,1.41.09.9.16,4.97.48,5.54-.15.55-.62.14-1.76.25-2.5.56-3.85-.51-7.18-.51-7.18l-1.52-.76h-.03v-.02Z"/>
                <path class="cls-10" d="M482.84,160.84l1.03.69c.2.16.45.27.7.28h.27c.11,0,.21.1.25.21h0c.04.15-.05.31-.21.34l-2.89-.05s-.68-.14-.24-1.43l1.11-.04h-.02Z"/>
                <polygon class="cls-8" points="474.27 161.06 475.4 160.85 475.91 159.28 474.63 159.52 474.27 161.06"/>
                <path class="cls-10" d="M475.41,160.84l1.03.69c.2.16.45.27.7.28h.27c.11,0,.21.1.25.21h0c.04.15-.05.31-.21.34l-2.89-.05s-.68-.14-.24-1.43l1.11-.04h-.02Z"/>
                <path class="cls-8" d="M475.11,133s-.23,1.26-.41,2.34c-.05.28-.25.51-.51.62-.28.1-.56.04-.79-.15-.08-.06-.14-.13-.2-.18-.29-.27-.41-.66-.3-1.04.28-.97.79-2.73.79-2.73l1.45,1.16h-.03Z"/>
                <path class="cls-11" d="M475.92,131.48s.89.66-.09,1.41.09-1.41.09-1.41h0Z"/>
                <path class="cls-8" d="M475.92,132.31c.06-.33-.03-.68-.23-.95s-.5-.45-.84-.49h0c-.65-.08-1.24.36-1.35,1-.06.38-.14.79-.2,1.14-.04.24,0,.48.16.68.14.19.11.79.35.81.23.03.84.03,1.05.06.48.06.79-.7.86-1.18.06-.33.13-.7.19-1.06h0,0Z"/>
                <path class="cls-11" d="M474.25,131.79s-.09,1.14-.96.97c0,0-.23-1.08-.16-1.6.11-.97,2.04-.74,2.71-.16.67.58.05,1.19-1.6.81h0Z"/>
                <path class="cls-8" d="M473.41,132.31c.16,0,.3.16.31.38,0,.21-.13.39-.29.39s-.3-.16-.31-.38c0-.21.13-.39.29-.39h0Z"/>
                <path class="cls-4" d="M475.36,133.64l-.61-.06s-.03.41.27.4.34-.35.34-.35h0Z"/>
                <path class="cls-2" d="M483.11,159.78c-.08-.76,1.06-6.55,1.03-9.15,0-.73-.34-1.32-.94-1.66l-5.08-2.9-4.29,3.2,7.04,2.99c-.39,1.98-.09,4.94.61,7.65l1.65-.13h-.02Z"/>
                <path class="cls-2" d="M470.98,149.69l.28-1.19,4.05-.62,3,1.09c.9.33,1.64,1.65,1.62,2.6l-3.8,8.19-2.01-.06c0-3.04,1.43-6.93,2.23-7.77l-5.38-2.24h0Z"/>
                <path class="cls-1" d="M476.41,140.22c-.8,2.1-6.67-.15-6-1.17.94-1.4-.41.99-.65,2.46-.11.69-.76,3.01-.41,3.61.11.2.58,1.82.8,1.82,2.88.1,7.66-.06,7.86-.88.28-1.15-1.15-4.01-1.24-4.75-.24-1.9-.33-1.12-.33-1.12h0v.02h-.02,0Z"/>
                <path class="cls-22" d="M480.26,151.07s.24-1.92-.81-2.5c-1.05-.58-2.61-1.38-2.61-1.38"/>
                <path class="cls-20" d="M476.76,140.81s-.27-.99-.39-2.06"/>
                <path class="cls-45" d="M479.19,142.97c.27,1.06.18,2.18-.18,3.32,0,0-1.43.15-1.47,0s.36-3.32.36-3.32h1.29,0Z"/>
                <polygon class="cls-44" points="477.14 149.6 484.33 148.65 480.31 146.41 473.05 147.47 477.14 149.6"/>
                <path class="cls-8" d="M467.68,140.67v3.49c0,.85.45,1.65,1.18,2.07,1.35.81,3.66,1.86,5.74,1.35l.66-.83-5.18-2.61.08-4.54-2.49,1.09h0v-.02h0Z"/>
                <path class="cls-1" d="M471.73,134.94s-1.4.23-2.64,1.53c-.91.99-1.71,2.65-1.76,4.86,0,1.01,3.75,1.01,3.75,0l.65-6.39h0Z"/>
                <polyline class="cls-20" points="470.48 141.93 470.65 139.13 470.48 138.91"/>
                <path class="cls-45" d="M478.18,145.55l-.81.66c-.16.14-.24.33-.23.53l.05.85c.03.3.4.55.74.5h0l.95-.89c.2-.2.3-.49.27-.81l-.06-.54-.89-.29h-.02Z"/>
                <path class="cls-8" d="M474.3,146.52h2.03s1.58.51,1.08,1.26c-.51.76-1.01.3-1.23.2-.21-.1-.81.25-1.98-.55l.1-.94h0v.02h0Z"/>
                <path class="cls-39" d="M477.14,149.6l7.19-.96,1.04-4.55c.09-.36-.28-.7-.7-.64l-5.44.75c-.54.08-.97.45-1.08.91l-1.01,4.47h0v.02h0Z"/>
                <path class="cls-4" d="M480.82,146.43c-.11.4.2.73.7.73s.99-.33,1.12-.73-.2-.73-.7-.73-.99.33-1.12.73Z"/>
                <path class="cls-50" d="M473.02,132.28s-.15-1.89,1.89-1.81c1.84.08,1.54,1.98,1.54,1.98h-.24s.09-1.6-1.29-1.66c-1.62-.06-1.55,1.49-1.55,1.49h-.35s0,0,0,0h0Z"/>
                <path class="cls-50" d="M472.52,132.85c-.03.49.28.89.66.9s.71-.36.74-.84c.03-.49-.28-.89-.66-.9s-.71.36-.74.84Z"/>
                <path class="cls-41" d="M472.67,132.85c0,.24.11.45.28.45s.31-.19.33-.44c0-.24-.11-.45-.28-.45-.16,0-.31.19-.33.44h0Z"/>
                <path class="cls-3" d="M476.48,140.27s-1.23.45-2.27.48c-1.14.05-3.45-.31-3.45-.31l-.1,1.16s2.64,1.5,6.13-.06l-.3-1.25h0v-.02Z"/>
              </g>
              <path class="cls-53" d="M501.23,143.16v-2.09c0-.45.45-.75.85-.61l3.55,1.29c.35.13.35.62,0,.74l-3.55,1.29c-.41.15-.85-.16-.85-.61h0Z"/>
              <rect class="cls-53" x="496.09" y="140.98" width=".81" height="2.66" rx=".38" ry=".38"/>
              <rect class="cls-53" x="497.58" y="140.98" width=".81" height="2.66" rx=".38" ry=".38"/>
              <path class="cls-16" d="M483.45,135.88s1.05-8.95,4.97-12.28c3.9-3.34,8.48-3.99,8.48-3.99"/>
              <path class="cls-21" d="M518.51,160.18s1.45-2.61-.16-6.15"/>
              <path class="cls-37" d="M540.55,161.14h-3.99c1.23,0,1.23-7.98,0-7.98h3.99c1.25,0,1.25,7.98,0,7.98Z"/>
              <g>
                <path class="cls-15" d="M514.98,115.5l-.06,5.1c0,.29.33.45.55.28l2.85-2.24-3.34-3.13h0v-.02h0Z"/>
                <path class="cls-32" d="M536.79,119.66l-18.85.03c-3.09,0-5.64-2.59-5.64-5.77h0c0-3.18,2.53-5.79,5.61-5.79l18.85-.03c3.09,0,5.63,2.59,5.64,5.77h0c0,3.18-2.53,5.79-5.61,5.79h0Z"/>
              </g>
              <g>
                <path class="cls-31" d="M536.7,111.53h-19.71c-.31,0-.58-.27-.58-.58h0c0-.31.27-.58.58-.58h19.71c.31,0,.58.27.58.58h0c0,.31-.27.58-.58.58Z"/>
                <path class="cls-31" d="M536.7,114.57h-19.71c-.31,0-.58-.27-.58-.58h0c0-.31.27-.58.58-.58h19.71c.31,0,.58.27.58.58h0c0,.31-.27.58-.58.58Z"/>
                <path class="cls-31" d="M528.27,117.6h-11.28c-.31,0-.58-.27-.58-.58h0c0-.31.27-.58.58-.58h11.28c.31,0,.58.27.58.58h0c0,.31-.27.58-.58.58Z"/>
              </g>
              <line class="cls-19" x1="518.04" y1="119.61" x2="536.31" y2="119.61"/>
            </g>
          </g>
        </g>
      </g>
    </g>
  </g>
</svg>