<?xml version="1.0" encoding="UTF-8"?>
<svg id="_x39__x5F_心理" xmlns="http://www.w3.org/2000/svg" viewBox="0 0 1130 273">
  <defs>
    <style>
      .cls-1, .cls-2, .cls-3, .cls-4, .cls-5, .cls-6, .cls-7, .cls-8, .cls-9, .cls-10, .cls-11 {
        fill-rule: evenodd;
      }

      .cls-1, .cls-12 {
        fill: #29ba8c;
      }

      .cls-2, .cls-13 {
        fill: #7d5638;
      }

      .cls-14 {
        fill: #7db3a2;
      }

      .cls-15 {
        stroke: #1f1406;
        stroke-width: 2.2px;
      }

      .cls-15, .cls-16, .cls-17, .cls-18, .cls-19, .cls-20, .cls-21, .cls-22, .cls-23, .cls-24 {
        stroke-linecap: round;
        stroke-linejoin: round;
      }

      .cls-15, .cls-25, .cls-17, .cls-18, .cls-19, .cls-20, .cls-21, .cls-26, .cls-22, .cls-23, .cls-24 {
        fill: none;
      }

      .cls-27 {
        fill: #7d7469;
      }

      .cls-3, .cls-28 {
        fill: #24a37b;
      }

      .cls-29 {
        fill: #55cfa7;
      }

      .cls-30, .cls-4 {
        fill: #fff;
      }

      .cls-31 {
        fill: #b0d6c9;
      }

      .cls-32 {
        fill: #edb07e;
      }

      .cls-5 {
        fill: #ffac66;
      }

      .cls-33 {
        fill: #ede0d5;
      }

      .cls-16 {
        fill: #fcf0f0;
        stroke: #fd6a65;
      }

      .cls-16, .cls-25, .cls-18, .cls-26, .cls-23, .cls-24 {
        stroke-width: 2px;
      }

      .cls-34 {
        isolation: isolate;
      }

      .cls-6 {
        fill: #a12a2a;
      }

      .cls-25, .cls-26, .cls-24 {
        stroke: #484848;
      }

      .cls-17 {
        stroke: #3c5c8f;
        stroke-width: 5px;
      }

      .cls-18 {
        stroke: #36261b;
      }

      .cls-35 {
        fill: #5481c9;
      }

      .cls-36 {
        fill: #faf3ed;
      }

      .cls-37 {
        fill: #d1c1b8;
      }

      .cls-38 {
        fill: #dbcfc5;
      }

      .cls-19 {
        stroke: #1f8c6a;
      }

      .cls-39 {
        fill: #5d8ede;
      }

      .cls-40 {
        fill: #6e6964;
      }

      .cls-20 {
        stroke: #c9c1b8;
      }

      .cls-21 {
        stroke: #301b0f;
        stroke-width: 1.2px;
      }

      .cls-41, .cls-10 {
        fill: #30230f;
      }

      .cls-42, .cls-9 {
        fill: #36261b;
      }

      .cls-26, .cls-24 {
        stroke-dasharray: 5 7;
      }

      .cls-7, .cls-43 {
        fill: #db7e5a;
      }

      .cls-44 {
        fill: #e69b5c;
      }

      .cls-45 {
        fill: #e0d6cd;
      }

      .cls-46 {
        fill: #8cb1ed;
      }

      .cls-47 {
        fill: #ffaa85;
      }

      .cls-48 {
        fill: #484848;
      }

      .cls-8 {
        fill: #3cc583;
      }

      .cls-22 {
        stroke: #855b46;
        stroke-width: .7px;
      }

      .cls-23 {
        stroke: #bd8163;
      }

      .cls-11 {
        fill: #f5f5f5;
      }

      .cls-49 {
        fill: #99938b;
      }

      .cls-50 {
        fill: #3c5c8f;
      }

      .cls-51 {
        fill: #fd6a65;
      }

      .cls-52 {
        fill: #9c7f6c;
      }
    </style>
  </defs>
  <g id="g-root-cu_4my9sgplds79-stroke">
    <g id="cu_4my9sgplds79-stroke">
      <path class="cls-25" d="M425.59,158.46h8.52c8.55,0,15.48-6.93,15.48-15.48v-5.68c0-8.55,6.93-15.48,15.48-15.48h.13s8.39,0,8.39,0"/>
    </g>
  </g>
  <g>
    <g id="g-root-sk_13z8xtcoqvaiw-stroke">
      <g id="sk_13z8xtcoqvaiw-stroke">
        <path class="cls-26" d="M645.8,85.5h18"/>
      </g>
    </g>
    <g id="g-root-sk_13z8xtcoqvaiw-stroke-2" data-name="g-root-sk_13z8xtcoqvaiw-stroke">
      <g id="sk_13z8xtcoqvaiw-stroke-2" data-name="sk_13z8xtcoqvaiw-stroke">
        <path class="cls-26" d="M621.8,128h42"/>
      </g>
    </g>
    <g id="g-root-sk_13z8xtcoqvaiw-stroke-3" data-name="g-root-sk_13z8xtcoqvaiw-stroke">
      <g id="sk_13z8xtcoqvaiw-stroke-3" data-name="sk_13z8xtcoqvaiw-stroke">
        <path class="cls-26" d="M645.8,170.5h18"/>
      </g>
    </g>
    <g id="g-root-cu_hye9bzht6uq0-stroke">
      <g id="cu_hye9bzht6uq0-stroke">
        <path class="cls-24" d="M663.8,43h-5.9s-.1,0-.1,0c-6.63,0-12,5.37-12,12v72s0,12,0,12v-22,12s0,72,0,72c0,6.63,5.37,12,12,12h8"/>
      </g>
    </g>
  </g>
  <g id="c256">
    <g id="tx__92rrwwplds74-fill">
      <g class="cls-34">
        <g class="cls-34">
          <path class="cls-48" d="M673.05,216.81h17.92v1.34h-17.92v-1.34ZM674.09,203.67h15.9v1.38h-15.9v-1.38ZM681.21,204.35h1.48v13.02h-1.48v-13.02Z"/>
          <path class="cls-48" d="M693.25,203.57h17.52v1.2h-17.52v-1.2ZM694.41,207.73h14.7v1.14h-13.42v10.8h-1.28v-11.94ZM699.37,208.29h1.2c-.07.83-.23,1.53-.5,2.11-.27.58-.69,1.06-1.26,1.43-.57.37-1.37.67-2.38.9-.04-.13-.13-.29-.26-.48-.13-.19-.27-.33-.4-.44.91-.17,1.61-.4,2.11-.69.5-.29.86-.66,1.08-1.12.22-.46.36-1.03.41-1.71ZM697.53,205.25l1.12-.4c.24.36.49.75.74,1.18s.45.78.58,1.06l-1.18.5c-.13-.31-.32-.68-.56-1.13-.24-.45-.47-.85-.7-1.21ZM698.31,212.61h1.16v5.48h-1.16v-5.48ZM698.99,212.61h6.6v4.52h-6.6v-1.02h5.46v-2.46h-5.46v-1.04ZM700.89,201.63l1.22-.34c.2.41.39.86.58,1.34.19.48.33.89.42,1.24l-1.3.4c-.08-.35-.21-.77-.39-1.27-.18-.5-.36-.96-.53-1.37ZM702.93,208.33h1.22v1.96c0,.24.02.4.07.49.05.09.16.13.33.13h1.96c.15,0,.33,0,.55,0,.22,0,.4-.02.53-.05.01.15.03.31.04.49.01.18.03.34.06.49-.12.03-.29.05-.5.06-.21.01-.43.02-.66.02h-2.2c-.39,0-.68-.05-.88-.16-.2-.11-.34-.28-.41-.53-.07-.25-.11-.56-.11-.95v-1.94ZM705.27,204.95l1.36.32c-.32.53-.67,1.08-1.04,1.65-.37.57-.72,1.04-1.04,1.43l-1.04-.32c.2-.28.41-.6.63-.97.22-.37.43-.74.63-1.11.2-.37.37-.71.5-1ZM708.39,207.73h1.24v10.42c0,.36-.05.64-.16.83-.11.19-.31.34-.6.43-.28.09-.68.15-1.2.16s-1.22.02-2.1.02c-.03-.15-.08-.32-.15-.52-.07-.2-.16-.37-.25-.52.43.01.83.02,1.21.02s.71,0,.99,0c.28,0,.47,0,.56,0,.17-.01.29-.05.36-.1s.1-.15.1-.3v-10.42Z"/>
          <path class="cls-48" d="M714.77,208.49l1.28.26c-.09.77-.23,1.63-.41,2.58-.18.95-.39,1.88-.62,2.8-.23.92-.49,1.74-.77,2.46l-1.34-.58c.29-.68.56-1.46.81-2.33.25-.87.46-1.76.64-2.67.18-.91.32-1.75.41-2.52ZM717.89,206.95h1.38v10.02c0,.47.09.77.27.91.18.14.56.21,1.15.21h4.02c.44,0,.77-.11.98-.33.21-.22.36-.64.45-1.25.09-.61.15-1.51.19-2.68.12.08.25.16.4.25.15.09.3.16.46.22.16.06.3.11.42.15-.07,1.27-.18,2.26-.35,2.97-.17.71-.44,1.21-.82,1.5-.38.29-.94.43-1.67.43h-4.18c-.69,0-1.23-.07-1.62-.2-.39-.13-.66-.38-.83-.73-.17-.35-.25-.84-.25-1.47v-10ZM718.89,203.03l.9-.86c.63.43,1.28.91,1.97,1.44.69.53,1.34,1.06,1.95,1.59.61.53,1.11,1,1.48,1.43l-.94,1c-.37-.43-.86-.91-1.46-1.45-.6-.54-1.24-1.09-1.93-1.65-.69-.56-1.34-1.06-1.97-1.5ZM727.31,208.47l1.24-.46c.39.79.76,1.63,1.12,2.54.36.91.68,1.79.97,2.66.29.87.5,1.65.63,2.34l-1.32.52c-.13-.68-.34-1.46-.61-2.34-.27-.88-.58-1.78-.93-2.7s-.71-1.77-1.1-2.56Z"/>
          <path class="cls-48" d="M732.73,216.23c.53-.16,1.14-.34,1.82-.55s1.4-.44,2.17-.69c.77-.25,1.53-.51,2.29-.76l.24,1.28c-1.08.36-2.16.73-3.24,1.1s-2.06.71-2.94,1l-.34-1.38ZM732.95,202.77h6.16v1.26h-6.16v-1.26ZM733.15,208.57h5.68v1.26h-5.68v-1.26ZM735.47,203.27h1.3v12.42l-1.3.26v-12.68ZM738.31,217.81h12.98v1.24h-12.98v-1.24ZM739.87,213.69h10.76v1.22h-10.76v-1.22ZM740.13,202.33h10.2v8.88h-10.2v-8.88ZM741.37,203.51v2.68h7.68v-2.68h-7.68ZM741.37,207.31v2.74h7.68v-2.74h-7.68ZM744.61,202.91h1.18v7.72h.1v7.74h-1.36v-7.74h.08v-7.72Z"/>
          <path class="cls-48" d="M753.09,214.59h17.86v1.16h-17.86v-1.16ZM753.53,208.55h17v3.56h-1.34v-2.52h-14.38v2.52h-1.28v-3.56ZM758.61,201.57l.62.84c-.57.23-1.23.41-1.97.56-.74.15-1.41.26-2.01.34l-.5-.78c.39-.07.82-.16,1.29-.27s.94-.23,1.4-.36.85-.24,1.17-.33ZM754.75,202.53l1.3.36.4,6.22h-1.26l-.44-6.58ZM755.49,204.27h3.62v.96h-3.62v-.96ZM755.59,206.39h3.62v.96h-3.62v-.96ZM756.77,211.05h9.58v1.04h-9.58v-1.04ZM761.53,213.67h1.3v4.56c0,.36-.05.63-.15.82-.1.19-.3.33-.61.44-.29.09-.7.14-1.22.15-.52,0-1.19,0-2,0-.03-.16-.09-.35-.18-.56-.09-.21-.19-.4-.28-.56.44.01.84.02,1.21.03s.69,0,.96,0,.46,0,.55,0c.16-.01.27-.04.33-.09.06-.05.09-.14.09-.27v-4.52ZM763.05,204.95l.98.3c-.48.63-1.08,1.23-1.8,1.81-.72.58-1.44,1.06-2.16,1.45-.08-.09-.2-.22-.36-.37-.16-.15-.29-.28-.4-.37.71-.33,1.4-.75,2.09-1.24.69-.49,1.24-1.02,1.65-1.58ZM762.99,201.57l.98.28c-.45.61-1.02,1.2-1.71,1.75-.69.55-1.37,1.02-2.05,1.39-.08-.09-.2-.21-.36-.36-.16-.15-.3-.25-.42-.32.68-.35,1.35-.76,2-1.23.65-.47,1.17-.98,1.56-1.51ZM759.73,205.81l.7-.6c.45.21.93.46,1.42.74s.96.57,1.4.87c.44.3.79.58,1.06.85l-.72.7c-.27-.28-.61-.57-1.04-.87-.43-.3-.88-.6-1.37-.9s-.97-.56-1.45-.79ZM759.79,202.47l.68-.62c.45.19.92.41,1.39.68.47.27.93.53,1.36.8.43.27.78.53,1.05.78l-.7.68c-.27-.24-.61-.5-1.03-.79-.42-.29-.87-.56-1.35-.83-.48-.27-.95-.5-1.4-.7ZM766.03,211.05h.32l.28-.06.8.68c-.45.36-.97.71-1.56,1.04-.59.33-1.2.64-1.83.93s-1.25.54-1.85.75c-.07-.12-.17-.25-.31-.39-.14-.14-.26-.25-.35-.33.53-.19,1.08-.41,1.65-.68.57-.27,1.1-.55,1.61-.84s.92-.57,1.24-.84v-.26ZM764.77,206.39h3.58v.96h-3.58v-.96ZM764.79,202.15h3.86v.96h-3.86v-.96ZM764.89,204.27h3.62v.96h-3.62v-.96ZM768.11,202.15h1.28c-.04.76-.09,1.57-.14,2.42s-.11,1.68-.18,2.49c-.07.81-.13,1.5-.2,2.09h-1.3c.09-.6.17-1.31.24-2.12s.13-1.65.18-2.5c.05-.85.09-1.65.12-2.38Z"/>
          <path class="cls-48" d="M777.87,214.13l1.34.48c-.39.52-.83,1.05-1.34,1.58s-1.03,1.03-1.57,1.49-1.07.87-1.59,1.23c-.08-.08-.19-.18-.34-.29-.15-.11-.29-.22-.44-.33-.15-.11-.27-.19-.38-.26.8-.49,1.59-1.09,2.37-1.78.78-.69,1.43-1.4,1.95-2.12ZM786.27,201.41l.98,1.06c-.81.37-1.74.73-2.77,1.07-1.03.34-2.13.66-3.28.96-1.15.3-2.33.58-3.52.84-1.19.26-2.36.5-3.51.71-.03-.17-.08-.37-.17-.58-.09-.21-.16-.39-.23-.54,1.12-.21,2.27-.45,3.44-.72,1.17-.27,2.32-.55,3.43-.85s2.15-.61,3.12-.94c.97-.33,1.8-.66,2.51-1.01ZM774.55,213.81c-.01-.11-.04-.24-.09-.4-.05-.16-.1-.32-.16-.49-.06-.17-.11-.31-.15-.43.31-.03.69-.12,1.14-.29.45-.17.99-.39,1.6-.67.33-.15.83-.38,1.49-.71.66-.33,1.41-.72,2.26-1.19s1.73-.98,2.64-1.55c.91-.57,1.78-1.16,2.61-1.79l1.04.88c-1.87,1.31-3.76,2.46-5.69,3.45-1.93.99-3.82,1.85-5.69,2.57v.04c-.2.07-.37.13-.5.18-.13.05-.25.12-.35.19s-.15.14-.15.21ZM774.55,213.81l-.04-1.04.98-.5,13.14-.9c-.03.19-.04.4-.04.63v.55c-2.03.15-3.77.27-5.23.38s-2.69.2-3.68.27-1.8.14-2.42.2-1.1.11-1.45.15-.61.08-.8.12c-.19.04-.34.09-.46.14ZM775.67,209.63c-.01-.09-.04-.22-.09-.38-.05-.16-.1-.32-.15-.49s-.1-.31-.14-.43c.21-.03.45-.09.72-.19.27-.1.56-.24.88-.41.23-.12.6-.34,1.13-.66s1.11-.7,1.75-1.15c.64-.45,1.25-.92,1.82-1.41l1.18.76c-.99.76-2.01,1.46-3.06,2.09-1.05.63-2.09,1.17-3.1,1.61v.04c-.19.08-.34.15-.47.21-.13.06-.24.13-.33.2-.09.07-.14.14-.14.21ZM775.67,209.63l-.02-.98.82-.42,7.5-.38c-.04.16-.07.35-.09.57-.02.22-.04.4-.05.53-1.37.08-2.52.15-3.45.21-.93.06-1.68.11-2.26.16s-1.03.09-1.35.12c-.32.03-.56.06-.71.09-.15.03-.28.06-.39.1ZM781.51,212.29h1.36v5.74c0,.39-.05.69-.16.9-.11.21-.31.37-.62.48-.31.11-.71.17-1.22.2s-1.13.04-1.86.04c-.04-.2-.11-.43-.21-.68-.1-.25-.2-.47-.31-.66.41.01.8.03,1.16.04.36.01.67.02.93,0,.26,0,.44-.02.53-.03.17-.01.28-.04.33-.08.05-.04.07-.12.07-.24v-5.72ZM784.81,214.65l1.04-.7c.53.41,1.09.86,1.68,1.34.59.48,1.14.95,1.67,1.42.53.47.96.89,1.29,1.26l-1.12.78c-.32-.36-.74-.78-1.25-1.26-.51-.48-1.06-.97-1.63-1.47s-1.13-.96-1.68-1.37ZM785.35,209.39l1.1-.54c.51.45,1.02.95,1.55,1.48.53.53,1.02,1.05,1.47,1.56.45.51.82.96,1.1,1.36l-1.14.68c-.27-.4-.63-.87-1.08-1.4s-.94-1.07-1.47-1.62c-.53-.55-1.04-1.05-1.53-1.52Z"/>
        </g>
      </g>
    </g>
  </g>
  <g id="c255">
    <g id="tx__4my9sgplds7i-fill">
      <g class="cls-34">
        <g class="cls-34">
          <path class="cls-48" d="M681.23,159.38l1.24.38c-.93,2.24-2.16,4.21-3.68,5.92-1.52,1.71-3.22,3.11-5.1,4.2-.07-.08-.16-.19-.28-.32-.12-.13-.24-.26-.37-.39-.13-.13-.24-.23-.33-.31,1.89-.99,3.57-2.29,5.04-3.92s2.63-3.48,3.48-5.56ZM672.81,164.34h9.7v1.2h-9.7v-1.2ZM672.85,172.04c.79-.09,1.7-.21,2.73-.35,1.03-.14,2.13-.29,3.3-.45,1.17-.16,2.34-.32,3.51-.48l.02,1.16c-1.12.16-2.25.32-3.38.49s-2.21.32-3.23.47c-1.02.15-1.94.28-2.75.4l-.2-1.24ZM673.67,161.08h6.06v1.18h-6.06v-1.18ZM677.09,170.06h1.26v5.74c0,.36-.05.63-.14.82-.09.19-.27.33-.52.42-.27.09-.62.15-1.05.18-.43.03-.97.04-1.61.04-.03-.17-.08-.37-.16-.59-.08-.22-.17-.42-.28-.59.52.01.98.02,1.37.02s.66,0,.79-.02c.15,0,.24-.02.28-.06s.06-.12.06-.24v-5.72ZM675.63,167.1h5.04v1.1h-5.04v-1.1ZM676.37,158.92h1.28v6.04h-1.28v-6.04ZM680.29,167.1h.28l.26-.06.78.56c-.51.6-1.11,1.18-1.8,1.75-.69.57-1.37,1.04-2.02,1.43-.08-.12-.19-.25-.33-.38-.14-.13-.26-.25-.37-.34.39-.23.78-.5,1.19-.81.41-.31.79-.64,1.14-.98.35-.34.64-.65.87-.93v-.24ZM688.57,163.34l1.36.14c-.33,2.31-.82,4.34-1.45,6.09-.63,1.75-1.49,3.27-2.56,4.54-1.07,1.27-2.45,2.34-4.13,3.21-.05-.11-.13-.24-.22-.39-.09-.15-.19-.3-.3-.45-.11-.15-.21-.27-.3-.36,1.6-.76,2.91-1.73,3.92-2.9,1.01-1.17,1.81-2.58,2.39-4.22.58-1.64,1.01-3.53,1.29-5.66ZM684.67,158.94l1.34.2c-.23,1.24-.51,2.44-.85,3.6s-.73,2.24-1.17,3.25-.93,1.89-1.48,2.65c-.08-.08-.19-.18-.32-.29-.13-.11-.27-.23-.42-.34-.15-.11-.27-.2-.38-.27.53-.69,1.01-1.51,1.43-2.45.42-.94.78-1.95,1.09-3.03.31-1.08.56-2.19.76-3.32ZM684.75,163.76c.31,1.87.73,3.61,1.28,5.24.55,1.63,1.25,3.05,2.12,4.27.87,1.22,1.93,2.16,3.18,2.81-.11.09-.22.21-.35.34-.13.13-.24.27-.35.41-.11.14-.19.27-.26.39-1.31-.76-2.41-1.79-3.3-3.09-.89-1.3-1.62-2.81-2.18-4.54-.56-1.73-1.01-3.6-1.34-5.63l1.2-.2ZM684.09,162.66h7.08v1.26h-7.08v-1.26Z"/>
          <path class="cls-48" d="M693.23,160.94h17.56v1.2h-17.56v-1.2ZM695.75,166.92h1.3v3.68c0,.52-.03,1.08-.09,1.67-.06.59-.17,1.19-.33,1.8-.16.61-.39,1.19-.7,1.76s-.71,1.09-1.2,1.57c-.08-.09-.18-.2-.31-.31-.13-.11-.26-.22-.39-.32-.13-.1-.25-.18-.36-.23.61-.59,1.07-1.22,1.36-1.9.29-.68.49-1.37.58-2.08.09-.71.14-1.37.14-2v-3.64ZM695.31,166.14c-.03-.11-.06-.24-.11-.39-.05-.15-.1-.32-.15-.49-.05-.17-.11-.32-.16-.44.23-.03.48-.13.75-.32.27-.19.58-.43.93-.72.2-.15.49-.39.86-.72.37-.33.8-.73,1.28-1.2s.97-.97,1.46-1.52c.49-.55.96-1.1,1.4-1.66l1.34.56c-1.05,1.23-2.15,2.37-3.29,3.44-1.14,1.07-2.26,1.99-3.37,2.76v.02c-.19.08-.34.16-.47.23-.13.07-.24.15-.33.22s-.14.15-.14.23ZM695.31,166.14v-.94l.9-.46,11.34-.5c.01.17.04.36.09.57.05.21.08.37.11.49-2.16.12-3.96.22-5.39.29-1.43.07-2.59.13-3.47.18s-1.56.09-2.03.13c-.47.04-.82.08-1.04.11-.22.03-.39.08-.51.13ZM696.51,166.92h11.24v1.14h-11.24v-1.14ZM697.67,173.46c.83-.13,1.79-.29,2.9-.47,1.11-.18,2.29-.37,3.54-.58,1.25-.21,2.5-.42,3.74-.63l.06.96c-1.15.24-2.3.48-3.47.71-1.17.23-2.29.46-3.36.67-1.07.21-2.06.4-2.95.56l-.46-1.22ZM697.73,169.86l.42-.86c.84.09,1.73.24,2.66.45s1.82.43,2.66.67,1.55.49,2.12.74l-.4,1c-.56-.25-1.26-.51-2.11-.76-.85-.25-1.74-.49-2.67-.71-.93-.22-1.83-.4-2.68-.53ZM707.21,166.92h1.42v8.74c0,.43-.06.74-.19.94-.13.2-.36.35-.69.44-.32.08-.77.13-1.34.15-.57.02-1.29.03-2.16.03-.03-.19-.08-.39-.15-.6s-.16-.41-.25-.58c.43.01.84.02,1.25.03s.76,0,1.05,0c.29,0,.49,0,.6,0,.17,0,.29-.03.36-.1.07-.07.1-.17.1-.3v-8.74ZM704.01,162.66l1.04-.66c.57.37,1.17.8,1.79,1.27.62.47,1.2.95,1.74,1.43s.98.92,1.33,1.32l-1.12.78c-.32-.39-.75-.83-1.28-1.32-.53-.49-1.11-.99-1.72-1.48s-1.21-.94-1.78-1.34Z"/>
          <path class="cls-48" d="M714.77,166.04l1.28.26c-.09.77-.23,1.63-.41,2.58-.18.95-.39,1.88-.62,2.8-.23.92-.49,1.74-.77,2.46l-1.34-.58c.29-.68.56-1.46.81-2.33.25-.87.46-1.76.64-2.67.18-.91.32-1.75.41-2.52ZM717.89,164.5h1.38v10.02c0,.47.09.77.27.91.18.14.56.21,1.15.21h4.02c.44,0,.77-.11.98-.33.21-.22.36-.64.45-1.25.09-.61.15-1.51.19-2.68.12.08.25.16.4.25.15.09.3.16.46.22.16.06.3.11.42.15-.07,1.27-.18,2.26-.35,2.97-.17.71-.44,1.21-.82,1.5-.38.29-.94.43-1.67.43h-4.18c-.69,0-1.23-.07-1.62-.2-.39-.13-.66-.38-.83-.73-.17-.35-.25-.84-.25-1.47v-10ZM718.89,160.58l.9-.86c.63.43,1.28.91,1.97,1.44.69.53,1.34,1.06,1.95,1.59.61.53,1.11,1,1.48,1.43l-.94,1c-.37-.43-.86-.91-1.46-1.45-.6-.54-1.24-1.09-1.93-1.65-.69-.56-1.34-1.06-1.97-1.5ZM727.31,166.02l1.24-.46c.39.79.76,1.63,1.12,2.54.36.91.68,1.79.97,2.66.29.87.5,1.65.63,2.34l-1.32.52c-.13-.68-.34-1.46-.61-2.34-.27-.88-.58-1.78-.93-2.7s-.71-1.77-1.1-2.56Z"/>
          <path class="cls-48" d="M732.73,173.78c.53-.16,1.14-.34,1.82-.55s1.4-.44,2.17-.69c.77-.25,1.53-.51,2.29-.76l.24,1.28c-1.08.36-2.16.73-3.24,1.1s-2.06.71-2.94,1l-.34-1.38ZM732.95,160.32h6.16v1.26h-6.16v-1.26ZM733.15,166.12h5.68v1.26h-5.68v-1.26ZM735.47,160.82h1.3v12.42l-1.3.26v-12.68ZM738.31,175.36h12.98v1.24h-12.98v-1.24ZM739.87,171.24h10.76v1.22h-10.76v-1.22ZM740.13,159.88h10.2v8.88h-10.2v-8.88ZM741.37,161.06v2.68h7.68v-2.68h-7.68ZM741.37,164.86v2.74h7.68v-2.74h-7.68ZM744.61,160.46h1.18v7.72h.1v7.74h-1.36v-7.74h.08v-7.72Z"/>
          <path class="cls-48" d="M753.09,172.14h17.86v1.16h-17.86v-1.16ZM753.53,166.1h17v3.56h-1.34v-2.52h-14.38v2.52h-1.28v-3.56ZM758.61,159.12l.62.84c-.57.23-1.23.41-1.97.56-.74.15-1.41.26-2.01.34l-.5-.78c.39-.07.82-.16,1.29-.27s.94-.23,1.4-.36.85-.24,1.17-.33ZM754.75,160.08l1.3.36.4,6.22h-1.26l-.44-6.58ZM755.49,161.82h3.62v.96h-3.62v-.96ZM755.59,163.94h3.62v.96h-3.62v-.96ZM756.77,168.6h9.58v1.04h-9.58v-1.04ZM761.53,171.22h1.3v4.56c0,.36-.05.63-.15.82-.1.19-.3.33-.61.44-.29.09-.7.14-1.22.15-.52,0-1.19,0-2,0-.03-.16-.09-.35-.18-.56-.09-.21-.19-.4-.28-.56.44.01.84.02,1.21.03s.69,0,.96,0,.46,0,.55,0c.16-.01.27-.04.33-.09.06-.05.09-.14.09-.27v-4.52ZM763.05,162.5l.98.3c-.48.63-1.08,1.23-1.8,1.81-.72.58-1.44,1.06-2.16,1.45-.08-.09-.2-.22-.36-.37-.16-.15-.29-.28-.4-.37.71-.33,1.4-.75,2.09-1.24.69-.49,1.24-1.02,1.65-1.58ZM762.99,159.12l.98.28c-.45.61-1.02,1.2-1.71,1.75-.69.55-1.37,1.02-2.05,1.39-.08-.09-.2-.21-.36-.36-.16-.15-.3-.25-.42-.32.68-.35,1.35-.76,2-1.23.65-.47,1.17-.98,1.56-1.51ZM759.73,163.36l.7-.6c.45.21.93.46,1.42.74s.96.57,1.4.87c.44.3.79.58,1.06.85l-.72.7c-.27-.28-.61-.57-1.04-.87-.43-.3-.88-.6-1.37-.9s-.97-.56-1.45-.79ZM759.79,160.02l.68-.62c.45.19.92.41,1.39.68.47.27.93.53,1.36.8.43.27.78.53,1.05.78l-.7.68c-.27-.24-.61-.5-1.03-.79-.42-.29-.87-.56-1.35-.83-.48-.27-.95-.5-1.4-.7ZM766.03,168.6h.32l.28-.06.8.68c-.45.36-.97.71-1.56,1.04-.59.33-1.2.64-1.83.93s-1.25.54-1.85.75c-.07-.12-.17-.25-.31-.39-.14-.14-.26-.25-.35-.33.53-.19,1.08-.41,1.65-.68.57-.27,1.1-.55,1.61-.84s.92-.57,1.24-.84v-.26ZM764.77,163.94h3.58v.96h-3.58v-.96ZM764.79,159.7h3.86v.96h-3.86v-.96ZM764.89,161.82h3.62v.96h-3.62v-.96ZM768.11,159.7h1.28c-.04.76-.09,1.57-.14,2.42s-.11,1.68-.18,2.49c-.07.81-.13,1.5-.2,2.09h-1.3c.09-.6.17-1.31.24-2.12s.13-1.65.18-2.5c.05-.85.09-1.65.12-2.38Z"/>
          <path class="cls-48" d="M777.87,171.68l1.34.48c-.39.52-.83,1.05-1.34,1.58s-1.03,1.03-1.57,1.49-1.07.87-1.59,1.23c-.08-.08-.19-.18-.34-.29-.15-.11-.29-.22-.44-.33-.15-.11-.27-.19-.38-.26.8-.49,1.59-1.09,2.37-1.78.78-.69,1.43-1.4,1.95-2.12ZM786.27,158.96l.98,1.06c-.81.37-1.74.73-2.77,1.07-1.03.34-2.13.66-3.28.96-1.15.3-2.33.58-3.52.84-1.19.26-2.36.5-3.51.71-.03-.17-.08-.37-.17-.58-.09-.21-.16-.39-.23-.54,1.12-.21,2.27-.45,3.44-.72,1.17-.27,2.32-.55,3.43-.85s2.15-.61,3.12-.94c.97-.33,1.8-.66,2.51-1.01ZM774.55,171.36c-.01-.11-.04-.24-.09-.4-.05-.16-.1-.32-.16-.49-.06-.17-.11-.31-.15-.43.31-.03.69-.12,1.14-.29.45-.17.99-.39,1.6-.67.33-.15.83-.38,1.49-.71.66-.33,1.41-.72,2.26-1.19s1.73-.98,2.64-1.55c.91-.57,1.78-1.16,2.61-1.79l1.04.88c-1.87,1.31-3.76,2.46-5.69,3.45-1.93.99-3.82,1.85-5.69,2.57v.04c-.2.07-.37.13-.5.18-.13.05-.25.12-.35.19s-.15.14-.15.21ZM774.55,171.36l-.04-1.04.98-.5,13.14-.9c-.03.19-.04.4-.04.63v.55c-2.03.15-3.77.27-5.23.38s-2.69.2-3.68.27-1.8.14-2.42.2-1.1.11-1.45.15-.61.08-.8.12c-.19.04-.34.09-.46.14ZM775.67,167.18c-.01-.09-.04-.22-.09-.38-.05-.16-.1-.32-.15-.49s-.1-.31-.14-.43c.21-.03.45-.09.72-.19.27-.1.56-.24.88-.41.23-.12.6-.34,1.13-.66s1.11-.7,1.75-1.15c.64-.45,1.25-.92,1.82-1.41l1.18.76c-.99.76-2.01,1.46-3.06,2.09-1.05.63-2.09,1.17-3.1,1.61v.04c-.19.08-.34.15-.47.21-.13.06-.24.13-.33.2-.09.07-.14.14-.14.21ZM775.67,167.18l-.02-.98.82-.42,7.5-.38c-.04.16-.07.35-.09.57-.02.22-.04.4-.05.53-1.37.08-2.52.15-3.45.21-.93.06-1.68.11-2.26.16s-1.03.09-1.35.12c-.32.03-.56.06-.71.09-.15.03-.28.06-.39.1ZM781.51,169.84h1.36v5.74c0,.39-.05.69-.16.9-.11.21-.31.37-.62.48-.31.11-.71.17-1.22.2s-1.13.04-1.86.04c-.04-.2-.11-.43-.21-.68-.1-.25-.2-.47-.31-.66.41.01.8.03,1.16.04.36.01.67.02.93,0,.26,0,.44-.02.53-.03.17-.01.28-.04.33-.08.05-.04.07-.12.07-.24v-5.72ZM784.81,172.2l1.04-.7c.53.41,1.09.86,1.68,1.34.59.48,1.14.95,1.67,1.42.53.47.96.89,1.29,1.26l-1.12.78c-.32-.36-.74-.78-1.25-1.26-.51-.48-1.06-.97-1.63-1.47s-1.13-.96-1.68-1.37ZM785.35,166.94l1.1-.54c.51.45,1.02.95,1.55,1.48.53.53,1.02,1.05,1.47,1.56.45.51.82.96,1.1,1.36l-1.14.68c-.27-.4-.63-.87-1.08-1.4s-.94-1.07-1.47-1.62c-.53-.55-1.04-1.05-1.53-1.52Z"/>
        </g>
      </g>
    </g>
  </g>
  <g id="c85">
    <g id="tx__4my9sgplds7g-fill">
      <g class="cls-34">
        <g class="cls-34">
          <path class="cls-48" d="M673.51,117.65h7.1v1.22h-5.9v14.58h-1.2v-15.8ZM674.11,132.21h6.5v1.24h-6.5v-1.24ZM674.13,122.11h6.12v6.1h-6.12v-1.22h4.92v-3.68h-4.92v-1.2ZM676.75,118.25h1.2v4.36h-1.2v-4.36ZM676.75,127.53h1.2v5.12h-1.2v-5.12ZM682.67,116.47l1.26.32c-.36.96-.81,1.89-1.34,2.8-.53.91-1.1,1.68-1.7,2.32-.05-.07-.14-.16-.27-.27-.13-.11-.25-.22-.37-.33-.12-.11-.23-.19-.34-.26.59-.57,1.12-1.27,1.6-2.08.48-.81.87-1.65,1.16-2.5ZM681.05,127.35h4.36v7.14h-1.08v-6.02h-2.24v6.28h-1.04v-7.4ZM681.45,132.47h3.36v1.14h-3.36v-1.14ZM682.25,118.57h8.42v1.2h-8.42v-1.2ZM682.45,121.25h7.24v4.78h-7.24v-4.78ZM683.63,122.35v2.58h4.86v-2.58h-4.86ZM686.43,127.35h4.52v7.22h-1.08v-6.1h-2.38v6.3h-1.06v-7.42ZM686.85,132.47h3.54v1.14h-3.54v-1.14Z"/>
          <path class="cls-48" d="M694.39,119.13h1.34v5.18c0,.76-.02,1.59-.07,2.48s-.14,1.81-.27,2.75-.32,1.86-.57,2.75c-.25.89-.57,1.72-.97,2.48-.09-.08-.21-.17-.35-.26-.14-.09-.28-.19-.43-.29-.15-.1-.27-.16-.38-.19.39-.72.69-1.49.92-2.32.23-.83.4-1.67.51-2.54.11-.87.19-1.72.22-2.55.03-.83.05-1.61.05-2.33v-5.16ZM695.05,119.13h15.92v1.28h-15.92v-1.28ZM702.51,124.89l1.12.4c-.49,1.09-1.11,2.15-1.84,3.17-.73,1.02-1.53,1.95-2.39,2.79-.86.84-1.74,1.53-2.63,2.08-.07-.12-.16-.25-.27-.38-.11-.13-.23-.26-.35-.39-.12-.13-.23-.22-.34-.29.88-.48,1.75-1.11,2.6-1.88.85-.77,1.64-1.64,2.35-2.59.71-.95,1.3-1.92,1.75-2.91ZM696.73,124.21h14.06v1.28h-14.06v-1.28ZM701.41,116.77l1.36-.38c.28.45.55.95.82,1.5.27.55.47,1.01.6,1.38l-1.42.44c-.12-.39-.31-.86-.56-1.42-.25-.56-.52-1.07-.8-1.52ZM702.91,121.07h1.32v13.74h-1.32v-13.74ZM704.51,124.87c.37.69.81,1.39,1.32,2.09s1.06,1.37,1.66,2.01c.6.64,1.22,1.22,1.87,1.75.65.53,1.29.96,1.93,1.31-.11.09-.22.2-.35.33-.13.13-.25.26-.36.39-.11.13-.2.26-.27.38-.64-.41-1.28-.91-1.93-1.48-.65-.57-1.27-1.21-1.88-1.9-.61-.69-1.17-1.42-1.7-2.18-.53-.76-.98-1.53-1.37-2.3l1.08-.4Z"/>
          <path class="cls-48" d="M714.77,123.59l1.28.26c-.09.77-.23,1.63-.41,2.58-.18.95-.39,1.88-.62,2.8-.23.92-.49,1.74-.77,2.46l-1.34-.58c.29-.68.56-1.46.81-2.33.25-.87.46-1.76.64-2.67.18-.91.32-1.75.41-2.52ZM717.89,122.05h1.38v10.02c0,.47.09.77.27.91.18.14.56.21,1.15.21h4.02c.44,0,.77-.11.98-.33.21-.22.36-.64.45-1.25.09-.61.15-1.51.19-2.68.12.08.25.16.4.25.15.09.3.16.46.22.16.06.3.11.42.15-.07,1.27-.18,2.26-.35,2.97-.17.71-.44,1.21-.82,1.5-.38.29-.94.43-1.67.43h-4.18c-.69,0-1.23-.07-1.62-.2-.39-.13-.66-.38-.83-.73-.17-.35-.25-.84-.25-1.47v-10ZM718.89,118.13l.9-.86c.63.43,1.28.91,1.97,1.44.69.53,1.34,1.06,1.95,1.59.61.53,1.11,1,1.48,1.43l-.94,1c-.37-.43-.86-.91-1.46-1.45-.6-.54-1.24-1.09-1.93-1.65-.69-.56-1.34-1.06-1.97-1.5ZM727.31,123.57l1.24-.46c.39.79.76,1.63,1.12,2.54.36.91.68,1.79.97,2.66.29.87.5,1.65.63,2.34l-1.32.52c-.13-.68-.34-1.46-.61-2.34-.27-.88-.58-1.78-.93-2.7s-.71-1.77-1.1-2.56Z"/>
          <path class="cls-48" d="M732.73,131.33c.53-.16,1.14-.34,1.82-.55s1.4-.44,2.17-.69c.77-.25,1.53-.51,2.29-.76l.24,1.28c-1.08.36-2.16.73-3.24,1.1s-2.06.71-2.94,1l-.34-1.38ZM732.95,117.87h6.16v1.26h-6.16v-1.26ZM733.15,123.67h5.68v1.26h-5.68v-1.26ZM735.47,118.37h1.3v12.42l-1.3.26v-12.68ZM738.31,132.91h12.98v1.24h-12.98v-1.24ZM739.87,128.79h10.76v1.22h-10.76v-1.22ZM740.13,117.43h10.2v8.88h-10.2v-8.88ZM741.37,118.61v2.68h7.68v-2.68h-7.68ZM741.37,122.41v2.74h7.68v-2.74h-7.68ZM744.61,118.01h1.18v7.72h.1v7.74h-1.36v-7.74h.08v-7.72Z"/>
          <path class="cls-48" d="M753.09,129.69h17.86v1.16h-17.86v-1.16ZM753.53,123.65h17v3.56h-1.34v-2.52h-14.38v2.52h-1.28v-3.56ZM758.61,116.67l.62.84c-.57.23-1.23.41-1.97.56-.74.15-1.41.26-2.01.34l-.5-.78c.39-.07.82-.16,1.29-.27s.94-.23,1.4-.36.85-.24,1.17-.33ZM754.75,117.63l1.3.36.4,6.22h-1.26l-.44-6.58ZM755.49,119.37h3.62v.96h-3.62v-.96ZM755.59,121.49h3.62v.96h-3.62v-.96ZM756.77,126.15h9.58v1.04h-9.58v-1.04ZM761.53,128.77h1.3v4.56c0,.36-.05.63-.15.82-.1.19-.3.33-.61.44-.29.09-.7.14-1.22.15-.52,0-1.19,0-2,0-.03-.16-.09-.35-.18-.56-.09-.21-.19-.4-.28-.56.44.01.84.02,1.21.03s.69,0,.96,0,.46,0,.55,0c.16-.01.27-.04.33-.09.06-.05.09-.14.09-.27v-4.52ZM763.05,120.05l.98.3c-.48.63-1.08,1.23-1.8,1.81-.72.58-1.44,1.06-2.16,1.45-.08-.09-.2-.22-.36-.37-.16-.15-.29-.28-.4-.37.71-.33,1.4-.75,2.09-1.24.69-.49,1.24-1.02,1.65-1.58ZM762.99,116.67l.98.28c-.45.61-1.02,1.2-1.71,1.75-.69.55-1.37,1.02-2.05,1.39-.08-.09-.2-.21-.36-.36-.16-.15-.3-.25-.42-.32.68-.35,1.35-.76,2-1.23.65-.47,1.17-.98,1.56-1.51ZM759.73,120.91l.7-.6c.45.21.93.46,1.42.74s.96.57,1.4.87c.44.3.79.58,1.06.85l-.72.7c-.27-.28-.61-.57-1.04-.87-.43-.3-.88-.6-1.37-.9s-.97-.56-1.45-.79ZM759.79,117.57l.68-.62c.45.19.92.41,1.39.68.47.27.93.53,1.36.8.43.27.78.53,1.05.78l-.7.68c-.27-.24-.61-.5-1.03-.79-.42-.29-.87-.56-1.35-.83-.48-.27-.95-.5-1.4-.7ZM766.03,126.15h.32l.28-.06.8.68c-.45.36-.97.71-1.56,1.04-.59.33-1.2.64-1.83.93s-1.25.54-1.85.75c-.07-.12-.17-.25-.31-.39-.14-.14-.26-.25-.35-.33.53-.19,1.08-.41,1.65-.68.57-.27,1.1-.55,1.61-.84s.92-.57,1.24-.84v-.26ZM764.77,121.49h3.58v.96h-3.58v-.96ZM764.79,117.25h3.86v.96h-3.86v-.96ZM764.89,119.37h3.62v.96h-3.62v-.96ZM768.11,117.25h1.28c-.04.76-.09,1.57-.14,2.42s-.11,1.68-.18,2.49c-.07.81-.13,1.5-.2,2.09h-1.3c.09-.6.17-1.31.24-2.12s.13-1.65.18-2.5c.05-.85.09-1.65.12-2.38Z"/>
          <path class="cls-48" d="M777.87,129.23l1.34.48c-.39.52-.83,1.05-1.34,1.58s-1.03,1.03-1.57,1.49-1.07.87-1.59,1.23c-.08-.08-.19-.18-.34-.29-.15-.11-.29-.22-.44-.33-.15-.11-.27-.19-.38-.26.8-.49,1.59-1.09,2.37-1.78.78-.69,1.43-1.4,1.95-2.12ZM786.27,116.51l.98,1.06c-.81.37-1.74.73-2.77,1.07-1.03.34-2.13.66-3.28.96-1.15.3-2.33.58-3.52.84-1.19.26-2.36.5-3.51.71-.03-.17-.08-.37-.17-.58-.09-.21-.16-.39-.23-.54,1.12-.21,2.27-.45,3.44-.72,1.17-.27,2.32-.55,3.43-.85s2.15-.61,3.12-.94c.97-.33,1.8-.66,2.51-1.01ZM774.55,128.91c-.01-.11-.04-.24-.09-.4-.05-.16-.1-.32-.16-.49-.06-.17-.11-.31-.15-.43.31-.03.69-.12,1.14-.29.45-.17.99-.39,1.6-.67.33-.15.83-.38,1.49-.71.66-.33,1.41-.72,2.26-1.19s1.73-.98,2.64-1.55c.91-.57,1.78-1.16,2.61-1.79l1.04.88c-1.87,1.31-3.76,2.46-5.69,3.45-1.93.99-3.82,1.85-5.69,2.57v.04c-.2.07-.37.13-.5.18-.13.05-.25.12-.35.19s-.15.14-.15.21ZM774.55,128.91l-.04-1.04.98-.5,13.14-.9c-.03.19-.04.4-.04.63v.55c-2.03.15-3.77.27-5.23.38s-2.69.2-3.68.27-1.8.14-2.42.2-1.1.11-1.45.15-.61.08-.8.12c-.19.04-.34.09-.46.14ZM775.67,124.73c-.01-.09-.04-.22-.09-.38-.05-.16-.1-.32-.15-.49s-.1-.31-.14-.43c.21-.03.45-.09.72-.19.27-.1.56-.24.88-.41.23-.12.6-.34,1.13-.66s1.11-.7,1.75-1.15c.64-.45,1.25-.92,1.82-1.41l1.18.76c-.99.76-2.01,1.46-3.06,2.09-1.05.63-2.09,1.17-3.1,1.61v.04c-.19.08-.34.15-.47.21-.13.06-.24.13-.33.2-.09.07-.14.14-.14.21ZM775.67,124.73l-.02-.98.82-.42,7.5-.38c-.04.16-.07.35-.09.57-.02.22-.04.4-.05.53-1.37.08-2.52.15-3.45.21-.93.06-1.68.11-2.26.16s-1.03.09-1.35.12c-.32.03-.56.06-.71.09-.15.03-.28.06-.39.1ZM781.51,127.39h1.36v5.74c0,.39-.05.69-.16.9-.11.21-.31.37-.62.48-.31.11-.71.17-1.22.2s-1.13.04-1.86.04c-.04-.2-.11-.43-.21-.68-.1-.25-.2-.47-.31-.66.41.01.8.03,1.16.04.36.01.67.02.93,0,.26,0,.44-.02.53-.03.17-.01.28-.04.33-.08.05-.04.07-.12.07-.24v-5.72ZM784.81,129.75l1.04-.7c.53.41,1.09.86,1.68,1.34.59.48,1.14.95,1.67,1.42.53.47.96.89,1.29,1.26l-1.12.78c-.32-.36-.74-.78-1.25-1.26-.51-.48-1.06-.97-1.63-1.47s-1.13-.96-1.68-1.37ZM785.35,124.49l1.1-.54c.51.45,1.02.95,1.55,1.48.53.53,1.02,1.05,1.47,1.56.45.51.82.96,1.1,1.36l-1.14.68c-.27-.4-.63-.87-1.08-1.4s-.94-1.07-1.47-1.62c-.53-.55-1.04-1.05-1.53-1.52Z"/>
        </g>
      </g>
    </g>
  </g>
  <g id="c84">
    <g id="tx__4my9sgplds7d-fill">
      <g class="cls-34">
        <g class="cls-34">
          <path class="cls-48" d="M672.79,87.62h8.28v1.2h-8.28v-1.2ZM673.05,76.26h7.74v1.2h-7.74v-1.2ZM673.51,79h7.06v6.92h-7.06v-6.92ZM674.55,80.04v1.9h4.96v-1.9h-4.96ZM674.55,82.94v1.94h4.96v-1.94h-4.96ZM676.41,74.04h1.22v5.4h-1.22v-5.4ZM676.51,79.52h1v5.86h.12v7.02h-1.22v-7.02h.1v-5.86ZM681.25,76.86h9.9v1.2h-9.9v-1.2ZM681.63,80.02h8.24v1.18h-7.02v11.16h-1.22v-12.34ZM682.35,83.34h7.74v1.14h-7.74v-1.14ZM682.35,86.74h7.74v1.16h-7.74v-1.16ZM685.51,74.04h1.22v18.2h-1.22v-18.2ZM687.57,74.68l.76-.62c.45.28.92.6,1.41.97.49.37.86.7,1.11,1.01l-.78.72c-.25-.29-.62-.64-1.1-1.03-.48-.39-.95-.74-1.4-1.05ZM689.43,80.02h1.24v10.86c0,.32-.04.58-.11.78-.07.2-.22.35-.43.46-.21.11-.49.17-.84.2-.35.03-.78.04-1.3.04-.01-.16-.06-.36-.13-.6-.07-.24-.15-.45-.23-.62.36.01.68.02.96.02s.47,0,.56-.02c.11,0,.18-.02.22-.06s.06-.11.06-.22v-10.84Z"/>
          <path class="cls-48" d="M693.13,87.22h17.64v1.1h-17.64v-1.1ZM697.13,80.06h.42l.22-.04.52.34c-.4,1.39-1,2.58-1.8,3.59s-1.67,1.8-2.62,2.37c-.03-.09-.08-.2-.17-.32-.09-.12-.18-.24-.28-.36-.1-.12-.19-.21-.27-.28.88-.49,1.68-1.18,2.41-2.06s1.25-1.89,1.57-3.02v-.22ZM693.73,81.44c-.03-.09-.07-.22-.13-.37-.06-.15-.12-.3-.19-.44-.07-.14-.13-.25-.18-.33.12-.04.26-.1.42-.17.16-.07.33-.19.52-.35.13-.11.33-.29.58-.54.25-.25.53-.53.83-.82.3-.29.58-.58.84-.86.26-.28.46-.51.61-.7v-.04l.42-.18.84.48c-.29.33-.65.71-1.08,1.14-.43.43-.86.85-1.31,1.28-.45.43-.85.79-1.21,1.1-.19.11-.35.2-.48.28-.13.08-.25.17-.34.26-.09.09-.14.18-.14.26ZM693.35,76.8h3.98v1.1h-3.98v-1.1ZM693.73,81.46v-1.06l.68-.34h3.04v1.12h-2.58c-.24,0-.47.03-.7.08-.23.05-.37.12-.44.2ZM694.41,74.36l1.1-.3c.27.29.53.62.79.99.26.37.46.68.61.95l-1.16.38c-.13-.27-.33-.59-.59-.98-.26-.39-.51-.73-.75-1.04ZM696.95,82.52c.32.67.75,1.16,1.29,1.49.54.33,1.23.54,2.07.64.84.1,1.87.15,3.08.15.8,0,1.67,0,2.6-.03.93-.02,1.85-.05,2.76-.09s1.72-.09,2.44-.16c-.08.15-.16.34-.23.58-.07.24-.13.45-.17.62-.67.03-1.42.06-2.26.09s-1.7.06-2.58.07-1.73.02-2.54.02c-1.41,0-2.59-.07-3.52-.22-.93-.15-1.69-.43-2.27-.85s-1.06-1.06-1.45-1.91l.78-.4ZM696.91,89.14l.92-.74c.52.36,1.05.78,1.58,1.26.53.48.93.91,1.2,1.28l-.98.84c-.17-.27-.41-.56-.71-.87-.3-.31-.62-.62-.97-.93-.35-.31-.69-.59-1.04-.84ZM698.19,75.9h12.42v1h-12.42v-1ZM699.53,77.98h9.5v6h-9.5v-6ZM700.65,74.34l1.08-.34c.23.25.45.55.66.89s.37.64.46.89l-1.14.4c-.09-.27-.24-.57-.44-.91-.2-.34-.41-.65-.62-.93ZM700.67,78.76v.94h7.18v-.94h-7.18ZM700.67,80.46v.98h7.18v-.98h-7.18ZM700.67,82.2v.98h7.18v-.98h-7.18ZM705.17,86.08h1.3v4.7c0,.36-.05.64-.15.83s-.3.34-.61.45c-.29.09-.7.15-1.23.17-.53.02-1.21.03-2.05.03-.03-.17-.09-.37-.18-.58s-.19-.41-.28-.58c.44.01.85.02,1.23.02s.71,0,.99-.01c.28,0,.47,0,.58,0,.16-.01.27-.04.32-.09.05-.05.08-.13.08-.25v-4.68ZM703.69,76.24l1.34.14c-.17.37-.35.74-.53,1.1-.18.36-.35.67-.51.94l-1.08-.2c.15-.29.29-.63.44-1,.15-.37.26-.7.34-.98ZM707.01,74.04l1.26.3c-.23.39-.47.76-.73,1.13-.26.37-.5.68-.71.95l-1.06-.28c.21-.29.44-.64.67-1.04.23-.4.42-.75.57-1.06Z"/>
          <path class="cls-48" d="M712.95,86.38h18.1v1.26h-18.1v-1.26ZM718.85,88.04l1.16.8c-.53.41-1.14.83-1.82,1.26-.68.43-1.38.83-2.09,1.22s-1.4.72-2.07,1c-.08-.13-.2-.3-.35-.5-.15-.2-.3-.37-.43-.5.64-.27,1.31-.59,2.02-.96.71-.37,1.38-.76,2.01-1.17.63-.41,1.16-.79,1.57-1.15ZM718.33,74.14l.68,1.1c-.6.27-1.26.52-1.98.77-.72.25-1.4.46-2.04.65-.03-.13-.08-.29-.15-.47-.07-.18-.14-.35-.21-.51.61-.21,1.26-.46,1.95-.74.69-.28,1.27-.55,1.75-.8ZM714.63,75.68l1.24.38.38,10.78h-1.22l-.4-11.16ZM715.35,78.86h3.4v1.14h-3.4v-1.14ZM715.45,82.6h3.36v1.16h-3.36v-1.16ZM720.57,81.56l1.06.18c-.11.72-.27,1.42-.49,2.09-.22.67-.48,1.25-.79,1.73-.11-.09-.26-.2-.45-.32-.19-.12-.36-.21-.51-.28.33-.45.59-.97.77-1.56.18-.59.32-1.2.41-1.84ZM719.85,74.16h1.18v5.36h2.72v1.1h-3.9v-6.46ZM720.49,76.1h3.88v1.16h-3.88v-1.16ZM723.09,79.54h1.16v5.36c0,.29-.03.51-.1.66-.07.15-.21.27-.44.36-.2.08-.47.13-.82.14-.35.01-.77.02-1.26.02-.03-.15-.07-.3-.14-.47-.07-.17-.14-.32-.22-.47.39.01.72.02.99.02s.46,0,.57-.02c.11,0,.18-.02.21-.05s.05-.1.05-.19v-5.36ZM723.99,88.9l.72-.92c.72.32,1.44.68,2.16,1.07.72.39,1.4.78,2.04,1.15s1.19.73,1.66,1.06l-.88,1c-.45-.33-.99-.69-1.61-1.08-.62-.39-1.28-.78-1.98-1.17-.7-.39-1.4-.76-2.11-1.11ZM725.17,75.06h3.7v1.2h-3.7v-1.2ZM725.23,82.7h3.42v1.16h-3.42v-1.16ZM725.33,78.92h3.48v1.16h-3.48v-1.16ZM728.15,75.06h1.24c0,.93,0,1.94-.03,3.02s-.05,2.16-.08,3.23c-.03,1.07-.07,2.09-.11,3.05s-.08,1.81-.12,2.54h-1.26c.05-.73.1-1.59.15-2.56.05-.97.09-2,.12-3.08s.06-2.15.08-3.22.02-2.06.01-2.98Z"/>
          <path class="cls-48" d="M732.99,77.44h6.68v1.14h-6.68v-1.14ZM733.73,80.08h5.12v1.08h-5.12v-1.08ZM733.73,82.7h5.12v1.08h-5.12v-1.08ZM733.73,85.34h1.18v6.76h-1.18v-6.76ZM734.27,85.34h4.5v5.8h-4.5v-1.14h3.32v-3.52h-3.32v-1.14ZM735.11,74.36l1.12-.28c.24.4.47.84.69,1.33.22.49.38.9.49,1.25l-1.18.36c-.09-.36-.25-.79-.47-1.29s-.44-.96-.65-1.37ZM739.83,80.54h3.98v1.1h-3.98v-1.1ZM740.27,75.96h3.04v1.08h-3.04v-1.08ZM741.71,84.98h8.18v7.34h-1.3v-6.14h-5.62v6.22h-1.26v-7.42ZM746.43,77.14h1.26c-.12.76-.29,1.5-.51,2.21-.22.71-.52,1.39-.89,2.02-.37.63-.85,1.21-1.44,1.74-.59.53-1.31.98-2.18,1.35-.07-.13-.17-.29-.32-.47-.15-.18-.29-.32-.42-.41.8-.32,1.47-.72,2.01-1.19.54-.47.97-.99,1.3-1.56s.59-1.17.78-1.8c.19-.63.33-1.26.41-1.89ZM742.33,90.34h6.88v1.2h-6.88v-1.2ZM744.87,74.14l1.2.24c-.25,1.08-.59,2.12-1.02,3.11-.43.99-.91,1.84-1.44,2.53-.07-.07-.16-.14-.29-.23-.13-.09-.26-.17-.4-.26-.14-.09-.26-.16-.35-.21.53-.64.99-1.42,1.38-2.34s.69-1.87.92-2.84ZM744.51,76.28h5.72v1.12h-5.72v-1.12ZM747.21,78.52c.33,1.08.85,2.06,1.55,2.93s1.54,1.51,2.53,1.91c-.13.12-.28.28-.44.47-.16.19-.28.37-.36.53-1.04-.49-1.92-1.24-2.64-2.24-.72-1-1.27-2.13-1.64-3.38l1-.22ZM749.97,76.28h.2l.2-.04.82.2c-.17.57-.36,1.16-.56,1.77-.2.61-.4,1.11-.6,1.51l-1-.26c.16-.39.33-.85.51-1.4.18-.55.32-1.08.43-1.6v-.18Z"/>
          <path class="cls-48" d="M753.25,76.22h17.52v1.2h-17.52v-1.2ZM754.41,80.38h14.7v1.14h-13.42v10.8h-1.28v-11.94ZM759.37,80.94h1.2c-.07.83-.23,1.53-.5,2.11-.27.58-.69,1.06-1.26,1.43-.57.37-1.37.67-2.38.9-.04-.13-.13-.29-.26-.48-.13-.19-.27-.33-.4-.44.91-.17,1.61-.4,2.11-.69.5-.29.86-.66,1.08-1.12.22-.46.36-1.03.41-1.71ZM757.53,77.9l1.12-.4c.24.36.49.75.74,1.18s.45.78.58,1.06l-1.18.5c-.13-.31-.32-.68-.56-1.13-.24-.45-.47-.85-.7-1.21ZM758.31,85.26h1.16v5.48h-1.16v-5.48ZM758.99,85.26h6.6v4.52h-6.6v-1.02h5.46v-2.46h-5.46v-1.04ZM760.89,74.28l1.22-.34c.2.41.39.86.58,1.34.19.48.33.89.42,1.24l-1.3.4c-.08-.35-.21-.77-.39-1.27-.18-.5-.36-.96-.53-1.37ZM762.93,80.98h1.22v1.96c0,.24.02.4.07.49.05.09.16.13.33.13h1.96c.15,0,.33,0,.55,0,.22,0,.4-.02.53-.05.01.15.03.31.04.49.01.18.03.34.06.49-.12.03-.29.05-.5.06-.21.01-.43.02-.66.02h-2.2c-.39,0-.68-.05-.88-.16-.2-.11-.34-.28-.41-.53-.07-.25-.11-.56-.11-.95v-1.94ZM765.27,77.6l1.36.32c-.32.53-.67,1.08-1.04,1.65-.37.57-.72,1.04-1.04,1.43l-1.04-.32c.2-.28.41-.6.63-.97.22-.37.43-.74.63-1.11.2-.37.37-.71.5-1ZM768.39,80.38h1.24v10.42c0,.36-.05.64-.16.83-.11.19-.31.34-.6.43-.28.09-.68.15-1.2.16s-1.22.02-2.1.02c-.03-.15-.08-.32-.15-.52-.07-.2-.16-.37-.25-.52.43.01.83.02,1.21.02s.71,0,.99,0c.28,0,.47,0,.56,0,.17-.01.29-.05.36-.1s.1-.15.1-.3v-10.42Z"/>
          <path class="cls-48" d="M774.77,81.14l1.28.26c-.09.77-.23,1.63-.41,2.58-.18.95-.39,1.88-.62,2.8-.23.92-.49,1.74-.77,2.46l-1.34-.58c.29-.68.56-1.46.81-2.33.25-.87.46-1.76.64-2.67.18-.91.32-1.75.41-2.52ZM777.89,79.6h1.38v10.02c0,.47.09.77.27.91.18.14.56.21,1.15.21h4.02c.44,0,.77-.11.98-.33.21-.22.36-.64.45-1.25.09-.61.15-1.51.19-2.68.12.08.25.16.4.25.15.09.3.16.46.22.16.06.3.11.42.15-.07,1.27-.18,2.26-.35,2.97-.17.71-.44,1.21-.82,1.5-.38.29-.94.43-1.67.43h-4.18c-.69,0-1.23-.07-1.62-.2-.39-.13-.66-.38-.83-.73-.17-.35-.25-.84-.25-1.47v-10ZM778.89,75.68l.9-.86c.63.43,1.28.91,1.97,1.44.69.53,1.34,1.06,1.95,1.59.61.53,1.11,1,1.48,1.43l-.94,1c-.37-.43-.86-.91-1.46-1.45-.6-.54-1.24-1.09-1.93-1.65-.69-.56-1.34-1.06-1.97-1.5ZM787.31,81.12l1.24-.46c.39.79.76,1.63,1.12,2.54.36.91.68,1.79.97,2.66.29.87.5,1.65.63,2.34l-1.32.52c-.13-.68-.34-1.46-.61-2.34-.27-.88-.58-1.78-.93-2.7s-.71-1.77-1.1-2.56Z"/>
          <path class="cls-48" d="M792.73,88.88c.53-.16,1.14-.34,1.82-.55s1.4-.44,2.17-.69c.77-.25,1.53-.51,2.29-.76l.24,1.28c-1.08.36-2.16.73-3.24,1.1s-2.06.71-2.94,1l-.34-1.38ZM792.95,75.42h6.16v1.26h-6.16v-1.26ZM793.15,81.22h5.68v1.26h-5.68v-1.26ZM795.47,75.92h1.3v12.42l-1.3.26v-12.68ZM798.31,90.46h12.98v1.24h-12.98v-1.24ZM799.87,86.34h10.76v1.22h-10.76v-1.22ZM800.13,74.98h10.2v8.88h-10.2v-8.88ZM801.37,76.16v2.68h7.68v-2.68h-7.68ZM801.37,79.96v2.74h7.68v-2.74h-7.68ZM804.61,75.56h1.18v7.72h.1v7.74h-1.36v-7.74h.08v-7.72Z"/>
          <path class="cls-48" d="M813.09,87.24h17.86v1.16h-17.86v-1.16ZM813.53,81.2h17v3.56h-1.34v-2.52h-14.38v2.52h-1.28v-3.56ZM818.61,74.22l.62.84c-.57.23-1.23.41-1.97.56-.74.15-1.41.26-2.01.34l-.5-.78c.39-.07.82-.16,1.29-.27s.94-.23,1.4-.36.85-.24,1.17-.33ZM814.75,75.18l1.3.36.4,6.22h-1.26l-.44-6.58ZM815.49,76.92h3.62v.96h-3.62v-.96ZM815.59,79.04h3.62v.96h-3.62v-.96ZM816.77,83.7h9.58v1.04h-9.58v-1.04ZM821.53,86.32h1.3v4.56c0,.36-.05.63-.15.82-.1.19-.3.33-.61.44-.29.09-.7.14-1.22.15-.52,0-1.19,0-2,0-.03-.16-.09-.35-.18-.56-.09-.21-.19-.4-.28-.56.44.01.84.02,1.21.03s.69,0,.96,0,.46,0,.55,0c.16-.01.27-.04.33-.09.06-.05.09-.14.09-.27v-4.52ZM823.05,77.6l.98.3c-.48.63-1.08,1.23-1.8,1.81-.72.58-1.44,1.06-2.16,1.45-.08-.09-.2-.22-.36-.37-.16-.15-.29-.28-.4-.37.71-.33,1.4-.75,2.09-1.24.69-.49,1.24-1.02,1.65-1.58ZM822.99,74.22l.98.28c-.45.61-1.02,1.2-1.71,1.75-.69.55-1.37,1.02-2.05,1.39-.08-.09-.2-.21-.36-.36-.16-.15-.3-.25-.42-.32.68-.35,1.35-.76,2-1.23.65-.47,1.17-.98,1.56-1.51ZM819.73,78.46l.7-.6c.45.21.93.46,1.42.74s.96.57,1.4.87c.44.3.79.58,1.06.85l-.72.7c-.27-.28-.61-.57-1.04-.87-.43-.3-.88-.6-1.37-.9s-.97-.56-1.45-.79ZM819.79,75.12l.68-.62c.45.19.92.41,1.39.68.47.27.93.53,1.36.8.43.27.78.53,1.05.78l-.7.68c-.27-.24-.61-.5-1.03-.79-.42-.29-.87-.56-1.35-.83-.48-.27-.95-.5-1.4-.7ZM826.03,83.7h.32l.28-.06.8.68c-.45.36-.97.71-1.56,1.04-.59.33-1.2.64-1.83.93s-1.25.54-1.85.75c-.07-.12-.17-.25-.31-.39-.14-.14-.26-.25-.35-.33.53-.19,1.08-.41,1.65-.68.57-.27,1.1-.55,1.61-.84s.92-.57,1.24-.84v-.26ZM824.77,79.04h3.58v.96h-3.58v-.96ZM824.79,74.8h3.86v.96h-3.86v-.96ZM824.89,76.92h3.62v.96h-3.62v-.96ZM828.11,74.8h1.28c-.04.76-.09,1.57-.14,2.42s-.11,1.68-.18,2.49c-.07.81-.13,1.5-.2,2.09h-1.3c.09-.6.17-1.31.24-2.12s.13-1.65.18-2.5c.05-.85.09-1.65.12-2.38Z"/>
          <path class="cls-48" d="M837.87,86.78l1.34.48c-.39.52-.83,1.05-1.34,1.58s-1.03,1.03-1.57,1.49-1.07.87-1.59,1.23c-.08-.08-.19-.18-.34-.29-.15-.11-.29-.22-.44-.33-.15-.11-.27-.19-.38-.26.8-.49,1.59-1.09,2.37-1.78.78-.69,1.43-1.4,1.95-2.12ZM846.27,74.06l.98,1.06c-.81.37-1.74.73-2.77,1.07-1.03.34-2.13.66-3.28.96-1.15.3-2.33.58-3.52.84-1.19.26-2.36.5-3.51.71-.03-.17-.08-.37-.17-.58-.09-.21-.16-.39-.23-.54,1.12-.21,2.27-.45,3.44-.72,1.17-.27,2.32-.55,3.43-.85s2.15-.61,3.12-.94c.97-.33,1.8-.66,2.51-1.01ZM834.55,86.46c-.01-.11-.04-.24-.09-.4-.05-.16-.1-.32-.16-.49-.06-.17-.11-.31-.15-.43.31-.03.69-.12,1.14-.29.45-.17.99-.39,1.6-.67.33-.15.83-.38,1.49-.71.66-.33,1.41-.72,2.26-1.19s1.73-.98,2.64-1.55c.91-.57,1.78-1.16,2.61-1.79l1.04.88c-1.87,1.31-3.76,2.46-5.69,3.45-1.93.99-3.82,1.85-5.69,2.57v.04c-.2.07-.37.13-.5.18-.13.05-.25.12-.35.19s-.15.14-.15.21ZM834.55,86.46l-.04-1.04.98-.5,13.14-.9c-.03.19-.04.4-.04.63v.55c-2.03.15-3.77.27-5.23.38s-2.69.2-3.68.27-1.8.14-2.42.2-1.1.11-1.45.15-.61.08-.8.12c-.19.04-.34.09-.46.14ZM835.67,82.28c-.01-.09-.04-.22-.09-.38-.05-.16-.1-.32-.15-.49s-.1-.31-.14-.43c.21-.03.45-.09.72-.19.27-.1.56-.24.88-.41.23-.12.6-.34,1.13-.66s1.11-.7,1.75-1.15c.64-.45,1.25-.92,1.82-1.41l1.18.76c-.99.76-2.01,1.46-3.06,2.09-1.05.63-2.09,1.17-3.1,1.61v.04c-.19.08-.34.15-.47.21-.13.06-.24.13-.33.2-.09.07-.14.14-.14.21ZM835.67,82.28l-.02-.98.82-.42,7.5-.38c-.04.16-.07.35-.09.57-.02.22-.04.4-.05.53-1.37.08-2.52.15-3.45.21-.93.06-1.68.11-2.26.16s-1.03.09-1.35.12c-.32.03-.56.06-.71.09-.15.03-.28.06-.39.1ZM841.51,84.94h1.36v5.74c0,.39-.05.69-.16.9-.11.21-.31.37-.62.48-.31.11-.71.17-1.22.2s-1.13.04-1.86.04c-.04-.2-.11-.43-.21-.68-.1-.25-.2-.47-.31-.66.41.01.8.03,1.16.04.36.01.67.02.93,0,.26,0,.44-.02.53-.03.17-.01.28-.04.33-.08.05-.04.07-.12.07-.24v-5.72ZM844.81,87.3l1.04-.7c.53.41,1.09.86,1.68,1.34.59.48,1.14.95,1.67,1.42.53.47.96.89,1.29,1.26l-1.12.78c-.32-.36-.74-.78-1.25-1.26-.51-.48-1.06-.97-1.63-1.47s-1.13-.96-1.68-1.37ZM845.35,82.04l1.1-.54c.51.45,1.02.95,1.55,1.48.53.53,1.02,1.05,1.47,1.56.45.51.82.96,1.1,1.36l-1.14.68c-.27-.4-.63-.87-1.08-1.4s-.94-1.07-1.47-1.62c-.53-.55-1.04-1.05-1.53-1.52Z"/>
        </g>
      </g>
    </g>
  </g>
  <g id="c83">
    <g id="tx__4my9sgplds75-fill">
      <g class="cls-34">
        <g class="cls-34">
          <path class="cls-48" d="M674.77,38.69l1.28.26c-.09.77-.23,1.63-.41,2.58-.18.95-.39,1.88-.62,2.8-.23.92-.49,1.74-.77,2.46l-1.34-.58c.29-.68.56-1.46.81-2.33.25-.87.46-1.76.64-2.67.18-.91.32-1.75.41-2.52ZM677.89,37.15h1.38v10.02c0,.47.09.77.27.91.18.14.56.21,1.15.21h4.02c.44,0,.77-.11.98-.33.21-.22.36-.64.45-1.25.09-.61.15-1.51.19-2.68.12.08.25.16.4.25.15.09.3.16.46.22.16.06.3.11.42.15-.07,1.27-.18,2.26-.35,2.97-.17.71-.44,1.21-.82,1.5-.38.29-.94.43-1.67.43h-4.18c-.69,0-1.23-.07-1.62-.2-.39-.13-.66-.38-.83-.73-.17-.35-.25-.84-.25-1.47v-10ZM678.89,33.23l.9-.86c.63.43,1.28.91,1.97,1.44.69.53,1.34,1.06,1.95,1.59.61.53,1.11,1,1.48,1.43l-.94,1c-.37-.43-.86-.91-1.46-1.45-.6-.54-1.24-1.09-1.93-1.65-.69-.56-1.34-1.06-1.97-1.5ZM687.31,38.67l1.24-.46c.39.79.76,1.63,1.12,2.54.36.91.68,1.79.97,2.66.29.87.5,1.65.63,2.34l-1.32.52c-.13-.68-.34-1.46-.61-2.34-.27-.88-.58-1.78-.93-2.7s-.71-1.77-1.1-2.56Z"/>
          <path class="cls-48" d="M692.73,46.43c.53-.16,1.14-.34,1.82-.55s1.4-.44,2.17-.69c.77-.25,1.53-.51,2.29-.76l.24,1.28c-1.08.36-2.16.73-3.24,1.1s-2.06.71-2.94,1l-.34-1.38ZM692.95,32.97h6.16v1.26h-6.16v-1.26ZM693.15,38.77h5.68v1.26h-5.68v-1.26ZM695.47,33.47h1.3v12.42l-1.3.26v-12.68ZM698.31,48.01h12.98v1.24h-12.98v-1.24ZM699.87,43.89h10.76v1.22h-10.76v-1.22ZM700.13,32.53h10.2v8.88h-10.2v-8.88ZM701.37,33.71v2.68h7.68v-2.68h-7.68ZM701.37,37.51v2.74h7.68v-2.74h-7.68ZM704.61,33.11h1.18v7.72h.1v7.74h-1.36v-7.74h.08v-7.72Z"/>
          <path class="cls-48" d="M713.09,44.79h17.86v1.16h-17.86v-1.16ZM713.53,38.75h17v3.56h-1.34v-2.52h-14.38v2.52h-1.28v-3.56ZM718.61,31.77l.62.84c-.57.23-1.23.41-1.97.56-.74.15-1.41.26-2.01.34l-.5-.78c.39-.07.82-.16,1.29-.27s.94-.23,1.4-.36.85-.24,1.17-.33ZM714.75,32.73l1.3.36.4,6.22h-1.26l-.44-6.58ZM715.49,34.47h3.62v.96h-3.62v-.96ZM715.59,36.59h3.62v.96h-3.62v-.96ZM716.77,41.25h9.58v1.04h-9.58v-1.04ZM721.53,43.87h1.3v4.56c0,.36-.05.63-.15.82-.1.19-.3.33-.61.44-.29.09-.7.14-1.22.15-.52,0-1.19,0-2,0-.03-.16-.09-.35-.18-.56-.09-.21-.19-.4-.28-.56.44.01.84.02,1.21.03s.69,0,.96,0,.46,0,.55,0c.16-.01.27-.04.33-.09.06-.05.09-.14.09-.27v-4.52ZM723.05,35.15l.98.3c-.48.63-1.08,1.23-1.8,1.81-.72.58-1.44,1.06-2.16,1.45-.08-.09-.2-.22-.36-.37-.16-.15-.29-.28-.4-.37.71-.33,1.4-.75,2.09-1.24.69-.49,1.24-1.02,1.65-1.58ZM722.99,31.77l.98.28c-.45.61-1.02,1.2-1.71,1.75-.69.55-1.37,1.02-2.05,1.39-.08-.09-.2-.21-.36-.36-.16-.15-.3-.25-.42-.32.68-.35,1.35-.76,2-1.23.65-.47,1.17-.98,1.56-1.51ZM719.73,36.01l.7-.6c.45.21.93.46,1.42.74s.96.57,1.4.87c.44.3.79.58,1.06.85l-.72.7c-.27-.28-.61-.57-1.04-.87-.43-.3-.88-.6-1.37-.9s-.97-.56-1.45-.79ZM719.79,32.67l.68-.62c.45.19.92.41,1.39.68.47.27.93.53,1.36.8.43.27.78.53,1.05.78l-.7.68c-.27-.24-.61-.5-1.03-.79-.42-.29-.87-.56-1.35-.83-.48-.27-.95-.5-1.4-.7ZM726.03,41.25h.32l.28-.06.8.68c-.45.36-.97.71-1.56,1.04-.59.33-1.2.64-1.83.93s-1.25.54-1.85.75c-.07-.12-.17-.25-.31-.39-.14-.14-.26-.25-.35-.33.53-.19,1.08-.41,1.65-.68.57-.27,1.1-.55,1.61-.84s.92-.57,1.24-.84v-.26ZM724.77,36.59h3.58v.96h-3.58v-.96ZM724.79,32.35h3.86v.96h-3.86v-.96ZM724.89,34.47h3.62v.96h-3.62v-.96ZM728.11,32.35h1.28c-.04.76-.09,1.57-.14,2.42s-.11,1.68-.18,2.49c-.07.81-.13,1.5-.2,2.09h-1.3c.09-.6.17-1.31.24-2.12s.13-1.65.18-2.5c.05-.85.09-1.65.12-2.38Z"/>
          <path class="cls-48" d="M737.87,44.33l1.34.48c-.39.52-.83,1.05-1.34,1.58s-1.03,1.03-1.57,1.49-1.07.87-1.59,1.23c-.08-.08-.19-.18-.34-.29-.15-.11-.29-.22-.44-.33-.15-.11-.27-.19-.38-.26.8-.49,1.59-1.09,2.37-1.78.78-.69,1.43-1.4,1.95-2.12ZM746.27,31.61l.98,1.06c-.81.37-1.74.73-2.77,1.07-1.03.34-2.13.66-3.28.96-1.15.3-2.33.58-3.52.84-1.19.26-2.36.5-3.51.71-.03-.17-.08-.37-.17-.58-.09-.21-.16-.39-.23-.54,1.12-.21,2.27-.45,3.44-.72,1.17-.27,2.32-.55,3.43-.85s2.15-.61,3.12-.94c.97-.33,1.8-.66,2.51-1.01ZM734.55,44.01c-.01-.11-.04-.24-.09-.4-.05-.16-.1-.32-.16-.49-.06-.17-.11-.31-.15-.43.31-.03.69-.12,1.14-.29.45-.17.99-.39,1.6-.67.33-.15.83-.38,1.49-.71.66-.33,1.41-.72,2.26-1.19s1.73-.98,2.64-1.55c.91-.57,1.78-1.16,2.61-1.79l1.04.88c-1.87,1.31-3.76,2.46-5.69,3.45-1.93.99-3.82,1.85-5.69,2.57v.04c-.2.07-.37.13-.5.18-.13.05-.25.12-.35.19s-.15.14-.15.21ZM734.55,44.01l-.04-1.04.98-.5,13.14-.9c-.03.19-.04.4-.04.63v.55c-2.03.15-3.77.27-5.23.38s-2.69.2-3.68.27-1.8.14-2.42.2-1.1.11-1.45.15-.61.08-.8.12c-.19.04-.34.09-.46.14ZM735.67,39.83c-.01-.09-.04-.22-.09-.38-.05-.16-.1-.32-.15-.49s-.1-.31-.14-.43c.21-.03.45-.09.72-.19.27-.1.56-.24.88-.41.23-.12.6-.34,1.13-.66s1.11-.7,1.75-1.15c.64-.45,1.25-.92,1.82-1.41l1.18.76c-.99.76-2.01,1.46-3.06,2.09-1.05.63-2.09,1.17-3.1,1.61v.04c-.19.08-.34.15-.47.21-.13.06-.24.13-.33.2-.09.07-.14.14-.14.21ZM735.67,39.83l-.02-.98.82-.42,7.5-.38c-.04.16-.07.35-.09.57-.02.22-.04.4-.05.53-1.37.08-2.52.15-3.45.21-.93.06-1.68.11-2.26.16s-1.03.09-1.35.12c-.32.03-.56.06-.71.09-.15.03-.28.06-.39.1ZM741.51,42.49h1.36v5.74c0,.39-.05.69-.16.9-.11.21-.31.37-.62.48-.31.11-.71.17-1.22.2s-1.13.04-1.86.04c-.04-.2-.11-.43-.21-.68-.1-.25-.2-.47-.31-.66.41.01.8.03,1.16.04.36.01.67.02.93,0,.26,0,.44-.02.53-.03.17-.01.28-.04.33-.08.05-.04.07-.12.07-.24v-5.72ZM744.81,44.85l1.04-.7c.53.41,1.09.86,1.68,1.34.59.48,1.14.95,1.67,1.42.53.47.96.89,1.29,1.26l-1.12.78c-.32-.36-.74-.78-1.25-1.26-.51-.48-1.06-.97-1.63-1.47s-1.13-.96-1.68-1.37ZM745.35,39.59l1.1-.54c.51.45,1.02.95,1.55,1.48.53.53,1.02,1.05,1.47,1.56.45.51.82.96,1.1,1.36l-1.14.68c-.27-.4-.63-.87-1.08-1.4s-.94-1.07-1.47-1.62c-.53-.55-1.04-1.05-1.53-1.52Z"/>
        </g>
      </g>
    </g>
  </g>
  <g id="b22">
    <g id="g-root-ro_74ro0plds7g-fill">
      <g id="ro_74ro0plds7g-fill">
        <path class="cls-8" d="M485.66,99.52h123.83s12.51,0,12.51,12v28.83s0,12-12.51,12h-123.83s-12.51,0-12.51-12v-28.83s0-12,12.51-12"/>
      </g>
    </g>
    <g id="g-root-tx__74ro0plds7h-fill">
      <g id="tx__74ro0plds7h-fill">
        <g class="cls-34">
          <g class="cls-34">
            <path class="cls-30" d="M530.68,124.06l1.84.36c-.09.81-.22,1.71-.39,2.69-.17.98-.35,1.94-.56,2.89-.21.95-.44,1.79-.69,2.52l-1.9-.78c.27-.71.51-1.49.73-2.36.22-.87.41-1.76.58-2.69.17-.93.3-1.8.39-2.63ZM534.06,122.7h1.96v9.66c0,.48.08.78.23.91s.5.19,1.03.19h3.42c.39,0,.68-.1.87-.31.19-.21.33-.6.41-1.17.08-.57.15-1.41.2-2.5.16.11.34.22.55.33s.42.21.65.29c.23.08.42.15.58.2-.07,1.27-.2,2.26-.39,2.98-.19.72-.5,1.23-.92,1.52-.42.29-1.02.44-1.81.44h-3.74c-.79,0-1.4-.09-1.85-.26-.45-.17-.76-.47-.93-.89-.17-.42-.26-1-.26-1.73v-9.66ZM534.88,118.84l1.3-1.26c.61.41,1.27.87,1.97,1.38.7.51,1.36,1.02,1.99,1.54.63.52,1.13.99,1.52,1.4l-1.38,1.46c-.36-.43-.84-.9-1.45-1.43-.61-.53-1.26-1.06-1.95-1.61-.69-.55-1.36-1.04-2-1.48ZM543.18,124.18l1.76-.7c.39.8.75,1.65,1.1,2.55.35.9.66,1.78.93,2.64.27.86.48,1.64.63,2.33l-1.9.78c-.12-.69-.31-1.48-.57-2.36-.26-.88-.56-1.78-.9-2.69-.34-.91-.69-1.76-1.05-2.55Z"/>
            <path class="cls-30" d="M548.76,131.72c.56-.15,1.19-.33,1.9-.54.71-.21,1.45-.45,2.24-.7.79-.25,1.57-.51,2.36-.76l.32,1.8c-1.09.37-2.2.75-3.32,1.12s-2.13.71-3.04,1.02l-.46-1.94ZM548.98,118.32h6.42v1.76h-6.42v-1.76ZM549.18,124.1h5.92v1.74h-5.92v-1.74ZM551.36,119.02h1.8v12.34l-1.8.32v-12.66ZM554.62,133.26h12.94v1.72h-12.94v-1.72ZM556.1,129.14h10.8v1.72h-10.8v-1.72ZM556.28,117.94h10.36v9.14h-10.36v-9.14ZM558,119.56v2.18h6.84v-2.18h-6.84ZM558,123.26v2.2h6.84v-2.2h-6.84ZM560.64,118.68h1.62v7.62h.14v7.74h-1.92v-7.74h.16v-7.62Z"/>
            <path class="cls-30" d="M569.16,130.26h18v1.54h-18v-1.54ZM569.56,124.24h17.28v3.86h-1.88v-2.46h-13.6v2.46h-1.8v-3.86ZM574.7,117.2l.8,1.12c-.6.24-1.28.44-2.05.6-.77.16-1.45.29-2.05.38l-.66-1.06c.39-.08.82-.18,1.31-.29.49-.11.96-.24,1.43-.38s.87-.26,1.22-.37ZM570.74,118.24l1.8.46.38,6.2h-1.78l-.4-6.66ZM571.68,119.92h3.7v1.24h-3.7v-1.24ZM571.76,122.08h3.68v1.22h-3.68v-1.22ZM572.96,126.78h9.16v1.38h-9.16v-1.38ZM577.44,129.52h1.86v4.22c0,.45-.06.8-.19,1.04-.13.24-.37.43-.73.56-.36.12-.81.19-1.35.21-.54.02-1.2.03-1.99.03-.04-.24-.12-.51-.24-.8-.12-.29-.25-.56-.38-.8.39.01.76.02,1.11.03.35,0,.67,0,.94,0h.55c.16,0,.27-.02.33-.07.06-.05.09-.14.09-.27v-4.16ZM579.08,120.58l1.26.4c-.48.65-1.08,1.27-1.8,1.85-.72.58-1.45,1.06-2.18,1.45-.09-.13-.25-.3-.46-.5-.21-.2-.39-.36-.52-.48.71-.32,1.4-.72,2.07-1.19.67-.47,1.22-.98,1.63-1.53ZM579.04,117.22l1.26.36c-.44.61-1.01,1.19-1.7,1.74s-1.37,1-2.04,1.36c-.11-.12-.27-.27-.48-.45s-.4-.32-.56-.43c.69-.32,1.36-.7,1.99-1.15.63-.45,1.14-.92,1.53-1.43ZM575.84,121.58l.9-.78c.45.21.92.46,1.4.74.48.28.94.57,1.37.86.43.29.79.57,1.07.84l-.98.88c-.25-.27-.59-.55-1.01-.85-.42-.3-.87-.6-1.35-.9-.48-.3-.95-.56-1.4-.79ZM575.92,118.2l.9-.78c.43.19.87.41,1.33.67.46.26.9.53,1.31.8s.75.52,1.02.75l-.94.88c-.25-.24-.58-.5-.98-.78s-.83-.56-1.29-.83c-.46-.27-.91-.51-1.35-.71ZM581.64,126.78h.46l.4-.1,1.08.98c-.48.36-1.01.71-1.6,1.06s-1.19.67-1.81.98c-.62.31-1.24.58-1.85.82-.11-.16-.25-.34-.43-.53s-.33-.35-.45-.47c.51-.19,1.03-.42,1.56-.7s1.03-.57,1.5-.87.85-.58,1.14-.83v-.34ZM580.9,117.76h3.78v1.24h-3.78v-1.24ZM580.92,122.08h3.46v1.22h-3.46v-1.22ZM581.02,119.92h3.5v1.24h-3.5v-1.24ZM583.94,117.76h1.8c-.04.79-.09,1.62-.14,2.5s-.11,1.73-.18,2.56c-.07.83-.13,1.54-.2,2.14h-1.82c.08-.63.16-1.35.23-2.18.07-.83.14-1.68.19-2.56.05-.88.09-1.7.12-2.46Z"/>
            <path class="cls-30" d="M591.16,123.46l1.16.4c-.25.67-.61,1.33-1.07,1.99s-.94,1.18-1.45,1.57c-.13-.2-.31-.42-.52-.66-.21-.24-.41-.43-.6-.56.32-.19.64-.43.95-.73.31-.3.6-.63.87-.98.27-.35.49-.7.66-1.03ZM592.54,127.02h1.64v2.06c0,.55-.05,1.11-.15,1.69s-.3,1.15-.6,1.71-.75,1.1-1.34,1.61c-.59.51-1.38.98-2.37,1.41-.07-.13-.15-.29-.26-.46-.11-.17-.23-.34-.36-.51s-.25-.3-.36-.41c.87-.35,1.55-.73,2.05-1.14s.88-.84,1.13-1.29c.25-.45.42-.9.5-1.35.08-.45.12-.89.12-1.3v-2.02ZM589.08,121.4h8.66v1.54h-8.66v-1.54ZM589.08,128.76h8.8v1.58h-8.8v-1.58ZM589.44,118.26l1.32-.48c.24.36.47.76.7,1.21.23.45.37.84.44,1.17l-1.38.56c-.07-.35-.2-.75-.4-1.2s-.43-.87-.68-1.26ZM592.66,117.16h1.66v9.44h-1.66v-9.44ZM592.7,132.04l1-1.16c.41.24.86.52,1.33.83.47.31.93.62,1.37.92.44.3.8.56,1.08.79l-1.04,1.32c-.27-.24-.62-.52-1.05-.84-.43-.32-.88-.64-1.35-.97-.47-.33-.91-.62-1.34-.89ZM595.4,123.52c.12.08.31.21.56.4.25.19.52.39.8.6.28.21.54.42.77.61.23.19.4.34.51.43l-1.04,1.22c-.13-.16-.31-.36-.53-.59-.22-.23-.46-.48-.71-.73-.25-.25-.5-.49-.73-.71-.23-.22-.43-.39-.59-.51l.96-.72ZM594.9,127.4l1.06-.68c.25.23.52.49.79.79.27.3.48.56.63.79l-1.1.76c-.13-.24-.33-.52-.59-.83-.26-.31-.52-.59-.79-.83ZM595.98,117.82l1.56.44c-.24.47-.48.93-.71,1.38s-.46.84-.67,1.16l-1.24-.42c.19-.36.38-.78.58-1.27.2-.49.36-.92.48-1.29ZM600.64,132l1.6.96c-.31.35-.67.69-1.09,1.03-.42.34-.86.66-1.32.95s-.92.55-1.37.76c-.15-.17-.34-.38-.57-.62-.23-.24-.45-.44-.65-.6.43-.2.86-.44,1.29-.71.43-.27.84-.57,1.21-.88.37-.31.67-.61.9-.89ZM597.94,117.94h9.4v1.62h-9.4v-1.62ZM598.64,121.22h8v10.5h-8v-10.5ZM600.36,122.66v1.62h4.48v-1.62h-4.48ZM600.36,125.64v1.62h4.48v-1.62h-4.48ZM600.36,128.62v1.66h4.48v-1.66h-4.48ZM601.54,118.8l2.06.26c-.2.59-.4,1.17-.61,1.75-.21.58-.4,1.08-.57,1.49l-1.6-.3c.09-.31.19-.65.28-1.02s.18-.75.26-1.14c.08-.39.14-.73.18-1.04ZM602.96,132.98l1.36-.94c.39.24.79.51,1.22.82s.83.61,1.22.92c.39.31.71.59.96.84l-1.46,1.02c-.23-.24-.53-.52-.9-.83-.37-.31-.77-.63-1.19-.96-.42-.33-.82-.62-1.21-.87Z"/>
          </g>
        </g>
      </g>
    </g>
    <g id="_圖層_1">
      <g id="_圖層_1-2">
        <g id="_圖層_1-2-2" data-name="_圖層_1-2">
          <g>
            <path class="cls-50" d="M499.54,142.77l11.24.08c-.41-3.02-.59-4.1-.48-7.25.23-4.29,7.65-7.97,5.62-16.71-1.54-6.62-8.33-9.45-16.12-7.37-3.53.95-6.18,2.99-6.94,6.56,0,.08-.1.95-.12,1.02-.18.93.31,3.96-.15,4.7-1.1,1.77-1.99,2.59-2.29,2.8-.81.56-.85,1.95.49,2.46,1.04.39.92.22.92,1s-.12.71-.27.98c-.18.34-.26.39-.09.77.18.39.76.64.76.64,0,0-.68.48,0,1.44.15.21.45.32.49.5.21.9.15.87.15,1.2s.05,2.14,2.2,2.52c.4.07,2.09.05,3.79-.03.3,2.19.27,2.83.76,4.7h0Z"/>
            <g>
              <path class="cls-35" d="M510.21,115.69l-6.4,2.99v3.54l1.73,2.16h3.32l2.71-.35,1.7-3.25h-.13c.48-.41.7-1.09.48-1.73-.22-.64-.77-1.09-1.41-1.12.26-.58.19-1.28-.26-1.79s-1.15-.67-1.73-.45"/>
              <path class="cls-47" d="M509.27,114.19c-.61-.26-1.31-.13-1.76.32-.26-.58-.83-.99-1.5-.99s-1.25.41-1.5.99c0,0-.62,2.58,1.79,3.41,2.94.96,3.91-2.23,3.91-2.23,0-.64-.33-1.24-.94-1.49h0Z"/>
              <path class="cls-39" d="M506.67,123.14c-.16-2.3-2.27-2.5-2.27-2.5h0c.16-.21.28-.45.33-.7.06-.32,0-.61-.06-.9h.32c1.47-.13,1.89-2.11.64-2.91-.58-.38-1.11-.94-1.14-1.67-.45-.45-1.13-.53-1.74-.28-.61.29-.96.9-.96,1.5-.58-.19-1.28-.06-1.73.45-.45.51-.54,1.22-.26,1.79-.64.06-1.22.48-1.41,1.12s0,1.34.48,1.73c-.58.32-.9.93-.83,1.6.06.67.54,1.22,1.15,1.37-.38.51-.45,1.22-.09,1.79.32.58.96.86,1.6.8,0,0,6.92-.03,5.96-3.19h0Z"/>
              <path class="cls-46" d="M513.27,120.78h-.13s-1.82-.09-2.3,1.86c0,0-1.89-1.02-3.61,0-.35.22-.7.54-.93.9-.22.33-.5.81-.64,1.37l.05.04c-3.1-1.09-5.09,1.41-5.09,1.41h.08c-.16.61.06,1.28.64,1.69s1.25.41,1.79.06c.13.61.61,1.15,1.25,1.28s1.31-.13,1.69-.67c.35.51,1.02.8,1.69.67.67-.13,1.15-.67,1.25-1.28.54.32,1.25.32,1.79-.06.54-.41.77-1.09.64-1.69.64.06,1.28-.22,1.6-.8s.29-1.28-.09-1.79c.61-.19,1.09-.7,1.15-1.37.06-.67-.29-1.28-.83-1.6h0Z"/>
            </g>
            <g>
              <path class="cls-50" d="M504.71,129.54c-.12,0-.24,0-.35-.03-.61-.12-1.11-.6-1.3-1.21-.58.3-1.23.25-1.79-.15-.55-.39-.82-1.03-.72-1.66-.65,0-1.25-.32-1.56-.87-.34-.55-.33-1.24,0-1.79-.59-.22-1.02-.78-1.08-1.43-.06-.66.22-1.27.75-1.63-.42-.43-.58-1.11-.39-1.74.18-.61.7-1.06,1.35-1.18-.23-.59-.1-1.27.34-1.77.41-.47,1.08-.67,1.7-.53.06-.62.45-1.18,1.02-1.45h0c.6-.25,1.28-.16,1.77.24.32-.56.9-.92,1.54-.92s1.23.35,1.54.92c.48-.39,1.17-.49,1.77-.24.58.24.97.8,1.03,1.45.61-.16,1.27.04,1.7.53.42.48.55,1.16.33,1.77.61.09,1.13.54,1.35,1.18.21.59.07,1.23-.34,1.7.57.36.9,1.02.84,1.68-.06.63-.48,1.17-1.08,1.42.32.53.33,1.22,0,1.79s-.91.88-1.56.87c.07.63-.2,1.27-.71,1.66-.53.37-1.21.42-1.78.15-.16.62-.67,1.09-1.31,1.22-.64.12-1.31-.11-1.72-.59-.34.4-.84.63-1.36.63h0s0,0,0,0ZM503.14,127.98s.03,0,.05,0c.04.01.06.05.07.09.13.6.59,1.07,1.15,1.19.6.12,1.22-.12,1.57-.62.02-.03.06-.05.1-.05s.08.02.1.05c.33.49.96.73,1.57.62.6-.11,1.06-.59,1.15-1.18,0-.04.03-.07.07-.09.04-.02.08-.01.11,0,.52.31,1.17.29,1.66-.06.48-.37.71-.98.59-1.57,0-.04,0-.08.03-.11.02-.03.06-.04.1-.04.62.06,1.2-.23,1.48-.73.3-.54.27-1.19-.08-1.66-.02-.03-.03-.07-.02-.11,0-.04.04-.07.08-.08.59-.19,1.01-.68,1.07-1.27.05-.58-.24-1.15-.74-1.47h-.09s-.1-.03-.11-.08c-.02-.05,0-.1.03-.14.47-.4.64-1.03.44-1.59-.21-.6-.72-1.01-1.3-1.03-.04,0-.08-.02-.1-.06s-.02-.08,0-.11c.25-.56.16-1.21-.24-1.66-.4-.46-1.04-.63-1.59-.41-.04.01-.08,0-.11-.01s-.05-.06-.05-.1c0-.62-.35-1.16-.89-1.39-.56-.24-1.21-.12-1.62.3-.03.03-.07.04-.11.03-.04,0-.07-.03-.09-.07-.25-.56-.79-.92-1.39-.92s-1.14.36-1.39.92c-.01.04-.05.06-.09.07-.04,0-.08,0-.11-.03-.41-.41-1.06-.53-1.62-.3-.54.26-.89.8-.89,1.39s-.02.08-.05.1c-.03.02-.07.03-.11.01-.57-.19-1.22-.02-1.59.41-.41.47-.5,1.12-.24,1.65.02.03.01.08,0,.11s-.05.06-.09.06c-.62.06-1.13.47-1.3,1.03-.18.59,0,1.25.44,1.59.03.02.05.06.04.11,0,.04-.02.08-.06.1-.53.3-.83.86-.77,1.48.06.61.48,1.12,1.06,1.27.04,0,.07.04.08.08.01.04,0,.08-.02.11-.37.49-.4,1.14-.09,1.65h0c.28.51.86.8,1.48.73.04,0,.08,0,.1.04.02.03.03.07.02.11-.15.58.08,1.2.59,1.56.52.37,1.13.39,1.65.06.02-.01.04-.02.06-.02h0s0,0,0,0Z"/>
              <path class="cls-50" d="M501.41,123.52c-.07,0-.12-.05-.12-.12s.05-.12.12-.12c.77,0,1.41-.64,1.41-1.41s0-.42-.02-.48c-.04-.02-.09-.06-.13-.15-.02-.04,0-.09.02-.13.03-.03.07-.05.12-.04.33.07.59.05.9-.06.44-.18.79-.6.91-1.09.06-.29,0-.55-.06-.83h0s0-.08.02-.11c.02-.03.06-.04.09-.04h.32c.72-.06,1.1-.59,1.22-1.06.16-.64-.09-1.27-.64-1.62-.53-.35-1.17-.95-1.21-1.79,0-.07.05-.12.12-.13.07,0,.12.05.13.12.03.74.62,1.27,1.1,1.59.63.4.92,1.14.74,1.89-.17.71-.72,1.19-1.44,1.25h-.18c.05.25.09.51.03.8-.14.58-.54,1.06-1.06,1.27-.26.09-.49.13-.75.11.02.1.02.26.02.51,0,.9-.76,1.66-1.66,1.66h0Z"/>
              <path class="cls-50" d="M504.78,119.21s-.03,0-.04,0c-.06-.02-1.47-.55-2.02-2.06-.02-.06,0-.13.07-.16s.13,0,.16.07c.51,1.4,1.86,1.91,1.88,1.91.06.02.1.09.07.16-.02.05-.06.08-.11.08h0Z"/>
              <path class="cls-50" d="M507.35,118.22c-.34,0-.71-.06-1.09-.18-.06-.02-.1-.09-.08-.15.02-.06.09-.1.16-.08.8.26,1.51.23,2.13-.1,1.16-.61,1.6-2.04,1.61-2.06.02-.06.09-.1.15-.08.06.02.1.09.08.15-.02.06-.48,1.55-1.73,2.21-.38.2-.8.3-1.24.3h0Z"/>
              <path class="cls-50" d="M505.72,126.91s-.1-.03-.11-.08c-.39-1.06-.2-2.2.59-3.37.21-.34.56-.68.96-.93,1.52-.9,3.12-.29,3.6-.07.56-1.88,2.37-1.8,2.39-1.8.07,0,.12.06.12.13s-.06.12-.13.12-1.73-.06-2.18,1.76c0,.04-.03.07-.07.08-.03.01-.07.01-.11,0-.02,0-1.85-.98-3.49,0-.36.23-.69.55-.89.86-.74,1.11-.93,2.17-.57,3.15.02.06,0,.13-.07.16-.01,0-.03,0-.04,0h0s0,0,0,0Z"/>
              <path class="cls-50" d="M508.57,122.35c-.07,0-.12-.05-.12-.12-.05-1.95.98-3.08,1.86-3.67.94-.64,1.88-.82,1.92-.83.07-.01.13.03.14.1.01.07-.03.13-.1.14,0,0-.94.18-1.84.8-1.2.82-1.78,1.98-1.74,3.46,0,.07-.05.12-.12.13h0Z"/>
              <path class="cls-17" d="M500.63,126.34s1.98-2.5,5.09-1.41"/>
              <path class="cls-50" d="M508.92,128.21s-.04,0-.07-.02c-.04-.02-.98-.65-.98-1.96s.28-1.12.75-1.39c.47-.27,1.05-.24,1.55.07.06.03.07.11.04.17-.03.06-.11.07-.17.04-.42-.26-.91-.28-1.3-.06-.4.22-.63.65-.63,1.18,0,1.17.84,1.73.87,1.75.06.04.07.11.03.17-.02.03-.06.05-.1.05h0Z"/>
              <path class="cls-17" d="M504.4,120.65s2.11.19,2.27,2.5"/>
              <path class="cls-50" d="M502.8,121.32s-.03,0-.05,0c-.04-.02-.96-.47-1.58-1.25-.04-.05-.03-.13.02-.17.05-.04.13-.03.17.02.59.73,1.48,1.18,1.49,1.18.06.03.09.1.06.16-.02.04-.06.07-.11.07h0Z"/>
            </g>
          </g>
        </g>
      </g>
    </g>
  </g>
  <g id="a9">
    <g id="g-root-ro_18mjsb4o7d0ck-stroke">
      <g id="ro_18mjsb4o7d0ck-stroke">
        <path class="cls-16" d="M303.29,52.35h95.45s27.27,0,27.27,28.57v92.86s0,28.57-27.27,28.57h-95.45s-27.27,0-27.27-28.57v-92.86s0-28.57,27.27-28.57"/>
      </g>
    </g>
    <g>
      <g id="g-root-tx__1ly0aogo7cyrm-fill">
        <g id="tx__1ly0aogo7cyrm-fill">
          <g class="cls-34">
            <g class="cls-34">
              <path class="cls-51" d="M313.53,159.47l1.84.36c-.09.81-.22,1.71-.39,2.69-.17.98-.35,1.94-.56,2.89-.21.95-.44,1.79-.69,2.52l-1.9-.78c.27-.71.51-1.49.73-2.36.22-.87.41-1.76.58-2.69.17-.93.3-1.8.39-2.63ZM316.91,158.11h1.96v9.66c0,.48.08.78.23.91s.5.19,1.03.19h3.42c.39,0,.68-.1.87-.31.19-.21.33-.6.41-1.17.08-.57.15-1.41.2-2.5.16.11.34.22.55.33s.42.21.65.29c.23.08.42.15.58.2-.07,1.27-.2,2.26-.39,2.98-.19.72-.5,1.23-.92,1.52-.42.29-1.02.44-1.81.44h-3.74c-.79,0-1.4-.09-1.85-.26-.45-.17-.76-.47-.93-.89-.17-.42-.26-1-.26-1.73v-9.66ZM317.73,154.25l1.3-1.26c.61.41,1.27.87,1.97,1.38.7.51,1.36,1.02,1.99,1.54.63.52,1.13.99,1.52,1.4l-1.38,1.46c-.36-.43-.84-.9-1.45-1.43-.61-.53-1.26-1.06-1.95-1.61-.69-.55-1.36-1.04-2-1.48ZM326.03,159.59l1.76-.7c.39.8.75,1.65,1.1,2.55.35.9.66,1.78.93,2.64.27.86.48,1.64.63,2.33l-1.9.78c-.12-.69-.31-1.48-.57-2.36-.26-.88-.56-1.78-.9-2.69-.34-.91-.69-1.76-1.05-2.55Z"/>
              <path class="cls-51" d="M331.61,167.13c.56-.15,1.19-.33,1.9-.54.71-.21,1.45-.45,2.24-.7.79-.25,1.57-.51,2.36-.76l.32,1.8c-1.09.37-2.2.75-3.32,1.12s-2.13.71-3.04,1.02l-.46-1.94ZM331.83,153.73h6.42v1.76h-6.42v-1.76ZM332.03,159.51h5.92v1.74h-5.92v-1.74ZM334.21,154.43h1.8v12.34l-1.8.32v-12.66ZM337.47,168.67h12.94v1.72h-12.94v-1.72ZM338.95,164.55h10.8v1.72h-10.8v-1.72ZM339.13,153.35h10.36v9.14h-10.36v-9.14ZM340.85,154.97v2.18h6.84v-2.18h-6.84ZM340.85,158.67v2.2h6.84v-2.2h-6.84ZM343.49,154.09h1.62v7.62h.14v7.74h-1.92v-7.74h.16v-7.62Z"/>
              <path class="cls-51" d="M352.01,165.67h18v1.54h-18v-1.54ZM352.41,159.65h17.28v3.86h-1.88v-2.46h-13.6v2.46h-1.8v-3.86ZM357.55,152.61l.8,1.12c-.6.24-1.28.44-2.05.6-.77.16-1.45.29-2.05.38l-.66-1.06c.39-.08.82-.18,1.31-.29.49-.11.96-.24,1.43-.38s.87-.26,1.22-.37ZM353.59,153.65l1.8.46.38,6.2h-1.78l-.4-6.66ZM354.53,155.33h3.7v1.24h-3.7v-1.24ZM354.61,157.49h3.68v1.22h-3.68v-1.22ZM355.81,162.19h9.16v1.38h-9.16v-1.38ZM360.29,164.93h1.86v4.22c0,.45-.06.8-.19,1.04-.13.24-.37.43-.73.56-.36.12-.81.19-1.35.21-.54.02-1.2.03-1.99.03-.04-.24-.12-.51-.24-.8-.12-.29-.25-.56-.38-.8.39.01.76.02,1.11.03.35,0,.67,0,.94,0h.55c.16,0,.27-.02.33-.07.06-.05.09-.14.09-.27v-4.16ZM361.93,155.99l1.26.4c-.48.65-1.08,1.27-1.8,1.85-.72.58-1.45,1.06-2.18,1.45-.09-.13-.25-.3-.46-.5-.21-.2-.39-.36-.52-.48.71-.32,1.4-.72,2.07-1.19.67-.47,1.22-.98,1.63-1.53ZM361.89,152.63l1.26.36c-.44.61-1.01,1.19-1.7,1.74s-1.37,1-2.04,1.36c-.11-.12-.27-.27-.48-.45s-.4-.32-.56-.43c.69-.32,1.36-.7,1.99-1.15.63-.45,1.14-.92,1.53-1.43ZM358.69,156.99l.9-.78c.45.21.92.46,1.4.74.48.28.94.57,1.37.86.43.29.79.57,1.07.84l-.98.88c-.25-.27-.59-.55-1.01-.85-.42-.3-.87-.6-1.35-.9-.48-.3-.95-.56-1.4-.79ZM358.77,153.61l.9-.78c.43.19.87.41,1.33.67.46.26.9.53,1.31.8s.75.52,1.02.75l-.94.88c-.25-.24-.58-.5-.98-.78s-.83-.56-1.29-.83c-.46-.27-.91-.51-1.35-.71ZM364.49,162.19h.46l.4-.1,1.08.98c-.48.36-1.01.71-1.6,1.06s-1.19.67-1.81.98c-.62.31-1.24.58-1.85.82-.11-.16-.25-.34-.43-.53s-.33-.35-.45-.47c.51-.19,1.03-.42,1.56-.7s1.03-.57,1.5-.87.85-.58,1.14-.83v-.34ZM363.75,153.17h3.78v1.24h-3.78v-1.24ZM363.77,157.49h3.46v1.22h-3.46v-1.22ZM363.87,155.33h3.5v1.24h-3.5v-1.24ZM366.79,153.17h1.8c-.04.79-.09,1.62-.14,2.5s-.11,1.73-.18,2.56c-.07.83-.13,1.54-.2,2.14h-1.82c.08-.63.16-1.35.23-2.18.07-.83.14-1.68.19-2.56.05-.88.09-1.7.12-2.46Z"/>
              <path class="cls-51" d="M372.75,153.35h1.86v17.68h-1.86v-17.68ZM373.65,156.35h5.32v1.38h-5.32v-1.38ZM373.81,153.35h6.32v7.52h-6.32v-1.54h4.54v-4.42h-4.54v-1.56ZM388.49,153.35v1.56h-4.9v4.44h4.9v1.56h-6.7v-7.56h6.7ZM382.87,156.35h5.4v1.38h-5.4v-1.38ZM387.49,153.35h1.9v15.26c0,.59-.07,1.04-.22,1.35-.15.31-.41.55-.8.71s-.9.26-1.54.29c-.64.03-1.43.05-2.36.05-.03-.17-.08-.38-.15-.61-.07-.23-.16-.47-.25-.72-.09-.25-.19-.45-.28-.61.44.01.88.02,1.31.03s.82,0,1.15,0h.7c.2-.01.34-.06.42-.13s.12-.2.12-.39v-15.24Z"/>
            </g>
          </g>
        </g>
      </g>
      <g id="_圖層_1-2" data-name="_圖層_1">
        <g id="_圖層_1-2-3" data-name="_圖層_1-2">
          <g id="_圖層_1-2-4" data-name="_圖層_1-2">
            <g>
              <path class="cls-37" d="M341.76,95.67h0c-.66-.68-.2-1.85.74-1.85h0c1.06,0,1.93-.88,1.93-1.98v-.56c0-1.09-.88-1.98-1.94-1.99h0c-.95,0-1.41-1.17-.75-1.85h0c.75-.76.75-2.01,0-2.79l-.39-.4c-.75-.76-1.99-.79-2.74,0h0c-.66.68-1.81.19-1.81-.76h0c0-1.09-.88-1.98-1.94-1.99h-.55c-1.06,0-1.93.88-1.93,1.96h0c0,.97-1.15,1.45-1.81.75h0c-.76-.76-1.99-.79-2.74,0l-.39.4c-.75.76-.75,2.01,0,2.79.66.68.2,1.85-.74,1.85h0c-1.06,0-1.93.88-1.93,1.98v.56c0,1.09.88,1.98,1.94,1.99h0c.95,0,1.41,1.17.75,1.85h0c-.75.76-.75,2.03,0,2.79l.39.4c.76.76,1.99.79,2.74,0,.66-.68,1.81-.19,1.81.76s.88,1.98,1.94,1.99h.55c1.06,0,1.93-.88,1.93-1.96h0c0-.97,1.15-1.45,1.81-.75h0c.75.76,1.99.79,2.74,0l.39-.39c.75-.76.75-2.03,0-2.79h0ZM331.19,94.99c-1.89-1.92-1.89-5.01-.03-6.93s4.93-1.89,6.8.03c1.89,1.92,1.89,5.01.03,6.93s-4.93,1.89-6.8-.03h0Z"/>
              <path class="cls-28" d="M325.24,107.59s-3.55-12.11-13.91-13.96l10.08,14.34s-5.81-7.42-15.39-1.82c0,0,10.3,1.52,14.42,6.04,0,0,2.23,3.87,3.25,4.03,6.28.91,1.54-8.62,1.54-8.62h0,0Z"/>
              <g>
                <rect class="cls-33" x="322.56" y="97.69" width="50.41" height="35.95"/>
                <rect class="cls-14" x="322.56" y="94.05" width="50.41" height="5.15"/>
                <circle class="cls-30" cx="325.51" cy="96.63" r=".94"/>
                <circle class="cls-30" cx="328.29" cy="96.62" r=".94"/>
                <circle class="cls-30" cx="331.07" cy="96.62" r=".94"/>
              </g>
              <path class="cls-43" d="M354.1,124.81c3.2-4.43,5.14-6.62,8.28-11.15l2.86.45c-4.9,10.02-4.73,13.89-8.6,16.64-8.09-1.6-1.51,1.53-2.53-5.94h0Z"/>
              <path class="cls-43" d="M363.37,116.55l3.44-1.09c.69-.21,1.26-.68,1.65-1.3l1.53-2.49c.53-.86.04-2-.97-2.2h0l-4.24,1.62c-.95.36-1.75,1.11-2.3,2.08l-.9,1.64,1.79,1.74h0Z"/>
              <path class="cls-7" d="M354.08,115.17l2.98,9.63c.46.16,1.18,5.09-.99,6.43h0c-1.53,1-3.59.05-3.8-1.76l-1.7-7.28-.29-5.46,3.8-1.55h0v-.02h0Z"/>
              <path class="cls-11" d="M349.24,106.37s2.51.44,5.95,10.32l-4.56,7.1-1.39-17.41h0Z"/>
              <path class="cls-11" d="M345.4,104.44c-1.67,2.53-3.63.66-4.28-.23-.1-.14-2.88.9-3.1,1.05-3.51,2.43-3.97,12.85-4.59,16.61-.29,1.74-1.93,7.63-1.05,9.14.29.5,3.04.11,3.58.21,2.3.4,12.57,1.2,13.97-.36,1.4-1.56.35-4.47.63-6.33,1.41-9.72-1.3-18.16-1.3-18.16l-3.85-1.93h-.02,0Z"/>
              <path class="cls-7" d="M346.54,100.37s-.56,3.21-1.04,5.89c-.13.71-.63,1.3-1.31,1.53s-1.43.09-1.99-.38c-.18-.15-.35-.3-.51-.45-.74-.65-1.04-1.67-.76-2.63.69-2.43,1.98-6.89,1.98-6.89l3.64,2.91h0v.02h0Z"/>
              <path class="cls-9" d="M346.65,94.96s2.69.79,1.05,3.41c-1.65,2.64-1.05-3.41-1.05-3.41h0Z"/>
              <path class="cls-7" d="M347.39,96.91c-.15-.84-.65-1.58-1.36-2.04-.71-.46-1.59-.62-2.43-.4h0c-1.6.39-2.63,1.98-2.33,3.59.18.94.36,1.96.53,2.84.11.61.46,1.14.99,1.46.51.33,1.14.45,1.73.29.55-.14,1.14-.28,1.67-.41,1.18-.29,1.92-1.45,1.71-2.64-.15-.83-.33-1.79-.5-2.69h0Z"/>
              <path class="cls-9" d="M342.97,97.17s.8,2.75-1.39,3.13c0,0-1.49-2.36-1.8-3.64-.58-2.38,4.18-3.54,6.28-2.8,2.1.74,1.17,2.78-3.09,3.32h0Z"/>
              <path class="cls-7" d="M341.45,99.11c.39-.16.86.11,1.06.61s.05,1.01-.33,1.18-.86-.11-1.06-.61-.05-1.01.33-1.18h0Z"/>
              <path class="cls-9" d="M347.9,99.57c.11-.27,1.31,3.7-1.21,4.08-2.51.38-3.71-.53-4.54-5.13,0,0,1.4,2.73,2.9,2.66,3.11-.13,2.71-1.31,2.85-1.62h0Z"/>
              <path class="cls-9" d="M344.52,96.85s5.3-1.19,3.71-3.39c-1.47-2.04-4.56,3.15-5.46,2.4l1.75.99h0Z"/>
              <path class="cls-4" d="M347.25,100.55l-1.47.4s.3.99.99.71c.69-.28.49-1.12.49-1.12h0Z"/>
              <path class="cls-11" d="M350.98,116.55c-2,5.32-17.6,1.66-15.91-.89,2.36-3.56-1.03,2.46-1.66,6.22-.29,1.74-2.01,10.06-1.14,11.58.29.5,18.67.13,18.67.13-.69-4.65.28-11.79.04-13.66-.62-4.8,0-3.39,0-3.39h-.03.02,0Z"/>
              <path class="cls-7" d="M328.35,118.55l-.58,9.98c0,2.15,1.06,4.24,2.96,5.24l7.89-.08-4.77-5.25.19-11.47-5.69,1.56h0v.02h0Z"/>
              <path class="cls-11" d="M341.03,103.73s-6.5.3-9.78,4.59c-1.86,2.43-3.5,6.03-4.36,11.57l9.48,1.53,4.64-17.68h0Z"/>
              <line class="cls-23" x1="334.06" y1="120.69" x2="335.1" y2="114.56"/>
              <path class="cls-23" d="M350.98,119.51s-.05-1.82-.53-5.49"/>
              <rect class="cls-30" x="322.5" y="130.52" width="53.5" height="1.11"/>
              <rect class="cls-13" x="322.5" y="130.52" width="27.84" height="1.11"/>
              <circle class="cls-13" cx="350.58" cy="131.06" r="1.04"/>
              <g>
                <path class="cls-7" d="M373.66,124.77s3.26-.94,4.59-2.1c1.31-1.18-.13-1.53-.58-1.49s-4.07,2.43-4.07,2.43l.06,1.16h0Z"/>
                <path class="cls-7" d="M374.32,124.63s-1.58.55-1.79-.35c-.2-.9,1.17-1.2,1.58-.95s.2,1.3.2,1.3h0Z"/>
                <path class="cls-2" d="M379.38,122.59s-1.19,2.84-1.16,3.41c.09,1.11.64,1.94.64,1.94l5.14.62c1.47.18,2.64-.99,2.46-2.44v-.03c0-.14-.03-.28-.04-.41-.06-.65-.23-2.61-.23-2.61-1.89-1.03-3.79-.39-6.3-1.38l-.53.9h0Z"/>
                <path class="cls-2" d="M368.38,133.6c.36-.62,1.67-5.95,2.73-8.14.29-.61.81-.99,1.43-1.04l6.42-.5,1.38,4.44-7.11-.24c-.45,1.82-1.86,4.21-3.51,6.23l-1.34-.75h-.03,0Z"/>
                <polygon class="cls-7" points="378.82 117.89 374.82 115.31 374.77 116.9 377.96 119.69 378.82 117.89"/>
                <path class="cls-7" d="M375.3,117.13s-2.74-.64-2.25-1.6,1.87-.4,2.05.1c.18.5.21,1.51.21,1.51h0Z"/>
                <path class="cls-7" d="M381.58,111.86s.25,1.04.45,1.9c.05.23.23.41.45.48s.48,0,.64-.18l.16-.16c.23-.23.31-.58.2-.88-.28-.8-.79-2.23-.79-2.23l-1.15,1.04h0v.02h.02Z"/>
                <path class="cls-7" d="M383.27,110.81c.09-.3-.08-.62-.38-.7-.33-.1-.73-.21-1.05-.3-.3-.09-.58.1-.71.39-.16.34-.33,1.08-.38,1.64-.03.31.13.65.44.74.33.1,1.38.06,1.66-.48.2-.41.33-.83.45-1.26h0v-.02h-.03Z"/>
                <path class="cls-9" d="M383.82,111.78s.33-1.17-.09-1.69c-.55-.68-1.35-1.12-2.4-.46,0,0-.4,1.84,2.48,2.15h0Z"/>
                <path class="cls-5" d="M382.11,113.92l2.04-.08c.59-.11,1.35-.64,1.62-.1.23.46.48,1.14.69,2.04v1.06c-.38.58-.33,2.28-.54,2.94-.56,1.74,1.54,1.26.28,3.26-2.61-.25-5.79,1.94-6.55-.06.09-.39-.51-3.89-.45-4.24.8-3.93.14-2.58,2.07-4.45.23-.23.53-.35.84-.36h-.02Z"/>
                <path class="cls-42" d="M383.12,110.31s1.03-1.6,1.8-.58-.58,1.92-1.59,1.51c-1.03-.41-.19-.94-.19-.94h-.02Z"/>
                <path class="cls-6" d="M381.74,112.61l.08.31s.35,0,.46-.29l-.54-.03h0Z"/>
                <path class="cls-42" d="M382.68,110.83s-.54.49-.36.99c.19.56.36.96.7,1.29,1.23,1.17-1.47,2.93,1.16,3.89,2.63.97,2.91-.24,2.68-1.8-.15-1.03-1.26-1.52-1.31-2.1-.08-1.2-1.08-1.29-.97-2,.11-.7-1.09-1.17-1.09-1.17l-.83.91h.03v-.02h0Z"/>
                <path class="cls-7" d="M382.76,111.98c-.15.21-.44.28-.59.15s-.19-.4-.03-.61.44-.28.59-.15c.18.13.19.4.03.61Z"/>
                <path class="cls-44" d="M378.63,123.41s.35-.74.2-.96.36-.16.35-.8.04-2.94.04-2.94l.91-.81s.45,5.21,1.84,5.79c-1.05.7-2.23.23-3.34-.3h0Z"/>
                <path class="cls-5" d="M381.7,114.04c-3.4,1.55-3.32,3.55-4.51,6.73-.11.29-.69,1.04-.1,1.71,1.34,1.49,2.4-.86,3.18-2.53.66-1.4,1.66-2.78,1.66-2.78l-.23-3.15h0v.02Z"/>
                <path class="cls-22" d="M383.49,109.91s-.25,1.11.73,1.3"/>
                <g>
                  <path class="cls-9" d="M374.32,117.37l-1.82.8c-.19.09-.41-.03-.48-.25l-1.19-3.74c-.08-.23.03-.48.23-.56l1.82-.8c.19-.09.41.03.48.25l1.19,3.74c.08.23-.03.48-.23.56h0Z"/>
                  <polygon class="cls-4" points="374.32 116.75 372.22 117.68 370.99 113.87 373.11 112.96 374.32 116.75"/>
                </g>
                <path class="cls-7" d="M374.49,116.22l-.68-.18c-.16-.05-.27-.21-.23-.38h0c.04-.16.21-.27.38-.23l.68.18c.16.05.27.21.23.38h0c-.04.16-.21.27-.38.23Z"/>
              </g>
              <g>
                <path class="cls-36" d="M361.34,144.73h16.31v-6.89h-16.31c1.58,0,1.58,6.89,0,6.89h0Z"/>
                <path class="cls-29" d="M361.42,138.03h16.24v-.83h-16.24c-.23,0-.41.19-.41.41h0c0,.23.19.41.41.41h0v.02h0Z"/>
                <path class="cls-29" d="M361.44,145.14h16.22v-.9h-16.22c-.25,0-.45.2-.45.45h0c0,.25.2.45.45.45h0Z"/>
                <path class="cls-29" d="M373.31,137.2h16.87c.36,0,.36,7.95,0,7.95h-16.87c1.9,0,1.9-7.95,0-7.95h0Z"/>
                <path class="cls-12" d="M374.42,137.2h19.06c1.39,0,2.53,1.14,2.53,2.53v2.9c0,1.39-1.14,2.53-2.53,2.53h-19.06c1.9,0,1.9-7.95,0-7.95h0Z"/>
                <line class="cls-20" x1="373.31" y1="139" x2="363.08" y2="139"/>
                <line class="cls-20" x1="373.31" y1="140.59" x2="363.08" y2="140.59"/>
                <line class="cls-20" x1="373.31" y1="142.19" x2="363.08" y2="142.19"/>
                <line class="cls-20" x1="373.31" y1="143.8" x2="363.08" y2="143.8"/>
                <g>
                  <rect class="cls-49" x="363.08" y="132.34" width="1.69" height="4.4"/>
                  <g>
                    <path class="cls-36" d="M363.93,136.46h15.82v-3.9h-15.82c-.19,1.41-.19,2.73,0,3.9h0Z"/>
                    <path class="cls-49" d="M363.49,132.77h16.24v-.83h-16.24c-.23,0-.41.19-.41.41h0c0,.23.19.41.41.41h0v.02h0Z"/>
                    <path class="cls-49" d="M363.52,137.2h16.22v-.89h-16.22c-.25,0-.45.2-.45.45h0c0,.25.2.45.45.45h0v-.02h0Z"/>
                    <path class="cls-27" d="M375.68,131.92h18.71c.66,0,1.21.16,1.21.83-1.12,1.03-1.31,2.69,0,3.53,0,.66-.54.89-1.21.89h-18.71v-5.26h0Z"/>
                    <path class="cls-45" d="M375.68,132.77h19.92c-.79,1.24-.74,2.41,0,3.53h-19.92c-.2-1.2-.23-2.39,0-3.53Z"/>
                    <line class="cls-20" x1="374.99" y1="133.71" x2="364.77" y2="133.71"/>
                    <line class="cls-20" x1="374.99" y1="135.32" x2="364.77" y2="135.32"/>
                  </g>
                </g>
                <g>
                  <path class="cls-36" d="M368.16,131.63h11v-4.64h-11c1.06,0,1.06,4.64,0,4.64h0Z"/>
                  <path class="cls-32" d="M368.21,127.16h10.97v-.56h-10.97c-.15,0-.28.13-.28.28h0c0,.15.13.28.28.28h0Z"/>
                  <path class="cls-32" d="M368.23,131.94h10.94v-.61h-10.94c-.16,0-.3.14-.3.3h0c0,.16.14.3.3.3h0Z"/>
                  <path class="cls-32" d="M376.23,126.56h11.38c.24,0,.24,5.36,0,5.36h-11.38c1.3,0,1.3-5.36,0-5.36Z"/>
                  <path class="cls-44" d="M377,126.56h12.87c.95,0,1.71.76,1.71,1.71v1.96c0,.95-.76,1.71-1.71,1.71h-12.87c1.3,0,1.3-5.36,0-5.36h0Z"/>
                  <line class="cls-20" x1="376.23" y1="127.77" x2="369.34" y2="127.77"/>
                  <line class="cls-20" x1="376.23" y1="128.86" x2="369.34" y2="128.86"/>
                  <line class="cls-20" x1="376.23" y1="129.93" x2="369.34" y2="129.93"/>
                  <line class="cls-20" x1="376.23" y1="131.01" x2="369.34" y2="131.01"/>
                </g>
              </g>
              <g>
                <path class="cls-49" d="M318.71,116.99c-.03.49.28.89.66.9.39,0,.71-.36.74-.84.03-.49-.28-.89-.66-.9s-.71.36-.74.84Z"/>
                <g>
                  <rect class="cls-42" x="310.36" y="131.7" width="14.53" height="2.76" rx="1.35" ry="1.35"/>
                  <path class="cls-9" d="M308.24,146.06h0c-.15-.06-.21-.23-.15-.36l5.14-12.74c.06-.15.23-.21.36-.15h0c.15.06.21.23.15.36l-5.14,12.74c-.06.15-.23.21-.36.15h0Z"/>
                  <path class="cls-9" d="M319.07,146.06h0c.15-.06.21-.23.15-.36l-5.14-12.74c-.06-.15-.23-.21-.36-.15h0c-.15.06-.21.23-.15.36l5.14,12.74c.06.15.23.21.36.15h0Z"/>
                  <path class="cls-9" d="M325.69,146.06h0c.15-.06.21-.23.15-.36l-5.14-12.74c-.06-.15-.23-.21-.36-.15h0c-.15.06-.21.23-.15.36l5.14,12.74c.06.15.23.21.36.15h0Z"/>
                  <path class="cls-9" d="M315.1,146.06h0c-.15-.06-.21-.23-.15-.36l5.14-12.74c.06-.15.23-.21.36-.15h0c.15.06.21.23.15.36l-5.14,12.74c-.06.15-.23.21-.36.15h0Z"/>
                </g>
                <path class="cls-41" d="M322.79,129.69h1.56c1.39.04,2.51,1.05,2.5,2.31l-.06,5.49-.64-.31.06-5.1c0-.99-.86-1.76-1.94-1.79h-1.49v-.61h0Z"/>
                <path class="cls-41" d="M318.94,130.82l5.15.09c.4,0,.73-.31.74-.71h0c0-.4-.31-.73-.71-.74l-5.15-.09c-.4,0-.73.31-.74.71h0c0,.4.31.73.71.74h0Z"/>
                <path class="cls-41" d="M317.68,124.33c0,.18-.15.33-.33.33s-.33-.15-.33-.33.15-.33.33-.33.33.15.33.33Z"/>
                <path class="cls-41" d="M317.86,125.93c0,.18-.15.33-.33.33s-.33-.15-.33-.33.15-.33.33-.33.33.15.33.33Z"/>
                <path class="cls-41" d="M318.06,127.73c0,.18-.15.33-.33.33s-.33-.15-.33-.33.15-.33.33-.33.33.15.33.33Z"/>
                <path class="cls-7" d="M321.54,122.87l1.09,4.09c.18.06-.46,1.74-1.34,2.27l-.3.86-.24-.99-.1-1.93-.63-3.7,1.51-.62h0v.02h0Z"/>
                <path class="cls-1" d="M319.45,119.39s1.59.18,3.01,4.59l-2.54,1.35-.48-5.95h0Z"/>
                <polygon class="cls-7" points="325.19 145.06 326.28 144.84 326.33 143.19 325.1 143.4 325.19 145.06"/>
                <path class="cls-2" d="M320.58,127.68s1.23,3.04,1.16,3.66c-.14,1.16-.81,2.01-.81,2.01l-5.85.34c-1.67.1-2.95-1.19-2.69-2.71v-.03c.03-.14.05-.29.06-.45.09-.68.36-2.73.36-2.73,1.84.96,5.13,1.18,8,.29l-.25-.39h.04Z"/>
                <path class="cls-1" d="M317.92,118.63c-.66,1-1.11.24-1.36-.11-.04-.06-1.47.39-1.55.45-1.39.96-1.56,5.09-1.82,6.57-.11.69-.76,3.01-.41,3.61.11.2,1.2.05,1.41.09.9.16,4.97.48,5.54-.15.55-.62.14-1.76.25-2.5.56-3.85-.51-7.18-.51-7.18l-1.52-.76h-.03v-.02Z"/>
                <path class="cls-9" d="M326.28,144.84l1.03.69c.2.16.45.27.7.28h.27c.11,0,.21.1.25.21h0c.04.15-.05.31-.21.34l-2.89-.05s-.68-.14-.24-1.43l1.11-.04h-.02Z"/>
                <polygon class="cls-7" points="317.71 145.06 318.84 144.85 319.35 143.28 318.07 143.52 317.71 145.06"/>
                <path class="cls-9" d="M318.85,144.84l1.03.69c.2.16.45.27.7.28h.27c.11,0,.21.1.25.21h0c.04.15-.05.31-.21.34l-2.89-.05s-.68-.14-.24-1.43l1.11-.04h-.02Z"/>
                <path class="cls-7" d="M318.55,117s-.23,1.26-.41,2.34c-.05.28-.25.51-.51.62-.28.1-.56.04-.79-.15-.08-.06-.14-.13-.2-.18-.29-.27-.41-.66-.3-1.04.28-.97.79-2.73.79-2.73l1.45,1.16h-.03Z"/>
                <path class="cls-10" d="M319.36,115.48s.89.66-.09,1.41.09-1.41.09-1.41h0Z"/>
                <path class="cls-7" d="M319.36,116.31c.06-.33-.03-.68-.23-.95s-.5-.45-.84-.49h0c-.65-.08-1.24.36-1.35,1-.06.38-.14.79-.2,1.14-.04.24,0,.48.16.68.14.19.11.79.35.81.23.03.84.03,1.05.06.48.06.79-.7.86-1.18.06-.33.13-.7.19-1.06h0,0Z"/>
                <path class="cls-10" d="M317.69,115.79s-.09,1.14-.96.97c0,0-.23-1.08-.16-1.6.11-.97,2.04-.74,2.71-.16.67.58.05,1.19-1.6.81h0Z"/>
                <path class="cls-7" d="M316.85,116.31c.16,0,.3.16.31.38,0,.21-.13.39-.29.39s-.3-.16-.31-.38c0-.21.13-.39.29-.39h0Z"/>
                <path class="cls-4" d="M318.8,117.64l-.61-.06s-.03.41.27.4.34-.35.34-.35h0Z"/>
                <path class="cls-2" d="M326.55,143.78c-.08-.76,1.06-6.55,1.03-9.15,0-.73-.34-1.32-.94-1.66l-5.08-2.9-4.29,3.2,7.04,2.99c-.39,1.98-.09,4.94.61,7.65l1.65-.13h-.02Z"/>
                <path class="cls-2" d="M314.42,133.69l.28-1.19,4.05-.62,3,1.09c.9.33,1.64,1.65,1.62,2.6l-3.8,8.19-2.01-.06c0-3.04,1.43-6.93,2.23-7.77l-5.38-2.24h0Z"/>
                <path class="cls-1" d="M319.84,124.22c-.8,2.1-6.67-.15-6-1.17.94-1.4-.41.99-.65,2.46-.11.69-.76,3.01-.41,3.61.11.2.58,1.82.8,1.82,2.88.1,7.66-.06,7.86-.88.28-1.15-1.15-4.01-1.24-4.75-.24-1.9-.33-1.12-.33-1.12h0v.02h-.02,0Z"/>
                <path class="cls-21" d="M323.7,135.07s.24-1.92-.81-2.5c-1.05-.58-2.61-1.38-2.61-1.38"/>
                <path class="cls-19" d="M320.2,124.81s-.27-.99-.39-2.06"/>
                <path class="cls-43" d="M322.63,126.97c.27,1.06.18,2.18-.18,3.32,0,0-1.43.15-1.47,0s.36-3.32.36-3.32h1.29,0Z"/>
                <polygon class="cls-42" points="320.58 133.6 327.77 132.65 323.75 130.41 316.49 131.47 320.58 133.6"/>
                <path class="cls-7" d="M311.12,124.67v3.49c0,.85.45,1.65,1.18,2.07,1.35.81,3.66,1.86,5.74,1.35l.66-.83-5.18-2.61.08-4.54-2.49,1.09h0v-.02h0Z"/>
                <path class="cls-1" d="M315.17,118.94s-1.4.23-2.64,1.53c-.91.99-1.71,2.65-1.76,4.86,0,1.01,3.75,1.01,3.75,0l.65-6.39h0Z"/>
                <polyline class="cls-19" points="313.92 125.93 314.08 123.13 313.92 122.91"/>
                <path class="cls-43" d="M321.62,129.55l-.81.66c-.16.14-.24.33-.23.53l.05.85c.03.3.4.55.74.5h0l.95-.89c.2-.2.3-.49.27-.81l-.06-.54-.89-.29h-.02Z"/>
                <path class="cls-7" d="M317.74,130.52h2.03s1.58.51,1.08,1.26c-.51.76-1.01.3-1.23.2-.21-.1-.81.25-1.98-.55l.1-.94h0v.02h0Z"/>
                <path class="cls-38" d="M320.58,133.6l7.19-.96,1.04-4.55c.09-.36-.28-.7-.7-.64l-5.44.75c-.54.08-.97.45-1.08.91l-1.01,4.47h0v.02h0Z"/>
                <path class="cls-4" d="M324.26,130.43c-.11.4.2.73.7.73s.99-.33,1.12-.73-.2-.73-.7-.73-.99.33-1.12.73Z"/>
                <path class="cls-49" d="M316.46,116.28s-.15-1.89,1.89-1.81c1.84.08,1.54,1.98,1.54,1.98h-.24s.09-1.6-1.29-1.66c-1.62-.06-1.55,1.49-1.55,1.49h-.35s0,0,0,0h0Z"/>
                <path class="cls-49" d="M315.96,116.85c-.03.49.28.89.66.9s.71-.36.74-.84c.03-.49-.28-.89-.66-.9s-.71.36-.74.84Z"/>
                <path class="cls-40" d="M316.11,116.85c0,.24.11.45.28.45s.31-.19.33-.44c0-.24-.11-.45-.28-.45-.16,0-.31.19-.33.44h0Z"/>
                <path class="cls-3" d="M319.92,124.27s-1.23.45-2.27.48c-1.14.05-3.45-.31-3.45-.31l-.1,1.16s2.64,1.5,6.13-.06l-.3-1.25h0v-.02Z"/>
              </g>
              <path class="cls-52" d="M344.67,127.16v-2.09c0-.45.45-.75.85-.61l3.55,1.29c.35.13.35.62,0,.74l-3.55,1.29c-.41.15-.85-.16-.85-.61h0Z"/>
              <rect class="cls-52" x="339.53" y="124.98" width=".81" height="2.66" rx=".38" ry=".38"/>
              <rect class="cls-52" x="341.02" y="124.98" width=".81" height="2.66" rx=".38" ry=".38"/>
              <path class="cls-15" d="M326.89,119.88s1.05-8.95,4.97-12.28c3.9-3.34,8.48-3.99,8.48-3.99"/>
              <path class="cls-20" d="M361.95,144.18s1.45-2.61-.16-6.15"/>
              <path class="cls-36" d="M383.99,145.14h-3.99c1.23,0,1.23-7.98,0-7.98h3.99c1.25,0,1.25,7.98,0,7.98Z"/>
              <g>
                <path class="cls-14" d="M358.42,99.5l-.06,5.1c0,.29.33.45.55.28l2.85-2.24-3.34-3.13h0v-.02h0Z"/>
                <path class="cls-31" d="M380.23,103.66l-18.85.03c-3.09,0-5.64-2.59-5.64-5.77h0c0-3.18,2.53-5.79,5.61-5.79l18.85-.03c3.09,0,5.63,2.59,5.64,5.77h0c0,3.18-2.53,5.79-5.61,5.79h0Z"/>
              </g>
              <g>
                <path class="cls-30" d="M380.14,95.53h-19.71c-.31,0-.58-.27-.58-.58h0c0-.31.27-.58.58-.58h19.71c.31,0,.58.27.58.58h0c0,.31-.27.58-.58.58Z"/>
                <path class="cls-30" d="M380.14,98.57h-19.71c-.31,0-.58-.27-.58-.58h0c0-.31.27-.58.58-.58h19.71c.31,0,.58.27.58.58h0c0,.31-.27.58-.58.58Z"/>
                <path class="cls-30" d="M371.71,101.6h-11.28c-.31,0-.58-.27-.58-.58h0c0-.31.27-.58.58-.58h11.28c.31,0,.58.27.58.58h0c0,.31-.27.58-.58.58Z"/>
              </g>
              <line class="cls-18" x1="361.48" y1="103.61" x2="379.75" y2="103.61"/>
            </g>
          </g>
        </g>
      </g>
    </g>
  </g>
</svg>