<?xml version="1.0" encoding="UTF-8"?>
<svg id="_圖層_2" xmlns="http://www.w3.org/2000/svg" version="1.1" xmlns:xlink="http://www.w3.org/1999/xlink" viewBox="0 0 262.7 179.2">
  <!-- Generator: Adobe Illustrator 29.7.1, SVG Export Plug-In . SVG Version: 2.1.1 Build 8)  -->
  <defs>
    <style>
      .st0 {
        fill: #0068b7;
      }

      .st1 {
        fill: none;
        stroke: #0068b7;
        stroke-width: .8px;
      }

      .st2 {
        fill: url(#_未命名漸層);
      }

      .st3 {
        isolation: isolate;
      }

      .st4 {
        fill: #fff799;
      }
    </style>
    <linearGradient id="_未命名漸層" data-name="未命名漸層" x1="0" y1="698.7" x2="162.7" y2="698.7" gradientTransform="translate(0 -640)" gradientUnits="userSpaceOnUse">
      <stop offset="0" stop-color="#3fbff0"/>
      <stop offset=".5" stop-color="#00a1e9"/>
      <stop offset="1" stop-color="#008dd7"/>
    </linearGradient>
  </defs>
  <g id="_圖層_1-2">
    <path class="st2" d="M155.7,4.2c-4.6-3-11.8-4.8-22.1-4-32.5,2.5-32.2,18.8-35.6,39.5-3.1,19-6.9-34-58.4-23.8-1.1.2-2.1.5-3,.9-5.6-.9-12.5,3.6-16.6,11.3-3,5.6-3.7,11.5-2.3,16-4.8,2-8.8,8.2-9.8,15.8-.5,3.8-.2,7.5.8,10.6C3.2,72.5-.5,80.2,0,89.1c.7,8.9,19.6,27.9,26.5,28.2,12.9.6,24.7-6.4,23.5-14-1.1-7.6,4.3-12.6,15.5-10.4,11.3,2.2,14.5,7.8,24.8,17.4,10.7,9.8,30.3,7.6,37.8-7.8,1.6-3.2.6-14.6,1.9-28,0-.9.2-1.8.3-2.7.4-3.1.9-6.2,1.6-9.4.2-.8.4-1.7.6-2.5,1.1-4.1,2.5-8.2,4.4-12.2,4-8.3,10.2-15.7,19.7-20.9,7.1-3.8,8.8-16-1.2-22.6h.2Z"/>
    <g>
      <path class="st4" d="M151.7,4.9c-11.3,3.4-38.8,12.2-31.2,23.2,5.5,8,9.3,15.3,13.5,19.6,3.9-8.3,10-15.8,19.5-21.1,7.1-3.9,10.9-16.5-1.8-21.7Z"/>
      <path class="st4" d="M129.2,62.5c.2-.8.4-1.7.6-2.5-5.8-2.4-10.8-6.7-10.8-6.7-1.7,3.6,6,7.4,10.2,9.2Z"/>
      <path class="st4" d="M127.4,74.6c0-.9.2-1.8.3-2.7-4.8-2.4-8.5-5.7-8.5-5.7-1.4,3.1,4,6.4,8.3,8.3h-.1Z"/>
    </g>
    <g class="st3">
      <g class="st3">
        <path class="st0" d="M153.3,61.9c1.1,0,2.1.4,2.9,1.2s1.2,1.8,1.2,2.9-.4,2.1-1.2,2.8-1.8,1.2-2.9,1.2-2-.4-2.8-1.2-1.2-1.7-1.2-2.8.4-2.1,1.2-2.9,1.7-1.2,2.8-1.2ZM150.9,77.6h4.9v38.2h-4.9v-38.2Z"/>
        <path class="st0" d="M203.1,85.6l-3.9,2.4c-3.4-4.5-8-6.7-13.8-6.7s-8.5,1.5-11.6,4.5-4.6,6.6-4.6,10.9.7,5.4,2.1,7.9,3.4,4.4,5.8,5.7c2.5,1.4,5.2,2,8.3,2,5.6,0,10.2-2.2,13.8-6.7l3.9,2.6c-1.8,2.8-4.3,4.9-7.4,6.4-3.1,1.5-6.6,2.3-10.5,2.3-6,0-11.1-1.9-15-5.8-4-3.8-6-8.5-6-14s.9-7.1,2.8-10.3,4.4-5.7,7.7-7.4c3.3-1.8,6.9-2.7,10.9-2.7s5,.4,7.3,1.2,4.4,1.8,6,3,3,2.8,4.2,4.7Z"/>
        <path class="st0" d="M244.8,103.2l4.1,2.2c-1.4,2.7-2.9,4.8-4.7,6.5s-3.8,2.9-6,3.7c-2.2.9-4.8,1.3-7.6,1.3-6.2,0-11.1-2-14.6-6.1s-5.3-8.7-5.3-13.9,1.5-9.2,4.5-13c3.8-4.8,8.8-7.2,15.2-7.2s11.7,2.5,15.6,7.4c2.8,3.5,4.2,7.9,4.2,13.1h-34.4c0,4.4,1.5,8.1,4.3,10.9,2.7,2.8,6.1,4.3,10.2,4.3s3.8-.3,5.7-1c1.8-.7,3.4-1.6,4.7-2.7s2.7-2.9,4.2-5.4h0ZM244.8,92.9c-.7-2.6-1.6-4.7-2.9-6.3s-2.9-2.8-5-3.8-4.2-1.4-6.5-1.4c-3.8,0-7,1.2-9.7,3.6-2,1.8-3.5,4.4-4.5,7.9h28.6Z"/>
      </g>
    </g>
    <g class="st3">
      <g class="st3">
        <path class="st0" d="M58.4,135.8l-4.1,3.1c-2.2-2.9-5-5.2-8.1-6.7-3.2-1.5-6.6-2.3-10.4-2.3s-7.9,1-11.5,3-6.2,4.6-8.2,8-2.9,7.1-2.9,11.3c0,6.3,2.2,11.6,6.5,15.8s9.8,6.3,16.4,6.3,13.3-2.8,18.2-8.5l4.1,3.1c-2.6,3.3-5.8,5.8-9.7,7.6s-8.2,2.7-12.9,2.7c-9,0-16.2-3-21.4-9-4.4-5.1-6.6-11.2-6.6-18.4s2.7-13.9,8-19.1c5.3-5.2,12-7.8,20-7.8s9.2,1,13.1,2.9c3.9,1.9,7.1,4.6,9.6,8h0Z"/>
        <path class="st0" d="M106,139.6v38.2h-4.9v-6.6c-2.1,2.5-4.4,4.4-6.9,5.7s-5.4,1.9-8.4,1.9c-5.4,0-10-2-13.9-5.9s-5.7-8.7-5.7-14.3,1.9-10.2,5.8-14.1,8.5-5.9,14-5.9,6,.7,8.5,2,4.8,3.3,6.7,6v-7h4.9,0ZM86.4,143.4c-2.7,0-5.3.7-7.6,2-2.3,1.3-4.2,3.2-5.5,5.7-1.4,2.4-2.1,5-2.1,7.7s.7,5.3,2.1,7.7c1.4,2.5,3.2,4.4,5.6,5.7,2.3,1.4,4.8,2.1,7.5,2.1s5.2-.7,7.7-2c2.4-1.4,4.3-3.2,5.6-5.5s1.9-4.9,1.9-7.8c0-4.4-1.5-8.1-4.4-11.1s-6.5-4.5-10.8-4.5h0Z"/>
        <path class="st0" d="M115.3,139.6h5v5.6c1.5-2.2,3.1-3.8,4.7-4.9,1.7-1.1,3.4-1.6,5.2-1.6s2.8.4,4.4,1.3l-2.6,4.1c-1-.4-1.9-.7-2.6-.7-1.6,0-3.2.7-4.7,2s-2.7,3.4-3.5,6.3c-.6,2.2-.9,6.6-.9,13.2v12.9h-5v-38.2h0Z"/>
        <path class="st0" d="M171,165.2l4.1,2.2c-1.4,2.7-2.9,4.8-4.7,6.5s-3.8,2.9-6,3.7c-2.2.9-4.8,1.3-7.6,1.3-6.2,0-11.1-2-14.6-6.1s-5.3-8.7-5.3-13.9,1.5-9.2,4.5-13c3.8-4.8,8.8-7.2,15.2-7.2s11.7,2.5,15.6,7.4c2.8,3.5,4.2,7.9,4.2,13.1h-34.4c0,4.4,1.5,8.1,4.3,10.9,2.7,2.8,6.1,4.3,10.2,4.3s3.8-.3,5.7-1c1.8-.7,3.4-1.6,4.7-2.7,1.3-1.1,2.7-2.9,4.2-5.4h0ZM171,154.9c-.7-2.6-1.6-4.7-2.9-6.3s-2.9-2.8-5-3.8-4.2-1.4-6.5-1.4c-3.8,0-7,1.2-9.7,3.6-2,1.8-3.5,4.4-4.5,7.9h28.6Z"/>
        <path class="st0" d="M217.8,165.2l4.1,2.2c-1.4,2.7-2.9,4.8-4.7,6.5s-3.8,2.9-6,3.7c-2.2.9-4.8,1.3-7.6,1.3-6.2,0-11.1-2-14.6-6.1s-5.3-8.7-5.3-13.9,1.5-9.2,4.5-13c3.8-4.8,8.8-7.2,15.2-7.2s11.7,2.5,15.6,7.4c2.8,3.5,4.2,7.9,4.2,13.1h-34.4c0,4.4,1.5,8.1,4.3,10.9,2.7,2.8,6.1,4.3,10.2,4.3s3.8-.3,5.7-1c1.8-.7,3.4-1.6,4.7-2.7,1.3-1.1,2.7-2.9,4.2-5.4h0ZM217.8,154.9c-.7-2.6-1.6-4.7-2.9-6.3s-2.9-2.8-5-3.8-4.2-1.4-6.5-1.4c-3.8,0-7,1.2-9.7,3.6-2,1.8-3.5,4.4-4.5,7.9h28.6Z"/>
        <path class="st0" d="M230.5,139.6h5v5.6c1.5-2.2,3.1-3.8,4.7-4.9s3.4-1.6,5.2-1.6,2.8.4,4.4,1.3l-2.6,4.1c-1-.4-1.9-.7-2.6-.7-1.6,0-3.2.7-4.7,2s-2.7,3.4-3.5,6.3c-.6,2.2-.9,6.6-.9,13.2v12.9h-5v-38.2h0Z"/>
      </g>
    </g>
    <g class="st3">
      <g class="st3">
        <path class="st0" d="M172.4,41.7h2.3v-1.9h1.4v1.9h3.4v1.2h-3.4v1.9h3.8v1.2h-2.3v2.1l2.3-1.2v1.3c-.4.2-1,.5-1.9.9-.6.3-1.1.5-1.6.8l-.5-1.1c.2-.2.3-.7.3-1.4v-1.5h-2.1c-.3,1-.6,1.8-1.1,2.4-.7.9-1.7,1.6-2.8,2.2-.1-.3-.4-.7-.8-1.2,1-.4,1.8-.9,2.4-1.5.4-.4.6-.8.8-1.2,0,0,.1-.3.2-.6h-2.9v-1.2h4.9v-1.9h-2.9c-.2.3-.3.7-.5,1-.3-.2-.7-.4-1.2-.6.7-.9,1.2-2,1.5-3.2l1.3.3c0,.2-.3.6-.5,1.2h0ZM169.9,61c3.6-.2,6.1-.8,7.5-1.9.9-.7,1.6-1.8,1.9-3.2.2-.7.2-1.6.3-2.6h1.7c-.3,2.2-.6,3.8-1.1,4.7-.6,1.2-1.6,2.2-3,2.9-.9.4-2.3.9-4.2,1.2-.8.2-1.7.3-2.5.4-.1-.6-.3-1.1-.5-1.6h0ZM174.4,52.1v6.2h-1.6v-7.6h15.6v7.6h-1.6v-6.2h-12.4ZM182.7,42.9c-.2.3-.3.6-.5,1-.3-.2-.7-.4-1.2-.6.7-.9,1.2-2,1.5-3.2l1.3.4c-.1.3-.3.7-.5,1.3h2.2v-1.9h1.4v1.9h3.9v1.2h-3.9v1.9h4.5v1.2h-3.3v1.4c0,.6,0,1,.2,1.2,0,0,.2,0,.3,0h1.1c.3,0,.6,0,.7-.4,0-.2.1-.6.2-1.3.6.2,1.1.4,1.4.5,0,.5-.1.8-.2,1.1-.3.9-.8,1.3-1.7,1.3h-1.6c-.7,0-1.2-.2-1.5-.5-.1,0-.2-.3-.2-.5v-2.8h-1.7c-.3.9-.6,1.5-.9,2-.5.7-1.5,1.4-2.8,2.1-.2-.4-.4-.8-.7-1.2,1.1-.4,1.8-.9,2.2-1.3.2-.3.5-.8.8-1.6h-2.6v-1.2h4.5v-1.9h-2.7l-.2-.2ZM181.7,59.4l.8-1.3c2.1.6,3.7,1.1,4.8,1.5,1,.4,2.2.9,3.6,1.5l-.8,1.4c-2.2-1.1-5-2.1-8.4-3.1h0Z"/>
        <path class="st0" d="M200.6,46.6v.2c-1,1.8-2,3.4-3.2,5-.3-.5-.7-.9-1.1-1.3,2.3-2.8,3.8-6,4.5-9.6l1.6.5c0,.2-.1.4-.2.5-.3.9-.6,2-1.1,3.3h5.3v-5.1h1.5v5.1h9.1v1.4h-9.1v5.4h7.7v1.4h-7.7v6.6h10v1.4h-21.4v-1.4h9.9v-6.6h-6.8v-1.4h6.8v-5.4h-5.9,0Z"/>
        <path class="st0" d="M222.6,47.7l.8-1.2c1.3.7,2.7,1.6,4,2.6l-.9,1.3c-1.1-1-2.4-1.9-3.9-2.7h0ZM222.7,60.5c1.3-1.7,2.4-4.2,3.5-7.6l1.3.9c-1,2.8-2.2,5.4-3.4,7.8l-1.4-1.1h0ZM223.8,41.7l.9-1.1c1.7.9,3,1.8,3.9,2.7l-1,1.3c-.9-1-2.2-1.9-3.8-2.8h0ZM229.6,41h15.6v1.4h-14v8c-.2,2.6-.4,4.7-.8,6.5-.4,1.8-1.2,3.6-2.2,5.3-.3-.4-.8-.7-1.3-.9,1-1.4,1.7-3.1,2.1-4.9.4-2,.7-5,.7-9.1v-6.2h-.1ZM245,60.2v1.4h-14.2v-1.4h6.2v-3.7h-4.8v-1.4h4.8v-2.6h1.6v2.6h5.2v1.4h-5.2v3.7h6.4ZM244.7,51.6h-12.8v-1.4h5.1v-3.1h-4.6v-1.4h4.6v-2.4h1.6v2.4h5.2v1.4h-5.2v3.1h6v1.4h0Z"/>
      </g>
      <g class="st3">
        <path class="st1" d="M172.4,41.7h2.3v-1.9h1.4v1.9h3.4v1.2h-3.4v1.9h3.8v1.2h-2.3v2.1l2.3-1.2v1.3c-.4.2-1,.5-1.9.9-.6.3-1.1.5-1.6.8l-.5-1.1c.2-.2.3-.7.3-1.4v-1.5h-2.1c-.3,1-.6,1.8-1.1,2.4-.7.9-1.7,1.6-2.8,2.2-.1-.3-.4-.7-.8-1.2,1-.4,1.8-.9,2.4-1.5.4-.4.6-.8.8-1.2,0,0,.1-.3.2-.6h-2.9v-1.2h4.9v-1.9h-2.9c-.2.3-.3.7-.5,1-.3-.2-.7-.4-1.2-.6.7-.9,1.2-2,1.5-3.2l1.3.3c0,.2-.3.6-.5,1.2h0ZM169.9,61c3.6-.2,6.1-.8,7.5-1.9.9-.7,1.6-1.8,1.9-3.2.2-.7.2-1.6.3-2.6h1.7c-.3,2.2-.6,3.8-1.1,4.7-.6,1.2-1.6,2.2-3,2.9-.9.4-2.3.9-4.2,1.2-.8.2-1.7.3-2.5.4-.1-.6-.3-1.1-.5-1.6h0ZM174.4,52.1v6.2h-1.6v-7.6h15.6v7.6h-1.6v-6.2h-12.4ZM182.7,42.9c-.2.3-.3.6-.5,1-.3-.2-.7-.4-1.2-.6.7-.9,1.2-2,1.5-3.2l1.3.4c-.1.3-.3.7-.5,1.3h2.2v-1.9h1.4v1.9h3.9v1.2h-3.9v1.9h4.5v1.2h-3.3v1.4c0,.6,0,1,.2,1.2,0,0,.2,0,.3,0h1.1c.3,0,.6,0,.7-.4,0-.2.1-.6.2-1.3.6.2,1.1.4,1.4.5,0,.5-.1.8-.2,1.1-.3.9-.8,1.3-1.7,1.3h-1.6c-.7,0-1.2-.2-1.5-.5-.1,0-.2-.3-.2-.5v-2.8h-1.7c-.3.9-.6,1.5-.9,2-.5.7-1.5,1.4-2.8,2.1-.2-.4-.4-.8-.7-1.2,1.1-.4,1.8-.9,2.2-1.3.2-.3.5-.8.8-1.6h-2.6v-1.2h4.5v-1.9h-2.7l-.2-.2ZM181.7,59.4l.8-1.3c2.1.6,3.7,1.1,4.8,1.5,1,.4,2.2.9,3.6,1.5l-.8,1.4c-2.2-1.1-5-2.1-8.4-3.1h0Z"/>
        <path class="st1" d="M200.6,46.6v.2c-1,1.8-2,3.4-3.2,5-.3-.5-.7-.9-1.1-1.3,2.3-2.8,3.8-6,4.5-9.6l1.6.5c0,.2-.1.4-.2.5-.3.9-.6,2-1.1,3.3h5.3v-5.1h1.5v5.1h9.1v1.4h-9.1v5.4h7.7v1.4h-7.7v6.6h10v1.4h-21.4v-1.4h9.9v-6.6h-6.8v-1.4h6.8v-5.4h-5.9,0Z"/>
        <path class="st1" d="M222.6,47.7l.8-1.2c1.3.7,2.7,1.6,4,2.6l-.9,1.3c-1.1-1-2.4-1.9-3.9-2.7h0ZM222.7,60.5c1.3-1.7,2.4-4.2,3.5-7.6l1.3.9c-1,2.8-2.2,5.4-3.4,7.8l-1.4-1.1h0ZM223.8,41.7l.9-1.1c1.7.9,3,1.8,3.9,2.7l-1,1.3c-.9-1-2.2-1.9-3.8-2.8h0ZM229.6,41h15.6v1.4h-14v8c-.2,2.6-.4,4.7-.8,6.5-.4,1.8-1.2,3.6-2.2,5.3-.3-.4-.8-.7-1.3-.9,1-1.4,1.7-3.1,2.1-4.9.4-2,.7-5,.7-9.1v-6.2h-.1ZM245,60.2v1.4h-14.2v-1.4h6.2v-3.7h-4.8v-1.4h4.8v-2.6h1.6v2.6h5.2v1.4h-5.2v3.7h6.4ZM244.7,51.6h-12.8v-1.4h5.1v-3.1h-4.6v-1.4h4.6v-2.4h1.6v2.4h5.2v1.4h-5.2v3.1h6v1.4h0Z"/>
      </g>
    </g>
    <g class="st3">
      <g class="st3">
        <path class="st0" d="M253.8,159.9c1.5,0,2.9.4,4.4,1.1,1.4.8,2.5,1.9,3.3,3.3.8,1.4,1.2,2.9,1.2,4.4s-.4,3-1.2,4.4c-.8,1.4-1.9,2.5-3.3,3.3s-2.9,1.2-4.4,1.2-3-.4-4.4-1.2-2.5-1.9-3.3-3.3c-.8-1.4-1.2-2.9-1.2-4.4s.4-3,1.2-4.4,1.9-2.5,3.3-3.3c1.4-.8,2.9-1.1,4.4-1.1h0ZM253.8,161.4c-1.2,0-2.5.3-3.6,1-1.2.6-2.1,1.5-2.8,2.7s-1,2.4-1,3.7.3,2.5,1,3.7,1.6,2.1,2.7,2.7,2.4,1,3.7,1,2.5-.3,3.7-1,2.1-1.6,2.7-2.7,1-2.4,1-3.7-.3-2.5-1-3.7-1.6-2.1-2.8-2.7-2.4-1-3.6-1h0ZM249.9,173.7v-9.5h3.3c1.1,0,1.9,0,2.4.3s.9.5,1.2.9c.3.4.4.9.4,1.4s-.2,1.3-.7,1.8-1.2.8-2,.9c.3.1.6.3.8.5.4.4.9,1,1.4,1.9l1.2,1.9h-1.9l-.8-1.5c-.7-1.2-1.2-1.9-1.6-2.2-.3-.2-.7-.3-1.2-.3h-.9v4h-1.6ZM251.4,168.3h1.9c.9,0,1.5-.1,1.8-.4.3-.3.5-.6.5-1.1s0-.5-.2-.8c-.2-.2-.4-.4-.7-.5-.3-.1-.8-.2-1.5-.2h-1.7v2.9h0Z"/>
      </g>
    </g>
  </g>
</svg>