<?xml version="1.0" encoding="UTF-8"?>
<svg id="_圖層_2" xmlns="http://www.w3.org/2000/svg" version="1.1" xmlns:xlink="http://www.w3.org/1999/xlink" viewBox="0 0 443.2 122">
  <!-- Generator: Adobe Illustrator 29.7.1, SVG Export Plug-In . SVG Version: 2.1.1 Build 8)  -->
  <defs>
    <style>
      .st0 {
        fill: #0068b7;
      }

      .st1 {
        fill: none;
        stroke: #0068b7;
        stroke-width: .8px;
      }

      .st2 {
        fill: url(#_未命名漸層);
      }

      .st3 {
        isolation: isolate;
      }

      .st4 {
        fill: #fff799;
      }
    </style>
    <linearGradient id="_未命名漸層" data-name="未命名漸層" x1="0" y1="63.2" x2="162.7" y2="63.2" gradientTransform="translate(0 121.9) scale(1 -1)" gradientUnits="userSpaceOnUse">
      <stop offset="0" stop-color="#3fbff0"/>
      <stop offset=".5" stop-color="#00a1e9"/>
      <stop offset="1" stop-color="#008dd7"/>
    </linearGradient>
  </defs>
  <g id="_圖層_1-2">
    <g>
      <path class="st2" d="M155.7,4.2c-4.6-3-11.8-4.8-22.1-4-32.5,2.5-32.2,18.8-35.6,39.5-3.1,19-6.9-34-58.4-23.8-1.1.2-2.1.5-3,.9-5.6-.9-12.5,3.6-16.6,11.3-3,5.6-3.7,11.5-2.3,16-4.8,2-8.8,8.2-9.8,15.8-.5,3.8-.2,7.5.8,10.6C3.1,72.4-.6,80.2,0,89.1c.7,8.9,5.4,15.9,11.1,17.1,3,6.7,8.5,10.8,15.4,11.1,12.9.6,24.7-6.4,23.5-14-1.1-7.6,4.3-12.6,15.5-10.4,11.3,2.2,14.5,7.8,24.8,17.4,10.7,9.8,30.3,7.6,37.8-7.8,1.6-3.2.6-14.6,1.9-28,0-.9.2-1.8.3-2.7.4-3.1.9-6.2,1.6-9.4.2-.8.4-1.7.6-2.5,1.1-4.1,2.5-8.2,4.4-12.2,4-8.3,10.2-15.7,19.7-20.9,7.1-3.8,8.8-16-1.2-22.6h0Z"/>
      <g>
        <path class="st4" d="M151.7,4.9c-11.3,3.4-38.8,12.2-31.2,23.2,5.5,8,9.3,15.3,13.5,19.6,3.9-8.3,10-15.8,19.5-21.1,7.1-3.9,10.9-16.5-1.8-21.7Z"/>
        <path class="st4" d="M129.2,62.5c.2-.8.4-1.7.6-2.5-5.8-2.4-10.8-6.7-10.8-6.7-1.7,3.6,6,7.4,10.2,9.2Z"/>
        <path class="st4" d="M127.4,74.6c0-.9.2-1.8.3-2.7-4.8-2.4-8.5-5.7-8.5-5.7-1.4,3.1,4,6.4,8.3,8.3h0Z"/>
      </g>
      <g class="st3">
        <g class="st3">
          <path class="st0" d="M146.6,71.8h-4.1v-6.7h4.1v6.7ZM142.5,107.9v-32.3h4.1v32.3h-4.1Z"/>
          <path class="st0" d="M179.1,85.5c-1.3-2.3-2.8-4.1-4.6-5.2-1.8-1.1-4-1.7-6.5-1.7s-6.1,1.3-8.5,3.8c-2.3,2.5-3.5,5.6-3.5,9.4s1.2,6.8,3.5,9.3c2.3,2.5,5.2,3.7,8.6,3.7s4.7-.6,6.6-1.8c1.9-1.2,3.4-3,4.4-5.2h4.6c-1.3,3.5-3.2,6.2-5.9,8.1-2.7,1.9-5.8,2.9-9.5,2.9s-8.6-1.7-11.8-5c-3.2-3.3-4.8-7.3-4.8-12s1.6-8.8,4.9-12.1c3.3-3.3,7.2-5,11.9-5s6.6.9,9.3,2.8c2.7,1.9,4.7,4.5,6,8h-4.6Z"/>
          <path class="st0" d="M221.4,93.1h-29.1c.3,3.5,1.5,6.4,3.8,8.5,2.3,2.2,5.1,3.2,8.6,3.2s4.6-.6,6.5-1.9c1.9-1.3,3.4-3,4.5-5.2h4.7c-1.5,3.6-3.6,6.3-6.3,8.2-2.7,1.9-5.8,2.9-9.3,2.9s-8.7-1.7-11.9-5c-3.2-3.3-4.9-7.4-4.9-12.1s1.6-9,4.8-12.2c3.2-3.2,7.2-4.8,12.2-4.8s8.8,1.7,11.9,5c3.1,3.3,4.6,7.7,4.6,13v.3ZM216.8,89.5c-.8-3.6-2.2-6.3-4.3-8.1-2.1-1.8-4.8-2.7-8.2-2.7s-5.8,1-8,2.9c-2.2,1.9-3.5,4.6-4,7.9h24.4Z"/>
          <path class="st0" d="M277.8,76.2c-1.9-2.7-4.1-4.6-6.4-5.9-2.4-1.3-5.1-1.9-8.1-1.9-4.8,0-8.8,1.8-12.2,5.3-3.4,3.5-5.1,7.7-5.1,12.6s1.7,9.5,5,13.1c3.4,3.5,7.4,5.3,12.2,5.3s5.6-.6,8-1.8c2.4-1.2,4.5-3.1,6.2-5.5h5c-2,3.6-4.6,6.4-7.9,8.4-3.3,2-7,3-11.1,3-6.3,0-11.5-2.1-15.7-6.4-4.2-4.3-6.3-9.6-6.3-16s.6-5.8,1.7-8.5c1.1-2.7,2.8-5.1,5-7.2,2-2,4.3-3.6,6.9-4.6,2.5-1,5.3-1.6,8.2-1.6,4.2,0,8.1,1,11.5,3.1,3.4,2.1,6.1,5,8.1,8.8h-5Z"/>
          <path class="st0" d="M315.5,102.8c-1.3,1.9-3,3.3-5.2,4.4s-4.6,1.6-7.1,1.6c-4.7,0-8.7-1.6-11.8-4.9-3.1-3.2-4.7-7.2-4.7-12s1.6-8.9,4.8-12.1c3.2-3.2,7.2-4.9,12.1-4.9s4.8.5,6.8,1.5c2.1,1,3.8,2.5,5.2,4.4v-5.2h4v32.3h-4v-5.1ZM315.5,91.5c0-3.4-1.2-6.4-3.7-9-2.4-2.6-5.3-3.8-8.4-3.8s-6.4,1.3-8.8,3.8c-2.4,2.6-3.7,5.7-3.7,9.5s1.2,6.6,3.6,9.1c2.4,2.5,5.3,3.7,8.7,3.7s6.1-1.3,8.6-3.9c2.4-2.6,3.7-5.8,3.7-9.4Z"/>
          <path class="st0" d="M330.2,107.9h-4.2v-32.3h3.9v3.7c1-1.4,2.1-2.5,3.3-3.1,1.2-.7,2.6-1,4.2-1.1v4.5c-2.6.2-4.4,1-5.6,2.3-1.1,1.3-1.7,3.5-1.7,6.4v19.5Z"/>
          <path class="st0" d="M372.8,93.1h-29.1c.3,3.5,1.5,6.4,3.8,8.5s5.1,3.2,8.6,3.2,4.6-.6,6.5-1.9c1.9-1.3,3.4-3,4.5-5.2h4.7c-1.5,3.6-3.6,6.3-6.3,8.2-2.7,1.9-5.8,2.9-9.3,2.9s-8.7-1.7-11.9-5c-3.2-3.3-4.9-7.4-4.9-12.1s1.6-9,4.8-12.2c3.2-3.2,7.2-4.8,12.2-4.8s8.8,1.7,11.9,5,4.6,7.7,4.6,13v.3ZM368.2,89.5c-.8-3.6-2.2-6.3-4.3-8.1-2.1-1.8-4.8-2.7-8.2-2.7s-5.8,1-8,2.9c-2.2,1.9-3.5,4.6-4,7.9h24.4Z"/>
          <path class="st0" d="M409.2,93.1h-29.1c.3,3.5,1.5,6.4,3.8,8.5,2.3,2.2,5.1,3.2,8.6,3.2s4.6-.6,6.5-1.9c1.9-1.3,3.4-3,4.5-5.2h4.7c-1.5,3.6-3.6,6.3-6.3,8.2-2.7,1.9-5.8,2.9-9.3,2.9s-8.7-1.7-11.9-5c-3.2-3.3-4.9-7.4-4.9-12.1s1.6-9,4.8-12.2c3.2-3.2,7.2-4.8,12.2-4.8s8.8,1.7,11.9,5c3.1,3.3,4.6,7.7,4.6,13v.3ZM404.6,89.5c-.8-3.6-2.2-6.3-4.3-8.1-2.1-1.8-4.8-2.7-8.2-2.7s-5.8,1-8,2.9c-2.2,1.9-3.5,4.6-4,7.9h24.4Z"/>
          <path class="st0" d="M418.1,107.9h-4.2v-32.3h3.9v3.7c1-1.4,2.1-2.5,3.3-3.1s2.6-1,4.2-1.1v4.5c-2.6.2-4.4,1-5.6,2.3-1.1,1.3-1.7,3.5-1.7,6.4v19.5Z"/>
        </g>
      </g>
      <g class="st3">
        <g class="st3">
          <path class="st0" d="M310.4,25.7h3.4v-2.8h2.1v2.8h5v1.8h-5v2.8h5.6v1.8h-3.5v3.1l3.4-1.7v1.9c-.6.3-1.5.8-2.8,1.4-.8.4-1.6.8-2.3,1.2l-.7-1.6c.3-.3.4-1,.4-2v-2.2h-3.1c-.4,1.5-.9,2.7-1.6,3.5-1.1,1.3-2.5,2.4-4.2,3.3-.2-.4-.6-1-1.2-1.8,1.5-.6,2.6-1.4,3.5-2.3.5-.6.9-1.2,1.1-1.8,0-.2.2-.5.3-.9h-4.2v-1.8h7.2v-2.8h-4.3c-.2.5-.5,1-.8,1.5-.4-.3-1-.6-1.8-.9,1-1.4,1.7-2.9,2.3-4.7l2,.5c-.1.3-.4.9-.8,1.8ZM306.7,54.4c5.3-.3,9-1.2,11.1-2.8,1.4-1,2.3-2.6,2.8-4.8.2-1,.4-2.3.4-3.8h2.6c-.4,3.3-.9,5.6-1.7,7-.9,1.8-2.4,3.3-4.5,4.3-1.3.7-3.4,1.3-6.2,1.8-1.2.2-2.5.4-3.7.6-.2-.8-.4-1.6-.8-2.3ZM313.3,41.3v9.2h-2.4v-11.3h23.2v11.3h-2.4v-9.2h-18.4ZM325.6,27.5c-.2.5-.5.9-.8,1.4-.4-.3-1-.6-1.8-.9,1-1.4,1.8-2.9,2.3-4.7l2,.5c-.2.4-.4,1.1-.8,1.9h3.2v-2.8h2v2.8h5.7v1.8h-5.7v2.8h6.7v1.8h-4.9v2c0,.9.1,1.5.3,1.7,0,.1.3.2.5.2h1.6c.5,0,.8-.2,1-.6,0-.2.2-.9.3-1.9.9.4,1.6.6,2,.7,0,.7-.2,1.2-.3,1.6-.4,1.3-1.2,1.9-2.5,1.9h-2.4c-1,0-1.8-.3-2.2-.8-.2-.2-.3-.4-.3-.7v-4.1h-2.5c-.4,1.3-.8,2.3-1.4,3-.8,1-2.2,2-4.2,3.1-.2-.5-.6-1.1-1-1.8,1.6-.6,2.7-1.3,3.3-2,.4-.4.7-1.2,1.1-2.3h-3.8v-1.8h6.7v-2.8h-4.1ZM324.2,52.1l1.2-1.9c3.1.9,5.4,1.7,7.1,2.3,1.5.5,3.3,1.3,5.4,2.2l-1.2,2c-3.3-1.6-7.4-3.1-12.5-4.7Z"/>
          <path class="st0" d="M352.3,33.1l-.2.3c-1.3,2.6-2.8,5.1-4.5,7.4-.5-.7-1-1.4-1.6-1.9,3.4-4.2,5.7-8.9,6.7-14.2l2.4.7c0,.3-.2.6-.2.8-.4,1.4-1,3-1.7,4.9h7.9v-7.6h2.3v7.6h13.5v2.1h-13.5v8h11.5v2.1h-11.5v9.7h14.9v2.1h-31.8v-2.1h14.7v-9.7h-10.1v-2.1h10.1v-8h-8.8Z"/>
          <path class="st0" d="M384.9,34.7l1.2-1.8c2,1,4,2.3,5.9,3.8l-1.3,2c-1.7-1.5-3.6-2.9-5.8-4ZM385.1,53.7c1.9-2.5,3.6-6.3,5.1-11.3l2,1.3c-1.5,4.1-3.2,8-5,11.5l-2.1-1.6ZM386.8,25.8l1.3-1.7c2.5,1.4,4.4,2.7,5.8,4l-1.5,1.9c-1.4-1.4-3.3-2.8-5.6-4.2ZM395.4,24.7h23.1v2.1h-20.9v7.7l-.2,4.3c-.1,3.8-.5,7-1.1,9.6-.6,2.7-1.7,5.3-3.2,7.8-.5-.5-1.2-1-2-1.4,1.5-2.1,2.5-4.6,3.2-7.3.7-2.9,1-7.4,1-13.6v-9.2ZM418.3,53.3v2.1h-21.1v-2.1h9.3v-5.5h-7.2v-2.1h7.2v-3.8h2.4v3.8h7.7v2.1h-7.7v5.5h9.4ZM417.7,40.4h-18.9v-2.1h7.6v-4.6h-6.8v-2.1h6.8v-3.5h2.4v3.5h7.7v2.1h-7.7v4.6h8.9v2.1Z"/>
        </g>
        <g class="st3">
          <path class="st1" d="M310.4,25.7h3.4v-2.8h2.1v2.8h5v1.8h-5v2.8h5.6v1.8h-3.5v3.1l3.4-1.7v1.9c-.6.3-1.5.8-2.8,1.4-.8.4-1.6.8-2.3,1.2l-.7-1.6c.3-.3.4-1,.4-2v-2.2h-3.1c-.4,1.5-.9,2.7-1.6,3.5-1.1,1.3-2.5,2.4-4.2,3.3-.2-.4-.6-1-1.2-1.8,1.5-.6,2.6-1.4,3.5-2.3.5-.6.9-1.2,1.1-1.8,0-.2.2-.5.3-.9h-4.2v-1.8h7.2v-2.8h-4.3c-.2.5-.5,1-.8,1.5-.4-.3-1-.6-1.8-.9,1-1.4,1.7-2.9,2.3-4.7l2,.5c-.1.3-.4.9-.8,1.8ZM306.7,54.4c5.3-.3,9-1.2,11.1-2.8,1.4-1,2.3-2.6,2.8-4.8.2-1,.4-2.3.4-3.8h2.6c-.4,3.3-.9,5.6-1.7,7-.9,1.8-2.4,3.3-4.5,4.3-1.3.7-3.4,1.3-6.2,1.8-1.2.2-2.5.4-3.7.6-.2-.8-.4-1.6-.8-2.3ZM313.3,41.3v9.2h-2.4v-11.3h23.2v11.3h-2.4v-9.2h-18.4ZM325.6,27.5c-.2.5-.5.9-.8,1.4-.4-.3-1-.6-1.8-.9,1-1.4,1.8-2.9,2.3-4.7l2,.5c-.2.4-.4,1.1-.8,1.9h3.2v-2.8h2v2.8h5.7v1.8h-5.7v2.8h6.7v1.8h-4.9v2c0,.9.1,1.5.3,1.7,0,.1.3.2.5.2h1.6c.5,0,.8-.2,1-.6,0-.2.2-.9.3-1.9.9.4,1.6.6,2,.7,0,.7-.2,1.2-.3,1.6-.4,1.3-1.2,1.9-2.5,1.9h-2.4c-1,0-1.8-.3-2.2-.8-.2-.2-.3-.4-.3-.7v-4.1h-2.5c-.4,1.3-.8,2.3-1.4,3-.8,1-2.2,2-4.2,3.1-.2-.5-.6-1.1-1-1.8,1.6-.6,2.7-1.3,3.3-2,.4-.4.7-1.2,1.1-2.3h-3.8v-1.8h6.7v-2.8h-4.1ZM324.2,52.1l1.2-1.9c3.1.9,5.4,1.7,7.1,2.3,1.5.5,3.3,1.3,5.4,2.2l-1.2,2c-3.3-1.6-7.4-3.1-12.5-4.7Z"/>
          <path class="st1" d="M352.3,33.1l-.2.3c-1.3,2.6-2.8,5.1-4.5,7.4-.5-.7-1-1.4-1.6-1.9,3.4-4.2,5.7-8.9,6.7-14.2l2.4.7c0,.3-.2.6-.2.8-.4,1.4-1,3-1.7,4.9h7.9v-7.6h2.3v7.6h13.5v2.1h-13.5v8h11.5v2.1h-11.5v9.7h14.9v2.1h-31.8v-2.1h14.7v-9.7h-10.1v-2.1h10.1v-8h-8.8Z"/>
          <path class="st1" d="M384.9,34.7l1.2-1.8c2,1,4,2.3,5.9,3.8l-1.3,2c-1.7-1.5-3.6-2.9-5.8-4ZM385.1,53.7c1.9-2.5,3.6-6.3,5.1-11.3l2,1.3c-1.5,4.1-3.2,8-5,11.5l-2.1-1.6ZM386.8,25.8l1.3-1.7c2.5,1.4,4.4,2.7,5.8,4l-1.5,1.9c-1.4-1.4-3.3-2.8-5.6-4.2ZM395.4,24.7h23.1v2.1h-20.9v7.7l-.2,4.3c-.1,3.8-.5,7-1.1,9.6-.6,2.7-1.7,5.3-3.2,7.8-.5-.5-1.2-1-2-1.4,1.5-2.1,2.5-4.6,3.2-7.3.7-2.9,1-7.4,1-13.6v-9.2ZM418.3,53.3v2.1h-21.1v-2.1h9.3v-5.5h-7.2v-2.1h7.2v-3.8h2.4v3.8h7.7v2.1h-7.7v5.5h9.4ZM417.7,40.4h-18.9v-2.1h7.6v-4.6h-6.8v-2.1h6.8v-3.5h2.4v3.5h7.7v2.1h-7.7v4.6h8.9v2.1Z"/>
        </g>
      </g>
    </g>
    <g class="st3">
      <g class="st3">
        <path class="st0" d="M434.3,91.9c1.5,0,2.9.4,4.4,1.1,1.4.8,2.5,1.9,3.3,3.3.8,1.4,1.2,2.9,1.2,4.4s-.4,3-1.2,4.4c-.8,1.4-1.9,2.5-3.3,3.3-1.4.8-2.9,1.2-4.4,1.2s-3-.4-4.4-1.2c-1.4-.8-2.5-1.9-3.3-3.3-.8-1.4-1.2-2.9-1.2-4.4s.4-3,1.2-4.4c.8-1.4,1.9-2.5,3.3-3.3,1.4-.8,2.9-1.1,4.4-1.1ZM434.3,93.4c-1.2,0-2.5.3-3.6,1-1.2.6-2.1,1.5-2.8,2.7s-1,2.4-1,3.7.3,2.5,1,3.7,1.6,2.1,2.7,2.7,2.4,1,3.7,1,2.5-.3,3.7-1,2.1-1.6,2.7-2.7,1-2.4,1-3.7-.3-2.5-1-3.7-1.6-2.1-2.8-2.7c-1.2-.6-2.4-1-3.6-1ZM430.5,105.7v-9.5h3.3c1.1,0,1.9,0,2.4.3s.9.5,1.2.9c.3.4.4.9.4,1.4s-.2,1.3-.7,1.8c-.5.5-1.2.8-2,.9.3.1.6.3.8.5.4.4.9,1,1.4,1.9l1.2,1.9h-1.9l-.8-1.5c-.7-1.2-1.2-1.9-1.6-2.2-.3-.2-.7-.3-1.2-.3h-.9v4h-1.5ZM432,100.3h1.9c.9,0,1.5-.1,1.8-.4.3-.3.5-.6.5-1.1s0-.5-.2-.8c-.2-.2-.4-.4-.7-.5-.3-.1-.8-.2-1.5-.2h-1.7v2.9Z"/>
      </g>
    </g>
  </g>
</svg>