<?xml version="1.0" encoding="UTF-8"?>
<svg id="_圖層_1" data-name="圖層_1" xmlns="http://www.w3.org/2000/svg" version="1.1" xmlns:xlink="http://www.w3.org/1999/xlink" viewBox="0 0 1083.8 117.3">
  <!-- Generator: Adobe Illustrator 30.1.0, SVG Export Plug-In . SVG Version: 2.1.1 Build 136)  -->
  <defs>
    <style>
      .st0 {
        fill: #0068b6;
      }

      .st1 {
        fill: #0068b7;
      }

      .st2 {
        fill: url(#_未命名漸層);
      }

      .st3 {
        fill: #fff799;
      }
    </style>
    <linearGradient id="_未命名漸層" data-name="未命名漸層" x1=".1" y1="1307.7" x2="162.8" y2="1307.7" gradientTransform="translate(0 -1248)" gradientUnits="userSpaceOnUse">
      <stop offset="0" stop-color="#3fbff0"/>
      <stop offset=".5" stop-color="#00a1e9"/>
      <stop offset="1" stop-color="#008dd7"/>
    </linearGradient>
  </defs>
  <g id="_圖層_1-2">
    <path class="st2" d="M155.8,5.2c-4.6-3-11.8-4.8-22.1-4-32.5,2.5-32.2,18.8-35.6,39.5-3.1,19-6.9-34-58.4-23.8-1.1.2-2.1.5-3,.9-5.6-.9-12.5,3.6-16.6,11.3-3,5.6-3.7,11.5-2.3,16-4.8,2-8.8,8.2-9.8,15.8-.5,3.8-.2,7.5.8,10.6-5.5,1.9-9.3,9.7-8.6,18.6.7,8.9,5.4,15.9,11.1,17.1,3,6.7,8.5,10.8,15.4,11.1,12.9.6,24.7-6.4,23.5-14-1.1-7.6,4.3-12.6,15.5-10.4,11.3,2.2,14.5,7.8,24.8,17.4,10.7,9.8,30.3,7.6,37.8-7.8,1.6-3.2.6-14.6,1.9-28,0-.9.2-1.8.3-2.7.4-3.1.9-6.2,1.6-9.4.2-.8.4-1.7.6-2.5,1.1-4.1,2.5-8.2,4.4-12.2,4-8.3,10.2-15.7,19.7-20.9,7.1-3.8,8.8-16-1.2-22.6,0,0,.2,0,.2,0Z"/>
    <g>
      <path class="st3" d="M151.9,5.9c-11.3,3.4-38.8,12.2-31.2,23.2,5.5,8,9.3,15.3,13.5,19.6,3.9-8.3,10-15.8,19.5-21.1,7.1-3.9,10.9-16.5-1.8-21.7Z"/>
      <path class="st3" d="M129.4,63.5c.2-.8.4-1.7.6-2.5-5.8-2.4-10.8-6.7-10.8-6.7-1.7,3.6,6,7.4,10.2,9.2Z"/>
      <path class="st3" d="M127.6,75.6c0-.9.2-1.8.3-2.7-4.8-2.4-8.5-5.7-8.5-5.7-1.4,3.1,4,6.4,8.3,8.3h-.1Z"/>
    </g>
    <g>
      <path class="st1" d="M146.8,72.8h-4.1v-6.7h4.1v6.7ZM142.6,108.9v-32.3h4.1v32.3s-4.1,0-4.1,0Z"/>
      <path class="st1" d="M179.3,86.5c-1.3-2.3-2.8-4.1-4.6-5.2s-4-1.7-6.5-1.7-6.1,1.3-8.5,3.8-3.5,5.6-3.5,9.4,1.2,6.8,3.5,9.3,5.2,3.7,8.6,3.7,4.7-.6,6.6-1.8c1.9-1.2,3.4-3,4.4-5.2h4.6c-1.2,3.5-3.2,6.2-5.9,8.1s-5.8,2.9-9.5,2.9-8.6-1.7-11.8-5-4.8-7.3-4.8-12,1.6-8.8,4.9-12.1c3.3-3.3,7.2-5,11.9-5s6.6.9,9.2,2.8,4.7,4.5,6,8h-4.6,0Z"/>
      <path class="st1" d="M221.5,94.1h-29.1c.2,3.5,1.5,6.3,3.8,8.5s5.1,3.2,8.6,3.2,4.6-.6,6.5-1.9,3.4-3,4.5-5.2h4.7c-1.5,3.6-3.6,6.3-6.3,8.2-2.7,1.9-5.8,2.9-9.3,2.9s-8.7-1.7-11.9-5-4.9-7.4-4.9-12.1,1.6-9,4.8-12.2,7.2-4.8,12.2-4.8,8.8,1.7,11.9,5c3.1,3.3,4.6,7.7,4.6,13v.3h-.1ZM216.9,90.4c-.8-3.6-2.2-6.3-4.3-8.1s-4.8-2.7-8.2-2.7-5.8,1-7.9,2.9c-2.2,1.9-3.5,4.6-4,7.9,0,0,24.4,0,24.4,0Z"/>
      <path class="st1" d="M277.9,77.2c-1.9-2.7-4.1-4.6-6.4-5.9-2.4-1.2-5.1-1.9-8.1-1.9-4.8,0-8.8,1.8-12.2,5.3s-5.1,7.7-5.1,12.6,1.7,9.5,5,13.1,7.4,5.3,12.2,5.3,5.6-.6,8-1.8c2.4-1.2,4.5-3.1,6.2-5.5h5c-2,3.6-4.6,6.4-7.9,8.4s-7,3-11.1,3c-6.3,0-11.5-2.1-15.7-6.4s-6.3-9.6-6.3-16.1.6-5.8,1.7-8.5c1.1-2.7,2.8-5.1,5-7.2,2-2,4.3-3.6,6.9-4.6s5.3-1.6,8.2-1.6c4.2,0,8.1,1,11.5,3.1s6.1,5,8,8.8h-5.1.2Z"/>
      <path class="st1" d="M315.6,103.8c-1.3,1.9-3,3.3-5.2,4.4s-4.6,1.6-7.1,1.6c-4.7,0-8.7-1.6-11.8-4.8s-4.7-7.2-4.7-12,1.6-8.9,4.8-12.1c3.2-3.2,7.2-4.9,12.1-4.9s4.8.5,6.8,1.5c2.1,1,3.8,2.5,5.2,4.4v-5.2h4v32.3h-4v-5.1h0ZM315.6,92.5c0-3.4-1.2-6.4-3.7-9-2.4-2.6-5.3-3.8-8.5-3.8s-6.4,1.3-8.8,3.8-3.6,5.7-3.6,9.5,1.2,6.6,3.6,9.1,5.3,3.7,8.7,3.7,6.1-1.3,8.6-3.9c2.4-2.6,3.6-5.8,3.6-9.4h0Z"/>
      <path class="st1" d="M330.4,108.9h-4.2v-32.3h3.9v3.7c1-1.4,2.1-2.5,3.3-3.1,1.2-.7,2.6-1,4.2-1.1v4.5c-2.6.2-4.4,1-5.6,2.3-1.1,1.3-1.7,3.5-1.7,6.4v19.5h.1Z"/>
      <path class="st1" d="M372.9,94.1h-29.1c.2,3.5,1.5,6.3,3.8,8.5s5.1,3.2,8.6,3.2,4.6-.6,6.5-1.9,3.4-3,4.5-5.2h4.7c-1.5,3.6-3.6,6.3-6.3,8.2s-5.8,2.9-9.3,2.9-8.7-1.7-11.9-5c-3.2-3.3-4.9-7.4-4.9-12.1s1.6-9,4.8-12.2c3.2-3.2,7.2-4.8,12.2-4.8s8.8,1.7,11.9,5,4.6,7.7,4.6,13v.3h-.1ZM368.3,90.4c-.8-3.6-2.2-6.3-4.3-8.1s-4.8-2.7-8.2-2.7-5.8,1-8,2.9-3.5,4.6-4,7.9c0,0,24.5,0,24.5,0Z"/>
      <path class="st1" d="M409.3,94.1h-29.1c.2,3.5,1.5,6.3,3.8,8.5s5.1,3.2,8.6,3.2,4.6-.6,6.5-1.9,3.4-3,4.5-5.2h4.7c-1.5,3.6-3.6,6.3-6.3,8.2s-5.8,2.9-9.3,2.9-8.7-1.7-11.9-5c-3.2-3.3-4.9-7.4-4.9-12.1s1.6-9,4.8-12.2c3.2-3.2,7.2-4.8,12.2-4.8s8.8,1.7,11.9,5,4.6,7.7,4.6,13v.3h-.1ZM404.7,90.4c-.8-3.6-2.2-6.3-4.3-8.1s-4.8-2.7-8.2-2.7-5.8,1-8,2.9-3.5,4.6-4,7.9c0,0,24.5,0,24.5,0Z"/>
      <path class="st1" d="M418.2,108.9h-4.2v-32.3h3.9v3.7c1-1.4,2.1-2.5,3.3-3.1,1.2-.7,2.6-1,4.2-1.1v4.5c-2.6.2-4.4,1-5.6,2.3-1.1,1.3-1.7,3.5-1.7,6.4v19.5h.1Z"/>
    </g>
    <g>
      <path class="st1" d="M316.1,27.7v2.8h-10.2v-2.8h10.2ZM309.3,54.9h-2.8v-11.5c0-.6.3-.9.9-.9h8.5c.6,0,.9.3.9.9v9.2c0,.6-.3,1-1,1h-6.5v1.4h0ZM316,23v2.8h-9.1v-2.8h9.1ZM315.8,32.8v2.8h-8.8v-2.8h8.8ZM315.8,37.7v2.8h-8.8v-2.8h8.8ZM309.8,45.3c-.3,0-.5.2-.5.5v4.9h4.1c.4,0,.6-.2.6-.6v-4.4c0-.3-.2-.5-.5-.5h-3.7ZM328.2,30.5v-2.4h3.9v-1.8h-2.4c-.3.5-.7,1-1.1,1.5-.7-.7-1.3-1.2-1.8-1.5h-2v1.8h2.7v2.4h-2v1.9c.5,0,1.1-.3,1.5-.4l.7,2.1c-1.6.6-3.5,1.1-5.9,1.4l-.3-2.5h1.5v-2.3h-1.2c0,1.7-1,3.5-3,5.2l-2-1.6c1.7-1.2,2.6-2.4,2.6-3.6h-1.8v-2.4h4.6v-1.8h-2.1c-.2.5-.5.9-.8,1.3-.7-.7-1.4-1.1-1.9-1.4.8-1.2,1.3-2.5,1.5-4l2.5.6c-.1.4-.3.8-.4,1.3h1.2v-2.2h2.5v2.2h2.3v1.8c.9-1.2,1.5-2.5,1.7-3.9l2.4.8c-.1.4-.3.8-.5,1.3h1.3v-2h2.5v2h3.1v2.2h-3.1v1.8h3.7v2.4h-2.9v2.2c0,.5.2.7.6.7h.7s.2-.2.2-.5v-1.6l2,.6c-.1,1.8-.4,2.9-.7,3.1-.4.3-.8.4-1.3.4h-2.9c-.7,0-1.1-.4-1.1-1.1v-3.8h-.9v.3c0,1.5-.8,3.1-2.2,4.8l-2.2-1.3c1.4-1.2,2-2.5,2-3.8h-1.6.4v-.2h0ZM319.2,50c-.2,0-.4-.2-.4-.4v-13.2c0-.2.1-.3.4-.3h18.1c.3,0,.4,0,.4.3v13.2c0,.3-.1.4-.4.4h-5.8c2,.7,4.3,1.8,6.9,3.2l-1.5,2.5c-2.9-1.6-5.2-2.7-7.1-3.2l.8-2.5h-6l1.5,1.9c-2.7,1.9-5.2,3.1-7.4,3.5l-1.2-2.8c2.3-.5,4.4-1.3,6.2-2.6h-4.6s.1,0,.1,0ZM321.6,46.2v1.4h13.3v-1.4h-13.3ZM334.9,40.1v-1.5h-13.3v1.5h13.3ZM334.9,43.9v-1.6h-13.3v1.6h13.3Z"/>
      <path class="st1" d="M361.1,42.8h-11.4v-3.1h11.4v-8.2h-9c-1.2,2.4-2.6,4.5-4.2,6.2l-2.6-2c1.6-1.7,2.9-3.6,4-5.6.8-1.6,1.5-4,2-7.3l3.2.5c-.3,1.9-.7,3.6-1.2,5.2h7.7v-6.1h3.2v6.1h12.8v3.1h-12.8v8.2h11.6v3.1h-11.6v8.8h14.1v3.1h-32.2v-3.1h15v-8.8h0Z"/>
      <path class="st1" d="M387,30.7c1.7.9,3.7,2.3,5.8,4.2l-1.9,2.5c-2.2-1.9-4.1-3.3-5.6-4.1l1.8-2.5h0ZM392.5,40.3c-.7,4.1-2.2,9-4.5,14.6l-2.8-1.2c2.3-5.7,3.8-10.4,4.4-14l2.9.5h0ZM387.6,22.5c1.8,1,3.8,2.5,5.9,4.5l-2,2.4c-2.3-2-4.2-3.5-5.8-4.4l1.8-2.5h.1ZM417.6,26.2h-20.1c-.3,0-.4.1-.4.4v13.5c0,5.8-1.5,10.9-4.3,15.1l-2.7-1.3c1.6-2.5,2.8-4.8,3.4-7.1.5-2,.8-4.6.8-7.6v-15.1c0-.5.3-.8.8-.8h22.6v2.9h0ZM406.7,46.7h-7.5v-2.8h7.5v-3.5h2.9v3.5h7.3v2.8h-7.3v5h9.1v2.8h-21.6v-2.8h9.6v-5h0ZM406.5,32.6h-6.9v-2.8h6.9v-2.8h2.9v2.8h7.1v2.8h-7.1v3.8h8.3v2.8h-19v-2.8h7.8s0-3.9,0-3.8h0Z"/>
    </g>
  </g>
  <g id="_圖層_1-2-2">
    <path class="st0" d="M434.1,90.8c1.5,0,2.9.4,4.4,1.1,1.4.8,2.5,1.9,3.3,3.3s1.2,2.9,1.2,4.4-.4,3-1.2,4.4c-.8,1.4-1.9,2.5-3.3,3.3s-2.9,1.2-4.4,1.2-3-.4-4.4-1.2c-1.4-.8-2.5-1.9-3.3-3.3s-1.2-2.9-1.2-4.4.4-3,1.2-4.4c.8-1.4,1.9-2.5,3.3-3.3s2.9-1.1,4.4-1.1ZM434.1,92.3c-1.2,0-2.5.3-3.6,1-1.2.6-2.1,1.5-2.8,2.7-.7,1.2-1,2.4-1,3.7s.3,2.5,1,3.7,1.6,2.1,2.7,2.7c1.2.7,2.4,1,3.7,1s2.5-.3,3.7-1,2.1-1.6,2.7-2.7,1-2.4,1-3.7-.3-2.5-1-3.7-1.6-2.1-2.8-2.7c-1.2-.6-2.4-1-3.6-1h0ZM430.2,104.6v-9.5h3.3c1.1,0,1.9,0,2.4.3.5.2.9.5,1.2.9.3.4.4.9.4,1.4s-.2,1.3-.7,1.8-1.2.8-2,.9c.3,0,.6.3.8.5.4.4.9,1,1.4,1.9l1.2,1.9h-1.9l-.8-1.5c-.7-1.2-1.2-1.9-1.6-2.2-.3-.2-.7-.3-1.2-.3h-.9v4h-1.6,0ZM431.7,99.3h1.9c.9,0,1.5,0,1.8-.4s.5-.6.5-1.1,0-.5-.2-.8c-.2-.2-.4-.4-.7-.5-.3,0-.8-.2-1.5-.2h-1.7v2.9h0Z"/>
  </g>
  <g>
    <path class="st1" d="M461.4,30.6h56.7v59.4h-6.3v-53.7h-44.4v53.7h-6V30.6ZM465.3,81.2h50v5.8h-50v-5.8ZM469.9,70.8c2.5-.4,5.5-.8,9-1.3,3.5-.5,7-1.1,10.7-1.7v4.4c-3.2.6-6.6,1.2-9.9,1.8-3.3.6-6.4,1.2-9.1,1.6l-.7-4.8ZM470.6,44.2h38.4v4.6h-38.4v-4.6ZM472.7,52.5h15v12.9h-15v-12.9ZM477,56v5.8h6.2v-5.8h-6.2ZM501.8,51.3l5,1c-1.7,6.2-4.1,11.5-7.3,16.1-3.2,4.6-7.1,8.3-11.6,11.3-.2-.4-.6-.8-1-1.3-.4-.5-.9-1-1.3-1.5-.4-.5-.9-.9-1.3-1.1,4.4-2.5,8.1-5.9,11.1-10s5.1-9,6.6-14.5ZM489.6,37.7h5.3c.2,4.5.5,8.8.9,13,.4,4.2,1,7.9,1.7,11.3.7,3.3,1.6,6,2.7,8.1,1,2.1,2.3,3.2,3.7,3.5.4.1.8-.4,1.1-1.7.3-1.2.5-2.9.7-5,.4.4.8.7,1.3,1.1.5.4,1,.8,1.5,1.1.5.3.9.6,1.3.8-.5,3.8-1.4,6.5-2.8,7.9-1.4,1.4-3,1.7-5,.9-2.2-.6-4.1-2.1-5.6-4.5-1.5-2.4-2.7-5.5-3.6-9.3-.9-3.8-1.6-7.9-2.1-12.6-.5-4.6-.9-9.5-1.2-14.5ZM498.1,39.6l2.9-2.9c1.2.6,2.5,1.3,3.8,2.1,1.3.8,2.4,1.6,3.1,2.3l-3,3.2c-.7-.8-1.7-1.6-3-2.5s-2.5-1.6-3.8-2.2Z"/>
    <path class="st1" d="M532.9,39.4h54.5v32.5h-6.6v-26.3h-41.7v26.6h-6.3v-32.8ZM536.1,61.9h48.4v6.2h-48.4v-6.2ZM556.6,27.6h6.6v62.1h-6.6V27.6Z"/>
    <path class="st1" d="M603.5,28h5.7v27c0,2.9,0,6-.2,9.1-.1,3.1-.4,6.3-.7,9.3-.4,3.1-.9,6-1.7,8.9-.8,2.8-1.7,5.4-2.9,7.8-.3-.4-.7-.8-1.3-1.3s-1.1-.9-1.6-1.4-1.1-.8-1.6-1c1-2.2,1.8-4.6,2.4-7.1.6-2.6,1-5.2,1.3-8,.3-2.8.5-5.6.6-8.3,0-2.7.1-5.4.1-7.9v-27ZM606.3,60.1h16.5v29.5h-5.8v-23.9h-10.7v-5.6ZM617.3,29.4h5.8v23.9h-16.3v-5.7h10.5v-18.2ZM629.1,33.1h6v22.4c0,2.8,0,5.7-.2,8.7-.1,3-.4,6.1-.9,9.1-.4,3.1-1.1,6-1.9,8.9-.8,2.9-1.9,5.5-3.3,7.9-.4-.4-.8-.8-1.4-1.2-.6-.4-1.2-.9-1.8-1.3-.6-.4-1.2-.7-1.7-1,1.2-2.1,2.2-4.5,2.8-7.1.7-2.6,1.2-5.3,1.6-8.1.4-2.8.6-5.5.7-8.2.1-2.7.2-5.3.2-7.7v-22.4ZM629.1,31.4h30.1v5.8h-30.1v-5.8ZM653.7,47.8h1.1l1.1-.2,3.9,1.2c-1,6.9-2.7,13-4.9,18.3-2.3,5.3-5,9.8-8.3,13.6-3.3,3.8-6.9,6.8-11.1,9.2-.3-.5-.6-1.1-1.1-1.7-.4-.6-.9-1.3-1.4-1.9-.5-.6-1-1.1-1.4-1.5,3.7-1.8,7.1-4.5,10.1-7.9,3-3.4,5.6-7.5,7.6-12.2,2.1-4.7,3.5-9.9,4.4-15.7v-1.2ZM632.4,47.8h23.2v5.8h-23.2v-5.8ZM640.1,51.5c1.1,5,2.6,9.6,4.6,13.9,1.9,4.3,4.4,8.1,7.3,11.3,2.9,3.2,6.3,5.7,10.3,7.6-.4.4-1,.8-1.5,1.5-.6.6-1.1,1.3-1.6,1.9-.5.7-.9,1.3-1.3,1.8-4.1-2.2-7.6-5.1-10.6-8.7-3-3.6-5.5-7.8-7.4-12.5-2-4.7-3.6-9.9-4.9-15.5l5.2-1.2Z"/>
    <path class="st1" d="M669.3,74.6c2.2-.4,4.9-.8,7.9-1.4,3-.6,6.2-1.2,9.4-1.9l.4,5c-2.9.7-5.8,1.3-8.6,1.9-2.8.6-5.5,1.2-7.9,1.7l-1.2-5.4ZM670,30.2h21.6v5.7h-21.6v-5.7ZM673.2,33.3h4.7v42.5h-4.7v-42.5ZM675.9,44.4h10.7v5.2h-10.7v-5.2ZM675.9,58.2h10.7v5.3h-10.7v-5.3ZM683.9,33.2h4.8v56.5h-4.8v-56.5ZM690.8,47.6h40.8v5.4h-40.8v-5.4ZM692.1,34.4h20.1v5h-20.1v-5ZM693.3,56.2h5v28.7h-5v-28.7ZM693.4,40.5l4.4-.7c.4,1.3.8,2.8,1.2,4.5.3,1.7.5,3,.6,4.2l-4.7.9c0-1.2-.2-2.6-.5-4.2-.3-1.7-.6-3.2-1-4.6ZM695.2,56.2h15.9v25.7h-4.8v-21.2h-11.1v-4.5ZM695.5,75.7h13.3v4.4h-13.3v-4.4ZM695.5,65.9h13.3v4.4h-13.3v-4.4ZM697.6,28.8l5.2-.9c.6,1.3,1.2,2.7,1.7,4.2.6,1.5,1,2.8,1.3,3.9l-5.5,1.3c-.3-1.1-.7-2.5-1.2-4.1-.5-1.6-1-3-1.5-4.4ZM705.6,39.7l5,.9c-.5,1.5-1,3.1-1.4,4.7-.5,1.6-.9,3-1.3,4.1l-4.3-.8c.4-1.3.8-2.8,1.2-4.4.4-1.7.7-3.1.8-4.4ZM726.4,55.9l4.9,2.5c-1.5,4.6-3.5,8.8-5.8,12.7-2.3,3.9-5,7.4-7.9,10.4-2.9,3.1-6,5.7-9.1,7.8-.4-.5-1-1.2-1.7-1.8-.7-.7-1.4-1.3-1.9-1.7,3.1-2,6-4.5,8.8-7.4,2.8-2.9,5.3-6.3,7.5-10,2.2-3.8,4-7.9,5.3-12.4ZM713.8,27.6h5.4c0,5.9.2,11.6.4,17,.2,5.4.5,10.4.9,15,.4,4.6.8,8.6,1.4,12.1.6,3.4,1.2,6.1,1.9,8,.7,1.9,1.5,2.9,2.3,2.9.5,0,.9-.8,1.3-2.4.4-1.6.6-3.8.8-6.6.3.4.7.8,1.2,1.3.5.4,1,.8,1.6,1.2.5.4.9.6,1.2.9-.4,3.3-1,5.9-1.7,7.8-.7,1.8-1.5,3.1-2.2,3.8-.8.7-1.6,1-2.3,1-1.9,0-3.5-1.1-4.8-3.1-1.3-2-2.4-4.9-3.3-8.6-.9-3.8-1.6-8.2-2.1-13.3-.5-5.1-.9-10.8-1.2-17-.3-6.2-.5-12.9-.6-19.9ZM720.5,33.3l4.6-1.6c.7,1.2,1.3,2.5,2,4,.7,1.5,1.3,2.8,1.8,4.2s.9,2.5,1.2,3.6l-4.9,1.9c-.2-1.1-.6-2.3-1.1-3.7-.5-1.4-1-2.8-1.7-4.3-.6-1.5-1.3-2.8-1.9-4.1Z"/>
    <path class="st1" d="M739.9,50.7l3.6-4.8c1.3.5,2.7,1.1,4.2,1.8,1.5.7,2.9,1.5,4.2,2.3,1.3.8,2.4,1.6,3.2,2.3l-3.6,5.3c-.8-.8-1.9-1.6-3.1-2.4-1.3-.8-2.7-1.7-4.1-2.5-1.5-.8-2.9-1.5-4.3-2.1ZM741.2,85.3c1-1.7,2.1-3.8,3.2-6.2,1.2-2.4,2.3-5,3.5-7.7,1.2-2.7,2.3-5.4,3.2-8l5.2,3.6c-.9,2.4-1.9,4.8-2.9,7.4-1,2.5-2.1,5.1-3.2,7.5-1.1,2.5-2.2,4.8-3.2,6.9l-5.8-3.6ZM743.4,32.7l3.6-4.7c1.3.5,2.7,1.2,4.2,2,1.5.8,2.9,1.6,4.2,2.4,1.3.8,2.4,1.6,3.2,2.4l-3.8,5.2c-.8-.8-1.8-1.6-3-2.5-1.3-.9-2.6-1.8-4.1-2.6-1.5-.9-2.9-1.6-4.3-2.2ZM760.8,30.8h6v18.6c0,2.9,0,6.1-.3,9.6-.2,3.5-.6,7.1-1.1,10.7-.6,3.6-1.4,7.2-2.5,10.7-1.1,3.5-2.6,6.6-4.4,9.5-.4-.3-.9-.7-1.5-1.1s-1.3-.8-2-1.1-1.3-.6-1.7-.8c1.7-2.7,3.1-5.7,4.1-8.9,1-3.2,1.8-6.5,2.3-9.8.5-3.4.8-6.7,1-9.9s.2-6.2.2-8.9v-18.6ZM763.5,30.8h38.3v5.6h-38.3v-5.6ZM764.7,82.3h37.6v5.4h-37.6v-5.4ZM767.8,56h33.5v5.2h-33.5v-5.2ZM768.8,68.8h31.5v5.2h-31.5v-5.2ZM770.5,43.6h28.5v5.1h-28.5v-5.1ZM781.5,37.8h5.8v20.2h-5.8v-20.2ZM781.5,62.7h5.8v22h-5.8v-22Z"/>
    <path class="st1" d="M811,41.6h19.8v5h-19.8v-5ZM830.9,78.7l5.8,2.6c-1.8,1.1-3.9,2.2-6.3,3.3-2.4,1.1-4.8,2-7.3,2.9s-4.9,1.6-7.2,2.2c-.3-.4-.7-.9-1.3-1.5-.6-.6-1.1-1.2-1.7-1.8-.6-.6-1.2-1-1.6-1.4,2.3-.4,4.7-1,7.1-1.7,2.4-.7,4.7-1.4,6.9-2.2,2.2-.8,4.1-1.6,5.6-2.5ZM812.5,31.2h16.6v4.8h-16.6v-4.8ZM819.9,51.5h44.2v27.2h-44.2v-27.2ZM826,55.6v3.8h31.8v-3.8h-31.8ZM826,63.2v3.8h31.8v-3.8h-31.8ZM826,70.8v3.9h31.8v-3.9h-31.8ZM847,35.3h5.8v2.5c0,1.2-.2,2.5-.7,3.8-.5,1.3-1.5,2.6-2.9,3.8-1.4,1.2-3.6,2.4-6.4,3.4-2.8,1-6.6,1.9-11.4,2.5-.3-.7-.8-1.6-1.4-2.5-.6-1-1.3-1.7-1.8-2.2,4.2-.4,7.6-1,10.2-1.7,2.5-.7,4.4-1.5,5.6-2.3s2-1.6,2.4-2.5c.4-.9.6-1.7.6-2.4v-2.2ZM839.5,27.3l5.6,1.2c-.9,2.8-2.1,5.5-3.7,8s-3.2,4.7-5,6.4c-.3-.4-.8-.7-1.3-1.1-.6-.4-1.2-.8-1.8-1.2-.6-.4-1.2-.7-1.6-1,1.8-1.5,3.3-3.4,4.7-5.6s2.4-4.5,3.1-6.8ZM838.7,31.9h27.3v4.8h-27.3v-4.8ZM847.4,81.9l4.2-3.3c2.4.8,4.8,1.6,7.2,2.5,2.4.9,4.7,1.8,6.9,2.6,2.2.9,4,1.7,5.6,2.4l-5.7,3.5c-1.4-.8-3-1.6-5-2.4-1.9-.9-4.1-1.8-6.3-2.7s-4.6-1.8-6.9-2.6ZM852.2,38.7c1.1,1.3,2.7,2.5,4.7,3.6,2,1,4.3,1.9,7,2.5,2.7.6,5.5,1.1,8.7,1.3-.6.6-1.3,1.4-1.9,2.4s-1.2,1.9-1.5,2.7c-3.4-.5-6.4-1.2-9.1-2.2-2.7-1-5.1-2.2-7.2-3.8-2.1-1.5-3.7-3.4-5-5.5l4.5-.9ZM863.9,31.9h1l.9-.3,4.4,1.4c-.8,1.8-1.8,3.6-2.8,5.5s-2.1,3.4-3,4.7l-5-1.8c.8-1.1,1.6-2.5,2.4-4.1.9-1.6,1.6-3.1,2.1-4.5v-.9Z"/>
    <path class="st1" d="M881.3,38.8h24.5v5.1h-24.5v-5.1ZM884,47.9h19.2v5h-19.2v-5ZM884,56.8h19.4v4.9h-19.4v-4.9ZM884,65.9h5v23h-5v-23ZM886.6,65.9h16.8v20h-16.8v-5.2h11.7v-9.6h-11.7v-5.2ZM888.2,29.7l4.5-2.5c.9,1.4,1.8,2.9,2.7,4.5.9,1.6,1.6,3.1,2.1,4.3l-4.8,2.8c-.4-1.2-1.1-2.7-2-4.5-.9-1.8-1.7-3.3-2.6-4.7ZM905.6,56.2h22.2v5.9h-22.2v-5.9ZM906.5,31.2h26.4v6h-26.4v-6ZM914.1,35.1h5.9v54.7h-5.9v-54.7ZM929.9,31.2h6.4c0,4.2-.2,8.3-.2,12.4,0,4.1,0,8,0,11.8s0,7.2.2,10.5c0,3.2.2,6,.5,8.4.2,2.4.5,4.3.9,5.8.4,1.4.8,2.2,1.3,2.3.2,0,.3-.4.4-1.2.1-.8.2-1.9.4-3.3.1-1.3.2-2.8.3-4.4.3.5.7,1.1,1.1,1.8.4.6.8,1.3,1.3,1.8.4.6.8,1,1.1,1.3-.3,3.2-.7,5.7-1.4,7.3-.7,1.7-1.5,2.7-2.5,3.1-1,.4-2.1.4-3.3-.1-1.4-.5-2.6-1.9-3.4-4.2-.8-2.2-1.5-5.2-1.9-8.8-.4-3.6-.7-7.8-.9-12.5-.2-4.7-.2-9.8-.2-15.2v-16.9Z"/>
    <path class="st1" d="M966.6,70.6l6.4,2.3c-1.3,1.7-2.8,3.5-4.5,5.2-1.7,1.7-3.4,3.4-5.2,4.9-1.8,1.5-3.5,2.9-5.2,4.1-.4-.4-.9-.9-1.6-1.4-.7-.5-1.4-1.1-2.1-1.5-.7-.5-1.3-.9-1.9-1.2,2.6-1.6,5.2-3.5,7.8-5.7s4.6-4.4,6.3-6.7ZM996.4,27.4l4.7,5c-3,1.3-6.3,2.4-9.9,3.5-3.6,1.1-7.4,2.1-11.4,3-4,.9-8,1.8-12,2.5s-8,1.4-11.9,2c-.1-.8-.4-1.7-.8-2.7-.4-1-.7-1.9-1.1-2.6,3.8-.6,7.7-1.3,11.7-2.1,4-.8,7.8-1.6,11.6-2.5,3.8-.9,7.3-1.9,10.5-2.9s6.1-2.1,8.6-3.2ZM957.6,70.5c0-.4-.2-1-.4-1.7-.2-.7-.4-1.5-.7-2.2-.2-.8-.5-1.4-.8-2,1.2-.2,2.5-.5,4-1.1,1.5-.5,3.2-1.3,5.2-2.2,1.2-.5,2.8-1.4,5-2.5,2.2-1.1,4.7-2.5,7.5-4.1,2.8-1.6,5.7-3.3,8.6-5.3,3-1.9,5.8-3.9,8.5-6l4.8,4.2c-6,4.3-12.2,8.2-18.6,11.5-6.4,3.3-12.7,6.2-18.9,8.6h0c-.8.4-1.6.7-2.1,1-.6.3-1.1.5-1.5.8-.4.3-.6.6-.6.8ZM957.6,70.5v-4.8c-.1,0,3.9-2.2,3.9-2.2l42.2-2.8c0,.8-.1,1.8-.1,2.8s0,1.9,0,2.5c-6.5.5-12.1.9-16.8,1.3-4.7.4-8.6.7-11.9,1-3.2.3-5.9.5-7.9.7-2.1.2-3.7.3-4.9.5-1.2.2-2.1.3-2.8.5-.7.2-1.3.3-1.7.5ZM960.9,56.2c0-.4-.2-1-.4-1.7-.2-.7-.4-1.5-.7-2.2-.2-.8-.5-1.4-.8-2,.8-.1,1.7-.4,2.6-.7s1.9-.8,3-1.4c.8-.4,2.1-1.1,3.9-2.2,1.8-1,3.7-2.3,5.8-3.8,2.1-1.5,4.1-3,5.9-4.7l5.6,3.6c-3.3,2.5-6.7,4.8-10.3,6.9-3.6,2.1-7.1,3.9-10.5,5.4v.2c-.8.3-1.5.6-2,.9-.5.3-1,.6-1.4.9s-.6.6-.6.9ZM960.9,56.2v-4.4c0,0,3.3-1.9,3.3-1.9l25.1-1.2c-.2.8-.4,1.6-.5,2.6-.1,1-.2,1.8-.3,2.4-4.6.3-8.4.5-11.5.7-3.1.2-5.6.4-7.5.5-1.9.1-3.5.3-4.6.4-1.1.1-2,.3-2.5.4-.6.1-1.1.3-1.5.4ZM979.5,64.5h6.4v18c0,1.7-.2,2.9-.6,3.9-.4.9-1.3,1.6-2.6,2.2-1.3.5-2.8.8-4.6.9-1.8,0-3.9.1-6.4.1-.1-.9-.4-2-.9-3.2-.5-1.2-.9-2.2-1.4-3,1.3,0,2.5,0,3.7.1,1.2,0,2.2,0,3.1,0s1.5,0,1.9,0c.5,0,.9-.1,1.1-.3.2-.2.3-.4.3-.8v-17.9ZM990.9,73.3l5.1-3.4c1.7,1.3,3.6,2.6,5.5,4.2,1.9,1.5,3.8,3,5.5,4.6,1.7,1.5,3.1,2.9,4.3,4.2l-5.5,3.8c-1-1.3-2.4-2.7-4-4.2-1.7-1.6-3.4-3.1-5.4-4.7-1.9-1.6-3.8-3-5.5-4.3ZM992.5,55.3l5.2-2.7c1.7,1.6,3.3,3.2,5,5.1,1.7,1.8,3.3,3.6,4.8,5.3,1.5,1.7,2.7,3.3,3.7,4.6l-5.4,3.3c-.9-1.4-2.1-3-3.6-4.8-1.5-1.8-3.1-3.7-4.8-5.6-1.7-1.9-3.4-3.6-5-5.2Z"/>
    <path class="st1" d="M1023.8,71.2l5,.8c-.3,2.9-.7,5.9-1.3,8.9-.6,3-1.2,5.5-1.8,7.5-.6-.3-1.4-.6-2.4-1-1-.4-1.8-.6-2.4-.8.8-2,1.4-4.4,1.9-7.2.4-2.8.8-5.5,1.1-8.2ZM1022.9,53.3c0-.4-.3-1-.5-1.7-.2-.7-.5-1.4-.7-2.1-.2-.7-.5-1.4-.7-1.8.6-.2,1.2-.6,1.8-1.2.6-.6,1.2-1.5,1.9-2.4.4-.5.9-1.3,1.6-2.4.7-1.1,1.4-2.4,2.2-4s1.7-3.2,2.5-5c.8-1.8,1.6-3.6,2.2-5.4l5.7,2.4c-1.7,3.7-3.6,7.4-5.7,11-2.2,3.6-4.4,6.8-6.6,9.5h0c-.8.5-1.4.9-1.8,1.2-.5.3-.9.6-1.3,1-.4.4-.6.7-.6,1ZM1023.4,68.6c0-.4-.2-1-.5-1.7-.2-.7-.5-1.5-.7-2.2-.3-.8-.5-1.4-.8-1.9.8-.2,1.6-.7,2.4-1.4.8-.8,1.7-1.8,2.7-3,.5-.6,1.3-1.7,2.4-3.1,1.1-1.4,2.3-3.1,3.6-5.1,1.3-2,2.6-4.1,3.9-6.4s2.5-4.6,3.6-6.9l5.3,3.2c-1.7,3.1-3.5,6.1-5.5,9.2-2,3-4.1,5.9-6.2,8.7-2.2,2.7-4.3,5.2-6.5,7.5h0c-.7.5-1.3.9-1.8,1.2-.5.3-1,.6-1.3,1s-.5.7-.5,1ZM1022.9,53.3v-4.2c-.1,0,2.4-1.7,2.4-1.7l11.7-.9c-.2.7-.3,1.5-.4,2.4,0,.9-.1,1.7-.1,2.2-2.6.3-4.8.5-6.5.7-1.7.2-3,.4-3.9.5-.9.2-1.6.3-2.1.4-.5.1-.8.3-1.1.4ZM1023.4,68.6l-.3-4.5,2.5-1.8,17.3-2.6c0,.7-.1,1.5-.2,2.5,0,.9,0,1.7,0,2.3-3.9.7-7.1,1.3-9.5,1.7-2.4.4-4.3.8-5.6,1.1-1.3.3-2.3.5-2.9.7s-1.1.4-1.4.6ZM1031.2,71.8l4.6-1.1c.4,2.2.8,4.7,1.1,7.3.4,2.6.6,4.9.7,6.8l-4.9,1.2c0-1.9-.2-4.2-.5-6.8-.3-2.6-.6-5.1-1-7.4ZM1037.4,54.4l4.4-1.7c.7,1.4,1.3,3,2,4.6.6,1.7,1.2,3.2,1.7,4.8.5,1.5.8,2.9,1,4l-4.7,1.9c-.2-1.2-.5-2.6-.9-4.2-.4-1.6-1-3.2-1.6-4.9-.6-1.7-1.2-3.2-1.9-4.7ZM1038.6,70.4l4.3-1.5c.7,1.8,1.4,3.8,2.1,6,.7,2.2,1.2,4,1.5,5.6l-4.6,1.7c-.3-1.6-.7-3.5-1.4-5.7s-1.3-4.2-1.9-6.1ZM1054.1,58h6c-.1,4-.4,7.7-.8,11-.4,3.3-1,6.2-2,8.9-.9,2.6-2.3,5-4.1,7-1.8,2-4.2,3.8-7.2,5.2-.2-.5-.5-1.1-1-1.7-.4-.6-.9-1.2-1.4-1.8-.5-.6-1-1.1-1.5-1.5,2.6-1.2,4.7-2.6,6.2-4.3s2.7-3.6,3.5-5.8c.8-2.2,1.3-4.7,1.6-7.5.3-2.8.5-6,.6-9.5ZM1048.3,61.3c0-.4-.3-1-.5-1.8-.2-.7-.5-1.5-.8-2.3-.3-.8-.6-1.5-.8-2,.8-.2,1.5-.8,2.2-1.6s1.6-1.9,2.4-3.3c.5-.7,1.2-1.8,2.1-3.3.9-1.5,1.9-3.4,3-5.5,1.1-2.1,2.2-4.4,3.2-6.8,1.1-2.4,2-4.8,2.9-7.3l6.9,1.9c-1.5,3.5-3.1,7-4.9,10.4-1.8,3.4-3.7,6.7-5.6,9.7-1.9,3.1-3.8,5.8-5.7,8.3h0c-.9.6-1.6,1.1-2.2,1.4-.6.4-1.1.7-1.5,1.1-.4.4-.7.8-.7,1.1ZM1046.7,35.7h35.9v5.9h-35.9v-5.9ZM1048.3,61.3v-4.8c-.1,0,3.2-2.1,3.2-2.1l25.7-2.5c0,.8.1,1.8.2,2.8.1,1,.2,1.9.4,2.5-4.9.5-9,1-12.3,1.4-3.3.4-6,.7-8.1,1-2.1.3-3.7.5-4.9.7-1.2.2-2.1.3-2.7.5-.6.2-1.2.3-1.6.5ZM1065.3,56.5h6v24.3c0,.9,0,1.5.3,1.8.2.3.6.4,1.3.4h3.8c.4,0,.8-.2,1-.7s.4-1.3.5-2.6c.1-1.3.2-3.2.2-5.8.4.3,1,.6,1.6,1,.6.3,1.3.6,2,.9.7.2,1.3.4,1.8.6-.1,3.2-.4,5.7-.9,7.5-.5,1.8-1.1,3-2,3.7-.9.7-2.1,1.1-3.6,1.1h-5.4c-1.7,0-3.1-.2-4.1-.7-1-.5-1.6-1.3-2-2.4-.4-1.1-.5-2.7-.5-4.7v-24.3ZM1068.7,45.9l5.2-2.3c1.2,1.7,2.4,3.6,3.6,5.6,1.2,2,2.3,3.9,3.3,5.8s1.8,3.6,2.4,5.1l-5.6,2.7c-.5-1.5-1.3-3.2-2.2-5.1-1-1.9-2-3.9-3.2-6-1.2-2.1-2.3-4-3.5-5.8Z"/>
  </g>
</svg>